<svg width="88" height="100" viewBox="0 0 88 100" fill="none" xmlns="http://www.w3.org/2000/svg" role="img" focusable="false">
<title>Link to bash command language wikipedia entry</title>
<path fill-rule="evenodd" clip-rule="evenodd" d="M81.5088 20.4177L49.9387 1.67761C46.1707 -0.559204 41.5261 -0.559204 37.7581 1.67761L6.18797 20.4177C2.42098 22.6545 0.0992813 26.7875 0.0992813 31.2611V68.7413C0.0992813 73.2139 2.42098 77.3491 6.18907 79.5859L37.7592 98.3227C39.6432 99.4416 41.7444 99.9994 43.849 99.9994C45.9524 99.9994 48.0536 99.4416 49.9376 98.3227L81.5077 79.5859C85.2758 77.3491 87.5986 73.2139 87.5986 68.7413V31.2611C87.5986 26.7875 85.2758 22.6545 81.5088 20.4177Z" fill="#FEFEFE"/>
<path fill-rule="evenodd" clip-rule="evenodd" d="M38.8626 96.4039L7.2925 77.6671C4.20461 75.8338 2.28639 72.414 2.28639 68.7408V31.2617C2.28639 27.5884 4.20461 24.1687 7.29139 22.3364L38.8626 3.59635C40.3762 2.69787 42.1004 2.22273 43.8489 2.22273C45.5962 2.22273 47.3204 2.69787 48.8351 3.59635L80.4052 22.3364C83.0069 23.8809 84.762 26.5554 85.2559 29.5551C84.2086 27.3205 81.8472 26.7131 79.0955 28.3204L49.2287 46.7684C45.5047 48.9456 42.7586 51.3886 42.7564 55.8788V92.681C42.7541 95.3698 43.84 97.1116 45.508 97.6165C44.9601 97.7113 44.4078 97.7775 43.8489 97.7775C42.1004 97.7775 40.3762 97.3023 38.8626 96.4039ZM81.5087 20.4171L49.9386 1.67813C48.0546 0.559173 45.9512 0.000244141 43.8489 0.000244141C41.7454 0.000244141 39.642 0.559173 37.758 1.67813L6.18787 20.4171C2.42089 22.6539 0.0991821 26.788 0.0991821 31.2617V68.7408C0.0991821 73.2133 2.42089 77.3485 6.18897 79.5853L37.7591 98.3232C39.6442 99.4411 41.7454 100 43.8489 100C45.9523 100 48.0535 99.4411 49.9375 98.3232L81.5087 79.5853C85.2768 77.3485 87.5985 73.2133 87.5985 68.7408V31.2617C87.5985 26.788 85.2768 22.6539 81.5087 20.4171Z" fill="#3E474A"/>
<path fill-rule="evenodd" clip-rule="evenodd" d="M73.2331 72.3644L65.3717 77.0695C65.1633 77.1908 65.0101 77.3275 65.009 77.5777V79.6348C65.009 79.8862 65.1777 79.9909 65.386 79.8685L73.3687 75.0168C73.577 74.8955 73.609 74.6629 73.6101 74.4127V72.5981C73.6101 72.3478 73.4414 72.2431 73.2331 72.3644Z" fill="#47B353"/>
<path fill-rule="evenodd" clip-rule="evenodd" d="M56.493 55.0489C56.7476 54.9199 56.9571 55.0787 56.9604 55.4116L56.9869 58.1313C58.1257 57.6782 59.1146 57.5569 60.0108 57.7642C60.2048 57.816 60.2908 58.0806 60.2115 58.3947L59.6128 60.8046C59.5665 60.9865 59.464 61.1706 59.3405 61.2853C59.2887 61.336 59.2358 61.3757 59.1829 61.4022C59.1024 61.4429 59.0231 61.4562 58.947 61.4407C58.538 61.3481 57.5656 61.1354 56.0355 61.9104C54.4304 62.7229 53.8692 64.1174 53.8802 65.1526C53.8935 66.3884 54.5274 66.7632 56.7168 66.8007C59.6338 66.8492 60.8939 68.1236 60.9247 71.0616C60.9545 73.9466 59.4144 77.0444 57.0585 78.9428L57.1103 81.6349C57.1137 81.959 56.9031 82.3306 56.6484 82.4595L55.0543 83.3779C54.7986 83.5069 54.5891 83.3481 54.5858 83.024L54.5582 80.376C53.1923 80.9437 51.8088 81.0804 50.9246 80.7254C50.7582 80.6604 50.6865 80.4146 50.7527 80.1345L51.3303 77.7004C51.3766 77.5086 51.4781 77.3167 51.6159 77.1944C51.6644 77.147 51.7151 77.1106 51.7658 77.0852C51.8573 77.0389 51.9466 77.029 52.0227 77.0577C52.9752 77.3785 54.1933 77.2285 55.3652 76.6354C56.8535 75.8825 57.849 74.3644 57.8335 72.8563C57.8192 71.4882 57.0784 70.9194 55.277 70.9061C52.984 70.9128 50.8464 70.4608 50.8111 67.0851C50.7824 64.3059 52.2277 61.4143 54.5152 59.5854L54.4866 56.8679C54.4833 56.5338 54.6872 56.1667 54.9496 56.0345L56.493 55.0489Z" fill="#FEFEFE"/>
</svg>
