<svg width="101" height="46" viewBox="0 0 101 46" fill="none" xmlns="http://www.w3.org/2000/svg" role="img" focusable="false">
<title>Link to cloudflare (Global network)</title>
<path d="M91.2623 21.9899L79.6451 19.293L77.5705 18.4632L24.2555 18.8781V44.6021L91.2623 44.8096V21.9899Z" fill="white"/>
<path d="M69.4799 42.3201C69.8137 41.4366 69.9314 40.486 69.8231 39.5478C69.7148 38.6095 69.3838 37.7107 68.8576 36.9264C68.3171 36.2783 67.6541 35.7432 66.9065 35.3517C66.159 34.9601 65.3416 34.7198 64.5011 34.6444L28.4045 34.2295C28.1971 34.2295 27.9896 34.0221 27.7822 34.0221C27.7339 33.9858 27.6947 33.9389 27.6676 33.8848C27.6406 33.8308 27.6266 33.7713 27.6266 33.7109C27.6266 33.6505 27.6406 33.591 27.6676 33.5369C27.6947 33.4829 27.7339 33.4359 27.7822 33.3997C27.9896 32.9848 28.1971 32.7774 28.612 32.7774L64.916 32.3625C67.2208 32.1067 69.4158 31.2415 71.2753 29.856C73.1348 28.4705 74.5917 26.6146 75.496 24.4793L77.5705 19.0856C77.5705 18.8781 77.778 18.6707 77.5705 18.4632C76.4427 13.4396 73.7058 8.92149 69.7756 5.59541C65.8455 2.26933 60.9371 0.317122 55.7961 0.0354263C50.6552 -0.246269 45.5628 1.15795 41.2928 4.03471C37.0228 6.91147 33.8086 11.1035 32.1387 15.9738C29.9707 14.4254 27.3263 13.6909 24.6704 13.8993C22.233 14.1711 19.9605 15.2638 18.2263 16.998C16.4922 18.7322 15.3994 21.0046 15.1276 23.442C14.9895 24.6897 15.0596 25.9515 15.3351 27.1762C11.3913 27.2852 7.64568 28.9286 4.89496 31.7568C2.14423 34.585 0.605487 38.3748 0.606037 42.3201C0.571993 43.0867 0.641773 43.8543 0.813485 44.6021C0.823011 44.764 0.891643 44.9169 1.00636 45.0316C1.12107 45.1463 1.2739 45.2149 1.43585 45.2244H68.0278C68.4427 45.2244 68.8576 45.017 68.8576 44.6021L69.4799 42.3201Z" fill="#F48120"/>
<path d="M80.8898 19.0856H79.8525C79.6451 19.0856 79.4376 19.293 79.2302 19.5005L77.778 24.4793C77.4442 25.3629 77.3266 26.3134 77.4348 27.2517C77.5431 28.1899 77.8741 29.0887 78.4004 29.873C78.9409 30.5211 79.6039 31.0562 80.3514 31.4478C81.0989 31.8393 81.9163 32.0797 82.7568 32.155L90.4326 32.5699C90.64 32.5699 90.8474 32.7774 91.0549 32.7774C91.1032 32.8136 91.1424 32.8606 91.1694 32.9146C91.1964 32.9686 91.2105 33.0282 91.2105 33.0885C91.2105 33.1489 91.1964 33.2085 91.1694 33.2625C91.1424 33.3165 91.1032 33.3635 91.0549 33.3997C90.8474 33.8146 90.64 34.0221 90.2251 34.0221L82.3419 34.437C80.0372 34.6928 77.8421 35.5579 75.9826 36.9434C74.1231 38.3289 72.6663 40.1848 71.7619 42.3201L71.347 44.1872C71.1396 44.3946 71.347 44.8096 71.7619 44.8096H99.1455C99.23 44.8216 99.3162 44.8139 99.3973 44.7868C99.4783 44.7598 99.5519 44.7143 99.6123 44.654C99.6727 44.5936 99.7181 44.52 99.7452 44.4389C99.7722 44.3579 99.7799 44.2717 99.7679 44.1872C100.262 42.4295 100.54 40.6183 100.598 38.7935C100.565 33.5768 98.4779 28.5831 94.789 24.8942C91.1002 21.2054 86.1065 19.1185 80.8898 19.0856" fill="#FAAD3F"/>
</svg>
