<svg width="89" height="100" viewBox="0 0 89 100" fill="none" xmlns="http://www.w3.org/2000/svg" role="img" focusable="false">
<title>Link to cascading style sheet language wikipedia entry</title>
<path d="M8.02143 90.0036L0 0H88.1714L80.1393 89.9893L44.0321 100L8.02143 90.0036Z" fill="#1572B6"/>
<path d="M44.0857 92.3501L73.2643 84.2608L80.1285 7.36084H44.0857V92.3501Z" fill="#33A9DC"/>
<path d="M44.0857 39.9679H58.6928L59.7 28.6643H44.0857V17.625H71.7643L71.5 20.5857L68.7893 51.0071H44.0857V39.9679V39.9679Z" fill="white"/>
<path d="M44.1536 68.6361L44.1036 68.6504L31.8107 65.329L31.025 56.5254H19.9429L21.4893 73.8575L44.1 80.1361L44.1536 80.1218V68.6361V68.6361Z" fill="#EBEBEB"/>
<path d="M57.7533 50.5391L56.4247 65.3212L44.114 68.6426V80.1284L66.7426 73.8569L66.9104 71.9926L68.8283 50.5391H57.7533V50.5391Z" fill="white"/>
<path d="M44.1248 17.625V28.6643H17.4605L17.239 26.1821L16.7355 20.5857L16.4712 17.625H44.1248V17.625Z" fill="#EBEBEB"/>
<path d="M44.0855 39.9673V51.0066H31.9462L31.7247 48.5244L31.2247 42.928L30.9604 39.9673H44.0855V39.9673Z" fill="#EBEBEB"/>
</svg>
