<svg width="107" height="35" viewBox="0 0 107 35" fill="none" xmlns="http://www.w3.org/2000/svg" role="img" focusable="false">
<title>Link to express (javascript web application framework)</title>
<rect x="0.807617" y="0.000488281" width="106" height="34.9619" rx="3" fill="white"/>
<mask id="path-2-inside-1_514_1274" fill="white">
<path d="M4.4584 25.5843V14.4552H18.3537V13.8042H4.4584V3.65127H19.2322V3.00049H3.80762V26.2351H19.3623V25.5843H4.45859H4.4584ZM31.891 9.50869L26.1312 17.0909L20.5014 9.50889H19.6553L25.7406 17.5792L19.0693 26.2349H19.8504L26.1309 18.0669L32.4439 26.2349H33.2574L26.5539 17.5788L32.6717 9.5085H31.8908L31.891 9.50869ZM35.2102 31.9624V21.5493H35.2752C35.6658 23.0679 36.4359 24.2882 37.5857 25.2103C38.7355 26.1321 40.1998 26.5933 41.9787 26.5933C43.1285 26.5933 44.1482 26.3601 45.0377 25.8937C45.9271 25.4272 46.6701 24.7927 47.2668 23.9899C47.8633 23.1872 48.3189 22.2544 48.6336 21.1913C48.948 20.1284 49.1055 19.011 49.1055 17.8397C49.1055 16.5813 48.9426 15.4206 48.6172 14.3577C48.2918 13.2946 47.8199 12.3726 47.2018 11.5917C46.5834 10.8106 45.835 10.203 44.9562 9.76943C44.0777 9.33545 43.0852 9.11846 41.9787 9.11846C41.1326 9.11846 40.3463 9.24326 39.6195 9.49268C38.8928 9.74229 38.2475 10.0946 37.6834 10.5503C37.116 11.0095 36.6222 11.5526 36.2189 12.161C35.8068 12.7794 35.4922 13.4573 35.2752 14.195H35.2102V9.50869H34.5594V31.9624H35.2102V31.9624ZM41.9787 25.9747C39.9396 25.9747 38.3016 25.2751 37.065 23.8759C35.8285 22.4767 35.2102 20.4644 35.2102 17.8394C35.2102 16.7546 35.3621 15.7241 35.6658 14.7479C35.9695 13.7718 36.4088 12.9147 36.9836 12.1772C37.5586 11.4396 38.2691 10.8538 39.115 10.42C39.9611 9.98603 40.9158 9.76904 41.9787 9.76904C43.0635 9.76904 44.0127 9.98603 44.8262 10.42C45.6396 10.8538 46.3123 11.445 46.8438 12.1935C47.3752 12.9419 47.7766 13.7989 48.0479 14.7642C48.3189 15.7296 48.4545 16.7546 48.4545 17.8394C48.4545 18.8157 48.3299 19.7866 48.0803 20.7519C47.8309 21.7173 47.4457 22.5851 46.925 23.3554C46.4045 24.1253 45.7375 24.7544 44.9238 25.2427C44.1102 25.7308 43.1285 25.9747 41.9787 25.9747V25.9747ZM52.685 26.2351V16.7655C52.685 15.8544 52.815 14.9647 53.0756 14.0972C53.3357 13.2294 53.7371 12.4646 54.2795 11.803C54.8219 11.1413 55.5105 10.6206 56.3459 10.2409C57.1811 9.86123 58.1736 9.704 59.3234 9.76904V9.11826C58.3254 9.09678 57.4523 9.20498 56.7039 9.44365C55.9553 9.68232 55.31 10.0077 54.7676 10.42C54.2252 10.8321 53.7914 11.3147 53.466 11.8681C53.1409 12.4205 52.8996 13.0182 52.75 13.6415H52.685V9.50869H52.0342V26.2353H52.685V26.2351ZM60.1369 18.0021H74.1297C74.1732 16.8522 74.0594 15.746 73.7881 14.6829C73.517 13.6198 73.083 12.6761 72.4865 11.8519C71.8898 11.0274 71.1197 10.3657 70.176 9.8667C69.2322 9.36768 68.1096 9.11826 66.808 9.11826C65.875 9.11826 64.9639 9.31357 64.0744 9.7042C63.185 10.0946 62.4039 10.664 61.7314 11.4124C61.059 12.1608 60.5166 13.0774 60.1045 14.1624C59.6924 15.247 59.4861 16.4835 59.4861 17.872C59.4861 19.1085 59.6271 20.2638 59.9092 21.3376C60.1912 22.4114 60.625 23.3444 61.2107 24.1362C61.7967 24.928 62.5506 25.5409 63.4725 25.9747C64.3943 26.4087 65.5063 26.6147 66.808 26.5931C68.717 26.5931 70.3225 26.056 71.624 24.9823C72.9258 23.9083 73.6959 22.3952 73.9346 20.4427H73.2838C73.0018 22.2868 72.2803 23.6698 71.1197 24.5917C69.959 25.5138 68.5002 25.9747 66.7428 25.9747C65.5496 25.9747 64.5408 25.7687 63.7164 25.3565C62.8922 24.9444 62.2195 24.3802 61.6988 23.6644C61.1783 22.9483 60.7932 22.1077 60.5438 21.1423C60.2941 20.1771 60.1586 19.1302 60.1369 18.0021ZM73.4789 17.3513H60.1371C60.202 16.1798 60.4189 15.1276 60.7877 14.1948C61.1566 13.2618 61.6393 12.4646 62.2359 11.803C62.8324 11.1413 63.5268 10.637 64.3186 10.2897C65.1104 9.94268 65.9619 9.76904 66.873 9.76904C67.9578 9.76904 68.9121 9.96982 69.7367 10.3712C70.5609 10.7726 71.2498 11.3204 71.8031 12.0146C72.3562 12.7087 72.7738 13.5169 73.0559 14.4388C73.3379 15.3608 73.4789 16.3317 73.4789 17.3513ZM87.6346 14.4552H88.2854C88.2854 12.5894 87.743 11.2335 86.6584 10.3874C85.5734 9.54131 84.0982 9.11826 82.2326 9.11826C81.1912 9.11826 80.3127 9.24854 79.5967 9.50889C78.8809 9.76904 78.2951 10.1054 77.8395 10.5175C77.384 10.9296 77.0586 11.3853 76.8633 11.8843C76.668 12.3833 76.5703 12.8606 76.5703 13.3161C76.5703 14.2272 76.733 14.954 77.0586 15.4964C77.384 16.0388 77.8938 16.4618 78.5879 16.7655C79.0652 16.9823 79.6074 17.1776 80.215 17.3515C80.8225 17.5249 81.5275 17.7093 82.3303 17.9044C83.0461 18.0782 83.7512 18.2517 84.4455 18.4251C85.1396 18.5987 85.7525 18.8319 86.284 19.1247C86.8156 19.4177 87.2494 19.7919 87.5857 20.2476C87.9219 20.703 88.09 21.2997 88.09 22.0372C88.09 22.7532 87.9221 23.3606 87.5857 23.8595C87.2523 24.3559 86.8134 24.7726 86.3004 25.08C85.7797 25.3944 85.1992 25.6222 84.5594 25.7632C83.9193 25.9042 83.2957 25.9747 82.6883 25.9747C80.7141 25.9747 79.2008 25.5354 78.1486 24.6569C77.0965 23.7782 76.5705 22.3952 76.5705 20.5077H75.9195C75.9195 22.6122 76.4891 24.1524 77.6279 25.1288C78.767 26.105 80.4537 26.5931 82.6883 26.5931C83.4041 26.5931 84.1254 26.5116 84.8523 26.3489C85.5789 26.1862 86.2299 25.9206 86.8047 25.5517C87.3746 25.1879 87.8533 24.6981 88.2039 24.12C88.5619 23.5341 88.741 22.8183 88.741 21.9722C88.741 21.1694 88.5836 20.5187 88.2691 20.0196C87.9545 19.5208 87.5424 19.1085 87.0324 18.7831C86.5227 18.4577 85.9479 18.2028 85.3078 18.0185C84.6642 17.833 84.0187 17.6539 83.3715 17.4813C82.575 17.2724 81.7777 17.0663 80.9797 16.8632C80.2965 16.6896 79.6619 16.4835 79.0762 16.2448C78.5121 16.0062 78.0619 15.6646 77.7256 15.2198C77.3893 14.7751 77.2213 14.1405 77.2213 13.3161C77.2213 13.1644 77.2646 12.8931 77.3514 12.5026C77.4381 12.112 77.6443 11.7161 77.9697 11.3147C78.2951 10.9136 78.7939 10.5556 79.4666 10.2409C80.1391 9.92646 81.0611 9.76904 82.2326 9.76904C83.0354 9.76904 83.7674 9.85596 84.4291 10.0294C85.0908 10.203 85.6603 10.4796 86.1375 10.8593C86.6148 11.239 86.9836 11.7216 87.2439 12.3073C87.5043 12.8933 87.6346 13.6091 87.6346 14.4552V14.4552ZM102.701 14.4552H103.352C103.352 12.5894 102.81 11.2335 101.725 10.3874C100.64 9.54131 99.165 9.11826 97.2992 9.11826C96.258 9.11826 95.3793 9.24854 94.6635 9.50889C93.9475 9.76904 93.3617 10.1054 92.9062 10.5175C92.4506 10.9296 92.1252 11.3853 91.9299 11.8843C91.7346 12.3833 91.6371 12.8606 91.6371 13.3161C91.6371 14.2272 91.7998 14.954 92.1254 15.4964C92.4506 16.0388 92.9605 16.4618 93.6547 16.7655C94.132 16.9823 94.6742 17.1776 95.2816 17.3515C95.8891 17.5249 96.5941 17.7093 97.3969 17.9044C98.1129 18.0782 98.818 18.2517 99.5121 18.4251C100.206 18.5987 100.819 18.8319 101.351 19.1247C101.882 19.4177 102.316 19.7919 102.652 20.2476C102.989 20.703 103.157 21.2997 103.157 22.0372C103.157 22.7532 102.989 23.3606 102.652 23.8595C102.319 24.3559 101.88 24.7726 101.367 25.08C100.846 25.3944 100.266 25.6222 99.626 25.7632C98.9861 25.9042 98.3623 25.9747 97.7549 25.9747C95.7807 25.9747 94.2676 25.5354 93.2154 24.6569C92.1631 23.7782 91.6371 22.3952 91.6371 20.5077H90.9863C90.9863 22.6122 91.5557 24.1524 92.6947 25.1288C93.8336 26.105 95.5203 26.5931 97.7549 26.5931C98.4709 26.5931 99.1922 26.5116 99.9189 26.3489C100.646 26.1862 101.296 25.9206 101.871 25.5517C102.441 25.1879 102.92 24.6981 103.271 24.12C103.629 23.5341 103.808 22.8183 103.808 21.9722C103.808 21.1694 103.65 20.5187 103.336 20.0196C103.021 19.5208 102.609 19.1085 102.099 18.7831C101.589 18.4577 101.014 18.2028 100.375 18.0185C99.731 17.833 99.0855 17.6539 98.4383 17.4813C97.6418 17.2724 96.8445 17.0663 96.0465 16.8632C95.3631 16.6896 94.7285 16.4835 94.1428 16.2448C93.5787 16.0062 93.1285 15.6646 92.7924 15.2198C92.4561 14.7751 92.2879 14.1405 92.2879 13.3161C92.2879 13.1644 92.3313 12.8931 92.4182 12.5026C92.5049 12.112 92.7111 11.7161 93.0363 11.3147C93.3617 10.9136 93.8607 10.5556 94.5332 10.2409C95.2059 9.92646 96.1277 9.76904 97.2994 9.76904C98.1022 9.76904 98.8342 9.85596 99.4959 10.0294C100.158 10.203 100.727 10.4796 101.204 10.8593C101.682 11.239 102.05 11.7216 102.311 12.3073C102.571 12.8933 102.701 13.6091 102.701 14.4552H102.701Z"/>
</mask>
<path d="M4.4584 25.5843V14.4552H18.3537V13.8042H4.4584V3.65127H19.2322V3.00049H3.80762V26.2351H19.3623V25.5843H4.45859H4.4584ZM31.891 9.50869L26.1312 17.0909L20.5014 9.50889H19.6553L25.7406 17.5792L19.0693 26.2349H19.8504L26.1309 18.0669L32.4439 26.2349H33.2574L26.5539 17.5788L32.6717 9.5085H31.8908L31.891 9.50869ZM35.2102 31.9624V21.5493H35.2752C35.6658 23.0679 36.4359 24.2882 37.5857 25.2103C38.7355 26.1321 40.1998 26.5933 41.9787 26.5933C43.1285 26.5933 44.1482 26.3601 45.0377 25.8937C45.9271 25.4272 46.6701 24.7927 47.2668 23.9899C47.8633 23.1872 48.3189 22.2544 48.6336 21.1913C48.948 20.1284 49.1055 19.011 49.1055 17.8397C49.1055 16.5813 48.9426 15.4206 48.6172 14.3577C48.2918 13.2946 47.8199 12.3726 47.2018 11.5917C46.5834 10.8106 45.835 10.203 44.9562 9.76943C44.0777 9.33545 43.0852 9.11846 41.9787 9.11846C41.1326 9.11846 40.3463 9.24326 39.6195 9.49268C38.8928 9.74229 38.2475 10.0946 37.6834 10.5503C37.116 11.0095 36.6222 11.5526 36.2189 12.161C35.8068 12.7794 35.4922 13.4573 35.2752 14.195H35.2102V9.50869H34.5594V31.9624H35.2102V31.9624ZM41.9787 25.9747C39.9396 25.9747 38.3016 25.2751 37.065 23.8759C35.8285 22.4767 35.2102 20.4644 35.2102 17.8394C35.2102 16.7546 35.3621 15.7241 35.6658 14.7479C35.9695 13.7718 36.4088 12.9147 36.9836 12.1772C37.5586 11.4396 38.2691 10.8538 39.115 10.42C39.9611 9.98603 40.9158 9.76904 41.9787 9.76904C43.0635 9.76904 44.0127 9.98603 44.8262 10.42C45.6396 10.8538 46.3123 11.445 46.8438 12.1935C47.3752 12.9419 47.7766 13.7989 48.0479 14.7642C48.3189 15.7296 48.4545 16.7546 48.4545 17.8394C48.4545 18.8157 48.3299 19.7866 48.0803 20.7519C47.8309 21.7173 47.4457 22.5851 46.925 23.3554C46.4045 24.1253 45.7375 24.7544 44.9238 25.2427C44.1102 25.7308 43.1285 25.9747 41.9787 25.9747V25.9747ZM52.685 26.2351V16.7655C52.685 15.8544 52.815 14.9647 53.0756 14.0972C53.3357 13.2294 53.7371 12.4646 54.2795 11.803C54.8219 11.1413 55.5105 10.6206 56.3459 10.2409C57.1811 9.86123 58.1736 9.704 59.3234 9.76904V9.11826C58.3254 9.09678 57.4523 9.20498 56.7039 9.44365C55.9553 9.68232 55.31 10.0077 54.7676 10.42C54.2252 10.8321 53.7914 11.3147 53.466 11.8681C53.1409 12.4205 52.8996 13.0182 52.75 13.6415H52.685V9.50869H52.0342V26.2353H52.685V26.2351ZM60.1369 18.0021H74.1297C74.1732 16.8522 74.0594 15.746 73.7881 14.6829C73.517 13.6198 73.083 12.6761 72.4865 11.8519C71.8898 11.0274 71.1197 10.3657 70.176 9.8667C69.2322 9.36768 68.1096 9.11826 66.808 9.11826C65.875 9.11826 64.9639 9.31357 64.0744 9.7042C63.185 10.0946 62.4039 10.664 61.7314 11.4124C61.059 12.1608 60.5166 13.0774 60.1045 14.1624C59.6924 15.247 59.4861 16.4835 59.4861 17.872C59.4861 19.1085 59.6271 20.2638 59.9092 21.3376C60.1912 22.4114 60.625 23.3444 61.2107 24.1362C61.7967 24.928 62.5506 25.5409 63.4725 25.9747C64.3943 26.4087 65.5063 26.6147 66.808 26.5931C68.717 26.5931 70.3225 26.056 71.624 24.9823C72.9258 23.9083 73.6959 22.3952 73.9346 20.4427H73.2838C73.0018 22.2868 72.2803 23.6698 71.1197 24.5917C69.959 25.5138 68.5002 25.9747 66.7428 25.9747C65.5496 25.9747 64.5408 25.7687 63.7164 25.3565C62.8922 24.9444 62.2195 24.3802 61.6988 23.6644C61.1783 22.9483 60.7932 22.1077 60.5438 21.1423C60.2941 20.1771 60.1586 19.1302 60.1369 18.0021ZM73.4789 17.3513H60.1371C60.202 16.1798 60.4189 15.1276 60.7877 14.1948C61.1566 13.2618 61.6393 12.4646 62.2359 11.803C62.8324 11.1413 63.5268 10.637 64.3186 10.2897C65.1104 9.94268 65.9619 9.76904 66.873 9.76904C67.9578 9.76904 68.9121 9.96982 69.7367 10.3712C70.5609 10.7726 71.2498 11.3204 71.8031 12.0146C72.3562 12.7087 72.7738 13.5169 73.0559 14.4388C73.3379 15.3608 73.4789 16.3317 73.4789 17.3513ZM87.6346 14.4552H88.2854C88.2854 12.5894 87.743 11.2335 86.6584 10.3874C85.5734 9.54131 84.0982 9.11826 82.2326 9.11826C81.1912 9.11826 80.3127 9.24854 79.5967 9.50889C78.8809 9.76904 78.2951 10.1054 77.8395 10.5175C77.384 10.9296 77.0586 11.3853 76.8633 11.8843C76.668 12.3833 76.5703 12.8606 76.5703 13.3161C76.5703 14.2272 76.733 14.954 77.0586 15.4964C77.384 16.0388 77.8938 16.4618 78.5879 16.7655C79.0652 16.9823 79.6074 17.1776 80.215 17.3515C80.8225 17.5249 81.5275 17.7093 82.3303 17.9044C83.0461 18.0782 83.7512 18.2517 84.4455 18.4251C85.1396 18.5987 85.7525 18.8319 86.284 19.1247C86.8156 19.4177 87.2494 19.7919 87.5857 20.2476C87.9219 20.703 88.09 21.2997 88.09 22.0372C88.09 22.7532 87.9221 23.3606 87.5857 23.8595C87.2523 24.3559 86.8134 24.7726 86.3004 25.08C85.7797 25.3944 85.1992 25.6222 84.5594 25.7632C83.9193 25.9042 83.2957 25.9747 82.6883 25.9747C80.7141 25.9747 79.2008 25.5354 78.1486 24.6569C77.0965 23.7782 76.5705 22.3952 76.5705 20.5077H75.9195C75.9195 22.6122 76.4891 24.1524 77.6279 25.1288C78.767 26.105 80.4537 26.5931 82.6883 26.5931C83.4041 26.5931 84.1254 26.5116 84.8523 26.3489C85.5789 26.1862 86.2299 25.9206 86.8047 25.5517C87.3746 25.1879 87.8533 24.6981 88.2039 24.12C88.5619 23.5341 88.741 22.8183 88.741 21.9722C88.741 21.1694 88.5836 20.5187 88.2691 20.0196C87.9545 19.5208 87.5424 19.1085 87.0324 18.7831C86.5227 18.4577 85.9479 18.2028 85.3078 18.0185C84.6642 17.833 84.0187 17.6539 83.3715 17.4813C82.575 17.2724 81.7777 17.0663 80.9797 16.8632C80.2965 16.6896 79.6619 16.4835 79.0762 16.2448C78.5121 16.0062 78.0619 15.6646 77.7256 15.2198C77.3893 14.7751 77.2213 14.1405 77.2213 13.3161C77.2213 13.1644 77.2646 12.8931 77.3514 12.5026C77.4381 12.112 77.6443 11.7161 77.9697 11.3147C78.2951 10.9136 78.7939 10.5556 79.4666 10.2409C80.1391 9.92646 81.0611 9.76904 82.2326 9.76904C83.0354 9.76904 83.7674 9.85596 84.4291 10.0294C85.0908 10.203 85.6603 10.4796 86.1375 10.8593C86.6148 11.239 86.9836 11.7216 87.2439 12.3073C87.5043 12.8933 87.6346 13.6091 87.6346 14.4552V14.4552ZM102.701 14.4552H103.352C103.352 12.5894 102.81 11.2335 101.725 10.3874C100.64 9.54131 99.165 9.11826 97.2992 9.11826C96.258 9.11826 95.3793 9.24854 94.6635 9.50889C93.9475 9.76904 93.3617 10.1054 92.9062 10.5175C92.4506 10.9296 92.1252 11.3853 91.9299 11.8843C91.7346 12.3833 91.6371 12.8606 91.6371 13.3161C91.6371 14.2272 91.7998 14.954 92.1254 15.4964C92.4506 16.0388 92.9605 16.4618 93.6547 16.7655C94.132 16.9823 94.6742 17.1776 95.2816 17.3515C95.8891 17.5249 96.5941 17.7093 97.3969 17.9044C98.1129 18.0782 98.818 18.2517 99.5121 18.4251C100.206 18.5987 100.819 18.8319 101.351 19.1247C101.882 19.4177 102.316 19.7919 102.652 20.2476C102.989 20.703 103.157 21.2997 103.157 22.0372C103.157 22.7532 102.989 23.3606 102.652 23.8595C102.319 24.3559 101.88 24.7726 101.367 25.08C100.846 25.3944 100.266 25.6222 99.626 25.7632C98.9861 25.9042 98.3623 25.9747 97.7549 25.9747C95.7807 25.9747 94.2676 25.5354 93.2154 24.6569C92.1631 23.7782 91.6371 22.3952 91.6371 20.5077H90.9863C90.9863 22.6122 91.5557 24.1524 92.6947 25.1288C93.8336 26.105 95.5203 26.5931 97.7549 26.5931C98.4709 26.5931 99.1922 26.5116 99.9189 26.3489C100.646 26.1862 101.296 25.9206 101.871 25.5517C102.441 25.1879 102.92 24.6981 103.271 24.12C103.629 23.5341 103.808 22.8183 103.808 21.9722C103.808 21.1694 103.65 20.5187 103.336 20.0196C103.021 19.5208 102.609 19.1085 102.099 18.7831C101.589 18.4577 101.014 18.2028 100.375 18.0185C99.731 17.833 99.0855 17.6539 98.4383 17.4813C97.6418 17.2724 96.8445 17.0663 96.0465 16.8632C95.3631 16.6896 94.7285 16.4835 94.1428 16.2448C93.5787 16.0062 93.1285 15.6646 92.7924 15.2198C92.4561 14.7751 92.2879 14.1405 92.2879 13.3161C92.2879 13.1644 92.3313 12.8931 92.4182 12.5026C92.5049 12.112 92.7111 11.7161 93.0363 11.3147C93.3617 10.9136 93.8607 10.5556 94.5332 10.2409C95.2059 9.92646 96.1277 9.76904 97.2994 9.76904C98.1022 9.76904 98.8342 9.85596 99.4959 10.0294C100.158 10.203 100.727 10.4796 101.204 10.8593C101.682 11.239 102.05 11.7216 102.311 12.3073C102.571 12.8933 102.701 13.6091 102.701 14.4552H102.701Z" fill="#222222" stroke="black" stroke-width="2" mask="url(#path-2-inside-1_514_1274)"/>
</svg>
