<svg width="100" height="37" viewBox="0 0 107 35" fill="none" xmlns="http://www.w3.org/2000/svg" role="img" focusable="false">
<title>Link to express (javascript web application framework)</title>
<rect x="0.807617" y="0.000488281" width="100" height="36.0657" rx="5" fill="#F4F4F4"/>
<path d="M6.39332 25.3259V15.3097H18.8991V14.7238H6.39332V5.58619H19.6898V5.00049H5.80762V25.9116H19.8068V25.3259H6.3935H6.39332ZM31.0827 10.8579L25.8989 17.6819L20.832 10.858H20.0705L25.5473 18.1213L19.5432 25.9114H20.2461L25.8985 18.5603L31.5803 25.9114H32.3124L26.2793 18.121L31.7853 10.8577H31.0825L31.0827 10.8579ZM34.0699 31.0662V21.6944H34.1284C34.48 23.0611 35.1731 24.1594 36.2079 24.9893C37.2428 25.819 38.5606 26.234 40.1616 26.234C41.1964 26.234 42.1142 26.0241 42.9147 25.6043C43.7152 25.1846 44.3839 24.6135 44.9209 23.891C45.4577 23.1685 45.8678 22.329 46.151 21.3722C46.434 20.4156 46.5757 19.41 46.5757 18.3558C46.5757 17.2233 46.4291 16.1786 46.1362 15.222C45.8434 14.2652 45.4187 13.4354 44.8623 12.7326C44.3058 12.0296 43.6322 11.4828 42.8414 11.0925C42.0507 10.702 41.1574 10.5067 40.1616 10.5067C39.4001 10.5067 38.6924 10.619 38.0383 10.8435C37.3843 11.0681 36.8035 11.3852 36.2958 11.7953C35.7852 12.2086 35.3407 12.6974 34.9778 13.245C34.6069 13.8015 34.3237 14.4116 34.1284 15.0756H34.0699V10.8579H33.4842V31.0662H34.0699V31.0662ZM40.1616 25.6773C38.3264 25.6773 36.8522 25.0476 35.7393 23.7883C34.6264 22.529 34.0699 20.718 34.0699 18.3555C34.0699 17.3792 34.2067 16.4518 34.48 15.5732C34.7533 14.6946 35.1487 13.9233 35.666 13.2596C36.1835 12.5956 36.823 12.0685 37.5843 11.6781C38.3458 11.2875 39.205 11.0922 40.1616 11.0922C41.1379 11.0922 41.9922 11.2875 42.7243 11.6781C43.4564 12.0685 44.0618 12.6006 44.5401 13.2742C45.0184 13.9478 45.3797 14.7191 45.6238 15.5878C45.8678 16.4567 45.9898 17.3792 45.9898 18.3555C45.9898 19.2342 45.8777 20.108 45.653 20.9767C45.4285 21.8456 45.0819 22.6266 44.6133 23.3199C44.1448 24.0128 43.5445 24.579 42.8122 25.0185C42.0799 25.4577 41.1964 25.6773 40.1616 25.6773V25.6773ZM49.7972 25.9116V17.389C49.7972 16.569 49.9143 15.7683 50.1488 14.9875C50.3829 14.2065 50.7442 13.5181 51.2323 12.9228C51.7204 12.3272 52.3403 11.8586 53.0921 11.5169C53.8437 11.1752 54.737 11.0337 55.7719 11.0922V10.5065C54.8736 10.4871 54.0879 10.5845 53.4143 10.7993C52.7405 11.0141 52.1597 11.307 51.6716 11.6781C51.1834 12.049 50.793 12.4833 50.5002 12.9813C50.2075 13.4785 49.9904 14.0164 49.8558 14.5774H49.7972V10.8579H49.2115V25.9118H49.7972V25.9116ZM56.504 18.5019H69.0975C69.1367 17.4671 69.0342 16.4714 68.79 15.5147C68.5461 14.5579 68.1555 13.7085 67.6186 12.9667C67.0816 12.2247 66.3885 11.6292 65.5391 11.1801C64.6898 10.731 63.6794 10.5065 62.508 10.5065C61.6683 10.5065 60.8482 10.6823 60.0477 11.0338C59.2472 11.3852 58.5443 11.8976 57.9391 12.5712C57.3338 13.2448 56.8457 14.0697 56.4748 15.0462C56.1039 16.0223 55.9183 17.1352 55.9183 18.3848C55.9183 19.4977 56.0452 20.5374 56.299 21.5039C56.5528 22.4703 56.9433 23.31 57.4704 24.0227C57.9978 24.7353 58.6763 25.2869 59.506 25.6773C60.3357 26.0679 61.3364 26.2533 62.508 26.2338C64.2261 26.2338 65.671 25.7504 66.8424 24.7841C68.014 23.8175 68.7071 22.4557 68.9219 20.6985H68.3362C68.0823 22.3582 67.433 23.6029 66.3885 24.4326C65.3438 25.2624 64.0309 25.6773 62.4493 25.6773C61.3754 25.6773 60.4675 25.4918 59.7255 25.1209C58.9837 24.75 58.3783 24.2422 57.9097 23.598C57.4413 22.9536 57.0946 22.197 56.8701 21.3281C56.6455 20.4594 56.5235 19.5172 56.504 18.5019ZM68.5118 17.9162H56.5042C56.5625 16.8619 56.7578 15.9149 57.0897 15.0754C57.4217 14.2357 57.8561 13.5181 58.3931 12.9228C58.9299 12.3272 59.5548 11.8734 60.2675 11.5608C60.9801 11.2485 61.7465 11.0922 62.5665 11.0922C63.5428 11.0922 64.4017 11.2729 65.1438 11.6341C65.8856 11.9954 66.5056 12.4884 67.0036 13.1131C67.5014 13.7379 67.8772 14.4653 68.131 15.2949C68.3849 16.1248 68.5118 16.9986 68.5118 17.9162ZM81.2519 15.3097H81.8376C81.8376 13.6305 81.3494 12.4102 80.3733 11.6487C79.3969 10.8872 78.0692 10.5065 76.3901 10.5065C75.4529 10.5065 74.6622 10.6237 74.0178 10.858C73.3735 11.0922 72.8464 11.3949 72.4363 11.7658C72.0263 12.1367 71.7335 12.5468 71.5577 12.9959C71.3819 13.445 71.294 13.8746 71.294 14.2846C71.294 15.1046 71.4405 15.7587 71.7335 16.2468C72.0264 16.7349 72.4851 17.1157 73.1099 17.389C73.5395 17.5841 74.0274 17.7599 74.5743 17.9164C75.121 18.0725 75.7555 18.2384 76.478 18.414C77.1222 18.5704 77.7568 18.7265 78.3817 18.8826C79.0064 19.0389 79.558 19.2488 80.0363 19.5123C80.5148 19.776 80.9052 20.1128 81.2079 20.5229C81.5104 20.9328 81.6618 21.4698 81.6618 22.1335C81.6618 22.7779 81.5106 23.3246 81.2079 23.7736C80.9078 24.2204 80.5128 24.5954 80.0511 24.872C79.5825 25.155 79.0601 25.36 78.4842 25.4869C77.9082 25.6138 77.3469 25.6773 76.8002 25.6773C75.0234 25.6773 73.6615 25.282 72.7145 24.4913C71.7676 23.7004 71.2942 22.4557 71.2942 20.757H70.7083C70.7083 22.651 71.2209 24.0372 72.2459 24.916C73.2711 25.7945 74.7891 26.2338 76.8002 26.2338C77.4445 26.2338 78.0936 26.1605 78.7479 26.0141C79.4018 25.8677 79.9877 25.6286 80.505 25.2965C81.0179 24.9692 81.4488 24.5284 81.7643 24.0081C82.0865 23.4807 82.2477 22.8365 82.2477 22.075C82.2477 21.3525 82.106 20.7668 81.823 20.3177C81.5398 19.8688 81.1689 19.4977 80.7099 19.2048C80.2512 18.912 79.7338 18.6826 79.1578 18.5167C78.5785 18.3497 77.9976 18.1886 77.4151 18.0333C76.6982 17.8452 75.9807 17.6597 75.2625 17.4769C74.6476 17.3206 74.0765 17.1352 73.5493 16.9204C73.0417 16.7056 72.6365 16.3981 72.3338 15.9979C72.0311 15.5976 71.8799 15.0265 71.8799 14.2846C71.8799 14.148 71.9189 13.9038 71.997 13.5524C72.075 13.2009 72.2607 12.8446 72.5535 12.4833C72.8464 12.1223 73.2953 11.8001 73.9007 11.5169C74.5059 11.2339 75.3358 11.0922 76.3901 11.0922C77.1126 11.0922 77.7714 11.1704 78.367 11.3265C78.9625 11.4828 79.4751 11.7317 79.9045 12.0734C80.3341 12.4151 80.666 12.8495 80.9003 13.3766C81.1346 13.904 81.2519 14.5482 81.2519 15.3097V15.3097ZM94.8118 15.3097H95.3975C95.3975 13.6305 94.9096 12.4102 93.9333 11.6487C92.957 10.8872 91.6293 10.5065 89.9501 10.5065C89.013 10.5065 88.2221 10.6237 87.5779 10.858C86.9335 11.0922 86.4063 11.3949 85.9964 11.7658C85.5863 12.1367 85.2934 12.5468 85.1177 12.9959C84.9419 13.445 84.8542 13.8746 84.8542 14.2846C84.8542 15.1046 85.0006 15.7587 85.2936 16.2468C85.5863 16.7349 86.0453 17.1157 86.67 17.389C87.0996 17.5841 87.5876 17.7599 88.1342 17.9164C88.6809 18.0725 89.3155 18.2384 90.0379 18.414C90.6824 18.5704 91.3169 18.7265 91.9417 18.8826C92.5666 19.0389 93.118 19.2488 93.5965 19.5123C94.0748 19.776 94.4654 20.1128 94.7679 20.5229C95.0706 20.9328 95.2219 21.4698 95.2219 22.1335C95.2219 22.7779 95.0706 23.3246 94.7679 23.7736C94.4678 24.2203 94.0729 24.5954 93.6112 24.872C93.1424 25.155 92.6202 25.36 92.0441 25.4869C91.4683 25.6138 90.9068 25.6773 90.3602 25.6773C88.5834 25.6773 87.2216 25.282 86.2746 24.4913C85.3275 23.7004 84.8542 22.4557 84.8542 20.757H84.2685C84.2685 22.651 84.7809 24.0372 85.806 24.916C86.831 25.7945 88.349 26.2338 90.3602 26.2338C91.0046 26.2338 91.6537 26.1605 92.3078 26.0141C92.9617 25.8677 93.5476 25.6286 94.0651 25.2965C94.578 24.9692 95.0089 24.5284 95.3244 24.0081C95.6466 23.4807 95.8076 22.8365 95.8076 22.075C95.8076 21.3525 95.6661 20.7668 95.3829 20.3177C95.0999 19.8688 94.729 19.4977 94.2701 19.2048C93.8113 18.912 93.2938 18.6826 92.7179 18.5167C92.1386 18.3497 91.5577 18.1886 90.9752 18.0333C90.2584 17.8452 89.5408 17.6597 88.8226 17.4769C88.2075 17.3206 87.6364 17.1352 87.1093 16.9204C86.6016 16.7056 86.1964 16.3981 85.8939 15.9979C85.5912 15.5976 85.4399 15.0265 85.4399 14.2846C85.4399 14.148 85.4789 13.9038 85.5571 13.5524C85.6352 13.2009 85.8208 12.8446 86.1135 12.4833C86.4063 12.1223 86.8554 11.8001 87.4606 11.5169C88.066 11.2339 88.8957 11.0922 89.9502 11.0922C90.6727 11.0922 91.3315 11.1704 91.9271 11.3265C92.5226 11.4828 93.035 11.7317 93.4646 12.0734C93.8942 12.4151 94.2261 12.8495 94.4604 13.3766C94.6947 13.904 94.812 14.5482 94.812 15.3097H94.8118Z" fill="#696969"/>
</svg>
