<svg width="90" height="100" viewBox="0 0 90 100" fill="none" xmlns="http://www.w3.org/2000/svg" role="img" focusable="false">
<title>Link to graph query language wikipedia entry</title>
<path d="M5.02969 74.096L8.70069 76.2155L49.597 5.38309L45.926 3.26358L5.02969 74.096Z" fill="#E535AB"/>
<path d="M85.9817 68.4372H4.18904V72.6762H85.9817V68.4372Z" fill="#E535AB"/>
<path d="M5.80751 70.8186L46.7192 94.4397L48.8387 90.7687L7.92701 67.1476L5.80751 70.8186Z" fill="#E535AB"/>
<path d="M41.3474 9.25605L82.2591 32.8771L84.3786 29.2061L43.467 5.58506L41.3474 9.25605Z" fill="#E535AB"/>
<path d="M5.81884 29.19L7.93835 32.861L48.85 9.23991L46.7305 5.56892L5.81884 29.19Z" fill="#E535AB"/>
<path d="M40.6085 5.38385L81.5048 76.2163L85.1758 74.0968L44.2794 3.26435L40.6085 5.38385Z" fill="#E535AB"/>
<path d="M11.6712 26.379H7.43215V73.621H11.6712V26.379Z" fill="#E535AB"/>
<path d="M82.7641 26.379H78.5251V73.621H82.7641V26.379Z" fill="#E535AB"/>
<path d="M44.1461 89.4387L45.9975 92.6453L81.5796 72.1014L79.7282 68.8948L44.1461 89.4387Z" fill="#E535AB"/>
<path d="M88.3821 75C85.9306 79.2646 80.4659 80.7201 76.2013 78.2686C71.9368 75.8172 70.4812 70.3524 72.9327 66.0879C75.3842 61.8233 80.8489 60.3677 85.1135 62.8192C89.4036 65.2962 90.8591 70.7355 88.3821 75Z" fill="#E535AB"/>
<path d="M17.2381 33.9122C14.7866 38.1767 9.32184 39.6323 5.05728 37.1808C0.792726 34.7293 -0.662842 29.2646 1.78864 25C4.24012 20.7354 9.70488 19.2799 13.9694 21.7314C18.234 24.2084 19.6896 29.6476 17.2381 33.9122Z" fill="#E535AB"/>
<path d="M1.81418 75C-0.637305 70.7355 0.818261 65.2962 5.08282 62.8192C9.34737 60.3677 14.7866 61.8233 17.2636 66.0879C19.7151 70.3524 18.2595 75.7916 13.995 78.2686C9.70488 80.7201 4.26566 79.2646 1.81418 75Z" fill="#E535AB"/>
<path d="M72.9582 33.9122C70.5067 29.6476 71.9623 24.2084 76.2268 21.7314C80.4914 19.2799 85.9306 20.7354 88.4076 25C90.8591 29.2646 89.4036 34.7038 85.139 37.1808C80.8744 39.6323 75.4097 38.1767 72.9582 33.9122Z" fill="#E535AB"/>
<path d="M45.0981 100C40.1696 100 36.186 96.0163 36.186 91.0878C36.186 86.1593 40.1696 82.1757 45.0981 82.1757C50.0266 82.1757 54.0103 86.1593 54.0103 91.0878C54.0103 95.9908 50.0266 100 45.0981 100Z" fill="#E535AB"/>
<path d="M45.0981 17.8243C40.1696 17.8243 36.186 13.8407 36.186 8.91216C36.186 3.98366 40.1696 0 45.0981 0C50.0266 0 54.0103 3.98366 54.0103 8.91216C54.0103 13.8407 50.0266 17.8243 45.0981 17.8243Z" fill="#E535AB"/>
</svg>
