<svg width="100" height="44" viewBox="0 0 100 44" fill="none" xmlns="http://www.w3.org/2000/svg" role="img" focusable="false">
<title>Link to latex/mathematics wiki (Math typessettings system)</title>
<rect x="0.807617" y="0.000488281" width="100" height="43.3253" rx="5" fill="#F4F4F4"/>
<path d="M25.5425 20.9041H24.6389C24.2775 24.5909 23.7715 29.0728 17.41 29.0728H14.4823C12.7835 29.0728 12.7112 28.8198 12.7112 27.627V8.43422C12.7112 7.20531 12.7112 6.69928 16.1088 6.69928H17.3016V5.61495C16.0004 5.72338 12.7474 5.72338 11.2654 5.72338C9.85581 5.72338 7.03653 5.72338 5.80762 5.61495V6.69928H6.63894C9.42207 6.69928 9.49436 7.09687 9.49436 8.39808V27.374C9.49436 28.6752 9.42207 29.0728 6.63894 29.0728H5.80762V30.1933H24.5666L25.5425 20.9041Z" fill="#696969"/>
<path d="M24.9281 5.5788C24.7835 5.14507 24.7112 5.00049 24.2414 5.00049C23.7715 5.00049 23.663 5.14507 23.5185 5.5788L17.6992 20.3258C17.4462 20.9402 17.0124 22.0607 14.7715 22.0607V22.9643H20.3739V22.0607C19.2534 22.0607 18.5667 21.5547 18.5667 20.8318C18.5667 20.6511 18.6028 20.5788 18.6751 20.3258L19.904 17.2174H27.0606L28.5064 20.9041C28.5787 21.0487 28.651 21.2294 28.651 21.3378C28.651 22.0607 27.2775 22.0607 26.5908 22.0607V22.9643H33.7112V22.0607H33.2052C31.5064 22.0607 31.3257 21.8077 31.0727 21.0848L24.9281 5.5788ZM23.4823 8.14507L26.6992 16.3137H20.2655L23.4823 8.14507Z" fill="#696969"/>
<path d="M53.8799 5.83181H31.8679L31.2173 13.9282H32.0847C32.5907 8.10892 33.1329 6.91615 38.5907 6.91615C39.2413 6.91615 40.1811 6.91615 40.5425 6.98844C41.3016 7.13302 41.3016 7.53061 41.3016 8.36194V27.3379C41.3016 28.5668 41.3016 29.0728 37.5064 29.0728H36.0606V30.1933C37.5425 30.0848 41.1931 30.0848 42.8558 30.0848C44.5184 30.0848 48.2413 30.0848 49.7233 30.1933V29.0728H48.2775C44.4823 29.0728 44.4823 28.5668 44.4823 27.3379V8.36194C44.4823 7.63904 44.4823 7.13302 45.1329 6.98844C45.5305 6.91615 46.5064 6.91615 47.1931 6.91615C52.6148 6.91615 53.157 8.10892 53.663 13.9282H54.5666L53.8799 5.83181Z" fill="#696969"/>
<path d="M73.2534 29.0366H72.3498C71.4462 34.5667 70.6149 37.2053 64.4341 37.2053H59.663C57.9642 37.2053 57.8919 36.9523 57.8919 35.7595V26.1451H61.1088C64.6148 26.1451 65.0124 27.3017 65.0124 30.374H65.9161V20.8318H65.0124C65.0124 23.9041 64.6148 25.0246 61.1088 25.0246H57.8919V16.386C57.8919 15.1933 57.9642 14.9402 59.663 14.9402H64.2895C69.8197 14.9402 70.7594 16.9282 71.3378 21.9523H72.2414L71.2293 13.8559H50.9883V14.9402H51.8196C54.6028 14.9402 54.675 15.3378 54.675 16.639V35.5065C54.675 36.8077 54.6028 37.2053 51.8196 37.2053H50.9883V38.3258H71.7354L73.2534 29.0366Z" fill="#696969"/>
<path d="M84.1329 16.2776L89.0847 9.04868C89.8438 7.89206 91.0727 6.73543 94.2895 6.69928V5.61495H85.6871V6.69928C87.1329 6.73543 87.9281 7.53061 87.9281 8.36193C87.9281 8.72338 87.8558 8.79567 87.6028 9.19326L83.4823 15.2656L78.8558 8.32579C78.7835 8.21736 78.6028 7.9282 78.6028 7.78362C78.6028 7.34989 79.398 6.73543 80.916 6.69928V5.61495C79.6871 5.72338 77.0486 5.72338 75.6751 5.72338C74.5546 5.72338 72.3136 5.68724 70.9763 5.61495V6.69928H71.663C73.651 6.69928 74.3377 6.9523 75.0245 7.96434L81.6389 17.9764L75.7474 26.6872C75.2414 27.4101 74.157 29.0728 70.5426 29.0728V30.1933H79.145V29.0728C77.4823 29.0366 76.8679 28.0607 76.8679 27.4101C76.8679 27.0848 76.9763 26.9403 77.2293 26.5427L82.3257 18.9884L88.0365 27.5909C88.1088 27.7354 88.2173 27.88 88.2173 27.9884C88.2173 28.4222 87.4221 29.0366 85.8679 29.0728V30.1933C87.1329 30.0848 89.7715 30.0848 91.1088 30.0848C92.6269 30.0848 94.2895 30.121 95.8076 30.1933V29.0728H95.1209C93.2413 29.0728 92.4823 28.8921 91.7233 27.7716L84.1329 16.2776Z" fill="#696969"/>
</svg>
