<svg width="86" height="100" viewBox="0 0 86 100" fill="none" xmlns="http://www.w3.org/2000/svg" role="img" focusable="false">
<title>Link to linux wikipedia entry (operating system)</title>
<path d="M31.1234 28.3272L31.3988 34.6617L26.9922 42.9242L20.1068 56.4196L18.7297 67.7117L23.6872 83.6858L34.9792 90.0204H52.0551L68.0292 77.9021L75.19 58.8984L58.665 38.793L53.983 27.5009L31.1234 28.3272Z" fill="#ECEFF1"/>
<path d="M70.2327 44.0258C65.826 37.6912 62.2456 33.8354 60.3177 25.8483C58.3898 17.8613 60.8686 20.0646 59.2161 13.1792C58.3898 9.59878 57.0127 7.12003 55.6356 5.19212C53.9831 3.26421 52.0552 2.16254 50.9536 1.88712C48.4748 0.510041 42.6911 -1.69329 35.5303 2.16254C28.094 6.01837 28.9203 14.2809 30.2973 31.0813C30.2973 32.1829 30.0219 33.56 29.4711 34.6617C28.3694 37.1404 26.4415 39.3437 24.789 41.2717C22.8611 44.0258 20.9332 46.78 19.5561 49.8096C16.2511 56.1441 13.2215 64.1312 14.0478 67.1608C15.4249 66.8854 32.7761 93.3253 32.7761 93.8762C33.8778 93.6008 38.5598 93.6008 42.6911 93.6008C48.4748 93.3254 51.7798 93.0499 56.4619 94.1516C56.4619 93.3253 56.1865 92.4991 56.1865 91.6729C56.1865 90.0204 56.4619 88.6433 56.7373 86.7154C57.0127 85.3383 57.2881 83.9612 57.5636 82.3087C54.8094 84.7874 49.8519 87.5416 45.1698 88.3679C41.0386 89.1941 34.1532 87.817 30.8482 83.6858C31.1236 83.6858 31.6744 83.6858 31.9498 83.4104C32.7761 83.1349 33.6023 82.8595 33.8778 82.3087C34.704 80.9316 34.1532 79.5545 33.6023 78.7283C33.0515 77.902 28.9203 74.8725 26.9923 73.22C25.0644 71.5675 23.9628 70.7412 22.8611 69.6395L20.6578 67.4362C20.1069 66.8854 19.8315 66.3345 19.5561 66.0591C19.0053 64.6821 18.7299 63.0296 19.0053 60.8262C19.2807 57.7966 20.3824 55.3179 21.7594 52.5637C22.3103 51.4621 23.6873 49.2587 23.6873 49.2587C23.6873 49.2587 19.0053 60.8262 21.484 64.4066C21.484 64.4066 21.7594 60.8262 22.8611 57.2458C23.6874 54.7671 25.0644 51.1866 26.7169 49.2587C28.3694 47.3308 32.5007 40.17 32.7761 35.7633C32.7761 33.8354 33.0515 31.9075 33.0515 30.5304C31.9498 29.4288 51.229 26.6746 52.3306 29.7042C52.6061 30.8058 56.4619 40.7208 58.6652 45.9537C59.7669 48.4325 61.144 50.6358 61.9702 53.39C62.7965 56.4196 63.3473 60.5508 63.3473 64.6821C63.3473 65.5083 63.3473 66.8854 63.0719 68.2625C63.6227 68.2625 74.364 56.695 61.6948 47.0554C61.6948 47.0554 69.4065 50.6358 69.6819 57.7966C69.9573 63.5804 67.4785 68.2625 66.9277 69.0887C67.2031 69.0887 72.7115 71.5675 72.9869 71.5675C74.0885 71.5675 76.2919 70.7412 76.2919 70.7412C76.5673 69.915 77.3935 67.7116 77.3935 66.8854C79.3215 60.5508 74.6394 50.3604 70.2327 44.0258V44.0258Z" fill="#263238"/>
<path d="M35.2549 25.8483C37.2323 25.8483 38.8353 23.3822 38.8353 20.34C38.8353 17.2978 37.2323 14.8317 35.2549 14.8317C33.2774 14.8317 31.6744 17.2978 31.6744 20.34C31.6744 23.3822 33.2774 25.8483 35.2549 25.8483Z" fill="#ECEFF1"/>
<path d="M47.6485 26.3993C50.2344 26.3993 52.3306 23.5632 52.3306 20.0647C52.3306 16.5662 50.2344 13.7301 47.6485 13.7301C45.0627 13.7301 42.9665 16.5662 42.9665 20.0647C42.9665 23.5632 45.0627 26.3993 47.6485 26.3993Z" fill="#ECEFF1"/>
<path d="M37.2569 20.7164C37.028 18.9055 35.9861 17.5457 34.9298 17.6792C33.8734 17.8128 33.2026 19.389 33.4315 21.1999C33.6604 23.0108 34.7023 24.3706 35.7587 24.2371C36.815 24.1035 37.4858 22.5273 37.2569 20.7164Z" fill="#212121"/>
<path d="M47.3731 24.7467C48.8941 24.7467 50.1272 23.1437 50.1272 21.1663C50.1272 19.1889 48.8941 17.5859 47.3731 17.5859C45.852 17.5859 44.6189 19.1889 44.6189 21.1663C44.6189 23.1437 45.852 24.7467 47.3731 24.7467Z" fill="#212121"/>
<path d="M84.0034 81.7579C82.9017 81.2071 80.9738 80.3808 79.3213 77.9021C78.4951 76.525 78.7705 72.6692 77.3934 71.0167C76.5672 69.915 75.4655 70.4658 75.1901 70.4658C72.7113 71.0167 66.9276 74.8725 63.0718 70.4658C62.5209 69.915 61.6947 69.0887 60.3176 69.0887C58.9405 69.0887 58.3897 69.6396 57.8389 70.7412C57.288 71.8429 57.288 72.6692 57.288 75.4233C57.288 77.6266 57.288 80.1054 57.0126 82.0333C56.4618 86.7154 55.6355 89.4696 55.6355 92.2237C55.6355 95.2533 56.4618 97.1812 57.5634 98.0075C58.3897 98.8337 59.7668 99.3845 62.7964 99.3845C65.8259 99.3845 67.7538 98.2829 69.6818 96.355C71.0588 94.9779 72.1605 94.4271 76.0163 91.6729C79.0459 89.745 83.728 87.2662 84.5542 86.44C85.1051 85.8891 85.9313 85.6137 85.9313 83.9612C85.9313 82.5842 84.8297 82.0333 84.0034 81.7579V81.7579Z" fill="#FFC107"/>
<path d="M28.6447 82.5841C25.8906 78.1774 25.6151 77.3512 23.6872 74.597C22.0347 71.8428 18.4543 66.6099 16.251 66.6099C14.5985 66.6099 13.7722 67.4362 12.6706 68.5378C11.5689 69.6395 10.4672 72.1182 8.53932 73.4953C6.88682 74.8724 2.20474 74.597 1.10308 76.2495C0.00141257 77.902 2.20474 80.3807 2.20474 84.512C2.20474 86.1645 0.827662 87.2661 0.552246 88.3678C0.276829 89.7449 0.00141313 90.5711 0.552246 91.6728C1.65391 93.3253 3.03099 93.8761 12.3951 95.8041C17.3526 96.9057 22.0347 99.6599 25.0643 99.9353C28.0939 100.211 33.3268 99.9353 33.3268 92.4991C33.6022 88.0924 31.1235 86.9907 28.6447 82.5841Z" fill="#FFC107"/>
<path d="M33.8776 32.7338C32.2251 31.6321 30.8481 30.5304 30.8481 28.8779C30.8481 27.2254 31.9497 26.6746 33.6022 25.2975C33.8776 25.0221 36.9072 22.2679 39.9368 22.2679C42.9664 22.2679 46.5468 24.1959 47.9239 24.7467C50.4026 25.2975 52.8814 25.8484 52.6059 27.7763C52.3305 30.5304 52.0551 31.0813 49.301 32.4584C47.373 33.0092 43.7926 36.0388 41.3139 36.0388C40.2122 36.0388 38.5597 36.0388 37.458 35.7633C36.6318 35.4879 35.2547 34.1108 33.8776 32.7338Z" fill="#FFC107"/>
<path d="M33.3268 30.5305C33.8776 31.0813 34.7038 31.6321 35.5301 31.9075C36.0809 32.183 36.9072 32.4584 36.9072 32.4584H39.3859C40.763 32.4584 42.6909 31.9075 44.6188 30.8059C46.5467 29.9796 46.8222 29.4288 48.1992 28.878C49.5763 28.0517 50.9534 27.2255 50.4026 26.95C49.8517 26.6746 49.3009 26.95 47.373 28.0517C45.7205 29.1534 44.3434 29.7042 42.6909 30.5305C41.8647 30.8059 40.763 31.3567 39.9367 31.3567H37.458C36.6317 31.3567 36.0809 31.0813 35.2547 30.8059C34.7038 30.5305 34.4284 30.255 34.153 30.255C33.6022 29.9796 32.5005 28.878 31.9497 28.6025C31.9497 28.6025 31.3988 28.6025 31.6743 28.878L33.3268 30.5305Z" fill="#634703"/>
<path d="M41.5894 24.4713C41.8648 25.0221 42.4156 25.0221 42.691 25.2976C42.9664 25.573 43.2419 25.573 43.2419 25.573C43.5173 25.2976 43.2419 24.7467 42.9664 24.7467C42.9664 24.1959 41.5894 24.1959 41.5894 24.4713V24.4713Z" fill="#634703"/>
<path d="M37.1828 25.0222C37.1828 25.2976 37.7336 25.573 37.7336 25.2976C38.009 25.0222 38.2844 24.7468 38.5599 24.7468C39.1107 24.4713 38.8353 24.1959 38.009 24.1959C37.4582 24.4713 37.4582 24.7468 37.1828 25.0222V25.0222Z" fill="#634703"/>
<path d="M63.898 73.7708V74.597C64.4488 75.6987 65.8259 75.9741 66.9275 75.9741C68.58 75.9741 70.2325 74.8725 71.0588 73.7708C71.0588 73.4954 71.3342 73.22 71.6096 72.9446C72.1604 72.1183 72.4359 71.5675 72.7113 71.292C72.7113 71.292 72.4359 71.0166 72.4359 70.7412C72.1604 70.1904 71.3342 69.6396 70.2325 69.3641C69.4063 69.0887 68.0292 68.8133 67.4784 68.8133C64.9996 68.5379 63.6225 69.3641 62.7963 70.1904C62.7963 70.1904 63.0717 70.1904 63.0717 70.4658C63.6225 71.0166 63.898 71.5675 63.898 72.3937C64.1734 72.9445 63.898 73.22 63.898 73.7708V73.7708Z" fill="#263238"/>
</svg>
