<svg width="89" height="101" viewBox="0 0 89 101" fill="none" xmlns="http://www.w3.org/2000/svg" role="img" focusable="false">
<title>Link to node (javascript run time)</title>
<path d="M44.4013 100.875C43.0621 100.875 41.7321 100.524 40.5581 99.8477L28.3249 92.6052C26.4978 91.5834 27.3893 91.222 27.992 91.0138C30.4281 90.1608 30.9225 89.9682 33.5229 88.4914C33.7962 88.3355 34.1539 88.3905 34.4337 88.5556L43.8317 94.1324C44.171 94.3159 44.6526 94.3159 44.9672 94.1324L81.6107 72.981C81.95 72.7884 82.1702 72.394 82.1702 71.9904V29.7059C82.1702 29.284 81.9501 28.9079 81.6033 28.697L44.9745 7.56393C44.6352 7.36214 44.1857 7.36214 43.8463 7.56393L7.22487 28.697C6.8699 28.8988 6.64427 29.2932 6.64427 29.6968V71.9812C6.64427 72.3848 6.8644 72.77 7.21295 72.9627L17.2475 78.7596C22.6959 81.4838 26.0254 78.2735 26.0254 75.0448V33.3107C26.0254 32.7145 26.4932 32.2558 27.0894 32.2558H31.7306C32.3085 32.2558 32.7854 32.7145 32.7854 33.3107V75.0631C32.7854 82.3276 28.823 86.501 21.9345 86.501C19.8157 86.501 18.1464 86.501 13.4868 84.208L3.87422 78.6679C2.70551 77.9859 1.73578 77.0099 1.06151 75.8367C0.387239 74.6636 0.0319468 73.3343 0.0310059 71.9812V29.6968C0.0310059 26.9451 1.49858 24.3768 3.87422 23.0193L40.5544 1.85873C42.875 0.547089 45.9569 0.547089 48.2591 1.85873L84.8935 23.0285C86.062 23.7083 87.0318 24.6826 87.7062 25.8543C88.3806 27.026 88.7359 28.3541 88.7367 29.7059V71.9904C88.7367 74.7329 87.2599 77.292 84.8935 78.6679L48.2591 99.8284C47.0848 100.505 45.7527 100.859 44.3976 100.856" fill="#689F63"/>
<path d="M55.7199 71.7379C39.6866 71.7379 36.325 64.378 36.325 58.205C36.325 57.618 36.7982 57.1502 37.3862 57.1502H42.1191C42.6419 57.1502 43.0822 57.5309 43.1648 58.0473C43.8802 62.8701 46.0082 65.3026 55.7033 65.3026C63.4264 65.3026 66.7101 63.558 66.7101 59.4626C66.7101 57.1053 65.7746 55.3533 53.7772 54.1793C43.7426 53.1887 37.5421 50.9782 37.5421 42.9524C37.5421 35.5595 43.7793 31.1567 54.2266 31.1567C65.958 31.1567 71.7733 35.2292 72.5071 43.9797C72.5192 44.1268 72.5008 44.2748 72.4528 44.4145C72.4049 44.5541 72.3285 44.6822 72.2285 44.7908C72.1285 44.8995 72.0071 44.9861 71.8719 45.0454C71.7367 45.1047 71.5907 45.1354 71.4431 45.1354H66.6826C66.1873 45.1354 65.7562 44.7868 65.6553 44.3099C64.5088 39.2376 61.7387 37.6141 54.2083 37.6141C45.7789 37.6141 44.7974 40.5492 44.7974 42.7506C44.7974 45.4197 45.9532 46.1994 57.3269 47.7036C68.5905 49.1987 73.9379 51.3083 73.9379 59.2241C73.9379 67.204 67.2788 71.781 55.6667 71.781L55.7199 71.7379Z" fill="#689F63"/>
</svg>
