<svg width="100" height="100" viewBox="0 0 100 100" fill="none" xmlns="http://www.w3.org/2000/svg" role="img" focusable="false">
<title>Link to plotly (data visualization tool)</title>
<path fill-rule="evenodd" clip-rule="evenodd" d="M91.1065 100H7.95652C3.56522 100 0 96.3196 0 91.7826V8.21739C0 3.67826 3.56522 0 7.9587 0H91.1087C95.5043 0 99.0674 3.67826 99.0674 8.21739V91.7826C99.0674 96.3196 95.5022 100 91.1087 100" fill="#3F4F75"/>
<path fill-rule="evenodd" clip-rule="evenodd" d="M24.7457 39.035C24.8788 39.2095 24.9904 39.3992 25.0783 39.6002C24.8069 39.3576 24.4856 39.1773 24.137 39.072C24.0653 38.9155 23.9305 38.7828 23.7696 38.7524L23.7218 38.7437C23.6775 38.6828 23.6304 38.624 23.5805 38.5676C23.9957 38.6807 24.4001 38.8372 24.7457 39.035V39.035ZM21.7718 43.0937C22.0262 43.0785 22.2783 43.0285 22.5196 42.9394C22.5653 42.9937 22.6153 43.0502 22.6675 43.1024C22.3591 43.1881 22.0362 43.2081 21.7196 43.1611L21.7718 43.0959V43.0937ZM22.7457 40.0633C22.8448 40.1098 22.9492 40.1442 23.0566 40.1655C23.0666 40.2426 23.0717 40.3203 23.0718 40.3981C22.8957 40.1655 22.5762 40.1502 22.3392 40.285L22.2957 40.1111L22.6522 40.0024C22.6805 40.0242 22.7109 40.0459 22.7457 40.0633ZM21.187 40.3742C21.2118 40.5578 21.2577 40.738 21.324 40.9111C21.2153 40.7915 21.1653 40.6133 21.187 40.3742ZM24.2566 41.7872C24.2075 41.6907 24.1582 41.5943 24.1088 41.4981C24.1559 41.4131 24.1959 41.3244 24.2283 41.2328C24.2936 41.4242 24.2979 41.6089 24.2566 41.7872ZM25.8175 38.4111C25.7373 38.356 25.6561 38.3023 25.574 38.2502C25.3039 37.8917 24.9815 37.5759 24.6175 37.3133C23.0566 36.1894 20.6696 36.0807 19.5349 37.8611C19.4783 37.9481 19.4262 38.0394 19.3783 38.135C18.6357 38.7833 18.1359 39.6649 17.9609 40.635C17.8491 40.67 17.7516 40.7401 17.6827 40.8348C17.6138 40.9296 17.5772 41.044 17.5783 41.1611C17.5457 42.2915 18.1262 43.1763 18.9609 43.7676C19.8305 44.5502 21.1196 44.8655 22.3805 44.8981C24.2457 44.9481 25.5327 43.9263 26.1109 42.572L26.1327 42.5437C27.1262 41.2394 27.2414 39.4285 25.8175 38.4111V38.4111ZM24.7457 22.5785C24.8788 22.7529 24.9904 22.9427 25.0783 23.1437C24.8071 22.9007 24.4857 22.7204 24.137 22.6155C24.0653 22.4568 23.9305 22.3263 23.7696 22.2959L23.7218 22.285C23.6775 22.2248 23.6303 22.1668 23.5805 22.1111C23.9957 22.222 24.4001 22.3785 24.7457 22.5785V22.5785ZM21.7718 26.6372C22.0262 26.622 22.2783 26.572 22.5196 26.4807C22.5653 26.5372 22.6153 26.5915 22.6675 26.6437C22.3596 26.7322 22.0363 26.753 21.7196 26.7046L21.7718 26.6372V26.6372ZM22.7457 23.6068C22.8451 23.6521 22.9494 23.6857 23.0566 23.7068C23.0668 23.7846 23.0718 23.863 23.0718 23.9415C22.8957 23.7089 22.5762 23.6915 22.3392 23.8285L22.2957 23.6546L22.6522 23.5459C22.6805 23.5676 22.7109 23.5894 22.7457 23.6068ZM21.187 23.9133C21.1979 23.985 21.2088 24.0568 21.2283 24.1285C21.2544 24.2372 21.287 24.3437 21.324 24.4524C21.2153 24.3328 21.1653 24.1546 21.187 23.9133ZM24.2566 25.3263L24.1088 25.0394C24.1566 24.9524 24.1957 24.8655 24.2283 24.7742C24.2936 24.9655 24.2979 25.1502 24.2566 25.3263ZM25.8175 21.9524C25.7376 21.8962 25.6564 21.8418 25.574 21.7894C25.304 21.4314 24.9816 21.1162 24.6175 20.8546C23.0566 19.7285 20.6696 19.622 19.5349 21.4024C19.4783 21.4894 19.4262 21.5807 19.3783 21.6742C18.6357 22.3224 18.1359 23.2041 17.9609 24.1742C17.8491 24.2092 17.7516 24.2792 17.6827 24.3739C17.6138 24.4687 17.5772 24.5831 17.5783 24.7002C17.5457 25.8307 18.1262 26.7155 18.9609 27.3089C19.8305 28.0894 21.1196 28.4046 22.3805 28.4394C24.2457 28.4894 25.5327 27.4676 26.1109 26.1133L26.1327 26.085C27.1262 24.7807 27.2414 22.9698 25.8175 21.9524ZM60.9131 39.035C61.0462 39.2095 61.1578 39.3992 61.2457 39.6002C60.9742 39.3576 60.653 39.1773 60.3044 39.072C60.2327 38.9155 60.0979 38.7828 59.937 38.7524L59.8892 38.7437C59.8449 38.6828 59.7978 38.624 59.7479 38.5676C60.1653 38.6807 60.5675 38.8372 60.9131 39.035V39.035ZM57.9392 43.0937C58.1935 43.0785 58.4457 43.0285 58.687 42.9394C58.7349 42.9937 58.7827 43.0502 58.8349 43.1024C58.5265 43.1881 58.2036 43.2081 57.887 43.1611L57.9392 43.0959V43.0937ZM58.9131 40.0633C59.0129 40.11 59.118 40.1443 59.2262 40.1655C59.2355 40.2426 59.2398 40.3203 59.2392 40.3981C59.0653 40.1655 58.7435 40.1502 58.5066 40.285L58.4631 40.1111L58.8196 40.0024C58.8479 40.0242 58.8783 40.0459 58.9131 40.0633ZM57.3544 40.3742C57.3791 40.5578 57.4251 40.738 57.4914 40.9111C57.3827 40.7915 57.3327 40.6133 57.3544 40.3742ZM60.424 41.7872C60.3749 41.6907 60.3256 41.5943 60.2762 41.4981C60.3241 41.4132 60.3648 41.3245 60.3979 41.2328C60.4609 41.4242 60.4653 41.6089 60.424 41.7872ZM61.9849 38.4111C61.9054 38.356 61.825 38.3024 61.7435 38.2502C61.4728 37.8916 61.1496 37.5757 60.7849 37.3133C59.2262 36.1894 56.837 36.0807 55.7022 37.8611C55.6479 37.9481 55.5935 38.0394 55.5457 38.135C54.8027 38.7829 54.3028 39.6648 54.1283 40.635C54.0165 40.67 53.919 40.7401 53.8501 40.8348C53.7812 40.9296 53.7446 41.044 53.7457 41.1611C53.7131 42.2915 54.2935 43.1763 55.1283 43.7676C55.9979 44.5502 57.2892 44.8655 58.5479 44.8981C60.4131 44.9481 61.7001 43.9263 62.2783 42.572L62.3001 42.5437C63.2936 41.2394 63.4088 39.4285 61.9849 38.4111V38.4111ZM60.9131 22.5785C61.0462 22.7529 61.1578 22.9427 61.2457 23.1437C60.9745 22.9007 60.6531 22.7204 60.3044 22.6155C60.2327 22.4568 60.0979 22.3263 59.937 22.2959L59.8892 22.285C59.8449 22.2248 59.7977 22.1668 59.7479 22.1111C60.1653 22.222 60.5675 22.3785 60.9131 22.5785V22.5785ZM57.9392 26.6372C58.1935 26.622 58.4457 26.572 58.687 26.4807C58.7349 26.5372 58.7827 26.5915 58.8349 26.6437C58.527 26.7322 58.2037 26.753 57.887 26.7046L57.9392 26.6372V26.6372ZM58.9131 23.6068C59.0132 23.6523 59.1182 23.6859 59.2262 23.7068C59.2356 23.7847 59.2399 23.8631 59.2392 23.9415C59.0653 23.7089 58.7435 23.6915 58.5066 23.8285L58.4631 23.6546L58.8196 23.5459C58.8479 23.5676 58.8783 23.5894 58.9131 23.6068ZM57.3544 23.9155C57.3862 24.0977 57.432 24.2772 57.4914 24.4524C57.3827 24.335 57.3327 24.1568 57.3544 23.9155ZM60.424 25.3285L60.2762 25.0415C60.324 24.9546 60.3631 24.8676 60.3979 24.7763C60.4609 24.9676 60.4653 25.1524 60.424 25.3285ZM61.9849 21.9546C61.9057 21.8984 61.8252 21.844 61.7435 21.7915C61.4729 21.4334 61.1497 21.1182 60.7849 20.8568C59.2262 19.7307 56.837 19.6242 55.7022 21.4046C55.6479 21.4915 55.5935 21.5828 55.5457 21.6763C54.8027 22.3242 54.3028 23.2061 54.1283 24.1763C54.0165 24.2113 53.919 24.2814 53.8501 24.3761C53.7812 24.4709 53.7446 24.5853 53.7457 24.7024C53.7131 25.8328 54.2935 26.7176 55.1283 27.3111C55.9979 28.0915 57.2892 28.4068 58.5479 28.4415C60.4131 28.4915 61.7001 27.4698 62.2783 26.1155L62.3001 26.0872C63.2936 24.7828 63.4088 22.972 61.9849 21.9546" fill="#80CFBE"/>
<path fill-rule="evenodd" clip-rule="evenodd" d="M23.1652 53.9347C20.7391 53.9347 18.7739 55.9347 18.7739 58.4043V76.276C18.7739 78.7434 20.7391 80.7434 23.1652 80.7434C25.5913 80.7434 27.5565 78.7434 27.5565 76.276V58.4043C27.5565 55.9369 25.5913 53.9369 23.1652 53.9369V53.9347ZM58.3 53.9347C55.8739 53.9347 53.9087 55.9347 53.9087 58.4043V76.276C53.9087 78.7434 55.8739 80.7434 58.3 80.7434C60.7239 80.7434 62.6913 78.7434 62.6913 76.276V58.4043C62.6913 55.9369 60.7239 53.9369 58.3 53.9369V53.9347ZM40.7326 36.0652C38.3065 36.0652 36.3413 38.0652 36.3413 40.5304V76.276C36.3413 78.7434 38.3065 80.7434 40.7326 80.7434C43.1587 80.7434 45.1239 78.7434 45.1239 76.276V40.5304C45.1239 38.063 43.1587 36.063 40.7326 36.063V36.0652ZM75.8674 36.0652C73.4413 36.0652 71.4761 38.0652 71.4761 40.5304V76.276C71.4761 78.7434 73.4413 80.7434 75.8674 80.7434C78.2913 80.7434 80.2587 78.7434 80.2587 76.276V40.5304C80.2587 38.063 78.2913 36.063 75.8674 36.063" fill="white"/>
<path fill-rule="evenodd" clip-rule="evenodd" d="M78.6393 26.1802C78.3784 26.5867 78.0675 26.8671 77.7349 27.0367C77.9523 26.6976 78.1654 26.2932 78.3501 25.8498C78.3935 25.7597 78.4341 25.6684 78.4719 25.5758C78.611 25.4498 78.6893 25.2628 78.6349 25.0824C78.6393 25.0758 78.6393 25.0671 78.6414 25.0606C78.9154 24.8563 79.1088 24.478 79.1806 24.0715L79.2262 23.9998C79.248 24.7628 79.0567 25.528 78.6393 26.1802V26.1802ZM72.8654 24.7171C72.8493 24.5314 72.8428 24.3449 72.8458 24.1584C73.0175 24.7998 73.2762 25.428 73.5414 25.978C73.6936 26.3867 73.8893 26.8171 74.1371 27.1302C74.0093 27.0494 73.8892 26.957 73.7784 26.8541C73.1936 26.3106 72.9393 25.4911 72.8654 24.7171V24.7171ZM75.8741 23.8367C75.8503 23.4281 75.8576 23.0182 75.8958 22.6106C75.948 22.6324 76.0001 22.6563 76.0545 22.6889L76.1393 22.7476C76.2132 23.1345 76.1893 23.6628 75.8741 23.8345V23.8367ZM79.8371 22.128C79.8327 21.9969 79.7992 21.8685 79.739 21.7519C79.6789 21.6353 79.5936 21.5336 79.4893 21.4541C79.1144 20.8328 78.6084 20.3009 78.0067 19.8954C77.1741 19.3411 76.2349 19.0693 75.648 19.7932C75.4282 19.7733 75.2077 19.7625 74.9871 19.7606C74.8523 19.7585 74.7284 19.7693 74.611 19.7867C73.911 19.5106 73.1632 19.5041 72.8393 20.3998C72.7176 20.7551 72.6495 21.1265 72.6371 21.5019C72.504 21.6013 72.388 21.7218 72.2936 21.8585C71.6132 22.8345 71.711 24.5541 71.9806 25.6411C72.4371 27.4932 74.4088 28.9498 76.1175 28.4019C76.2609 28.3779 76.3974 28.323 76.5175 28.2411C77.4306 28.4128 78.4262 28.1063 79.2197 27.1389C80.4045 25.6976 80.5262 23.7476 79.8371 22.128V22.128ZM43.5175 26.1802C43.2567 26.5867 42.9436 26.8671 42.611 27.0367C42.8306 26.6976 43.0414 26.2932 43.2284 25.8498C43.2719 25.7606 43.311 25.6693 43.348 25.5758C43.4871 25.4498 43.5654 25.2628 43.5132 25.0824C43.5152 25.0751 43.5174 25.0678 43.5197 25.0606C43.7936 24.8563 43.9849 24.478 44.0588 24.0715L44.1023 23.9998C44.1241 24.7628 43.9349 25.528 43.5154 26.1802H43.5175ZM37.7436 24.7171C37.7269 24.5314 37.7196 24.3449 37.7219 24.1584C37.8958 24.7998 38.1523 25.428 38.4175 25.978C38.5697 26.3867 38.7654 26.8171 39.0154 27.1302C38.8876 27.0494 38.7675 26.957 38.6567 26.8541C38.0719 26.3106 37.8154 25.4911 37.7436 24.7171V24.7171ZM40.7523 23.8367C40.7281 23.4281 40.7353 23.0182 40.7741 22.6106C40.8241 22.6324 40.8762 22.6563 40.9306 22.6889C40.961 22.7063 40.9871 22.7258 41.0175 22.7476C41.0893 23.1345 41.0654 23.6628 40.7523 23.8345V23.8367ZM44.7132 22.128C44.709 21.9971 44.6759 21.8687 44.6161 21.7522C44.5563 21.6357 44.4714 21.5338 44.3675 21.4541C43.992 20.8326 43.4853 20.3006 42.8827 19.8954C42.0523 19.3411 41.111 19.0693 40.5262 19.7932C40.3065 19.7733 40.086 19.7625 39.8654 19.7606C39.7306 19.7585 39.6045 19.7693 39.4893 19.7867C38.7871 19.5106 38.0393 19.5041 37.7154 20.3998C37.5942 20.7552 37.5261 21.1266 37.5132 21.5019C37.3801 21.6013 37.2641 21.7218 37.1697 21.8585C36.4914 22.8345 36.5871 24.5541 36.8567 25.6411C37.3132 27.4932 39.2871 28.9498 40.9958 28.4019C41.1392 28.3779 41.2757 28.323 41.3958 28.2411C42.3088 28.4128 43.3023 28.1063 44.098 27.1389C45.2806 25.6976 45.4023 23.7476 44.7132 22.128" fill="#80CFBE"/>
</svg>
