<svg width="100" height="100" viewBox="0 0 100 100" fill="none" xmlns="http://www.w3.org/2000/svg" role="img" focusable="false">
<title>Link to structured query language wikipedia entry</title>
<path d="M32.0638 99.9364C22.7033 99.2617 13.4516 96.9056 7.77768 93.7513C4.54579 91.9547 2.08354 89.7467 1.11734 87.7789L0.54248 86.608V49.8822V13.1563L0.997367 12.2327C3.03018 8.10557 9.51781 4.38492 18.5742 2.15249C21.6484 1.39464 26.0865 0.639929 29.7071 0.259358C33.4042 -0.129357 43.2037 -0.0702164 46.8916 0.363641C56.6934 1.51521 65.0341 4.0933 70.1741 7.5603C72.1563 8.8973 74.1903 11.0366 74.8794 12.5092L75.4702 13.7718L75.4196 50.3865L75.3691 87.0014L74.8948 87.9649C74.634 88.4947 73.8462 89.5373 73.1441 90.2814C68.87 94.8121 59.7023 98.1637 47.6773 99.5917C45.2264 99.8829 34.5786 100.118 32.064 99.937L32.0638 99.9364ZM49.3138 68.4673C49.2778 68.3734 47.8785 67.1269 46.2043 65.697C44.53 64.2671 43.088 63.03 42.9998 62.9479C42.9117 62.8657 43.221 62.575 43.6873 62.3017C44.1535 62.0284 45.0467 61.2681 45.6722 60.6121C47.5015 58.694 48.3646 56.3245 48.3646 53.2209C48.3646 50.1654 47.4338 47.7002 45.5693 45.8184C43.6903 43.9215 41.5328 43.1065 38.3909 43.1065C33.5479 43.1065 29.8286 45.9324 28.6414 50.5138C28.233 52.0896 28.2352 55.2739 28.6457 56.6712C29.7163 60.316 32.632 62.9631 36.2609 63.5847C37.4889 63.7951 37.6552 63.8857 38.4924 64.8011C38.99 65.345 40.011 66.4308 40.7613 67.214L42.1256 68.6378H45.7525C47.7473 68.6378 49.3498 68.5611 49.3138 68.4673V68.4673ZM36.8759 58.3123C36.0028 57.8571 35.6727 57.5038 35.1748 56.4916C34.7902 55.7098 34.7245 55.2651 34.7202 53.4173C34.7159 51.5397 34.7756 51.134 35.1771 50.3187C35.8341 48.9846 36.7394 48.353 38.1398 48.2517C40.0891 48.1103 41.2143 49.067 41.8041 51.3662C42.5271 54.1851 41.732 57.182 39.9973 58.1766C39.0872 58.6984 37.7296 58.7575 36.8759 58.3123V58.3123ZM20.8 63.5447C24.6026 62.8236 26.7612 60.6122 26.7612 57.4377C26.7612 54.6215 25.3676 52.9805 21.516 51.261C19.3112 50.2767 18.5125 49.6589 18.5125 48.9371C18.5125 48.3388 19.2704 47.6832 20.1527 47.5184C21.0142 47.3576 23.299 47.7544 24.6482 48.2994L25.7792 48.7563V46.2529V43.7493L24.5517 43.477C23.7931 43.3088 22.199 43.2078 20.3783 43.2129C17.7993 43.2129 17.2943 43.2758 16.3238 43.6612C13.4889 44.7866 12.1436 46.7038 12.1651 49.5876C12.1853 52.2873 13.6095 53.9713 17.1541 55.4863C19.2455 56.3802 20.0838 57.0609 20.0838 57.8652C20.0838 59.5745 17.2357 59.7849 14.2204 58.2983C13.3946 57.8912 12.6527 57.5249 12.5716 57.4844C12.4906 57.4438 12.4244 58.6132 12.4244 60.0831C12.4244 62.7437 12.4272 62.7565 12.9089 62.9399C14.7229 63.6296 18.7321 63.9369 20.8 63.5447ZM64.2726 61.0766V58.8181H60.8357H57.3987V51.0605V43.3029H54.3547H51.3106V53.319V63.3352H57.7915H64.2726V61.0766V61.0766ZM43.0619 21.498C49.1112 21.0785 53.6456 20.2863 57.6359 18.9522C61.6111 17.623 63.9594 16.0148 64.4847 14.2616C64.687 13.586 64.6725 13.3298 64.3897 12.5891C63.1215 9.26835 56.0369 6.71702 45.2112 5.68259C40.5805 5.24002 32.1588 5.38349 27.7434 5.97992C21.0062 6.89021 15.5386 8.58103 13.1075 10.506C8.18966 14.4003 13.3903 18.6835 25.4847 20.6995C30.7287 21.5737 37.5229 21.8823 43.062 21.498H43.0619Z" fill="#00BCF2"/>
</svg>
