<svg width="101" height="100" viewBox="0 0 101 100" fill="none" xmlns="http://www.w3.org/2000/svg" role="img" focusable="false">
<title>Link to vscode (text editor)</title>
<path d="M96.5222 10.5385L75.9177 0.617821C73.5327 -0.530494 70.6825 -0.0461098 68.8108 1.82561L1.35936 63.3255C-0.454912 64.9796 -0.452826 67.836 1.36386 69.4875L6.8735 74.4963C8.35871 75.8465 10.5955 75.9459 12.1946 74.7328L93.4217 13.1122C96.1468 11.0449 100.061 12.9885 100.061 16.409V16.1698C100.061 13.7688 98.6854 11.5801 96.5222 10.5385Z" fill="#0065A9"/>
<path d="M96.5222 88.9462L75.9177 98.8669C73.5327 100.015 70.6825 99.5308 68.8108 97.6591L1.35936 36.1593C-0.454912 34.5051 -0.452826 31.6487 1.36386 29.9972L6.8735 24.9884C8.35871 23.6382 10.5955 23.5388 12.1946 24.7519L93.4217 86.3725C96.1468 88.4398 100.061 86.4962 100.061 83.0758V83.315C100.061 85.7159 98.6854 87.9046 96.5222 88.9462Z" fill="#007ACC"/>
<path d="M75.9186 98.8685C73.5329 100.016 70.6827 99.5308 68.8108 97.6589C71.1172 99.9653 75.0608 98.3317 75.0608 95.07V4.41438C75.0608 1.15264 71.1172 -0.480857 68.8108 1.82554C70.6827 -0.046349 73.5329 -0.531417 75.9186 0.615882L96.5195 10.5229C98.6842 11.5639 100.061 13.7534 100.061 16.1554V83.3293C100.061 85.7313 98.6842 87.9208 96.5194 88.9618L75.9186 98.8685Z" fill="#1F9CF0"/>
<path style="mix-blend-mode:overlay" opacity="0.25" fill-rule="evenodd" clip-rule="evenodd" d="M70.9119 99.0593C72.4869 99.6728 74.2829 99.6335 75.8725 98.8686L96.4608 88.9619C98.6242 87.9209 100 85.7314 100 83.3293V16.1555C100 13.7534 98.6243 11.5639 96.4609 10.5229L75.8725 0.615882C73.7863 -0.388003 71.3446 -0.142114 69.5135 1.18907C69.252 1.37924 69.0028 1.59156 68.769 1.82554L29.3551 37.7836L12.1872 24.7518C10.5891 23.5386 8.35363 23.6381 6.86933 24.9882L1.36303 29.997C-0.452552 31.6486 -0.454633 34.5049 1.35853 36.1591L16.2471 49.7422L1.35853 63.3254C-0.454633 64.9796 -0.452552 67.8359 1.36303 69.4874L6.86933 74.4962C8.35363 75.8464 10.5891 75.9458 12.1872 74.7327L29.3551 61.7008L68.769 97.6589C69.3925 98.2827 70.1246 98.7526 70.9119 99.0593ZM75.0152 27.0411L45.1091 49.7422L75.0152 72.4434V27.0411Z" fill="url(#paint0_linear_442:18)"/>
<defs>
<linearGradient id="paint0_linear_442:18" x1="50" y1="-5.67028e-07" x2="50" y2="99.4845" gradientUnits="userSpaceOnUse">
<stop stop-color="white"/>
<stop offset="1" stop-color="white" stop-opacity="0"/>
</linearGradient>
</defs>
</svg>
