<svg id="play-thor" class="play" viewBox="0 0 1660 906" fill="none" xmlns="http://www.w3.org/2000/svg" aria-hidden="true" focusable="false">
<path d="M326.058 617.418C323.858 617.222 321.915 618.848 321.72 621.048C321.524 623.249 323.149 625.191 325.35 625.387L326.058 617.418ZM1019.11 687.067C1021.31 687.263 1023.26 685.638 1023.45 683.437C1023.65 681.237 1022.02 679.294 1019.82 679.099L1019.11 687.067ZM325.399 625.391C327.6 625.587 329.542 623.961 329.738 621.761C329.933 619.561 328.308 617.618 326.108 617.422L325.399 625.391ZM350.786 619.617C348.586 619.421 346.643 621.046 346.448 623.247C346.252 625.447 347.877 627.389 350.078 627.585L350.786 619.617ZM350.176 627.594C352.377 627.79 354.319 626.164 354.515 623.964C354.711 621.763 353.085 619.821 350.885 619.625L350.176 627.594ZM375.564 621.819C373.363 621.624 371.421 623.249 371.225 625.449C371.029 627.65 372.655 629.592 374.855 629.788L375.564 621.819ZM374.954 629.797C377.154 629.992 379.097 628.367 379.292 626.167C379.488 623.966 377.863 622.024 375.662 621.828L374.954 629.797ZM400.341 624.022C398.14 623.827 396.198 625.452 396.002 627.652C395.807 629.853 397.432 631.795 399.632 631.991L400.341 624.022ZM399.731 632C401.931 632.195 403.874 630.57 404.07 628.37C404.265 626.169 402.64 624.227 400.439 624.031L399.731 632ZM425.118 626.225C422.918 626.03 420.975 627.655 420.78 629.855C420.584 632.056 422.209 633.998 424.41 634.194L425.118 626.225ZM424.508 634.203C426.709 634.398 428.651 632.773 428.847 630.572C429.042 628.372 427.417 626.43 425.217 626.234L424.508 634.203ZM449.895 628.428C447.695 628.232 445.752 629.858 445.557 632.058C445.361 634.259 446.986 636.201 449.187 636.397L449.895 628.428ZM449.286 636.405C451.486 636.601 453.428 634.976 453.624 632.775C453.82 630.575 452.194 628.632 449.994 628.437L449.286 636.405ZM474.673 630.631C472.472 630.435 470.53 632.061 470.334 634.261C470.138 636.461 471.764 638.404 473.964 638.599L474.673 630.631ZM474.063 638.608C476.263 638.804 478.206 637.179 478.401 634.978C478.597 632.778 476.972 630.835 474.771 630.64L474.063 638.608ZM499.45 632.834C497.249 632.638 495.307 634.263 495.111 636.464C494.916 638.664 496.541 640.607 498.741 640.802L499.45 632.834ZM498.84 640.811C501.041 641.007 502.983 639.382 503.179 637.181C503.374 634.981 501.749 633.038 499.549 632.843L498.84 640.811ZM524.227 635.037C522.027 634.841 520.084 636.466 519.889 638.667C519.693 640.867 521.318 642.81 523.519 643.005L524.227 635.037ZM523.617 643.014C525.818 643.21 527.76 641.584 527.956 639.384C528.152 637.184 526.526 635.241 524.326 635.045L523.617 643.014ZM549.004 637.24C546.804 637.044 544.862 638.669 544.666 640.87C544.47 643.07 546.095 645.012 548.296 645.208L549.004 637.24ZM548.395 645.217C550.595 645.413 552.538 643.787 552.733 641.587C552.929 639.386 551.304 637.444 549.103 637.248L548.395 645.217ZM573.782 639.442C571.581 639.247 569.639 640.872 569.443 643.072C569.248 645.273 570.873 647.215 573.073 647.411L573.782 639.442ZM573.172 647.42C575.372 647.615 577.315 645.99 577.51 643.79C577.706 641.589 576.081 639.647 573.88 639.451L573.172 647.42ZM598.559 641.645C596.358 641.45 594.416 643.075 594.22 645.275C594.025 647.476 595.65 649.418 597.85 649.614L598.559 641.645ZM597.949 649.623C600.15 649.818 602.092 648.193 602.288 645.993C602.483 643.792 600.858 641.85 598.658 641.654L597.949 649.623ZM623.336 643.848C621.136 643.653 619.193 645.278 618.998 647.478C618.802 649.679 620.427 651.621 622.628 651.817L623.336 643.848ZM622.726 651.826C624.927 652.021 626.869 650.396 627.065 648.195C627.261 645.995 625.635 644.053 623.435 643.857L622.726 651.826ZM648.113 646.051C645.913 645.855 643.971 647.481 643.775 649.681C643.579 651.882 645.205 653.824 647.405 654.02L648.113 646.051ZM647.504 654.028C649.704 654.224 651.647 652.599 651.842 650.398C652.038 648.198 650.413 646.255 648.212 646.06L647.504 654.028ZM672.891 648.254C670.69 648.058 668.748 649.684 668.552 651.884C668.357 654.084 669.982 656.027 672.182 656.222L672.891 648.254ZM672.281 656.231C674.481 656.427 676.424 654.802 676.62 652.601C676.815 650.401 675.19 648.458 672.989 648.263L672.281 656.231ZM697.668 650.457C695.468 650.261 693.525 651.886 693.329 654.087C693.134 656.287 694.759 658.23 696.96 658.425L697.668 650.457ZM697.058 658.434C699.259 658.63 701.201 657.005 701.397 654.804C701.592 652.604 699.967 650.661 697.767 650.466L697.058 658.434ZM722.445 652.66C720.245 652.464 718.302 654.089 718.107 656.29C717.911 658.49 719.536 660.433 721.737 660.628L722.445 652.66ZM721.835 660.637C724.036 660.833 725.978 659.207 726.174 657.007C726.37 654.807 724.744 652.864 722.544 652.668L721.835 660.637ZM747.223 654.863C745.022 654.667 743.08 656.292 742.884 658.493C742.688 660.693 744.314 662.635 746.514 662.831L747.223 654.863ZM746.613 662.84C748.813 663.036 750.756 661.41 750.951 659.21C751.147 657.009 749.522 655.067 747.321 654.871L746.613 662.84ZM772 657.065C769.799 656.87 767.857 658.495 767.661 660.695C767.466 662.896 769.091 664.838 771.291 665.034L772 657.065ZM771.39 665.043C773.591 665.238 775.533 663.613 775.729 661.413C775.924 659.212 774.299 657.27 772.099 657.074L771.39 665.043ZM796.777 659.268C794.577 659.073 792.634 660.698 792.439 662.898C792.243 665.099 793.868 667.041 796.069 667.237L796.777 659.268ZM796.167 667.246C798.368 667.441 800.31 665.816 800.506 663.616C800.701 661.415 799.076 659.473 796.876 659.277L796.167 667.246ZM821.554 661.471C819.354 661.276 817.411 662.901 817.216 665.101C817.02 667.302 818.645 669.244 820.846 669.44L821.554 661.471ZM820.945 669.449C823.145 669.644 825.087 668.019 825.283 665.818C825.479 663.618 823.854 661.676 821.653 661.48L820.945 669.449ZM846.332 663.674C844.131 663.478 842.189 665.104 841.993 667.304C841.797 669.505 843.423 671.447 845.623 671.643L846.332 663.674ZM845.722 671.651C847.922 671.847 849.865 670.222 850.06 668.021C850.256 665.821 848.631 663.878 846.43 663.683L845.722 671.651ZM871.109 665.877C868.908 665.681 866.966 667.307 866.77 669.507C866.575 671.707 868.2 673.65 870.4 673.845L871.109 665.877ZM870.499 673.854C872.7 674.05 874.642 672.425 874.838 670.224C875.033 668.024 873.408 666.081 871.208 665.886L870.499 673.854ZM895.886 668.08C893.686 667.884 891.743 669.509 891.548 671.71C891.352 673.91 892.977 675.853 895.178 676.048L895.886 668.08ZM895.276 676.057C897.477 676.253 899.419 674.628 899.615 672.427C899.811 670.227 898.185 668.284 895.985 668.089L895.276 676.057ZM920.663 670.283C918.463 670.087 916.521 671.712 916.325 673.913C916.129 676.113 917.754 678.056 919.955 678.251L920.663 670.283ZM920.054 678.26C922.254 678.456 924.197 676.83 924.392 674.63C924.588 672.43 922.963 670.487 920.762 670.291L920.054 678.26ZM945.441 672.486C943.24 672.29 941.298 673.915 941.102 676.116C940.906 678.316 942.532 680.258 944.732 680.454L945.441 672.486ZM944.831 680.463C947.031 680.659 948.974 679.033 949.169 676.833C949.365 674.632 947.74 672.69 945.539 672.494L944.831 680.463ZM970.218 674.688C968.017 674.493 966.075 676.118 965.879 678.318C965.684 680.519 967.309 682.461 969.509 682.657L970.218 674.688ZM969.608 682.666C971.809 682.861 973.751 681.236 973.947 679.036C974.142 676.835 972.517 674.893 970.317 674.697L969.608 682.666ZM994.995 676.891C992.795 676.696 990.852 678.321 990.657 680.521C990.461 682.722 992.086 684.664 994.287 684.86L994.995 676.891ZM994.385 684.869C996.586 685.064 998.528 683.439 998.724 681.239C998.92 679.038 997.294 677.096 995.094 676.9L994.385 684.869ZM1019.77 679.094C1017.57 678.899 1015.63 680.524 1015.43 682.724C1015.24 684.925 1016.86 686.867 1019.06 687.063L1019.77 679.094ZM325.35 625.387L325.399 625.391L326.108 617.422L326.058 617.418L325.35 625.387ZM350.078 627.585L350.176 627.594L350.885 619.625L350.786 619.617L350.078 627.585ZM374.855 629.788L374.954 629.797L375.662 621.828L375.564 621.819L374.855 629.788ZM399.632 631.991L399.731 632L400.439 624.031L400.341 624.022L399.632 631.991ZM424.41 634.194L424.508 634.203L425.217 626.234L425.118 626.225L424.41 634.194ZM449.187 636.397L449.286 636.405L449.994 628.437L449.895 628.428L449.187 636.397ZM473.964 638.599L474.063 638.608L474.771 630.64L474.673 630.631L473.964 638.599ZM498.741 640.802L498.84 640.811L499.549 632.843L499.45 632.834L498.741 640.802ZM523.519 643.005L523.617 643.014L524.326 635.045L524.227 635.037L523.519 643.005ZM548.296 645.208L548.395 645.217L549.103 637.248L549.004 637.24L548.296 645.208ZM573.073 647.411L573.172 647.42L573.88 639.451L573.782 639.442L573.073 647.411ZM597.85 649.614L597.949 649.623L598.658 641.654L598.559 641.645L597.85 649.614ZM622.628 651.817L622.726 651.826L623.435 643.857L623.336 643.848L622.628 651.817ZM647.405 654.02L647.504 654.028L648.212 646.06L648.113 646.051L647.405 654.02ZM672.182 656.222L672.281 656.231L672.989 648.263L672.891 648.254L672.182 656.222ZM696.96 658.425L697.058 658.434L697.767 650.466L697.668 650.457L696.96 658.425ZM721.737 660.628L721.835 660.637L722.544 652.668L722.445 652.66L721.737 660.628ZM746.514 662.831L746.613 662.84L747.321 654.871L747.223 654.863L746.514 662.831ZM771.291 665.034L771.39 665.043L772.099 657.074L772 657.065L771.291 665.034ZM796.069 667.237L796.167 667.246L796.876 659.277L796.777 659.268L796.069 667.237ZM820.846 669.44L820.945 669.449L821.653 661.48L821.554 661.471L820.846 669.44ZM845.623 671.643L845.722 671.651L846.43 663.683L846.332 663.674L845.623 671.643ZM870.4 673.845L870.499 673.854L871.208 665.886L871.109 665.877L870.4 673.845ZM895.178 676.048L895.276 676.057L895.985 668.089L895.886 668.08L895.178 676.048ZM919.955 678.251L920.054 678.26L920.762 670.291L920.663 670.283L919.955 678.251ZM944.732 680.454L944.831 680.463L945.539 672.494L945.441 672.486L944.732 680.454ZM969.509 682.657L969.608 682.666L970.317 674.697L970.218 674.688L969.509 682.657ZM994.287 684.86L994.385 684.869L995.094 676.9L994.995 676.891L994.287 684.86ZM1019.06 687.063L1019.11 687.067L1019.82 679.099L1019.77 679.094L1019.06 687.063Z" fill="#0074D9" fill-opacity="0.5"/>
<path d="M1019.07 679.102C1016.88 679.319 1015.27 681.277 1015.49 683.476C1015.7 685.674 1017.66 687.28 1019.86 687.064L1019.07 679.102ZM1146.6 534.759L1144.81 531.184L1144.75 531.211L1144.7 531.24L1146.6 534.759ZM1177.29 523.837C1179.27 522.846 1180.07 520.442 1179.07 518.468C1178.08 516.493 1175.68 515.695 1173.71 516.686L1177.29 523.837ZM1113.59 548.051C1111.65 549.101 1110.92 551.528 1111.97 553.472C1113.02 555.415 1115.45 556.139 1117.39 555.089L1113.59 548.051ZM787.321 866.774C785.113 866.836 783.374 868.677 783.436 870.886C783.499 873.094 785.34 874.833 787.548 874.771L787.321 866.774ZM1201.72 614.955L1205.31 613.199L1202.09 606.615L1198.3 612.882L1201.72 614.955ZM1183 638.127C1181.86 640.016 1182.46 642.476 1184.35 643.621C1186.24 644.765 1188.7 644.162 1189.84 642.272L1183 638.127ZM1211.71 644.524C1212.68 646.509 1215.08 647.332 1217.06 646.362C1219.05 645.392 1219.87 642.997 1218.9 641.012L1211.71 644.524ZM1214.01 493.567L1211.96 490.137L1211.95 490.142L1211.94 490.147L1214.01 493.567ZM1245.23 479.512C1247.13 478.376 1247.74 475.919 1246.61 474.024C1245.47 472.129 1243.02 471.514 1241.12 472.65L1245.23 479.512ZM1185.94 505.906C1184.05 507.051 1183.45 509.511 1184.6 511.4C1185.74 513.289 1188.2 513.892 1190.09 512.747L1185.94 505.906ZM798.992 726.422C796.958 725.56 794.61 726.51 793.748 728.544C792.886 730.578 793.836 732.926 795.87 733.788L798.992 726.422ZM953.404 746.256C954.816 744.557 954.584 742.035 952.885 740.623C951.186 739.21 948.664 739.442 947.252 741.141L953.404 746.256ZM1624.31 590.346C1626.16 591.557 1628.64 591.04 1629.85 589.192C1631.06 587.344 1630.54 584.865 1628.69 583.654L1624.31 590.346ZM1568.29 542.721C1566.48 541.456 1563.99 541.898 1562.72 543.71C1561.46 545.521 1561.9 548.014 1563.71 549.279L1568.29 542.721ZM1019.86 687.064C1067.74 682.342 1101.21 661.737 1122.31 633.337C1143.35 605.033 1151.87 569.314 1150.6 534.613L1142.6 534.905C1143.82 568.191 1135.62 602.015 1115.89 628.565C1096.23 655.021 1064.88 674.585 1019.07 679.102L1019.86 687.064ZM1148.4 538.334L1177.29 523.837L1173.71 516.686L1144.81 531.184L1148.4 538.334ZM1144.7 531.24L1113.59 548.051L1117.39 555.089L1148.5 538.278L1144.7 531.24ZM787.548 874.771C956.73 869.973 1061.77 846.347 1124.32 803.039C1187.35 759.388 1206.59 696.251 1205.72 614.912L1197.72 614.998C1198.57 694.946 1179.75 754.922 1119.76 796.461C1059.28 838.343 956.317 861.982 787.321 866.774L787.548 874.771ZM1189.84 642.272L1205.14 617.028L1198.3 612.882L1183 638.127L1189.84 642.272ZM1218.9 641.012L1205.31 613.199L1198.12 616.711L1211.71 644.524L1218.9 641.012ZM1307.6 700.262L1217.69 491.982L1210.34 495.152L1300.25 703.433L1307.6 700.262ZM1216.07 496.998L1245.23 479.512L1241.12 472.65L1211.96 490.137L1216.07 496.998ZM1211.94 490.147L1185.94 505.906L1190.09 512.747L1216.09 496.988L1211.94 490.147ZM795.87 733.788C816.297 742.444 848.535 753.529 878.951 758.637C894.15 761.189 909.101 762.285 921.983 760.736C934.81 759.193 946.174 754.951 953.404 746.256L947.252 741.141C941.891 747.59 932.906 751.365 921.028 752.793C909.206 754.215 895.095 753.235 880.276 750.747C850.658 745.773 819.039 734.917 798.992 726.422L795.87 733.788ZM38.8889 521.197L163.889 1.93616L156.111 0.0638366L31.1111 519.325L38.8889 521.197ZM1628.79 657.719C1596.73 635.352 1590.34 613.343 1591.24 597.461C1591.71 589.359 1594.08 582.561 1596.36 577.775C1597.5 575.388 1598.6 573.522 1599.4 572.27C1599.81 571.644 1600.13 571.174 1600.35 570.871C1600.46 570.719 1600.54 570.609 1600.59 570.543C1600.62 570.51 1600.63 570.488 1600.64 570.476C1600.65 570.471 1600.65 570.468 1600.65 570.468C1600.65 570.468 1600.65 570.468 1600.65 570.47C1600.65 570.47 1600.64 570.472 1600.64 570.472C1600.64 570.474 1600.64 570.476 1597.5 568C1594.36 565.524 1594.36 565.527 1594.35 565.529C1594.35 565.53 1594.35 565.533 1594.35 565.535C1594.35 565.539 1594.34 565.544 1594.34 565.55C1594.33 565.561 1594.32 565.575 1594.31 565.592C1594.28 565.626 1594.24 565.672 1594.2 565.729C1594.12 565.843 1594 566.003 1593.85 566.206C1593.56 566.613 1593.15 567.197 1592.67 567.945C1591.71 569.441 1590.44 571.603 1589.14 574.337C1586.54 579.795 1583.79 587.613 1583.26 597.005C1582.16 616.112 1590.27 640.603 1624.21 664.281L1628.79 657.719ZM1595.31 571.346L1624.31 590.346L1628.69 583.654L1599.69 564.654L1595.31 571.346ZM1599.79 564.721L1568.29 542.721L1563.71 549.279L1595.21 571.279L1599.79 564.721Z" fill="#0074D9"/>
<path d="M669.635 610.316L656.723 609.168L646.114 587.894L631.918 606.963L619.808 605.886L639.944 579.955L625.68 552.657L638.155 553.766L647.939 573.975L660.917 555.79L673.1 556.873L654.006 581.831L669.635 610.316Z" fill="#0074D9"/>
<path d="M761.281 618.464L748.368 617.316L737.759 596.042L723.563 615.111L711.453 614.034L731.59 588.103L717.325 560.805L729.8 561.914L739.585 582.123L752.562 563.938L764.746 565.021L745.651 589.979L761.281 618.464Z" fill="#0074D9"/>
<path d="M836.435 580.108C832.18 579.73 828.742 581.042 826.122 584.044C823.504 587.023 821.941 591.369 821.433 597.084C820.376 608.975 824.31 615.318 833.234 616.111C836.979 616.444 841.598 615.911 847.09 614.512L846.247 623.996C841.707 625.431 836.738 625.908 831.34 625.428C823.582 624.739 817.857 621.864 814.165 616.806C810.474 611.723 809.021 604.779 809.803 595.976C810.296 590.432 811.737 585.67 814.125 581.691C816.515 577.688 819.693 574.747 823.659 572.869C827.652 570.969 832.189 570.245 837.272 570.697C842.452 571.158 847.544 572.873 852.55 575.842L848.085 584.71C846.175 583.585 844.243 582.579 842.287 581.695C840.331 580.81 838.381 580.281 836.435 580.108Z" fill="#0074D9"/>
<path d="M942.383 634.566L929.47 633.418L918.861 612.143L904.665 631.212L892.555 630.136L912.692 604.205L898.427 576.906L910.902 578.016L920.687 598.224L933.664 580.039L945.848 581.122L926.753 606.08L942.383 634.566Z" fill="#0074D9"/>
<path d="M1034.03 642.714L1021.12 641.565L1010.51 620.291L996.311 639.36L984.2 638.284L1004.34 612.353L990.073 585.054L1002.55 586.163L1012.33 606.372L1025.31 588.187L1037.49 589.27L1018.4 614.228L1034.03 642.714Z" fill="#0074D9"/>
<path d="M358.565 618.802C356.975 636.681 341.193 649.886 323.314 648.296C305.435 646.707 292.23 630.925 293.82 613.046C295.409 595.167 311.192 581.962 329.07 583.552C346.949 585.141 360.154 600.923 358.565 618.802Z" fill="#0074D9"/>
<path d="M1659.26 668.684C1657.67 686.563 1641.89 699.768 1624.01 698.179C1606.13 696.589 1592.92 680.807 1594.51 662.928C1596.1 645.049 1611.88 631.844 1629.76 633.434C1647.64 635.024 1660.85 650.806 1659.26 668.684Z" fill="#0074D9"/>
<path d="M65.4993 527.49C63.9098 545.369 48.1276 558.574 30.2489 556.985C12.3702 555.395 -0.834845 539.613 0.754701 521.734C2.34425 503.855 18.1264 490.651 36.0051 492.24C53.8839 493.83 67.0889 509.612 65.4993 527.49Z" fill="#0074D9"/>
<path d="M1354.64 707.36C1353.05 725.239 1337.26 738.444 1319.39 736.854C1301.51 735.264 1288.3 719.482 1289.89 701.604C1291.48 683.725 1307.26 670.52 1325.14 672.109C1343.02 673.699 1356.23 689.481 1354.64 707.36Z" fill="#0074D9"/>
<path d="M837.649 876.24C836.06 894.119 820.278 907.324 802.399 905.734C784.52 904.145 771.315 888.363 772.905 870.484C774.494 852.605 790.276 839.4 808.155 840.99C826.034 842.579 839.239 858.361 837.649 876.24Z" fill="#0074D9"/>
<path d="M347.773 617.844C346.713 629.763 336.192 638.566 324.273 637.506C312.354 636.447 303.55 625.925 304.61 614.006C305.67 602.087 316.191 593.284 328.11 594.343C340.029 595.403 348.833 605.925 347.773 617.844Z" fill="#F4F4F4"/>
<path d="M1648.47 667.726C1647.41 679.645 1636.88 688.448 1624.97 687.389C1613.05 686.329 1604.24 675.808 1605.3 663.888C1606.36 651.969 1616.88 643.166 1628.8 644.226C1640.72 645.285 1649.53 655.807 1648.47 667.726Z" fill="#F4F4F4"/>
<path d="M54.7076 526.531C53.6479 538.45 43.1264 547.254 31.2073 546.194C19.2881 545.134 10.4848 534.613 11.5445 522.694C12.6042 510.774 23.1256 501.971 35.0448 503.031C46.9639 504.09 55.7672 514.612 54.7076 526.531Z" fill="#F4F4F4"/>
<path d="M1343.84 706.4C1342.78 718.32 1332.26 727.123 1320.34 726.063C1308.42 725.004 1299.62 714.482 1300.68 702.563C1301.74 690.644 1312.26 681.841 1324.18 682.9C1336.1 683.96 1344.9 694.481 1343.84 706.4Z" fill="#F4F4F4"/>
<path d="M843.768 733.88C843.211 740.154 841.624 745.319 839.008 749.376C836.419 753.411 832.885 756.222 828.405 757.809L839.971 773.286L825.489 771.998L816.777 759.165L815.938 759.09C807.767 758.364 801.704 755.435 797.748 750.304C793.793 745.172 792.209 738.169 792.999 729.293C793.788 720.416 796.579 713.838 801.371 709.559C806.19 705.256 812.697 703.47 820.892 704.198C829.087 704.927 835.139 707.843 839.049 712.945C842.982 718.05 844.555 725.028 843.768 733.88ZM804.847 730.42C804.318 736.377 805.049 740.965 807.043 744.181C809.036 747.398 812.283 749.206 816.781 749.606C825.803 750.408 830.847 744.815 831.913 732.826C832.981 720.813 829.029 714.407 820.055 713.609C815.556 713.21 812.029 714.428 809.473 717.264C806.919 720.077 805.377 724.462 804.847 730.42Z" fill="#0074D9"/>
<path d="M804.847 730.419C804.318 736.377 805.05 740.965 807.043 744.181C809.037 747.398 812.283 749.206 816.782 749.606C825.804 750.408 830.848 744.815 831.914 732.826C832.982 720.813 829.029 714.407 820.056 713.609C815.557 713.209 812.029 714.428 809.473 717.264C806.919 720.076 805.377 724.461 804.847 730.419Z" fill="#F4F4F4"/>
<path d="M938.685 739.149C938.073 746.025 943.152 752.095 950.029 752.707C956.905 753.318 962.975 748.239 963.586 741.363C964.198 734.486 959.119 728.416 952.243 727.805C945.366 727.193 939.296 732.272 938.685 739.149Z" fill="#FF4136"/>
<path d="M1060.54 825.278C1059.93 832.154 1065 838.224 1071.88 838.836C1078.76 839.447 1084.83 834.368 1085.44 827.492C1086.05 820.615 1080.97 814.545 1074.09 813.934C1067.22 813.323 1061.15 818.402 1060.54 825.278Z" fill="#FF4136"/>
</svg>
