<svg id="play-thing" class="play" viewBox="0 0 861 413" fill="none" xmlns="http://www.w3.org/2000/svg" aria-hidden="true" focusable="false">
<path d="M352.389 130.155C351.881 128.005 349.726 126.675 347.576 127.183C345.427 127.691 344.096 129.846 344.604 131.996L352.389 130.155ZM363.453 194.331L364.374 198.224L368.266 197.304L367.346 193.411L363.453 194.331ZM102.186 282.31C102.695 284.46 104.85 285.79 106.999 285.282C109.149 284.774 110.48 282.619 109.972 280.469L102.186 282.31ZM98.9269 233.757C98.4186 231.607 96.2637 230.276 94.1138 230.785C91.964 231.293 90.6332 233.448 91.1416 235.598L98.9269 233.757ZM212.302 327.748C213.94 329.23 216.469 329.103 217.951 327.465C219.434 325.827 219.307 323.298 217.669 321.815L212.302 327.748ZM58.4149 101.531C56.2651 102.039 54.9343 104.194 55.4427 106.344C55.951 108.494 58.1059 109.824 60.2557 109.316L58.4149 101.531ZM94.3166 101.262C96.4664 100.754 97.7972 98.5993 97.2888 96.4494C96.7805 94.2996 94.6256 92.9688 92.4758 93.4772L94.3166 101.262ZM71.0415 193.783C71.9093 195.815 74.2596 196.758 76.2912 195.891C78.3228 195.023 79.2662 192.672 78.3984 190.641L71.0415 193.783ZM30.6538 5.85108L30.8692 1.85688L30.8692 1.85688L30.6538 5.85108ZM56.9799 11.2765C59.1858 11.3954 61.0705 9.70361 61.1895 7.49767C61.3084 5.29174 59.6166 3.40704 57.4107 3.28809L56.9799 11.2765ZM4.32768 0.425724C2.12174 0.306777 0.237054 1.99861 0.118107 4.20455C-0.000839983 6.41048 1.691 8.29517 3.89693 8.41412L4.32768 0.425724ZM344.604 131.996L359.561 195.252L367.346 193.411L352.389 130.155L344.604 131.996ZM362.533 190.439L137.41 243.668L139.251 251.453L364.374 198.224L362.533 190.439ZM137.41 243.668L99.2912 252.681L101.132 260.466L139.251 251.453L137.41 243.668ZM109.972 280.469L104.104 255.653L96.3189 257.494L102.186 282.31L109.972 280.469ZM91.1416 235.598L96.3189 257.494L104.104 255.653L98.9269 233.757L91.1416 235.598ZM217.669 321.815C179.841 287.59 157.341 265.746 141.502 245.124L135.158 249.997C151.496 271.27 174.515 293.559 212.302 327.748L217.669 321.815ZM141.502 245.124C115.25 210.944 107.185 180.07 78.6722 100.394L71.1399 103.089C99.3602 181.949 107.921 214.534 135.158 249.997L141.502 245.124ZM73.9857 97.8491L58.4149 101.531L60.2557 109.316L75.8265 105.634L73.9857 97.8491ZM75.8265 105.634L94.3166 101.262L92.4758 93.4772L73.9856 97.8491L75.8265 105.634ZM78.3984 190.641C60.7254 149.266 49.7742 103.005 43.2426 66.9935C39.9804 49.0073 37.828 33.6201 36.4918 22.736C35.8238 17.2947 35.3601 12.9808 35.0638 10.0327C34.9156 8.55866 34.8094 7.42621 34.7404 6.66512C34.7059 6.28458 34.6807 5.99689 34.6642 5.80578C34.656 5.71023 34.65 5.63882 34.6461 5.59203C34.6441 5.56863 34.6427 5.55138 34.6418 5.54035C34.6413 5.53483 34.641 5.53087 34.6408 5.52847C34.6407 5.52726 34.6406 5.52663 34.6406 5.52603C34.6406 5.52579 34.6406 5.52594 30.6538 5.85108C26.667 6.17621 26.6671 6.17715 26.6672 6.17847C26.6673 6.17944 26.6674 6.18116 26.6676 6.18309C26.6679 6.18694 26.6684 6.19237 26.6689 6.19934C26.6701 6.2133 26.6718 6.23348 26.674 6.25982C26.6784 6.31252 26.6849 6.38987 26.6937 6.49143C26.7111 6.69455 26.7374 6.99447 26.773 7.38747C26.8443 8.17346 26.953 9.33182 27.1039 10.8327C27.4056 13.8343 27.8757 18.2066 28.5514 23.7108C29.9027 34.7176 32.0768 50.2585 35.3711 68.4212C41.9526 104.708 53.0345 151.627 71.0415 193.783L78.3984 190.641ZM30.4384 9.84527L56.9799 11.2765L57.4107 3.28809L30.8692 1.85688L30.4384 9.84527ZM3.89693 8.41412L30.4384 9.84527L30.8692 1.85688L4.32768 0.425724L3.89693 8.41412Z" fill="#FF4136"/>
<path d="M315.2 379.675C314.726 381.832 316.091 383.966 318.249 384.439C320.407 384.913 322.54 383.548 323.014 381.39L315.2 379.675ZM331.459 50.3305L330.538 46.4379L330.538 46.4379L331.459 50.3305ZM303.776 52.7656C301.626 53.2739 300.295 55.4288 300.804 57.5787C301.312 59.7285 303.467 61.0593 305.617 60.5509L303.776 52.7656ZM357.195 48.3557C359.345 47.8474 360.675 45.6925 360.167 43.5426C359.659 41.3928 357.504 40.062 355.354 40.5704L357.195 48.3557ZM289.431 235.469C288.923 233.319 286.768 231.988 284.618 232.497C282.468 233.005 281.138 235.16 281.646 237.31L289.431 235.469ZM839.313 9.02051L842.341 6.40606L837.92 1.28731L835.564 7.62706L839.313 9.02051ZM825.516 34.6647C824.746 36.7354 825.801 39.038 827.872 39.8076C829.942 40.5772 832.245 39.5223 833.014 37.4516L825.516 34.6647ZM853.973 32.1147C855.417 33.7866 857.943 33.9715 859.614 32.5276C861.286 31.0837 861.471 28.5578 860.027 26.8858L853.973 32.1147ZM380.159 288.412C382.368 288.395 384.145 286.59 384.128 284.381C384.11 282.172 382.305 280.395 380.096 280.413L380.159 288.412ZM52.2977 58.2789L55.3164 55.6545L50.1951 49.7636L48.4043 57.3613L52.2977 58.2789ZM43.2746 79.1256C42.7679 81.2758 44.1001 83.4297 46.2503 83.9365C48.4006 84.4433 50.5545 83.1111 51.0613 80.9608L43.2746 79.1256ZM64.0992 77.9505C65.5486 79.6177 68.0751 79.7942 69.7423 78.3448C71.4095 76.8954 71.586 74.3689 70.1366 72.7017L64.0992 77.9505ZM323.014 381.39C329.324 352.652 336.108 331.633 342.246 313.676L334.677 311.088C328.488 329.192 321.601 350.526 315.2 379.675L323.014 381.39ZM342.246 313.676C345.612 303.832 348.827 294.784 351.635 285.956L344.011 283.531C341.238 292.251 338.085 301.118 334.677 311.088L342.246 313.676ZM351.635 285.956C359.083 262.535 363.79 240.27 362.193 205.283C360.603 170.467 352.774 123.098 335.351 49.4101L327.566 51.2509C344.961 124.818 352.647 171.599 354.201 205.648C355.748 239.524 351.228 260.838 344.011 283.531L351.635 285.956ZM330.538 46.4379L303.776 52.7656L305.617 60.5509L332.379 54.2232L330.538 46.4379ZM332.379 54.2232L357.195 48.3557L355.354 40.5704L330.538 46.4379L332.379 54.2232ZM281.646 237.31C286.316 257.062 294.076 273.639 304.462 287.272L310.826 282.424C301.189 269.774 293.872 254.249 289.431 235.469L281.646 237.31ZM304.462 287.272C313.35 298.938 324.113 308.386 336.393 315.806L340.53 308.959C329.069 302.033 319.074 293.251 310.826 282.424L304.462 287.272ZM336.393 315.806C375.821 339.631 429.576 341.071 486.789 328.209C544.117 315.32 605.596 287.931 661.104 253.149C716.607 218.371 766.367 176.059 800.145 133.158C833.782 90.4377 852.229 46.2632 843.206 8.10011L835.421 9.94091C843.575 44.4288 827.075 86.0232 793.86 128.209C760.787 170.215 711.791 211.947 656.856 246.37C601.927 280.789 541.286 307.757 485.034 320.403C428.667 333.076 377.381 331.226 340.53 308.959L336.393 315.806ZM835.564 7.62706L825.516 34.6647L833.014 37.4516L843.063 10.414L835.564 7.62706ZM836.286 11.635L853.973 32.1147L860.027 26.8858L842.341 6.40606L836.286 11.635ZM380.096 280.413C369.133 280.499 358.343 280.636 347.782 280.744L347.864 288.743C358.452 288.635 369.206 288.499 380.159 288.412L380.096 280.413ZM347.782 280.744C334.052 280.884 320.683 280.976 307.683 280.848L307.605 288.847C320.689 288.976 334.124 288.884 347.864 288.743L347.782 280.744ZM307.683 280.848C244.078 280.223 190.128 274.313 147.676 244.002C105.353 213.781 73.6446 158.672 56.2397 57.6001L48.3557 58.9577C65.9251 160.985 98.2442 218.536 143.027 250.512C187.682 282.397 243.918 288.222 307.605 288.847L307.683 280.848ZM48.4043 57.3613L43.2746 79.1256L51.0613 80.9608L56.191 59.1965L48.4043 57.3613ZM49.2789 60.9033L64.0992 77.9505L70.1366 72.7017L55.3164 55.6545L49.2789 60.9033Z" fill="#0074D9"/>
<path d="M202.124 194.459L189.508 197.442L172.731 180.599L165.274 203.172L153.442 205.969L164.373 175.011L142.228 153.605L154.416 150.723L170.074 166.814L176.654 145.465L188.558 142.65L178.309 172.356L202.124 194.459Z" fill="#0074D9"/>
<path d="M261.347 134.358C257.189 135.341 254.34 137.67 252.801 141.346C251.256 144.998 251.144 149.615 252.464 155.198C255.211 166.817 260.944 171.595 269.664 169.533C273.323 168.668 277.537 166.706 282.308 163.646L284.499 172.912C280.644 175.705 276.079 177.725 270.804 178.972C263.225 180.764 256.886 179.842 251.786 176.206C246.681 172.546 243.112 166.416 241.078 157.815C239.797 152.398 239.663 147.425 240.674 142.896C241.68 138.343 243.769 134.551 246.94 131.518C250.13 128.456 254.207 126.337 259.173 125.163C264.233 123.967 269.607 123.988 275.294 125.228L273.854 135.051C271.686 134.585 269.535 134.241 267.4 134.018C265.265 133.795 263.247 133.909 261.347 134.358Z" fill="#0074D9"/>
<path d="M379.062 152.623L366.446 155.606L349.669 138.763L342.212 161.336L330.38 164.133L341.311 133.175L319.165 111.769L331.354 108.887L347.012 124.978L353.592 103.629L365.495 100.814L355.246 130.52L379.062 152.623Z" fill="#0074D9"/>
<path d="M468.6 131.452L455.984 134.435L439.207 117.592L431.75 140.165L419.918 142.962L430.849 112.004L408.703 90.5979L420.892 87.716L436.55 103.807L443.13 82.4579L455.033 79.6435L444.784 109.349L468.6 131.452Z" fill="#0074D9"/>
<path d="M558.138 110.281L545.522 113.264L528.745 96.4211L521.288 118.994L509.456 121.792L520.387 90.8335L498.241 69.4271L510.43 66.5452L526.088 82.6367L532.668 61.2871L544.571 58.4727L534.323 88.1783L558.138 110.281Z" fill="#0074D9"/>
<path d="M112.273 185.903C116.403 203.371 105.591 220.879 88.1232 225.009C70.6556 229.139 53.1472 218.327 49.0171 200.859C44.887 183.392 55.6993 165.884 73.1669 161.753C90.6346 157.623 108.143 168.436 112.273 185.903Z" fill="#0074D9"/>
<path d="M660.166 56.3572C664.296 73.8248 653.484 91.3333 636.016 95.4634C618.549 99.5935 601.04 88.7813 596.91 71.3137C592.78 53.8461 603.592 36.3377 621.06 32.2076C638.527 28.0774 656.036 38.8896 660.166 56.3572Z" fill="#0074D9"/>
<path d="M254.244 312.637C258.374 330.105 247.562 347.613 230.094 351.743C212.627 355.873 195.118 345.061 190.988 327.593C186.858 310.126 197.67 292.617 215.138 288.487C232.606 284.357 250.114 295.169 254.244 312.637Z" fill="#0074D9"/>
<path d="M351.708 372.825C355.839 390.292 345.026 407.801 327.559 411.931C310.091 416.061 292.583 405.249 288.453 387.781C284.322 370.314 295.135 352.805 312.602 348.675C330.07 344.545 347.578 355.357 351.708 372.825Z" fill="#0074D9"/>
<path d="M411.897 275.361C416.027 292.828 405.215 310.337 387.747 314.467C370.28 318.597 352.771 307.785 348.641 290.317C344.511 272.849 355.324 255.341 372.791 251.211C390.259 247.081 407.767 257.893 411.897 275.361Z" fill="#0074D9"/>
<path d="M101.729 188.396C104.483 200.041 97.2747 211.713 85.6296 214.467C73.9845 217.22 62.3124 210.012 59.5589 198.367C56.8055 186.722 64.0136 175.05 75.6587 172.296C87.3038 169.543 98.9759 176.751 101.729 188.396Z" fill="#F4F4F4"/>
<path d="M649.622 58.8491C652.376 70.4942 645.168 82.1665 633.523 84.9199C621.878 87.6733 610.206 80.4653 607.452 68.8202C604.699 57.1751 611.907 45.5028 623.552 42.7494C635.197 39.996 646.869 47.2041 649.622 58.8491Z" fill="#F4F4F4"/>
<path d="M243.7 315.129C246.453 326.774 239.245 338.446 227.6 341.199C215.955 343.953 204.283 336.745 201.529 325.1C198.776 313.454 205.984 301.782 217.629 299.029C229.274 296.275 240.946 303.483 243.7 315.129Z" fill="#F4F4F4"/>
<path d="M401.353 277.852C404.106 289.497 396.898 301.17 385.253 303.923C373.608 306.676 361.936 299.468 359.182 287.823C356.429 276.178 363.637 264.506 375.282 261.752C386.927 258.999 398.599 266.207 401.353 277.852Z" fill="#F4F4F4"/>
<path d="M341.165 375.317C343.918 386.962 336.71 398.634 325.065 401.387C313.42 404.141 301.748 396.933 298.995 385.288C296.241 373.643 303.449 361.97 315.094 359.217C326.739 356.463 338.412 363.672 341.165 375.317Z" fill="#F4F4F4"/>
<path d="M311.236 229.96C312.686 236.09 312.809 241.492 311.606 246.167C310.422 250.812 307.954 254.594 304.204 257.513L320.06 268.553L305.912 271.898L293.597 262.467L292.777 262.661C284.794 264.549 278.117 263.681 272.744 260.06C267.372 256.438 263.661 250.291 261.611 241.619C259.56 232.947 260.134 225.824 263.332 220.251C266.548 214.649 272.16 210.901 280.167 209.008C288.173 207.115 294.836 207.973 300.155 211.582C305.498 215.186 309.192 221.312 311.236 229.96Z" fill="#0074D9"/>
<path d="M312.643 327.809C312.023 329.929 313.239 332.151 315.359 332.771C317.48 333.391 319.701 332.175 320.322 330.055L312.643 327.809ZM340.477 335.951C339.857 338.072 341.072 340.293 343.193 340.913C345.313 341.534 347.535 340.318 348.155 338.197L340.477 335.951ZM321.067 299.016C320.446 301.136 321.662 303.357 323.783 303.978C325.903 304.598 328.125 303.382 328.745 301.262L321.067 299.016ZM348.9 307.158C348.28 309.278 349.496 311.5 351.616 312.12C353.736 312.74 355.958 311.524 356.578 309.404L348.9 307.158ZM320.322 330.055C321.665 325.463 324.016 322.807 326.404 321.435C328.824 320.045 331.57 319.801 334.049 320.526C336.528 321.251 338.71 322.937 339.999 325.413C341.271 327.855 341.82 331.36 340.477 335.951L348.155 338.197C349.994 331.911 349.45 326.24 347.094 321.717C344.756 317.227 340.775 314.158 336.295 312.848C331.816 311.537 326.809 311.977 322.419 314.499C317.997 317.039 314.482 321.523 312.643 327.809L320.322 330.055ZM328.745 301.262C330.088 296.67 332.439 294.014 334.827 292.642C337.247 291.252 339.994 291.008 342.473 291.733C344.951 292.458 347.133 294.144 348.422 296.619C349.695 299.062 350.243 302.567 348.9 307.158L356.578 309.404C358.417 303.118 357.873 297.447 355.518 292.924C353.179 288.434 349.198 285.365 344.719 284.055C340.239 282.744 335.232 283.184 330.842 285.705C326.42 288.245 322.906 292.73 321.067 299.016L328.745 301.262Z" fill="#FF4136"/>
</svg>
