<svg id="play-lantern" class="play" viewBox="0 0 2072 908" fill="none" xmlns="http://www.w3.org/2000/svg" aria-hidden="true" focusable="false">
<path d="M1162 616.258C1162.69 614.157 1161.54 611.9 1159.44 611.217C1157.34 610.534 1155.08 611.684 1154.4 613.785L1162 616.258ZM1138.99 674.141L1135.61 676.285L1140.16 683.457L1142.79 675.377L1138.99 674.141ZM1056.56 421.753C1058.75 421.416 1060.24 419.374 1059.91 417.19C1059.57 415.007 1057.53 413.51 1055.34 413.847L1056.56 421.753ZM1019.76 419.332C1017.58 419.669 1016.08 421.712 1016.42 423.895C1016.76 426.079 1018.8 427.576 1020.98 427.239L1019.76 419.332ZM1252.63 624.964C1252.97 622.781 1251.48 620.734 1249.3 620.392C1247.12 620.049 1245.07 621.541 1244.73 623.723L1252.63 624.964ZM1243.06 660.117L1240.59 663.26L1245.96 667.483L1247.02 660.737L1243.06 660.117ZM1106.59 424.664C1108.77 424.327 1110.27 422.284 1109.93 420.101C1109.6 417.917 1107.55 416.42 1105.37 416.757L1106.59 424.664ZM1069.79 422.243C1067.61 422.58 1066.11 424.622 1066.45 426.806C1066.78 428.989 1068.83 430.486 1071.01 430.149L1069.79 422.243ZM1343.33 587.668C1343.94 585.544 1342.71 583.329 1340.58 582.719C1338.46 582.11 1336.25 583.338 1335.64 585.461L1343.33 587.668ZM1321.71 648.496L1319.76 651.986L1324.16 654.454L1325.56 649.6L1321.71 648.496ZM1143.62 428.567L1143.01 424.613L1143.01 424.613L1143.62 428.567ZM1162.51 429.701C1164.69 429.364 1166.19 427.321 1165.85 425.138C1165.52 422.955 1163.47 421.458 1161.29 421.794L1162.51 429.701ZM1125.71 427.28C1123.53 427.617 1122.03 429.66 1122.37 431.843C1122.7 434.026 1124.75 435.523 1126.93 435.187L1125.71 427.28ZM1432.59 576.884C1432.32 574.692 1430.33 573.133 1428.13 573.403C1425.94 573.673 1424.38 575.67 1424.65 577.862L1432.59 576.884ZM1482.09 669.2C1481.16 667.193 1478.79 666.315 1476.78 667.238C1474.77 668.162 1473.89 670.537 1474.82 672.544L1482.09 669.2ZM1489.73 703.297C1490.74 705.262 1493.15 706.036 1495.12 705.026C1497.08 704.016 1497.86 701.605 1496.85 699.64L1489.73 703.297ZM1069.84 632.57C1069.44 630.398 1067.35 628.964 1065.18 629.367C1063.01 629.77 1061.57 631.857 1061.97 634.029L1069.84 632.57ZM1050.52 737.965C1050.8 735.773 1049.25 733.773 1047.06 733.497C1044.86 733.22 1042.86 734.773 1042.59 736.965L1050.52 737.965ZM1037.68 770.438C1037.31 772.615 1038.77 774.682 1040.95 775.053C1043.13 775.424 1045.2 773.959 1045.57 771.781L1037.68 770.438ZM918.207 713.936C917.22 715.912 918.021 718.315 919.997 719.302C921.973 720.29 924.375 719.489 925.363 717.513L918.207 713.936ZM985.329 438.807L984.72 434.854L984.72 434.854L985.329 438.807ZM964.953 437.902C962.77 438.238 961.273 440.281 961.609 442.464C961.946 444.648 963.989 446.145 966.172 445.808L964.953 437.902ZM1006.69 439.56C1008.88 439.224 1010.37 437.181 1010.04 434.998C1009.7 432.814 1007.66 431.317 1005.47 431.654L1006.69 439.56ZM1154.4 613.785L1135.18 672.904L1142.79 675.377L1162 616.258L1154.4 613.785ZM1138.99 674.141C1142.36 671.996 1142.36 671.996 1142.36 671.996C1142.36 671.995 1142.36 671.995 1142.36 671.993C1142.36 671.99 1142.36 671.986 1142.35 671.979C1142.34 671.966 1142.33 671.946 1142.31 671.919C1142.28 671.865 1142.23 671.782 1142.16 671.67C1142.02 671.448 1141.81 671.113 1141.53 670.668C1140.98 669.777 1140.17 668.449 1139.12 666.707C1137.02 663.222 1133.99 658.084 1130.27 651.495C1122.83 638.313 1112.63 619.33 1101.62 596.153C1079.6 549.772 1054.42 486.73 1041.6 419.866L1033.74 421.372C1046.74 489.146 1072.21 552.865 1094.4 599.585C1105.49 622.959 1115.78 642.111 1123.3 655.428C1127.06 662.087 1130.13 667.289 1132.26 670.832C1133.33 672.604 1134.16 673.961 1134.73 674.878C1135.01 675.336 1135.23 675.685 1135.38 675.921C1135.45 676.038 1135.51 676.128 1135.55 676.189C1135.57 676.219 1135.58 676.242 1135.59 676.259C1135.6 676.267 1135.6 676.273 1135.6 676.277C1135.6 676.279 1135.61 676.281 1135.61 676.282C1135.61 676.284 1135.61 676.285 1138.99 674.141ZM1038.28 424.572L1056.56 421.753L1055.34 413.847L1037.06 416.666L1038.28 424.572ZM1020.98 427.239L1038.28 424.572L1037.06 416.666L1019.76 419.332L1020.98 427.239ZM1244.73 623.723L1239.11 659.497L1247.02 660.737L1252.63 624.964L1244.73 623.723ZM1243.06 660.117C1245.54 656.973 1245.54 656.974 1245.54 656.974C1245.54 656.973 1245.54 656.973 1245.53 656.971C1245.53 656.969 1245.53 656.965 1245.52 656.96C1245.51 656.949 1245.49 656.933 1245.46 656.91C1245.4 656.864 1245.31 656.793 1245.19 656.698C1244.96 656.509 1244.6 656.222 1244.13 655.84C1243.2 655.076 1241.81 653.932 1240.04 652.424C1236.48 649.408 1231.37 644.94 1225.14 639.153C1212.69 627.578 1195.8 610.745 1178.12 589.737C1142.71 547.655 1104.35 489.131 1091.62 422.776L1083.77 424.283C1096.86 492.565 1136.19 552.336 1172 594.888C1189.94 616.197 1207.05 633.266 1219.7 645.014C1226.02 650.889 1231.22 655.437 1234.86 658.522C1236.67 660.065 1238.1 661.243 1239.07 662.038C1239.56 662.435 1239.94 662.738 1240.19 662.942C1240.32 663.044 1240.42 663.122 1240.48 663.175C1240.52 663.202 1240.54 663.222 1240.56 663.236C1240.57 663.243 1240.58 663.249 1240.58 663.253C1240.58 663.255 1240.59 663.257 1240.59 663.258C1240.59 663.259 1240.59 663.26 1243.06 660.117ZM1088.31 427.483L1106.59 424.664L1105.37 416.757L1087.09 419.576L1088.31 427.483ZM1071.01 430.149L1088.31 427.483L1087.09 419.576L1069.79 422.243L1071.01 430.149ZM1335.64 585.461L1317.87 647.393L1325.56 649.6L1343.33 587.668L1335.64 585.461ZM1321.71 648.496C1323.67 645.006 1323.67 645.007 1323.67 645.007C1323.67 645.006 1323.66 645.006 1323.66 645.005C1323.66 645.003 1323.65 645 1323.65 644.995C1323.63 644.987 1323.61 644.973 1323.57 644.953C1323.5 644.915 1323.4 644.856 1323.26 644.777C1322.98 644.618 1322.57 644.377 1322.02 644.055C1320.92 643.411 1319.3 642.444 1317.22 641.162C1313.05 638.599 1307.06 634.778 1299.78 629.77C1285.22 619.752 1265.54 605.001 1245.06 586.083C1204.02 548.17 1160.22 493.908 1147.55 427.813L1139.69 429.32C1152.83 497.864 1198.08 553.566 1239.63 591.959C1260.45 611.194 1280.45 626.18 1295.25 636.361C1302.65 641.453 1308.75 645.348 1313.02 647.974C1315.15 649.288 1316.83 650.285 1317.97 650.956C1318.54 651.292 1318.99 651.546 1319.29 651.718C1319.44 651.804 1319.55 651.87 1319.63 651.915C1319.67 651.937 1319.7 651.954 1319.72 651.966C1319.73 651.972 1319.74 651.977 1319.75 651.98C1319.75 651.982 1319.75 651.983 1319.75 651.984C1319.75 651.985 1319.76 651.986 1321.71 648.496ZM1144.23 432.52L1162.51 429.701L1161.29 421.794L1143.01 424.613L1144.23 432.52ZM1126.93 435.187L1144.23 432.52L1143.01 424.613L1125.71 427.28L1126.93 435.187ZM1424.65 577.862C1431.73 635.354 1446.27 663.847 1459.72 677.969C1466.47 685.06 1472.9 688.472 1477.83 690.075C1480.28 690.872 1482.32 691.211 1483.81 691.345C1484.55 691.412 1485.16 691.428 1485.6 691.424C1485.82 691.422 1486.01 691.416 1486.15 691.408C1486.22 691.405 1486.28 691.401 1486.33 691.397C1486.35 691.395 1486.37 691.393 1486.39 691.392C1486.4 691.391 1486.41 691.39 1486.42 691.389C1486.42 691.389 1486.43 691.389 1486.43 691.388C1486.44 691.388 1486.44 691.387 1486.06 687.406C1485.68 683.424 1485.68 683.423 1485.69 683.423C1485.69 683.423 1485.69 683.422 1485.7 683.422C1485.7 683.422 1485.71 683.421 1485.71 683.421C1485.72 683.42 1485.73 683.42 1485.73 683.419C1485.74 683.419 1485.74 683.419 1485.72 683.42C1485.7 683.421 1485.64 683.424 1485.54 683.425C1485.34 683.426 1485 683.42 1484.53 683.377C1483.59 683.293 1482.14 683.065 1480.3 682.467C1476.66 681.281 1471.36 678.596 1465.51 672.452C1453.76 660.106 1439.58 633.583 1432.59 576.884L1424.65 577.862ZM1489.69 685.733L1482.09 669.2L1474.82 672.544L1482.43 689.078L1489.69 685.733ZM1496.85 699.64L1489.62 685.577L1482.5 689.234L1489.73 703.297L1496.85 699.64ZM1061.97 634.029C1072.39 690.198 1066.86 719.76 1059.37 735.075C1055.64 742.695 1051.4 746.85 1048.28 749.079C1046.71 750.202 1045.4 750.857 1044.53 751.22C1044.09 751.402 1043.77 751.511 1043.58 751.569C1043.48 751.598 1043.42 751.614 1043.4 751.62C1043.39 751.623 1043.39 751.624 1043.39 751.622C1043.4 751.621 1043.4 751.62 1043.41 751.618C1043.42 751.617 1043.42 751.616 1043.43 751.615C1043.43 751.614 1043.43 751.613 1043.44 751.613C1043.44 751.612 1043.44 751.611 1044.28 755.523C1045.12 759.435 1045.12 759.433 1045.13 759.432C1045.13 759.432 1045.13 759.431 1045.14 759.43C1045.15 759.428 1045.15 759.426 1045.16 759.424C1045.18 759.42 1045.2 759.415 1045.23 759.409C1045.28 759.398 1045.33 759.384 1045.4 759.366C1045.54 759.331 1045.72 759.282 1045.93 759.217C1046.35 759.086 1046.92 758.889 1047.61 758.602C1048.99 758.025 1050.84 757.086 1052.94 755.588C1057.15 752.576 1062.25 747.386 1066.56 738.59C1075.12 721.074 1080.41 689.525 1069.84 632.57L1061.97 634.029ZM1048.25 756.023L1050.52 737.965L1042.59 736.965L1040.31 755.023L1048.25 756.023ZM1045.57 771.781L1048.22 756.195L1040.34 754.851L1037.68 770.438L1045.57 771.781ZM921.785 715.724C925.363 717.513 925.364 717.512 925.365 717.51C925.365 717.508 925.367 717.506 925.368 717.502C925.371 717.496 925.376 717.487 925.382 717.475C925.394 717.451 925.411 717.417 925.434 717.371C925.479 717.28 925.546 717.145 925.633 716.968C925.808 716.613 926.066 716.088 926.4 715.401C927.068 714.028 928.042 712.006 929.27 709.403C931.725 704.197 935.197 696.663 939.275 687.33C947.429 668.669 958.016 642.791 967.737 613.936C977.454 585.094 986.337 553.191 991.043 522.498C995.738 491.871 996.333 462.092 989.167 437.681L981.491 439.934C988.178 462.712 987.756 491.143 983.135 521.286C978.524 551.363 969.788 582.791 960.156 611.381C950.529 639.958 940.034 665.612 931.945 684.127C927.901 693.381 924.461 700.845 922.034 705.99C920.821 708.563 919.861 710.555 919.206 711.902C918.879 712.575 918.627 713.086 918.459 713.428C918.375 713.599 918.311 713.728 918.269 713.813C918.248 713.855 918.232 713.887 918.222 713.907C918.216 713.918 918.213 713.925 918.21 713.93C918.209 713.932 918.208 713.934 918.208 713.935C918.207 713.936 918.207 713.936 921.785 715.724ZM966.172 445.808L985.939 442.76L984.72 434.854L964.953 437.902L966.172 445.808ZM1005.47 431.654L984.72 434.854L985.939 442.76L1006.69 439.56L1005.47 431.654Z" fill="#FF4136"/>
<path d="M1283.91 878.044C1284.83 880.049 1287.21 880.924 1289.21 879.998C1291.22 879.072 1292.09 876.696 1291.17 874.69L1283.91 878.044ZM1189.62 776.115L1185.66 776.724L1185.66 776.724L1189.62 776.115ZM1189.15 746.845C1188.81 744.662 1186.77 743.165 1184.59 743.501C1182.4 743.838 1180.91 745.881 1181.24 748.064L1189.15 746.845ZM1190.54 808.351C1190.88 810.534 1192.92 812.031 1195.1 811.694C1197.29 811.358 1198.78 809.315 1198.45 807.131L1190.54 808.351ZM1189.62 688L1185.97 686.354L1185.97 686.354L1189.62 688ZM1162.93 692.114L1159.62 689.867L1159.62 689.867L1162.93 692.114ZM1275.23 793.27C1275.57 795.453 1277.61 796.95 1279.79 796.613C1281.98 796.277 1283.47 794.234 1283.14 792.051L1275.23 793.27ZM2035.45 477.232C2035.78 479.416 2037.83 480.913 2040.01 480.576C2042.19 480.239 2043.69 478.197 2043.35 476.013L2035.45 477.232ZM1997.82 206.935L2001.77 206.326L2001.47 204.348L1999.7 203.406L1997.82 206.935ZM1621.2 1.39107C1619.25 0.350895 1616.82 1.08758 1615.78 3.03651C1614.74 4.98544 1615.48 7.40859 1617.43 8.44877L1621.2 1.39107ZM1590.88 612.559C1591.21 614.742 1593.26 616.239 1595.44 615.903C1597.62 615.566 1599.12 613.523 1598.78 611.34L1590.88 612.559ZM1532.35 206.738L1531.66 202.797L1527.8 203.472L1528.4 207.347L1532.35 206.738ZM1792.76 165.312C1794.94 164.932 1796.39 162.859 1796.01 160.683C1795.63 158.507 1793.56 157.051 1791.38 157.431L1792.76 165.312ZM454.744 725.003C455.081 727.186 457.124 728.683 459.307 728.346C461.49 728.01 462.987 725.967 462.651 723.784L454.744 725.003ZM396.219 319.182L400.173 318.572L399.545 314.504L395.497 315.247L396.219 319.182ZM3.3675 387.244C1.19468 387.643 -0.243333 389.728 0.155607 391.901C0.554547 394.074 2.63937 395.512 4.81219 395.113L3.3675 387.244ZM1287.54 876.367C1291.17 874.69 1291.17 874.689 1291.17 874.687C1291.17 874.686 1291.17 874.684 1291.16 874.682C1291.16 874.678 1291.16 874.673 1291.16 874.666C1291.15 874.652 1291.14 874.633 1291.13 874.608C1291.11 874.558 1291.07 874.485 1291.03 874.39C1290.94 874.201 1290.81 873.923 1290.64 873.564C1290.29 872.845 1289.78 871.798 1289.12 870.468C1287.79 867.809 1285.83 864.016 1283.32 859.453C1278.29 850.337 1271.01 838.11 1262.01 825.71C1253.03 813.328 1242.25 800.656 1230.18 790.735C1218.15 780.837 1204.55 773.443 1189.97 772.131L1189.26 780.099C1201.62 781.211 1213.73 787.561 1225.1 796.914C1236.45 806.246 1246.78 818.334 1255.54 830.408C1264.29 842.465 1271.39 854.392 1276.31 863.315C1278.77 867.773 1280.67 871.471 1281.96 874.048C1282.61 875.336 1283.1 876.343 1283.42 877.024C1283.59 877.365 1283.71 877.624 1283.79 877.796C1283.83 877.882 1283.86 877.946 1283.88 877.987C1283.89 878.008 1283.9 878.023 1283.9 878.033C1283.9 878.037 1283.9 878.041 1283.9 878.042C1283.91 878.043 1283.91 878.044 1283.91 878.044C1283.91 878.044 1283.91 878.044 1287.54 876.367ZM1193.57 775.505L1189.15 746.845L1181.24 748.064L1185.66 776.724L1193.57 775.505ZM1185.66 776.724L1190.54 808.351L1198.45 807.131L1193.57 775.505L1185.66 776.724ZM1192.42 778.963C1199.26 772.22 1203.31 760.762 1205.58 748.737C1207.88 736.524 1208.5 722.927 1207.91 711.124C1207.61 705.215 1207 699.694 1206.13 694.971C1205.28 690.315 1204.12 686.18 1202.59 683.199C1201.83 681.722 1200.84 680.234 1199.5 679.158C1198.04 677.992 1196.06 677.257 1193.83 677.77C1191.82 678.233 1190.29 679.565 1189.16 680.936C1188 682.348 1186.95 684.186 1185.97 686.354L1193.26 689.646C1194.08 687.826 1194.79 686.681 1195.34 686.015C1195.92 685.309 1196.05 685.469 1195.62 685.566C1195.38 685.623 1195.09 685.62 1194.83 685.547C1194.59 685.481 1194.48 685.389 1194.5 685.406C1194.59 685.481 1194.96 685.851 1195.47 686.844C1196.47 688.801 1197.46 692.045 1198.27 696.42C1199.06 700.728 1199.63 705.889 1199.92 711.527C1200.49 722.817 1199.88 735.768 1197.72 747.253C1195.51 758.927 1191.83 768.317 1186.81 773.267L1192.42 778.963ZM1185.97 686.354C1185.52 687.361 1185.24 687.435 1185.4 687.337C1185.66 687.184 1185.85 687.264 1185.6 687.216C1185.24 687.147 1184.66 686.931 1183.67 686.427C1183.21 686.187 1182.72 685.917 1182.16 685.608C1181.61 685.309 1181.01 684.971 1180.39 684.643C1178 683.387 1174.57 681.785 1170.67 682.177C1166.5 682.598 1162.83 685.152 1159.62 689.867L1166.24 694.361C1168.61 690.88 1170.41 690.245 1171.48 690.137C1172.82 690.001 1174.4 690.531 1176.65 691.72C1177.19 692.003 1177.72 692.296 1178.29 692.61C1178.84 692.915 1179.43 693.241 1180.02 693.544C1181.15 694.125 1182.57 694.779 1184.08 695.071C1185.71 695.384 1187.64 695.317 1189.49 694.213C1191.25 693.166 1192.43 691.487 1193.26 689.646L1185.97 686.354ZM1159.62 689.867C1157.93 692.355 1155.16 693.461 1150.93 693.075C1146.61 692.68 1141.42 690.72 1136.32 687.843C1131.27 684.99 1126.63 681.421 1123.43 678.158C1121.82 676.518 1120.68 675.066 1120.02 673.922C1119.25 672.605 1119.51 672.379 1119.41 672.859L1111.59 671.141C1111.03 673.702 1112.08 676.178 1113.1 677.931C1114.21 679.858 1115.84 681.845 1117.72 683.762C1121.5 687.612 1126.75 691.625 1132.39 694.81C1137.99 697.97 1144.31 700.503 1150.2 701.042C1156.2 701.589 1162.37 700.071 1166.24 694.361L1159.62 689.867ZM1265.78 731.994L1275.23 793.27L1283.14 792.051L1273.69 730.775L1265.78 731.994ZM2043.35 476.013L2001.77 206.326L1993.87 207.545L2035.45 477.232L2043.35 476.013ZM1999.7 203.406L1621.2 1.39107L1617.43 8.44877L1995.94 210.464L1999.7 203.406ZM1598.78 611.34L1536.31 206.128L1528.4 207.347L1590.88 612.559L1598.78 611.34ZM1533.04 210.678L1792.76 165.312L1791.38 157.431L1531.66 202.797L1533.04 210.678ZM462.651 723.784L400.173 318.572L392.266 319.791L454.744 725.003L462.651 723.784ZM395.497 315.247L3.3675 387.244L4.81219 395.113L396.942 323.116L395.497 315.247Z" fill="#0074D9"/>
<path d="M1096.19 651.902L1083.38 653.878L1067.99 635.76L1058.77 657.672L1046.75 659.525L1060.1 629.529L1039.72 606.437L1052.09 604.529L1066.43 621.809L1074.68 601.047L1086.77 599.183L1074.2 627.984L1096.19 651.902Z" fill="#0074D9"/>
<path d="M1187.13 637.882L1174.31 639.857L1158.92 621.74L1149.7 643.652L1137.69 645.505L1151.03 615.508L1130.65 592.417L1143.03 590.508L1157.36 607.788L1165.61 587.026L1177.7 585.162L1165.13 613.964L1187.13 637.882Z" fill="#0074D9"/>
<path d="M1250.92 582.655C1246.7 583.306 1243.67 585.403 1241.85 588.945C1240.02 592.463 1239.54 597.057 1240.41 602.727C1242.23 614.526 1247.57 619.743 1256.43 618.378C1260.14 617.805 1264.5 616.182 1269.5 613.509L1270.95 622.92C1266.88 625.399 1262.17 627.052 1256.82 627.878C1249.12 629.064 1242.87 627.644 1238.08 623.616C1233.28 619.563 1230.2 613.17 1228.86 604.435C1228.01 598.934 1228.27 593.966 1229.63 589.531C1231 585.072 1233.38 581.456 1236.78 578.684C1240.2 575.884 1244.43 574.095 1249.48 573.317C1254.62 572.525 1259.97 572.971 1265.54 574.657L1263.33 584.335C1261.21 583.699 1259.09 583.186 1256.98 582.795C1254.87 582.404 1252.85 582.357 1250.92 582.655Z" fill="#0074D9"/>
<path d="M1366.82 610.176L1354.01 612.151L1338.61 594.033L1329.4 615.946L1317.38 617.799L1330.72 587.802L1310.34 564.711L1322.72 562.802L1337.06 580.082L1345.3 559.32L1357.39 557.456L1344.83 586.258L1366.82 610.176Z" fill="#0074D9"/>
<path d="M1457.75 596.155L1444.94 598.13L1429.55 580.013L1420.33 601.925L1408.31 603.778L1421.66 573.782L1401.27 550.69L1413.65 548.782L1427.99 566.062L1436.24 545.299L1448.33 543.436L1435.76 572.237L1457.75 596.155Z" fill="#0074D9"/>
<path d="M953.336 710.355C956.071 728.095 943.908 744.693 926.168 747.428C908.428 750.163 891.83 738 889.095 720.26C886.36 702.521 898.523 685.923 916.263 683.187C934.003 680.452 950.601 692.616 953.336 710.355Z" fill="#0074D9"/>
<path d="M2071.03 471.747C2073.76 489.487 2061.6 506.085 2043.86 508.82C2026.12 511.556 2009.52 499.392 2006.79 481.652C2004.05 463.913 2016.22 447.315 2033.96 444.579C2051.7 441.844 2068.29 454.008 2071.03 471.747Z" fill="#0074D9"/>
<path d="M489.791 716.059C492.526 733.798 480.363 750.396 462.623 753.132C444.883 755.867 428.285 743.703 425.55 725.964C422.815 708.224 434.978 691.626 452.718 688.891C470.458 686.156 487.056 698.319 489.791 716.059Z" fill="#0074D9"/>
<path d="M1627.37 606.428C1630.11 624.167 1617.94 640.765 1600.2 643.501C1582.46 646.236 1565.87 634.072 1563.13 616.333C1560.39 598.593 1572.56 581.995 1590.3 579.26C1608.04 576.525 1624.64 588.688 1627.37 606.428Z" fill="#0074D9"/>
<path d="M1322.96 869.892C1325.7 887.631 1313.54 904.229 1295.8 906.965C1278.06 909.7 1261.46 897.536 1258.72 879.797C1255.99 862.057 1268.15 845.459 1285.89 842.724C1303.63 839.988 1320.23 852.152 1322.96 869.892Z" fill="#0074D9"/>
<path d="M942.628 712.005C944.452 723.832 936.343 734.897 924.516 736.72C912.69 738.544 901.624 730.435 899.801 718.609C897.978 706.782 906.086 695.717 917.913 693.893C929.739 692.07 940.805 700.179 942.628 712.005Z" fill="#F4F4F4"/>
<path d="M2060.32 473.397C2062.14 485.224 2054.04 496.289 2042.21 498.113C2030.38 499.936 2019.32 491.827 2017.49 480.001C2015.67 468.174 2023.78 457.109 2035.61 455.285C2047.43 453.462 2058.5 461.571 2060.32 473.397Z" fill="#F4F4F4"/>
<path d="M479.083 717.709C480.907 729.535 472.798 740.601 460.971 742.424C449.145 744.247 438.08 736.139 436.256 724.312C434.433 712.486 442.542 701.42 454.368 699.597C466.194 697.773 477.26 705.882 479.083 717.709Z" fill="#F4F4F4"/>
<path d="M1616.66 608.078C1618.49 619.904 1610.38 630.97 1598.55 632.793C1586.72 634.616 1575.66 626.507 1573.84 614.681C1572.01 602.855 1580.12 591.789 1591.95 589.966C1603.77 588.142 1614.84 596.251 1616.66 608.078Z" fill="#F4F4F4"/>
<path d="M1294.84 730.204C1295.8 736.429 1295.49 741.824 1293.92 746.389C1292.37 750.926 1289.62 754.501 1285.65 757.114L1300.58 769.374L1286.21 771.589L1274.68 761.213L1273.85 761.342C1265.74 762.592 1259.15 761.199 1254.08 757.163C1249.02 753.128 1245.8 746.707 1244.44 737.9C1243.09 729.092 1244.22 722.038 1247.85 716.735C1251.5 711.405 1257.39 708.113 1265.52 706.859C1273.65 705.606 1280.23 706.988 1285.24 711.007C1290.28 715.022 1293.48 721.421 1294.84 730.204ZM1256.22 736.158C1257.13 742.07 1258.94 746.349 1261.64 748.995C1264.35 751.641 1267.93 752.62 1272.4 751.931C1281.35 750.551 1284.91 743.913 1283.07 732.018C1281.24 720.098 1275.87 714.824 1266.96 716.197C1262.5 716.885 1259.36 718.913 1257.56 722.278C1255.75 725.62 1255.31 730.247 1256.22 736.158Z" fill="#0074D9"/>
<path d="M1256.22 736.159C1257.13 742.071 1258.94 746.349 1261.64 748.995C1264.35 751.641 1267.93 752.62 1272.4 751.932C1281.35 750.552 1284.91 743.914 1283.07 732.018C1281.24 720.099 1275.87 714.825 1266.96 716.198C1262.5 716.886 1259.36 718.913 1257.56 722.279C1255.75 725.621 1255.31 730.248 1256.22 736.159Z" fill="#F4F4F4"/>
<path d="M1291.01 793.872C1292.06 800.695 1287.38 807.079 1280.56 808.131C1273.73 809.183 1267.35 804.505 1266.3 797.682C1265.25 790.859 1269.92 784.475 1276.75 783.423C1283.57 782.371 1289.95 787.049 1291.01 793.872Z" fill="#FF4136"/>
<path d="M1126.26 668.449C1127.31 675.271 1122.63 681.655 1115.81 682.707C1108.99 683.759 1102.6 679.081 1101.55 672.258C1100.5 665.435 1105.18 659.051 1112 657.999C1118.82 656.947 1125.21 661.626 1126.26 668.449Z" fill="#FF4136"/>
</svg>
