<svg id="play-super-girl" class="play" viewBox="0 0 1068 441" fill="none" xmlns="http://www.w3.org/2000/svg" aria-hidden="true" focusable="false">
<path d="M332.799 17.9386C334.972 18.339 337.058 16.9024 337.458 14.7298C337.858 12.5573 336.422 10.4715 334.249 10.0711L332.799 17.9386ZM284.094 0.827958C281.921 0.427575 279.836 1.8642 279.435 4.03676C279.035 6.20931 280.472 8.29509 282.644 8.69547L284.094 0.827958ZM1041.3 232.011C1043.13 230.761 1043.59 228.27 1042.34 226.449C1041.09 224.628 1038.6 224.166 1036.78 225.417L1041.3 232.011ZM12.0365 213.543L13.8021 209.954L9.82805 207.999L8.2866 212.151L12.0365 213.543ZM1.21983 231.185C0.450935 233.256 1.50651 235.558 3.57753 236.327C5.64854 237.096 7.95074 236.041 8.71963 233.97L1.21983 231.185ZM28.4512 226.075C30.4335 227.05 32.8309 226.234 33.806 224.251C34.7811 222.269 33.9646 219.872 31.9824 218.897L28.4512 226.075ZM284.963 142.329L281.029 141.604L280.304 145.538L284.238 146.263L284.963 142.329ZM598.266 114.923C596.273 115.877 595.431 118.266 596.385 120.258C597.339 122.251 599.728 123.093 601.721 122.139L598.266 114.923ZM640.768 103.402C642.759 102.444 643.597 100.054 642.64 98.0634C641.683 96.0724 639.293 95.2344 637.302 96.1916L640.768 103.402ZM336.037 404.947C333.904 404.372 331.708 405.635 331.133 407.768C330.558 409.901 331.82 412.096 333.953 412.671L336.037 404.947ZM750.965 158.476C748.843 159.089 747.62 161.307 748.233 163.429C748.847 165.552 751.065 166.775 753.187 166.161L750.965 158.476ZM805.053 150.235C807.153 149.549 808.3 147.291 807.614 145.191C806.929 143.091 804.671 141.944 802.571 142.63L805.053 150.235ZM371.636 207.315C373.799 206.863 375.185 204.743 374.733 202.581C374.28 200.419 372.161 199.033 369.998 199.485L371.636 207.315ZM437.621 282.314L436.754 286.219L436.825 286.235L436.896 286.248L437.621 282.314ZM877.723 189.542L881.692 189.044L881.055 183.962L876.279 185.811L877.723 189.542ZM876.431 211.378C876.706 213.57 878.706 215.124 880.898 214.849C883.09 214.574 884.644 212.574 884.369 210.382L876.431 211.378ZM854.927 194.079C852.867 194.876 851.843 197.193 852.641 199.253C853.439 201.313 855.755 202.337 857.816 201.539L854.927 194.079ZM351.783 317.334C328.893 298.598 314.563 271.567 306.119 240.888C297.675 210.209 295.192 176.142 295.808 143.715L287.81 143.563C287.185 176.432 289.687 211.332 298.406 243.011C307.125 274.689 322.135 303.405 346.715 323.525L351.783 317.334ZM295.808 143.715C296.483 108.263 300.857 74.9557 305.071 50.4936C307.177 38.269 309.239 28.2686 310.773 21.3324C311.54 17.8646 312.175 15.1637 312.617 13.3347C312.838 12.4202 313.01 11.7238 313.127 11.2586C313.185 11.0259 313.23 10.8511 313.259 10.7358C313.274 10.6781 313.285 10.6353 313.292 10.6075C313.296 10.5936 313.298 10.5835 313.3 10.5772C313.301 10.5741 313.301 10.5719 313.302 10.5706C313.302 10.57 313.302 10.5697 313.302 10.5694C313.302 10.5694 313.302 10.5697 309.43 9.56454C305.558 8.55941 305.558 8.56013 305.558 8.5611C305.558 8.56174 305.558 8.56294 305.557 8.56422C305.557 8.56678 305.556 8.57029 305.554 8.57476C305.552 8.58368 305.549 8.59641 305.545 8.61292C305.536 8.64593 305.524 8.69405 305.508 8.75707C305.476 8.88312 305.428 9.06878 305.367 9.31241C305.245 9.79966 305.067 10.5188 304.84 11.4567C304.387 13.3325 303.741 16.0836 302.962 19.6046C301.405 26.6461 299.317 36.7708 297.187 49.1357C292.93 73.8527 288.494 107.583 287.81 143.563L295.808 143.715ZM334.249 10.0711L310.155 5.63079L308.705 13.4983L332.799 17.9386L334.249 10.0711ZM282.644 8.69547L308.705 13.4983L310.155 5.63079L284.094 0.827958L282.644 8.69547ZM1036.78 225.417C991.026 256.835 951.032 290.627 895.603 318.127C840.39 345.52 769.936 366.567 664.088 371.681L664.474 379.672C771.287 374.511 842.842 353.235 899.159 325.294C955.26 297.46 996.315 262.908 1041.3 232.011L1036.78 225.417ZM664.088 371.681C520.307 378.628 372.683 370.996 253.601 345.27C194.055 332.406 141.805 315.05 100.779 292.836C59.7256 270.607 30.2448 243.696 15.6733 211.877L8.39974 215.208C23.9632 249.192 55.0792 277.188 96.9701 299.871C138.889 322.569 191.931 340.131 251.912 353.089C371.882 379.007 520.245 386.64 664.474 379.672L664.088 371.681ZM8.71963 233.97L15.7864 214.935L8.2866 212.151L1.21983 231.185L8.71963 233.97ZM31.9824 218.897L13.8021 209.954L10.2709 217.132L28.4512 226.075L31.9824 218.897ZM289.185 97.3496L281.029 141.604L288.896 143.054L297.052 98.7995L289.185 97.3496ZM284.238 146.263C286.43 146.667 288.696 147.101 291.034 147.563L292.585 139.715C290.218 139.247 287.918 138.806 285.688 138.396L284.238 146.263ZM291.034 147.563C320.073 153.303 359.379 163.197 401.331 172.62C443.135 182.01 487.385 190.885 525.776 194.422C544.973 196.19 562.828 196.637 578.251 195.107C593.617 193.584 606.927 190.067 616.751 183.625C626.767 177.058 633.01 167.529 634.1 154.671C635.169 142.067 631.261 126.62 621.977 107.94L614.813 111.5C623.796 129.576 627.021 143.475 626.129 153.995C625.259 164.26 620.449 171.634 612.364 176.935C604.088 182.362 592.249 185.68 577.462 187.146C562.732 188.607 545.43 188.198 526.51 186.455C488.666 182.969 444.842 174.194 403.084 164.815C361.474 155.469 321.73 145.475 292.585 139.715L291.034 147.563ZM616.667 106.112L598.266 114.923L601.721 122.139L620.122 113.328L616.667 106.112ZM637.302 96.1916L616.661 106.115L620.128 113.325L640.768 103.402L637.302 96.1916ZM334.995 408.809C333.953 412.671 333.955 412.672 333.958 412.673C333.96 412.673 333.963 412.674 333.967 412.675C333.974 412.677 333.985 412.68 333.998 412.683C334.025 412.691 334.064 412.701 334.114 412.714C334.216 412.741 334.364 412.78 334.559 412.831C334.949 412.932 335.523 413.079 336.275 413.267C337.778 413.642 339.989 414.178 342.844 414.828C348.554 416.128 356.841 417.883 367.193 419.716C387.889 423.38 416.866 427.361 450.003 428.625C516.157 431.149 599.473 422.872 666.472 379.023L662.091 372.33C597.136 414.841 515.809 423.13 450.308 420.631C417.618 419.384 389.014 415.455 368.587 411.838C358.377 410.03 350.217 408.302 344.62 407.028C341.821 406.391 339.664 405.868 338.212 405.505C337.486 405.324 336.936 405.183 336.571 405.088C336.389 405.041 336.252 405.005 336.163 404.981C336.118 404.969 336.085 404.96 336.064 404.955C336.053 404.952 336.046 404.95 336.041 404.949C336.039 404.948 336.038 404.948 336.037 404.947C336.036 404.947 336.037 404.947 334.995 408.809ZM666.472 379.023C701.401 356.164 731.822 323.678 753.006 278.198L745.754 274.82C725.23 318.884 695.834 350.246 662.091 372.33L666.472 379.023ZM753.006 278.198C768.678 244.549 779.253 203.875 782.916 154.855L774.938 154.258C771.336 202.464 760.96 242.173 745.754 274.82L753.006 278.198ZM753.187 166.161L780.038 158.399L777.816 150.714L750.965 158.476L753.187 166.161ZM802.571 142.63L777.686 150.754L780.169 158.359L805.053 150.235L802.571 142.63ZM370.817 203.4C369.998 199.485 369.997 199.485 369.994 199.486C369.993 199.486 369.99 199.487 369.987 199.487C369.981 199.489 369.973 199.49 369.962 199.492C369.941 199.497 369.911 199.503 369.873 199.512C369.796 199.528 369.684 199.552 369.54 199.584C369.252 199.647 368.833 199.74 368.3 199.864C367.235 200.11 365.709 200.475 363.85 200.957C360.137 201.919 355.066 203.349 349.655 205.225C344.258 207.095 338.436 209.437 333.256 212.239C328.149 215.003 323.307 218.402 320.235 222.534C317.007 226.874 315.663 232.193 318.159 237.924C320.477 243.244 325.855 248.287 334.281 253.252C351.224 263.236 382.861 274.252 436.754 286.219L438.488 278.409C384.682 266.461 354.118 255.656 338.342 246.359C330.408 241.684 326.797 237.722 325.493 234.729C324.368 232.146 324.77 229.842 326.654 227.307C328.694 224.564 332.33 221.836 337.063 219.276C341.724 216.754 347.106 214.575 352.275 212.784C357.429 210.998 362.284 209.626 365.856 208.701C367.639 208.24 369.096 207.891 370.102 207.658C370.604 207.542 370.994 207.455 371.255 207.398C371.386 207.369 371.484 207.348 371.548 207.334C371.58 207.327 371.604 207.322 371.619 207.319C371.626 207.318 371.631 207.316 371.634 207.316C371.636 207.316 371.636 207.315 371.637 207.315C371.637 207.315 371.636 207.315 370.817 203.4ZM874.288 187.493C848.288 231.083 801.939 257.425 748.287 272.661L750.472 280.357C805.108 264.842 853.688 237.647 881.159 191.591L874.288 187.493ZM748.287 272.661C681.371 291.664 603.948 293.139 543.06 289.804C512.654 288.139 486.452 285.279 467.857 282.836C458.561 281.615 451.169 280.499 446.108 279.689C443.578 279.284 441.63 278.955 440.319 278.729C439.663 278.616 439.166 278.528 438.835 278.469C438.67 278.439 438.546 278.417 438.464 278.402C438.423 278.395 438.393 278.389 438.373 278.386C438.363 278.384 438.356 278.382 438.351 278.382C438.349 278.381 438.348 278.381 438.347 278.381C438.346 278.381 438.346 278.381 437.621 282.314C436.896 286.248 436.897 286.248 436.899 286.249C436.901 286.249 436.904 286.25 436.907 286.25C436.913 286.251 436.922 286.253 436.934 286.255C436.957 286.259 436.991 286.265 437.035 286.274C437.124 286.29 437.256 286.313 437.429 286.344C437.774 286.406 438.286 286.496 438.958 286.612C440.3 286.844 442.28 287.178 444.844 287.588C449.972 288.409 457.438 289.536 466.815 290.768C485.567 293.231 511.975 296.113 542.622 297.792C603.841 301.145 682.297 299.718 750.472 280.357L748.287 272.661ZM884.369 210.382L881.692 189.044L873.754 190.039L876.431 211.378L884.369 210.382ZM857.816 201.539L879.168 193.272L876.279 185.811L854.927 194.079L857.816 201.539Z" fill="#0074D9"/>
<path d="M221.668 113.886L208.918 111.536L200.344 89.3638L184.429 107.023L172.472 104.82L194.943 80.8837L183.292 52.3721L195.609 54.642L203.462 75.6764L218.082 58.7836L230.111 61.0004L208.768 84.0645L221.668 113.886Z" fill="#0074D9"/>
<path d="M312.151 130.561L299.402 128.212L290.827 106.039L274.912 123.698L262.955 121.495L285.426 97.5589L273.775 69.0473L286.092 71.3172L293.945 92.3516L308.565 75.4588L320.594 77.6756L299.251 100.74L312.151 130.561Z" fill="#0074D9"/>
<path d="M390.56 99.3951C386.359 98.6208 382.813 99.6059 379.924 102.35C377.04 105.071 375.077 109.252 374.038 114.895C371.874 126.635 375.198 133.318 384.009 134.942C387.707 135.623 392.355 135.524 397.954 134.644L396.228 144.008C391.575 145.012 386.583 145.023 381.252 144.041C373.593 142.629 368.162 139.233 364.958 133.851C361.759 128.445 360.96 121.397 362.562 112.705C363.571 107.231 365.45 102.625 368.2 98.8863C370.953 95.1239 374.393 92.4932 378.517 90.9941C382.669 89.4755 387.255 89.1786 392.273 90.1033C397.387 91.0458 402.297 93.2292 407.003 96.6536L401.729 105.066C399.933 103.766 398.103 102.585 396.238 101.521C394.374 100.458 392.481 99.7491 390.56 99.3951Z" fill="#0074D9"/>
<path d="M490.956 163.513L478.207 161.164L469.632 138.991L453.717 156.651L441.76 154.447L464.232 130.511L452.58 101.999L464.897 104.269L472.751 125.304L487.37 108.411L499.399 110.628L478.056 133.692L490.956 163.513Z" fill="#0074D9"/>
<path d="M581.439 180.189L568.69 177.839L560.116 155.666L544.2 173.326L532.243 171.122L554.715 147.186L543.063 118.675L555.38 120.945L563.234 141.979L577.853 125.086L589.882 127.303L568.54 150.367L581.439 180.189Z" fill="#0074D9"/>
<path d="M143.325 69.4516C140.072 87.1036 123.125 98.7763 105.473 95.5232C87.8209 92.2701 76.1483 75.3232 79.4014 57.6712C82.6545 40.0192 99.6016 28.3465 117.254 31.5996C134.906 34.8527 146.578 51.7996 143.325 69.4516Z" fill="#0074D9"/>
<path d="M381.883 325.427C378.63 343.079 361.683 354.752 344.031 351.499C326.379 348.246 314.706 331.299 317.959 313.647C321.212 295.995 338.159 284.322 355.811 287.575C373.463 290.828 385.136 307.775 381.883 325.427Z" fill="#0074D9"/>
<path d="M365.572 413.937C362.319 431.589 345.371 443.261 327.719 440.008C310.067 436.755 298.395 419.808 301.648 402.156C304.901 384.504 321.848 372.831 339.5 376.085C357.152 379.338 368.825 396.285 365.572 413.937Z" fill="#0074D9"/>
<path d="M1067.34 233.183C1064.08 250.835 1047.14 262.508 1029.49 259.255C1011.83 256.002 1000.16 239.055 1003.41 221.403C1006.67 203.751 1023.61 192.078 1041.27 195.331C1058.92 198.585 1070.59 215.531 1067.34 233.183Z" fill="#0074D9"/>
<path d="M132.67 67.4889C130.501 79.2569 119.203 87.0387 107.435 84.8699C95.6673 82.7012 87.8853 71.4033 90.054 59.6353C92.2228 47.8673 103.521 40.0855 115.289 42.2542C127.057 44.423 134.839 55.7209 132.67 67.4889Z" fill="#F4F4F4"/>
<path d="M354.918 411.974C352.75 423.742 341.452 431.524 329.684 429.355C317.916 427.187 310.134 415.889 312.303 404.121C314.471 392.353 325.77 384.571 337.537 386.74C349.305 388.908 357.087 400.206 354.918 411.974Z" fill="#F4F4F4"/>
<path d="M371.23 323.465C369.061 335.233 357.763 343.015 345.995 340.846C334.227 338.677 326.445 327.379 328.614 315.611C330.783 303.843 342.081 296.062 353.849 298.23C365.617 300.399 373.399 311.697 371.23 323.465Z" fill="#F4F4F4"/>
<path d="M1056.68 231.22C1054.51 242.988 1043.22 250.77 1031.45 248.601C1019.68 246.432 1011.9 235.134 1014.07 223.366C1016.24 211.598 1027.53 203.817 1039.3 205.985C1051.07 208.154 1058.85 219.452 1056.68 231.22Z" fill="#F4F4F4"/>
<path d="M395.143 206.518C394.002 212.712 391.939 217.707 388.956 221.501C386.001 225.277 382.22 227.745 377.611 228.906L387.68 245.396L373.382 242.762L365.907 229.17L365.079 229.017C357.012 227.531 351.249 224.048 347.79 218.57C344.331 213.091 343.409 205.97 345.024 197.207C346.639 188.443 350.032 182.155 355.204 178.341C360.403 174.508 367.049 173.337 375.14 174.829C383.231 176.32 388.985 179.788 392.4 185.234C395.839 190.683 396.754 197.778 395.143 206.518Z" fill="#0074D9"/>
<path d="M449.511 283.998C448.26 290.787 441.742 295.277 434.952 294.026C428.163 292.774 423.674 286.256 424.925 279.467C426.176 272.678 432.694 268.188 439.483 269.44C446.273 270.691 450.762 277.209 449.511 283.998Z" fill="#FF4136"/>
<path d="M602.259 395.235C604.465 395.109 606.151 393.219 606.025 391.014C605.899 388.808 604.009 387.122 601.803 387.248L602.259 395.235ZM600.607 366.282C602.812 366.157 604.498 364.267 604.372 362.061C604.247 359.855 602.357 358.17 600.151 358.295L600.607 366.282ZM632.211 393.526C634.417 393.4 636.102 391.51 635.977 389.305C635.851 387.099 633.961 385.413 631.755 385.539L632.211 393.526ZM630.559 364.573C632.764 364.447 634.45 362.557 634.324 360.352C634.198 358.146 632.308 356.46 630.103 356.586L630.559 364.573ZM286.149 257.615C286.554 259.786 288.642 261.219 290.814 260.815C292.986 260.41 294.418 258.322 294.014 256.15L286.149 257.615ZM314.659 252.305C315.064 254.477 317.152 255.91 319.324 255.505C321.496 255.101 322.928 253.012 322.524 250.841L314.659 252.305ZM280.657 228.122C281.061 230.294 283.15 231.726 285.322 231.322C287.493 230.917 288.926 228.829 288.522 226.657L280.657 228.122ZM309.167 222.812C309.571 224.984 311.66 226.417 313.831 226.012C316.003 225.608 317.436 223.52 317.031 221.348L309.167 222.812ZM520.975 403.987C518.803 404.391 517.37 406.479 517.774 408.651C518.178 410.823 520.266 412.256 522.438 411.852L520.975 403.987ZM526.278 432.498C524.106 432.902 522.673 434.99 523.077 437.162C523.481 439.334 525.569 440.767 527.741 440.363L526.278 432.498ZM550.469 398.501C548.297 398.905 546.864 400.993 547.268 403.165C547.672 405.337 549.76 406.77 551.932 406.366L550.469 398.501ZM555.772 427.012C553.6 427.416 552.167 429.504 552.571 431.676C552.975 433.848 555.063 435.281 557.235 434.877L555.772 427.012ZM601.803 387.248C597.027 387.521 593.737 386.196 591.644 384.405C589.524 382.591 588.373 380.085 588.226 377.506C588.079 374.928 588.937 372.307 590.837 370.263C592.713 368.246 595.831 366.555 600.607 366.282L600.151 358.295C593.612 358.669 588.451 361.081 584.978 364.816C581.531 368.523 579.973 373.302 580.239 377.962C580.505 382.622 582.597 387.192 586.443 390.484C590.318 393.799 595.721 395.609 602.259 395.235L601.803 387.248ZM631.755 385.539C626.979 385.812 623.689 384.486 621.596 382.696C619.475 380.881 618.325 378.375 618.178 375.797C618.031 373.218 618.889 370.598 620.789 368.554C622.664 366.537 625.782 364.846 630.559 364.573L630.103 356.586C623.564 356.959 618.402 359.372 614.93 363.106C611.483 366.814 609.925 371.593 610.191 376.253C610.457 380.912 612.548 385.483 616.395 388.774C620.27 392.09 625.672 393.899 632.211 393.526L631.755 385.539ZM294.014 256.15C293.138 251.447 294.036 248.015 295.546 245.713C297.077 243.379 299.417 241.92 301.956 241.447C304.496 240.975 307.204 241.493 309.472 243.119C311.711 244.724 313.783 247.602 314.659 252.305L322.524 250.841C321.325 244.402 318.278 239.588 314.133 236.617C310.018 233.668 305.08 232.728 300.492 233.583C295.903 234.437 291.635 237.091 288.858 241.324C286.06 245.588 284.95 251.176 286.149 257.615L294.014 256.15ZM288.522 226.657C287.646 221.954 288.543 218.522 290.054 216.22C291.585 213.886 293.925 212.427 296.464 211.954C299.003 211.482 301.711 212 303.98 213.626C306.218 215.231 308.291 218.109 309.167 222.812L317.031 221.348C315.832 214.909 312.785 210.095 308.64 207.124C304.526 204.175 299.588 203.235 294.999 204.09C290.411 204.944 286.142 207.598 283.365 211.831C280.568 216.095 279.458 221.683 280.657 228.122L288.522 226.657ZM522.438 411.852C527.141 410.977 530.573 411.875 532.875 413.387C535.208 414.918 536.667 417.258 537.139 419.798C537.611 422.337 537.092 425.045 535.466 427.313C533.861 429.551 530.981 431.623 526.278 432.498L527.741 440.363C534.18 439.165 538.995 436.119 541.967 431.975C544.917 427.861 545.858 422.923 545.004 418.335C544.151 413.746 541.498 409.477 537.265 406.699C533.002 403.9 527.414 402.789 520.975 403.987L522.438 411.852ZM551.932 406.366C556.635 405.491 560.067 406.39 562.369 407.901C564.703 409.432 566.161 411.773 566.633 414.312C567.105 416.851 566.586 419.559 564.96 421.827C563.355 424.065 560.475 426.137 555.772 427.012L557.235 434.877C563.674 433.679 568.489 430.633 571.461 426.489C574.411 422.375 575.352 417.438 574.498 412.849C573.645 408.26 570.992 403.991 566.759 401.213C562.496 398.415 556.908 397.303 550.469 398.501L551.932 406.366Z" fill="#FF4136"/>
</svg>
