<svg width="100" height="98" viewBox="0 0 100 98" fill="none" xmlns="http://www.w3.org/2000/svg" role="img" focusable="false">
<title>Link to adobe after effects (video editing/effect tool)</title>
<path d="M17.7083 0H82.2917C92.0833 0 100 7.91667 100 17.7083V79.7917C100 89.5833 92.0833 97.5 82.2917 97.5H17.7083C7.91667 97.5 0 89.5833 0 79.7917V17.7083C0 7.91667 7.91667 0 17.7083 0Z" fill="#00005B"/>
<path d="M40.1667 58.3335H24.6667L21.5001 68.1668C21.4167 68.5418 21.0834 68.7918 20.7084 68.7502H12.8751C12.4167 68.7502 12.2917 68.5002 12.4167 68.0002L25.8334 29.5418C25.9584 29.1252 26.0834 28.7502 26.2501 28.2502C26.4167 27.3752 26.5001 26.4585 26.5001 25.5418C26.4584 25.3335 26.6251 25.1252 26.8334 25.0835H26.9584H37.6251C37.9167 25.0835 38.1251 25.2085 38.1667 25.4168L53.3751 67.9168C53.5001 68.3752 53.3751 68.5835 52.9584 68.5835H44.2501C43.9584 68.6252 43.6667 68.4168 43.5834 68.1252L40.1667 58.1252V58.3335ZM27.0834 50.0418H37.6667C37.4167 49.1668 37.0834 48.1252 36.7084 47.0418C36.3334 45.9168 35.9584 44.7085 35.5834 43.4585C35.1667 42.1668 34.7917 40.9168 34.3751 39.6252C33.9584 38.3335 33.5834 37.1252 33.2501 35.9168C32.9167 34.7502 32.6251 33.6668 32.3334 32.6668H32.2501C31.8751 34.4585 31.4167 36.2502 30.8334 38.0418C30.2084 40.0418 29.5834 42.1252 28.9167 44.2085C28.3751 46.3335 27.7084 48.2918 27.0834 50.0418V50.0418Z" fill="#9999FF"/>
<path d="M77.9168 54.5832H64.7084C64.8751 55.8749 65.2917 57.1666 66.0001 58.2916C66.7501 59.4166 67.7917 60.2916 69.0417 60.7916C70.7084 61.4999 72.5418 61.8749 74.3751 61.8332C75.8334 61.7916 77.2917 61.6666 78.7084 61.3749C80.0001 61.2082 81.2501 60.8749 82.4168 60.4166C82.6251 60.2499 82.7501 60.3332 82.7501 60.7499V67.1249C82.7501 67.2916 82.7084 67.4582 82.6667 67.6249C82.5834 67.7499 82.5001 67.8332 82.3751 67.9166C81.0417 68.4999 79.6667 68.9166 78.2084 69.1666C76.2501 69.5416 74.2918 69.7082 72.2918 69.6666C69.1251 69.6666 66.4584 69.1666 64.2918 68.2082C62.2501 67.3332 60.4584 65.9582 59.0417 64.2499C57.7084 62.6249 56.7501 60.7916 56.1668 58.7916C55.5834 56.8332 55.2917 54.7916 55.2917 52.7082C55.2917 50.4582 55.6251 48.2499 56.3334 46.0832C57.0001 43.9999 58.0417 42.0832 59.4584 40.3749C60.8334 38.7082 62.5418 37.3749 64.5001 36.4166C66.4584 35.4582 68.7917 35.1249 71.4584 35.1249C73.6668 35.0832 75.8751 35.4999 77.9168 36.4166C79.6251 37.1666 81.1251 38.2916 82.2918 39.7499C83.3751 41.1666 84.2501 42.7499 84.7918 44.4999C85.3334 46.1666 85.5834 47.8749 85.5834 49.5832C85.5834 50.5832 85.5417 51.4582 85.5001 52.2499C85.4167 53.0416 85.3751 53.6249 85.3334 53.9999C85.2918 54.2916 85.0417 54.5416 84.7501 54.5416C84.5001 54.5416 84.0418 54.5832 83.3751 54.6249C82.7084 54.7082 81.9168 54.7499 80.9584 54.7499C80.0001 54.7499 79.0001 54.5832 77.9168 54.5832V54.5832ZM64.7084 48.4999H73.5001C74.5834 48.4999 75.3751 48.4999 75.8751 48.4582C76.2084 48.4166 76.5417 48.3332 76.8334 48.1249V47.7082C76.8334 47.1666 76.7501 46.6666 76.5834 46.1666C75.8334 43.8332 73.6251 42.2499 71.1668 42.3332C68.8751 42.2082 66.7084 43.4166 65.6251 45.4999C65.1251 46.4582 64.8334 47.4582 64.7084 48.4999Z" fill="#9999FF"/>
</svg>
