<svg width="100" height="98" viewBox="0 0 100 98" fill="none" xmlns="http://www.w3.org/2000/svg" role="img" focusable="false">
<title>Icon for adobe premiere</title>
<path d="M17.7083 0H82.2917C92.0833 0 100 7.91667 100 17.7083V79.7917C100 89.5833 92.0833 97.5 82.2917 97.5H17.7083C7.91667 97.5 0 89.5833 0 79.7917V17.7083C0 7.91667 7.91667 0 17.7083 0Z" fill="#00005B"/>
<path d="M23.75 68.333V25.4163C23.75 25.1247 23.875 24.958 24.1667 24.958C24.875 24.958 25.5417 24.958 26.5 24.9163C27.5 24.8747 28.5417 24.8747 29.6667 24.833C30.7917 24.7913 32 24.7913 33.2917 24.7497C34.5833 24.708 35.8333 24.708 37.0833 24.708C40.5 24.708 43.3333 25.1247 45.6667 25.9997C47.75 26.708 49.6667 27.8747 51.25 29.4163C52.5833 30.7497 53.625 32.3747 54.2917 34.1663C54.9167 35.9163 55.25 37.708 55.25 39.583C55.25 43.1663 54.4167 46.1247 52.75 48.458C51.0833 50.7913 48.75 52.5413 46.0417 53.5413C43.2083 54.583 40.0833 54.958 36.6667 54.958C35.6667 54.958 35 54.958 34.5833 54.9163C34.1667 54.8747 33.5833 54.8747 32.7917 54.8747V68.2497C32.8333 68.5413 32.625 68.7913 32.3333 68.833H32.1667H24.25C23.9167 68.833 23.75 68.6663 23.75 68.2913V68.333ZM32.8333 33.0413V47.0413C33.4167 47.083 33.9583 47.1247 34.4583 47.1247H36.6667C38.2917 47.1247 39.9167 46.8747 41.4583 46.3747C42.7917 45.9997 43.9583 45.208 44.875 44.1663C45.75 43.1247 46.1667 41.708 46.1667 39.8747C46.2083 38.583 45.875 37.2913 45.2083 36.1663C44.5 35.083 43.5 34.2497 42.2917 33.7913C40.75 33.1663 39.0833 32.9163 37.375 32.958C36.2917 32.958 35.3333 32.958 34.5417 32.9997C33.7083 32.958 33.125 32.9997 32.8333 33.0413V33.0413Z" fill="#9999FF"/>
<path d="M61.2501 35.4998H68.5418C68.9584 35.4998 69.2918 35.7914 69.4168 36.1664C69.5418 36.4998 69.6251 36.8331 69.6668 37.2081C69.7501 37.6248 69.8334 38.0831 69.8751 38.4998C69.9168 38.9581 69.9584 39.4581 69.9584 39.9998C71.2084 38.5414 72.7084 37.3331 74.4168 36.4164C76.3334 35.3331 78.5418 34.7914 80.7501 34.7914C81.0418 34.7498 81.2918 34.9581 81.3334 35.2498V35.4164V43.5414C81.3334 43.8748 81.1251 43.9998 80.6668 43.9998C79.1668 43.9581 77.6251 44.0831 76.1668 44.4164C74.9584 44.6664 73.7918 45.0414 72.6668 45.5414C71.8751 45.9164 71.1251 46.4164 70.5418 47.0831V68.3331C70.5418 68.7498 70.3751 68.9164 70.0001 68.9164H61.7918C61.4584 68.9581 61.1668 68.7498 61.1251 68.4164V68.2498V45.1664C61.1251 44.1664 61.1251 43.1248 61.0834 42.0414C61.0418 40.9581 61.0418 39.8748 61.0001 38.7914C61.0001 37.8331 60.9168 36.9164 60.8334 35.9581C60.7918 35.7498 60.9168 35.5414 61.1251 35.4998C61.1251 35.4581 61.2084 35.4581 61.2501 35.4998V35.4998Z" fill="#9999FF"/>
</svg>
