<svg id="code-bro" viewBox="0 0 576 316" fill="none" xmlns="http://www.w3.org/2000/svg" role="img" focusable="false">
<title>Two dimensional illustration of a guy programming on a laptop with a flower next to it</title>
<path d="M39.2543 308.018C39.2543 308.018 29.3808 174.021 21.623 140.874C13.8653 107.727 51.9488 100.675 106.958 96.443C161.968 92.2115 187.357 95.7378 199.346 103.496C211.335 111.253 216.653 202.837 224.735 235.377C232.817 267.918 238.84 310.134 238.84 310.134L39.2543 308.018Z" fill="#263238" stroke="#263238" stroke-linecap="round" stroke-linejoin="round"/>
<path d="M525.552 196.969C518.006 206.406 514.268 211.667 512.717 214.051C514.698 203.668 517.581 193.479 521.335 183.598C524.159 175.937 525.924 167.927 526.582 159.789L525.877 160.169L525.228 158.914C525.482 158.773 551.209 145.119 558.488 132.242L559.715 132.947C553.142 144.569 532.831 156.347 527.273 159.408C532.548 158.9 549.023 156.403 558.826 144.287C570.604 129.745 568.53 111.719 568.53 111.719C568.53 111.719 546.329 126.966 537.33 138.744C533.132 144.13 529.608 150.008 526.836 156.248C527.235 146.646 526.501 137.031 524.65 127.601C532.055 121.776 559.292 99.391 562.282 82.6061C565.752 63.2117 560.871 29.938 560.871 29.938C558.077 36.8417 554.835 43.5558 551.167 50.0376C544.933 61.1241 525.524 78.4592 522.054 97.1624C521.172 101.842 520.7 106.59 520.644 111.352C517.515 100.915 513.776 90.6714 509.445 80.6737C508.3 77.9974 507.357 75.2392 506.624 72.4222L506.017 72.0555C506.144 71.8439 518.641 50.7711 518.641 44.72H520.051C520.051 50.362 510.516 67.147 507.879 71.6606C512.237 69.0371 519.346 63.663 521.984 55.3129C525.961 42.9146 520.08 31.7434 520.08 31.7434C520.08 31.7434 509.543 47.2589 506.666 57.1324C505.305 61.6495 504.495 66.3144 504.254 71.0258C502.237 65.8916 499.148 58.9238 495.593 54.1986C489.359 45.8766 485.198 33.4078 485.198 33.4078C485.198 33.4078 477.581 46.5678 483.125 60.433C487.68 71.8157 500.643 76.1883 505.128 77.359C505.622 78.8682 506.172 80.3352 506.779 81.7457C512.846 95.4829 517.598 109.765 520.968 124.399C517.738 120.097 511.645 112.523 505.876 108.291C497.498 102.141 489.895 91.3653 489.895 91.3653C489.895 91.3653 486.425 106.176 495.749 117.84C503.365 127.361 516.906 127.827 521.645 127.714C524.847 144.499 525.214 162.017 519.783 178.943C519.431 175.657 517.456 166.714 506.567 156.714C492.829 144.019 465.338 103.679 465.338 103.679C465.338 103.679 467.524 151.368 480.699 167.039C492.772 181.412 515.566 180.565 519.318 180.326C519.064 181.073 518.81 181.821 518.528 182.568C509.854 205.884 508.02 222.231 507.808 230.878H491.588V306.424H536.639V230.92H510.827C510.996 225.992 511.505 221.081 512.35 216.223L511.885 216.35L511.504 214.939C511.786 214.869 540.01 206.913 559.743 186.616L560.759 187.59C544.834 203.98 523.479 212.414 515.284 215.207C523.437 214.206 543.339 211.201 552.578 205.221C564.369 197.604 574.765 174.726 574.765 174.726C574.765 174.726 536.639 183.104 525.552 196.969ZM504.113 74.2559C499.5 71.8045 495.487 68.3632 492.361 64.1787C489.235 59.9942 487.073 55.1699 486.03 50.0517L487.441 49.7696C488.428 54.6735 490.489 59.2977 493.477 63.3097C496.464 67.3217 500.304 70.6217 504.719 72.9723L504.113 74.2559ZM524.057 128.081L523.761 128.49L523.225 128.264C522.435 127.954 504 120.365 496.496 109.406L497.667 108.602C504.226 118.207 520.108 125.401 523.225 126.741C525.609 123.073 540.588 99.8283 545.793 85.2155L547.119 85.6951C541.421 101.69 524.241 127.784 524.057 128.052V128.081ZM517.498 179.804C517.287 179.733 495.311 171.453 485.522 152.468L486.778 151.833C496.313 170.325 517.809 178.407 517.992 178.492L517.498 179.804Z" fill="#263238"/>
<path d="M209.911 115.077C209.911 115.077 169.697 123.61 136.184 142.497C102.67 161.383 76.4773 176.617 76.4773 183.909C76.4773 191.201 63.0635 306.989 63.0635 306.989H367.732C367.732 306.989 337.871 243.009 333.005 215.589C328.139 188.169 322.638 170.453 306.798 152.836C290.958 135.219 244.637 112.651 209.911 115.077Z" fill="white"/>
<path d="M91.7954 226.718C96.309 223.502 105.336 247.988 107.903 242.233C110.47 236.478 91.7954 207.436 90.5118 197.097C89.2283 186.758 101.457 185.489 115.647 175.827C129.837 166.165 142.714 158.421 142.714 171.313C142.714 184.205 148.512 207.986 153.025 198.381C157.539 188.775 167.201 176.476 167.835 193.218C168.47 209.961 167.835 226.732 169.782 226.732C171.728 226.732 189.106 208.691 193.619 199.664C198.133 190.637 188.457 167.448 188.457 157.138C188.457 146.827 197.484 132.651 197.484 132.651L198.062 118.053C183.633 122.002 158.442 129.971 136.184 142.511C102.67 161.341 76.4773 176.617 76.4773 183.909C76.4773 191.201 63.0635 306.989 63.0635 306.989H79.7356C82.8387 278.314 88.6076 229.045 91.7954 226.718Z" fill="#FFDC00" fill-opacity="0.5"/>
<path d="M285.993 143.527C285.993 143.527 307.151 153.866 315.148 164.219C308.72 153.112 299.035 144.25 287.404 138.83L285.993 143.527Z" fill="#263238" stroke="#263238" stroke-linecap="round" stroke-linejoin="round"/>
<path d="M209.911 115.077C209.911 115.077 169.697 123.61 136.184 142.497C102.67 161.383 76.4773 176.617 76.4773 183.909C76.4773 191.201 63.0635 306.989 63.0635 306.989H367.732C367.732 306.989 337.871 243.009 333.005 215.589C328.139 188.169 322.638 170.453 306.798 152.836C290.958 135.219 244.637 112.651 209.911 115.077Z" stroke="#263238" stroke-linecap="round" stroke-linejoin="round"/>
<path d="M196.525 119.351C191.071 122.736 186.509 127.379 183.22 132.891C179.931 138.403 178.013 144.624 177.624 151.031C176.411 172.964 184.433 189.767 183.22 201.94C182.007 214.112 173.474 223.887 180.173 223.267C186.873 222.646 202.107 198.287 207.594 198.287C213.08 198.287 222.173 207.69 224.613 211.344C227.054 214.997 235.615 216.534 235.615 216.534C235.615 216.534 243.5 207.084 243.5 204.037C243.5 200.99 258.328 187.273 265 188.5C271.672 189.727 293.093 209.26 293.714 201.94C294.335 194.619 280.5 188.103 280.5 170.5C280.5 152.897 270.743 157.293 258.5 144.5C246.257 131.707 208.994 118.406 196.525 119.351Z" stroke="#263238" stroke-linecap="round" stroke-linejoin="round"/>
<path d="M201.589 119.505C196.906 130.68 194.425 142.653 194.282 154.768C194.282 174.035 212.008 183.205 216 192.5C219.992 201.795 234 211.5 234 211.5C234 211.5 239.735 192.554 245.716 180.593C251.697 168.632 251.5 164 251.5 164C251.5 164 230.8 160.085 220.165 143.484C209.53 126.882 201.589 119.505 201.589 119.505Z" stroke="#263238" stroke-linecap="round" stroke-linejoin="round"/>
<path d="M156.904 162.004C156.904 162.004 170.304 129.703 192.237 121.791" stroke="#263238" stroke-linecap="round" stroke-linejoin="round"/>
<path d="M99.0171 188.803C99.0171 188.803 117.354 218.664 119.737 244.25" stroke="#263238" stroke-linecap="round" stroke-linejoin="round"/>
<path d="M121.557 216.224C121.557 216.224 127.65 254.617 127.65 274.054C127.554 285.098 128.574 296.123 130.697 306.961" stroke="#263238" stroke-linecap="round" stroke-linejoin="round"/>
<path d="M127.044 265.577C130.488 250.593 132.127 235.251 131.924 219.877" stroke="#263238" stroke-linecap="round" stroke-linejoin="round"/>
<path d="M293.991 216.83C293.991 216.83 295.824 238.777 300.084 265.576C304.344 292.376 306.784 305.79 306.784 305.79" stroke="#263238" stroke-linecap="round" stroke-linejoin="round"/>
<path d="M194.607 268.807C194.607 268.807 181.701 295.085 179.796 298.907C177.892 302.73 175.015 309.415 175.015 309.415H197.936C197.936 309.415 210.827 300.811 212.266 300.332C213.705 299.852 221.815 300.332 227.542 297.948C233.269 295.564 239.009 289.344 244.736 287.919C250.463 286.495 258.107 284.097 260.505 284.097C262.903 284.097 271.014 286.481 276.261 286.481C281.508 286.481 288.208 281.234 283.976 278.85C279.745 276.466 276.331 277.891 270.604 275.027C264.878 272.164 262.96 271.205 257.233 272.206C251.506 273.208 246.725 269.823 232.874 266.959C219.023 264.096 203.197 263.08 194.607 268.807Z" fill="white" stroke="#263238" stroke-linecap="round" stroke-linejoin="round"/>
<path d="M234.608 254.138C234.608 254.138 242.126 247.734 248.304 250.823C254.482 253.912 251.619 273.8 253.171 281.755C254.722 289.71 256.485 293.9 252.508 294.351C248.53 294.802 246.978 291.699 243.889 284.633C240.8 277.566 234.608 254.138 234.608 254.138Z" fill="white" stroke="#263238" stroke-linecap="round" stroke-linejoin="round"/>
<path d="M216.272 258.116C216.272 258.116 226.216 249.272 230.631 249.272C235.046 249.272 238.586 264.957 241.915 271.84C245.244 278.723 250.124 286.876 248.093 289.048C246.062 291.22 241.901 292.137 238.36 288.385C234.82 284.633 227.076 268.06 224.89 265.408C222.225 262.743 219.342 260.303 216.272 258.116Z" fill="white" stroke="#263238" stroke-linecap="round" stroke-linejoin="round"/>
<path d="M206.102 261.204C206.102 261.204 206.765 258.115 216.272 258.115C225.779 258.115 233.946 271.374 239.686 274.463C245.427 277.552 243.664 278.878 239.475 280.867C235.286 282.855 232.62 280.655 224.227 276.014C215.835 271.374 206.102 261.204 206.102 261.204Z" fill="white" stroke="#263238" stroke-linecap="round" stroke-linejoin="round"/>
<path d="M195.552 283.138L202.251 272.15C205.365 272.764 208.301 274.07 210.841 275.972C214.184 278.793 220.391 284.576 228.035 284.576C235.68 284.576 238.064 282.193 235.201 279.795C232.337 277.397 223.733 273.109 217.527 268.807C211.321 264.505 206.539 257.354 201.772 258.778C197.004 260.203 193.704 269.287 188.4 281.234" fill="white"/>
<path d="M195.552 283.138L202.251 272.15C205.365 272.764 208.301 274.07 210.841 275.972C214.184 278.793 220.391 284.576 228.035 284.576C235.68 284.576 238.064 282.193 235.201 279.795C232.337 277.397 223.733 273.109 217.527 268.807C211.321 264.505 206.539 257.354 201.772 258.778C197.004 260.203 193.704 269.287 188.4 281.234" stroke="#263238" stroke-linecap="round" stroke-linejoin="round"/>
<path d="M302.44 72.7049C302.44 72.7049 300.592 99.998 297.644 109.589C294.696 119.181 290.591 148.703 281.776 161.609C272.96 174.515 261.493 185.587 248.572 186.335C235.652 187.082 218.331 164.19 208.359 149.436C198.387 134.682 197.301 119.928 193.972 105.541C190.643 91.1542 189.924 74.5103 195.086 61.6324C200.249 48.7546 226.117 32.8582 247.839 34.706C269.561 36.5537 296.896 47.9929 302.44 56.47C304.018 58.8828 304.86 61.7038 304.86 64.5874C304.86 67.471 304.018 70.292 302.44 72.7049Z" fill="white"/>
<path d="M195.115 61.6327C189.952 74.5528 190.686 91.1544 194 105.542C197.315 119.929 198.429 134.682 208.387 149.436C218.346 164.19 235.695 187.068 248.601 186.335C253.912 185.89 259.009 184.04 263.369 180.975L256.81 181.61C243.269 182.893 236.823 173.88 228.445 156.475C220.066 139.069 225.229 128.772 221.999 125.542C218.769 122.312 218.783 99.1238 218.783 99.1238C218.783 99.1238 221.364 88.813 222.648 85.0188C223.931 81.2245 237.472 75.9916 237.472 75.9916C237.472 75.9916 237.472 85.6535 246.753 84.9482C256.034 84.243 262.607 74.0592 262.607 74.0592L261.309 36.9207C256.883 35.9011 252.392 35.1848 247.867 34.7767C226.146 32.8585 200.249 48.7266 195.115 61.6327Z" fill="#FFDC00" fill-opacity="0.5"/>
<path d="M302.44 72.7049C302.44 72.7049 300.592 99.998 297.644 109.589C294.696 119.181 290.591 148.703 281.776 161.609C272.96 174.515 261.493 185.587 248.572 186.335C235.652 187.082 218.331 164.19 208.359 149.436C198.387 134.682 197.301 119.928 193.972 105.541C190.643 91.1542 189.924 74.5103 195.086 61.6324C200.249 48.7546 226.117 32.8582 247.839 34.706C269.561 36.5537 296.896 47.9929 302.44 56.47C304.018 58.8828 304.86 61.7038 304.86 64.5874C304.86 67.471 304.018 70.292 302.44 72.7049V72.7049Z" stroke="#263238" stroke-linecap="round" stroke-linejoin="round"/>
<path d="M265.174 109.223C265.174 109.223 265.541 128.039 275.132 132.834C275.449 132.95 275.736 133.135 275.972 133.377C276.207 133.618 276.385 133.91 276.492 134.23C276.599 134.55 276.633 134.89 276.59 135.225C276.548 135.559 276.43 135.88 276.246 136.163C275.132 138.744 266.655 140.211 260.731 135.782" stroke="#263238" stroke-linecap="round" stroke-linejoin="round"/>
<path d="M273.602 93C273.065 92.9997 272.541 92.876 272.103 92.6457C271.664 92.4155 271.332 92.09 271.152 91.7138C270.971 91.3376 270.951 90.9291 271.095 90.5441C271.238 90.1592 271.538 89.8166 271.953 89.5634C272.369 89.305 282.366 83.3103 298.263 87.4575C298.915 87.6288 299.448 87.9857 299.745 88.4497C300.043 88.9137 300.081 89.4467 299.851 89.9316C299.621 90.4164 299.142 90.8133 298.518 91.035C297.895 91.2567 297.179 91.285 296.528 91.1137C283.39 87.6771 275.337 92.509 275.268 92.5607C274.798 92.8473 274.209 93.0027 273.602 93V93Z" fill="#263238"/>
<path d="M255.744 90.3989C255.072 90.533 254.392 90.5674 253.772 90.4985C253.151 90.4296 252.614 90.2599 252.213 90.0065C251.729 89.7065 240.888 83.1748 223.028 88.0858C222.034 88.3584 220.984 88.4106 220.107 88.2311C219.229 88.0516 218.597 87.655 218.35 87.1283C218.11 86.5991 218.269 85.9853 218.795 85.4188C219.321 84.8523 220.17 84.3782 221.161 84.0983C244.169 77.7756 257.854 86.2207 258.431 86.5901C259.037 86.9736 259.291 87.5211 259.137 88.1123C258.983 88.7035 258.434 89.2902 257.61 89.7434C257.063 90.043 256.419 90.2693 255.744 90.3989V90.3989Z" fill="#263238"/>
<path d="M257.388 156.052H263.355" stroke="#263238" stroke-linecap="round" stroke-linejoin="round"/>
<path d="M203.197 18.8804C203.197 18.8804 179.218 26.6382 177.371 36.2296C175.523 45.821 187.71 79.3909 187.343 83.439C186.976 87.4872 183.281 90.8301 187.343 96.726C191.405 102.622 198.768 111.48 201.73 106.684C204.692 101.888 200.616 94.8782 205.411 91.9303C210.207 88.9823 216.85 84.1866 213.155 77.9099C209.459 71.6332 211.321 62.3944 219.065 61.3083C226.809 60.2222 233.452 55.0457 229.39 60.9416C225.328 66.8375 213.536 81.2387 219.798 82.3389C226.061 83.4391 250.829 66.8234 250.829 66.8234C250.829 66.8234 242.366 83.7494 246.767 84.8919C251.168 86.0344 285.88 63.1278 285.88 63.1278C285.88 63.1278 302.482 84.8919 305.797 83.4108C309.111 81.9298 306.911 69.7713 306.911 69.7713C306.911 69.7713 309.492 86.0062 314.655 86.6973C319.817 87.3885 326.827 78.5728 324.613 73.0436C322.398 67.5145 318.674 59.785 318.674 59.785C318.674 59.785 326.051 57.9372 328.999 54.6084C331.947 51.2796 331.581 50.927 325.304 49.8127C319.027 48.6984 314.245 41.7023 308.378 35.4256C302.51 29.1489 292.862 20.6718 292.862 20.6718C292.862 20.6718 303.921 25.4675 298.025 19.9383C292.129 14.4092 260.759 1.8557 243.791 1.8557C226.823 1.8557 220.504 10.7278 220.504 10.7278C220.504 10.7278 223.452 -0.344675 220.123 1.13635C216.794 2.61738 213.07 11.4612 213.07 11.4612C213.07 11.4612 205.327 9.24672 201.279 11.842C197.23 14.4374 196.102 17.0045 199.431 17.0045C201.3 16.9795 203.162 17.2266 204.96 17.7379L203.197 18.8804Z" fill="#263238"/>
<path opacity="0.2" d="M201.73 106.641C204.678 101.845 200.615 94.8352 205.411 91.8873C210.207 88.9393 216.85 84.1436 213.155 77.8669C209.459 71.5902 211.321 62.3514 219.065 61.2653C224.89 60.4331 230.095 57.3018 230.589 58.3315C233.085 54.8899 234.157 52.2663 230.589 53.3242C223.734 55.3835 202.491 58.811 204.537 65.6661C206.582 72.5211 207.964 75.9345 202.491 77.9939C197.019 80.0532 197.005 84.8489 197.005 90.3357C197.005 95.0186 194.79 102.79 194.184 104.948C197.16 107.741 200.108 109.279 201.73 106.641Z" fill="white"/>
<path opacity="0.2" d="M306.868 69.757L307.348 76.6261C307.348 76.6261 307.447 77.0352 307.574 77.7122C307.564 75.1739 307.347 72.6407 306.925 70.1378C307.362 72.578 309.915 86.0482 314.612 86.7253C319.774 87.4587 326.785 78.6008 324.57 73.0716C324.091 71.8868 323.541 70.5892 322.99 69.2915C321.284 71.9573 318.942 74.5668 316.262 74.5668C310.775 74.5668 306.868 69.757 306.868 69.757Z" fill="white"/>
<path opacity="0.2" d="M299.576 79.2637C295.034 69.0517 290.055 55.8071 287.474 51.9564C283.369 45.7925 268.968 68.4028 256.641 75.9349C251.605 79.0098 247.98 80.3498 245.681 80.378C245.23 82.7335 245.385 84.6095 246.725 84.8775C251.154 85.9918 285.838 63.1135 285.838 63.1135C290.131 68.7344 294.716 74.1252 299.576 79.2637V79.2637Z" fill="#C4C4C4"/>
<path opacity="0.2" d="M218.345 78.3039C217.668 80.4338 217.922 81.9571 219.756 82.2957C224.495 83.1278 239.728 73.8327 246.922 69.2908C250.998 64.2836 256.048 61.1946 256.598 56.7515C257.275 51.2646 231.209 73.1979 222.337 77.3166C221.122 78.0054 219.741 78.347 218.345 78.3039Z" fill="white"/>
<path d="M203.197 18.8804C203.197 18.8804 179.218 26.6382 177.371 36.2296C175.523 45.821 187.71 79.3909 187.343 83.4391C186.976 87.4872 183.281 90.8301 187.343 96.726C191.405 102.622 198.768 111.48 201.73 106.684C204.692 101.888 200.616 94.8782 205.411 91.9303C210.207 88.9823 216.85 84.1866 213.155 77.9099C209.459 71.6332 211.321 62.3944 219.065 61.3083C226.809 60.2222 233.452 55.0457 229.39 60.9416C225.328 66.8375 213.536 81.2387 219.798 82.3389C226.061 83.4391 250.829 66.8234 250.829 66.8234C250.829 66.8234 242.366 83.7494 246.767 84.8919C251.168 86.0344 285.88 63.1278 285.88 63.1278C285.88 63.1278 302.482 84.8919 305.797 83.4108C309.111 81.9298 306.911 69.7713 306.911 69.7713C306.911 69.7713 309.492 86.0062 314.655 86.6973C319.817 87.3884 326.827 78.5728 324.613 73.0436C322.398 67.5145 318.674 59.785 318.674 59.785C318.674 59.785 326.051 57.9372 328.999 54.6084C331.947 51.2796 331.581 50.927 325.304 49.8127C319.027 48.6984 314.245 41.7023 308.378 35.4256C302.51 29.1489 292.862 20.6718 292.862 20.6718C292.862 20.6718 303.921 25.4675 298.025 19.9383C292.129 14.4092 260.759 1.8557 243.791 1.8557C226.823 1.8557 220.504 10.7278 220.504 10.7278C220.504 10.7278 223.452 -0.344675 220.123 1.13635C216.794 2.61738 213.07 11.4612 213.07 11.4612C213.07 11.4612 205.327 9.24672 201.279 11.842C197.23 14.4374 196.102 17.0045 199.431 17.0045C201.3 16.9795 203.162 17.2266 204.96 17.7379L203.197 18.8804Z" stroke="#263238" stroke-linecap="round" stroke-linejoin="round"/>
<path d="M257.727 94.652C257.727 94.652 252.339 88.8548 237.839 89.2638C223.339 89.6729 212.972 92.1695 210.08 93.8339C207.189 95.4983 208.839 97.5576 209.657 100.463C210.475 103.369 212.563 117.022 215.877 122.411C219.192 127.799 227.895 132.355 233.692 132.355C239.489 132.355 242.804 131.113 249.024 126.557C255.244 122.002 259.377 105.4 259.8 104.187C260.223 102.974 259.8 100.463 263.933 101.704C268.066 102.946 268.489 121.169 269.744 124.907C271 128.645 279.265 133.596 285.894 133.596C292.524 133.596 298.744 130.281 304.132 120.76C307.35 115.103 308.656 108.558 307.856 102.099C307.856 102.099 313.653 97.5435 309.097 95.8791C304.541 94.2147 288.871 89.8703 278.856 92.9876C266.839 96.7254 260.618 95.8932 257.727 94.652Z" fill="#263238"/>
<path d="M212.153 94.2437L184.381 97.9674V101.282L211.73 99.6318C211.73 99.6318 209.22 95.4849 212.153 94.2437Z" fill="#263238"/>
<path d="M285.88 129.562C277.756 129.562 273.609 125.246 272.706 117.756C271.62 108.785 270.661 102.537 267.84 99.5323C271.989 99.0396 276.08 98.142 280.055 96.8524C282.382 96.2067 284.791 95.9027 287.206 95.9497C293.363 96.1201 299.47 97.1212 305.359 98.9258L303.455 100.449L303.878 102.833C304.486 108.357 303.342 113.934 300.606 118.772C295.147 128.448 289.618 129.562 285.88 129.562ZM233.692 128.321C229.46 128.321 221.97 124.611 219.319 120.295C217.189 116.853 215.412 108.136 214.452 103.468C214.072 101.578 213.789 100.209 213.55 99.3489C213.31 98.4885 213.112 98.009 212.887 97.3884L212.76 97.0357C216.018 95.6252 225.243 93.6787 237.951 93.312H239.362C250.491 93.312 254.779 97.3742 254.877 97.4166L255.456 98.0513L256.245 98.3898C256.786 98.6101 257.336 98.8031 257.896 98.9681C256.933 100.014 256.308 101.327 256.104 102.734V103.002C256.104 103.073 255.978 103.411 255.836 103.919C251.718 118.461 248.149 122.326 246.795 123.313C240.772 127.587 238.262 128.321 233.692 128.321Z" fill="#FFDC00"/>
<path d="M223.931 100.054H221.801C221.664 100.05 221.533 99.9944 221.436 99.8972C221.339 99.8001 221.283 99.6694 221.279 99.5321C221.279 99.3937 221.334 99.261 221.432 99.1631C221.53 99.0652 221.663 99.0103 221.801 99.0103H223.931C224 99.0103 224.067 99.0238 224.131 99.05C224.194 99.0762 224.252 99.1147 224.3 99.1631C224.349 99.2116 224.387 99.2691 224.413 99.3325C224.439 99.3958 224.453 99.4636 224.453 99.5321C224.449 99.6694 224.393 99.8001 224.296 99.8972C224.199 99.9944 224.068 100.05 223.931 100.054ZM224.453 101.958C224.453 101.89 224.439 101.822 224.413 101.758C224.387 101.695 224.349 101.638 224.3 101.589C224.252 101.541 224.194 101.502 224.131 101.476C224.067 101.45 224 101.436 223.931 101.436H221.801C221.663 101.436 221.53 101.491 221.432 101.589C221.334 101.687 221.279 101.82 221.279 101.958C221.283 102.095 221.339 102.226 221.436 102.323C221.533 102.42 221.664 102.477 221.801 102.48H223.931C224.068 102.477 224.199 102.42 224.296 102.323C224.393 102.226 224.449 102.095 224.453 101.958ZM224.453 104.384C224.449 104.247 224.393 104.116 224.296 104.019C224.199 103.922 224.068 103.866 223.931 103.862H221.801C221.664 103.866 221.533 103.922 221.436 104.019C221.339 104.116 221.283 104.247 221.279 104.384C221.279 104.523 221.334 104.655 221.432 104.753C221.53 104.851 221.663 104.906 221.801 104.906H223.931C224 104.906 224.067 104.893 224.131 104.866C224.194 104.84 224.252 104.802 224.3 104.753C224.349 104.705 224.387 104.647 224.413 104.584C224.439 104.521 224.453 104.453 224.453 104.384ZM224.453 106.81C224.449 106.673 224.393 106.542 224.296 106.445C224.199 106.348 224.068 106.292 223.931 106.288H221.801C221.664 106.292 221.533 106.348 221.436 106.445C221.339 106.542 221.283 106.673 221.279 106.81C221.279 106.949 221.334 107.081 221.432 107.179C221.53 107.277 221.663 107.332 221.801 107.332H223.931C224 107.332 224.067 107.319 224.131 107.292C224.194 107.266 224.252 107.228 224.3 107.179C224.349 107.131 224.387 107.073 224.413 107.01C224.439 106.947 224.453 106.879 224.453 106.81ZM224.453 109.236C224.449 109.099 224.393 108.968 224.296 108.871C224.199 108.774 224.068 108.718 223.931 108.715H221.801C221.664 108.718 221.533 108.774 221.436 108.871C221.339 108.968 221.283 109.099 221.279 109.236C221.279 109.375 221.334 109.508 221.432 109.605C221.53 109.703 221.663 109.758 221.801 109.758H223.931C224 109.758 224.067 109.745 224.131 109.719C224.194 109.692 224.252 109.654 224.3 109.605C224.349 109.557 224.387 109.499 224.413 109.436C224.439 109.373 224.453 109.305 224.453 109.236ZM224.453 111.662C224.449 111.525 224.393 111.394 224.296 111.297C224.199 111.2 224.068 111.144 223.931 111.141H221.801C221.664 111.144 221.533 111.2 221.436 111.297C221.339 111.394 221.283 111.525 221.279 111.662C221.279 111.801 221.334 111.934 221.432 112.031C221.53 112.129 221.663 112.184 221.801 112.184H223.931C224 112.184 224.067 112.171 224.131 112.145C224.194 112.118 224.252 112.08 224.3 112.031C224.349 111.983 224.387 111.925 224.413 111.862C224.439 111.799 224.453 111.731 224.453 111.662ZM224.453 114.089C224.449 113.951 224.393 113.821 224.296 113.723C224.199 113.626 224.068 113.57 223.931 113.567H221.801C221.676 113.587 221.562 113.652 221.479 113.749C221.397 113.845 221.352 113.968 221.352 114.096C221.352 114.223 221.397 114.346 221.479 114.443C221.562 114.539 221.676 114.604 221.801 114.625H223.931C224.071 114.621 224.203 114.563 224.301 114.463C224.398 114.362 224.453 114.228 224.453 114.089ZM224.453 116.515C224.449 116.377 224.393 116.247 224.296 116.15C224.199 116.052 224.068 115.996 223.931 115.993H221.801C221.676 116.013 221.562 116.078 221.479 116.175C221.397 116.271 221.352 116.395 221.352 116.522C221.352 116.649 221.397 116.772 221.479 116.869C221.562 116.966 221.676 117.03 221.801 117.051H223.931C224.071 117.047 224.203 116.989 224.301 116.889C224.398 116.789 224.453 116.654 224.453 116.515ZM232.394 99.5886C232.396 99.5195 232.384 99.4508 232.358 99.3866C232.333 99.3224 232.294 99.2641 232.246 99.2152C232.197 99.1663 232.138 99.128 232.074 99.1025C232.01 99.0769 231.941 99.0647 231.872 99.0667H226.301C226.232 99.0647 226.163 99.0769 226.099 99.1025C226.034 99.128 225.976 99.1663 225.927 99.2152C225.878 99.2641 225.84 99.3224 225.815 99.3866C225.789 99.4508 225.777 99.5195 225.779 99.5886C225.779 99.727 225.834 99.8597 225.932 99.9576C226.03 100.055 226.162 100.11 226.301 100.11H231.872C231.946 100.111 232.019 100.096 232.086 100.066C232.153 100.036 232.213 99.9928 232.263 99.9382C232.312 99.8836 232.349 99.8192 232.372 99.7492C232.394 99.6792 232.402 99.6053 232.394 99.5321V99.5886ZM232.394 102.015C232.396 101.946 232.384 101.877 232.358 101.813C232.333 101.748 232.294 101.69 232.246 101.641C232.197 101.592 232.138 101.554 232.074 101.529C232.01 101.503 231.941 101.491 231.872 101.493H226.301C226.232 101.491 226.163 101.503 226.099 101.529C226.034 101.554 225.976 101.592 225.927 101.641C225.878 101.69 225.84 101.748 225.815 101.813C225.789 101.877 225.777 101.946 225.779 102.015C225.779 102.153 225.834 102.286 225.932 102.384C226.03 102.482 226.162 102.537 226.301 102.537H231.872C231.946 102.537 232.019 102.522 232.086 102.492C232.153 102.462 232.213 102.419 232.263 102.364C232.312 102.31 232.349 102.245 232.372 102.175C232.394 102.105 232.402 102.031 232.394 101.958V102.015ZM232.394 104.441C232.394 104.302 232.339 104.17 232.241 104.072C232.143 103.974 232.011 103.919 231.872 103.919H226.301C226.162 103.919 226.03 103.974 225.932 104.072C225.834 104.17 225.779 104.302 225.779 104.441C225.777 104.51 225.789 104.579 225.815 104.643C225.84 104.707 225.878 104.765 225.927 104.814C225.976 104.863 226.034 104.901 226.099 104.927C226.163 104.952 226.232 104.965 226.301 104.963H231.872C231.946 104.965 232.02 104.952 232.089 104.923C232.157 104.894 232.218 104.85 232.268 104.795C232.318 104.74 232.355 104.675 232.377 104.604C232.399 104.533 232.404 104.458 232.394 104.384V104.441ZM232.394 106.867C232.394 106.728 232.339 106.596 232.241 106.498C232.143 106.4 232.011 106.345 231.872 106.345H226.301C226.162 106.345 226.03 106.4 225.932 106.498C225.834 106.596 225.779 106.728 225.779 106.867C225.777 106.936 225.789 107.005 225.815 107.069C225.84 107.133 225.878 107.191 225.927 107.24C225.976 107.289 226.034 107.327 226.099 107.353C226.163 107.378 226.232 107.391 226.301 107.389H231.872C231.946 107.391 232.02 107.378 232.089 107.349C232.157 107.32 232.218 107.277 232.268 107.221C232.318 107.166 232.355 107.101 232.377 107.03C232.399 106.959 232.404 106.884 232.394 106.81V106.867ZM232.394 109.293C232.394 109.154 232.339 109.022 232.241 108.924C232.143 108.826 232.011 108.771 231.872 108.771H226.301C226.162 108.771 226.03 108.826 225.932 108.924C225.834 109.022 225.779 109.154 225.779 109.293C225.777 109.362 225.789 109.431 225.815 109.495C225.84 109.559 225.878 109.617 225.927 109.666C225.976 109.715 226.034 109.753 226.099 109.779C226.163 109.804 226.232 109.817 226.301 109.815H231.872C231.946 109.817 232.02 109.804 232.089 109.775C232.157 109.746 232.218 109.703 232.268 109.647C232.318 109.592 232.355 109.527 232.377 109.456C232.399 109.385 232.404 109.31 232.394 109.236V109.293ZM239.08 111.719C239.076 111.579 239.018 111.446 238.918 111.349C238.818 111.251 238.684 111.197 238.544 111.197H232.972C232.835 111.201 232.704 111.257 232.607 111.354C232.51 111.451 232.454 111.582 232.45 111.719C232.45 111.857 232.505 111.99 232.603 112.088C232.701 112.186 232.834 112.241 232.972 112.241H238.544C238.619 112.243 238.693 112.23 238.762 112.201C238.831 112.172 238.893 112.129 238.944 112.074C238.995 112.019 239.033 111.954 239.057 111.883C239.08 111.812 239.088 111.737 239.08 111.662V111.719ZM239.08 114.145C239.076 114.005 239.018 113.873 238.918 113.775C238.818 113.678 238.684 113.623 238.544 113.623H232.972C232.847 113.644 232.733 113.708 232.651 113.805C232.568 113.902 232.523 114.025 232.523 114.152C232.523 114.279 232.568 114.402 232.651 114.499C232.733 114.596 232.847 114.66 232.972 114.681H238.544C238.619 114.681 238.694 114.666 238.763 114.635C238.832 114.605 238.894 114.56 238.944 114.505C238.995 114.449 239.033 114.383 239.056 114.311C239.08 114.239 239.088 114.163 239.08 114.089V114.145ZM239.08 116.571C239.076 116.431 239.018 116.299 238.918 116.201C238.818 116.104 238.684 116.049 238.544 116.049H232.972C232.847 116.07 232.733 116.134 232.651 116.231C232.568 116.328 232.523 116.451 232.523 116.578C232.523 116.705 232.568 116.828 232.651 116.925C232.733 117.022 232.847 117.086 232.972 117.107H238.544C238.619 117.107 238.694 117.092 238.763 117.062C238.832 117.031 238.894 116.987 238.944 116.931C238.995 116.875 239.033 116.809 239.056 116.737C239.08 116.665 239.088 116.59 239.08 116.515V116.571ZM234.848 99.645C234.848 99.4841 234.784 99.3298 234.671 99.2161C234.557 99.1024 234.403 99.0385 234.242 99.0385C234.081 99.0385 233.927 99.1024 233.813 99.2161C233.699 99.3298 233.635 99.4841 233.635 99.645C233.635 99.8059 233.699 99.9601 233.813 100.074C233.927 100.188 234.081 100.252 234.242 100.252C234.332 100.253 234.421 100.235 234.503 100.197C234.585 100.16 234.658 100.105 234.716 100.036C234.774 99.9671 234.816 99.8862 234.839 99.799C234.862 99.7119 234.865 99.6207 234.848 99.5321V99.645ZM236.668 99.645C236.668 99.4841 236.604 99.3298 236.49 99.2161C236.376 99.1024 236.222 99.0385 236.061 99.0385C235.9 99.0385 235.746 99.1024 235.632 99.2161C235.519 99.3298 235.455 99.4841 235.455 99.645C235.455 99.8059 235.519 99.9601 235.632 100.074C235.746 100.188 235.9 100.252 236.061 100.252C236.151 100.253 236.241 100.235 236.323 100.197C236.405 100.16 236.478 100.105 236.536 100.036C236.594 99.9671 236.636 99.8862 236.659 99.799C236.681 99.7119 236.685 99.6207 236.668 99.5321V99.645ZM238.487 99.645C238.487 99.4841 238.423 99.3298 238.31 99.2161C238.196 99.1024 238.042 99.0385 237.881 99.0385C237.72 99.0385 237.566 99.1024 237.452 99.2161C237.338 99.3298 237.274 99.4841 237.274 99.645C237.274 99.8059 237.338 99.9601 237.452 100.074C237.566 100.188 237.72 100.252 237.881 100.252C237.971 100.253 238.06 100.235 238.142 100.197C238.224 100.16 238.297 100.105 238.355 100.036C238.413 99.9671 238.455 99.8862 238.478 99.799C238.501 99.7119 238.504 99.6207 238.487 99.5321V99.645ZM240.321 99.645C240.324 99.5217 240.29 99.4003 240.223 99.2964C240.157 99.1925 240.061 99.1108 239.948 99.0617C239.835 99.0125 239.71 98.9982 239.588 99.0205C239.467 99.0428 239.355 99.1008 239.267 99.187C239.179 99.2732 239.118 99.3837 239.093 99.5045C239.068 99.6253 239.079 99.7508 239.126 99.865C239.172 99.9792 239.252 100.077 239.354 100.146C239.457 100.215 239.577 100.251 239.7 100.252C239.791 100.253 239.881 100.234 239.963 100.197C240.046 100.16 240.119 100.105 240.178 100.036C240.237 99.9678 240.281 99.8872 240.305 99.8001C240.33 99.713 240.335 99.6215 240.321 99.5321V99.645ZM242.141 99.645C242.141 99.4841 242.077 99.3298 241.963 99.2161C241.849 99.1024 241.695 99.0385 241.534 99.0385C241.373 99.0385 241.219 99.1024 241.105 99.2161C240.991 99.3298 240.928 99.4841 240.928 99.645C240.928 99.8059 240.991 99.9601 241.105 100.074C241.219 100.188 241.373 100.252 241.534 100.252C241.624 100.253 241.713 100.235 241.796 100.197C241.878 100.16 241.95 100.105 242.008 100.036C242.066 99.9671 242.108 99.8862 242.131 99.799C242.154 99.7119 242.157 99.6207 242.141 99.5321V99.645ZM243.96 99.645C243.96 99.4841 243.896 99.3298 243.782 99.2161C243.669 99.1024 243.514 99.0385 243.354 99.0385C243.193 99.0385 243.039 99.1024 242.925 99.2161C242.811 99.3298 242.747 99.4841 242.747 99.645C242.747 99.8059 242.811 99.9601 242.925 100.074C243.039 100.188 243.193 100.252 243.354 100.252C243.444 100.253 243.533 100.235 243.615 100.197C243.697 100.16 243.77 100.105 243.828 100.036C243.886 99.9671 243.928 99.8862 243.951 99.799C243.974 99.7119 243.977 99.6207 243.96 99.5321V99.645ZM234.848 104.497C234.848 104.336 234.784 104.182 234.671 104.068C234.557 103.954 234.403 103.891 234.242 103.891C234.081 103.891 233.927 103.954 233.813 104.068C233.699 104.182 233.635 104.336 233.635 104.497C233.635 104.658 233.699 104.812 233.813 104.926C233.927 105.04 234.081 105.104 234.242 105.104C234.332 105.105 234.421 105.087 234.503 105.049C234.585 105.012 234.658 104.957 234.716 104.888C234.774 104.819 234.816 104.738 234.839 104.651C234.862 104.564 234.865 104.473 234.848 104.384V104.497ZM236.668 104.497C236.668 104.336 236.604 104.182 236.49 104.068C236.376 103.954 236.222 103.891 236.061 103.891C235.9 103.891 235.746 103.954 235.632 104.068C235.519 104.182 235.455 104.336 235.455 104.497C235.455 104.658 235.519 104.812 235.632 104.926C235.746 105.04 235.9 105.104 236.061 105.104C236.151 105.105 236.241 105.087 236.323 105.049C236.405 105.012 236.478 104.957 236.536 104.888C236.594 104.819 236.636 104.738 236.659 104.651C236.681 104.564 236.685 104.473 236.668 104.384V104.497ZM238.487 104.497C238.487 104.336 238.423 104.182 238.31 104.068C238.196 103.954 238.042 103.891 237.881 103.891C237.72 103.891 237.566 103.954 237.452 104.068C237.338 104.182 237.274 104.336 237.274 104.497C237.274 104.658 237.338 104.812 237.452 104.926C237.566 105.04 237.72 105.104 237.881 105.104C237.971 105.105 238.06 105.087 238.142 105.049C238.224 105.012 238.297 104.957 238.355 104.888C238.413 104.819 238.455 104.738 238.478 104.651C238.501 104.564 238.504 104.473 238.487 104.384V104.497ZM240.321 104.497C240.324 104.374 240.29 104.252 240.223 104.149C240.157 104.045 240.061 103.963 239.948 103.914C239.835 103.865 239.71 103.85 239.588 103.873C239.467 103.895 239.355 103.953 239.267 104.039C239.179 104.125 239.118 104.236 239.093 104.357C239.068 104.477 239.079 104.603 239.126 104.717C239.172 104.831 239.252 104.929 239.354 104.998C239.457 105.067 239.577 105.104 239.7 105.104C239.791 105.105 239.881 105.086 239.963 105.049C240.046 105.012 240.119 104.957 240.178 104.888C240.237 104.82 240.281 104.739 240.305 104.652C240.33 104.565 240.335 104.474 240.321 104.384V104.497ZM242.141 104.497C242.141 104.336 242.077 104.182 241.963 104.068C241.849 103.954 241.695 103.891 241.534 103.891C241.373 103.891 241.219 103.954 241.105 104.068C240.991 104.182 240.928 104.336 240.928 104.497C240.928 104.658 240.991 104.812 241.105 104.926C241.219 105.04 241.373 105.104 241.534 105.104C241.624 105.105 241.713 105.087 241.796 105.049C241.878 105.012 241.95 104.957 242.008 104.888C242.066 104.819 242.108 104.738 242.131 104.651C242.154 104.564 242.157 104.473 242.141 104.384V104.497ZM243.96 104.497C243.96 104.336 243.896 104.182 243.782 104.068C243.669 103.954 243.514 103.891 243.354 103.891C243.193 103.891 243.039 103.954 242.925 104.068C242.811 104.182 242.747 104.336 242.747 104.497C242.747 104.658 242.811 104.812 242.925 104.926C243.039 105.04 243.193 105.104 243.354 105.104C243.444 105.105 243.533 105.087 243.615 105.049C243.697 105.012 243.77 104.957 243.828 104.888C243.886 104.819 243.928 104.738 243.951 104.651C243.974 104.564 243.977 104.473 243.96 104.384V104.497ZM241.139 111.479C241.139 111.359 241.104 111.242 241.037 111.142C240.97 111.042 240.876 110.965 240.765 110.919C240.654 110.873 240.532 110.861 240.414 110.884C240.297 110.908 240.189 110.965 240.104 111.05C240.019 111.135 239.961 111.243 239.938 111.361C239.914 111.478 239.926 111.6 239.972 111.711C240.018 111.822 240.096 111.917 240.196 111.983C240.295 112.05 240.413 112.086 240.533 112.086C240.617 112.077 240.698 112.052 240.772 112.01C240.845 111.969 240.909 111.912 240.96 111.844C241.01 111.777 241.046 111.699 241.065 111.617C241.083 111.534 241.085 111.449 241.069 111.366L241.139 111.479ZM242.959 111.479C242.959 111.318 242.895 111.164 242.781 111.05C242.667 110.936 242.513 110.873 242.352 110.873C242.191 110.873 242.037 110.936 241.923 111.05C241.81 111.164 241.746 111.318 241.746 111.479C241.746 111.64 241.81 111.794 241.923 111.908C242.037 112.022 242.191 112.086 242.352 112.086C242.436 112.077 242.518 112.052 242.591 112.01C242.665 111.969 242.729 111.912 242.779 111.844C242.83 111.777 242.865 111.699 242.884 111.617C242.903 111.534 242.904 111.449 242.888 111.366L242.959 111.479ZM244.778 111.479C244.778 111.318 244.714 111.164 244.601 111.05C244.487 110.936 244.333 110.873 244.172 110.873C244.011 110.873 243.857 110.936 243.743 111.05C243.629 111.164 243.565 111.318 243.565 111.479C243.565 111.64 243.629 111.794 243.743 111.908C243.857 112.022 244.011 112.086 244.172 112.086C244.256 112.077 244.337 112.052 244.411 112.01C244.484 111.969 244.548 111.912 244.599 111.844C244.649 111.777 244.685 111.699 244.704 111.617C244.722 111.534 244.724 111.449 244.708 111.366L244.778 111.479ZM246.598 111.479C246.598 111.318 246.534 111.164 246.42 111.05C246.306 110.936 246.152 110.873 245.991 110.873C245.83 110.873 245.676 110.936 245.562 111.05C245.449 111.164 245.385 111.318 245.385 111.479C245.385 111.64 245.449 111.794 245.562 111.908C245.676 112.022 245.83 112.086 245.991 112.086C246.075 112.077 246.157 112.052 246.23 112.01C246.304 111.969 246.368 111.912 246.418 111.844C246.469 111.777 246.504 111.699 246.523 111.617C246.542 111.534 246.543 111.449 246.527 111.366L246.598 111.479ZM248.431 111.479C248.434 111.355 248.4 111.233 248.333 111.129C248.266 111.025 248.169 110.943 248.055 110.894C247.941 110.846 247.815 110.832 247.693 110.856C247.572 110.879 247.46 110.939 247.372 111.026C247.284 111.114 247.225 111.226 247.202 111.347C247.178 111.469 247.192 111.595 247.24 111.709C247.289 111.823 247.371 111.92 247.475 111.987C247.579 112.054 247.701 112.088 247.825 112.086C247.909 112.077 247.99 112.052 248.064 112.01C248.137 111.969 248.201 111.912 248.252 111.844C248.302 111.777 248.338 111.699 248.357 111.617C248.376 111.534 248.377 111.449 248.361 111.366L248.431 111.479ZM250.251 111.479C250.251 111.318 250.187 111.164 250.073 111.05C249.96 110.936 249.805 110.873 249.644 110.873C249.484 110.873 249.329 110.936 249.216 111.05C249.102 111.164 249.038 111.318 249.038 111.479C249.038 111.64 249.102 111.794 249.216 111.908C249.329 112.022 249.484 112.086 249.644 112.086C249.723 112.07 249.799 112.04 249.866 111.995C249.933 111.951 249.99 111.893 250.035 111.826C250.08 111.759 250.11 111.684 250.126 111.605C250.141 111.526 250.14 111.445 250.124 111.366L250.251 111.479ZM241.139 116.486C241.139 116.326 241.075 116.171 240.961 116.057C240.848 115.944 240.693 115.88 240.533 115.88C240.372 115.88 240.218 115.944 240.104 116.057C239.99 116.171 239.926 116.326 239.926 116.486C239.926 116.647 239.99 116.801 240.104 116.915C240.218 117.029 240.372 117.093 240.533 117.093C240.693 117.093 240.848 117.029 240.961 116.915C241.075 116.801 241.139 116.647 241.139 116.486ZM242.959 116.486C242.959 116.326 242.895 116.171 242.781 116.057C242.667 115.944 242.513 115.88 242.352 115.88C242.191 115.88 242.037 115.944 241.923 116.057C241.81 116.171 241.746 116.326 241.746 116.486C241.749 116.646 241.814 116.798 241.927 116.911C242.04 117.024 242.192 117.089 242.352 117.093C242.436 117.085 242.518 117.059 242.591 117.017C242.665 116.976 242.729 116.919 242.779 116.852C242.83 116.784 242.865 116.706 242.884 116.624C242.903 116.542 242.904 116.456 242.888 116.374L242.959 116.486ZM244.778 116.486C244.778 116.326 244.714 116.171 244.601 116.057C244.487 115.944 244.333 115.88 244.172 115.88C244.011 115.88 243.857 115.944 243.743 116.057C243.629 116.171 243.565 116.326 243.565 116.486C243.569 116.646 243.634 116.798 243.747 116.911C243.86 117.024 244.012 117.089 244.172 117.093C244.256 117.085 244.337 117.059 244.411 117.017C244.484 116.976 244.548 116.919 244.599 116.852C244.649 116.784 244.685 116.706 244.704 116.624C244.722 116.542 244.724 116.456 244.708 116.374L244.778 116.486ZM246.598 116.486C246.598 116.326 246.534 116.171 246.42 116.057C246.306 115.944 246.152 115.88 245.991 115.88C245.83 115.88 245.676 115.944 245.562 116.057C245.449 116.171 245.385 116.326 245.385 116.486C245.388 116.646 245.453 116.798 245.566 116.911C245.679 117.024 245.832 117.089 245.991 117.093C246.075 117.085 246.157 117.059 246.23 117.017C246.304 116.976 246.368 116.919 246.418 116.852C246.469 116.784 246.504 116.706 246.523 116.624C246.542 116.542 246.543 116.456 246.527 116.374L246.598 116.486ZM248.431 116.486C248.409 116.34 248.335 116.206 248.222 116.109C248.11 116.012 247.966 115.959 247.818 115.959C247.669 115.959 247.526 116.012 247.413 116.109C247.301 116.206 247.227 116.34 247.204 116.486C247.227 116.633 247.301 116.767 247.413 116.864C247.526 116.961 247.669 117.014 247.818 117.014C247.966 117.014 248.11 116.961 248.222 116.864C248.335 116.767 248.409 116.633 248.431 116.486ZM250.251 116.486C250.251 116.326 250.187 116.171 250.073 116.057C249.96 115.944 249.805 115.88 249.644 115.88C249.484 115.88 249.329 115.944 249.216 116.057C249.102 116.171 249.038 116.326 249.038 116.486C249.038 116.647 249.102 116.801 249.216 116.915C249.329 117.029 249.484 117.093 249.644 117.093C249.802 117.059 249.941 116.965 250.03 116.83C250.12 116.696 250.153 116.532 250.124 116.374L250.251 116.486Z" fill="#263238"/>
<path d="M275.809 100.054H273.693C273.554 100.054 273.419 99.9997 273.319 99.9023C273.219 99.8048 273.161 99.672 273.157 99.5323C273.157 99.4626 273.171 99.3936 273.198 99.3293C273.226 99.2651 273.265 99.2069 273.315 99.1582C273.365 99.1096 273.424 99.0714 273.489 99.0461C273.554 99.0207 273.624 99.0086 273.693 99.0105H275.809C275.878 99.0085 275.947 99.0207 276.011 99.0462C276.075 99.0718 276.134 99.1101 276.183 99.159C276.231 99.2079 276.27 99.2662 276.295 99.3304C276.321 99.3946 276.333 99.4633 276.331 99.5323C276.331 99.6707 276.276 99.8035 276.178 99.9014C276.08 99.9992 275.948 100.054 275.809 100.054ZM276.331 101.958C276.333 101.889 276.321 101.821 276.295 101.756C276.27 101.692 276.231 101.634 276.183 101.585C276.134 101.536 276.075 101.498 276.011 101.472C275.947 101.447 275.878 101.435 275.809 101.437H273.693C273.624 101.435 273.554 101.447 273.489 101.472C273.424 101.497 273.365 101.536 273.315 101.584C273.265 101.633 273.226 101.691 273.198 101.755C273.171 101.82 273.157 101.889 273.157 101.958C273.161 102.098 273.219 102.231 273.319 102.328C273.419 102.426 273.554 102.48 273.693 102.48H275.809C275.878 102.48 275.946 102.467 276.009 102.441C276.072 102.414 276.13 102.376 276.178 102.327C276.227 102.279 276.265 102.221 276.291 102.158C276.318 102.095 276.331 102.027 276.331 101.958ZM276.331 104.384C276.331 104.246 276.276 104.113 276.178 104.015C276.08 103.918 275.948 103.863 275.809 103.863H273.693C273.554 103.863 273.419 103.917 273.319 104.015C273.219 104.112 273.161 104.245 273.157 104.384C273.157 104.454 273.171 104.523 273.198 104.588C273.226 104.652 273.265 104.71 273.315 104.759C273.365 104.807 273.424 104.845 273.489 104.871C273.554 104.896 273.624 104.908 273.693 104.906H275.809C275.878 104.908 275.947 104.896 276.011 104.871C276.075 104.845 276.134 104.807 276.183 104.758C276.231 104.709 276.27 104.651 276.295 104.586C276.321 104.522 276.333 104.454 276.331 104.384ZM276.331 106.811C276.331 106.672 276.276 106.539 276.178 106.441C276.08 106.344 275.948 106.289 275.809 106.289H273.693C273.554 106.289 273.419 106.343 273.319 106.441C273.219 106.538 273.161 106.671 273.157 106.811C273.157 106.88 273.171 106.949 273.198 107.014C273.226 107.078 273.265 107.136 273.315 107.185C273.365 107.233 273.424 107.271 273.489 107.297C273.554 107.322 273.624 107.334 273.693 107.332H275.809C275.878 107.334 275.947 107.322 276.011 107.297C276.075 107.271 276.134 107.233 276.183 107.184C276.231 107.135 276.27 107.077 276.295 107.013C276.321 106.948 276.333 106.88 276.331 106.811ZM276.331 109.237C276.331 109.098 276.276 108.965 276.178 108.868C276.08 108.77 275.948 108.715 275.809 108.715H273.693C273.554 108.715 273.419 108.769 273.319 108.867C273.219 108.964 273.161 109.097 273.157 109.237C273.157 109.306 273.171 109.375 273.198 109.44C273.226 109.504 273.265 109.562 273.315 109.611C273.365 109.659 273.424 109.697 273.489 109.723C273.554 109.748 273.624 109.76 273.693 109.758H275.809C275.878 109.76 275.947 109.748 276.011 109.723C276.075 109.697 276.134 109.659 276.183 109.61C276.231 109.561 276.27 109.503 276.295 109.439C276.321 109.374 276.333 109.306 276.331 109.237ZM276.331 111.663C276.331 111.524 276.276 111.391 276.178 111.294C276.08 111.196 275.948 111.141 275.809 111.141H273.693C273.554 111.141 273.419 111.195 273.319 111.293C273.219 111.39 273.161 111.523 273.157 111.663C273.157 111.732 273.171 111.801 273.198 111.866C273.226 111.93 273.265 111.988 273.315 112.037C273.365 112.085 273.424 112.124 273.489 112.149C273.554 112.174 273.624 112.186 273.693 112.185H275.809C275.878 112.186 275.947 112.174 276.011 112.149C276.075 112.123 276.134 112.085 276.183 112.036C276.231 111.987 276.27 111.929 276.295 111.865C276.321 111.8 276.333 111.732 276.331 111.663ZM276.331 114.089C276.331 113.95 276.276 113.818 276.178 113.72C276.08 113.622 275.948 113.567 275.809 113.567H273.693C273.617 113.554 273.538 113.559 273.463 113.579C273.388 113.6 273.319 113.637 273.26 113.687C273.201 113.738 273.153 113.8 273.12 113.871C273.088 113.941 273.071 114.018 273.071 114.096C273.071 114.173 273.088 114.25 273.12 114.321C273.153 114.391 273.201 114.454 273.26 114.504C273.319 114.555 273.388 114.591 273.463 114.612C273.538 114.633 273.617 114.637 273.693 114.625H275.809C275.879 114.625 275.948 114.611 276.012 114.584C276.076 114.557 276.135 114.517 276.183 114.467C276.232 114.417 276.27 114.358 276.295 114.293C276.321 114.228 276.333 114.158 276.331 114.089ZM276.331 116.515C276.331 116.376 276.276 116.244 276.178 116.146C276.08 116.048 275.948 115.993 275.809 115.993H273.693C273.617 115.98 273.538 115.985 273.463 116.005C273.388 116.026 273.319 116.063 273.26 116.113C273.201 116.164 273.153 116.226 273.12 116.297C273.088 116.367 273.071 116.444 273.071 116.522C273.071 116.6 273.088 116.676 273.12 116.747C273.153 116.817 273.201 116.88 273.26 116.93C273.319 116.981 273.388 117.017 273.463 117.038C273.538 117.059 273.617 117.063 273.693 117.051H275.809C275.879 117.051 275.948 117.037 276.012 117.01C276.076 116.983 276.135 116.943 276.183 116.893C276.232 116.843 276.27 116.784 276.295 116.719C276.321 116.654 276.333 116.584 276.331 116.515ZM284.286 99.5888C284.286 99.519 284.272 99.45 284.245 99.3857C284.218 99.3215 284.178 99.2633 284.129 99.2147C284.079 99.166 284.019 99.1279 283.954 99.1025C283.889 99.0771 283.82 99.065 283.75 99.0669H278.108C277.97 99.0669 277.837 99.1219 277.739 99.2197C277.641 99.3176 277.586 99.4504 277.586 99.5888C277.59 99.7261 277.646 99.8567 277.743 99.9538C277.84 100.051 277.971 100.107 278.108 100.111H283.75C283.824 100.111 283.898 100.096 283.966 100.066C284.034 100.037 284.095 99.9934 284.145 99.939C284.195 99.8847 284.234 99.8205 284.258 99.7505C284.283 99.6805 284.292 99.6062 284.286 99.5323V99.5888ZM284.286 102.015C284.286 101.945 284.272 101.876 284.245 101.812C284.218 101.748 284.178 101.689 284.129 101.641C284.079 101.592 284.019 101.554 283.954 101.529C283.889 101.503 283.82 101.491 283.75 101.493H278.108C277.97 101.493 277.837 101.548 277.739 101.646C277.641 101.744 277.586 101.876 277.586 102.015C277.59 102.152 277.646 102.283 277.743 102.38C277.84 102.477 277.971 102.533 278.108 102.537H283.75C283.824 102.537 283.898 102.522 283.966 102.492C284.034 102.463 284.095 102.419 284.145 102.365C284.195 102.311 284.234 102.247 284.258 102.177C284.283 102.107 284.292 102.032 284.286 101.958V102.015ZM284.286 104.441C284.283 104.301 284.225 104.168 284.124 104.071C284.024 103.973 283.89 103.919 283.75 103.919H278.108C277.971 103.923 277.84 103.979 277.743 104.076C277.646 104.173 277.59 104.304 277.586 104.441C277.586 104.579 277.641 104.712 277.739 104.81C277.837 104.908 277.97 104.963 278.108 104.963H283.75C283.825 104.965 283.899 104.952 283.968 104.923C284.037 104.894 284.099 104.851 284.15 104.796C284.201 104.741 284.24 104.676 284.263 104.605C284.286 104.534 284.294 104.459 284.286 104.384V104.441ZM284.286 106.867C284.283 106.727 284.225 106.595 284.124 106.497C284.024 106.4 283.89 106.345 283.75 106.345H278.108C277.971 106.349 277.84 106.405 277.743 106.502C277.646 106.599 277.59 106.73 277.586 106.867C277.586 107.005 277.641 107.138 277.739 107.236C277.837 107.334 277.97 107.389 278.108 107.389H283.75C283.825 107.391 283.899 107.378 283.968 107.349C284.037 107.32 284.099 107.277 284.15 107.222C284.201 107.167 284.24 107.102 284.263 107.031C284.286 106.96 284.294 106.885 284.286 106.811V106.867ZM284.286 109.293C284.283 109.153 284.225 109.021 284.124 108.923C284.024 108.826 283.89 108.771 283.75 108.771H278.108C277.971 108.775 277.84 108.831 277.743 108.928C277.646 109.025 277.59 109.156 277.586 109.293C277.586 109.431 277.641 109.564 277.739 109.662C277.837 109.76 277.97 109.815 278.108 109.815H283.75C283.825 109.817 283.899 109.804 283.968 109.775C284.037 109.746 284.099 109.703 284.15 109.648C284.201 109.593 284.24 109.528 284.263 109.457C284.286 109.386 284.294 109.311 284.286 109.237V109.293ZM290.958 111.719C290.954 111.582 290.898 111.451 290.801 111.354C290.704 111.257 290.573 111.201 290.436 111.197H284.794C284.657 111.201 284.526 111.257 284.429 111.354C284.332 111.451 284.276 111.582 284.272 111.719C284.272 111.857 284.327 111.99 284.425 112.088C284.523 112.186 284.656 112.241 284.794 112.241H290.436C290.515 112.252 290.596 112.245 290.672 112.221C290.748 112.196 290.818 112.154 290.875 112.098C290.932 112.042 290.976 111.974 291.002 111.898C291.029 111.823 291.038 111.742 291.029 111.663L290.958 111.719ZM290.958 114.145C290.954 114.008 290.898 113.877 290.801 113.78C290.704 113.683 290.573 113.627 290.436 113.623H284.794C284.669 113.644 284.555 113.708 284.472 113.805C284.39 113.902 284.345 114.025 284.345 114.152C284.345 114.279 284.39 114.402 284.472 114.499C284.555 114.596 284.669 114.661 284.794 114.681H290.436C290.516 114.69 290.597 114.681 290.673 114.654C290.749 114.628 290.818 114.584 290.875 114.527C290.932 114.471 290.975 114.402 291.002 114.326C291.028 114.25 291.037 114.169 291.029 114.089L290.958 114.145ZM290.958 116.571C290.954 116.434 290.898 116.303 290.801 116.206C290.704 116.109 290.573 116.053 290.436 116.049H284.794C284.669 116.07 284.555 116.134 284.472 116.231C284.39 116.328 284.345 116.451 284.345 116.578C284.345 116.705 284.39 116.828 284.472 116.925C284.555 117.022 284.669 117.087 284.794 117.107H290.436C290.516 117.116 290.597 117.107 290.673 117.08C290.749 117.054 290.818 117.01 290.875 116.954C290.932 116.897 290.975 116.828 291.002 116.752C291.028 116.676 291.037 116.595 291.029 116.515L290.958 116.571ZM286.726 99.6452C286.726 99.4843 286.663 99.33 286.549 99.2163C286.435 99.1026 286.281 99.0386 286.12 99.0386C285.959 99.0386 285.805 99.1026 285.691 99.2163C285.577 99.33 285.513 99.4843 285.513 99.6452C285.513 99.8061 285.577 99.9603 285.691 100.074C285.805 100.188 285.959 100.252 286.12 100.252C286.216 100.265 286.313 100.255 286.404 100.223C286.495 100.19 286.578 100.137 286.644 100.066C286.71 99.9961 286.759 99.9109 286.785 99.818C286.812 99.7251 286.816 99.6271 286.797 99.5323L286.726 99.6452ZM288.56 99.6452C288.56 99.4843 288.496 99.33 288.382 99.2163C288.269 99.1026 288.114 99.0386 287.954 99.0386C287.793 99.0386 287.638 99.1026 287.525 99.2163C287.411 99.33 287.347 99.4843 287.347 99.6452C287.347 99.8061 287.411 99.9603 287.525 100.074C287.638 100.188 287.793 100.252 287.954 100.252C288.044 100.253 288.133 100.235 288.215 100.197C288.297 100.16 288.37 100.105 288.428 100.036C288.486 99.9673 288.528 99.8864 288.551 99.7992C288.574 99.7121 288.577 99.6209 288.56 99.5323V99.6452ZM290.38 99.6452C290.38 99.4843 290.316 99.33 290.202 99.2163C290.088 99.1026 289.934 99.0386 289.773 99.0386C289.612 99.0386 289.458 99.1026 289.344 99.2163C289.231 99.33 289.167 99.4843 289.167 99.6452C289.167 99.8061 289.231 99.9603 289.344 100.074C289.458 100.188 289.612 100.252 289.773 100.252C289.863 100.253 289.953 100.235 290.035 100.197C290.117 100.16 290.189 100.105 290.247 100.036C290.306 99.9673 290.348 99.8864 290.37 99.7992C290.393 99.7121 290.396 99.6209 290.38 99.5323V99.6452ZM292.199 99.6452C292.199 99.4843 292.135 99.33 292.022 99.2163C291.908 99.1026 291.754 99.0386 291.593 99.0386C291.432 99.0386 291.278 99.1026 291.164 99.2163C291.05 99.33 290.986 99.4843 290.986 99.6452C290.986 99.8061 291.05 99.9603 291.164 100.074C291.278 100.188 291.432 100.252 291.593 100.252C291.683 100.253 291.772 100.235 291.854 100.197C291.936 100.16 292.009 100.105 292.067 100.036C292.125 99.9673 292.167 99.8864 292.19 99.7992C292.213 99.7121 292.216 99.6209 292.199 99.5323V99.6452ZM294.019 99.6452C294.019 99.4843 293.955 99.33 293.841 99.2163C293.727 99.1026 293.573 99.0386 293.412 99.0386C293.251 99.0386 293.097 99.1026 292.983 99.2163C292.87 99.33 292.806 99.4843 292.806 99.6452C292.806 99.8061 292.87 99.9603 292.983 100.074C293.097 100.188 293.251 100.252 293.412 100.252C293.502 100.253 293.592 100.235 293.674 100.197C293.756 100.16 293.828 100.105 293.887 100.036C293.945 99.9673 293.987 99.8864 294.01 99.7992C294.032 99.7121 294.036 99.6209 294.019 99.5323V99.6452ZM295.838 99.6452C295.838 99.5252 295.803 99.408 295.736 99.3082C295.669 99.2085 295.575 99.1307 295.464 99.0848C295.353 99.0389 295.231 99.0269 295.113 99.0503C294.996 99.0737 294.888 99.1315 294.803 99.2163C294.718 99.3011 294.66 99.4092 294.637 99.5269C294.614 99.6445 294.626 99.7665 294.671 99.8773C294.717 99.9881 294.795 100.083 294.895 100.149C294.995 100.216 295.112 100.252 295.232 100.252C295.322 100.253 295.411 100.235 295.493 100.197C295.575 100.16 295.648 100.105 295.706 100.036C295.764 99.9673 295.806 99.8864 295.829 99.7992C295.852 99.7121 295.855 99.6209 295.838 99.5323V99.6452ZM286.797 104.384C286.797 104.224 286.733 104.069 286.619 103.956C286.506 103.842 286.351 103.778 286.191 103.778C286.03 103.778 285.875 103.842 285.762 103.956C285.648 104.069 285.584 104.224 285.584 104.384C285.584 104.545 285.648 104.7 285.762 104.813C285.875 104.927 286.03 104.991 286.191 104.991C286.351 104.991 286.506 104.927 286.619 104.813C286.733 104.7 286.797 104.545 286.797 104.384ZM288.631 104.384C288.631 104.224 288.567 104.069 288.453 103.956C288.339 103.842 288.185 103.778 288.024 103.778C287.863 103.778 287.709 103.842 287.595 103.956C287.482 104.069 287.418 104.224 287.418 104.384C287.418 104.545 287.482 104.7 287.595 104.813C287.709 104.927 287.863 104.991 288.024 104.991C288.172 104.974 288.309 104.902 288.408 104.79C288.507 104.678 288.561 104.534 288.56 104.384H288.631ZM290.45 104.384C290.45 104.224 290.386 104.069 290.273 103.956C290.159 103.842 290.005 103.778 289.844 103.778C289.683 103.778 289.529 103.842 289.415 103.956C289.301 104.069 289.237 104.224 289.237 104.384C289.237 104.545 289.301 104.7 289.415 104.813C289.529 104.927 289.683 104.991 289.844 104.991C289.992 104.974 290.129 104.902 290.228 104.79C290.327 104.678 290.381 104.534 290.38 104.384H290.45ZM292.27 104.384C292.27 104.224 292.206 104.069 292.092 103.956C291.978 103.842 291.824 103.778 291.663 103.778C291.502 103.778 291.348 103.842 291.234 103.956C291.121 104.069 291.057 104.224 291.057 104.384C291.057 104.545 291.121 104.7 291.234 104.813C291.348 104.927 291.502 104.991 291.663 104.991C291.812 104.974 291.948 104.902 292.047 104.79C292.146 104.678 292.2 104.534 292.199 104.384H292.27ZM294.089 104.384C294.089 104.224 294.025 104.069 293.912 103.956C293.798 103.842 293.644 103.778 293.483 103.778C293.322 103.778 293.168 103.842 293.054 103.956C292.94 104.069 292.876 104.224 292.876 104.384C292.876 104.545 292.94 104.7 293.054 104.813C293.168 104.927 293.322 104.991 293.483 104.991C293.631 104.974 293.768 104.902 293.867 104.79C293.966 104.678 294.02 104.534 294.019 104.384H294.089ZM295.909 104.384C295.909 104.265 295.873 104.147 295.807 104.048C295.74 103.948 295.645 103.87 295.534 103.824C295.424 103.778 295.302 103.766 295.184 103.79C295.066 103.813 294.958 103.871 294.873 103.956C294.789 104.04 294.731 104.148 294.707 104.266C294.684 104.384 294.696 104.506 294.742 104.617C294.788 104.727 294.866 104.822 294.965 104.889C295.065 104.955 295.182 104.991 295.302 104.991C295.451 104.974 295.587 104.902 295.686 104.79C295.785 104.678 295.839 104.534 295.838 104.384H295.909ZM293.017 111.366C293.017 111.206 292.953 111.051 292.84 110.938C292.726 110.824 292.572 110.76 292.411 110.76C292.25 110.76 292.096 110.824 291.982 110.938C291.868 111.051 291.804 111.206 291.804 111.366C291.804 111.527 291.868 111.682 291.982 111.795C292.096 111.909 292.25 111.973 292.411 111.973C292.559 111.956 292.696 111.884 292.795 111.772C292.894 111.66 292.948 111.516 292.947 111.366H293.017ZM294.851 111.366C294.854 111.243 294.82 111.122 294.753 111.018C294.687 110.914 294.591 110.832 294.478 110.783C294.365 110.734 294.239 110.72 294.118 110.742C293.997 110.764 293.885 110.822 293.797 110.908C293.709 110.995 293.648 111.105 293.623 111.226C293.598 111.347 293.609 111.472 293.656 111.586C293.702 111.701 293.782 111.798 293.884 111.867C293.986 111.936 294.107 111.973 294.23 111.973C294.38 111.956 294.518 111.885 294.62 111.773C294.721 111.662 294.778 111.517 294.78 111.366H294.851ZM296.671 111.366C296.671 111.206 296.607 111.051 296.493 110.938C296.379 110.824 296.225 110.76 296.064 110.76C295.903 110.76 295.749 110.824 295.635 110.938C295.521 111.051 295.458 111.206 295.458 111.366C295.458 111.527 295.521 111.682 295.635 111.795C295.749 111.909 295.903 111.973 296.064 111.973C296.225 111.973 296.379 111.909 296.493 111.795C296.607 111.682 296.671 111.527 296.671 111.366ZM298.49 111.366C298.49 111.206 298.426 111.051 298.312 110.938C298.199 110.824 298.044 110.76 297.884 110.76C297.723 110.76 297.568 110.824 297.455 110.938C297.341 111.051 297.277 111.206 297.277 111.366C297.277 111.527 297.341 111.682 297.455 111.795C297.568 111.909 297.723 111.973 297.884 111.973C298.032 111.956 298.169 111.884 298.268 111.772C298.366 111.66 298.421 111.516 298.42 111.366H298.49ZM300.31 111.366C300.31 111.206 300.246 111.051 300.132 110.938C300.018 110.824 299.864 110.76 299.703 110.76C299.542 110.76 299.388 110.824 299.274 110.938C299.16 111.051 299.097 111.206 299.097 111.366C299.097 111.527 299.16 111.682 299.274 111.795C299.388 111.909 299.542 111.973 299.703 111.973C299.851 111.956 299.988 111.884 300.087 111.772C300.186 111.66 300.24 111.516 300.239 111.366H300.31ZM302.129 111.366C302.129 111.246 302.094 111.129 302.027 111.029C301.96 110.93 301.866 110.852 301.755 110.806C301.644 110.76 301.522 110.748 301.404 110.772C301.287 110.795 301.179 110.853 301.094 110.938C301.009 111.022 300.951 111.13 300.928 111.248C300.904 111.366 300.916 111.488 300.962 111.599C301.008 111.709 301.086 111.804 301.186 111.871C301.285 111.937 301.403 111.973 301.523 111.973C301.671 111.956 301.808 111.884 301.907 111.772C302.005 111.66 302.06 111.516 302.059 111.366H302.129ZM293.017 116.374C293.017 116.213 292.953 116.059 292.84 115.945C292.726 115.831 292.572 115.767 292.411 115.767C292.25 115.767 292.096 115.831 291.982 115.945C291.868 116.059 291.804 116.213 291.804 116.374C291.808 116.533 291.873 116.686 291.986 116.799C292.099 116.912 292.251 116.977 292.411 116.98C292.559 116.963 292.696 116.891 292.795 116.779C292.894 116.668 292.948 116.523 292.947 116.374H293.017ZM294.851 116.374C294.829 116.227 294.754 116.093 294.642 115.996C294.529 115.9 294.386 115.846 294.237 115.846C294.089 115.846 293.945 115.9 293.833 115.996C293.72 116.093 293.646 116.227 293.624 116.374C293.646 116.52 293.72 116.654 293.833 116.751C293.945 116.848 294.089 116.901 294.237 116.901C294.386 116.901 294.529 116.848 294.642 116.751C294.754 116.654 294.829 116.52 294.851 116.374ZM296.671 116.374C296.671 116.294 296.655 116.215 296.624 116.142C296.594 116.068 296.549 116.001 296.493 115.945C296.437 115.889 296.37 115.844 296.296 115.813C296.223 115.783 296.144 115.767 296.064 115.767C295.903 115.767 295.749 115.831 295.635 115.945C295.521 116.059 295.458 116.213 295.458 116.374C295.458 116.453 295.473 116.532 295.504 116.606C295.534 116.679 295.579 116.746 295.635 116.803C295.691 116.859 295.758 116.904 295.832 116.934C295.905 116.965 295.984 116.98 296.064 116.98C296.224 116.977 296.376 116.912 296.489 116.799C296.602 116.686 296.667 116.533 296.671 116.374ZM298.49 116.374C298.49 116.213 298.426 116.059 298.312 115.945C298.199 115.831 298.044 115.767 297.884 115.767C297.723 115.767 297.568 115.831 297.455 115.945C297.341 116.059 297.277 116.213 297.277 116.374C297.277 116.453 297.293 116.532 297.323 116.606C297.354 116.679 297.398 116.746 297.455 116.803C297.511 116.859 297.578 116.904 297.651 116.934C297.725 116.965 297.804 116.98 297.884 116.98C298.031 116.96 298.166 116.888 298.264 116.776C298.362 116.665 298.418 116.522 298.42 116.374H298.49ZM300.31 116.374C300.31 116.213 300.246 116.059 300.132 115.945C300.018 115.831 299.864 115.767 299.703 115.767C299.542 115.767 299.388 115.831 299.274 115.945C299.16 116.059 299.097 116.213 299.097 116.374C299.097 116.453 299.112 116.532 299.143 116.606C299.173 116.679 299.218 116.746 299.274 116.803C299.331 116.859 299.397 116.904 299.471 116.934C299.545 116.965 299.623 116.98 299.703 116.98C299.85 116.96 299.985 116.888 300.084 116.776C300.182 116.665 300.237 116.522 300.239 116.374H300.31ZM302.129 116.374C302.129 116.213 302.065 116.059 301.951 115.945C301.838 115.831 301.683 115.767 301.523 115.767C301.362 115.767 301.208 115.831 301.094 115.945C300.98 116.059 300.916 116.213 300.916 116.374C300.916 116.535 300.98 116.689 301.094 116.803C301.208 116.916 301.362 116.98 301.523 116.98C301.683 116.98 301.838 116.916 301.951 116.803C302.065 116.689 302.129 116.535 302.129 116.374Z" fill="#263238"/>
<path d="M203.197 114.386C203.197 114.386 194.353 93.7358 186.595 93.7358C178.837 93.7358 179.218 111.071 184.014 120.296C188.81 129.52 199.149 133.202 202.097 127.672" fill="white"/>
<path d="M203.197 114.386C203.197 114.386 194.353 93.7358 186.595 93.7358C178.837 93.7358 179.218 111.071 184.014 120.296C188.81 129.52 199.149 133.202 202.097 127.672" fill="#FFDC00" fill-opacity="0.5"/>
<path d="M203.197 114.386C203.197 114.386 194.353 93.7358 186.595 93.7358C178.837 93.7358 179.218 111.071 184.014 120.296C188.81 129.52 199.149 133.202 202.097 127.672" stroke="#263238" stroke-linecap="round" stroke-linejoin="round"/>
<path d="M184.028 106.331C184.028 106.331 182.9 97.3463 187.173 98.9261C191.447 100.506 196.384 114.653 196.384 114.653C196.384 114.653 192.787 110.831 193.239 114.427C193.295 115.384 193.687 116.289 194.344 116.986C195.002 117.682 195.884 118.125 196.835 118.236" stroke="#263238" stroke-linecap="round" stroke-linejoin="round"/>
<path d="M499.091 179.45H324.232L294.371 299.484H469.245L499.091 179.45Z" fill="#263238" stroke="#263238" stroke-linecap="round" stroke-linejoin="round"/>
<path d="M467.411 299.484H206.638V308.017H467.411V299.484Z" fill="#263238" stroke="#263238" stroke-linecap="round" stroke-linejoin="round"/>
<path d="M469.245 299.484H294.371V308.017H469.245V299.484Z" fill="#FFDC00" stroke="#263238" stroke-linecap="round" stroke-linejoin="round"/>
<path d="M501.038 179.45H326.164L296.304 299.484H471.178L501.038 179.45Z" fill="#FFDC00" stroke="#263238" stroke-linecap="round" stroke-linejoin="round"/>
<path d="M397.676 266.45C411.449 266.45 422.614 255.392 422.614 241.752C422.614 228.112 411.449 217.054 397.676 217.054C383.904 217.054 372.739 228.112 372.739 241.752C372.739 255.392 383.904 266.45 397.676 266.45Z" fill="#263238"/>
<path d="M377.407 245.56C377.146 245.443 376.911 245.274 376.717 245.063C376.523 244.852 376.374 244.604 376.279 244.333C376.047 243.754 376.047 243.107 376.279 242.528C376.405 242.209 376.595 241.919 376.838 241.676C377.081 241.434 377.37 241.244 377.689 241.117L388.254 236.886C388.607 236.731 388.973 236.886 389.368 237.351C389.719 237.743 389.932 238.238 389.975 238.762C389.984 239.014 389.921 239.263 389.794 239.48C389.666 239.697 389.48 239.874 389.256 239.989L380.398 243.431L389.284 246.999C389.471 247.125 389.621 247.298 389.717 247.502C389.814 247.705 389.854 247.931 389.834 248.156C389.817 248.668 389.639 249.161 389.326 249.566C388.988 250.018 388.649 250.173 388.296 250.032L377.407 245.56Z" fill="white"/>
<path d="M393.896 251.47C393.751 251.354 393.634 251.206 393.556 251.037C393.477 250.868 393.439 250.683 393.445 250.497C393.508 249.989 393.621 249.488 393.783 249.002L399.651 232.076C400.018 230.806 400.54 230.172 401.217 230.172C401.589 230.166 401.95 230.296 402.232 230.538C402.37 230.677 402.477 230.842 402.548 231.024C402.618 231.206 402.65 231.401 402.641 231.596C402.605 232.08 402.496 232.556 402.317 233.007L396.181 250.92C396.113 251.204 395.947 251.456 395.712 251.631C395.478 251.806 395.19 251.894 394.898 251.879C394.526 251.867 394.17 251.722 393.896 251.47Z" fill="white"/>
<path d="M405.42 249.637C405.107 249.231 404.929 248.738 404.912 248.226C404.892 248.002 404.932 247.776 405.029 247.572C405.125 247.369 405.275 247.195 405.462 247.069L414.348 243.501L405.49 240.059C405.266 239.944 405.08 239.768 404.952 239.55C404.825 239.333 404.762 239.084 404.771 238.832C404.814 238.308 405.027 237.813 405.378 237.422C405.773 236.956 406.139 236.801 406.492 236.956L417.057 241.188C417.566 241.389 418 241.744 418.298 242.203C418.567 242.593 418.709 243.056 418.707 243.529C418.69 243.971 418.564 244.402 418.34 244.784C418.133 245.162 417.805 245.46 417.409 245.631L406.45 250.187C406.097 250.243 405.758 250.088 405.42 249.637Z" fill="white"/>
<path d="M566.076 306.127H0V314.59H566.076V306.127Z" fill="white" stroke="#263238" stroke-linecap="round" stroke-linejoin="round"/>
</svg>
