<svg id="code-bro" viewBox="0 0 576 316" fill="none" xmlns="http://www.w3.org/2000/svg" role="img" focusable="false">
<title>Two dimensional illustration of a guy programming on a laptop with a flower next to it</title>
<path d="M40.2543 308.018C40.2543 308.018 30.3808 174.021 22.623 140.874C14.8653 107.727 52.9488 100.675 107.958 96.443C162.968 92.2115 188.357 95.7378 200.346 103.496C212.335 111.253 217.653 202.837 225.735 235.377C233.817 267.918 239.84 310.134 239.84 310.134L40.2543 308.018Z" fill="#263238" stroke="#263238" stroke-linecap="round" stroke-linejoin="round"/>
<path d="M526.552 196.969C519.006 206.406 515.268 211.667 513.717 214.051C515.698 203.668 518.581 193.479 522.335 183.598C525.159 175.937 526.924 167.927 527.582 159.789L526.877 160.169L526.228 158.914C526.482 158.773 552.209 145.119 559.488 132.242L560.715 132.947C554.142 144.569 533.831 156.347 528.273 159.408C533.548 158.9 550.023 156.403 559.826 144.287C571.604 129.745 569.53 111.719 569.53 111.719C569.53 111.719 547.329 126.966 538.33 138.744C534.132 144.13 530.608 150.008 527.836 156.248C528.235 146.646 527.501 137.031 525.65 127.601C533.055 121.776 560.292 99.391 563.282 82.6061C566.752 63.2117 561.871 29.938 561.871 29.938C559.077 36.8417 555.835 43.5558 552.167 50.0376C545.933 61.1241 526.524 78.4592 523.054 97.1624C522.172 101.842 521.7 106.59 521.644 111.352C518.515 100.915 514.776 90.6714 510.445 80.6737C509.3 77.9974 508.357 75.2392 507.624 72.4222L507.017 72.0555C507.144 71.8439 519.641 50.7711 519.641 44.72H521.051C521.051 50.362 511.516 67.147 508.879 71.6606C513.237 69.0371 520.346 63.663 522.984 55.3129C526.961 42.9146 521.08 31.7434 521.08 31.7434C521.08 31.7434 510.543 47.2589 507.666 57.1324C506.305 61.6495 505.495 66.3144 505.254 71.0258C503.237 65.8916 500.148 58.9238 496.593 54.1986C490.359 45.8766 486.198 33.4078 486.198 33.4078C486.198 33.4078 478.581 46.5678 484.125 60.433C488.68 71.8157 501.643 76.1883 506.128 77.359C506.622 78.8682 507.172 80.3352 507.779 81.7457C513.846 95.4829 518.598 109.765 521.968 124.399C518.738 120.097 512.645 112.523 506.876 108.291C498.498 102.141 490.895 91.3653 490.895 91.3653C490.895 91.3653 487.425 106.176 496.749 117.84C504.365 127.361 517.906 127.827 522.645 127.714C525.847 144.499 526.214 162.017 520.783 178.943C520.431 175.657 518.456 166.714 507.567 156.714C493.829 144.019 466.338 103.679 466.338 103.679C466.338 103.679 468.524 151.368 481.699 167.039C493.772 181.412 516.566 180.565 520.318 180.326C520.064 181.073 519.81 181.821 519.528 182.568C510.854 205.884 509.02 222.231 508.808 230.878H492.588V306.424H537.639V230.92H511.827C511.996 225.992 512.505 221.081 513.35 216.223L512.885 216.35L512.504 214.939C512.786 214.869 541.01 206.913 560.743 186.616L561.759 187.59C545.834 203.98 524.479 212.414 516.284 215.207C524.437 214.206 544.339 211.201 553.578 205.221C565.369 197.604 575.765 174.726 575.765 174.726C575.765 174.726 537.639 183.104 526.552 196.969ZM505.113 74.2559C500.5 71.8045 496.487 68.3632 493.361 64.1787C490.235 59.9942 488.073 55.1699 487.03 50.0517L488.441 49.7696C489.428 54.6735 491.489 59.2977 494.477 63.3097C497.464 67.3217 501.304 70.6217 505.719 72.9723L505.113 74.2559ZM525.057 128.081L524.761 128.49L524.225 128.264C523.435 127.954 505 120.365 497.496 109.406L498.667 108.602C505.226 118.207 521.108 125.401 524.225 126.741C526.609 123.073 541.588 99.8283 546.793 85.2155L548.119 85.6951C542.421 101.69 525.241 127.784 525.057 128.052V128.081ZM518.498 179.804C518.287 179.733 496.311 171.453 486.522 152.468L487.778 151.833C497.313 170.325 518.809 178.407 518.992 178.492L518.498 179.804Z" fill="#263238"/>
<path d="M210.911 115.077C210.911 115.077 170.697 123.61 137.184 142.497C103.67 161.383 77.4773 176.617 77.4773 183.909C77.4773 191.201 64.0635 306.989 64.0635 306.989H368.732C368.732 306.989 338.871 243.009 334.005 215.589C329.139 188.169 323.638 170.453 307.798 152.836C291.958 135.219 245.637 112.651 210.911 115.077Z" fill="white"/>
<path d="M92.7954 226.718C97.309 223.502 106.336 247.988 108.903 242.233C111.47 236.478 92.7954 207.436 91.5118 197.097C90.2283 186.758 102.457 185.489 116.647 175.827C130.837 166.165 143.714 158.421 143.714 171.313C143.714 184.205 149.512 207.986 154.025 198.381C158.539 188.775 168.201 176.476 168.835 193.218C169.47 209.961 168.835 226.732 170.782 226.732C172.728 226.732 190.106 208.691 194.619 199.664C199.133 190.637 189.457 167.448 189.457 157.138C189.457 146.827 198.484 132.651 198.484 132.651L199.062 118.053C184.633 122.002 159.442 129.971 137.184 142.511C103.67 161.341 77.4773 176.617 77.4773 183.909C77.4773 191.201 64.0635 306.989 64.0635 306.989H80.7356C83.8387 278.314 89.6076 229.045 92.7954 226.718Z" fill="#FFDC00"/>
<path opacity="0.5" d="M92.7954 226.718C97.309 223.502 106.336 247.988 108.903 242.233C111.47 236.478 92.7954 207.436 91.5118 197.097C90.2283 186.758 102.457 185.489 116.647 175.827C130.837 166.165 143.714 158.421 143.714 171.313C143.714 184.205 149.512 207.986 154.025 198.381C158.539 188.775 168.201 176.476 168.835 193.218C169.47 209.961 168.835 226.732 170.782 226.732C172.728 226.732 190.106 208.691 194.619 199.664C199.133 190.637 189.457 167.448 189.457 157.138C189.457 146.827 198.484 132.651 198.484 132.651L199.062 118.053C184.633 122.002 159.442 129.971 137.184 142.511C103.67 161.341 77.4773 176.617 77.4773 183.909C77.4773 191.201 64.0635 306.989 64.0635 306.989H80.7356C83.8387 278.314 89.6076 229.045 92.7954 226.718Z" fill="white"/>
<path d="M286.993 143.527C286.993 143.527 308.151 153.866 316.148 164.219C309.72 153.112 300.035 144.25 288.404 138.83L286.993 143.527Z" fill="#263238" stroke="#263238" stroke-linecap="round" stroke-linejoin="round"/>
<path d="M210.911 115.077C210.911 115.077 170.697 123.61 137.184 142.497C103.67 161.383 77.4773 176.617 77.4773 183.909C77.4773 191.201 64.0635 306.989 64.0635 306.989H368.732C368.732 306.989 338.871 243.009 334.005 215.589C329.139 188.169 323.638 170.453 307.798 152.836C291.958 135.219 245.637 112.651 210.911 115.077Z" stroke="#263238" stroke-linecap="round" stroke-linejoin="round"/>
<path d="M197.525 119.351C192.071 122.735 187.509 127.379 184.22 132.891C180.931 138.403 179.013 144.623 178.624 151.03C177.411 172.964 178.624 195.518 177.411 207.69C176.198 219.863 167.665 229.638 174.365 229.017C181.065 228.396 196.298 204.037 201.785 204.037C207.272 204.037 209.091 215.617 211.531 219.27C213.971 222.924 222.533 224.461 222.533 224.461C222.533 224.461 230.418 215.011 230.418 211.964C230.418 208.917 227.978 198.55 234.649 199.777C241.321 201.004 255.962 224.151 256.583 216.83C257.203 209.51 249.869 198.494 249.869 180.891C249.869 163.288 241.406 142.497 229.163 129.704C216.919 116.91 209.994 118.406 197.525 119.351Z" fill="white"/>
<path d="M199.02 119.223L197.511 119.35C192.057 122.735 187.495 127.378 184.206 132.89C180.917 138.402 178.998 144.623 178.61 151.03C177.397 172.963 178.61 195.517 177.397 207.69C176.607 215.532 172.813 222.359 171.981 226.026C176.452 222.74 190.613 207.619 194.619 199.608C199.133 190.594 189.457 167.392 189.457 157.081C189.457 146.77 198.484 132.595 198.484 132.595L199.02 119.223Z" fill="#FFDC00"/>
<path opacity="0.5" d="M199.02 119.223L197.511 119.35C192.057 122.735 187.495 127.378 184.206 132.89C180.917 138.402 178.998 144.623 178.61 151.03C177.397 172.963 178.61 195.517 177.397 207.69C176.607 215.532 172.813 222.359 171.981 226.026C176.452 222.74 190.613 207.619 194.619 199.608C199.133 190.594 189.457 167.392 189.457 157.081C189.457 146.77 198.484 132.595 198.484 132.595L199.02 119.223Z" fill="white"/>
<path d="M197.525 119.351C192.071 122.735 187.509 127.379 184.22 132.891C180.931 138.403 179.013 144.623 178.624 151.03C177.411 172.964 178.624 195.518 177.411 207.69C176.198 219.863 167.665 229.638 174.365 229.017C181.065 228.396 196.298 204.037 201.785 204.037C207.272 204.037 209.091 215.617 211.531 219.27C213.971 222.924 222.533 224.461 222.533 224.461C222.533 224.461 230.418 215.011 230.418 211.964C230.418 208.917 227.978 198.55 234.649 199.777C241.321 201.004 255.962 224.151 256.583 216.83C257.203 209.51 249.869 198.494 249.869 180.891C249.869 163.288 241.406 142.497 229.163 129.704C216.919 116.91 209.994 118.406 197.525 119.351Z" stroke="#263238" stroke-linecap="round" stroke-linejoin="round"/>
<path d="M202.589 119.505C197.906 130.68 195.425 142.653 195.282 154.768C195.282 174.035 205.24 193.966 209.232 203.261C213.224 212.556 222.519 224.517 222.519 224.517C222.519 224.517 221.842 199.946 227.822 187.985C233.803 176.024 239.106 167.392 239.106 167.392C239.106 167.392 231.8 160.085 221.165 143.484C210.53 126.882 202.589 119.505 202.589 119.505Z" fill="white"/>
<path d="M234.494 175.305L231.998 158.887C229.078 155.107 225.397 150.001 221.179 143.372C210.558 126.756 202.589 119.393 202.589 119.393C197.907 130.567 195.426 142.541 195.282 154.656C195.434 162.225 196.664 169.734 198.936 176.956L234.198 175.827L234.494 175.305Z" fill="#FFDC00"/>
<path opacity="0.5" d="M234.494 175.305L231.998 158.887C229.078 155.107 225.397 150.001 221.179 143.372C210.558 126.756 202.589 119.393 202.589 119.393C197.907 130.567 195.426 142.541 195.282 154.656C195.434 162.225 196.664 169.734 198.936 176.956L234.198 175.827L234.494 175.305Z" fill="white"/>
<path d="M221.179 143.427C210.558 126.812 202.589 119.449 202.589 119.449C197.906 130.623 195.425 142.596 195.282 154.711C195.314 158.686 195.691 162.65 196.411 166.559L226.144 167.476L233.408 160.692C229.044 155.146 224.962 149.384 221.179 143.427Z" fill="#263238" stroke="#263238" stroke-linecap="round" stroke-linejoin="round"/>
<path d="M202.589 119.505C197.906 130.68 195.425 142.653 195.282 154.768C195.282 174.035 205.24 193.966 209.232 203.261C213.224 212.556 222.519 224.517 222.519 224.517C222.519 224.517 221.842 199.946 227.822 187.985C233.803 176.024 239.106 167.392 239.106 167.392C239.106 167.392 231.8 160.085 221.165 143.484C210.53 126.882 202.589 119.505 202.589 119.505Z" stroke="#263238" stroke-linecap="round" stroke-linejoin="round"/>
<path d="M157.904 162.004C157.904 162.004 171.304 129.703 193.237 121.791" stroke="#263238" stroke-linecap="round" stroke-linejoin="round"/>
<path d="M100.017 188.803C100.017 188.803 118.354 218.664 120.737 244.25" stroke="#263238" stroke-linecap="round" stroke-linejoin="round"/>
<path d="M122.557 216.224C122.557 216.224 128.65 254.617 128.65 274.054C128.554 285.098 129.574 296.123 131.697 306.961" stroke="#263238" stroke-linecap="round" stroke-linejoin="round"/>
<path d="M128.044 265.577C131.488 250.593 133.127 235.251 132.924 219.877" stroke="#263238" stroke-linecap="round" stroke-linejoin="round"/>
<path d="M294.991 216.83C294.991 216.83 296.824 238.777 301.084 265.576C305.344 292.376 307.784 305.79 307.784 305.79" stroke="#263238" stroke-linecap="round" stroke-linejoin="round"/>
<path d="M195.607 268.807C195.607 268.807 182.701 295.085 180.796 298.907C178.892 302.73 176.015 309.415 176.015 309.415H198.936C198.936 309.415 211.827 300.811 213.266 300.332C214.705 299.852 222.815 300.332 228.542 297.948C234.269 295.564 240.009 289.344 245.736 287.919C251.463 286.495 259.107 284.097 261.505 284.097C263.903 284.097 272.014 286.481 277.261 286.481C282.508 286.481 289.208 281.234 284.976 278.85C280.745 276.466 277.331 277.891 271.604 275.027C265.878 272.164 263.96 271.205 258.233 272.206C252.506 273.208 247.725 269.823 233.874 266.959C220.023 264.096 204.197 263.08 195.607 268.807Z" fill="white" stroke="#263238" stroke-linecap="round" stroke-linejoin="round"/>
<path d="M235.608 254.138C235.608 254.138 243.126 247.734 249.304 250.823C255.482 253.912 252.619 273.8 254.171 281.755C255.722 289.71 257.485 293.9 253.508 294.351C249.53 294.802 247.978 291.699 244.889 284.633C241.8 277.566 235.608 254.138 235.608 254.138Z" fill="white" stroke="#263238" stroke-linecap="round" stroke-linejoin="round"/>
<path d="M217.272 258.116C217.272 258.116 227.216 249.272 231.631 249.272C236.046 249.272 239.586 264.957 242.915 271.84C246.244 278.723 251.124 286.876 249.093 289.048C247.062 291.22 242.901 292.137 239.36 288.385C235.82 284.633 228.076 268.06 225.89 265.408C223.225 262.743 220.342 260.303 217.272 258.116Z" fill="white" stroke="#263238" stroke-linecap="round" stroke-linejoin="round"/>
<path d="M207.102 261.204C207.102 261.204 207.765 258.115 217.272 258.115C226.779 258.115 234.946 271.374 240.686 274.463C246.427 277.552 244.664 278.878 240.475 280.867C236.286 282.855 233.62 280.655 225.227 276.014C216.835 271.374 207.102 261.204 207.102 261.204Z" fill="white" stroke="#263238" stroke-linecap="round" stroke-linejoin="round"/>
<path d="M196.552 283.138L203.251 272.15C206.365 272.764 209.301 274.07 211.841 275.972C215.184 278.793 221.391 284.576 229.035 284.576C236.68 284.576 239.064 282.193 236.201 279.795C233.337 277.397 224.733 273.109 218.527 268.807C212.321 264.505 207.539 257.354 202.772 258.778C198.004 260.203 194.704 269.287 189.4 281.234" fill="white"/>
<path d="M196.552 283.138L203.251 272.15C206.365 272.764 209.301 274.07 211.841 275.972C215.184 278.793 221.391 284.576 229.035 284.576C236.68 284.576 239.064 282.193 236.201 279.795C233.337 277.397 224.733 273.109 218.527 268.807C212.321 264.505 207.539 257.354 202.772 258.778C198.004 260.203 194.704 269.287 189.4 281.234" stroke="#263238" stroke-linecap="round" stroke-linejoin="round"/>
<path d="M303.44 72.7049C303.44 72.7049 301.592 99.998 298.644 109.589C295.696 119.181 291.591 148.703 282.776 161.609C273.96 174.515 262.493 185.587 249.572 186.335C236.652 187.082 219.331 164.19 209.359 149.436C199.387 134.682 198.301 119.928 194.972 105.541C191.643 91.1542 190.924 74.5103 196.086 61.6324C201.249 48.7546 227.117 32.8582 248.839 34.706C270.561 36.5537 297.896 47.9929 303.44 56.47C305.018 58.8828 305.86 61.7038 305.86 64.5874C305.86 67.471 305.018 70.292 303.44 72.7049Z" fill="white"/>
<path d="M196.115 61.6327C190.952 74.5528 191.686 91.1544 195 105.542C198.315 119.929 199.429 134.682 209.387 149.436C219.346 164.19 236.695 187.068 249.601 186.335C254.912 185.89 260.009 184.04 264.369 180.975L257.81 181.61C244.269 182.893 237.823 173.88 229.445 156.475C221.066 139.069 226.229 128.772 222.999 125.542C219.769 122.312 219.783 99.1238 219.783 99.1238C219.783 99.1238 222.364 88.813 223.648 85.0188C224.931 81.2245 238.472 75.9916 238.472 75.9916C238.472 75.9916 238.472 85.6535 247.753 84.9482C257.034 84.243 263.607 74.0592 263.607 74.0592L262.309 36.9207C257.883 35.9011 253.392 35.1848 248.867 34.7767C227.146 32.8585 201.249 48.7266 196.115 61.6327Z" fill="#FFDC00"/>
<path opacity="0.5" d="M196.115 61.6327C190.952 74.5528 191.686 91.1544 195 105.542C198.315 119.929 199.429 134.682 209.387 149.436C219.346 164.19 236.695 187.068 249.601 186.335C254.912 185.89 260.009 184.04 264.369 180.975L257.81 181.61C244.269 182.893 237.823 173.88 229.445 156.475C221.066 139.069 226.229 128.772 222.999 125.542C219.769 122.312 219.783 99.1238 219.783 99.1238C219.783 99.1238 222.364 88.813 223.648 85.0188C224.931 81.2245 238.472 75.9916 238.472 75.9916C238.472 75.9916 238.472 85.6535 247.753 84.9482C257.034 84.243 263.607 74.0592 263.607 74.0592L262.309 36.9207C257.883 35.9011 253.392 35.1848 248.867 34.7767C227.146 32.8585 201.249 48.7266 196.115 61.6327Z" fill="white"/>
<path d="M303.44 72.7049C303.44 72.7049 301.592 99.998 298.644 109.589C295.696 119.181 291.591 148.703 282.776 161.609C273.96 174.515 262.493 185.587 249.572 186.335C236.652 187.082 219.331 164.19 209.359 149.436C199.387 134.682 198.301 119.928 194.972 105.541C191.643 91.1542 190.924 74.5103 196.086 61.6324C201.249 48.7546 227.117 32.8582 248.839 34.706C270.561 36.5537 297.896 47.9929 303.44 56.47C305.018 58.8828 305.86 61.7038 305.86 64.5874C305.86 67.471 305.018 70.292 303.44 72.7049V72.7049Z" stroke="#263238" stroke-linecap="round" stroke-linejoin="round"/>
<path d="M266.174 109.223C266.174 109.223 266.541 128.039 276.132 132.834C276.449 132.95 276.736 133.135 276.972 133.377C277.207 133.618 277.385 133.91 277.492 134.23C277.599 134.55 277.633 134.89 277.59 135.225C277.548 135.559 277.43 135.88 277.246 136.163C276.132 138.744 267.655 140.211 261.731 135.782" stroke="#263238" stroke-linecap="round" stroke-linejoin="round"/>
<path d="M274.327 93.2419C273.891 93.2416 273.465 93.1065 273.109 92.8551C272.752 92.6038 272.482 92.2484 272.336 91.8377C272.189 91.427 272.173 90.981 272.289 90.5607C272.406 90.1404 272.649 89.7664 272.987 89.4899C273.325 89.2078 281.45 82.6631 294.37 87.1908C294.899 87.3778 295.333 87.7675 295.575 88.2741C295.817 88.7806 295.848 89.3626 295.661 89.8919C295.474 90.4212 295.084 90.8546 294.577 91.0966C294.071 91.3387 293.489 91.3696 292.959 91.1825C282.282 87.4306 275.737 92.7059 275.681 92.7623C275.299 93.0752 274.82 93.2448 274.327 93.2419Z" fill="#263238"/>
<path d="M252.097 90.6614C251.727 90.6645 251.362 90.5696 251.04 90.3863C250.718 90.203 250.45 89.9378 250.263 89.6176C250.038 89.2367 244.96 80.8866 234.974 82.2689C234.418 82.3452 233.855 82.1979 233.408 81.8594C232.961 81.5209 232.667 81.0188 232.59 80.4635C232.517 79.907 232.665 79.3442 233.003 78.8959C233.341 78.4476 233.84 78.1495 234.395 78.0656C247.259 76.2884 253.649 87.0223 253.917 87.4877C254.199 87.9723 254.277 88.5489 254.134 89.0911C253.991 89.6333 253.639 90.0966 253.155 90.3793C252.834 90.5657 252.469 90.6631 252.097 90.6614Z" fill="#263238"/>
<path d="M258.388 156.052H264.355" stroke="#263238" stroke-linecap="round" stroke-linejoin="round"/>
<path d="M204.197 18.8804C204.197 18.8804 180.218 26.6382 178.371 36.2296C176.523 45.821 188.71 79.3909 188.343 83.439C187.976 87.4872 184.281 90.8301 188.343 96.726C192.405 102.622 199.768 111.48 202.73 106.684C205.692 101.888 201.616 94.8782 206.411 91.9303C211.207 88.9823 217.85 84.1866 214.155 77.9099C210.459 71.6332 212.321 62.3944 220.065 61.3083C227.809 60.2222 234.452 55.0457 230.39 60.9416C226.328 66.8375 214.536 81.2387 220.798 82.3389C227.061 83.4391 251.829 66.8234 251.829 66.8234C251.829 66.8234 243.366 83.7494 247.767 84.8919C252.168 86.0344 286.88 63.1278 286.88 63.1278C286.88 63.1278 303.482 84.8919 306.797 83.4108C310.111 81.9298 307.911 69.7713 307.911 69.7713C307.911 69.7713 310.492 86.0062 315.655 86.6973C320.817 87.3885 327.827 78.5728 325.613 73.0436C323.398 67.5145 319.674 59.785 319.674 59.785C319.674 59.785 327.051 57.9372 329.999 54.6084C332.947 51.2796 332.581 50.927 326.304 49.8127C320.027 48.6984 315.245 41.7023 309.378 35.4256C303.51 29.1489 293.862 20.6718 293.862 20.6718C293.862 20.6718 304.921 25.4675 299.025 19.9383C293.129 14.4092 261.759 1.8557 244.791 1.8557C227.823 1.8557 221.504 10.7278 221.504 10.7278C221.504 10.7278 224.452 -0.344675 221.123 1.13635C217.794 2.61738 214.07 11.4612 214.07 11.4612C214.07 11.4612 206.327 9.24672 202.279 11.842C198.23 14.4374 197.102 17.0045 200.431 17.0045C202.3 16.9795 204.162 17.2266 205.96 17.7379L204.197 18.8804Z" fill="#263238"/>
<path opacity="0.2" d="M202.73 106.641C205.678 101.845 201.615 94.8352 206.411 91.8873C211.207 88.9393 217.85 84.1436 214.155 77.8669C210.459 71.5902 212.321 62.3514 220.065 61.2653C225.89 60.4331 231.095 57.3018 231.589 58.3315C234.085 54.8899 235.157 52.2663 231.589 53.3242C224.734 55.3835 203.491 58.811 205.537 65.6661C207.582 72.5211 208.964 75.9345 203.491 77.9939C198.019 80.0532 198.005 84.8489 198.005 90.3357C198.005 95.0186 195.79 102.79 195.184 104.948C198.16 107.741 201.108 109.279 202.73 106.641Z" fill="white"/>
<path opacity="0.2" d="M307.868 69.757L308.348 76.6261C308.348 76.6261 308.447 77.0352 308.574 77.7122C308.564 75.1739 308.347 72.6407 307.925 70.1378C308.362 72.578 310.915 86.0482 315.612 86.7253C320.774 87.4587 327.785 78.6008 325.57 73.0716C325.091 71.8868 324.541 70.5892 323.99 69.2915C322.284 71.9573 319.942 74.5668 317.262 74.5668C311.775 74.5668 307.868 69.757 307.868 69.757Z" fill="white"/>
<path opacity="0.2" d="M300.576 79.2637C296.034 69.0517 291.055 55.8071 288.474 51.9564C284.369 45.7925 269.968 68.4028 257.641 75.9349C252.605 79.0098 248.98 80.3498 246.681 80.378C246.23 82.7335 246.385 84.6095 247.725 84.8775C252.154 85.9918 286.838 63.1135 286.838 63.1135C291.131 68.7344 295.716 74.1252 300.576 79.2637Z" fill="white"/>
<path opacity="0.2" d="M219.345 78.3039C218.668 80.4338 218.922 81.9571 220.756 82.2957C225.495 83.1278 240.728 73.8327 247.922 69.2908C251.998 64.2836 257.048 61.1946 257.598 56.7515C258.275 51.2646 232.209 73.1979 223.337 77.3166C222.122 78.0054 220.741 78.347 219.345 78.3039Z" fill="white"/>
<path d="M204.197 18.8804C204.197 18.8804 180.218 26.6382 178.371 36.2296C176.523 45.821 188.71 79.3909 188.343 83.4391C187.976 87.4872 184.281 90.8301 188.343 96.726C192.405 102.622 199.768 111.48 202.73 106.684C205.692 101.888 201.616 94.8782 206.411 91.9303C211.207 88.9823 217.85 84.1866 214.155 77.9099C210.459 71.6332 212.321 62.3944 220.065 61.3083C227.809 60.2222 234.452 55.0457 230.39 60.9416C226.328 66.8375 214.536 81.2387 220.798 82.3389C227.061 83.4391 251.829 66.8234 251.829 66.8234C251.829 66.8234 243.366 83.7494 247.767 84.8919C252.168 86.0344 286.88 63.1278 286.88 63.1278C286.88 63.1278 303.482 84.8919 306.797 83.4108C310.111 81.9298 307.911 69.7713 307.911 69.7713C307.911 69.7713 310.492 86.0062 315.655 86.6973C320.817 87.3884 327.827 78.5728 325.613 73.0436C323.398 67.5145 319.674 59.785 319.674 59.785C319.674 59.785 327.051 57.9372 329.999 54.6084C332.947 51.2796 332.581 50.927 326.304 49.8127C320.027 48.6984 315.245 41.7023 309.378 35.4256C303.51 29.1489 293.862 20.6718 293.862 20.6718C293.862 20.6718 304.921 25.4675 299.025 19.9383C293.129 14.4092 261.759 1.8557 244.791 1.8557C227.823 1.8557 221.504 10.7278 221.504 10.7278C221.504 10.7278 224.452 -0.344675 221.123 1.13635C217.794 2.61738 214.07 11.4612 214.07 11.4612C214.07 11.4612 206.327 9.24672 202.279 11.842C198.23 14.4374 197.102 17.0045 200.431 17.0045C202.3 16.9795 204.162 17.2266 205.96 17.7379L204.197 18.8804Z" stroke="#263238" stroke-linecap="round" stroke-linejoin="round"/>
<path d="M258.727 94.652C258.727 94.652 253.339 88.8548 238.839 89.2638C224.339 89.6729 213.972 92.1695 211.08 93.8339C208.189 95.4983 209.839 97.5576 210.657 100.463C211.475 103.369 213.563 117.022 216.877 122.411C220.192 127.799 228.895 132.355 234.692 132.355C240.489 132.355 243.804 131.113 250.024 126.557C256.244 122.002 260.377 105.4 260.8 104.187C261.223 102.974 260.8 100.463 264.933 101.704C269.066 102.946 269.489 121.169 270.744 124.907C272 128.645 280.265 133.596 286.894 133.596C293.524 133.596 299.744 130.281 305.132 120.76C308.35 115.103 309.656 108.558 308.856 102.099C308.856 102.099 314.653 97.5435 310.097 95.8791C305.541 94.2147 289.871 89.8703 279.856 92.9876C267.839 96.7254 261.618 95.8932 258.727 94.652Z" fill="#263238"/>
<path d="M213.153 94.2437L185.381 97.9674V101.282L212.73 99.6318C212.73 99.6318 210.22 95.4849 213.153 94.2437Z" fill="#263238"/>
<path d="M286.88 129.562C278.756 129.562 274.609 125.246 273.706 117.756C272.62 108.785 271.661 102.537 268.84 99.5323C272.989 99.0396 277.08 98.142 281.055 96.8524C283.382 96.2067 285.791 95.9027 288.206 95.9497C294.363 96.1201 300.47 97.1212 306.359 98.9258L304.455 100.449L304.878 102.833C305.486 108.357 304.342 113.934 301.606 118.772C296.147 128.448 290.618 129.562 286.88 129.562ZM234.692 128.321C230.46 128.321 222.97 124.611 220.319 120.295C218.189 116.853 216.412 108.136 215.452 103.468C215.072 101.578 214.789 100.209 214.55 99.3489C214.31 98.4885 214.112 98.009 213.887 97.3884L213.76 97.0357C217.018 95.6252 226.243 93.6787 238.951 93.312H240.362C251.491 93.312 255.779 97.3742 255.877 97.4166L256.456 98.0513L257.245 98.3898C257.786 98.6101 258.336 98.8031 258.896 98.9681C257.933 100.014 257.308 101.327 257.104 102.734V103.002C257.104 103.073 256.978 103.411 256.836 103.919C252.718 118.461 249.149 122.326 247.795 123.313C241.772 127.587 239.262 128.321 234.692 128.321Z" fill="#FFDC00"/>
<path d="M224.931 100.054H222.801C222.664 100.05 222.533 99.9944 222.436 99.8972C222.339 99.8001 222.283 99.6694 222.279 99.5321C222.279 99.3937 222.334 99.261 222.432 99.1631C222.53 99.0652 222.663 99.0103 222.801 99.0103H224.931C225 99.0103 225.067 99.0238 225.131 99.05C225.194 99.0762 225.252 99.1147 225.3 99.1631C225.349 99.2116 225.387 99.2691 225.413 99.3325C225.439 99.3958 225.453 99.4636 225.453 99.5321C225.449 99.6694 225.393 99.8001 225.296 99.8972C225.199 99.9944 225.068 100.05 224.931 100.054ZM225.453 101.958C225.453 101.89 225.439 101.822 225.413 101.758C225.387 101.695 225.349 101.638 225.3 101.589C225.252 101.541 225.194 101.502 225.131 101.476C225.067 101.45 225 101.436 224.931 101.436H222.801C222.663 101.436 222.53 101.491 222.432 101.589C222.334 101.687 222.279 101.82 222.279 101.958C222.283 102.095 222.339 102.226 222.436 102.323C222.533 102.42 222.664 102.477 222.801 102.48H224.931C225.068 102.477 225.199 102.42 225.296 102.323C225.393 102.226 225.449 102.095 225.453 101.958ZM225.453 104.384C225.449 104.247 225.393 104.116 225.296 104.019C225.199 103.922 225.068 103.866 224.931 103.862H222.801C222.664 103.866 222.533 103.922 222.436 104.019C222.339 104.116 222.283 104.247 222.279 104.384C222.279 104.523 222.334 104.655 222.432 104.753C222.53 104.851 222.663 104.906 222.801 104.906H224.931C225 104.906 225.067 104.893 225.131 104.866C225.194 104.84 225.252 104.802 225.3 104.753C225.349 104.705 225.387 104.647 225.413 104.584C225.439 104.521 225.453 104.453 225.453 104.384ZM225.453 106.81C225.449 106.673 225.393 106.542 225.296 106.445C225.199 106.348 225.068 106.292 224.931 106.288H222.801C222.664 106.292 222.533 106.348 222.436 106.445C222.339 106.542 222.283 106.673 222.279 106.81C222.279 106.949 222.334 107.081 222.432 107.179C222.53 107.277 222.663 107.332 222.801 107.332H224.931C225 107.332 225.067 107.319 225.131 107.292C225.194 107.266 225.252 107.228 225.3 107.179C225.349 107.131 225.387 107.073 225.413 107.01C225.439 106.947 225.453 106.879 225.453 106.81ZM225.453 109.236C225.449 109.099 225.393 108.968 225.296 108.871C225.199 108.774 225.068 108.718 224.931 108.715H222.801C222.664 108.718 222.533 108.774 222.436 108.871C222.339 108.968 222.283 109.099 222.279 109.236C222.279 109.375 222.334 109.508 222.432 109.605C222.53 109.703 222.663 109.758 222.801 109.758H224.931C225 109.758 225.067 109.745 225.131 109.719C225.194 109.692 225.252 109.654 225.3 109.605C225.349 109.557 225.387 109.499 225.413 109.436C225.439 109.373 225.453 109.305 225.453 109.236ZM225.453 111.662C225.449 111.525 225.393 111.394 225.296 111.297C225.199 111.2 225.068 111.144 224.931 111.141H222.801C222.664 111.144 222.533 111.2 222.436 111.297C222.339 111.394 222.283 111.525 222.279 111.662C222.279 111.801 222.334 111.934 222.432 112.031C222.53 112.129 222.663 112.184 222.801 112.184H224.931C225 112.184 225.067 112.171 225.131 112.145C225.194 112.118 225.252 112.08 225.3 112.031C225.349 111.983 225.387 111.925 225.413 111.862C225.439 111.799 225.453 111.731 225.453 111.662ZM225.453 114.089C225.449 113.951 225.393 113.821 225.296 113.723C225.199 113.626 225.068 113.57 224.931 113.567H222.801C222.676 113.587 222.562 113.652 222.479 113.749C222.397 113.845 222.352 113.968 222.352 114.096C222.352 114.223 222.397 114.346 222.479 114.443C222.562 114.539 222.676 114.604 222.801 114.625H224.931C225.071 114.621 225.203 114.563 225.301 114.463C225.398 114.362 225.453 114.228 225.453 114.089ZM225.453 116.515C225.449 116.377 225.393 116.247 225.296 116.15C225.199 116.052 225.068 115.996 224.931 115.993H222.801C222.676 116.013 222.562 116.078 222.479 116.175C222.397 116.271 222.352 116.395 222.352 116.522C222.352 116.649 222.397 116.772 222.479 116.869C222.562 116.966 222.676 117.03 222.801 117.051H224.931C225.071 117.047 225.203 116.989 225.301 116.889C225.398 116.789 225.453 116.654 225.453 116.515ZM233.394 99.5886C233.396 99.5195 233.384 99.4508 233.358 99.3866C233.333 99.3224 233.294 99.2641 233.246 99.2152C233.197 99.1663 233.138 99.128 233.074 99.1025C233.01 99.0769 232.941 99.0647 232.872 99.0667H227.301C227.232 99.0647 227.163 99.0769 227.099 99.1025C227.034 99.128 226.976 99.1663 226.927 99.2152C226.878 99.2641 226.84 99.3224 226.815 99.3866C226.789 99.4508 226.777 99.5195 226.779 99.5886C226.779 99.727 226.834 99.8597 226.932 99.9576C227.03 100.055 227.162 100.11 227.301 100.11H232.872C232.946 100.111 233.019 100.096 233.086 100.066C233.153 100.036 233.213 99.9928 233.263 99.9382C233.312 99.8836 233.349 99.8192 233.372 99.7492C233.394 99.6792 233.402 99.6053 233.394 99.5321V99.5886ZM233.394 102.015C233.396 101.946 233.384 101.877 233.358 101.813C233.333 101.748 233.294 101.69 233.246 101.641C233.197 101.592 233.138 101.554 233.074 101.529C233.01 101.503 232.941 101.491 232.872 101.493H227.301C227.232 101.491 227.163 101.503 227.099 101.529C227.034 101.554 226.976 101.592 226.927 101.641C226.878 101.69 226.84 101.748 226.815 101.813C226.789 101.877 226.777 101.946 226.779 102.015C226.779 102.153 226.834 102.286 226.932 102.384C227.03 102.482 227.162 102.537 227.301 102.537H232.872C232.946 102.537 233.019 102.522 233.086 102.492C233.153 102.462 233.213 102.419 233.263 102.364C233.312 102.31 233.349 102.245 233.372 102.175C233.394 102.105 233.402 102.031 233.394 101.958V102.015ZM233.394 104.441C233.394 104.302 233.339 104.17 233.241 104.072C233.143 103.974 233.011 103.919 232.872 103.919H227.301C227.162 103.919 227.03 103.974 226.932 104.072C226.834 104.17 226.779 104.302 226.779 104.441C226.777 104.51 226.789 104.579 226.815 104.643C226.84 104.707 226.878 104.765 226.927 104.814C226.976 104.863 227.034 104.901 227.099 104.927C227.163 104.952 227.232 104.965 227.301 104.963H232.872C232.946 104.965 233.02 104.952 233.089 104.923C233.157 104.894 233.218 104.85 233.268 104.795C233.318 104.74 233.355 104.675 233.377 104.604C233.399 104.533 233.404 104.458 233.394 104.384V104.441ZM233.394 106.867C233.394 106.728 233.339 106.596 233.241 106.498C233.143 106.4 233.011 106.345 232.872 106.345H227.301C227.162 106.345 227.03 106.4 226.932 106.498C226.834 106.596 226.779 106.728 226.779 106.867C226.777 106.936 226.789 107.005 226.815 107.069C226.84 107.133 226.878 107.191 226.927 107.24C226.976 107.289 227.034 107.327 227.099 107.353C227.163 107.378 227.232 107.391 227.301 107.389H232.872C232.946 107.391 233.02 107.378 233.089 107.349C233.157 107.32 233.218 107.277 233.268 107.221C233.318 107.166 233.355 107.101 233.377 107.03C233.399 106.959 233.404 106.884 233.394 106.81V106.867ZM233.394 109.293C233.394 109.154 233.339 109.022 233.241 108.924C233.143 108.826 233.011 108.771 232.872 108.771H227.301C227.162 108.771 227.03 108.826 226.932 108.924C226.834 109.022 226.779 109.154 226.779 109.293C226.777 109.362 226.789 109.431 226.815 109.495C226.84 109.559 226.878 109.617 226.927 109.666C226.976 109.715 227.034 109.753 227.099 109.779C227.163 109.804 227.232 109.817 227.301 109.815H232.872C232.946 109.817 233.02 109.804 233.089 109.775C233.157 109.746 233.218 109.703 233.268 109.647C233.318 109.592 233.355 109.527 233.377 109.456C233.399 109.385 233.404 109.31 233.394 109.236V109.293ZM240.08 111.719C240.076 111.579 240.018 111.446 239.918 111.349C239.818 111.251 239.684 111.197 239.544 111.197H233.972C233.835 111.201 233.704 111.257 233.607 111.354C233.51 111.451 233.454 111.582 233.45 111.719C233.45 111.857 233.505 111.99 233.603 112.088C233.701 112.186 233.834 112.241 233.972 112.241H239.544C239.619 112.243 239.693 112.23 239.762 112.201C239.831 112.172 239.893 112.129 239.944 112.074C239.995 112.019 240.033 111.954 240.057 111.883C240.08 111.812 240.088 111.737 240.08 111.662V111.719ZM240.08 114.145C240.076 114.005 240.018 113.873 239.918 113.775C239.818 113.678 239.684 113.623 239.544 113.623H233.972C233.847 113.644 233.733 113.708 233.651 113.805C233.568 113.902 233.523 114.025 233.523 114.152C233.523 114.279 233.568 114.402 233.651 114.499C233.733 114.596 233.847 114.66 233.972 114.681H239.544C239.619 114.681 239.694 114.666 239.763 114.635C239.832 114.605 239.894 114.56 239.944 114.505C239.995 114.449 240.033 114.383 240.056 114.311C240.08 114.239 240.088 114.163 240.08 114.089V114.145ZM240.08 116.571C240.076 116.431 240.018 116.299 239.918 116.201C239.818 116.104 239.684 116.049 239.544 116.049H233.972C233.847 116.07 233.733 116.134 233.651 116.231C233.568 116.328 233.523 116.451 233.523 116.578C233.523 116.705 233.568 116.828 233.651 116.925C233.733 117.022 233.847 117.086 233.972 117.107H239.544C239.619 117.107 239.694 117.092 239.763 117.062C239.832 117.031 239.894 116.987 239.944 116.931C239.995 116.875 240.033 116.809 240.056 116.737C240.08 116.665 240.088 116.59 240.08 116.515V116.571ZM235.848 99.645C235.848 99.4841 235.784 99.3298 235.671 99.2161C235.557 99.1024 235.403 99.0385 235.242 99.0385C235.081 99.0385 234.927 99.1024 234.813 99.2161C234.699 99.3298 234.635 99.4841 234.635 99.645C234.635 99.8059 234.699 99.9601 234.813 100.074C234.927 100.188 235.081 100.252 235.242 100.252C235.332 100.253 235.421 100.235 235.503 100.197C235.585 100.16 235.658 100.105 235.716 100.036C235.774 99.9671 235.816 99.8862 235.839 99.799C235.862 99.7119 235.865 99.6207 235.848 99.5321V99.645ZM237.668 99.645C237.668 99.4841 237.604 99.3298 237.49 99.2161C237.376 99.1024 237.222 99.0385 237.061 99.0385C236.9 99.0385 236.746 99.1024 236.632 99.2161C236.519 99.3298 236.455 99.4841 236.455 99.645C236.455 99.8059 236.519 99.9601 236.632 100.074C236.746 100.188 236.9 100.252 237.061 100.252C237.151 100.253 237.241 100.235 237.323 100.197C237.405 100.16 237.478 100.105 237.536 100.036C237.594 99.9671 237.636 99.8862 237.659 99.799C237.681 99.7119 237.685 99.6207 237.668 99.5321V99.645ZM239.487 99.645C239.487 99.4841 239.423 99.3298 239.31 99.2161C239.196 99.1024 239.042 99.0385 238.881 99.0385C238.72 99.0385 238.566 99.1024 238.452 99.2161C238.338 99.3298 238.274 99.4841 238.274 99.645C238.274 99.8059 238.338 99.9601 238.452 100.074C238.566 100.188 238.72 100.252 238.881 100.252C238.971 100.253 239.06 100.235 239.142 100.197C239.224 100.16 239.297 100.105 239.355 100.036C239.413 99.9671 239.455 99.8862 239.478 99.799C239.501 99.7119 239.504 99.6207 239.487 99.5321V99.645ZM241.321 99.645C241.324 99.5217 241.29 99.4003 241.223 99.2964C241.157 99.1925 241.061 99.1108 240.948 99.0617C240.835 99.0125 240.71 98.9982 240.588 99.0205C240.467 99.0428 240.355 99.1008 240.267 99.187C240.179 99.2732 240.118 99.3837 240.093 99.5045C240.068 99.6253 240.079 99.7508 240.126 99.865C240.172 99.9792 240.252 100.077 240.354 100.146C240.457 100.215 240.577 100.251 240.7 100.252C240.791 100.253 240.881 100.234 240.963 100.197C241.046 100.16 241.119 100.105 241.178 100.036C241.237 99.9678 241.281 99.8872 241.305 99.8001C241.33 99.713 241.335 99.6215 241.321 99.5321V99.645ZM243.141 99.645C243.141 99.4841 243.077 99.3298 242.963 99.2161C242.849 99.1024 242.695 99.0385 242.534 99.0385C242.373 99.0385 242.219 99.1024 242.105 99.2161C241.991 99.3298 241.928 99.4841 241.928 99.645C241.928 99.8059 241.991 99.9601 242.105 100.074C242.219 100.188 242.373 100.252 242.534 100.252C242.624 100.253 242.713 100.235 242.796 100.197C242.878 100.16 242.95 100.105 243.008 100.036C243.066 99.9671 243.108 99.8862 243.131 99.799C243.154 99.7119 243.157 99.6207 243.141 99.5321V99.645ZM244.96 99.645C244.96 99.4841 244.896 99.3298 244.782 99.2161C244.669 99.1024 244.514 99.0385 244.354 99.0385C244.193 99.0385 244.039 99.1024 243.925 99.2161C243.811 99.3298 243.747 99.4841 243.747 99.645C243.747 99.8059 243.811 99.9601 243.925 100.074C244.039 100.188 244.193 100.252 244.354 100.252C244.444 100.253 244.533 100.235 244.615 100.197C244.697 100.16 244.77 100.105 244.828 100.036C244.886 99.9671 244.928 99.8862 244.951 99.799C244.974 99.7119 244.977 99.6207 244.96 99.5321V99.645ZM235.848 104.497C235.848 104.336 235.784 104.182 235.671 104.068C235.557 103.954 235.403 103.891 235.242 103.891C235.081 103.891 234.927 103.954 234.813 104.068C234.699 104.182 234.635 104.336 234.635 104.497C234.635 104.658 234.699 104.812 234.813 104.926C234.927 105.04 235.081 105.104 235.242 105.104C235.332 105.105 235.421 105.087 235.503 105.049C235.585 105.012 235.658 104.957 235.716 104.888C235.774 104.819 235.816 104.738 235.839 104.651C235.862 104.564 235.865 104.473 235.848 104.384V104.497ZM237.668 104.497C237.668 104.336 237.604 104.182 237.49 104.068C237.376 103.954 237.222 103.891 237.061 103.891C236.9 103.891 236.746 103.954 236.632 104.068C236.519 104.182 236.455 104.336 236.455 104.497C236.455 104.658 236.519 104.812 236.632 104.926C236.746 105.04 236.9 105.104 237.061 105.104C237.151 105.105 237.241 105.087 237.323 105.049C237.405 105.012 237.478 104.957 237.536 104.888C237.594 104.819 237.636 104.738 237.659 104.651C237.681 104.564 237.685 104.473 237.668 104.384V104.497ZM239.487 104.497C239.487 104.336 239.423 104.182 239.31 104.068C239.196 103.954 239.042 103.891 238.881 103.891C238.72 103.891 238.566 103.954 238.452 104.068C238.338 104.182 238.274 104.336 238.274 104.497C238.274 104.658 238.338 104.812 238.452 104.926C238.566 105.04 238.72 105.104 238.881 105.104C238.971 105.105 239.06 105.087 239.142 105.049C239.224 105.012 239.297 104.957 239.355 104.888C239.413 104.819 239.455 104.738 239.478 104.651C239.501 104.564 239.504 104.473 239.487 104.384V104.497ZM241.321 104.497C241.324 104.374 241.29 104.252 241.223 104.149C241.157 104.045 241.061 103.963 240.948 103.914C240.835 103.865 240.71 103.85 240.588 103.873C240.467 103.895 240.355 103.953 240.267 104.039C240.179 104.125 240.118 104.236 240.093 104.357C240.068 104.477 240.079 104.603 240.126 104.717C240.172 104.831 240.252 104.929 240.354 104.998C240.457 105.067 240.577 105.104 240.7 105.104C240.791 105.105 240.881 105.086 240.963 105.049C241.046 105.012 241.119 104.957 241.178 104.888C241.237 104.82 241.281 104.739 241.305 104.652C241.33 104.565 241.335 104.474 241.321 104.384V104.497ZM243.141 104.497C243.141 104.336 243.077 104.182 242.963 104.068C242.849 103.954 242.695 103.891 242.534 103.891C242.373 103.891 242.219 103.954 242.105 104.068C241.991 104.182 241.928 104.336 241.928 104.497C241.928 104.658 241.991 104.812 242.105 104.926C242.219 105.04 242.373 105.104 242.534 105.104C242.624 105.105 242.713 105.087 242.796 105.049C242.878 105.012 242.95 104.957 243.008 104.888C243.066 104.819 243.108 104.738 243.131 104.651C243.154 104.564 243.157 104.473 243.141 104.384V104.497ZM244.96 104.497C244.96 104.336 244.896 104.182 244.782 104.068C244.669 103.954 244.514 103.891 244.354 103.891C244.193 103.891 244.039 103.954 243.925 104.068C243.811 104.182 243.747 104.336 243.747 104.497C243.747 104.658 243.811 104.812 243.925 104.926C244.039 105.04 244.193 105.104 244.354 105.104C244.444 105.105 244.533 105.087 244.615 105.049C244.697 105.012 244.77 104.957 244.828 104.888C244.886 104.819 244.928 104.738 244.951 104.651C244.974 104.564 244.977 104.473 244.96 104.384V104.497ZM242.139 111.479C242.139 111.359 242.104 111.242 242.037 111.142C241.97 111.042 241.876 110.965 241.765 110.919C241.654 110.873 241.532 110.861 241.414 110.884C241.297 110.908 241.189 110.965 241.104 111.05C241.019 111.135 240.961 111.243 240.938 111.361C240.914 111.478 240.926 111.6 240.972 111.711C241.018 111.822 241.096 111.917 241.196 111.983C241.295 112.05 241.413 112.086 241.533 112.086C241.617 112.077 241.698 112.052 241.772 112.01C241.845 111.969 241.909 111.912 241.96 111.844C242.01 111.777 242.046 111.699 242.065 111.617C242.083 111.534 242.085 111.449 242.069 111.366L242.139 111.479ZM243.959 111.479C243.959 111.318 243.895 111.164 243.781 111.05C243.667 110.936 243.513 110.873 243.352 110.873C243.191 110.873 243.037 110.936 242.923 111.05C242.81 111.164 242.746 111.318 242.746 111.479C242.746 111.64 242.81 111.794 242.923 111.908C243.037 112.022 243.191 112.086 243.352 112.086C243.436 112.077 243.518 112.052 243.591 112.01C243.665 111.969 243.729 111.912 243.779 111.844C243.83 111.777 243.865 111.699 243.884 111.617C243.903 111.534 243.904 111.449 243.888 111.366L243.959 111.479ZM245.778 111.479C245.778 111.318 245.714 111.164 245.601 111.05C245.487 110.936 245.333 110.873 245.172 110.873C245.011 110.873 244.857 110.936 244.743 111.05C244.629 111.164 244.565 111.318 244.565 111.479C244.565 111.64 244.629 111.794 244.743 111.908C244.857 112.022 245.011 112.086 245.172 112.086C245.256 112.077 245.337 112.052 245.411 112.01C245.484 111.969 245.548 111.912 245.599 111.844C245.649 111.777 245.685 111.699 245.704 111.617C245.722 111.534 245.724 111.449 245.708 111.366L245.778 111.479ZM247.598 111.479C247.598 111.318 247.534 111.164 247.42 111.05C247.306 110.936 247.152 110.873 246.991 110.873C246.83 110.873 246.676 110.936 246.562 111.05C246.449 111.164 246.385 111.318 246.385 111.479C246.385 111.64 246.449 111.794 246.562 111.908C246.676 112.022 246.83 112.086 246.991 112.086C247.075 112.077 247.157 112.052 247.23 112.01C247.304 111.969 247.368 111.912 247.418 111.844C247.469 111.777 247.504 111.699 247.523 111.617C247.542 111.534 247.543 111.449 247.527 111.366L247.598 111.479ZM249.431 111.479C249.434 111.355 249.4 111.233 249.333 111.129C249.266 111.025 249.169 110.943 249.055 110.894C248.941 110.846 248.815 110.832 248.693 110.856C248.572 110.879 248.46 110.939 248.372 111.026C248.284 111.114 248.225 111.226 248.202 111.347C248.178 111.469 248.192 111.595 248.24 111.709C248.289 111.823 248.371 111.92 248.475 111.987C248.579 112.054 248.701 112.088 248.825 112.086C248.909 112.077 248.99 112.052 249.064 112.01C249.137 111.969 249.201 111.912 249.252 111.844C249.302 111.777 249.338 111.699 249.357 111.617C249.376 111.534 249.377 111.449 249.361 111.366L249.431 111.479ZM251.251 111.479C251.251 111.318 251.187 111.164 251.073 111.05C250.96 110.936 250.805 110.873 250.644 110.873C250.484 110.873 250.329 110.936 250.216 111.05C250.102 111.164 250.038 111.318 250.038 111.479C250.038 111.64 250.102 111.794 250.216 111.908C250.329 112.022 250.484 112.086 250.644 112.086C250.723 112.07 250.799 112.04 250.866 111.995C250.933 111.951 250.99 111.893 251.035 111.826C251.08 111.759 251.11 111.684 251.126 111.605C251.141 111.526 251.14 111.445 251.124 111.366L251.251 111.479ZM242.139 116.486C242.139 116.326 242.075 116.171 241.961 116.057C241.848 115.944 241.693 115.88 241.533 115.88C241.372 115.88 241.218 115.944 241.104 116.057C240.99 116.171 240.926 116.326 240.926 116.486C240.926 116.647 240.99 116.801 241.104 116.915C241.218 117.029 241.372 117.093 241.533 117.093C241.693 117.093 241.848 117.029 241.961 116.915C242.075 116.801 242.139 116.647 242.139 116.486ZM243.959 116.486C243.959 116.326 243.895 116.171 243.781 116.057C243.667 115.944 243.513 115.88 243.352 115.88C243.191 115.88 243.037 115.944 242.923 116.057C242.81 116.171 242.746 116.326 242.746 116.486C242.749 116.646 242.814 116.798 242.927 116.911C243.04 117.024 243.192 117.089 243.352 117.093C243.436 117.085 243.518 117.059 243.591 117.017C243.665 116.976 243.729 116.919 243.779 116.852C243.83 116.784 243.865 116.706 243.884 116.624C243.903 116.542 243.904 116.456 243.888 116.374L243.959 116.486ZM245.778 116.486C245.778 116.326 245.714 116.171 245.601 116.057C245.487 115.944 245.333 115.88 245.172 115.88C245.011 115.88 244.857 115.944 244.743 116.057C244.629 116.171 244.565 116.326 244.565 116.486C244.569 116.646 244.634 116.798 244.747 116.911C244.86 117.024 245.012 117.089 245.172 117.093C245.256 117.085 245.337 117.059 245.411 117.017C245.484 116.976 245.548 116.919 245.599 116.852C245.649 116.784 245.685 116.706 245.704 116.624C245.722 116.542 245.724 116.456 245.708 116.374L245.778 116.486ZM247.598 116.486C247.598 116.326 247.534 116.171 247.42 116.057C247.306 115.944 247.152 115.88 246.991 115.88C246.83 115.88 246.676 115.944 246.562 116.057C246.449 116.171 246.385 116.326 246.385 116.486C246.388 116.646 246.453 116.798 246.566 116.911C246.679 117.024 246.832 117.089 246.991 117.093C247.075 117.085 247.157 117.059 247.23 117.017C247.304 116.976 247.368 116.919 247.418 116.852C247.469 116.784 247.504 116.706 247.523 116.624C247.542 116.542 247.543 116.456 247.527 116.374L247.598 116.486ZM249.431 116.486C249.409 116.34 249.335 116.206 249.222 116.109C249.11 116.012 248.966 115.959 248.818 115.959C248.669 115.959 248.526 116.012 248.413 116.109C248.301 116.206 248.227 116.34 248.204 116.486C248.227 116.633 248.301 116.767 248.413 116.864C248.526 116.961 248.669 117.014 248.818 117.014C248.966 117.014 249.11 116.961 249.222 116.864C249.335 116.767 249.409 116.633 249.431 116.486ZM251.251 116.486C251.251 116.326 251.187 116.171 251.073 116.057C250.96 115.944 250.805 115.88 250.644 115.88C250.484 115.88 250.329 115.944 250.216 116.057C250.102 116.171 250.038 116.326 250.038 116.486C250.038 116.647 250.102 116.801 250.216 116.915C250.329 117.029 250.484 117.093 250.644 117.093C250.802 117.059 250.941 116.965 251.03 116.83C251.12 116.696 251.153 116.532 251.124 116.374L251.251 116.486Z" fill="#263238"/>
<path d="M276.809 100.054H274.693C274.554 100.054 274.419 99.9997 274.319 99.9023C274.219 99.8048 274.161 99.672 274.157 99.5323C274.157 99.4626 274.171 99.3936 274.198 99.3293C274.226 99.2651 274.265 99.2069 274.315 99.1582C274.365 99.1096 274.424 99.0714 274.489 99.0461C274.554 99.0207 274.624 99.0086 274.693 99.0105H276.809C276.878 99.0085 276.947 99.0207 277.011 99.0462C277.075 99.0718 277.134 99.1101 277.183 99.159C277.231 99.2079 277.27 99.2662 277.295 99.3304C277.321 99.3946 277.333 99.4633 277.331 99.5323C277.331 99.6707 277.276 99.8035 277.178 99.9014C277.08 99.9992 276.948 100.054 276.809 100.054ZM277.331 101.958C277.333 101.889 277.321 101.821 277.295 101.756C277.27 101.692 277.231 101.634 277.183 101.585C277.134 101.536 277.075 101.498 277.011 101.472C276.947 101.447 276.878 101.435 276.809 101.437H274.693C274.624 101.435 274.554 101.447 274.489 101.472C274.424 101.497 274.365 101.536 274.315 101.584C274.265 101.633 274.226 101.691 274.198 101.755C274.171 101.82 274.157 101.889 274.157 101.958C274.161 102.098 274.219 102.231 274.319 102.328C274.419 102.426 274.554 102.48 274.693 102.48H276.809C276.878 102.48 276.946 102.467 277.009 102.441C277.072 102.414 277.13 102.376 277.178 102.327C277.227 102.279 277.265 102.221 277.291 102.158C277.318 102.095 277.331 102.027 277.331 101.958ZM277.331 104.384C277.331 104.246 277.276 104.113 277.178 104.015C277.08 103.918 276.948 103.863 276.809 103.863H274.693C274.554 103.863 274.419 103.917 274.319 104.015C274.219 104.112 274.161 104.245 274.157 104.384C274.157 104.454 274.171 104.523 274.198 104.588C274.226 104.652 274.265 104.71 274.315 104.759C274.365 104.807 274.424 104.845 274.489 104.871C274.554 104.896 274.624 104.908 274.693 104.906H276.809C276.878 104.908 276.947 104.896 277.011 104.871C277.075 104.845 277.134 104.807 277.183 104.758C277.231 104.709 277.27 104.651 277.295 104.586C277.321 104.522 277.333 104.454 277.331 104.384ZM277.331 106.811C277.331 106.672 277.276 106.539 277.178 106.441C277.08 106.344 276.948 106.289 276.809 106.289H274.693C274.554 106.289 274.419 106.343 274.319 106.441C274.219 106.538 274.161 106.671 274.157 106.811C274.157 106.88 274.171 106.949 274.198 107.014C274.226 107.078 274.265 107.136 274.315 107.185C274.365 107.233 274.424 107.271 274.489 107.297C274.554 107.322 274.624 107.334 274.693 107.332H276.809C276.878 107.334 276.947 107.322 277.011 107.297C277.075 107.271 277.134 107.233 277.183 107.184C277.231 107.135 277.27 107.077 277.295 107.013C277.321 106.948 277.333 106.88 277.331 106.811ZM277.331 109.237C277.331 109.098 277.276 108.965 277.178 108.868C277.08 108.77 276.948 108.715 276.809 108.715H274.693C274.554 108.715 274.419 108.769 274.319 108.867C274.219 108.964 274.161 109.097 274.157 109.237C274.157 109.306 274.171 109.375 274.198 109.44C274.226 109.504 274.265 109.562 274.315 109.611C274.365 109.659 274.424 109.697 274.489 109.723C274.554 109.748 274.624 109.76 274.693 109.758H276.809C276.878 109.76 276.947 109.748 277.011 109.723C277.075 109.697 277.134 109.659 277.183 109.61C277.231 109.561 277.27 109.503 277.295 109.439C277.321 109.374 277.333 109.306 277.331 109.237ZM277.331 111.663C277.331 111.524 277.276 111.391 277.178 111.294C277.08 111.196 276.948 111.141 276.809 111.141H274.693C274.554 111.141 274.419 111.195 274.319 111.293C274.219 111.39 274.161 111.523 274.157 111.663C274.157 111.732 274.171 111.801 274.198 111.866C274.226 111.93 274.265 111.988 274.315 112.037C274.365 112.085 274.424 112.124 274.489 112.149C274.554 112.174 274.624 112.186 274.693 112.185H276.809C276.878 112.186 276.947 112.174 277.011 112.149C277.075 112.123 277.134 112.085 277.183 112.036C277.231 111.987 277.27 111.929 277.295 111.865C277.321 111.8 277.333 111.732 277.331 111.663ZM277.331 114.089C277.331 113.95 277.276 113.818 277.178 113.72C277.08 113.622 276.948 113.567 276.809 113.567H274.693C274.617 113.554 274.538 113.559 274.463 113.579C274.388 113.6 274.319 113.637 274.26 113.687C274.201 113.738 274.153 113.8 274.12 113.871C274.088 113.941 274.071 114.018 274.071 114.096C274.071 114.173 274.088 114.25 274.12 114.321C274.153 114.391 274.201 114.454 274.26 114.504C274.319 114.555 274.388 114.591 274.463 114.612C274.538 114.633 274.617 114.637 274.693 114.625H276.809C276.879 114.625 276.948 114.611 277.012 114.584C277.076 114.557 277.135 114.517 277.183 114.467C277.232 114.417 277.27 114.358 277.295 114.293C277.321 114.228 277.333 114.158 277.331 114.089ZM277.331 116.515C277.331 116.376 277.276 116.244 277.178 116.146C277.08 116.048 276.948 115.993 276.809 115.993H274.693C274.617 115.98 274.538 115.985 274.463 116.005C274.388 116.026 274.319 116.063 274.26 116.113C274.201 116.164 274.153 116.226 274.12 116.297C274.088 116.367 274.071 116.444 274.071 116.522C274.071 116.6 274.088 116.676 274.12 116.747C274.153 116.817 274.201 116.88 274.26 116.93C274.319 116.981 274.388 117.017 274.463 117.038C274.538 117.059 274.617 117.063 274.693 117.051H276.809C276.879 117.051 276.948 117.037 277.012 117.01C277.076 116.983 277.135 116.943 277.183 116.893C277.232 116.843 277.27 116.784 277.295 116.719C277.321 116.654 277.333 116.584 277.331 116.515ZM285.286 99.5888C285.286 99.519 285.272 99.45 285.245 99.3857C285.218 99.3215 285.178 99.2633 285.129 99.2147C285.079 99.166 285.019 99.1279 284.954 99.1025C284.889 99.0771 284.82 99.065 284.75 99.0669H279.108C278.97 99.0669 278.837 99.1219 278.739 99.2197C278.641 99.3176 278.586 99.4504 278.586 99.5888C278.59 99.7261 278.646 99.8567 278.743 99.9538C278.84 100.051 278.971 100.107 279.108 100.111H284.75C284.824 100.111 284.898 100.096 284.966 100.066C285.034 100.037 285.095 99.9934 285.145 99.939C285.195 99.8847 285.234 99.8205 285.258 99.7505C285.283 99.6805 285.292 99.6062 285.286 99.5323V99.5888ZM285.286 102.015C285.286 101.945 285.272 101.876 285.245 101.812C285.218 101.748 285.178 101.689 285.129 101.641C285.079 101.592 285.019 101.554 284.954 101.529C284.889 101.503 284.82 101.491 284.75 101.493H279.108C278.97 101.493 278.837 101.548 278.739 101.646C278.641 101.744 278.586 101.876 278.586 102.015C278.59 102.152 278.646 102.283 278.743 102.38C278.84 102.477 278.971 102.533 279.108 102.537H284.75C284.824 102.537 284.898 102.522 284.966 102.492C285.034 102.463 285.095 102.419 285.145 102.365C285.195 102.311 285.234 102.247 285.258 102.177C285.283 102.107 285.292 102.032 285.286 101.958V102.015ZM285.286 104.441C285.283 104.301 285.225 104.168 285.124 104.071C285.024 103.973 284.89 103.919 284.75 103.919H279.108C278.971 103.923 278.84 103.979 278.743 104.076C278.646 104.173 278.59 104.304 278.586 104.441C278.586 104.579 278.641 104.712 278.739 104.81C278.837 104.908 278.97 104.963 279.108 104.963H284.75C284.825 104.965 284.899 104.952 284.968 104.923C285.037 104.894 285.099 104.851 285.15 104.796C285.201 104.741 285.24 104.676 285.263 104.605C285.286 104.534 285.294 104.459 285.286 104.384V104.441ZM285.286 106.867C285.283 106.727 285.225 106.595 285.124 106.497C285.024 106.4 284.89 106.345 284.75 106.345H279.108C278.971 106.349 278.84 106.405 278.743 106.502C278.646 106.599 278.59 106.73 278.586 106.867C278.586 107.005 278.641 107.138 278.739 107.236C278.837 107.334 278.97 107.389 279.108 107.389H284.75C284.825 107.391 284.899 107.378 284.968 107.349C285.037 107.32 285.099 107.277 285.15 107.222C285.201 107.167 285.24 107.102 285.263 107.031C285.286 106.96 285.294 106.885 285.286 106.811V106.867ZM285.286 109.293C285.283 109.153 285.225 109.021 285.124 108.923C285.024 108.826 284.89 108.771 284.75 108.771H279.108C278.971 108.775 278.84 108.831 278.743 108.928C278.646 109.025 278.59 109.156 278.586 109.293C278.586 109.431 278.641 109.564 278.739 109.662C278.837 109.76 278.97 109.815 279.108 109.815H284.75C284.825 109.817 284.899 109.804 284.968 109.775C285.037 109.746 285.099 109.703 285.15 109.648C285.201 109.593 285.24 109.528 285.263 109.457C285.286 109.386 285.294 109.311 285.286 109.237V109.293ZM291.958 111.719C291.954 111.582 291.898 111.451 291.801 111.354C291.704 111.257 291.573 111.201 291.436 111.197H285.794C285.657 111.201 285.526 111.257 285.429 111.354C285.332 111.451 285.276 111.582 285.272 111.719C285.272 111.857 285.327 111.99 285.425 112.088C285.523 112.186 285.656 112.241 285.794 112.241H291.436C291.515 112.252 291.596 112.245 291.672 112.221C291.748 112.196 291.818 112.154 291.875 112.098C291.932 112.042 291.976 111.974 292.002 111.898C292.029 111.823 292.038 111.742 292.029 111.663L291.958 111.719ZM291.958 114.145C291.954 114.008 291.898 113.877 291.801 113.78C291.704 113.683 291.573 113.627 291.436 113.623H285.794C285.669 113.644 285.555 113.708 285.472 113.805C285.39 113.902 285.345 114.025 285.345 114.152C285.345 114.279 285.39 114.402 285.472 114.499C285.555 114.596 285.669 114.661 285.794 114.681H291.436C291.516 114.69 291.597 114.681 291.673 114.654C291.749 114.628 291.818 114.584 291.875 114.527C291.932 114.471 291.975 114.402 292.002 114.326C292.028 114.25 292.037 114.169 292.029 114.089L291.958 114.145ZM291.958 116.571C291.954 116.434 291.898 116.303 291.801 116.206C291.704 116.109 291.573 116.053 291.436 116.049H285.794C285.669 116.07 285.555 116.134 285.472 116.231C285.39 116.328 285.345 116.451 285.345 116.578C285.345 116.705 285.39 116.828 285.472 116.925C285.555 117.022 285.669 117.087 285.794 117.107H291.436C291.516 117.116 291.597 117.107 291.673 117.08C291.749 117.054 291.818 117.01 291.875 116.954C291.932 116.897 291.975 116.828 292.002 116.752C292.028 116.676 292.037 116.595 292.029 116.515L291.958 116.571ZM287.726 99.6452C287.726 99.4843 287.663 99.33 287.549 99.2163C287.435 99.1026 287.281 99.0386 287.12 99.0386C286.959 99.0386 286.805 99.1026 286.691 99.2163C286.577 99.33 286.513 99.4843 286.513 99.6452C286.513 99.8061 286.577 99.9603 286.691 100.074C286.805 100.188 286.959 100.252 287.12 100.252C287.216 100.265 287.313 100.255 287.404 100.223C287.495 100.19 287.578 100.137 287.644 100.066C287.71 99.9961 287.759 99.9109 287.785 99.818C287.812 99.7251 287.816 99.6271 287.797 99.5323L287.726 99.6452ZM289.56 99.6452C289.56 99.4843 289.496 99.33 289.382 99.2163C289.269 99.1026 289.114 99.0386 288.954 99.0386C288.793 99.0386 288.638 99.1026 288.525 99.2163C288.411 99.33 288.347 99.4843 288.347 99.6452C288.347 99.8061 288.411 99.9603 288.525 100.074C288.638 100.188 288.793 100.252 288.954 100.252C289.044 100.253 289.133 100.235 289.215 100.197C289.297 100.16 289.37 100.105 289.428 100.036C289.486 99.9673 289.528 99.8864 289.551 99.7992C289.574 99.7121 289.577 99.6209 289.56 99.5323V99.6452ZM291.38 99.6452C291.38 99.4843 291.316 99.33 291.202 99.2163C291.088 99.1026 290.934 99.0386 290.773 99.0386C290.612 99.0386 290.458 99.1026 290.344 99.2163C290.231 99.33 290.167 99.4843 290.167 99.6452C290.167 99.8061 290.231 99.9603 290.344 100.074C290.458 100.188 290.612 100.252 290.773 100.252C290.863 100.253 290.953 100.235 291.035 100.197C291.117 100.16 291.189 100.105 291.247 100.036C291.306 99.9673 291.348 99.8864 291.37 99.7992C291.393 99.7121 291.396 99.6209 291.38 99.5323V99.6452ZM293.199 99.6452C293.199 99.4843 293.135 99.33 293.022 99.2163C292.908 99.1026 292.754 99.0386 292.593 99.0386C292.432 99.0386 292.278 99.1026 292.164 99.2163C292.05 99.33 291.986 99.4843 291.986 99.6452C291.986 99.8061 292.05 99.9603 292.164 100.074C292.278 100.188 292.432 100.252 292.593 100.252C292.683 100.253 292.772 100.235 292.854 100.197C292.936 100.16 293.009 100.105 293.067 100.036C293.125 99.9673 293.167 99.8864 293.19 99.7992C293.213 99.7121 293.216 99.6209 293.199 99.5323V99.6452ZM295.019 99.6452C295.019 99.4843 294.955 99.33 294.841 99.2163C294.727 99.1026 294.573 99.0386 294.412 99.0386C294.251 99.0386 294.097 99.1026 293.983 99.2163C293.87 99.33 293.806 99.4843 293.806 99.6452C293.806 99.8061 293.87 99.9603 293.983 100.074C294.097 100.188 294.251 100.252 294.412 100.252C294.502 100.253 294.592 100.235 294.674 100.197C294.756 100.16 294.828 100.105 294.887 100.036C294.945 99.9673 294.987 99.8864 295.01 99.7992C295.032 99.7121 295.036 99.6209 295.019 99.5323V99.6452ZM296.838 99.6452C296.838 99.5252 296.803 99.408 296.736 99.3082C296.669 99.2085 296.575 99.1307 296.464 99.0848C296.353 99.0389 296.231 99.0269 296.113 99.0503C295.996 99.0737 295.888 99.1315 295.803 99.2163C295.718 99.3011 295.66 99.4092 295.637 99.5269C295.614 99.6445 295.626 99.7665 295.671 99.8773C295.717 99.9881 295.795 100.083 295.895 100.149C295.995 100.216 296.112 100.252 296.232 100.252C296.322 100.253 296.411 100.235 296.493 100.197C296.575 100.16 296.648 100.105 296.706 100.036C296.764 99.9673 296.806 99.8864 296.829 99.7992C296.852 99.7121 296.855 99.6209 296.838 99.5323V99.6452ZM287.797 104.384C287.797 104.224 287.733 104.069 287.619 103.956C287.506 103.842 287.351 103.778 287.191 103.778C287.03 103.778 286.875 103.842 286.762 103.956C286.648 104.069 286.584 104.224 286.584 104.384C286.584 104.545 286.648 104.7 286.762 104.813C286.875 104.927 287.03 104.991 287.191 104.991C287.351 104.991 287.506 104.927 287.619 104.813C287.733 104.7 287.797 104.545 287.797 104.384ZM289.631 104.384C289.631 104.224 289.567 104.069 289.453 103.956C289.339 103.842 289.185 103.778 289.024 103.778C288.863 103.778 288.709 103.842 288.595 103.956C288.482 104.069 288.418 104.224 288.418 104.384C288.418 104.545 288.482 104.7 288.595 104.813C288.709 104.927 288.863 104.991 289.024 104.991C289.172 104.974 289.309 104.902 289.408 104.79C289.507 104.678 289.561 104.534 289.56 104.384H289.631ZM291.45 104.384C291.45 104.224 291.386 104.069 291.273 103.956C291.159 103.842 291.005 103.778 290.844 103.778C290.683 103.778 290.529 103.842 290.415 103.956C290.301 104.069 290.237 104.224 290.237 104.384C290.237 104.545 290.301 104.7 290.415 104.813C290.529 104.927 290.683 104.991 290.844 104.991C290.992 104.974 291.129 104.902 291.228 104.79C291.327 104.678 291.381 104.534 291.38 104.384H291.45ZM293.27 104.384C293.27 104.224 293.206 104.069 293.092 103.956C292.978 103.842 292.824 103.778 292.663 103.778C292.502 103.778 292.348 103.842 292.234 103.956C292.121 104.069 292.057 104.224 292.057 104.384C292.057 104.545 292.121 104.7 292.234 104.813C292.348 104.927 292.502 104.991 292.663 104.991C292.812 104.974 292.948 104.902 293.047 104.79C293.146 104.678 293.2 104.534 293.199 104.384H293.27ZM295.089 104.384C295.089 104.224 295.025 104.069 294.912 103.956C294.798 103.842 294.644 103.778 294.483 103.778C294.322 103.778 294.168 103.842 294.054 103.956C293.94 104.069 293.876 104.224 293.876 104.384C293.876 104.545 293.94 104.7 294.054 104.813C294.168 104.927 294.322 104.991 294.483 104.991C294.631 104.974 294.768 104.902 294.867 104.79C294.966 104.678 295.02 104.534 295.019 104.384H295.089ZM296.909 104.384C296.909 104.265 296.873 104.147 296.807 104.048C296.74 103.948 296.645 103.87 296.534 103.824C296.424 103.778 296.302 103.766 296.184 103.79C296.066 103.813 295.958 103.871 295.873 103.956C295.789 104.04 295.731 104.148 295.707 104.266C295.684 104.384 295.696 104.506 295.742 104.617C295.788 104.727 295.866 104.822 295.965 104.889C296.065 104.955 296.182 104.991 296.302 104.991C296.451 104.974 296.587 104.902 296.686 104.79C296.785 104.678 296.839 104.534 296.838 104.384H296.909ZM294.017 111.366C294.017 111.206 293.953 111.051 293.84 110.938C293.726 110.824 293.572 110.76 293.411 110.76C293.25 110.76 293.096 110.824 292.982 110.938C292.868 111.051 292.804 111.206 292.804 111.366C292.804 111.527 292.868 111.682 292.982 111.795C293.096 111.909 293.25 111.973 293.411 111.973C293.559 111.956 293.696 111.884 293.795 111.772C293.894 111.66 293.948 111.516 293.947 111.366H294.017ZM295.851 111.366C295.854 111.243 295.82 111.122 295.753 111.018C295.687 110.914 295.591 110.832 295.478 110.783C295.365 110.734 295.239 110.72 295.118 110.742C294.997 110.764 294.885 110.822 294.797 110.908C294.709 110.995 294.648 111.105 294.623 111.226C294.598 111.347 294.609 111.472 294.656 111.586C294.702 111.701 294.782 111.798 294.884 111.867C294.986 111.936 295.107 111.973 295.23 111.973C295.38 111.956 295.518 111.885 295.62 111.773C295.721 111.662 295.778 111.517 295.78 111.366H295.851ZM297.671 111.366C297.671 111.206 297.607 111.051 297.493 110.938C297.379 110.824 297.225 110.76 297.064 110.76C296.903 110.76 296.749 110.824 296.635 110.938C296.521 111.051 296.458 111.206 296.458 111.366C296.458 111.527 296.521 111.682 296.635 111.795C296.749 111.909 296.903 111.973 297.064 111.973C297.225 111.973 297.379 111.909 297.493 111.795C297.607 111.682 297.671 111.527 297.671 111.366ZM299.49 111.366C299.49 111.206 299.426 111.051 299.312 110.938C299.199 110.824 299.044 110.76 298.884 110.76C298.723 110.76 298.568 110.824 298.455 110.938C298.341 111.051 298.277 111.206 298.277 111.366C298.277 111.527 298.341 111.682 298.455 111.795C298.568 111.909 298.723 111.973 298.884 111.973C299.032 111.956 299.169 111.884 299.268 111.772C299.366 111.66 299.421 111.516 299.42 111.366H299.49ZM301.31 111.366C301.31 111.206 301.246 111.051 301.132 110.938C301.018 110.824 300.864 110.76 300.703 110.76C300.542 110.76 300.388 110.824 300.274 110.938C300.16 111.051 300.097 111.206 300.097 111.366C300.097 111.527 300.16 111.682 300.274 111.795C300.388 111.909 300.542 111.973 300.703 111.973C300.851 111.956 300.988 111.884 301.087 111.772C301.186 111.66 301.24 111.516 301.239 111.366H301.31ZM303.129 111.366C303.129 111.246 303.094 111.129 303.027 111.029C302.96 110.93 302.866 110.852 302.755 110.806C302.644 110.76 302.522 110.748 302.404 110.772C302.287 110.795 302.179 110.853 302.094 110.938C302.009 111.022 301.951 111.13 301.928 111.248C301.904 111.366 301.916 111.488 301.962 111.599C302.008 111.709 302.086 111.804 302.186 111.871C302.285 111.937 302.403 111.973 302.523 111.973C302.671 111.956 302.808 111.884 302.907 111.772C303.005 111.66 303.06 111.516 303.059 111.366H303.129ZM294.017 116.374C294.017 116.213 293.953 116.059 293.84 115.945C293.726 115.831 293.572 115.767 293.411 115.767C293.25 115.767 293.096 115.831 292.982 115.945C292.868 116.059 292.804 116.213 292.804 116.374C292.808 116.533 292.873 116.686 292.986 116.799C293.099 116.912 293.251 116.977 293.411 116.98C293.559 116.963 293.696 116.891 293.795 116.779C293.894 116.668 293.948 116.523 293.947 116.374H294.017ZM295.851 116.374C295.829 116.227 295.754 116.093 295.642 115.996C295.529 115.9 295.386 115.846 295.237 115.846C295.089 115.846 294.945 115.9 294.833 115.996C294.72 116.093 294.646 116.227 294.624 116.374C294.646 116.52 294.72 116.654 294.833 116.751C294.945 116.848 295.089 116.901 295.237 116.901C295.386 116.901 295.529 116.848 295.642 116.751C295.754 116.654 295.829 116.52 295.851 116.374ZM297.671 116.374C297.671 116.294 297.655 116.215 297.624 116.142C297.594 116.068 297.549 116.001 297.493 115.945C297.437 115.889 297.37 115.844 297.296 115.813C297.223 115.783 297.144 115.767 297.064 115.767C296.903 115.767 296.749 115.831 296.635 115.945C296.521 116.059 296.458 116.213 296.458 116.374C296.458 116.453 296.473 116.532 296.504 116.606C296.534 116.679 296.579 116.746 296.635 116.803C296.691 116.859 296.758 116.904 296.832 116.934C296.905 116.965 296.984 116.98 297.064 116.98C297.224 116.977 297.376 116.912 297.489 116.799C297.602 116.686 297.667 116.533 297.671 116.374ZM299.49 116.374C299.49 116.213 299.426 116.059 299.312 115.945C299.199 115.831 299.044 115.767 298.884 115.767C298.723 115.767 298.568 115.831 298.455 115.945C298.341 116.059 298.277 116.213 298.277 116.374C298.277 116.453 298.293 116.532 298.323 116.606C298.354 116.679 298.398 116.746 298.455 116.803C298.511 116.859 298.578 116.904 298.651 116.934C298.725 116.965 298.804 116.98 298.884 116.98C299.031 116.96 299.166 116.888 299.264 116.776C299.362 116.665 299.418 116.522 299.42 116.374H299.49ZM301.31 116.374C301.31 116.213 301.246 116.059 301.132 115.945C301.018 115.831 300.864 115.767 300.703 115.767C300.542 115.767 300.388 115.831 300.274 115.945C300.16 116.059 300.097 116.213 300.097 116.374C300.097 116.453 300.112 116.532 300.143 116.606C300.173 116.679 300.218 116.746 300.274 116.803C300.331 116.859 300.397 116.904 300.471 116.934C300.545 116.965 300.623 116.98 300.703 116.98C300.85 116.96 300.985 116.888 301.084 116.776C301.182 116.665 301.237 116.522 301.239 116.374H301.31ZM303.129 116.374C303.129 116.213 303.065 116.059 302.951 115.945C302.838 115.831 302.683 115.767 302.523 115.767C302.362 115.767 302.208 115.831 302.094 115.945C301.98 116.059 301.916 116.213 301.916 116.374C301.916 116.535 301.98 116.689 302.094 116.803C302.208 116.916 302.362 116.98 302.523 116.98C302.683 116.98 302.838 116.916 302.951 116.803C303.065 116.689 303.129 116.535 303.129 116.374Z" fill="#263238"/>
<path d="M204.197 114.386C204.197 114.386 195.353 93.7358 187.595 93.7358C179.837 93.7358 180.218 111.071 185.014 120.296C189.81 129.52 200.149 133.202 203.097 127.672" fill="white"/>
<path d="M204.197 114.386C204.197 114.386 195.353 93.7358 187.595 93.7358C179.837 93.7358 180.218 111.071 185.014 120.296C189.81 129.52 200.149 133.202 203.097 127.672" fill="#FFDC00"/>
<path opacity="0.5" d="M204.197 114.386C204.197 114.386 195.353 93.7358 187.595 93.7358C179.837 93.7358 180.218 111.071 185.014 120.296C189.81 129.52 200.149 133.202 203.097 127.672" fill="white"/>
<path d="M204.197 114.386C204.197 114.386 195.353 93.7358 187.595 93.7358C179.837 93.7358 180.218 111.071 185.014 120.296C189.81 129.52 200.149 133.202 203.097 127.672" stroke="#263238" stroke-linecap="round" stroke-linejoin="round"/>
<path d="M185.028 106.331C185.028 106.331 183.9 97.3463 188.173 98.9261C192.447 100.506 197.384 114.653 197.384 114.653C197.384 114.653 193.787 110.831 194.239 114.427C194.295 115.384 194.687 116.289 195.344 116.986C196.002 117.682 196.884 118.125 197.835 118.236" stroke="#263238" stroke-linecap="round" stroke-linejoin="round"/>
<path d="M500.091 179.45H325.232L295.371 299.484H470.245L500.091 179.45Z" fill="#263238" stroke="#263238" stroke-linecap="round" stroke-linejoin="round"/>
<path d="M468.411 299.484H207.638V308.017H468.411V299.484Z" fill="#263238" stroke="#263238" stroke-linecap="round" stroke-linejoin="round"/>
<path d="M470.245 299.484H295.371V308.017H470.245V299.484Z" fill="#FFDC00" stroke="#263238" stroke-linecap="round" stroke-linejoin="round"/>
<path d="M502.038 179.45H327.164L297.304 299.484H472.178L502.038 179.45Z" fill="#FFDC00" stroke="#263238" stroke-linecap="round" stroke-linejoin="round"/>
<path d="M398.676 266.45C412.449 266.45 423.614 255.392 423.614 241.752C423.614 228.112 412.449 217.054 398.676 217.054C384.904 217.054 373.739 228.112 373.739 241.752C373.739 255.392 384.904 266.45 398.676 266.45Z" fill="#263238"/>
<path d="M378.407 245.56C378.146 245.443 377.911 245.274 377.717 245.063C377.523 244.852 377.374 244.604 377.279 244.333C377.047 243.754 377.047 243.107 377.279 242.528C377.405 242.209 377.595 241.919 377.838 241.676C378.081 241.434 378.37 241.244 378.689 241.117L389.254 236.886C389.607 236.731 389.973 236.886 390.368 237.351C390.719 237.743 390.932 238.238 390.975 238.762C390.984 239.014 390.921 239.263 390.794 239.48C390.666 239.697 390.48 239.874 390.256 239.989L381.398 243.431L390.284 246.999C390.471 247.125 390.621 247.298 390.717 247.502C390.814 247.705 390.854 247.931 390.834 248.156C390.817 248.668 390.639 249.161 390.326 249.566C389.988 250.018 389.649 250.173 389.296 250.032L378.407 245.56Z" fill="white"/>
<path d="M394.896 251.47C394.751 251.354 394.634 251.206 394.556 251.037C394.477 250.868 394.439 250.683 394.445 250.497C394.508 249.989 394.621 249.488 394.783 249.002L400.651 232.076C401.018 230.806 401.54 230.172 402.217 230.172C402.589 230.166 402.95 230.296 403.232 230.538C403.37 230.677 403.477 230.842 403.548 231.024C403.618 231.206 403.65 231.401 403.641 231.596C403.605 232.08 403.496 232.556 403.317 233.007L397.181 250.92C397.113 251.204 396.947 251.456 396.712 251.631C396.478 251.806 396.19 251.894 395.898 251.879C395.526 251.867 395.17 251.722 394.896 251.47Z" fill="white"/>
<path d="M406.42 249.637C406.107 249.231 405.929 248.738 405.912 248.226C405.892 248.002 405.932 247.776 406.029 247.572C406.125 247.369 406.275 247.195 406.462 247.069L415.348 243.501L406.49 240.059C406.266 239.944 406.08 239.768 405.952 239.55C405.825 239.333 405.762 239.084 405.771 238.832C405.814 238.308 406.027 237.813 406.378 237.422C406.773 236.956 407.139 236.801 407.492 236.956L418.057 241.188C418.566 241.389 419 241.744 419.298 242.203C419.567 242.593 419.709 243.056 419.707 243.529C419.69 243.971 419.564 244.402 419.34 244.784C419.133 245.162 418.805 245.46 418.409 245.631L407.45 250.187C407.097 250.243 406.758 250.088 406.42 249.637Z" fill="white"/>
<path d="M567.076 306.127H1V314.59H567.076V306.127Z" fill="white" stroke="#263238" stroke-linecap="round" stroke-linejoin="round"/>
</svg>
