<svg width="100" height="73" viewBox="0 0 100 73" fill="none" xmlns="http://www.w3.org/2000/svg" role="img" focusable="false">
<title>Link to docker (virtualization software)</title>
<path d="M97.9359 27.5379C95.684 25.9754 90.5234 25.3895 86.489 26.1707C86.0203 22.2645 83.8621 18.8469 80.109 15.8195L77.9511 14.257L76.4496 16.5031C74.5734 19.4328 73.6351 23.5344 73.9164 27.4407C74.0101 28.8075 74.4793 31.2489 75.8867 33.3973C74.5734 34.1786 71.8523 35.1551 68.2871 35.1551H0.451066L0.263566 35.9364C-0.393466 39.8422 -0.393466 52.0489 7.30029 61.4235C13.1175 68.552 21.7495 72.1653 33.1023 72.1653C57.6843 72.1653 75.8867 60.3489 84.425 38.9633C87.8027 39.061 95.0273 38.9633 98.6867 31.6391C98.7805 31.4438 98.968 31.0532 99.6246 29.5887L100 28.8075L97.9359 27.5379ZM54.682 0H44.3617V9.76525H54.682V0ZM54.682 11.7184H44.3617V21.4836H54.682V11.718V11.7184ZM42.4847 11.7184H32.1644V21.4836H42.4847V11.718V11.7184ZM30.2874 11.7184H19.9667V21.4836H30.2874V11.718V11.7184ZM18.0901 23.4367H7.76943V33.202H18.0898V23.4364L18.0901 23.4367ZM30.2874 23.4367H19.9667V33.202H30.2874V23.4364V23.4367ZM42.4847 23.4367H32.1644V33.202H42.4847V23.4364V23.4367ZM54.6824 23.4367H44.3613V33.202H54.6824V23.4364V23.4367ZM66.8797 23.4367H56.5585V33.202H66.8797V23.4364V23.4367Z" fill="#2396ED"/>
</svg>
