<svg width="100" height="100" viewBox="0 0 100 100" fill="none" xmlns="http://www.w3.org/2000/svg" role="img" focusable="false">
<title>Link to english language wikipedia entry</title>
<g clip-path="url(#clip0_428:38)">
<rect width="100" height="100" rx="25" fill="white"/>
<path d="M25 0C11.1929 0 0 11.1929 0 25V75C0 88.8071 11.1929 100 25 100H75C88.8071 100 100 88.8071 100 75V25C100 11.1929 88.8071 0 75 0H25Z" fill="#012169"/>
<path d="M99 25.2651L1 74.2651M99 74.7355L1 25.7355" stroke="white" stroke-width="15" stroke-linecap="square"/>
<path d="M97.882 75.2361L100.118 76.3541L102.354 71.8819L100.118 70.7639L97.882 75.2361ZM48.4116 50.5012L97.882 75.2361L100.118 70.7639L50.6477 46.0291L48.4116 50.5012Z" fill="#C8102E"/>
<path d="M49.5296 51.7354L0.264771 76.3678" stroke="#C8102E" stroke-width="5" stroke-linecap="square"/>
<path d="M100.119 25.7355L102.355 24.6164L100.116 20.1454L97.8809 21.2645L100.119 25.7355ZM97.8809 21.2645L48.4105 46.0297L50.6488 50.5007L100.119 25.7355L97.8809 21.2645Z" fill="#C8102E"/>
<path d="M1.3828 24.867L-0.853263 23.7489L-3.08933 28.2211L-0.853263 29.3391L1.3828 24.867ZM-0.853263 29.3391L48.4116 53.9715L50.6476 49.4994L1.3828 24.867L-0.853263 29.3391Z" fill="#C8102E"/>
<path d="M0 50H100Z" fill="black"/>
<path d="M49.5296 0V100M0 50H100" stroke="white" stroke-width="20"/>
<path d="M0 50H100Z" fill="black"/>
<path d="M49.5296 0V100M0 50H100" stroke="#C8102E" stroke-width="10"/>
</g>
<defs>
<clipPath id="clip0_428:38">
<rect width="100" height="100" rx="25"/>
</clipPath>
</defs>
</svg>
