<svg width="100" height="100" viewBox="0 0 100 100" fill="none" xmlns="http://www.w3.org/2000/svg" role="img" focusable="false">
<title>English flag</title>
<path d="M0 0V100H100V0H0Z" fill="#012169"/>
<path d="M100 24.5L0 75Z" fill="black"/>
<path d="M3.38085 17.8052L-3.31391 14.4244L-10.0756 27.8139L-3.38085 31.1948L3.38085 17.8052ZM96.6191 81.6948L103.314 85.0756L110.076 71.6861L103.381 68.3052L96.6191 81.6948ZM103.381 31.1948L110.076 27.8139L103.314 14.4244L96.6191 17.8052L103.381 31.1948ZM-3.38085 68.3052L-10.0756 71.6861L-3.31391 85.0756L3.38085 81.6948L-3.38085 68.3052ZM-3.38085 31.1948L96.6191 81.6948L103.381 68.3052L3.38085 17.8052L-3.38085 31.1948ZM96.6191 17.8052L-3.38085 68.3052L3.38085 81.6948L103.381 31.1948L96.6191 17.8052Z" fill="white"/>
<path d="M100 24.5L0 75Z" fill="black"/>
<path d="M2.2539 20.0368L-2.20927 17.7829L-6.71708 26.7093L-2.2539 28.9632L2.2539 20.0368ZM97.7461 79.4632L102.209 81.7171L106.717 72.7907L102.254 70.5368L97.7461 79.4632ZM102.254 28.9632L106.717 26.7093L102.209 17.7829L97.7461 20.0368L102.254 28.9632ZM-2.2539 70.5368L-6.71708 72.7907L-2.20927 81.7171L2.2539 79.4632L-2.2539 70.5368ZM-2.2539 28.9632L97.7461 79.4632L102.254 70.5368L2.2539 20.0368L-2.2539 28.9632ZM97.7461 20.0368L-2.2539 70.5368L2.2539 79.4632L102.254 28.9632L97.7461 20.0368Z" fill="#C8102E"/>
<path d="M0 50H100Z" fill="black"/>
<path d="M50 0V100M0 50H100" stroke="white" stroke-width="15"/>
<path d="M0 50H100Z" fill="black"/>
<path d="M50 0V100M0 50H100" stroke="#C8102E" stroke-width="10"/>
</svg>
