<svg width="67" height="100" viewBox="0 0 67 100" fill="none" xmlns="http://www.w3.org/2000/svg" role="img" focusable="false">
<title>Link to figma (design tool)</title>
<path d="M16.6667 99.9998C25.8667 99.9998 33.3333 92.5332 33.3333 83.3332V66.6665H16.6667C7.46667 66.6665 0 74.1332 0 83.3332C0 92.5332 7.46667 99.9998 16.6667 99.9998Z" fill="#0ACF83"/>
<path d="M0 50.0002C0 40.8002 7.46667 33.3335 16.6667 33.3335H33.3333V66.6668H16.6667C7.46667 66.6668 0 59.2002 0 50.0002Z" fill="#A259FF"/>
<path d="M0 16.6667C0 7.46667 7.46667 0 16.6667 0H33.3333V33.3333H16.6667C7.46667 33.3333 0 25.8667 0 16.6667Z" fill="#F24E1E"/>
<path d="M33.3333 0H49.9999C59.1999 0 66.6666 7.46667 66.6666 16.6667C66.6666 25.8667 59.1999 33.3333 49.9999 33.3333H33.3333V0Z" fill="#FF7262"/>
<path d="M66.6666 50.0002C66.6666 59.2002 59.1999 66.6668 49.9999 66.6668C40.7999 66.6668 33.3333 59.2002 33.3333 50.0002C33.3333 40.8002 40.7999 33.3335 49.9999 33.3335C59.1999 33.3335 66.6666 40.8002 66.6666 50.0002Z" fill="#1ABCFE"/>
</svg>
