<svg id="visual" viewBox="0 0 960 540" width="960" height="540" xmlns="http://www.w3.org/2000/svg" xmlns:xlink="http://www.w3.org/1999/xlink" version="1.1"><path d="M0 66L10.7 61.5C21.3 57 42.7 48 64 53.3C85.3 58.7 106.7 78.3 128 81.8C149.3 85.3 170.7 72.7 192 61C213.3 49.3 234.7 38.7 256 44.2C277.3 49.7 298.7 71.3 320 82.2C341.3 93 362.7 93 384 85.8C405.3 78.7 426.7 64.3 448 53.5C469.3 42.7 490.7 35.3 512 34.3C533.3 33.3 554.7 38.7 576 44C597.3 49.3 618.7 54.7 640 61C661.3 67.3 682.7 74.7 704 69.3C725.3 64 746.7 46 768 37.8C789.3 29.7 810.7 31.3 832 34C853.3 36.7 874.7 40.3 896 45.8C917.3 51.3 938.7 58.7 949.3 62.3L960 66L960 0L949.3 0C938.7 0 917.3 0 896 0C874.7 0 853.3 0 832 0C810.7 0 789.3 0 768 0C746.7 0 725.3 0 704 0C682.7 0 661.3 0 640 0C618.7 0 597.3 0 576 0C554.7 0 533.3 0 512 0C490.7 0 469.3 0 448 0C426.7 0 405.3 0 384 0C362.7 0 341.3 0 320 0C298.7 0 277.3 0 256 0C234.7 0 213.3 0 192 0C170.7 0 149.3 0 128 0C106.7 0 85.3 0 64 0C42.7 0 21.3 0 10.7 0L0 0Z" fill="#3ffb66"></path><path d="M0 98L10.7 99.8C21.3 101.7 42.7 105.3 64 109.8C85.3 114.3 106.7 119.7 128 120.5C149.3 121.3 170.7 117.7 192 106.8C213.3 96 234.7 78 256 79.8C277.3 81.7 298.7 103.3 320 113.3C341.3 123.3 362.7 121.7 384 118.2C405.3 114.7 426.7 109.3 448 103.8C469.3 98.3 490.7 92.7 512 89.8C533.3 87 554.7 87 576 93.3C597.3 99.7 618.7 112.3 640 120.5C661.3 128.7 682.7 132.3 704 126C725.3 119.7 746.7 103.3 768 89.8C789.3 76.3 810.7 65.7 832 72C853.3 78.3 874.7 101.7 896 109.8C917.3 118 938.7 111 949.3 107.5L960 104L960 64L949.3 60.3C938.7 56.7 917.3 49.3 896 43.8C874.7 38.3 853.3 34.7 832 32C810.7 29.3 789.3 27.7 768 35.8C746.7 44 725.3 62 704 67.3C682.7 72.7 661.3 65.3 640 59C618.7 52.7 597.3 47.3 576 42C554.7 36.7 533.3 31.3 512 32.3C490.7 33.3 469.3 40.7 448 51.5C426.7 62.3 405.3 76.7 384 83.8C362.7 91 341.3 91 320 80.2C298.7 69.3 277.3 47.7 256 42.2C234.7 36.7 213.3 47.3 192 59C170.7 70.7 149.3 83.3 128 79.8C106.7 76.3 85.3 56.7 64 51.3C42.7 46 21.3 55 10.7 59.5L0 64Z" fill="#27c639"></path><path d="M0 152L10.7 167.3C21.3 182.7 42.7 213.3 64 218.8C85.3 224.3 106.7 204.7 128 199.3C149.3 194 170.7 203 192 199.3C213.3 195.7 234.7 179.3 256 171.2C277.3 163 298.7 163 320 162.2C341.3 161.3 362.7 159.7 384 156C405.3 152.3 426.7 146.7 448 145.7C469.3 144.7 490.7 148.3 512 160.2C533.3 172 554.7 192 576 201C597.3 210 618.7 208 640 208C661.3 208 682.7 210 704 209.2C725.3 208.3 746.7 204.7 768 191.2C789.3 177.7 810.7 154.3 832 159.7C853.3 165 874.7 199 896 206.2C917.3 213.3 938.7 193.7 949.3 183.8L960 174L960 102L949.3 105.5C938.7 109 917.3 116 896 107.8C874.7 99.7 853.3 76.3 832 70C810.7 63.7 789.3 74.3 768 87.8C746.7 101.3 725.3 117.7 704 124C682.7 130.3 661.3 126.7 640 118.5C618.7 110.3 597.3 97.7 576 91.3C554.7 85 533.3 85 512 87.8C490.7 90.7 469.3 96.3 448 101.8C426.7 107.3 405.3 112.7 384 116.2C362.7 119.7 341.3 121.3 320 111.3C298.7 101.3 277.3 79.7 256 77.8C234.7 76 213.3 94 192 104.8C170.7 115.7 149.3 119.3 128 118.5C106.7 117.7 85.3 112.3 64 107.8C42.7 103.3 21.3 99.7 10.7 97.8L0 96Z" fill="#009400"></path><path d="M0 390L10.7 382.8C21.3 375.7 42.7 361.3 64 360.3C85.3 359.3 106.7 371.7 128 360.8C149.3 350 170.7 316 192 291.8C213.3 267.7 234.7 253.3 256 252.3C277.3 251.3 298.7 263.7 320 293.3C341.3 323 362.7 370 384 385.3C405.3 400.7 426.7 384.3 448 382.5C469.3 380.7 490.7 393.3 512 398.8C533.3 404.3 554.7 402.7 576 410.8C597.3 419 618.7 437 640 433.3C661.3 429.7 682.7 404.3 704 374.5C725.3 344.7 746.7 310.3 768 302.2C789.3 294 810.7 312 832 329.2C853.3 346.3 874.7 362.7 896 357.3C917.3 352 938.7 325 949.3 311.5L960 298L960 172L949.3 181.8C938.7 191.7 917.3 211.3 896 204.2C874.7 197 853.3 163 832 157.7C810.7 152.3 789.3 175.7 768 189.2C746.7 202.7 725.3 206.3 704 207.2C682.7 208 661.3 206 640 206C618.7 206 597.3 208 576 199C554.7 190 533.3 170 512 158.2C490.7 146.3 469.3 142.7 448 143.7C426.7 144.7 405.3 150.3 384 154C362.7 157.7 341.3 159.3 320 160.2C298.7 161 277.3 161 256 169.2C234.7 177.3 213.3 193.7 192 197.3C170.7 201 149.3 192 128 197.3C106.7 202.7 85.3 222.3 64 216.8C42.7 211.3 21.3 180.7 10.7 165.3L0 150Z" fill="#009400"></path><path d="M0 514L10.7 514C21.3 514 42.7 514 64 513.2C85.3 512.3 106.7 510.7 128 500.8C149.3 491 170.7 473 192 462.2C213.3 451.3 234.7 447.7 256 456.7C277.3 465.7 298.7 487.3 320 494.5C341.3 501.7 362.7 494.3 384 493.3C405.3 492.3 426.7 497.7 448 496.8C469.3 496 490.7 489 512 490.8C533.3 492.7 554.7 503.3 576 508.7C597.3 514 618.7 514 640 504.2C661.3 494.3 682.7 474.7 704 467.5C725.3 460.3 746.7 465.7 768 465.7C789.3 465.7 810.7 460.3 832 455.8C853.3 451.3 874.7 447.7 896 444.8C917.3 442 938.7 440 949.3 439L960 438L960 296L949.3 309.5C938.7 323 917.3 350 896 355.3C874.7 360.7 853.3 344.3 832 327.2C810.7 310 789.3 292 768 300.2C746.7 308.3 725.3 342.7 704 372.5C682.7 402.3 661.3 427.7 640 431.3C618.7 435 597.3 417 576 408.8C554.7 400.7 533.3 402.3 512 396.8C490.7 391.3 469.3 378.7 448 380.5C426.7 382.3 405.3 398.7 384 383.3C362.7 368 341.3 321 320 291.3C298.7 261.7 277.3 249.3 256 250.3C234.7 251.3 213.3 265.7 192 289.8C170.7 314 149.3 348 128 358.8C106.7 369.7 85.3 357.3 64 358.3C42.7 359.3 21.3 373.7 10.7 380.8L0 388Z" fill="#27c639"></path><path d="M0 541L10.7 541C21.3 541 42.7 541 64 541C85.3 541 106.7 541 128 541C149.3 541 170.7 541 192 541C213.3 541 234.7 541 256 541C277.3 541 298.7 541 320 541C341.3 541 362.7 541 384 541C405.3 541 426.7 541 448 541C469.3 541 490.7 541 512 541C533.3 541 554.7 541 576 541C597.3 541 618.7 541 640 541C661.3 541 682.7 541 704 541C725.3 541 746.7 541 768 541C789.3 541 810.7 541 832 541C853.3 541 874.7 541 896 541C917.3 541 938.7 541 949.3 541L960 541L960 436L949.3 437C938.7 438 917.3 440 896 442.8C874.7 445.7 853.3 449.3 832 453.8C810.7 458.3 789.3 463.7 768 463.7C746.7 463.7 725.3 458.3 704 465.5C682.7 472.7 661.3 492.3 640 502.2C618.7 512 597.3 512 576 506.7C554.7 501.3 533.3 490.7 512 488.8C490.7 487 469.3 494 448 494.8C426.7 495.7 405.3 490.3 384 491.3C362.7 492.3 341.3 499.7 320 492.5C298.7 485.3 277.3 463.7 256 454.7C234.7 445.7 213.3 449.3 192 460.2C170.7 471 149.3 489 128 498.8C106.7 508.7 85.3 510.3 64 511.2C42.7 512 21.3 512 10.7 512L0 512Z" fill="#3ffb66"></path></svg>