<svg id="fullstack-developer-transition-wave-bottom" class="wave-transition svg-transition-piece" preserveAspectRatio="none" viewBox="0 0 900 50" fill="none" xmlns="http://www.w3.org/2000/svg" aria-hidden="true" focusable="false">
<path d="M0 26L16.7 30C33.3 34 66.7 42 100 44.8C133.3 47.7 166.7 45.3 200 41.5C233.3 37.7 266.7 32.3 300 34.2C333.3 36 366.7 45 400 48C433.3 51 466.7 48 500 43C533.3 38 566.7 31 600 30.3C633.3 29.7 666.7 35.3 700 34.3C733.3 33.3 766.7 25.7 800 22C833.3 18.3 866.7 18.7 883.3 18.8L900 19V0H883.3C866.7 0 833.3 0 800 0C766.7 0 733.3 0 700 0C666.7 0 633.3 0 600 0C566.7 0 533.3 0 500 0C466.7 0 433.3 0 400 0C366.7 0 333.3 0 300 0C266.7 0 233.3 0 200 0C166.7 0 133.3 0 100 0C66.7 0 33.3 0 16.7 0H0V26Z" fill="#3FFB66"/>
</svg>
