<svg id="fullstack-developer-transition-wave-bottom-top" class="wave-transition svg-transition-piece" preserveAspectRatio="none" viewBox="0 0 1000 195" fill="none" xmlns="http://www.w3.org/2000/svg" aria-hidden="true" focusable="false" role="img">
<path d="M0 194.444H11.1458C22.1875 194.444 44.4792 194.444 66.6667 194.444C88.8542 194.444 111.146 194.444 133.333 194.444C155.521 194.444 177.812 194.444 200 194.444C222.187 194.444 244.479 194.444 266.667 194.444C288.854 194.444 311.146 194.444 333.333 194.444C355.521 194.444 377.812 194.444 400 194.444C422.187 194.444 444.479 194.444 466.667 194.444C488.854 194.444 511.146 194.444 533.333 194.444C555.521 194.444 577.812 194.444 600 194.444C622.187 194.444 644.479 194.444 666.667 194.444C688.854 194.444 711.146 194.444 733.333 194.444C755.521 194.444 777.812 194.444 800 194.444C822.187 194.444 844.479 194.444 866.667 194.444C888.854 194.444 911.146 194.444 933.333 194.444C955.521 194.444 977.812 194.444 988.854 194.444H1000V0L988.854 1.85185C977.812 3.7037 955.521 7.40738 933.333 12.5926C911.146 17.9629 888.854 24.6296 866.667 32.9629C844.479 41.2963 822.187 51.2963 800 51.2963C777.812 51.2963 755.521 41.2963 733.333 54.6296C711.146 67.9629 688.854 104.259 666.667 122.593C644.479 140.741 622.187 140.741 600 130.926C577.812 120.926 555.521 101.296 533.333 97.7777C511.146 94.4444 488.854 107.407 466.667 108.889C444.479 110.556 422.187 100.556 400 102.407C377.812 104.259 355.521 117.963 333.333 104.63C311.146 91.2963 288.854 51.2963 266.667 34.6296C244.479 17.963 222.187 24.6296 200 44.8148C177.812 64.8148 155.521 98.1481 133.333 116.296C111.146 134.63 88.8542 137.593 66.6667 139.259C44.4792 140.741 22.1875 140.741 11.1458 140.741H0V194.444Z" fill="#3FFB66"/>
</svg>
