<svg id="fullstack-developer-transition-wave-bottom-bottom" class="wave-transition svg-transition-piece" preserveAspectRatio="none" viewBox="0 0 1000 50" fill="none" xmlns="http://www.w3.org/2000/svg" aria-hidden="true" focusable="false">
<path d="M0 26L18.5556 30C37 34 74.1111 42 111.111 44.8C148.111 47.7 185.222 45.3 222.222 41.5C259.222 37.7 296.333 32.3 333.333 34.2C370.333 36 407.444 45 444.444 48C481.444 51 518.556 48 555.556 43C592.556 38 629.667 31 666.667 30.3C703.667 29.7 740.778 35.3 777.778 34.3C814.778 33.3 851.889 25.7 888.889 22C925.889 18.3 963 18.7 981.444 18.8L1000 19V0H981.444C963 0 925.889 0 888.889 0C851.889 0 814.778 0 777.778 0C740.778 0 703.667 0 666.667 0C629.667 0 592.556 0 555.556 0C518.556 0 481.444 0 444.444 0C407.444 0 370.333 0 333.333 0C296.333 0 259.222 0 222.222 0C185.222 0 148.111 0 111.111 0C74.1111 0 37 0 18.5556 0H0V26Z" fill="#3FFB66"/>
</svg>
