<svg id="fullstack-developer-transition-wave-bottom-bottom" class="wave-transition svg-transition-piece" preserveAspectRatio="none" viewBox="0 0 1000 169" fill="none" xmlns="http://www.w3.org/2000/svg" aria-hidden="true" focusable="false">
<path d="M0 122.222L11.1458 113.889C22.1875 105.556 44.4792 88.8889 66.6667 98.7037C88.8542 108.704 111.146 145 133.333 151.482C155.521 157.963 177.812 134.63 200 112.963C222.187 91.2963 244.479 71.6667 266.667 81.8519C288.854 92.037 311.146 132.037 333.333 152.222C355.521 172.222 377.812 172.222 400 158.889C422.187 145.741 444.479 119.074 466.667 99.0741C488.854 79.0741 511.146 65.3704 533.333 63.5185C555.521 61.6667 577.812 71.6667 600 81.4815C622.187 91.2963 644.479 101.296 666.667 112.963C688.854 124.63 711.146 138.333 733.333 128.333C755.521 118.519 777.812 85.1852 800 70C822.187 55 844.479 57.963 866.667 62.963C888.854 67.963 911.146 74.6296 933.333 84.8148C955.521 95 977.812 108.704 988.854 115.37L1000 122.222V0H988.854C977.812 0 955.521 0 933.333 0C911.146 0 888.854 0 866.667 0C844.479 0 822.187 0 800 0C777.812 0 755.521 0 733.333 0C711.146 0 688.854 0 666.667 0C644.479 0 622.187 0 600 0C577.812 0 555.521 0 533.333 0C511.146 0 488.854 0 466.667 0C444.479 0 422.187 0 400 0C377.812 0 355.521 0 333.333 0C311.146 0 288.854 0 266.667 0C244.479 0 222.187 0 200 0C177.812 0 155.521 0 133.333 0C111.146 0 88.8542 0 66.6667 0C44.4792 0 22.1875 0 11.1458 0H0V122.222Z" fill="#3FFB66"/>
</svg>
