<svg class="svg-background" viewBox="0 0 1000 1000" height="100%" width="100%" preserveAspectRatio="none" xmlns="http://www.w3.org/2000/svg" role="img" focusable="false">
<title>Abstract background: multilayered waves in different shades of green on top and bottom of the screen</title>
<path d="M11.1458 184.793L0 181.46V0H1000V192.571L988.854 199.052C977.812 205.534 955.521 218.497 933.333 203.311C911.146 188.311 888.854 144.978 866.667 133.311C844.479 121.645 822.188 141.274 800 166.274C777.812 191.274 755.521 221.645 733.333 233.311C711.146 244.978 688.854 238.311 666.667 223.126C644.479 207.941 622.188 184.608 600 172.756C577.812 161.089 555.521 161.089 533.333 166.274C511.146 171.645 488.854 182.015 466.667 192.2C444.479 202.385 422.188 212.385 400 218.867C377.812 225.348 355.521 228.311 333.333 209.793C311.146 191.274 288.854 151.274 266.667 147.756C244.479 144.423 222.188 177.756 200 197.756C177.812 217.941 155.521 224.608 133.333 223.126C111.146 221.645 88.8542 211.645 66.6667 203.311C44.4792 194.978 22.1875 188.311 11.1458 184.793Z" fill="#27C639"/>
<path d="M1000 188.689V551.659L988.854 576.659C977.812 601.659 955.521 651.659 933.333 661.474C911.146 671.474 888.854 641.104 866.667 609.437C866.072 608.584 865.478 607.729 864.883 606.875C843.285 575.834 821.593 544.659 800 559.437C781.043 572.253 762.009 620.624 743.03 668.858C739.796 677.077 736.563 685.292 733.333 693.326C711.146 748.511 688.854 795.548 666.667 802.215C651.368 806.939 636.02 792.558 620.69 778.195C613.787 771.727 606.889 765.263 600 760.548C587.192 751.889 574.349 749.216 561.511 746.544C552.11 744.588 542.713 742.632 533.333 738.326C526.019 734.969 518.694 730.182 511.365 725.393C496.46 715.655 481.54 705.906 466.667 708.141C459.691 709.189 452.704 712.91 445.714 716.633C430.472 724.75 415.211 732.878 400 713.326C385.624 694.967 371.203 651.963 356.796 608.996C348.968 585.652 341.144 562.318 333.333 542.956C311.146 488.141 288.854 465.178 266.667 467.03C244.479 468.882 222.187 495.548 200 540.178C193.446 553.416 186.883 568.238 180.316 583.068C164.652 618.442 148.967 653.864 133.333 667.956C119.244 680.773 105.113 676.192 90.9927 671.615C82.8769 668.984 74.7648 666.354 66.6667 667.03C44.588 668.872 22.4062 695.287 11.3092 708.502L11.1458 708.696L0 722.03V177.578L11.1458 180.911C13.118 181.539 15.4491 182.268 18.0744 183.089C30.1474 186.864 48.4422 192.585 66.6667 199.429C70.2377 200.771 73.8115 202.155 77.3871 203.54C96.0271 210.761 114.717 218.001 133.333 219.244C155.521 220.726 177.812 214.059 200 193.874C205.894 188.561 211.795 182.308 217.699 176.051C234.023 158.752 250.373 141.426 266.667 143.874C280.644 146.09 294.662 162.784 308.67 179.465C316.898 189.264 325.123 199.058 333.333 205.911C355.521 224.429 377.812 221.466 400 214.985C422.187 208.503 444.479 198.503 466.667 188.318C467.265 188.043 467.864 187.768 468.463 187.493C490.057 177.577 511.745 167.618 533.333 162.392C555.521 157.207 577.812 157.207 600 168.874C612.994 175.815 626.025 186.694 639.049 197.569C648.263 205.262 657.474 212.952 666.667 219.244C688.854 234.429 711.146 241.096 733.333 229.429C750.635 220.332 767.999 199.862 785.329 179.433C790.223 173.664 795.114 167.898 800 162.392C822.187 137.392 844.479 117.763 866.667 129.429C878.379 135.588 890.121 150.572 901.862 165.554C912.361 178.952 922.859 192.348 933.333 199.429C955.521 214.615 977.812 201.652 988.854 195.17L1000 188.689Z" fill="#009400"/>
<path d="M1000 548.112V1000H0V718.482L11.1458 705.149L11.3091 704.954C22.4062 691.74 44.588 665.325 66.6667 663.482C88.8542 661.63 111.146 684.593 133.333 664.408C155.521 644.408 177.812 581.445 200 536.63C222.188 492.001 244.479 465.334 266.667 463.482C288.854 461.63 311.146 484.593 333.333 539.408C355.521 594.408 377.812 681.445 400 709.778C422.188 738.297 444.479 707.927 466.667 704.593C488.854 701.26 511.146 724.593 533.333 734.778C555.521 744.964 577.812 742.001 600 757.001C622.188 772.186 644.479 805.519 666.667 798.667C688.854 792.001 711.146 744.964 733.333 689.778C755.521 634.593 777.812 570.89 800 555.89C822.188 540.704 844.479 574.038 866.667 605.89C888.854 637.556 911.146 667.927 933.333 657.927C955.521 648.112 977.812 598.112 988.854 573.112L1000 548.112Z" fill="#27C639"/>
</svg>
