<svg id="fullstack-developer-transition-wave-top-top" class="wave-transition svg-transition-piece" preserveAspectRatio="none" viewBox="0 0 1000 52" fill="none" xmlns="http://www.w3.org/2000/svg" aria-hidden="true" focusable="false">
<path d="M0 0L12.7778 1.5C25.5556 3 51.1111 6.00001 76.6667 12.7C102.222 19.3 127.778 29.7 153.556 29.7C179.222 29.7 205.222 19.3 230.889 12.2C256.667 5.00001 282.222 1 307.778 3C333.333 5 358.889 13 384.444 18.8C410 24.7 435.556 28.3 461.333 26.3C487 24.3 513 16.7 538.667 13.2C564.444 9.70001 590 10.3 615.556 11.3C641.111 12.3 666.667 13.7 692.222 12.5C717.778 11.3 743.333 7.70001 769.111 9.20001C794.778 10.7 820.778 17.3 846.444 18.2C872.222 19 897.778 14 923.333 17.8C948.889 21.7 974.444 34.3 987.222 40.7L1000 47V53H987.222C974.444 53 948.889 53 923.333 53C897.778 53 872.222 53 846.444 53C820.778 53 794.778 53 769.111 53C743.333 53 717.778 53 692.222 53C666.667 53 641.111 53 615.556 53C590 53 564.444 53 538.667 53C513 53 487 53 461.333 53C435.556 53 410 53 384.444 53C358.889 53 333.333 53 307.778 53C282.222 53 256.667 53 230.889 53C205.222 53 179.222 53 153.556 53C127.778 53 102.222 53 76.6667 53C51.1111 53 25.5556 53 12.7778 53H0V0Z" fill="#3FFB66"/>
</svg>
