<svg id="fullstack-developer-transition-wave-bottom" class="svg-transition-piece" preserveAspectRatio="none" viewBox="0 0 900 52" fill="none" xmlns="http://www.w3.org/2000/svg">
<path d="M0 0L11.5 1.5C23 3 46 6.00001 69 12.7C92 19.3 115 29.7 138.2 29.7C161.3 29.7 184.7 19.3 207.8 12.2C231 5.00001 254 1 277 3C300 5 323 13 346 18.8C369 24.7 392 28.3 415.2 26.3C438.3 24.3 461.7 16.7 484.8 13.2C508 9.70001 531 10.3 554 11.3C577 12.3 600 13.7 623 12.5C646 11.3 669 7.70001 692.2 9.20001C715.3 10.7 738.7 17.3 761.8 18.2C785 19 808 14 831 17.8C854 21.7 877 34.3 888.5 40.7L900 47V53H888.5C877 53 854 53 831 53C808 53 785 53 761.8 53C738.7 53 715.3 53 692.2 53C669 53 646 53 623 53C600 53 577 53 554 53C531 53 508 53 484.8 53C461.7 53 438.3 53 415.2 53C392 53 369 53 346 53C323 53 300 53 277 53C254 53 231 53 207.8 53C184.7 53 161.3 53 138.2 53C115 53 92 53 69 53C46 53 23 53 11.5 53H0V0Z" fill="#3FFB66"/>
</svg>
