<svg width="66" height="100" viewBox="0 0 66 100" fill="none" xmlns="http://www.w3.org/2000/svg" role="img" focusable="false">
<title>Autodesk fusion 360</title>
<path d="M0 6.5921V49.3816L2.52895 97.3684C10.2237 98.9105 19.0789 99.75 28.9474 100V78.5763C28.6632 68.2737 33.5526 63.5974 42.421 62.0842L62.9237 59.4105L57.1289 45.1474C47.121 43.5816 38.4263 41.6974 33.9895 39.4737C28.3474 36.5158 26.5342 29.8237 31.3579 24.7816C32.9632 23.1026 37.2921 21.0789 42.1974 21.0526H65.5974L61.3631 5.47895C52.2237 2.60263 36.2131 1.38684 19.4658 0C13.4895 1.11579 7.10526 3.36842 0 6.5921Z" fill="#FB8C00"/>
<path d="M42.4212 62.0842L62.9238 59.4105L57.129 45.1474C47.1212 43.5816 38.4264 41.6974 33.9896 39.4737C28.3475 36.5158 26.5343 29.8237 31.358 24.7816C32.9633 23.1026 37.2922 21.079 42.1975 21.0526H63.8843C54.258 18.9974 46.329 17.229 38.3764 17.1053C23.4027 16.8737 13.8317 24.4211 12.7185 36.8421C12.0106 44.7263 12.6896 53.2447 15.7896 63.1579C18.7922 72.7711 22.9054 85.7658 28.9475 99.2237V78.5763C28.6633 68.2737 33.5527 63.5974 42.4212 62.0842Z" fill="#FFCC80"/>
<path d="M28.9473 51.3158C28.9473 54.95 31.892 57.8947 35.5262 57.8947H62.3078L57.1288 45.1473C56.2762 45.0131 55.4473 44.8737 54.6157 44.7368H35.5262C31.892 44.7368 28.9473 47.6816 28.9473 51.3158Z" fill="#FB8C00"/>
<path d="M18.2026 0.876465C18.2026 0.876465 17.2026 2.2212 15.821 4.7791C15.1395 6.06067 14.35 7.63699 13.5842 9.50278C12.8053 11.3633 12.0395 13.5028 11.2974 15.8633C10.5447 18.2186 9.92367 20.8291 9.36051 23.6001C9.13683 24.9975 8.91052 26.4317 8.67631 27.8975C8.53947 29.3765 8.30788 30.8765 8.18157 32.4107C7.91578 35.4791 7.85262 38.6791 7.85789 41.8975C7.91315 45.1343 8.19999 48.3843 8.68683 51.6396C9.59473 58.1475 11.25 64.5475 13.3316 70.3449C15.4237 76.137 18.0631 81.3028 20.4842 85.6607C22.9263 90.0028 24.9974 93.6186 26.5421 96.0922C28.0737 98.5791 28.9474 100 28.9474 100C28.9474 100 27.8737 98.7186 26.121 96.3791C24.3974 94.0212 21.8842 90.6712 19.2158 86.4133C16.5868 82.1528 13.4921 77.0922 11.1684 71.1712C8.81052 65.2843 7.06841 58.708 6.0842 52.0133C5.61578 48.6712 5.34736 45.2607 5.32104 41.937C5.33683 38.5896 5.54473 35.3344 5.88683 32.1791C6.23683 29.0291 6.8342 26.0186 7.49999 23.1949C8.22894 20.3844 9.00525 17.7528 9.90525 15.387C10.7631 13.008 11.7474 10.9028 12.7053 9.08962C13.6474 7.26857 14.5842 5.74488 15.3842 4.51594C17.0237 2.07646 18.2026 0.876465 18.2026 0.876465Z" fill="#FFCC80"/>
</svg>
