<svg  id="header-top-accent" class="svg-background" viewBox="0 0 1920 1080" height="100%" width="100%" preserveAspectRatio="none"  fill="none" xmlns="http://www.w3.org/2000/svg" role="img" focusable="false">
<title>Abstract background: multilayered waves in different shades of green on top and bottom of the screen</title>
<path d="M440.204 109.152L457.287 161.971L432.605 219.204L342.453 291.618L288.057 299.872L297.613 190.64L440.204 109.152Z" fill="#C4C4C4"/>
<path d="M440.204 109.152L457.287 161.971M440.204 109.152L297.613 190.64M440.204 109.152L366.332 205.435M457.287 161.971L432.605 219.204M457.287 161.971L366.332 205.435M432.605 219.204L342.453 291.618M432.605 219.204L366.332 205.435M342.453 291.618L288.057 299.872M342.453 291.618L366.332 205.435M288.057 299.872L297.613 190.64M288.057 299.872L366.332 205.435M297.613 190.64L366.332 205.435" stroke="black"/>
<path d="M1662.77 134.014L1617.26 136.779L1596.23 116.991L1620.46 53.6791L1676.98 21.0123L1719.42 53.644L1691.09 93.829L1662.77 134.014Z" fill="#C4C4C4"/>
<path d="M1662.77 134.014L1617.26 136.779M1662.77 134.014L1649.49 80.0458M1662.77 134.014L1691.09 93.829M1617.26 136.779L1596.23 116.991M1617.26 136.779L1649.49 80.0458M1596.23 116.991L1620.46 53.6791M1596.23 116.991L1649.49 80.0458M1620.46 53.6791L1676.98 21.0123M1620.46 53.6791L1649.49 80.0458M1676.98 21.0123L1719.42 53.644M1676.98 21.0123C1676.05 21.5493 1658.27 60.5917 1649.49 80.0458M1719.42 53.644L1691.09 93.829M1719.42 53.644C1716.01 55.613 1671.38 72.0656 1649.49 80.0458M1649.49 80.0458L1691.09 93.829" stroke="black"/>
<path d="M1820.74 50.6178L1868.08 90.3828L1844.2 141.252C1827.45 157.433 1792.99 188.464 1789.1 183.139C1785.2 177.814 1750.7 130.988 1733.94 108.24L1765.29 65.1334L1820.74 50.6178Z" fill="#C4C4C4"/>
<path d="M1820.74 50.6178L1868.08 90.3828M1820.74 50.6178L1765.29 65.1334M1820.74 50.6178L1794.72 112.713M1868.08 90.3828L1844.2 141.252M1868.08 90.3828C1861.59 87.6293 1816.47 104.122 1794.72 112.713M1844.2 141.252C1827.45 157.433 1792.99 188.464 1789.1 183.139M1844.2 141.252L1794.72 112.713M1789.1 183.139C1785.2 177.814 1750.7 130.988 1733.94 108.24M1789.1 183.139C1790.24 183.624 1793.32 136.39 1794.72 112.713M1733.94 108.24L1765.29 65.1334M1733.94 108.24L1794.72 112.713M1765.29 65.1334L1794.72 112.713" stroke="black"/>
<path d="M1570.63 278.547L1559.64 199.171L1623.78 177.161C1657.42 203.077 1725.09 257.341 1726.68 267.077C1728.28 276.813 1677.15 310.636 1651.39 326.33L1570.63 278.547Z" fill="#C4C4C4"/>
<path d="M1570.63 278.547L1559.64 199.171M1570.63 278.547L1651.39 326.33M1570.63 278.547L1627.44 250.002M1559.64 199.171L1623.78 177.161M1559.64 199.171L1627.44 250.002M1623.78 177.161C1657.42 203.077 1725.09 257.341 1726.68 267.077M1623.78 177.161L1627.44 250.002M1726.68 267.077C1728.28 276.813 1677.15 310.636 1651.39 326.33M1726.68 267.077L1627.44 250.002M1651.39 326.33L1627.44 250.002" stroke="black"/>
<path d="M146.68 395.891V304.755L267.211 288.853L287.493 364.697C256.201 396.299 233.022 413.629 230.704 413.629L146.68 395.891Z" fill="#C4C4C4"/>
<path d="M146.68 304.755V395.891M146.68 304.755L267.211 288.853M146.68 304.755C150.389 308.67 187.244 349.61 205.207 369.59M146.68 395.891L230.704 413.629M146.68 395.891L205.207 369.59M230.704 413.629L205.207 369.59M230.704 413.629C233.022 413.629 256.201 396.299 287.493 364.697L267.211 288.853M267.211 288.853L205.207 369.59" stroke="black"/>
<path d="M1715.9 374.22L1723.37 315.781L1793.13 236.371L1857.25 198.081L1874.01 255.228L1882.16 282.984L1834.65 337.675L1715.9 374.22Z" fill="#C4C4C4"/>
<path d="M1723.37 315.781L1715.9 374.22M1723.37 315.781L1793.13 236.371M1723.37 315.781L1833.94 285.386M1715.9 374.22L1834.65 337.675M1715.9 374.22L1833.94 285.386M1834.65 337.675L1882.16 282.984M1834.65 337.675L1833.94 285.386M1882.16 282.984L1874.01 255.228M1882.16 282.984L1833.94 285.386M1857.25 198.081L1793.13 236.371M1857.25 198.081L1833.94 285.386M1857.25 198.081L1874.01 255.228M1793.13 236.371L1833.94 285.386M1833.94 285.386L1874.01 255.228" stroke="black"/>
<path d="M323.667 48.6332L324.043 48.5204L400.638 25.5447L448.379 66.8093L389.921 108.565L323.667 90.3891V48.6332Z" fill="#C4C4C4"/>
<path d="M400.638 25.5447L323.667 48.6332V90.3891M400.638 25.5447L448.379 66.8093M400.638 25.5447L378.229 66.8093M448.379 66.8093L389.921 108.565M448.379 66.8093H378.229M389.921 108.565L323.667 90.3891M389.921 108.565L378.229 66.8093M323.667 90.3891C341.042 82.5292 376.28 66.8093 378.229 66.8093M321.719 47.6507C323.277 48.4367 360.042 60.7506 378.229 66.8093" stroke="black"/>
<path d="M1426.51 68.7366L1419.79 32.4127L1540.87 26.5913L1581.63 54.1218L1580.38 104.71L1490.59 110.507L1426.51 68.7366Z" fill="#C4C4C4"/>
<path d="M1419.79 32.4127L1426.51 68.7366M1419.79 32.4127L1540.87 26.5913M1419.79 32.4127L1497.5 70.5056M1426.51 68.7366L1490.59 110.507M1426.51 68.7366L1497.5 70.5056M1490.59 110.507L1580.38 104.71M1490.59 110.507L1497.5 70.5056M1580.38 104.71L1581.63 54.1218M1580.38 104.71C1575.64 105.016 1523.15 82.0346 1497.5 70.5056M1581.63 54.1218L1540.87 26.5913M1581.63 54.1218L1497.5 70.5056M1540.87 26.5913L1497.5 70.5056" stroke="black"/>
<path d="M1461.63 123.308L1526.98 174.207L1534.11 238.183L1472.69 235.074L1407.63 168.883L1428.81 127.872L1461.63 123.308Z" fill="#C4C4C4"/>
<path d="M1461.63 123.308C1465.29 126.159 1506.72 158.428 1526.98 174.207M1461.63 123.308L1428.81 127.872M1461.63 123.308L1479.31 176.329M1526.98 174.207L1479.31 176.329M1526.98 174.207L1534.11 238.183M1534.11 238.183L1472.69 235.074M1534.11 238.183L1479.31 176.329M1472.69 235.074L1407.63 168.883M1472.69 235.074L1479.31 176.329M1407.63 168.883L1428.81 127.872M1407.63 168.883L1479.31 176.329M1428.81 127.872C1434.04 131.944 1464.65 161.873 1479.31 176.329" stroke="black"/>
<path d="M1247.82 56.9811L1243.99 24.823L1308.43 28.2062L1387.16 62.9554L1409.69 93.9206L1370.5 116.46L1324.05 107.623L1247.82 56.9811Z" fill="#C4C4C4"/>
<path d="M1243.99 24.823L1247.82 56.9811M1243.99 24.823L1308.43 28.2062M1243.99 24.823C1247.18 26.3679 1300.43 58.7042 1326.66 74.6792M1247.82 56.9811L1324.05 107.623M1247.82 56.9811L1326.66 74.6792M1324.05 107.623L1370.5 116.46M1324.05 107.623L1326.66 74.6792M1370.5 116.46L1409.69 93.9206M1370.5 116.46L1326.66 74.6792M1409.69 93.9206L1387.16 62.9554M1409.69 93.9206L1326.66 74.6792M1387.16 62.9554L1308.43 28.2062M1387.16 62.9554C1367.62 65.6998 1328.16 71.8866 1326.66 74.6792M1308.43 28.2062L1326.66 74.6792" stroke="black"/>
<path d="M87.601 257.251L60.1137 202.414L156.492 171.312L242.851 181.251L269.242 192.553L274.686 229.193C229.751 244.95 138.579 276.381 133.372 276.052C128.166 275.723 100.689 263.381 87.601 257.251Z" fill="#C4C4C4"/>
<path d="M60.1137 202.414L87.601 257.251M60.1137 202.414L156.492 171.312M60.1137 202.414C64.3179 201.784 131.427 217.152 164.456 224.916M87.601 257.251C100.689 263.381 128.166 275.723 133.372 276.052M87.601 257.251L164.456 224.916M133.372 276.052C138.579 276.381 229.751 244.95 274.686 229.193M133.372 276.052L164.456 224.916M274.686 229.193L269.242 192.553M274.686 229.193L164.456 224.916M269.242 192.553L242.851 181.251M269.242 192.553L164.456 224.916M242.851 181.251L156.492 171.312M242.851 181.251L164.456 224.916M156.492 171.312L164.456 224.916" stroke="black"/>
<path d="M539.594 37.3358L623.212 16.2713L669.045 45.446L649.742 91.0201L563.562 136.283L520.29 134.731L479.008 122.667L467.009 70.2221L539.594 37.3358Z" fill="#C4C4C4"/>
<path d="M539.594 37.3358L623.212 16.2713M539.594 37.3358L467.009 70.2221M539.594 37.3358L561.851 73.6919M623.212 16.2713L669.045 45.446M623.212 16.2713C605.139 35.0295 567.564 72.7751 561.851 73.6919M669.045 45.446L649.742 91.0202M669.045 45.446L561.851 73.6919M649.742 91.0202L563.562 136.283M649.742 91.0202C643.659 94.2151 588.613 80.7992 561.851 73.6919M563.562 136.283L520.29 134.731M563.562 136.283L561.851 73.6919M520.29 134.731L479.008 122.667M520.29 134.731L561.851 73.6919M479.008 122.667L467.009 70.2221M479.008 122.667C492.05 117.176 539.671 87.7289 561.851 73.6919M467.009 70.2221C469.742 68.9841 531.376 72.0195 561.851 73.6919" stroke="black"/>
<path d="M84.8902 41.1915C87.5012 44.9007 108.441 68.5092 118.584 79.8498L135.719 104.191L123.414 153.799L88.2321 178.799L42.2781 127.986L40.5553 46.6116L84.8902 41.1915Z" fill="#C4C4C4"/>
<path d="M84.8902 41.1915C87.5012 44.9007 108.441 68.5092 118.584 79.8498M84.8902 41.1915L40.5553 46.6116M84.8902 41.1915L79.3119 101.67M118.584 79.8498L135.719 104.191M118.584 79.8498L79.3119 101.67M135.719 104.191L123.414 153.799M135.719 104.191L79.3119 101.67M123.414 153.799L88.2321 178.799M123.414 153.799L79.3119 101.67M88.2321 178.799L42.2781 127.986M88.2321 178.799L79.3119 101.67M42.2781 127.986L40.5553 46.6116M42.2781 127.986L79.3119 101.67M40.5553 46.6116L79.3119 101.67" stroke="black"/>
<path d="M1728.42 226.677L1694.2 204.318L1667.25 170.393L1686.22 141.103L1722.36 142.115L1756.54 185.156L1728.42 226.677Z" fill="#C4C4C4"/>
<path d="M1728.42 226.677L1694.2 204.318M1728.42 226.677L1756.54 185.156M1728.42 226.677L1711.06 172.384M1694.2 204.318L1667.25 170.393M1694.2 204.318L1711.06 172.384M1667.25 170.393L1711.06 172.384M1667.25 170.393L1686.22 141.103M1686.22 141.103L1722.36 142.115M1686.22 141.103L1711.06 172.384M1722.36 142.115L1756.54 185.156M1722.36 142.115L1711.06 172.384M1756.54 185.156L1711.06 172.384" stroke="black"/>
<path d="M22.7048 492.433L48.3358 437.402L102.226 428.511L165.269 464.139L167.917 465.636L113.293 523.854L65.2038 555.08L41.5956 527.713L22.7048 492.433Z" fill="#C4C4C4"/>
<path d="M48.3358 437.402L22.7048 492.433M48.3358 437.402L102.226 428.511M48.3358 437.402L81.066 486.495M22.7048 492.433L41.5956 527.713M22.7048 492.433L81.066 486.495M41.5956 527.713L65.2038 555.08M41.5956 527.713C49.9445 520.442 71.3879 497.205 81.066 486.495M65.2038 555.08L113.293 523.854M65.2038 555.08C63.7049 553.343 75.1541 508.633 81.066 486.495M113.293 523.854L167.917 465.636L165.269 464.139M113.293 523.854L81.066 486.495M102.226 428.511L81.066 486.495M102.226 428.511L165.269 464.139M81.066 486.495L165.269 464.139" stroke="black"/>
<path d="M159.392 29.4749H236.428L298.738 103.162L273.314 161.62L159.392 87.8905V29.4749Z" fill="#C4C4C4"/>
<path d="M159.392 29.4749H236.428M159.392 29.4749V87.8905M159.392 29.4749C162.914 29.4749 198.644 58.9458 216.069 73.6813M236.428 29.4749L298.738 103.162M236.428 29.4749L216.069 73.6813M298.738 103.162L273.314 161.62M298.738 103.162L216.069 73.6813M273.314 161.62L159.392 87.8905M273.314 161.62L216.069 73.6813M159.392 87.8905L216.069 73.6813" stroke="black"/>
<path d="M1731.77 398.952L1804.38 378.692L1845.29 408.924L1883.65 518.247L1792.91 518.247L1705.86 420.427L1731.77 398.952Z" fill="#C4C4C4"/>
<path d="M1804.38 378.692L1731.77 398.952M1804.38 378.692C1804.38 378.692 1829.31 397.118 1845.29 408.924M1804.38 378.692L1782.23 454.058M1731.77 398.952L1705.86 420.427M1731.77 398.952L1782.23 454.058M1705.86 420.427L1792.91 518.247M1705.86 420.427L1782.23 454.058M1792.91 518.247L1883.65 518.247M1792.91 518.247L1782.23 454.058M1883.65 518.247C1883.65 518.247 1860.27 451.618 1845.29 408.924M1883.65 518.247L1782.23 454.058M1845.29 408.924C1820.67 426.55 1782.23 454.058 1782.23 454.058" stroke="black" stroke-linejoin="bevel"/>
<path d="M20.7255 286.001L72.4549 262.784L123.553 330.496L120.107 390.79L71.9852 410.909L36.3951 342.678L20.7255 286.001Z" fill="#C4C4C4"/>
<path d="M20.7255 286.001L72.4549 262.784M20.7255 286.001L77.0881 342.764M20.7255 286.001L36.3951 342.678M72.4549 262.784L123.553 330.496M72.4549 262.784L77.0881 342.764M123.553 330.496L120.107 390.79M123.553 330.496L77.0881 342.764M120.107 390.79L71.9852 410.909M120.107 390.79L77.0881 342.764M71.9852 410.909L77.0881 342.764M71.9852 410.909L36.3951 342.678M77.0881 342.764L36.3951 342.678" stroke="black"/>
</svg>
