<svg class="header-background svg-background" height="100%" width="100%" preserveAspectRatio="none" viewBox="0 0 900 900" xmlns="http://www.w3.org/2000/svg" xmlns:xlink="http://www.w3.org/1999/xlink" version="1.1"><g stroke-width="1" stroke-linejoin="bevel"><path d="M439.3 419.3L475.7 416.3L471.7 365.9Z" fill="#68471a" stroke="#68471a"></path><path d="M471.7 365.9L425.3 361.9L439.3 419.3Z" fill="#302007" stroke="#302007"></path><path d="M471.7 365.9L468.7 344.6L425.3 361.9Z" fill="#68471a" stroke="#68471a"></path><path d="M475.7 416.3L503.1 360.9L471.7 365.9Z" fill="#5e3f16" stroke="#5e3f16"></path><path d="M471.7 365.9L503.1 360.9L468.7 344.6Z" fill="#392508" stroke="#392508"></path><path d="M425.3 361.9L387.9 416.3L439.3 419.3Z" fill="#3d2709" stroke="#3d2709"></path><path d="M506.1 477.7L530.1 424.3L475.7 416.3Z" fill="#3d2709" stroke="#3d2709"></path><path d="M475.7 416.3L530.1 424.3L503.1 360.9Z" fill="#5e3f16" stroke="#5e3f16"></path><path d="M468.7 344.6L412.3 320.6L425.3 361.9Z" fill="#68471a" stroke="#68471a"></path><path d="M425.3 361.9L362.9 372.9L387.9 416.3Z" fill="#68471a" stroke="#68471a"></path><path d="M413.3 472.7L465.7 479.7L439.3 419.3Z" fill="#543812" stroke="#543812"></path><path d="M439.3 419.3L465.7 479.7L475.7 416.3Z" fill="#543812" stroke="#543812"></path><path d="M387.9 416.3L413.3 472.7L439.3 419.3Z" fill="#302007" stroke="#302007"></path><path d="M385.9 314.6L362.9 372.9L425.3 361.9Z" fill="#402909" stroke="#402909"></path><path d="M387.9 416.3L389.9 473.7L413.3 472.7Z" fill="#4a300e" stroke="#4a300e"></path><path d="M465.7 479.7L506.1 477.7L475.7 416.3Z" fill="#543812" stroke="#543812"></path><path d="M581.4 366.9L534.1 330.6L503.1 360.9Z" fill="#332207" stroke="#332207"></path><path d="M503.1 360.9L534.1 330.6L468.7 344.6Z" fill="#68471a" stroke="#68471a"></path><path d="M468.7 344.6L464.7 286.2L412.3 320.6Z" fill="#392508" stroke="#392508"></path><path d="M337.6 426.3L389.9 473.7L387.9 416.3Z" fill="#543812" stroke="#543812"></path><path d="M413.3 472.7L417.3 504.1L465.7 479.7Z" fill="#734f1e" stroke="#734f1e"></path><path d="M419.3 275.2L385.9 314.6L412.3 320.6Z" fill="#402909" stroke="#402909"></path><path d="M412.3 320.6L385.9 314.6L425.3 361.9Z" fill="#68471a" stroke="#68471a"></path><path d="M534.1 330.6L464.7 286.2L468.7 344.6Z" fill="#3d2709" stroke="#3d2709"></path><path d="M324.6 319.6L341.6 371.9L362.9 372.9Z" fill="#402909" stroke="#402909"></path><path d="M362.9 372.9L337.6 426.3L387.9 416.3Z" fill="#4a300e" stroke="#4a300e"></path><path d="M389.9 473.7L417.3 504.1L413.3 472.7Z" fill="#543812" stroke="#543812"></path><path d="M465.7 479.7L475.7 521.1L506.1 477.7Z" fill="#392508" stroke="#392508"></path><path d="M341.6 371.9L337.6 426.3L362.9 372.9Z" fill="#392508" stroke="#392508"></path><path d="M389.9 473.7L368.9 503.1L417.3 504.1Z" fill="#68471a" stroke="#68471a"></path><path d="M464.7 286.2L419.3 275.2L412.3 320.6Z" fill="#332207" stroke="#332207"></path><path d="M576.4 490.7L573.4 429.3L530.1 424.3Z" fill="#3d2709" stroke="#3d2709"></path><path d="M530.1 424.3L581.4 366.9L503.1 360.9Z" fill="#68471a" stroke="#68471a"></path><path d="M573.4 429.3L581.4 366.9L530.1 424.3Z" fill="#402909" stroke="#402909"></path><path d="M417.3 504.1L475.7 521.1L465.7 479.7Z" fill="#68471a" stroke="#68471a"></path><path d="M506.1 477.7L576.4 490.7L530.1 424.3Z" fill="#4a300e" stroke="#4a300e"></path><path d="M475.7 521.1L513.1 513.1L506.1 477.7Z" fill="#68471a" stroke="#68471a"></path><path d="M581.4 366.9L572.4 324.6L534.1 330.6Z" fill="#302007" stroke="#302007"></path><path d="M534.1 330.6L531.1 273.2L464.7 286.2Z" fill="#332207" stroke="#332207"></path><path d="M419.3 275.2L361.9 293.2L385.9 314.6Z" fill="#543812" stroke="#543812"></path><path d="M385.9 314.6L324.6 319.6L362.9 372.9Z" fill="#543812" stroke="#543812"></path><path d="M334.6 478.7L368.9 503.1L389.9 473.7Z" fill="#734f1e" stroke="#734f1e"></path><path d="M417.3 504.1L429.3 553.4L475.7 521.1Z" fill="#4a300e" stroke="#4a300e"></path><path d="M575.4 296.2L531.1 273.2L534.1 330.6Z" fill="#734f1e" stroke="#734f1e"></path><path d="M464.7 286.2L485.7 244.8L419.3 275.2Z" fill="#332207" stroke="#332207"></path><path d="M337.6 426.3L334.6 478.7L389.9 473.7Z" fill="#4a300e" stroke="#4a300e"></path><path d="M573.4 429.3L603.8 374.9L581.4 366.9Z" fill="#362408" stroke="#362408"></path><path d="M581.4 366.9L619.8 330.6L572.4 324.6Z" fill="#3d2709" stroke="#3d2709"></path><path d="M361.9 293.2L324.6 319.6L385.9 314.6Z" fill="#392508" stroke="#392508"></path><path d="M341.6 371.9L300.2 378.9L337.6 426.3Z" fill="#4a300e" stroke="#4a300e"></path><path d="M337.6 426.3L285.2 425.3L334.6 478.7Z" fill="#302007" stroke="#302007"></path><path d="M520.1 253.8L485.7 244.8L464.7 286.2Z" fill="#543812" stroke="#543812"></path><path d="M419.3 275.2L409.3 243.8L361.9 293.2Z" fill="#734f1e" stroke="#734f1e"></path><path d="M578.4 235.8L520.1 253.8L531.1 273.2Z" fill="#402909" stroke="#402909"></path><path d="M531.1 273.2L520.1 253.8L464.7 286.2Z" fill="#5e3f16" stroke="#5e3f16"></path><path d="M611.8 300.2L575.4 296.2L572.4 324.6Z" fill="#302007" stroke="#302007"></path><path d="M572.4 324.6L575.4 296.2L534.1 330.6Z" fill="#4a300e" stroke="#4a300e"></path><path d="M485.7 244.8L409.3 243.8L419.3 275.2Z" fill="#392508" stroke="#392508"></path><path d="M361.9 293.2L319.6 286.2L324.6 319.6Z" fill="#4a300e" stroke="#4a300e"></path><path d="M513.1 513.1L576.4 490.7L506.1 477.7Z" fill="#332207" stroke="#332207"></path><path d="M573.4 429.3L626.8 432.3L603.8 374.9Z" fill="#332207" stroke="#332207"></path><path d="M324.6 319.6L300.2 378.9L341.6 371.9Z" fill="#734f1e" stroke="#734f1e"></path><path d="M371.9 551.4L417.3 504.1L368.9 503.1Z" fill="#734f1e" stroke="#734f1e"></path><path d="M371.9 551.4L429.3 553.4L417.3 504.1Z" fill="#402909" stroke="#402909"></path><path d="M523.1 560.4L552.4 535.1L513.1 513.1Z" fill="#543812" stroke="#543812"></path><path d="M513.1 513.1L552.4 535.1L576.4 490.7Z" fill="#3d2709" stroke="#3d2709"></path><path d="M523.1 560.4L513.1 513.1L475.7 521.1Z" fill="#3d2709" stroke="#3d2709"></path><path d="M339.6 225.8L319.6 286.2L361.9 293.2Z" fill="#3d2709" stroke="#3d2709"></path><path d="M324.6 319.6L267.2 347.6L300.2 378.9Z" fill="#734f1e" stroke="#734f1e"></path><path d="M236.8 378.9L285.2 425.3L300.2 378.9Z" fill="#734f1e" stroke="#734f1e"></path><path d="M300.2 378.9L285.2 425.3L337.6 426.3Z" fill="#362408" stroke="#362408"></path><path d="M657.2 375.9L619.8 330.6L603.8 374.9Z" fill="#68471a" stroke="#68471a"></path><path d="M603.8 374.9L619.8 330.6L581.4 366.9Z" fill="#332207" stroke="#332207"></path><path d="M618.8 459.7L573.4 429.3L576.4 490.7Z" fill="#4a300e" stroke="#4a300e"></path><path d="M618.8 459.7L626.8 432.3L573.4 429.3Z" fill="#3d2709" stroke="#3d2709"></path><path d="M616.8 507.1L618.8 459.7L576.4 490.7Z" fill="#332207" stroke="#332207"></path><path d="M299.2 517.1L331.6 522.1L334.6 478.7Z" fill="#68471a" stroke="#68471a"></path><path d="M334.6 478.7L331.6 522.1L368.9 503.1Z" fill="#302007" stroke="#302007"></path><path d="M331.6 522.1L371.9 551.4L368.9 503.1Z" fill="#734f1e" stroke="#734f1e"></path><path d="M461.7 579.4L475.7 521.1L429.3 553.4Z" fill="#392508" stroke="#392508"></path><path d="M461.7 579.4L523.1 560.4L475.7 521.1Z" fill="#68471a" stroke="#68471a"></path><path d="M619.8 330.6L611.8 300.2L572.4 324.6Z" fill="#5e3f16" stroke="#5e3f16"></path><path d="M575.4 296.2L578.4 235.8L531.1 273.2Z" fill="#392508" stroke="#392508"></path><path d="M464.7 618.8L461.7 579.4L408.3 627.8Z" fill="#68471a" stroke="#68471a"></path><path d="M408.3 206.5L362.9 228.8L409.3 243.8Z" fill="#362408" stroke="#362408"></path><path d="M409.3 243.8L362.9 228.8L361.9 293.2Z" fill="#4a300e" stroke="#4a300e"></path><path d="M533.1 174.5L461.7 203.5L485.7 244.8Z" fill="#4a300e" stroke="#4a300e"></path><path d="M485.7 244.8L461.7 203.5L409.3 243.8Z" fill="#68471a" stroke="#68471a"></path><path d="M533.1 174.5L485.7 244.8L520.1 253.8Z" fill="#68471a" stroke="#68471a"></path><path d="M285.2 425.3L288.2 486.7L334.6 478.7Z" fill="#543812" stroke="#543812"></path><path d="M461.7 203.5L408.3 206.5L409.3 243.8Z" fill="#4a300e" stroke="#4a300e"></path><path d="M296.2 281.2L324.6 319.6L319.6 286.2Z" fill="#543812" stroke="#543812"></path><path d="M296.2 281.2L267.2 347.6L324.6 319.6Z" fill="#332207" stroke="#332207"></path><path d="M285.2 425.3L251.8 476.7L288.2 486.7Z" fill="#302007" stroke="#302007"></path><path d="M295.2 231.8L296.2 281.2L319.6 286.2Z" fill="#402909" stroke="#402909"></path><path d="M605.8 571.4L616.8 507.1L552.4 535.1Z" fill="#362408" stroke="#362408"></path><path d="M552.4 535.1L616.8 507.1L576.4 490.7Z" fill="#4a300e" stroke="#4a300e"></path><path d="M676.2 485.7L665.2 419.3L626.8 432.3Z" fill="#68471a" stroke="#68471a"></path><path d="M611.8 300.2L578.4 235.8L575.4 296.2Z" fill="#5e3f16" stroke="#5e3f16"></path><path d="M288.2 486.7L299.2 517.1L334.6 478.7Z" fill="#362408" stroke="#362408"></path><path d="M331.6 522.1L346.6 561.4L371.9 551.4Z" fill="#402909" stroke="#402909"></path><path d="M297.2 550.4L346.6 561.4L331.6 522.1Z" fill="#543812" stroke="#543812"></path><path d="M408.3 627.8L461.7 579.4L429.3 553.4Z" fill="#392508" stroke="#392508"></path><path d="M665.2 419.3L657.2 375.9L626.8 432.3Z" fill="#68471a" stroke="#68471a"></path><path d="M626.8 432.3L657.2 375.9L603.8 374.9Z" fill="#332207" stroke="#332207"></path><path d="M619.8 330.6L649.2 287.2L611.8 300.2Z" fill="#5e3f16" stroke="#5e3f16"></path><path d="M611.8 300.2L623.8 236.8L578.4 235.8Z" fill="#4a300e" stroke="#4a300e"></path><path d="M362.9 228.8L339.6 225.8L361.9 293.2Z" fill="#302007" stroke="#302007"></path><path d="M332.6 189.5L339.6 225.8L362.9 228.8Z" fill="#362408" stroke="#362408"></path><path d="M676.2 485.7L626.8 432.3L618.8 459.7Z" fill="#302007" stroke="#302007"></path><path d="M526.1 600.8L551.4 584.4L523.1 560.4Z" fill="#5e3f16" stroke="#5e3f16"></path><path d="M523.1 560.4L551.4 584.4L552.4 535.1Z" fill="#4a300e" stroke="#4a300e"></path><path d="M223.8 280.2L250.8 327.6L296.2 281.2Z" fill="#5e3f16" stroke="#5e3f16"></path><path d="M296.2 281.2L250.8 327.6L267.2 347.6Z" fill="#362408" stroke="#362408"></path><path d="M267.2 347.6L236.8 378.9L300.2 378.9Z" fill="#5e3f16" stroke="#5e3f16"></path><path d="M250.8 327.6L236.8 378.9L267.2 347.6Z" fill="#543812" stroke="#543812"></path><path d="M288.2 486.7L236.8 531.1L299.2 517.1Z" fill="#5e3f16" stroke="#5e3f16"></path><path d="M461.7 579.4L526.1 600.8L523.1 560.4Z" fill="#4a300e" stroke="#4a300e"></path><path d="M464.7 618.8L526.1 600.8L461.7 579.4Z" fill="#332207" stroke="#332207"></path><path d="M234.8 418.3L251.8 476.7L285.2 425.3Z" fill="#68471a" stroke="#68471a"></path><path d="M299.2 517.1L297.2 550.4L331.6 522.1Z" fill="#3d2709" stroke="#3d2709"></path><path d="M674.2 325.6L619.8 330.6L657.2 375.9Z" fill="#5e3f16" stroke="#5e3f16"></path><path d="M674.2 325.6L649.2 287.2L619.8 330.6Z" fill="#402909" stroke="#402909"></path><path d="M236.8 378.9L234.8 418.3L285.2 425.3Z" fill="#302007" stroke="#302007"></path><path d="M236.8 531.1L297.2 550.4L299.2 517.1Z" fill="#68471a" stroke="#68471a"></path><path d="M408.3 627.8L371.9 551.4L361.9 622.8Z" fill="#543812" stroke="#543812"></path><path d="M408.3 627.8L429.3 553.4L371.9 551.4Z" fill="#5e3f16" stroke="#5e3f16"></path><path d="M332.6 189.5L295.2 231.8L339.6 225.8Z" fill="#4a300e" stroke="#4a300e"></path><path d="M339.6 225.8L295.2 231.8L319.6 286.2Z" fill="#302007" stroke="#302007"></path><path d="M696.5 345.6L674.2 325.6L657.2 375.9Z" fill="#543812" stroke="#543812"></path><path d="M649.2 287.2L623.8 236.8L611.8 300.2Z" fill="#3d2709" stroke="#3d2709"></path><path d="M562.4 181.5L533.1 174.5L520.1 253.8Z" fill="#402909" stroke="#402909"></path><path d="M651.2 252.8L623.8 236.8L649.2 287.2Z" fill="#362408" stroke="#362408"></path><path d="M429.3 154.1L367.9 178.5L408.3 206.5Z" fill="#362408" stroke="#362408"></path><path d="M408.3 206.5L367.9 178.5L362.9 228.8Z" fill="#392508" stroke="#392508"></path><path d="M429.3 154.1L408.3 206.5L461.7 203.5Z" fill="#332207" stroke="#332207"></path><path d="M562.4 181.5L520.1 253.8L578.4 235.8Z" fill="#302007" stroke="#302007"></path><path d="M551.4 584.4L605.8 571.4L552.4 535.1Z" fill="#734f1e" stroke="#734f1e"></path><path d="M616.8 507.1L676.2 485.7L618.8 459.7Z" fill="#543812" stroke="#543812"></path><path d="M577.4 618.8L605.8 571.4L551.4 584.4Z" fill="#734f1e" stroke="#734f1e"></path><path d="M624.8 205.5L562.4 181.5L578.4 235.8Z" fill="#4a300e" stroke="#4a300e"></path><path d="M367.9 178.5L332.6 189.5L362.9 228.8Z" fill="#543812" stroke="#543812"></path><path d="M673.2 508.1L676.2 485.7L616.8 507.1Z" fill="#3d2709" stroke="#3d2709"></path><path d="M701.5 392.9L696.5 345.6L657.2 375.9Z" fill="#5e3f16" stroke="#5e3f16"></path><path d="M361.9 622.8L371.9 551.4L346.6 561.4Z" fill="#5e3f16" stroke="#5e3f16"></path><path d="M478.7 152.1L429.3 154.1L461.7 203.5Z" fill="#4a300e" stroke="#4a300e"></path><path d="M367.9 178.5L340.6 149.1L332.6 189.5Z" fill="#302007" stroke="#302007"></path><path d="M704.5 301.2L651.2 252.8L649.2 287.2Z" fill="#68471a" stroke="#68471a"></path><path d="M623.8 236.8L624.8 205.5L578.4 235.8Z" fill="#68471a" stroke="#68471a"></path><path d="M534.1 143.1L478.7 152.1L533.1 174.5Z" fill="#3d2709" stroke="#3d2709"></path><path d="M533.1 174.5L478.7 152.1L461.7 203.5Z" fill="#392508" stroke="#392508"></path><path d="M701.5 392.9L657.2 375.9L665.2 419.3Z" fill="#734f1e" stroke="#734f1e"></path><path d="M674.2 325.6L704.5 301.2L649.2 287.2Z" fill="#332207" stroke="#332207"></path><path d="M726.5 419.3L701.5 392.9L665.2 419.3Z" fill="#302007" stroke="#302007"></path><path d="M646.2 562.4L673.2 508.1L616.8 507.1Z" fill="#68471a" stroke="#68471a"></path><path d="M725.5 455.7L726.5 419.3L665.2 419.3Z" fill="#5e3f16" stroke="#5e3f16"></path><path d="M316.6 628.8L361.9 622.8L346.6 561.4Z" fill="#332207" stroke="#332207"></path><path d="M672.2 201.5L624.8 205.5L623.8 236.8Z" fill="#734f1e" stroke="#734f1e"></path><path d="M628.8 617.8L646.2 562.4L605.8 571.4Z" fill="#543812" stroke="#543812"></path><path d="M605.8 571.4L646.2 562.4L616.8 507.1Z" fill="#4a300e" stroke="#4a300e"></path><path d="M528.1 654.2L577.4 618.8L526.1 600.8Z" fill="#402909" stroke="#402909"></path><path d="M526.1 600.8L577.4 618.8L551.4 584.4Z" fill="#302007" stroke="#302007"></path><path d="M528.1 654.2L526.1 600.8L489.7 663.2Z" fill="#362408" stroke="#362408"></path><path d="M219.8 243.8L223.8 280.2L296.2 281.2Z" fill="#4a300e" stroke="#4a300e"></path><path d="M250.8 327.6L195.5 365.9L236.8 378.9Z" fill="#362408" stroke="#362408"></path><path d="M236.8 378.9L195.5 420.3L234.8 418.3Z" fill="#302007" stroke="#302007"></path><path d="M219.8 243.8L296.2 281.2L295.2 231.8Z" fill="#68471a" stroke="#68471a"></path><path d="M182.5 509.1L236.8 531.1L251.8 476.7Z" fill="#332207" stroke="#332207"></path><path d="M251.8 476.7L236.8 531.1L288.2 486.7Z" fill="#332207" stroke="#332207"></path><path d="M297.2 550.4L295.2 600.8L346.6 561.4Z" fill="#5e3f16" stroke="#5e3f16"></path><path d="M185.5 456.7L251.8 476.7L234.8 418.3Z" fill="#392508" stroke="#392508"></path><path d="M179.5 332.6L195.5 365.9L250.8 327.6Z" fill="#5e3f16" stroke="#5e3f16"></path><path d="M195.5 365.9L195.5 420.3L236.8 378.9Z" fill="#402909" stroke="#402909"></path><path d="M564.4 154.1L533.1 174.5L562.4 181.5Z" fill="#4a300e" stroke="#4a300e"></path><path d="M564.4 154.1L534.1 143.1L533.1 174.5Z" fill="#302007" stroke="#302007"></path><path d="M426.3 98.7L368.9 132.1L429.3 154.1Z" fill="#734f1e" stroke="#734f1e"></path><path d="M609.8 155.1L564.4 154.1L562.4 181.5Z" fill="#734f1e" stroke="#734f1e"></path><path d="M246.8 558.4L295.2 600.8L297.2 550.4Z" fill="#3d2709" stroke="#3d2709"></path><path d="M741.9 279.2L704.5 301.2L770.9 333.6Z" fill="#362408" stroke="#362408"></path><path d="M696.5 345.6L704.5 301.2L674.2 325.6Z" fill="#3d2709" stroke="#3d2709"></path><path d="M651.2 252.8L672.2 201.5L623.8 236.8Z" fill="#543812" stroke="#543812"></path><path d="M236.8 531.1L246.8 558.4L297.2 550.4Z" fill="#3d2709" stroke="#3d2709"></path><path d="M192.5 564.4L246.8 558.4L236.8 531.1Z" fill="#734f1e" stroke="#734f1e"></path><path d="M368.9 132.1L340.6 149.1L367.9 178.5Z" fill="#5e3f16" stroke="#5e3f16"></path><path d="M332.6 189.5L279.2 178.5L295.2 231.8Z" fill="#392508" stroke="#392508"></path><path d="M368.9 132.1L367.9 178.5L429.3 154.1Z" fill="#402909" stroke="#402909"></path><path d="M489.7 663.2L526.1 600.8L464.7 618.8Z" fill="#3d2709" stroke="#3d2709"></path><path d="M489.7 663.2L464.7 618.8L413.3 671.2Z" fill="#734f1e" stroke="#734f1e"></path><path d="M725.5 455.7L665.2 419.3L676.2 485.7Z" fill="#302007" stroke="#302007"></path><path d="M701.5 392.9L742.9 385.9L696.5 345.6Z" fill="#734f1e" stroke="#734f1e"></path><path d="M725.5 455.7L676.2 485.7L717.5 531.1Z" fill="#332207" stroke="#332207"></path><path d="M413.3 671.2L464.7 618.8L408.3 627.8Z" fill="#362408" stroke="#362408"></path><path d="M295.2 600.8L316.6 628.8L346.6 561.4Z" fill="#332207" stroke="#332207"></path><path d="M363.9 667.2L413.3 671.2L408.3 627.8Z" fill="#332207" stroke="#332207"></path><path d="M297.2 661.2L316.6 628.8L295.2 600.8Z" fill="#5e3f16" stroke="#5e3f16"></path><path d="M426.3 98.7L429.3 154.1L467.7 93.7Z" fill="#4a300e" stroke="#4a300e"></path><path d="M268.2 159.1L279.2 178.5L340.6 149.1Z" fill="#5e3f16" stroke="#5e3f16"></path><path d="M340.6 149.1L279.2 178.5L332.6 189.5Z" fill="#3d2709" stroke="#3d2709"></path><path d="M717.5 531.1L676.2 485.7L673.2 508.1Z" fill="#392508" stroke="#392508"></path><path d="M130.1 457.7L185.5 456.7L124.1 436.3Z" fill="#68471a" stroke="#68471a"></path><path d="M195.5 420.3L185.5 456.7L234.8 418.3Z" fill="#4a300e" stroke="#4a300e"></path><path d="M226.8 202.5L219.8 243.8L295.2 231.8Z" fill="#4a300e" stroke="#4a300e"></path><path d="M223.8 280.2L198.5 284.2L250.8 327.6Z" fill="#3d2709" stroke="#3d2709"></path><path d="M219.8 243.8L198.5 284.2L223.8 280.2Z" fill="#392508" stroke="#392508"></path><path d="M195.5 365.9L151.1 384.9L195.5 420.3Z" fill="#5e3f16" stroke="#5e3f16"></path><path d="M363.9 667.2L408.3 627.8L361.9 622.8Z" fill="#3d2709" stroke="#3d2709"></path><path d="M198.5 284.2L179.5 332.6L250.8 327.6Z" fill="#362408" stroke="#362408"></path><path d="M578.4 76.7L525.1 82.7L534.1 143.1Z" fill="#392508" stroke="#392508"></path><path d="M624.8 205.5L609.8 155.1L562.4 181.5Z" fill="#68471a" stroke="#68471a"></path><path d="M672.2 201.5L609.8 155.1L624.8 205.5Z" fill="#402909" stroke="#402909"></path><path d="M577.4 618.8L628.8 617.8L605.8 571.4Z" fill="#734f1e" stroke="#734f1e"></path><path d="M706.5 572.4L717.5 531.1L673.2 508.1Z" fill="#4a300e" stroke="#4a300e"></path><path d="M585.4 647.2L628.8 617.8L577.4 618.8Z" fill="#332207" stroke="#332207"></path><path d="M553.4 708.5L585.4 647.2L528.1 654.2Z" fill="#734f1e" stroke="#734f1e"></path><path d="M528.1 654.2L585.4 647.2L577.4 618.8Z" fill="#5e3f16" stroke="#5e3f16"></path><path d="M749.9 417.3L742.9 385.9L726.5 419.3Z" fill="#3d2709" stroke="#3d2709"></path><path d="M726.5 419.3L742.9 385.9L701.5 392.9Z" fill="#543812" stroke="#543812"></path><path d="M718.5 247.8L651.2 252.8L704.5 301.2Z" fill="#734f1e" stroke="#734f1e"></path><path d="M718.5 247.8L672.2 201.5L651.2 252.8Z" fill="#3d2709" stroke="#3d2709"></path><path d="M336.6 665.2L363.9 667.2L361.9 622.8Z" fill="#734f1e" stroke="#734f1e"></path><path d="M664.2 670.2L656.2 608.8L628.8 617.8Z" fill="#68471a" stroke="#68471a"></path><path d="M628.8 617.8L656.2 608.8L646.2 562.4Z" fill="#332207" stroke="#332207"></path><path d="M467.7 93.7L478.7 152.1L534.1 143.1Z" fill="#3d2709" stroke="#3d2709"></path><path d="M467.7 93.7L429.3 154.1L478.7 152.1Z" fill="#302007" stroke="#302007"></path><path d="M298.2 97.7L268.2 159.1L340.6 149.1Z" fill="#734f1e" stroke="#734f1e"></path><path d="M771.9 476.7L749.9 417.3L725.5 455.7Z" fill="#332207" stroke="#332207"></path><path d="M725.5 455.7L749.9 417.3L726.5 419.3Z" fill="#543812" stroke="#543812"></path><path d="M706.5 572.4L673.2 508.1L646.2 562.4Z" fill="#402909" stroke="#402909"></path><path d="M130.1 457.7L182.5 509.1L185.5 456.7Z" fill="#362408" stroke="#362408"></path><path d="M185.5 456.7L182.5 509.1L251.8 476.7Z" fill="#402909" stroke="#402909"></path><path d="M297.2 661.2L336.6 665.2L316.6 628.8Z" fill="#4a300e" stroke="#4a300e"></path><path d="M268.2 159.1L226.8 202.5L279.2 178.5Z" fill="#734f1e" stroke="#734f1e"></path><path d="M279.2 178.5L226.8 202.5L295.2 231.8Z" fill="#5e3f16" stroke="#5e3f16"></path><path d="M219.8 243.8L186.5 231.8L198.5 284.2Z" fill="#302007" stroke="#302007"></path><path d="M127.1 319.6L151.1 384.9L179.5 332.6Z" fill="#392508" stroke="#392508"></path><path d="M235.8 608.8L295.2 600.8L246.8 558.4Z" fill="#362408" stroke="#362408"></path><path d="M316.6 628.8L336.6 665.2L361.9 622.8Z" fill="#5e3f16" stroke="#5e3f16"></path><path d="M461.7 711.5L489.7 663.2L413.3 671.2Z" fill="#543812" stroke="#543812"></path><path d="M525.1 82.7L467.7 93.7L534.1 143.1Z" fill="#4a300e" stroke="#4a300e"></path><path d="M323.6 91.7L340.6 149.1L368.9 132.1Z" fill="#302007" stroke="#302007"></path><path d="M704.5 301.2L696.5 345.6L770.9 333.6Z" fill="#402909" stroke="#402909"></path><path d="M741.9 279.2L718.5 247.8L704.5 301.2Z" fill="#362408" stroke="#362408"></path><path d="M140.1 292.2L179.5 332.6L198.5 284.2Z" fill="#332207" stroke="#332207"></path><path d="M179.5 332.6L151.1 384.9L195.5 365.9Z" fill="#5e3f16" stroke="#5e3f16"></path><path d="M461.7 711.5L516.1 694.5L489.7 663.2Z" fill="#3d2709" stroke="#3d2709"></path><path d="M489.7 663.2L516.1 694.5L528.1 654.2Z" fill="#332207" stroke="#332207"></path><path d="M585.4 647.2L623.8 659.2L628.8 617.8Z" fill="#402909" stroke="#402909"></path><path d="M461.7 711.5L413.3 671.2L418.3 715.5Z" fill="#3d2709" stroke="#3d2709"></path><path d="M770.9 333.6L696.5 345.6L742.9 385.9Z" fill="#5e3f16" stroke="#5e3f16"></path><path d="M192.5 564.4L235.8 608.8L246.8 558.4Z" fill="#4a300e" stroke="#4a300e"></path><path d="M656.2 608.8L706.5 572.4L646.2 562.4Z" fill="#68471a" stroke="#68471a"></path><path d="M717.5 531.1L754.9 504.1L725.5 455.7Z" fill="#3d2709" stroke="#3d2709"></path><path d="M235.8 608.8L297.2 661.2L295.2 600.8Z" fill="#402909" stroke="#402909"></path><path d="M418.3 715.5L413.3 671.2L373.9 715.5Z" fill="#362408" stroke="#362408"></path><path d="M174.5 189.5L186.5 231.8L226.8 202.5Z" fill="#302007" stroke="#302007"></path><path d="M226.8 202.5L186.5 231.8L219.8 243.8Z" fill="#302007" stroke="#302007"></path><path d="M146.1 517.1L192.5 564.4L182.5 509.1Z" fill="#3d2709" stroke="#3d2709"></path><path d="M182.5 509.1L192.5 564.4L236.8 531.1Z" fill="#734f1e" stroke="#734f1e"></path><path d="M616.8 715.5L623.8 659.2L585.4 647.2Z" fill="#402909" stroke="#402909"></path><path d="M656.2 608.8L724.5 612.8L706.5 572.4Z" fill="#332207" stroke="#332207"></path><path d="M578.4 76.7L534.1 143.1L564.4 154.1Z" fill="#3d2709" stroke="#3d2709"></path><path d="M438.3 49.4L391.9 76.7L426.3 98.7Z" fill="#5e3f16" stroke="#5e3f16"></path><path d="M578.4 76.7L564.4 154.1L609.8 155.1Z" fill="#543812" stroke="#543812"></path><path d="M413.3 671.2L363.9 667.2L373.9 715.5Z" fill="#68471a" stroke="#68471a"></path><path d="M768.9 572.4L754.9 504.1L717.5 531.1Z" fill="#3d2709" stroke="#3d2709"></path><path d="M797.3 391.9L742.9 385.9L749.9 417.3Z" fill="#332207" stroke="#332207"></path><path d="M797.3 391.9L770.9 333.6L742.9 385.9Z" fill="#402909" stroke="#402909"></path><path d="M438.3 49.4L426.3 98.7L467.7 93.7Z" fill="#5e3f16" stroke="#5e3f16"></path><path d="M426.3 98.7L391.9 76.7L368.9 132.1Z" fill="#5e3f16" stroke="#5e3f16"></path><path d="M809.3 289.2L745.9 249.8L741.9 279.2Z" fill="#4a300e" stroke="#4a300e"></path><path d="M741.9 279.2L745.9 249.8L718.5 247.8Z" fill="#3d2709" stroke="#3d2709"></path><path d="M718.5 247.8L721.5 179.5L672.2 201.5Z" fill="#3d2709" stroke="#3d2709"></path><path d="M672.2 201.5L675.2 135.1L609.8 155.1Z" fill="#332207" stroke="#332207"></path><path d="M373.9 715.5L363.9 667.2L336.6 665.2Z" fill="#543812" stroke="#543812"></path><path d="M754.9 504.1L771.9 476.7L725.5 455.7Z" fill="#4a300e" stroke="#4a300e"></path><path d="M391.9 76.7L323.6 91.7L368.9 132.1Z" fill="#734f1e" stroke="#734f1e"></path><path d="M175.5 145.1L174.5 189.5L226.8 202.5Z" fill="#392508" stroke="#392508"></path><path d="M516.1 694.5L553.4 708.5L528.1 654.2Z" fill="#332207" stroke="#332207"></path><path d="M559.4 754.9L553.4 708.5L516.1 764.9Z" fill="#68471a" stroke="#68471a"></path><path d="M516.1 764.9L516.1 694.5L461.7 711.5Z" fill="#392508" stroke="#392508"></path><path d="M131.1 251.8L140.1 292.2L198.5 284.2Z" fill="#362408" stroke="#362408"></path><path d="M124.1 436.3L195.5 420.3L151.1 384.9Z" fill="#392508" stroke="#392508"></path><path d="M124.1 436.3L185.5 456.7L195.5 420.3Z" fill="#332207" stroke="#332207"></path><path d="M322.6 721.5L373.9 715.5L336.6 665.2Z" fill="#5e3f16" stroke="#5e3f16"></path><path d="M130.1 457.7L146.1 517.1L182.5 509.1Z" fill="#3d2709" stroke="#3d2709"></path><path d="M184.5 657.2L240.8 662.2L235.8 608.8Z" fill="#402909" stroke="#402909"></path><path d="M323.6 91.7L298.2 97.7L340.6 149.1Z" fill="#734f1e" stroke="#734f1e"></path><path d="M107.7 440.3L124.1 436.3L79.7 383.9Z" fill="#5e3f16" stroke="#5e3f16"></path><path d="M130.1 457.7L107.7 485.7L146.1 517.1Z" fill="#5e3f16" stroke="#5e3f16"></path><path d="M140.1 292.2L127.1 319.6L179.5 332.6Z" fill="#332207" stroke="#332207"></path><path d="M707.5 155.1L675.2 135.1L672.2 201.5Z" fill="#402909" stroke="#402909"></path><path d="M622.8 86.7L578.4 76.7L609.8 155.1Z" fill="#68471a" stroke="#68471a"></path><path d="M503.1 43.4L468.7 50.4L467.7 93.7Z" fill="#68471a" stroke="#68471a"></path><path d="M755.9 186.5L721.5 179.5L718.5 247.8Z" fill="#734f1e" stroke="#734f1e"></path><path d="M820.3 409.3L797.3 391.9L749.9 417.3Z" fill="#302007" stroke="#302007"></path><path d="M813.3 205.5L755.9 186.5L745.9 249.8Z" fill="#4a300e" stroke="#4a300e"></path><path d="M745.9 249.8L755.9 186.5L718.5 247.8Z" fill="#543812" stroke="#543812"></path><path d="M503.1 43.4L467.7 93.7L525.1 82.7Z" fill="#734f1e" stroke="#734f1e"></path><path d="M391.9 76.7L326.6 47.4L323.6 91.7Z" fill="#5e3f16" stroke="#5e3f16"></path><path d="M290.2 39.4L242.8 98.7L298.2 97.7Z" fill="#734f1e" stroke="#734f1e"></path><path d="M468.7 50.4L438.3 49.4L467.7 93.7Z" fill="#362408" stroke="#362408"></path><path d="M180.5 614.8L235.8 608.8L192.5 564.4Z" fill="#392508" stroke="#392508"></path><path d="M235.8 608.8L240.8 662.2L297.2 661.2Z" fill="#68471a" stroke="#68471a"></path><path d="M297.2 661.2L322.6 721.5L336.6 665.2Z" fill="#543812" stroke="#543812"></path><path d="M721.5 179.5L707.5 155.1L672.2 201.5Z" fill="#332207" stroke="#332207"></path><path d="M222.8 126.1L226.8 202.5L268.2 159.1Z" fill="#3d2709" stroke="#3d2709"></path><path d="M186.5 231.8L131.1 251.8L198.5 284.2Z" fill="#362408" stroke="#362408"></path><path d="M140.1 292.2L106.7 317.6L127.1 319.6Z" fill="#332207" stroke="#332207"></path><path d="M623.8 659.2L664.2 670.2L628.8 617.8Z" fill="#392508" stroke="#392508"></path><path d="M706.5 572.4L768.9 572.4L717.5 531.1Z" fill="#402909" stroke="#402909"></path><path d="M821.3 504.1L799.3 472.7L771.9 476.7Z" fill="#362408" stroke="#362408"></path><path d="M616.8 715.5L664.2 670.2L623.8 659.2Z" fill="#332207" stroke="#332207"></path><path d="M699.5 667.2L724.5 612.8L656.2 608.8Z" fill="#4a300e" stroke="#4a300e"></path><path d="M675.2 135.1L622.8 86.7L609.8 155.1Z" fill="#332207" stroke="#332207"></path><path d="M578.4 37.4L503.1 43.4L525.1 82.7Z" fill="#734f1e" stroke="#734f1e"></path><path d="M648.2 79.7L622.8 86.7L675.2 135.1Z" fill="#332207" stroke="#332207"></path><path d="M79.7 383.9L124.1 436.3L151.1 384.9Z" fill="#392508" stroke="#392508"></path><path d="M124.1 436.3L107.7 440.3L130.1 457.7Z" fill="#302007" stroke="#302007"></path><path d="M578.4 37.4L525.1 82.7L578.4 76.7Z" fill="#68471a" stroke="#68471a"></path><path d="M468.7 50.4L489.7 0L438.3 49.4Z" fill="#402909" stroke="#402909"></path><path d="M821.3 504.1L771.9 476.7L754.9 504.1Z" fill="#332207" stroke="#332207"></path><path d="M771.9 476.7L799.3 472.7L749.9 417.3Z" fill="#543812" stroke="#543812"></path><path d="M139.1 564.4L180.5 614.8L192.5 564.4Z" fill="#302007" stroke="#302007"></path><path d="M139.1 564.4L192.5 564.4L146.1 517.1Z" fill="#4a300e" stroke="#4a300e"></path><path d="M174.5 189.5L131.1 251.8L186.5 231.8Z" fill="#402909" stroke="#402909"></path><path d="M127.1 319.6L79.7 383.9L151.1 384.9Z" fill="#402909" stroke="#402909"></path><path d="M242.8 98.7L222.8 126.1L268.2 159.1Z" fill="#3d2709" stroke="#3d2709"></path><path d="M373.9 715.5L411.3 743.9L418.3 715.5Z" fill="#392508" stroke="#392508"></path><path d="M418.3 715.5L461.7 755.9L461.7 711.5Z" fill="#332207" stroke="#332207"></path><path d="M378.9 762.9L411.3 743.9L373.9 715.5Z" fill="#5e3f16" stroke="#5e3f16"></path><path d="M270.2 702.5L322.6 721.5L297.2 661.2Z" fill="#4a300e" stroke="#4a300e"></path><path d="M84.7 273.2L106.7 317.6L140.1 292.2Z" fill="#68471a" stroke="#68471a"></path><path d="M76.7 511.1L107.7 485.7L37.4 481.7Z" fill="#392508" stroke="#392508"></path><path d="M107.7 440.3L107.7 485.7L130.1 457.7Z" fill="#332207" stroke="#332207"></path><path d="M92.7 572.4L139.1 564.4L146.1 517.1Z" fill="#543812" stroke="#543812"></path><path d="M559.4 754.9L616.8 715.5L553.4 708.5Z" fill="#734f1e" stroke="#734f1e"></path><path d="M553.4 708.5L616.8 715.5L585.4 647.2Z" fill="#4a300e" stroke="#4a300e"></path><path d="M751.9 631.8L768.9 572.4L724.5 612.8Z" fill="#302007" stroke="#302007"></path><path d="M240.8 662.2L270.2 702.5L297.2 661.2Z" fill="#543812" stroke="#543812"></path><path d="M225.8 696.5L270.2 702.5L240.8 662.2Z" fill="#3d2709" stroke="#3d2709"></path><path d="M699.5 667.2L656.2 608.8L664.2 670.2Z" fill="#68471a" stroke="#68471a"></path><path d="M724.5 612.8L768.9 572.4L706.5 572.4Z" fill="#543812" stroke="#543812"></path><path d="M298.2 97.7L242.8 98.7L268.2 159.1Z" fill="#332207" stroke="#332207"></path><path d="M175.5 145.1L152.1 180.5L174.5 189.5Z" fill="#362408" stroke="#362408"></path><path d="M326.6 47.4L298.2 97.7L323.6 91.7Z" fill="#734f1e" stroke="#734f1e"></path><path d="M411.3 743.9L461.7 755.9L418.3 715.5Z" fill="#68471a" stroke="#68471a"></path><path d="M721.5 179.5L762.9 154.1L707.5 155.1Z" fill="#3d2709" stroke="#3d2709"></path><path d="M692.5 80.7L648.2 79.7L675.2 135.1Z" fill="#392508" stroke="#392508"></path><path d="M809.3 289.2L741.9 279.2L770.9 333.6Z" fill="#4a300e" stroke="#4a300e"></path><path d="M848.6 418.3L820.3 409.3L799.3 472.7Z" fill="#332207" stroke="#332207"></path><path d="M799.3 472.7L820.3 409.3L749.9 417.3Z" fill="#362408" stroke="#362408"></path><path d="M818.3 314.6L809.3 289.2L770.9 333.6Z" fill="#362408" stroke="#362408"></path><path d="M676.2 711.5L699.5 667.2L664.2 670.2Z" fill="#332207" stroke="#332207"></path><path d="M692.5 80.7L675.2 135.1L707.5 155.1Z" fill="#5e3f16" stroke="#5e3f16"></path><path d="M622.8 86.7L622.8 63.4L578.4 76.7Z" fill="#362408" stroke="#362408"></path><path d="M414.3 0L375.9 33.4L438.3 49.4Z" fill="#68471a" stroke="#68471a"></path><path d="M438.3 49.4L375.9 33.4L391.9 76.7Z" fill="#734f1e" stroke="#734f1e"></path><path d="M375.9 33.4L326.6 47.4L391.9 76.7Z" fill="#402909" stroke="#402909"></path><path d="M818.3 314.6L770.9 333.6L797.3 391.9Z" fill="#543812" stroke="#543812"></path><path d="M648.2 79.7L622.8 63.4L622.8 86.7Z" fill="#68471a" stroke="#68471a"></path><path d="M175.5 145.1L226.8 202.5L222.8 126.1Z" fill="#4a300e" stroke="#4a300e"></path><path d="M174.5 189.5L152.1 180.5L131.1 251.8Z" fill="#302007" stroke="#302007"></path><path d="M131.1 251.8L84.7 273.2L140.1 292.2Z" fill="#3d2709" stroke="#3d2709"></path><path d="M868.6 347.6L818.3 314.6L797.3 391.9Z" fill="#543812" stroke="#543812"></path><path d="M204.5 101.7L175.5 145.1L222.8 126.1Z" fill="#543812" stroke="#543812"></path><path d="M45.4 329.6L79.7 383.9L106.7 317.6Z" fill="#734f1e" stroke="#734f1e"></path><path d="M106.7 317.6L79.7 383.9L127.1 319.6Z" fill="#5e3f16" stroke="#5e3f16"></path><path d="M622.8 63.4L578.4 37.4L578.4 76.7Z" fill="#3d2709" stroke="#3d2709"></path><path d="M503.1 43.4L489.7 0L468.7 50.4Z" fill="#362408" stroke="#362408"></path><path d="M516.1 764.9L553.4 708.5L516.1 694.5Z" fill="#68471a" stroke="#68471a"></path><path d="M616.8 715.5L676.2 711.5L664.2 670.2Z" fill="#5e3f16" stroke="#5e3f16"></path><path d="M461.7 755.9L516.1 764.9L461.7 711.5Z" fill="#362408" stroke="#362408"></path><path d="M342.6 765.9L378.9 762.9L373.9 715.5Z" fill="#402909" stroke="#402909"></path><path d="M422.3 818.3L464.7 808.3L461.7 755.9Z" fill="#543812" stroke="#543812"></path><path d="M461.7 755.9L510.1 796.3L516.1 764.9Z" fill="#332207" stroke="#332207"></path><path d="M342.6 765.9L373.9 715.5L322.6 721.5Z" fill="#362408" stroke="#362408"></path><path d="M142.1 617.8L184.5 657.2L180.5 614.8Z" fill="#402909" stroke="#402909"></path><path d="M180.5 614.8L184.5 657.2L235.8 608.8Z" fill="#543812" stroke="#543812"></path><path d="M292.2 763.9L342.6 765.9L322.6 721.5Z" fill="#332207" stroke="#332207"></path><path d="M89.7 183.5L107.7 238.8L152.1 180.5Z" fill="#4a300e" stroke="#4a300e"></path><path d="M152.1 180.5L107.7 238.8L131.1 251.8Z" fill="#402909" stroke="#402909"></path><path d="M184.5 657.2L225.8 696.5L240.8 662.2Z" fill="#5e3f16" stroke="#5e3f16"></path><path d="M699.5 667.2L751.9 631.8L724.5 612.8Z" fill="#5e3f16" stroke="#5e3f16"></path><path d="M768.9 572.4L794.3 567.4L754.9 504.1Z" fill="#68471a" stroke="#68471a"></path><path d="M791.3 626.8L794.3 567.4L768.9 572.4Z" fill="#402909" stroke="#402909"></path><path d="M794.3 567.4L821.3 504.1L754.9 504.1Z" fill="#402909" stroke="#402909"></path><path d="M242.8 98.7L204.5 101.7L222.8 126.1Z" fill="#362408" stroke="#362408"></path><path d="M41.4 238.8L84.7 273.2L107.7 238.8Z" fill="#362408" stroke="#362408"></path><path d="M231.8 51.4L204.5 101.7L242.8 98.7Z" fill="#68471a" stroke="#68471a"></path><path d="M139.1 564.4L142.1 617.8L180.5 614.8Z" fill="#362408" stroke="#362408"></path><path d="M184.5 657.2L198.5 709.5L225.8 696.5Z" fill="#68471a" stroke="#68471a"></path><path d="M110.7 604.8L142.1 617.8L139.1 564.4Z" fill="#402909" stroke="#402909"></path><path d="M76.7 511.1L146.1 517.1L107.7 485.7Z" fill="#543812" stroke="#543812"></path><path d="M699.5 667.2L753.9 660.2L751.9 631.8Z" fill="#4a300e" stroke="#4a300e"></path><path d="M648.2 755.9L676.2 711.5L616.8 715.5Z" fill="#332207" stroke="#332207"></path><path d="M796.3 145.1L762.9 154.1L755.9 186.5Z" fill="#543812" stroke="#543812"></path><path d="M755.9 186.5L762.9 154.1L721.5 179.5Z" fill="#362408" stroke="#362408"></path><path d="M813.3 205.5L745.9 249.8L822.3 220.8Z" fill="#402909" stroke="#402909"></path><path d="M107.7 238.8L84.7 273.2L131.1 251.8Z" fill="#332207" stroke="#332207"></path><path d="M316.6 0L290.2 39.4L326.6 47.4Z" fill="#402909" stroke="#402909"></path><path d="M326.6 47.4L290.2 39.4L298.2 97.7Z" fill="#3d2709" stroke="#3d2709"></path><path d="M292.2 763.9L322.6 721.5L270.2 702.5Z" fill="#302007" stroke="#302007"></path><path d="M464.7 808.3L510.1 796.3L461.7 755.9Z" fill="#392508" stroke="#392508"></path><path d="M750.9 89.7L692.5 80.7L707.5 155.1Z" fill="#734f1e" stroke="#734f1e"></path><path d="M648.2 79.7L669.2 31.4L622.8 63.4Z" fill="#332207" stroke="#332207"></path><path d="M598.8 0L571.4 0L578.4 37.4Z" fill="#68471a" stroke="#68471a"></path><path d="M868.6 489.7L848.6 418.3L799.3 472.7Z" fill="#362408" stroke="#362408"></path><path d="M820.3 409.3L868.6 347.6L797.3 391.9Z" fill="#543812" stroke="#543812"></path><path d="M506.1 0L503.1 43.4L571.4 0Z" fill="#3d2709" stroke="#3d2709"></path><path d="M506.1 0L489.7 0L503.1 43.4Z" fill="#302007" stroke="#302007"></path><path d="M375.9 33.4L316.6 0L326.6 47.4Z" fill="#3d2709" stroke="#3d2709"></path><path d="M489.7 0L414.3 0L438.3 49.4Z" fill="#68471a" stroke="#68471a"></path><path d="M571.4 0L503.1 43.4L578.4 37.4Z" fill="#3d2709" stroke="#3d2709"></path><path d="M64.4 514.1L76.7 511.1L37.4 481.7Z" fill="#3d2709" stroke="#3d2709"></path><path d="M414.3 0L383.9 0L375.9 33.4Z" fill="#392508" stroke="#392508"></path><path d="M720.5 697.5L753.9 660.2L699.5 667.2Z" fill="#5e3f16" stroke="#5e3f16"></path><path d="M751.9 631.8L791.3 626.8L768.9 572.4Z" fill="#302007" stroke="#302007"></path><path d="M89.7 183.5L152.1 180.5L89.7 158.1Z" fill="#5e3f16" stroke="#5e3f16"></path><path d="M41.4 238.8L64.4 292.2L84.7 273.2Z" fill="#302007" stroke="#302007"></path><path d="M84.7 273.2L64.4 292.2L106.7 317.6Z" fill="#302007" stroke="#302007"></path><path d="M37.4 481.7L107.7 485.7L107.7 440.3Z" fill="#543812" stroke="#543812"></path><path d="M822.3 220.8L809.3 289.2L861.6 268.2Z" fill="#543812" stroke="#543812"></path><path d="M822.3 220.8L745.9 249.8L809.3 289.2Z" fill="#332207" stroke="#332207"></path><path d="M700.5 46.4L669.2 31.4L692.5 80.7Z" fill="#68471a" stroke="#68471a"></path><path d="M739.9 715.5L720.5 697.5L705.5 748.9Z" fill="#4a300e" stroke="#4a300e"></path><path d="M676.2 711.5L720.5 697.5L699.5 667.2Z" fill="#68471a" stroke="#68471a"></path><path d="M92.7 572.4L110.7 604.8L139.1 564.4Z" fill="#362408" stroke="#362408"></path><path d="M148.1 677.2L198.5 709.5L184.5 657.2Z" fill="#392508" stroke="#392508"></path><path d="M76.7 511.1L92.7 572.4L146.1 517.1Z" fill="#392508" stroke="#392508"></path><path d="M861.6 268.2L809.3 289.2L818.3 314.6Z" fill="#362408" stroke="#362408"></path><path d="M229.8 750.9L292.2 763.9L270.2 702.5Z" fill="#402909" stroke="#402909"></path><path d="M229.8 750.9L270.2 702.5L225.8 696.5Z" fill="#68471a" stroke="#68471a"></path><path d="M794.3 567.4L843.6 514.1L821.3 504.1Z" fill="#543812" stroke="#543812"></path><path d="M821.3 504.1L868.6 489.7L799.3 472.7Z" fill="#4a300e" stroke="#4a300e"></path><path d="M852.6 571.4L843.6 514.1L794.3 567.4Z" fill="#332207" stroke="#332207"></path><path d="M411.3 743.9L378.9 762.9L422.3 818.3Z" fill="#4a300e" stroke="#4a300e"></path><path d="M461.7 755.9L411.3 743.9L422.3 818.3Z" fill="#68471a" stroke="#68471a"></path><path d="M516.1 764.9L554.4 817.3L559.4 754.9Z" fill="#543812" stroke="#543812"></path><path d="M623.8 771.9L648.2 755.9L616.8 715.5Z" fill="#68471a" stroke="#68471a"></path><path d="M237.8 0L231.8 51.4L290.2 39.4Z" fill="#392508" stroke="#392508"></path><path d="M290.2 39.4L231.8 51.4L242.8 98.7Z" fill="#543812" stroke="#543812"></path><path d="M125.1 128.1L152.1 180.5L175.5 145.1Z" fill="#3d2709" stroke="#3d2709"></path><path d="M148.1 677.2L184.5 657.2L142.1 617.8Z" fill="#302007" stroke="#302007"></path><path d="M598.8 0L578.4 37.4L622.8 63.4Z" fill="#734f1e" stroke="#734f1e"></path><path d="M808.3 668.2L791.3 626.8L753.9 660.2Z" fill="#392508" stroke="#392508"></path><path d="M753.9 660.2L791.3 626.8L751.9 631.8Z" fill="#3d2709" stroke="#3d2709"></path><path d="M45.4 393.9L107.7 440.3L79.7 383.9Z" fill="#5e3f16" stroke="#5e3f16"></path><path d="M76.7 511.1L64.4 514.1L92.7 572.4Z" fill="#734f1e" stroke="#734f1e"></path><path d="M45.4 329.6L45.4 393.9L79.7 383.9Z" fill="#392508" stroke="#392508"></path><path d="M623.8 771.9L616.8 715.5L559.4 754.9Z" fill="#362408" stroke="#362408"></path><path d="M900 388.9L867.6 393.9L900 419.3Z" fill="#4a300e" stroke="#4a300e"></path><path d="M848.6 418.3L867.6 393.9L820.3 409.3Z" fill="#362408" stroke="#362408"></path><path d="M64.4 292.2L45.4 329.6L106.7 317.6Z" fill="#392508" stroke="#392508"></path><path d="M610.8 812.3L623.8 771.9L559.4 754.9Z" fill="#734f1e" stroke="#734f1e"></path><path d="M867.6 393.9L868.6 347.6L820.3 409.3Z" fill="#68471a" stroke="#68471a"></path><path d="M422.3 818.3L378.9 762.9L378.9 822.3Z" fill="#332207" stroke="#332207"></path><path d="M510.1 796.3L554.4 817.3L516.1 764.9Z" fill="#543812" stroke="#543812"></path><path d="M383.9 0L316.6 0L375.9 33.4Z" fill="#362408" stroke="#362408"></path><path d="M669.2 31.4L598.8 0L622.8 63.4Z" fill="#543812" stroke="#543812"></path><path d="M82.7 663.2L148.1 677.2L142.1 617.8Z" fill="#332207" stroke="#332207"></path><path d="M158.1 719.5L89.7 708.5L135.1 748.9Z" fill="#362408" stroke="#362408"></path><path d="M692.5 80.7L669.2 31.4L648.2 79.7Z" fill="#68471a" stroke="#68471a"></path><path d="M750.9 89.7L707.5 155.1L762.9 154.1Z" fill="#5e3f16" stroke="#5e3f16"></path><path d="M859.6 181.5L796.3 145.1L813.3 205.5Z" fill="#392508" stroke="#392508"></path><path d="M813.3 205.5L796.3 145.1L755.9 186.5Z" fill="#332207" stroke="#332207"></path><path d="M859.6 181.5L813.3 205.5L822.3 220.8Z" fill="#734f1e" stroke="#734f1e"></path><path d="M125.1 128.1L175.5 145.1L148.1 93.7Z" fill="#5e3f16" stroke="#5e3f16"></path><path d="M0 284.2L0 333.6L45.4 329.6Z" fill="#68471a" stroke="#68471a"></path><path d="M796.3 145.1L750.9 89.7L762.9 154.1Z" fill="#392508" stroke="#392508"></path><path d="M148.1 93.7L175.5 145.1L204.5 101.7Z" fill="#362408" stroke="#362408"></path><path d="M316.6 0L297.2 0L290.2 39.4Z" fill="#4a300e" stroke="#4a300e"></path><path d="M231.8 51.4L194.5 54.4L204.5 101.7Z" fill="#4a300e" stroke="#4a300e"></path><path d="M198.5 709.5L229.8 750.9L225.8 696.5Z" fill="#5e3f16" stroke="#5e3f16"></path><path d="M378.9 822.3L378.9 762.9L342.6 765.9Z" fill="#402909" stroke="#402909"></path><path d="M181.5 744.9L229.8 750.9L198.5 709.5Z" fill="#332207" stroke="#332207"></path><path d="M750.9 89.7L700.5 46.4L692.5 80.7Z" fill="#5e3f16" stroke="#5e3f16"></path><path d="M843.6 514.1L868.6 489.7L821.3 504.1Z" fill="#68471a" stroke="#68471a"></path><path d="M867.6 393.9L900 388.9L868.6 347.6Z" fill="#543812" stroke="#543812"></path><path d="M900 513.1L868.6 489.7L843.6 514.1Z" fill="#543812" stroke="#543812"></path><path d="M868.6 347.6L861.6 268.2L818.3 314.6Z" fill="#402909" stroke="#402909"></path><path d="M378.9 822.3L342.6 765.9L334.6 815.3Z" fill="#3d2709" stroke="#3d2709"></path><path d="M513.1 856.6L554.4 817.3L510.1 796.3Z" fill="#302007" stroke="#302007"></path><path d="M206.5 0L194.5 54.4L231.8 51.4Z" fill="#392508" stroke="#392508"></path><path d="M0 416.3L30.4 436.3L45.4 393.9Z" fill="#68471a" stroke="#68471a"></path><path d="M45.4 393.9L30.4 436.3L107.7 440.3Z" fill="#362408" stroke="#362408"></path><path d="M30.4 436.3L37.4 481.7L107.7 440.3Z" fill="#392508" stroke="#392508"></path><path d="M64.4 514.1L52.4 585.4L92.7 572.4Z" fill="#402909" stroke="#402909"></path><path d="M82.7 663.2L142.1 617.8L110.7 604.8Z" fill="#402909" stroke="#402909"></path><path d="M194.5 54.4L148.1 93.7L204.5 101.7Z" fill="#392508" stroke="#392508"></path><path d="M720.5 697.5L739.9 715.5L753.9 660.2Z" fill="#392508" stroke="#392508"></path><path d="M705.5 748.9L720.5 697.5L676.2 711.5Z" fill="#543812" stroke="#543812"></path><path d="M705.5 748.9L676.2 711.5L648.2 755.9Z" fill="#392508" stroke="#392508"></path><path d="M125.1 128.1L89.7 158.1L152.1 180.5Z" fill="#302007" stroke="#302007"></path><path d="M89.7 183.5L41.4 238.8L107.7 238.8Z" fill="#5e3f16" stroke="#5e3f16"></path><path d="M99.7 105.7L89.7 158.1L125.1 128.1Z" fill="#543812" stroke="#543812"></path><path d="M861.6 268.2L856.6 223.8L822.3 220.8Z" fill="#68471a" stroke="#68471a"></path><path d="M650.2 792.3L705.5 748.9L648.2 755.9Z" fill="#402909" stroke="#402909"></path><path d="M846.6 603.8L794.3 567.4L791.3 626.8Z" fill="#3d2709" stroke="#3d2709"></path><path d="M846.6 603.8L852.6 571.4L794.3 567.4Z" fill="#543812" stroke="#543812"></path><path d="M513.1 856.6L510.1 796.3L464.7 808.3Z" fill="#332207" stroke="#332207"></path><path d="M623.8 771.9L650.2 792.3L648.2 755.9Z" fill="#734f1e" stroke="#734f1e"></path><path d="M334.6 815.3L342.6 765.9L292.2 763.9Z" fill="#4a300e" stroke="#4a300e"></path><path d="M422.3 818.3L417.3 844.6L464.7 808.3Z" fill="#4a300e" stroke="#4a300e"></path><path d="M274.2 818.3L334.6 815.3L292.2 763.9Z" fill="#362408" stroke="#362408"></path><path d="M29.4 200.5L41.4 238.8L89.7 183.5Z" fill="#4a300e" stroke="#4a300e"></path><path d="M0 333.6L0 395.9L45.4 393.9Z" fill="#392508" stroke="#392508"></path><path d="M52.4 585.4L110.7 604.8L92.7 572.4Z" fill="#392508" stroke="#392508"></path><path d="M148.1 677.2L158.1 719.5L198.5 709.5Z" fill="#302007" stroke="#302007"></path><path d="M236.8 803.3L274.2 818.3L292.2 763.9Z" fill="#302007" stroke="#302007"></path><path d="M808.3 668.2L846.6 603.8L791.3 626.8Z" fill="#3d2709" stroke="#3d2709"></path><path d="M900 419.3L848.6 418.3L900 479.7Z" fill="#5e3f16" stroke="#5e3f16"></path><path d="M900 419.3L867.6 393.9L848.6 418.3Z" fill="#3d2709" stroke="#3d2709"></path><path d="M868.6 347.6L900 284.2L861.6 268.2Z" fill="#402909" stroke="#402909"></path><path d="M861.6 268.2L900 228.8L856.6 223.8Z" fill="#543812" stroke="#543812"></path><path d="M848.6 418.3L868.6 489.7L900 479.7Z" fill="#362408" stroke="#362408"></path><path d="M610.8 812.3L650.2 792.3L623.8 771.9Z" fill="#4a300e" stroke="#4a300e"></path><path d="M692.5 0L664.2 0L669.2 31.4Z" fill="#4a300e" stroke="#4a300e"></path><path d="M669.2 31.4L664.2 0L598.8 0Z" fill="#362408" stroke="#362408"></path><path d="M692.5 0L669.2 31.4L700.5 46.4Z" fill="#3d2709" stroke="#3d2709"></path><path d="M900 479.7L868.6 489.7L900 513.1Z" fill="#392508" stroke="#392508"></path><path d="M158.1 719.5L181.5 744.9L198.5 709.5Z" fill="#332207" stroke="#332207"></path><path d="M0 538.1L64.4 514.1L37.4 481.7Z" fill="#302007" stroke="#302007"></path><path d="M0 538.1L52.4 585.4L64.4 514.1Z" fill="#5e3f16" stroke="#5e3f16"></path><path d="M554.4 817.3L610.8 812.3L559.4 754.9Z" fill="#68471a" stroke="#68471a"></path><path d="M812.3 708.5L753.9 660.2L739.9 715.5Z" fill="#362408" stroke="#362408"></path><path d="M812.3 708.5L808.3 668.2L753.9 660.2Z" fill="#734f1e" stroke="#734f1e"></path><path d="M900 388.9L900 337.6L868.6 347.6Z" fill="#332207" stroke="#332207"></path><path d="M297.2 0L237.8 0L290.2 39.4Z" fill="#734f1e" stroke="#734f1e"></path><path d="M142.1 58.4L99.7 105.7L148.1 93.7Z" fill="#302007" stroke="#302007"></path><path d="M822.3 93.7L751.9 51.4L750.9 89.7Z" fill="#734f1e" stroke="#734f1e"></path><path d="M750.9 89.7L751.9 51.4L700.5 46.4Z" fill="#543812" stroke="#543812"></path><path d="M822.3 93.7L750.9 89.7L796.3 145.1Z" fill="#4a300e" stroke="#4a300e"></path><path d="M900 513.1L843.6 514.1L852.6 571.4Z" fill="#392508" stroke="#392508"></path><path d="M372.9 840.6L417.3 844.6L378.9 822.3Z" fill="#3d2709" stroke="#3d2709"></path><path d="M378.9 822.3L417.3 844.6L422.3 818.3Z" fill="#392508" stroke="#392508"></path><path d="M554.4 817.3L572.4 852.6L610.8 812.3Z" fill="#543812" stroke="#543812"></path><path d="M0 333.6L45.4 393.9L45.4 329.6Z" fill="#362408" stroke="#362408"></path><path d="M30.4 436.3L0 459.7L37.4 481.7Z" fill="#4a300e" stroke="#4a300e"></path><path d="M334.6 815.3L372.9 840.6L378.9 822.3Z" fill="#734f1e" stroke="#734f1e"></path><path d="M347.6 863.6L372.9 840.6L334.6 815.3Z" fill="#4a300e" stroke="#4a300e"></path><path d="M900 194.5L859.6 181.5L856.6 223.8Z" fill="#362408" stroke="#362408"></path><path d="M856.6 223.8L859.6 181.5L822.3 220.8Z" fill="#68471a" stroke="#68471a"></path><path d="M0 395.9L0 416.3L45.4 393.9Z" fill="#392508" stroke="#392508"></path><path d="M142.1 58.4L148.1 93.7L194.5 54.4Z" fill="#402909" stroke="#402909"></path><path d="M148.1 93.7L99.7 105.7L125.1 128.1Z" fill="#543812" stroke="#543812"></path><path d="M59.4 133.1L29.4 200.5L89.7 183.5Z" fill="#4a300e" stroke="#4a300e"></path><path d="M900 337.6L900 284.2L868.6 347.6Z" fill="#302007" stroke="#302007"></path><path d="M151.1 0L142.1 58.4L194.5 54.4Z" fill="#402909" stroke="#402909"></path><path d="M751.9 0L692.5 0L700.5 46.4Z" fill="#332207" stroke="#332207"></path><path d="M0 284.2L45.4 329.6L64.4 292.2Z" fill="#302007" stroke="#302007"></path><path d="M0 416.3L0 459.7L30.4 436.3Z" fill="#3d2709" stroke="#3d2709"></path><path d="M158.1 719.5L135.1 748.9L181.5 744.9Z" fill="#4a300e" stroke="#4a300e"></path><path d="M50.4 631.8L82.7 663.2L110.7 604.8Z" fill="#362408" stroke="#362408"></path><path d="M50.4 631.8L110.7 604.8L52.4 585.4Z" fill="#402909" stroke="#402909"></path><path d="M900 568.4L900 513.1L852.6 571.4Z" fill="#68471a" stroke="#68471a"></path><path d="M236.8 803.3L292.2 763.9L229.8 750.9Z" fill="#734f1e" stroke="#734f1e"></path><path d="M237.8 0L206.5 0L231.8 51.4Z" fill="#543812" stroke="#543812"></path><path d="M181.5 744.9L236.8 803.3L229.8 750.9Z" fill="#543812" stroke="#543812"></path><path d="M178.5 818.3L236.8 803.3L181.5 744.9Z" fill="#392508" stroke="#392508"></path><path d="M59.4 133.1L89.7 183.5L89.7 158.1Z" fill="#543812" stroke="#543812"></path><path d="M41.4 238.8L0 284.2L64.4 292.2Z" fill="#402909" stroke="#402909"></path><path d="M487.7 868.6L464.7 808.3L417.3 844.6Z" fill="#5e3f16" stroke="#5e3f16"></path><path d="M487.7 868.6L513.1 856.6L464.7 808.3Z" fill="#392508" stroke="#392508"></path><path d="M0 224.8L0 284.2L41.4 238.8Z" fill="#68471a" stroke="#68471a"></path><path d="M727.5 818.3L749.9 756.9L705.5 748.9Z" fill="#302007" stroke="#302007"></path><path d="M705.5 748.9L749.9 756.9L739.9 715.5Z" fill="#392508" stroke="#392508"></path><path d="M727.5 818.3L705.5 748.9L650.2 792.3Z" fill="#68471a" stroke="#68471a"></path><path d="M649.2 846.6L650.2 792.3L610.8 812.3Z" fill="#68471a" stroke="#68471a"></path><path d="M0 606.8L50.4 631.8L52.4 585.4Z" fill="#392508" stroke="#392508"></path><path d="M848.6 125.1L822.3 93.7L796.3 145.1Z" fill="#5e3f16" stroke="#5e3f16"></path><path d="M751.9 51.4L751.9 0L700.5 46.4Z" fill="#302007" stroke="#302007"></path><path d="M99.7 105.7L59.4 133.1L89.7 158.1Z" fill="#4a300e" stroke="#4a300e"></path><path d="M60.4 88.7L59.4 133.1L99.7 105.7Z" fill="#332207" stroke="#332207"></path><path d="M101.7 44.4L99.7 105.7L142.1 58.4Z" fill="#302007" stroke="#302007"></path><path d="M900 284.2L900 228.8L861.6 268.2Z" fill="#302007" stroke="#302007"></path><path d="M859.6 181.5L848.6 125.1L796.3 145.1Z" fill="#332207" stroke="#332207"></path><path d="M513.1 856.6L572.4 852.6L554.4 817.3Z" fill="#3d2709" stroke="#3d2709"></path><path d="M900 126.1L848.6 125.1L859.6 181.5Z" fill="#5e3f16" stroke="#5e3f16"></path><path d="M749.9 756.9L812.3 708.5L739.9 715.5Z" fill="#332207" stroke="#332207"></path><path d="M808.3 668.2L869.6 655.2L846.6 603.8Z" fill="#4a300e" stroke="#4a300e"></path><path d="M900 605.8L900 568.4L852.6 571.4Z" fill="#362408" stroke="#362408"></path><path d="M455.7 900L487.7 868.6L417.3 844.6Z" fill="#392508" stroke="#392508"></path><path d="M513.1 856.6L506.1 900L572.4 852.6Z" fill="#362408" stroke="#362408"></path><path d="M414.3 900L417.3 844.6L393.9 900Z" fill="#302007" stroke="#302007"></path><path d="M0 459.7L0 538.1L37.4 481.7Z" fill="#5e3f16" stroke="#5e3f16"></path><path d="M900 605.8L852.6 571.4L846.6 603.8Z" fill="#68471a" stroke="#68471a"></path><path d="M89.7 708.5L148.1 677.2L82.7 663.2Z" fill="#392508" stroke="#392508"></path><path d="M89.7 708.5L158.1 719.5L148.1 677.2Z" fill="#332207" stroke="#332207"></path><path d="M280.2 847.6L334.6 815.3L274.2 818.3Z" fill="#4a300e" stroke="#4a300e"></path><path d="M280.2 847.6L347.6 863.6L334.6 815.3Z" fill="#3d2709" stroke="#3d2709"></path><path d="M280.2 847.6L274.2 818.3L236.8 869.6Z" fill="#68471a" stroke="#68471a"></path><path d="M51.4 676.2L89.7 708.5L82.7 663.2Z" fill="#543812" stroke="#543812"></path><path d="M51.4 676.2L82.7 663.2L50.4 631.8Z" fill="#543812" stroke="#543812"></path><path d="M0 193.5L0 224.8L29.4 200.5Z" fill="#4a300e" stroke="#4a300e"></path><path d="M29.4 200.5L0 224.8L41.4 238.8Z" fill="#5e3f16" stroke="#5e3f16"></path><path d="M900 228.8L900 194.5L856.6 223.8Z" fill="#4a300e" stroke="#4a300e"></path><path d="M236.8 869.6L274.2 818.3L236.8 803.3Z" fill="#68471a" stroke="#68471a"></path><path d="M584.4 900L626.8 849.6L572.4 852.6Z" fill="#392508" stroke="#392508"></path><path d="M572.4 852.6L626.8 849.6L610.8 812.3Z" fill="#332207" stroke="#332207"></path><path d="M0 538.1L0 571.4L52.4 585.4Z" fill="#5e3f16" stroke="#5e3f16"></path><path d="M855.6 715.5L869.6 655.2L808.3 668.2Z" fill="#4a300e" stroke="#4a300e"></path><path d="M900 105.7L845.6 94.7L848.6 125.1Z" fill="#392508" stroke="#392508"></path><path d="M848.6 125.1L845.6 94.7L822.3 93.7Z" fill="#3d2709" stroke="#3d2709"></path><path d="M802.3 0L751.9 0L751.9 51.4Z" fill="#4a300e" stroke="#4a300e"></path><path d="M815.3 30.4L751.9 51.4L822.3 93.7Z" fill="#402909" stroke="#402909"></path><path d="M869.6 655.2L900 605.8L846.6 603.8Z" fill="#68471a" stroke="#68471a"></path><path d="M90.7 802.3L155.1 800.3L135.1 748.9Z" fill="#68471a" stroke="#68471a"></path><path d="M0 679.2L51.4 676.2L50.4 631.8Z" fill="#3d2709" stroke="#3d2709"></path><path d="M705.5 849.6L649.2 846.6L656.2 900Z" fill="#3d2709" stroke="#3d2709"></path><path d="M626.8 849.6L649.2 846.6L610.8 812.3Z" fill="#543812" stroke="#543812"></path><path d="M749.9 756.9L799.3 768.9L812.3 708.5Z" fill="#3d2709" stroke="#3d2709"></path><path d="M151.1 0L101.7 44.4L142.1 58.4Z" fill="#4a300e" stroke="#4a300e"></path><path d="M0 144.1L0 193.5L29.4 200.5Z" fill="#68471a" stroke="#68471a"></path><path d="M206.5 0L151.1 0L194.5 54.4Z" fill="#402909" stroke="#402909"></path><path d="M0 144.1L29.4 200.5L59.4 133.1Z" fill="#4a300e" stroke="#4a300e"></path><path d="M101.7 44.4L60.4 88.7L99.7 105.7Z" fill="#3d2709" stroke="#3d2709"></path><path d="M0 571.4L0 606.8L52.4 585.4Z" fill="#68471a" stroke="#68471a"></path><path d="M705.5 849.6L727.5 818.3L650.2 792.3Z" fill="#362408" stroke="#362408"></path><path d="M812.3 708.5L855.6 715.5L808.3 668.2Z" fill="#402909" stroke="#402909"></path><path d="M78.7 751.9L135.1 748.9L89.7 708.5Z" fill="#332207" stroke="#332207"></path><path d="M135.1 748.9L155.1 800.3L181.5 744.9Z" fill="#392508" stroke="#392508"></path><path d="M414.3 900L455.7 900L417.3 844.6Z" fill="#543812" stroke="#543812"></path><path d="M487.7 868.6L506.1 900L513.1 856.6Z" fill="#302007" stroke="#302007"></path><path d="M417.3 844.6L372.9 840.6L393.9 900Z" fill="#402909" stroke="#402909"></path><path d="M155.1 800.3L178.5 818.3L181.5 744.9Z" fill="#68471a" stroke="#68471a"></path><path d="M393.9 900L372.9 840.6L347.6 863.6Z" fill="#3d2709" stroke="#3d2709"></path><path d="M393.9 900L347.6 863.6L331.6 900Z" fill="#543812" stroke="#543812"></path><path d="M769.9 809.3L799.3 768.9L749.9 756.9Z" fill="#5e3f16" stroke="#5e3f16"></path><path d="M455.7 900L506.1 900L487.7 868.6Z" fill="#734f1e" stroke="#734f1e"></path><path d="M649.2 846.6L705.5 849.6L650.2 792.3Z" fill="#392508" stroke="#392508"></path><path d="M859.6 43.4L822.3 93.7L845.6 94.7Z" fill="#332207" stroke="#332207"></path><path d="M859.6 43.4L815.3 30.4L822.3 93.7Z" fill="#302007" stroke="#302007"></path><path d="M331.6 900L347.6 863.6L280.2 847.6Z" fill="#3d2709" stroke="#3d2709"></path><path d="M862.6 753.9L855.6 715.5L812.3 708.5Z" fill="#5e3f16" stroke="#5e3f16"></path><path d="M869.6 655.2L900 679.2L900 605.8Z" fill="#332207" stroke="#332207"></path><path d="M51.4 676.2L57.4 723.5L89.7 708.5Z" fill="#543812" stroke="#543812"></path><path d="M0 702.5L57.4 723.5L51.4 676.2Z" fill="#5e3f16" stroke="#5e3f16"></path><path d="M900 194.5L900 126.1L859.6 181.5Z" fill="#302007" stroke="#302007"></path><path d="M0 95.7L0 144.1L59.4 133.1Z" fill="#302007" stroke="#302007"></path><path d="M0 95.7L59.4 133.1L60.4 88.7Z" fill="#302007" stroke="#302007"></path><path d="M57.4 723.5L78.7 751.9L89.7 708.5Z" fill="#332207" stroke="#332207"></path><path d="M155.1 800.3L177.5 839.6L178.5 818.3Z" fill="#3d2709" stroke="#3d2709"></path><path d="M631.8 900L649.2 846.6L626.8 849.6Z" fill="#5e3f16" stroke="#5e3f16"></path><path d="M727.5 818.3L769.9 809.3L749.9 756.9Z" fill="#5e3f16" stroke="#5e3f16"></path><path d="M757.9 849.6L769.9 809.3L727.5 818.3Z" fill="#734f1e" stroke="#734f1e"></path><path d="M799.3 768.9L862.6 753.9L812.3 708.5Z" fill="#362408" stroke="#362408"></path><path d="M268.2 900L331.6 900L280.2 847.6Z" fill="#332207" stroke="#332207"></path><path d="M506.1 900L584.4 900L572.4 852.6Z" fill="#362408" stroke="#362408"></path><path d="M865.6 0L802.3 0L815.3 30.4Z" fill="#362408" stroke="#362408"></path><path d="M815.3 30.4L802.3 0L751.9 51.4Z" fill="#3d2709" stroke="#3d2709"></path><path d="M177.5 839.6L236.8 803.3L178.5 818.3Z" fill="#302007" stroke="#302007"></path><path d="M177.5 839.6L236.8 869.6L236.8 803.3Z" fill="#362408" stroke="#362408"></path><path d="M156.1 857.6L177.5 839.6L155.1 800.3Z" fill="#5e3f16" stroke="#5e3f16"></path><path d="M900 711.5L900 679.2L855.6 715.5Z" fill="#68471a" stroke="#68471a"></path><path d="M855.6 715.5L900 679.2L869.6 655.2Z" fill="#734f1e" stroke="#734f1e"></path><path d="M900 126.1L900 105.7L848.6 125.1Z" fill="#68471a" stroke="#68471a"></path><path d="M900 53.4L859.6 43.4L845.6 94.7Z" fill="#302007" stroke="#302007"></path><path d="M584.4 900L631.8 900L626.8 849.6Z" fill="#332207" stroke="#332207"></path><path d="M789.3 842.6L814.3 800.3L769.9 809.3Z" fill="#3d2709" stroke="#3d2709"></path><path d="M0 606.8L0 679.2L50.4 631.8Z" fill="#3d2709" stroke="#3d2709"></path><path d="M57.4 723.5L54.4 763.9L78.7 751.9Z" fill="#3d2709" stroke="#3d2709"></path><path d="M151.1 0L84.7 0L101.7 44.4Z" fill="#543812" stroke="#543812"></path><path d="M101.7 44.4L34.4 32.4L60.4 88.7Z" fill="#734f1e" stroke="#734f1e"></path><path d="M252.8 900L268.2 900L236.8 869.6Z" fill="#734f1e" stroke="#734f1e"></path><path d="M236.8 869.6L268.2 900L280.2 847.6Z" fill="#302007" stroke="#302007"></path><path d="M757.9 849.6L727.5 818.3L705.5 849.6Z" fill="#332207" stroke="#332207"></path><path d="M769.9 809.3L814.3 800.3L799.3 768.9Z" fill="#392508" stroke="#392508"></path><path d="M0 45.4L0 95.7L60.4 88.7Z" fill="#5e3f16" stroke="#5e3f16"></path><path d="M814.3 800.3L862.6 753.9L799.3 768.9Z" fill="#5e3f16" stroke="#5e3f16"></path><path d="M631.8 900L656.2 900L649.2 846.6Z" fill="#4a300e" stroke="#4a300e"></path><path d="M201.5 900L252.8 900L236.8 869.6Z" fill="#362408" stroke="#362408"></path><path d="M0 764.9L54.4 763.9L57.4 723.5Z" fill="#4a300e" stroke="#4a300e"></path><path d="M78.7 751.9L90.7 802.3L135.1 748.9Z" fill="#402909" stroke="#402909"></path><path d="M177.5 839.6L201.5 900L236.8 869.6Z" fill="#5e3f16" stroke="#5e3f16"></path><path d="M900 746.9L900 711.5L855.6 715.5Z" fill="#4a300e" stroke="#4a300e"></path><path d="M749.9 900L757.9 849.6L705.5 849.6Z" fill="#402909" stroke="#402909"></path><path d="M54.4 763.9L90.7 802.3L78.7 751.9Z" fill="#734f1e" stroke="#734f1e"></path><path d="M0 679.2L0 702.5L51.4 676.2Z" fill="#332207" stroke="#332207"></path><path d="M84.7 837.6L156.1 857.6L155.1 800.3Z" fill="#5e3f16" stroke="#5e3f16"></path><path d="M84.7 0L34.4 32.4L101.7 44.4Z" fill="#392508" stroke="#392508"></path><path d="M900 105.7L900 53.4L845.6 94.7Z" fill="#4a300e" stroke="#4a300e"></path><path d="M859.6 43.4L865.6 0L815.3 30.4Z" fill="#543812" stroke="#543812"></path><path d="M900 811.3L900 746.9L862.6 753.9Z" fill="#4a300e" stroke="#4a300e"></path><path d="M862.6 753.9L900 746.9L855.6 715.5Z" fill="#734f1e" stroke="#734f1e"></path><path d="M757.9 849.6L789.3 842.6L769.9 809.3Z" fill="#302007" stroke="#302007"></path><path d="M793.3 900L789.3 842.6L757.9 849.6Z" fill="#734f1e" stroke="#734f1e"></path><path d="M84.7 0L48.4 0L34.4 32.4Z" fill="#5e3f16" stroke="#5e3f16"></path><path d="M34.4 32.4L0 45.4L60.4 88.7Z" fill="#734f1e" stroke="#734f1e"></path><path d="M144.1 900L201.5 900L156.1 857.6Z" fill="#402909" stroke="#402909"></path><path d="M156.1 857.6L201.5 900L177.5 839.6Z" fill="#68471a" stroke="#68471a"></path><path d="M900 0L865.6 0L859.6 43.4Z" fill="#362408" stroke="#362408"></path><path d="M656.2 900L710.5 900L705.5 849.6Z" fill="#362408" stroke="#362408"></path><path d="M853.6 822.3L862.6 753.9L814.3 800.3Z" fill="#392508" stroke="#392508"></path><path d="M0 0L0 45.4L34.4 32.4Z" fill="#4a300e" stroke="#4a300e"></path><path d="M40.4 807.3L84.7 837.6L90.7 802.3Z" fill="#543812" stroke="#543812"></path><path d="M90.7 802.3L84.7 837.6L155.1 800.3Z" fill="#68471a" stroke="#68471a"></path><path d="M40.4 807.3L90.7 802.3L54.4 763.9Z" fill="#68471a" stroke="#68471a"></path><path d="M852.6 866.6L853.6 822.3L789.3 842.6Z" fill="#4a300e" stroke="#4a300e"></path><path d="M789.3 842.6L853.6 822.3L814.3 800.3Z" fill="#362408" stroke="#362408"></path><path d="M710.5 900L749.9 900L705.5 849.6Z" fill="#332207" stroke="#332207"></path><path d="M0 764.9L40.4 807.3L54.4 763.9Z" fill="#402909" stroke="#402909"></path><path d="M0 702.5L0 764.9L57.4 723.5Z" fill="#4a300e" stroke="#4a300e"></path><path d="M900 53.4L900 0L859.6 43.4Z" fill="#68471a" stroke="#68471a"></path><path d="M84.7 837.6L144.1 900L156.1 857.6Z" fill="#543812" stroke="#543812"></path><path d="M78.7 900L144.1 900L84.7 837.6Z" fill="#68471a" stroke="#68471a"></path><path d="M48.4 0L0 0L34.4 32.4Z" fill="#302007" stroke="#302007"></path><path d="M749.9 900L793.3 900L757.9 849.6Z" fill="#4a300e" stroke="#4a300e"></path><path d="M900 844.6L900 811.3L853.6 822.3Z" fill="#362408" stroke="#362408"></path><path d="M853.6 822.3L900 811.3L862.6 753.9Z" fill="#5e3f16" stroke="#5e3f16"></path><path d="M0 808.3L29.4 837.6L40.4 807.3Z" fill="#5e3f16" stroke="#5e3f16"></path><path d="M40.4 807.3L29.4 837.6L84.7 837.6Z" fill="#68471a" stroke="#68471a"></path><path d="M0 764.9L0 808.3L40.4 807.3Z" fill="#402909" stroke="#402909"></path><path d="M793.3 900L852.6 866.6L789.3 842.6Z" fill="#362408" stroke="#362408"></path><path d="M45.4 900L84.7 837.6L29.4 837.6Z" fill="#734f1e" stroke="#734f1e"></path><path d="M45.4 900L78.7 900L84.7 837.6Z" fill="#68471a" stroke="#68471a"></path><path d="M900 900L900 844.6L852.6 866.6Z" fill="#5e3f16" stroke="#5e3f16"></path><path d="M852.6 866.6L900 844.6L853.6 822.3Z" fill="#68471a" stroke="#68471a"></path><path d="M793.3 900L838.6 900L852.6 866.6Z" fill="#68471a" stroke="#68471a"></path><path d="M0 808.3L0 847.6L29.4 837.6Z" fill="#68471a" stroke="#68471a"></path><path d="M0 847.6L45.4 900L29.4 837.6Z" fill="#734f1e" stroke="#734f1e"></path><path d="M838.6 900L900 900L852.6 866.6Z" fill="#362408" stroke="#362408"></path><path d="M0 847.6L0 900L45.4 900Z" fill="#543812" stroke="#543812"></path></g></svg>