<svg width="88" height="100" viewBox="0 0 88 100" fill="none" xmlns="http://www.w3.org/2000/svg" role="img" focusable="false">
<title>Link to hyper text markup language wikipedia entry</title>
<path d="M8.00875 90.0036L0 0H88L79.9806 89.9893L43.9465 100L8.00875 90.0036Z" fill="#E44F26"/>
<path d="M44 92.5233L73.5573 84.4285L80.5106 7.47656H44V92.5233Z" fill="#F1662A"/>
<path d="M44 40.5851H29.6724L28.6845 29.509H44V18.6919H16.8511L17.1103 21.5965L19.7691 51.4022H44V40.5851V40.5851Z" fill="#EBEBEB"/>
<path d="M44.0001 69.4713L43.9498 69.486L31.5911 66.0709L30.8012 57.0093H19.6597L21.2144 74.8457L43.9498 81.3083L44.0001 81.2936V69.4713Z" fill="#EBEBEB"/>
<path d="M44 40.1865V51.4889H57.3894L56.13 66.148L44 69.5486V81.308L66.2934 74.8835L66.4552 72.9748L69.0092 43.2215L69.2766 40.1865H44V40.1865Z" fill="white"/>
<path d="M44 18.6919V29.9068H70.1777L70.3951 27.3888L70.8895 21.7034L71.1489 18.6919H44V18.6919Z" fill="white"/>
</svg>
