<svg width="100" height="100" viewBox="0 0 100 100" fill="none" xmlns="http://www.w3.org/2000/svg" role="img" focusable="false">
<title>Javascript programming language</title>
<path d="M0 25C0 11.1929 11.1929 0 25 0H75C88.8071 0 100 11.1929 100 25V75C100 88.8071 88.8071 100 75 100H25C11.1929 100 0 88.8071 0 75V25Z" fill="#F7DF1E"/>
<path d="M26.2938 83.5671L33.9462 78.9358C35.4228 81.5534 36.7657 83.7683 39.9872 83.7683C43.0751 83.7683 45.0224 82.5604 45.0224 77.862V45.9097H54.4196V77.9948C54.4196 87.728 48.7142 92.1585 40.3899 92.1585C32.8724 92.1585 28.5087 88.2651 26.2935 83.5663" fill="black"/>
<path d="M59.5238 82.56L67.1754 78.1299C69.1898 81.4193 71.8078 83.8357 76.4391 83.8357C80.3332 83.8357 82.816 81.8889 82.816 79.2037C82.816 75.9818 80.2652 74.8404 75.9691 72.9615L73.6203 71.9537C66.8402 69.0682 62.343 65.4432 62.343 57.7908C62.343 50.7424 67.7129 45.3721 76.1039 45.3721C82.0781 45.3721 86.3742 47.4533 89.4617 52.8904L82.1445 57.5896C80.5332 54.7033 78.7887 53.5623 76.1035 53.5623C73.3512 53.5623 71.6059 55.3076 71.6059 57.5896C71.6059 60.4088 73.3512 61.5506 77.3785 63.2959L79.7277 64.3025C87.716 67.7264 92.2133 71.2166 92.2133 79.0697C92.2133 87.5283 85.568 92.1596 76.6402 92.1596C67.9141 92.1596 62.2754 87.9978 59.5234 82.5603" fill="black"/>
</svg>
