<svg id="learning-bro" viewBox="0 0 579 470" fill="none" xmlns="http://www.w3.org/2000/svg" role="img" focusable="false">
<title>Two dimensional illustration of a guy reading a book sourounded by illustrations of stem symbols</title>
<path d="M40.9907 151.506C42.2309 156.424 41.6213 147.375 44.049 136.319C46.4767 125.263 50.649 129.74 50.649 129.74" stroke="#263238" stroke-linecap="round" stroke-linejoin="round"/>
<path d="M40.2334 140.209L47.8528 137.088" stroke="#263238" stroke-linecap="round" stroke-linejoin="round"/>
<path d="M54.1485 133.335C54.1485 133.335 49.5979 142.794 56.4606 146.766" stroke="#263238" stroke-linecap="round" stroke-linejoin="round"/>
<path d="M60.6118 130.687C60.6118 130.687 68.1367 134.89 63.4284 143.908" stroke="#263238" stroke-linecap="round" stroke-linejoin="round"/>
<path d="M55.4612 136.53L60.8526 140.461" stroke="#263238" stroke-linecap="round" stroke-linejoin="round"/>
<path d="M59.686 134.796L55.4717 141.512" stroke="#263238" stroke-linecap="round" stroke-linejoin="round"/>
<path d="M83.8972 235.45C84.9227 229.201 80.6884 223.304 74.4395 222.279C68.1906 221.253 62.2936 225.487 61.268 231.736C60.2425 237.985 64.4768 243.882 70.7257 244.908C76.9746 245.933 82.8717 241.699 83.8972 235.45Z" stroke="#263238" stroke-linecap="round" stroke-linejoin="round"/>
<path d="M90.6988 250.536C97.5788 249.125 102.012 242.403 100.601 235.523C99.1903 228.643 92.4691 224.21 85.5891 225.621C78.7092 227.032 74.2757 233.753 75.6867 240.633C77.0977 247.513 83.8189 251.947 90.6988 250.536Z" stroke="#263238" stroke-linecap="round" stroke-linejoin="round"/>
<path d="M83.028 228.856L77.7522 230.738" stroke="#263238" stroke-linecap="round" stroke-linejoin="round"/>
<path d="M83.7644 231.033L76.1765 233.776" stroke="#263238" stroke-linecap="round" stroke-linejoin="round"/>
<path d="M84.0481 233.66L75.5774 236.918" stroke="#263238" stroke-linecap="round" stroke-linejoin="round"/>
<path d="M83.4489 237.243L75.7244 240.774" stroke="#263238" stroke-linecap="round" stroke-linejoin="round"/>
<path d="M82.0828 239.997L76.2185 242.435" stroke="#263238" stroke-linecap="round" stroke-linejoin="round"/>
<path d="M78.1204 216.119C77.7946 215.068 74.0742 214.416 73.9166 217.17C73.7589 219.924 77.8366 217.632 78.9927 216.119C78.9927 216.119 76.8908 218.946 77.7736 219.503" stroke="#263238" stroke-linecap="round" stroke-linejoin="round"/>
<path d="M98.7189 219.545L95.4189 226.408C95.4189 226.408 97.0689 222.971 98.8346 223.255C101.01 223.644 99.5597 227.206 96.9323 225.893" stroke="#263238" stroke-linecap="round" stroke-linejoin="round"/>
<path d="M457.842 331.599L463.023 336.496" stroke="#263238" stroke-linecap="round" stroke-linejoin="round"/>
<path d="M463.023 330.316L458.682 336.801" stroke="#263238" stroke-linecap="round" stroke-linejoin="round"/>
<path d="M468.12 332.176L473.312 330.242" stroke="#263238" stroke-linecap="round" stroke-linejoin="round"/>
<path d="M475.802 324.841L478.955 327.626" stroke="#263238" stroke-linecap="round" stroke-linejoin="round"/>
<path d="M481.373 321.488L477.379 335.193" stroke="#263238" stroke-linecap="round" stroke-linejoin="round"/>
<path d="M239.516 254.616L253.463 245.021L271.928 246.313L273.084 269.729L259.527 279.418L242.795 278.199L239.516 254.616Z" stroke="#263238" stroke-linecap="round" stroke-linejoin="round"/>
<path d="M242.795 278.199L256.299 268.478L273.083 269.728" stroke="#263238" stroke-linecap="round" stroke-linejoin="round"/>
<path d="M256.299 268.478L253.461 245.021" stroke="#263238" stroke-linecap="round" stroke-linejoin="round"/>
<path d="M239.516 254.616L257.94 256.749L271.928 246.313" stroke="#263238" stroke-linecap="round" stroke-linejoin="round"/>
<path d="M257.939 256.749L259.526 279.418" stroke="#263238" stroke-linecap="round" stroke-linejoin="round"/>
<path d="M402.289 175.952L396.109 195.153L415.341 192.557L402.289 175.952Z" stroke="#263238" stroke-linecap="round" stroke-linejoin="round"/>
<path d="M402.288 175.952L405.725 193.745" stroke="#263238" stroke-linecap="round" stroke-linejoin="round"/>
<path d="M405.178 190.896L407.427 190.539L407.952 193.555" stroke="#263238" stroke-linecap="round" stroke-linejoin="round"/>
<path d="M160.084 351.661L169.689 356.38" stroke="#263238" stroke-linecap="round" stroke-linejoin="round"/>
<path d="M166.59 348.056L163.837 358.092" stroke="#263238" stroke-linecap="round" stroke-linejoin="round"/>
<path d="M167.924 343.159C168.082 342.996 168.275 342.872 168.489 342.797C168.703 342.722 168.932 342.699 169.157 342.728C169.382 342.758 169.597 342.84 169.784 342.968C169.971 343.095 170.126 343.265 170.236 343.464C171.203 344.977 169.311 348.151 169.311 348.151L173.168 346.679" stroke="#263238" stroke-linecap="round" stroke-linejoin="round"/>
<path d="M235.501 21.0723C244.676 26.2325 234.167 38.8439 234.167 46.2006C234.167 53.5573 244.676 52.5064 249.931 54.6083C252.033 54.6083 256.237 54.6083 256.121 59.9471" stroke="#263238" stroke-linecap="round" stroke-linejoin="round"/>
<path d="M225.276 27.7671C226.873 36.4585 236.836 33.3792 242.953 35.3655C253.463 38.7811 247.63 49.627 244.498 56.185C242.617 60.0945 240.746 65.5805 244.109 69.2904" stroke="#263238" stroke-linecap="round" stroke-linejoin="round"/>
<path d="M226.621 31.1401L237.561 22.0493" stroke="#263238" stroke-linecap="round" stroke-linejoin="round"/>
<path d="M230.908 33.8517L239.148 27.0205" stroke="#263238" stroke-linecap="round" stroke-linejoin="round"/>
<path d="M235.753 40.7672L242.711 35.3022" stroke="#263238" stroke-linecap="round" stroke-linejoin="round"/>
<path d="M234.313 48.9438L247.913 39.1699" stroke="#263238" stroke-linecap="round" stroke-linejoin="round"/>
<path d="M239.527 52.7586L249.006 45.8013" stroke="#263238" stroke-linecap="round" stroke-linejoin="round"/>
<path d="M243.562 67.5452L255.406 57.8975" stroke="#263238" stroke-linecap="round" stroke-linejoin="round"/>
<path d="M243.855 59.9579L251.58 54.5244" stroke="#263238" stroke-linecap="round" stroke-linejoin="round"/>
<path d="M89.2086 356.897C100.494 352.383 105.983 339.576 101.469 328.291C96.9554 317.006 84.1481 311.517 72.8631 316.03C61.5782 320.544 56.089 333.351 60.6026 344.636C65.1163 355.921 77.9236 361.411 89.2086 356.897Z" stroke="#263238" stroke-linecap="round" stroke-linejoin="round"/>
<path d="M86.5706 315.172C94.2426 306.165 100.769 301.068 103.281 302.729C107.106 305.24 100.244 322.392 87.9579 341.025C75.6722 359.659 62.6088 372.733 58.7833 370.21C56.261 368.56 58.3839 360.552 63.6387 349.948" stroke="#263238" stroke-linecap="round" stroke-linejoin="round"/>
<path d="M59.497 340.983C48.7983 337.904 41.967 334.31 42.3979 331.44C43.018 326.9 61.5043 325.849 83.5849 329.16C105.666 332.47 123.027 338.745 122.365 343.264C121.892 346.417 112.907 347.856 100.137 347.373" stroke="#263238" stroke-linecap="round" stroke-linejoin="round"/>
<path d="M62.303 325.041C54.2317 310.475 50.196 299.114 52.9285 297.338C56.5228 295.015 70.4164 310.086 83.9633 330.968C97.5101 351.851 105.571 370.726 101.987 373.059C99.612 374.594 92.7282 368.519 84.4152 358.178" stroke="#263238" stroke-linecap="round" stroke-linejoin="round"/>
<path d="M106.38 312.25C105.988 312.847 105.428 313.315 104.77 313.594C104.113 313.874 103.387 313.952 102.685 313.819C101.983 313.686 101.336 313.348 100.826 312.848C100.316 312.348 99.9652 311.708 99.8186 311.008C99.672 310.309 99.7359 309.582 100.002 308.919C100.269 308.256 100.725 307.687 101.315 307.283C101.904 306.88 102.6 306.66 103.315 306.652C104.029 306.643 104.73 306.847 105.329 307.237C105.728 307.496 106.072 307.832 106.34 308.225C106.609 308.617 106.798 309.059 106.895 309.525C106.993 309.991 106.998 310.471 106.909 310.939C106.821 311.406 106.641 311.852 106.38 312.25Z" fill="#263238"/>
<path d="M94.4105 367.625C94.0186 368.222 93.4585 368.69 92.8008 368.969C92.1432 369.249 91.4176 369.327 90.7155 369.194C90.0135 369.061 89.3666 368.723 88.8564 368.223C88.3462 367.723 87.9957 367.083 87.8491 366.383C87.7025 365.684 87.7664 364.957 88.0327 364.294C88.299 363.631 88.7558 363.062 89.3454 362.658C89.935 362.255 90.6309 362.035 91.3454 362.027C92.0598 362.018 92.7607 362.222 93.3595 362.612C93.7583 362.871 94.102 363.207 94.3708 363.6C94.6396 363.992 94.8282 364.434 94.9259 364.9C95.0235 365.366 95.0282 365.846 94.9398 366.314C94.8514 366.781 94.6715 367.227 94.4105 367.625Z" fill="#263238"/>
<path d="M75.0936 330.053C74.7017 330.651 74.1416 331.119 73.4839 331.398C72.8263 331.677 72.1007 331.755 71.3987 331.623C70.6966 331.49 70.0497 331.152 69.5395 330.652C69.0294 330.152 68.6788 329.511 68.5322 328.812C68.3856 328.113 68.4495 327.386 68.7158 326.723C68.9821 326.06 69.4389 325.491 70.0285 325.087C70.6181 324.683 71.314 324.464 72.0285 324.455C72.7429 324.447 73.4438 324.651 74.0426 325.04C74.8459 325.566 75.4077 326.39 75.6047 327.329C75.8017 328.269 75.6179 329.249 75.0936 330.053Z" fill="#263238"/>
<path d="M305.579 172.746H317.96L324.15 162.026L317.96 151.307H305.579L299.389 162.026L305.579 172.746Z" stroke="#263238" stroke-linecap="round" stroke-linejoin="round"/>
<path d="M303.782 196.276L297.592 185.557H285.211" stroke="#263238" stroke-linecap="round" stroke-linejoin="round"/>
<path d="M286.872 162.026H299.252L305.442 151.306L299.252 140.576H286.872L280.682 151.306L286.872 162.026Z" stroke="#263238" stroke-linecap="round" stroke-linejoin="round"/>
<path d="M305.579 151.306H317.96L324.15 140.576L317.96 129.856H305.579L299.389 140.576L305.579 151.306Z" stroke="#263238" stroke-linecap="round" stroke-linejoin="round"/>
<path d="M305.442 152.968C306.359 152.968 307.103 152.224 307.103 151.307C307.103 150.39 306.359 149.646 305.442 149.646C304.525 149.646 303.781 150.39 303.781 151.307C303.781 152.224 304.525 152.968 305.442 152.968Z" fill="#263238"/>
<path d="M279.589 130.455C280.507 130.455 281.25 129.711 281.25 128.794C281.25 127.877 280.507 127.134 279.589 127.134C278.672 127.134 277.929 127.877 277.929 128.794C277.929 129.711 278.672 130.455 279.589 130.455Z" fill="#263238"/>
<path d="M302.122 196.277C302.122 195.948 302.219 195.627 302.402 195.354C302.584 195.081 302.843 194.868 303.147 194.743C303.45 194.617 303.784 194.584 304.106 194.648C304.428 194.712 304.724 194.87 304.957 195.103C305.189 195.335 305.347 195.631 305.411 195.953C305.475 196.275 305.442 196.609 305.316 196.912C305.191 197.216 304.978 197.475 304.705 197.657C304.432 197.84 304.111 197.937 303.782 197.937C303.564 197.937 303.348 197.894 303.147 197.811C302.945 197.727 302.762 197.605 302.608 197.451C302.454 197.297 302.332 197.114 302.248 196.912C302.165 196.711 302.122 196.495 302.122 196.277Z" fill="#263238"/>
<path d="M285.211 187.218C286.128 187.218 286.872 186.475 286.872 185.558C286.872 184.641 286.128 183.897 285.211 183.897C284.294 183.897 283.551 184.641 283.551 185.558C283.551 186.475 284.294 187.218 285.211 187.218Z" fill="#263238"/>
<path d="M336.129 140.881C336.129 140.55 336.228 140.227 336.412 139.951C336.596 139.676 336.857 139.462 337.163 139.336C337.469 139.21 337.806 139.178 338.13 139.243C338.455 139.308 338.752 139.468 338.986 139.703C339.219 139.938 339.377 140.237 339.441 140.561C339.504 140.886 339.469 141.223 339.341 141.528C339.213 141.833 338.997 142.093 338.721 142.275C338.445 142.458 338.121 142.554 337.79 142.552C337.571 142.552 337.354 142.509 337.152 142.425C336.95 142.34 336.766 142.217 336.612 142.062C336.458 141.907 336.336 141.722 336.253 141.52C336.17 141.317 336.128 141.1 336.129 140.881Z" fill="#263238"/>
<path d="M297.465 187.218C298.382 187.218 299.126 186.475 299.126 185.558C299.126 184.641 298.382 183.897 297.465 183.897C296.548 183.897 295.805 184.641 295.805 185.558C295.805 186.475 296.548 187.218 297.465 187.218Z" fill="#263238"/>
<path d="M322.489 140.881C322.489 140.55 322.587 140.227 322.77 139.953C322.954 139.678 323.215 139.464 323.52 139.337C323.826 139.211 324.162 139.178 324.486 139.242C324.81 139.307 325.108 139.466 325.341 139.699C325.575 139.933 325.734 140.231 325.799 140.555C325.863 140.879 325.83 141.215 325.704 141.52C325.577 141.826 325.363 142.087 325.088 142.27C324.813 142.454 324.49 142.552 324.16 142.552C323.717 142.552 323.292 142.376 322.978 142.063C322.665 141.749 322.489 141.324 322.489 140.881Z" fill="#263238"/>
<path d="M303.782 172.757C303.779 172.425 303.876 172.101 304.059 171.824C304.242 171.548 304.502 171.332 304.808 171.204C305.114 171.077 305.451 171.043 305.776 171.107C306.101 171.171 306.4 171.33 306.634 171.565C306.868 171.799 307.028 172.098 307.092 172.423C307.156 172.748 307.122 173.085 306.994 173.391C306.867 173.696 306.651 173.957 306.374 174.14C306.098 174.323 305.773 174.419 305.442 174.417C305.003 174.414 304.582 174.239 304.271 173.928C303.96 173.617 303.784 173.196 303.782 172.757Z" fill="#263238"/>
<path d="M324.159 140.86H337.79" stroke="#263238" stroke-linecap="round" stroke-linejoin="round"/>
<path d="M305.442 172.757L297.465 185.557" stroke="#263238" stroke-linecap="round" stroke-linejoin="round"/>
<path d="M286.872 140.576L279.589 128.795" stroke="#263238" stroke-linecap="round" stroke-linejoin="round"/>
<path d="M48.499 17.4263C49.9269 12.5997 52.9032 8.37703 56.9687 5.4095C61.0342 2.44197 65.9631 0.894436 70.9952 1.0056C76.0273 1.11676 80.8831 2.88043 84.8136 6.0246C88.7441 9.16877 91.5309 13.5188 92.7443 18.4037" stroke="#263238" stroke-linecap="round" stroke-linejoin="round"/>
<path d="M67.8575 46.6849C62.2659 46.0449 57.1052 43.3701 53.3588 39.1702C49.6124 34.9702 47.5421 29.5387 47.5425 23.9106" stroke="#263238" stroke-linecap="round" stroke-linejoin="round"/>
<path d="M93.4062 23.9106C93.4062 29.9879 90.9927 35.8165 86.6964 40.1148C82.4001 44.4131 76.5727 46.8292 70.4954 46.832" stroke="#263238" stroke-linecap="round" stroke-linejoin="round"/>
<path d="M94.7095 9.37625C101.877 8.46191 106.68 8.95587 107.426 11.0998C108.908 15.3667 93.5745 24.5626 73.1754 31.646C52.7763 38.7295 35.0467 40.9995 33.5543 36.7221C32.7661 34.4416 36.7808 30.7527 43.8012 26.7275" stroke="#263238" stroke-linecap="round" stroke-linejoin="round"/>
<path d="M297.466 74.5654L299.662 79.011L304.57 79.7256L301.018 83.1938L301.859 88.0807L297.466 85.7686L293.073 88.0807L293.913 83.1938L290.361 79.7256L295.269 79.011L297.466 74.5654Z" stroke="#263238" stroke-linecap="round" stroke-linejoin="round"/>
<path d="M142.302 62.722C142.3 66.6745 140.729 70.4645 137.935 73.2603C135.141 76.0562 131.352 77.6295 127.4 77.6351C126.916 77.6351 126.444 77.6141 125.981 77.572C123.105 77.2992 120.369 76.1966 118.108 74.3984C115.846 72.6001 114.156 70.1836 113.242 67.4426C112.328 64.7016 112.23 61.7542 112.96 58.9585C113.69 56.1629 115.216 53.6395 117.353 51.695C119.49 49.7505 122.146 48.4687 124.998 48.0055C127.85 47.5422 130.775 47.9174 133.418 49.0854C136.061 50.2534 138.307 52.164 139.885 54.5849C141.462 57.0057 142.302 59.8327 142.302 62.722V62.722Z" stroke="#263238" stroke-linecap="round" stroke-linejoin="round"/>
<path d="M139.916 65.4119C139.918 65.8697 139.784 66.3177 139.531 66.6993C139.279 67.0809 138.918 67.3789 138.496 67.5555C138.074 67.7321 137.608 67.7794 137.159 67.6914C136.71 67.6034 136.297 67.384 135.973 67.0611C135.648 66.7382 135.427 66.3262 135.337 65.8774C135.247 65.4286 135.292 64.9632 135.467 64.5401C135.641 64.117 135.938 63.7553 136.318 63.5008C136.699 63.2462 137.146 63.1104 137.604 63.1104C138.215 63.1103 138.802 63.3525 139.235 63.7838C139.668 64.2152 139.913 64.8006 139.916 65.4119V65.4119Z" stroke="#263238" stroke-linecap="round" stroke-linejoin="round"/>
<path d="M119.161 71.2757C119.161 71.8235 119.041 72.3647 118.809 72.8607C118.576 73.3566 118.237 73.7951 117.815 74.1448C115.856 72.5271 114.346 70.4312 113.433 68.0598C114.011 67.7047 114.678 67.519 115.356 67.5238C115.853 67.5168 116.347 67.6087 116.808 67.7942C117.269 67.9796 117.689 68.2549 118.043 68.604C118.397 68.9531 118.678 69.369 118.87 69.8277C119.062 70.2864 119.161 70.7786 119.161 71.2757Z" stroke="#263238" stroke-linecap="round" stroke-linejoin="round"/>
<path d="M137.604 73.6202C134.848 76.2304 131.195 77.6826 127.399 77.6769C126.916 77.6769 126.443 77.6559 125.981 77.6139C125.896 77.2095 125.854 76.7974 125.855 76.3842C125.855 74.9871 126.328 73.6311 127.195 72.5361C128.063 71.4411 129.275 70.6712 130.635 70.3513C131.995 70.0314 133.423 70.1801 134.688 70.7734C135.953 71.3668 136.981 72.3699 137.604 73.6202V73.6202Z" stroke="#263238" stroke-linecap="round" stroke-linejoin="round"/>
<path d="M123.785 56.8044C125.677 56.8044 127.211 55.2705 127.211 53.3783C127.211 51.4861 125.677 49.9521 123.785 49.9521C121.893 49.9521 120.359 51.4861 120.359 53.3783C120.359 55.2705 121.893 56.8044 123.785 56.8044Z" stroke="#263238" stroke-linecap="round" stroke-linejoin="round"/>
<path d="M126.959 63.1104C126.959 63.4243 126.865 63.7311 126.691 63.992C126.517 64.253 126.269 64.4564 125.979 64.5765C125.689 64.6966 125.37 64.7281 125.062 64.6668C124.754 64.6056 124.471 64.4545 124.249 64.2325C124.028 64.0106 123.876 63.7278 123.815 63.42C123.754 63.1121 123.785 62.7931 123.905 62.5031C124.026 62.2131 124.229 61.9653 124.49 61.7909C124.751 61.6165 125.058 61.5234 125.372 61.5234C125.58 61.5234 125.786 61.5645 125.979 61.6442C126.171 61.724 126.346 61.8409 126.494 61.9882C126.641 62.1356 126.758 62.3106 126.838 62.5031C126.918 62.6956 126.959 62.902 126.959 63.1104Z" stroke="#263238" stroke-linecap="round" stroke-linejoin="round"/>
<path d="M139.497 54.0196C139.08 54.1564 138.643 54.2238 138.204 54.2193C137.63 54.2193 137.062 54.1061 136.533 53.8863C136.003 53.6664 135.521 53.3442 135.116 52.9381C134.711 52.532 134.39 52.0499 134.172 51.5196C133.953 50.9892 133.841 50.4209 133.843 49.8473C133.832 49.6653 133.832 49.4828 133.843 49.3008C136.094 50.374 138.038 51.9968 139.497 54.0196V54.0196Z" stroke="#263238" stroke-linecap="round" stroke-linejoin="round"/>
<path d="M482.161 235.773L483.769 232.158L481.163 230.728C481.259 230.092 481.276 229.446 481.215 228.805L483.885 227.502L482.466 223.813L479.607 224.633C479.224 224.118 478.78 223.652 478.283 223.245L479.261 220.429L475.645 218.821L474.206 221.427C473.567 221.349 472.921 221.349 472.282 221.427L470.99 218.758L467.29 220.177L468.12 223.025C467.605 223.414 467.136 223.862 466.723 224.359L463.917 223.382L462.351 226.945L464.957 228.385C464.861 229.021 464.843 229.667 464.905 230.308L462.225 231.601L463.643 235.3L466.502 234.47C466.888 234.985 467.332 235.454 467.826 235.867L466.859 238.673L470.475 240.281L471.904 237.675C472.54 237.771 473.186 237.789 473.827 237.728L475.13 240.408L478.819 238.989L477.999 236.13C478.512 235.744 478.977 235.3 479.387 234.806L482.161 235.773ZM471.168 233.755C470.338 233.386 469.637 232.779 469.152 232.011C468.667 231.243 468.42 230.349 468.443 229.441C468.467 228.533 468.759 227.653 469.282 226.91C469.806 226.168 470.538 225.598 471.385 225.272C472.233 224.946 473.158 224.879 474.044 225.078C474.93 225.278 475.737 225.736 476.363 226.394C476.989 227.052 477.405 227.881 477.56 228.776C477.715 229.671 477.601 230.592 477.232 231.422C476.736 232.534 475.819 233.404 474.682 233.841C473.546 234.278 472.282 234.247 471.168 233.755V233.755Z" stroke="#263238" stroke-linecap="round" stroke-linejoin="round"/>
<path d="M462.949 254.322L465.135 249.414L461.603 247.459C461.729 246.596 461.75 245.721 461.667 244.853L465.303 243.087L463.401 238.074L459.523 239.199C459.004 238.496 458.401 237.86 457.725 237.307L459.05 233.481L454.1 231.264L452.155 234.795C451.292 234.671 450.418 234.646 449.549 234.721L447.783 231.096L442.76 233.029L443.884 236.897C443.186 237.425 442.552 238.031 441.993 238.705L438.178 237.422L435.992 242.33L439.523 244.285C439.397 245.148 439.376 246.023 439.46 246.892L435.823 248.657L437.757 253.67L441.635 252.556C442.156 253.256 442.76 253.892 443.432 254.448L442.108 258.263L447.027 260.449L448.971 256.907C449.834 257.036 450.709 257.061 451.577 256.981L453.343 260.607L458.366 258.683L457.242 254.805C457.94 254.281 458.575 253.678 459.134 253.008L462.949 254.322ZM448.025 251.579C446.897 251.076 445.943 250.25 445.285 249.205C444.626 248.16 444.292 246.944 444.326 245.709C444.359 244.474 444.758 243.277 445.471 242.269C446.185 241.261 447.182 240.488 448.335 240.046C449.489 239.605 450.747 239.516 451.951 239.79C453.156 240.064 454.252 240.689 455.1 241.586C455.949 242.483 456.513 243.612 456.72 244.829C456.928 246.047 456.769 247.299 456.265 248.426C455.931 249.175 455.454 249.85 454.859 250.414C454.264 250.977 453.564 251.418 452.799 251.711C452.033 252.004 451.218 252.143 450.399 252.12C449.58 252.098 448.773 251.914 448.025 251.579Z" stroke="#263238" stroke-linecap="round" stroke-linejoin="round"/>
<path d="M245.087 207.734C243.647 210.462 242.021 213.089 240.221 215.595C230.884 228.577 217.163 237.741 201.595 241.394C186.026 245.047 169.662 242.942 155.524 235.468C154.063 234.701 152.634 233.881 151.268 233.02C149.902 232.158 148.567 231.275 147.285 230.329C145.729 229.205 144.237 228.007 142.808 226.756C142.716 226.687 142.632 226.61 142.556 226.525C133.242 218.283 126.435 207.587 122.912 195.66C119.389 183.733 119.291 171.056 122.631 159.076C125.971 147.096 132.613 136.298 141.799 127.914C150.985 119.53 162.344 113.899 174.578 111.664C186.812 109.429 199.428 110.681 210.984 115.276C222.541 119.871 232.572 127.624 239.931 137.649C247.291 147.675 251.682 159.568 252.603 171.97C253.524 184.373 250.937 196.784 245.139 207.786L245.087 207.734Z" fill="#FFDC00"/>
<path opacity="0.6" d="M245.086 207.734C243.646 210.462 242.02 213.089 240.22 215.595L238.938 214.544L236.731 213.377L234.408 212.158L234.797 209.352L234.671 206.819C234.534 204.286 236.363 206.357 237.824 205.59C238.963 204.775 239.884 203.692 240.504 202.437C240.504 202.437 241.555 199.063 241.208 197.707C240.642 196.145 239.975 194.622 239.211 193.146L235.449 198.401L232.296 198.159L229.311 196.583L228.922 192.432L227.388 191.633L226.747 189.247L218.455 186.925L217.509 185.264C216.563 183.604 212.748 182.752 212.748 182.752L213.683 180.587L215.155 178.17C216.637 175.753 218.171 179.768 218.171 179.768L219.926 180.682L223.184 177.949L224.046 174.029L229.353 174.334C229.249 173.804 229.33 173.253 229.583 172.775C229.835 172.297 230.244 171.92 230.74 171.707C232.506 171.013 231.728 167.177 231.056 165.758C230.383 164.34 227.903 165.485 227.903 165.485C227.903 165.485 225.202 161.376 224.834 159.736C224.466 158.097 229.984 158.685 232.348 157.035C234.713 155.385 233.904 152.106 232.748 152.033C231.592 151.959 235.007 144.571 241.576 146.599C243.404 147.167 244.561 146.967 245.275 146.337C250.203 155.825 252.76 166.366 252.727 177.058C252.694 187.75 250.073 198.275 245.086 207.734Z" fill="white"/>
<path opacity="0.6" d="M199.128 179.305L196.879 182.132C196.879 182.132 195.923 179.852 194.556 181.081L192.454 182.952L190.931 187.219L188.198 188.985L186.527 188.112L184.951 187.271L183.238 186.368L181.598 189.521L180.263 192.043C180.914 193.281 181.723 194.429 182.67 195.458L185.571 200.577L189.102 202.363C190.575 202.418 192.04 202.594 193.484 202.889L195.912 204.16L195.05 209.415C195.05 209.415 193.222 212.389 192.003 211.57L190.773 210.76L188.776 217.676L188.692 221.48C188.692 221.48 187.504 221.974 186.306 222.373C185.108 222.773 185.865 222.563 183.353 223.34C180.841 224.118 181.041 224.086 179.002 224.664C177.264 225.273 175.592 226.055 174.01 226.998L174.189 230.655L169.386 231.359L166.695 229.93L167.358 227.618L167.673 224.002L167.305 221.301L166.149 218.916L169.386 215.984L168.671 214.144L166.832 210.487L162.944 212.589L160.947 213.64L156.428 211.612L155.934 208.869L154.42 203.94L153.012 200.871L150.511 197.487L149.88 194.576L151.288 191.906L152.035 190.498L149.733 187.398L149.102 185.191L145.224 181.67C145.224 181.67 146.349 181.596 146.097 180.03C145.845 178.464 148.314 175.827 148.314 175.827C149.712 176.562 153.905 179.484 153.905 179.484L157.573 179.988C157.573 179.988 158.309 179.988 159.024 178.601C159.858 177.325 160.839 176.151 161.945 175.101C161.945 175.101 160.253 169.227 161.462 168.438C162.67 167.65 163.9 163.804 163.9 163.804L164.867 161.964C164.867 161.964 162.586 160.966 162.155 159.757C161.724 158.549 156.102 160.157 156.102 160.157L152.224 162.847L149.166 165.212L147.841 167.724C147.841 167.724 145.14 164.476 145.13 166.294C144.924 168.158 144.515 169.994 143.911 171.77C143.911 171.77 144.468 172.064 143.732 173.472C142.996 174.881 142.198 174.807 140.579 175.007C138.469 175.028 136.361 174.884 134.273 174.576C134.273 174.576 133.223 178.464 133.948 179.137L134.662 179.789C134.662 179.789 133.538 182.616 132.424 182.027L129.712 180.598L125.918 182.132L121.715 186.778L120.779 186.588C118.203 169.307 122.553 151.708 132.883 137.617C143.213 123.525 158.688 114.082 175.944 111.34C176.186 112.391 176.448 113.379 176.448 113.379L175.397 118.57L174.052 121.135L172.896 123.331L171.267 126.421L175.439 130.268L174.546 134.818L172.287 136.237L171.635 139.653L175.513 147.23L176.564 150.204C175.915 151.628 175.595 153.18 175.629 154.744C175.629 154.744 176.102 157.582 178.172 158.706C180.242 159.831 182.964 161.155 182.964 161.155L182.744 165.359L181.808 166.41L183.364 170.94C188.103 172.8 187.652 174.355 188.103 172.8L188.566 171.255L191.792 170.088L195.902 174.996C196.38 174.99 196.852 175.104 197.274 175.328C197.697 175.552 198.056 175.879 198.319 176.278C199.517 177.792 201.388 176.478 199.128 179.305Z" fill="white"/>
<path opacity="0.6" d="M143.427 215.91C143.542 217.402 141.651 219.273 141.651 219.273L143.195 220.082L143.668 224.286L142.502 226.514C134.236 219.212 127.931 209.955 124.163 199.588L125.003 195.132L128.713 194.607C128.713 194.607 132.034 192.4 133.506 192.988C134.977 193.577 136.322 197.192 136.322 197.192C136.322 197.192 137.373 202.069 137.236 201.974H137.173H137.258L138.771 202.773L139.202 204.696L137.1 208.69H133.716C133.716 208.69 133.043 208.332 132.98 210.088C133.035 210.697 133.22 211.287 133.523 211.818C133.826 212.349 134.239 212.809 134.735 213.167L138.393 212.231L139.37 208.448L142.964 207.744C142.964 207.744 142.449 210.067 143.29 210.508L144.141 210.96L144.646 213.734C144.269 213.958 143.958 214.277 143.744 214.659C143.53 215.04 143.421 215.472 143.427 215.91Z" fill="white"/>
<path opacity="0.6" d="M160.81 221.859C160.484 220.955 160.348 220.167 158.109 218.989C155.87 217.812 156.007 218.233 155.124 219.21C154.744 219.713 154.225 220.093 153.631 220.304C153.037 220.515 152.394 220.548 151.782 220.398C150.311 220.072 151.078 221.732 151.078 221.732L151.435 226.22L147.284 230.319C148.566 231.265 149.894 232.161 151.267 233.009L152.15 230.298L159.044 232.316C157.584 231.885 158.445 229.888 158.445 229.888L156.974 229.11C156.974 229.11 161.136 222.741 160.81 221.859Z" fill="white"/>
<path opacity="0.6" d="M204.235 198.527L201.975 196.246L199.39 197.055L198.339 199.157L197.551 200.671L198.602 202.773L200.704 205.326L201.902 203.035C201.902 203.035 205.233 203.035 206.978 201.112C208.722 199.189 204.235 198.527 204.235 198.527Z" fill="white"/>
<path opacity="0.6" d="M197.593 188.238L201.797 190.445L201.965 189.457C202.184 188.666 202.571 187.931 203.1 187.303L199.884 183.897L197.593 188.238Z" fill="white"/>
<path opacity="0.6" d="M196.163 237.16L194.955 235.384L193.546 234.648H189.248L186.799 239.294C186.799 239.294 184.456 238.978 181.376 238.705C178.297 238.432 179.054 239.704 179.054 239.704L178.255 242.625C186.024 243.582 193.901 243.158 201.523 241.375C200.637 240.757 199.718 240.189 198.77 239.672L196.163 237.16Z" fill="white"/>
<path d="M245.087 207.734C243.647 210.462 242.021 213.089 240.221 215.595C230.884 228.577 217.163 237.741 201.595 241.394C186.026 245.047 169.662 242.942 155.524 235.468C154.064 234.701 152.634 233.881 151.268 233.02C149.902 232.158 148.567 231.275 147.285 230.329C145.729 229.205 144.237 228.007 142.808 226.756C142.716 226.687 142.632 226.61 142.556 226.525V226.525C133.242 218.283 126.435 207.587 122.912 195.66C119.389 183.733 119.291 171.056 122.631 159.076C125.971 147.096 132.613 136.298 141.799 127.914C150.985 119.53 162.344 113.899 174.578 111.664C186.812 109.429 199.428 110.681 210.984 115.276C222.541 119.871 232.572 127.624 239.931 137.649C247.291 147.675 251.682 159.568 252.603 171.97C253.524 184.373 250.937 196.784 245.139 207.786L245.087 207.734Z" stroke="#263238" stroke-linecap="round" stroke-linejoin="round"/>
<path d="M201.525 241.375C193.903 243.158 186.026 243.582 178.257 242.625L179.056 239.704C179.056 239.704 178.299 238.432 181.378 238.705C184.457 238.978 186.801 239.294 186.801 239.294L189.25 234.648H193.548L194.957 235.384L196.165 237.16L198.772 239.672C199.72 240.189 200.639 240.757 201.525 241.375Z" stroke="#263238" stroke-linecap="round" stroke-linejoin="round"/>
<path d="M245.317 146.347C244.603 146.977 243.446 147.177 241.618 146.61C235.049 144.581 231.644 151.959 232.79 152.043C233.935 152.127 234.745 155.448 232.39 157.046C230.036 158.643 224.508 158.097 224.876 159.747C225.244 161.397 227.945 165.495 227.945 165.495C227.945 165.495 230.362 164.36 231.045 165.769C231.728 167.177 232.506 171.023 230.74 171.717C230.244 171.93 229.835 172.307 229.583 172.786C229.33 173.264 229.249 173.814 229.353 174.344L224.046 174.04L223.184 177.96L219.926 180.692L218.171 179.778C218.171 179.778 216.637 175.763 215.155 178.18L213.683 180.598L212.748 182.762C212.748 182.762 216.563 183.614 217.509 185.274L218.455 186.935L226.747 189.257L227.388 191.643L228.922 192.442L229.311 196.593L232.401 198.212L235.554 198.453L239.316 193.198C240.08 194.674 240.747 196.198 241.313 197.76C241.681 199.115 240.609 202.489 240.609 202.489C239.989 203.745 239.068 204.828 237.929 205.642C236.426 206.409 234.587 204.339 234.776 206.871L234.902 209.404L234.513 212.21L236.836 213.429L239.043 214.596L240.325 215.647" stroke="#263238" stroke-linecap="round" stroke-linejoin="round"/>
<path d="M120.864 186.588L121.799 186.777L126.003 182.132L129.797 180.597L132.509 182.027C133.623 182.615 134.747 179.788 134.747 179.788L134.033 179.136C133.307 178.464 134.358 174.575 134.358 174.575C136.446 174.883 138.554 175.027 140.664 175.006C142.325 174.807 143.113 174.87 143.817 173.472C144.521 172.074 143.996 171.769 143.996 171.769C144.6 169.994 145.009 168.158 145.215 166.294C145.215 164.476 147.926 167.723 147.926 167.723L149.25 165.211L152.214 162.857L156.092 160.167C156.092 160.167 161.715 158.548 162.146 159.767C162.576 160.986 164.857 161.974 164.857 161.974L163.89 163.814C163.89 163.814 162.65 167.639 161.452 168.448C160.254 169.257 161.935 175.111 161.935 175.111C160.829 176.161 159.848 177.335 159.014 178.611C158.278 180.019 157.563 179.998 157.563 179.998L153.896 179.494C153.896 179.494 149.692 176.572 148.304 175.836C148.304 175.836 145.835 178.474 146.087 180.04C146.339 181.606 145.215 181.68 145.215 181.68L149.093 185.2L149.723 187.407L152.025 190.508L151.279 191.916L149.87 194.586L150.501 197.497L153.002 200.881L154.421 203.939L155.955 208.889L156.449 211.632L160.969 213.66L162.965 212.609L166.854 210.508L168.693 214.165L169.408 216.004L166.171 218.936L167.327 221.322L167.695 224.023L167.379 227.638L166.717 229.95L169.408 231.38L174.211 230.686L174.032 227.018C175.613 226.075 177.286 225.293 179.024 224.685C181.063 224.107 180.863 224.138 183.375 223.361C185.887 222.583 185.119 222.793 186.328 222.394C187.537 221.994 188.714 221.501 188.714 221.501L188.798 217.696L190.795 210.781L192.024 211.59C193.243 212.41 195.072 209.436 195.072 209.436L195.934 204.181L193.454 202.888C192.01 202.593 190.544 202.417 189.071 202.363L185.613 200.544L182.713 195.426C181.766 194.397 180.957 193.249 180.306 192.011L181.641 189.488L183.28 186.336L184.993 187.239L186.57 188.08L188.241 188.952L190.973 187.187L192.497 182.92L194.599 181.049C195.965 179.809 196.922 182.1 196.922 182.1L199.171 179.273C201.43 176.446 199.56 177.76 198.404 176.309C198.141 175.91 197.781 175.583 197.359 175.359C196.937 175.135 196.465 175.021 195.986 175.027L191.877 170.119L188.609 171.359L188.146 172.904C187.694 174.46 188.146 172.904 183.406 171.044L181.851 166.514L182.786 165.464L183.007 161.26C183.007 161.26 180.285 159.925 178.215 158.811C176.144 157.697 175.671 154.849 175.671 154.849C175.638 153.284 175.958 151.733 176.607 150.309L175.556 147.335L171.678 139.757L172.329 136.341L174.589 134.923L175.482 130.372L171.426 126.526L173.055 123.436L174.211 121.239L175.556 118.675L176.607 113.483C176.607 113.483 176.344 112.516 176.102 111.444" stroke="#263238" stroke-linecap="round" stroke-linejoin="round"/>
<path d="M142.86 226.746C142.779 226.652 142.687 226.567 142.587 226.494V226.494L143.754 224.265L143.281 220.062L141.736 219.252C141.736 219.252 143.628 217.382 143.512 215.889C143.492 215.444 143.591 215.002 143.8 214.608C144.009 214.214 144.319 213.884 144.7 213.651L144.195 210.876L143.344 210.424C142.503 209.983 143.018 207.66 143.018 207.66L139.424 208.365L138.446 212.148L134.789 213.083C134.293 212.726 133.879 212.266 133.577 211.735C133.274 211.203 133.089 210.613 133.034 210.004C133.097 208.249 133.77 208.606 133.77 208.606H137.154L139.256 204.613L138.825 202.689L137.311 201.891" stroke="#263238" stroke-linecap="round" stroke-linejoin="round"/>
<path d="M137.216 201.89C137.384 201.985 136.302 197.108 136.302 197.108C136.302 197.108 134.957 193.546 133.485 192.905C132.014 192.263 128.693 194.523 128.693 194.523L124.983 195.049L124.142 199.505" stroke="#263238" stroke-linecap="round" stroke-linejoin="round"/>
<path d="M152.15 230.298L151.267 233.009C149.866 232.154 148.538 231.258 147.284 230.319L151.435 226.22L151.078 221.732C151.078 221.732 150.311 220.072 151.782 220.398C152.394 220.548 153.037 220.515 153.631 220.304C154.225 220.093 154.744 219.713 155.124 219.21C155.986 218.233 155.881 217.812 158.109 218.989C160.337 220.167 160.484 220.955 160.81 221.859C161.136 222.762 156.974 229.142 156.974 229.142L158.445 229.919C158.445 229.919 157.584 231.916 159.044 232.347L152.15 230.298Z" stroke="#263238" stroke-linecap="round" stroke-linejoin="round"/>
<path d="M199.391 197.055L201.976 196.246L204.236 198.527C204.236 198.527 208.702 199.105 206.958 201.049C205.213 202.993 201.882 202.972 201.882 202.972L200.663 205.263L198.561 202.709L197.51 200.608L198.298 199.094L199.391 197.055Z" stroke="#263238" stroke-linecap="round" stroke-linejoin="round"/>
<path d="M203.101 187.303C202.572 187.931 202.185 188.666 201.966 189.457L201.798 190.445L197.594 188.238L199.885 183.897L203.101 187.303Z" stroke="#263238" stroke-linecap="round" stroke-linejoin="round"/>
<path d="M430 438C424.367 442.687 382.14 469.673 320.217 464.87C316.886 436.683 304.18 320.889 318.63 302.728C318.63 302.728 353.69 286.008 385.986 293.028C418.282 300.048 430.851 306.775 433.153 312.597C434.898 317 432.5 401.5 430 438Z" fill="#263238"/>
<path d="M384.915 305.398C366.313 321.509 342.351 318.104 342.877 305.734C342.961 303.8 345.031 301.404 345.031 301.404L344.306 300.29L341.153 295.529C338.851 291.967 335.972 287.49 333.965 284.232C332.283 281.457 374.206 255.667 374.206 270.496C374.206 291.389 384.463 295.319 384.463 295.319C388.331 296.875 391.935 299.334 384.915 305.398Z" fill="white" stroke="#263238" stroke-linecap="round" stroke-linejoin="round"/>
<path d="M396.675 337.305C396.675 337.305 392.923 350.168 394.699 353.857" stroke="white" stroke-linecap="round" stroke-linejoin="round"/>
<path d="M392.292 299.954C392.292 312.366 355.267 324.525 344.421 312.072" stroke="white" stroke-linecap="round" stroke-linejoin="round"/>
<path d="M361.836 285.63C361.836 285.63 359.356 294.983 347.795 302.288C347.243 301.341 346.353 300.639 345.304 300.322C344.956 300.266 344.601 300.266 344.253 300.322L341.101 295.561C347.081 291.252 361.836 285.63 361.836 285.63Z" fill="#263238"/>
<path d="M367.027 274.132C367.027 274.132 366.901 283.359 364.925 285.24C350.264 299.302 335.929 300.416 333.565 296.706C317.643 271.735 321.405 265.178 319.787 260.9C316.917 253.396 313.397 241.142 314.952 233.722C318.42 217.149 349.634 204.296 366.071 220.964C373.953 228.941 376.444 246.25 374.783 260.669" fill="white"/>
<path d="M367.027 274.132C367.027 274.132 366.901 283.359 364.925 285.24C350.264 299.302 335.929 300.416 333.565 296.706C317.643 271.735 321.405 265.178 319.787 260.9C316.917 253.396 313.397 241.142 314.952 233.722C318.42 217.149 349.634 204.296 366.071 220.964C373.953 228.941 376.444 246.25 374.783 260.669" stroke="#263238" stroke-linecap="round" stroke-linejoin="round"/>
<path d="M321.794 253.186C321.794 253.186 317.412 251.221 316.466 253.565" stroke="#263238" stroke-linecap="round" stroke-linejoin="round"/>
<path d="M332.42 253.333C332.42 253.333 341.531 249.518 345.63 254.153" stroke="#263238" stroke-linecap="round" stroke-linejoin="round"/>
<path d="M342.54 259.797C342.687 261.163 342.025 262.35 341.048 262.466C340.07 262.582 339.167 261.541 339.019 260.175C338.872 258.809 339.534 257.611 340.512 257.505C341.489 257.4 342.351 258.43 342.54 259.797Z" fill="#263238"/>
<path d="M324.673 260.207C324.831 261.573 324.158 262.771 323.181 262.876C322.203 262.981 321.3 261.962 321.153 260.596C321.005 259.23 321.668 258.031 322.645 257.926C323.622 257.821 324.505 258.841 324.673 260.207Z" fill="#263238"/>
<path d="M325.115 256.612C326.387 258.662 325.693 262.161 324.011 266.964C322.33 271.767 323.812 273.501 330.265 273.985" fill="white"/>
<path d="M325.115 256.612C326.387 258.662 325.693 262.161 324.011 266.964C322.33 271.767 323.812 273.501 330.265 273.985" stroke="#263238" stroke-linecap="round" stroke-linejoin="round"/>
<path d="M330.264 282.299C330.264 282.299 338.672 281.531 342.518 279.419" stroke="#263238" stroke-linecap="round" stroke-linejoin="round"/>
<path d="M383.528 234.647C383.528 228.405 377.369 215.594 366.565 214.154C360.354 207.659 351.505 205.273 340.764 207.743C315.941 213.439 308.384 237.947 307.302 242.004C307.197 242.382 307.144 242.593 307.144 242.593L313.786 240.911L310.928 246.492L314.406 248.793L313.608 249.676L317.643 253.565L316.382 246.46C317.16 241.878 322.436 235.467 322.436 235.467C320.51 237.963 319.31 240.941 318.968 244.075C321.069 238.62 333.681 233.565 333.681 233.565C329.593 236.886 327.375 243.381 327.375 243.381C331.264 238.589 340.376 235.488 346.208 233.838C348.174 238.578 351.295 243.528 355.751 246.271C359.955 248.856 359.808 254.195 359.808 254.195C364.331 257.339 367.663 261.915 369.266 267.185L374.353 274.142C374.353 274.142 383.528 262.887 383.528 234.647Z" fill="#263238"/>
<path d="M362.119 255.982C360.417 252.336 366.597 242.457 370.979 243.676C373.438 244.369 376.654 248.857 377.285 253.565C377.915 258.274 374.584 267.228 371.032 269.172C368.772 270.433 366.912 266.997 366.912 266.997" fill="white"/>
<path d="M362.119 255.982C360.417 252.336 366.597 242.457 370.979 243.676C373.438 244.369 376.654 248.857 377.285 253.565C377.915 258.274 374.584 267.228 371.032 269.172C368.772 270.433 366.912 266.997 366.912 266.997" stroke="#263238" stroke-linecap="round" stroke-linejoin="round"/>
<path d="M1 472.802L187.983 376.771L578 475.71" fill="white"/>
<path d="M1 472.802L187.983 376.771L578 475.71" stroke="#263238" stroke-linecap="round" stroke-linejoin="round"/>
<path d="M196.762 439.931L244.832 418.681L305.609 421.823L278.579 444.934L196.762 439.931Z" fill="white" stroke="#263238" stroke-linecap="round" stroke-linejoin="round"/>
<path d="M320.975 301.678C305.557 307.983 302.236 322.161 276.036 378.187C276.036 378.187 264.402 380.573 258.17 394.708C251.937 408.844 262.373 420.005 274.386 419.627C274.386 419.627 279.21 423.83 289.099 423.4C298.989 422.969 342.698 356.086 342.698 356.086L320.975 301.678Z" fill="#263238"/>
<path d="M280.628 381.477C287.522 387.614 291.484 396.621 289.382 406.605" stroke="white" stroke-linecap="round" stroke-linejoin="round"/>
<path d="M287.281 384.43C287.281 384.43 295.751 386.279 297.065 397.125" stroke="white" stroke-linecap="round" stroke-linejoin="round"/>
<path d="M312.062 352.692C308.06 342.817 306.677 332.076 308.047 321.51" stroke="white" stroke-linecap="round" stroke-linejoin="round"/>
<path d="M310.864 338.398C310.223 342.812 314.784 366.312 314.753 391.02" stroke="white" stroke-linecap="round" stroke-linejoin="round"/>
<path d="M426.112 306.322C445.397 316.012 447.688 345.828 429.496 381.476C416.643 406.636 398.903 443.787 387.679 446.278C376.455 448.769 365.504 441.78 365.504 441.78C365.504 441.78 356.045 441.339 353.186 434.613C345.367 416.231 365.241 393.005 373.018 398.565C373.018 398.565 397.989 344.262 402.539 340.836" fill="#263238"/>
<path d="M351.4 423.441C348.846 410.756 368.814 395.791 373.018 398.565C373.018 398.565 387.847 399.395 390.064 409.653" stroke="white" stroke-linecap="round" stroke-linejoin="round"/>
<path d="M405.724 426.142C414.405 410.83 429.497 381.477 429.497 381.477" stroke="white" stroke-linecap="round" stroke-linejoin="round"/>
<path d="M373.018 398.566C373.018 398.566 383.412 392.344 391.178 398.23" stroke="white" stroke-linecap="round" stroke-linejoin="round"/>
<path d="M376.57 391.009C376.57 391.009 382.309 378.398 388.131 366.837C393.953 355.276 407.279 338.156 412.818 337.326" stroke="white" stroke-linecap="round" stroke-linejoin="round"/>
<path d="M267.039 413.678C265.791 413.617 264.572 413.284 263.466 412.701C245.6 403.379 231.706 387.972 223.341 376.916C220.088 372.69 217.094 368.272 214.376 363.684L218.664 345.313C218.664 345.313 222.7 355.823 238.916 366.154C255.132 376.485 274.396 379.89 280.628 390.326C286.146 399.417 276.424 414.13 267.039 413.678Z" fill="white"/>
<path opacity="0.4" d="M267.039 413.678C266.84 412.349 266.487 411.048 265.988 409.8C262.237 400.405 239.536 381.729 239.536 381.729C234.134 381.561 228.196 379.312 223.362 376.916C220.102 372.691 217.101 368.272 214.376 363.684L218.664 345.313C218.664 345.313 222.7 355.823 238.916 366.154C255.132 376.485 274.396 379.89 280.628 390.326C286.146 399.417 276.424 414.13 267.039 413.678Z" fill="#FFDC00"/>
<path d="M267.039 413.678C265.791 413.617 264.572 413.284 263.466 412.701C245.6 403.379 231.706 387.972 223.341 376.916C220.088 372.69 217.094 368.272 214.376 363.684L218.664 345.313C218.664 345.313 222.7 355.823 238.916 366.154C255.132 376.485 274.396 379.89 280.628 390.326C286.146 399.417 276.424 414.13 267.039 413.678Z" stroke="#263238" stroke-linecap="round" stroke-linejoin="round"/>
<path d="M226.577 362.571C226.577 362.571 224.36 372.365 218.517 370.169C215.364 368.981 209.289 359.565 208.144 354.814L226.577 362.571Z" fill="white" stroke="#263238" stroke-linecap="round" stroke-linejoin="round"/>
<path d="M200.818 302.256L205.59 299.797C205.59 299.797 219.073 299.912 227.439 306.712C235.038 312.892 238.895 322.571 238.895 322.571C238.895 322.571 268.416 306.271 298.568 315.624L310.864 384.157L254.333 387.857L219.052 354.342L200.818 302.256Z" fill="white" stroke="#263238" stroke-linecap="round" stroke-linejoin="round"/>
<path d="M314.753 386.9C314.753 386.9 308.121 386.7 299.251 386.994C285.841 387.415 267.313 388.928 258.842 393.857L258.442 393.721L250.686 391.009L250.529 390.778C249.099 388.676 237.57 372.123 221.102 365.387L197.813 300.312C197.813 300.312 221.985 301.362 235.195 323.201L241.827 325.598C241.827 325.598 281.29 313.911 303.381 318.115L314.753 386.9Z" fill="#FFDC00"/>
<path opacity="0.3" d="M250.529 390.788C249.099 388.686 237.57 372.133 221.102 365.397L197.813 300.321C197.813 300.321 221.985 301.372 235.195 323.211L250.529 390.788Z" fill="black" fill-opacity="0.7"/>
<path opacity="0.3" d="M299.25 386.994C285.84 387.415 267.312 388.928 258.841 393.857L258.442 393.72L242.951 327.951C242.951 327.951 255.625 325.103 259.524 326.543C259.514 326.564 285.283 345.576 299.25 386.994Z" fill="black" fill-opacity="0.7"/>
<path d="M314.753 386.9C314.753 386.9 308.121 386.7 299.251 386.994C285.841 387.415 267.313 388.928 258.842 393.857L258.442 393.721L250.686 391.009L250.529 390.778C249.099 388.676 237.57 372.123 221.102 365.387L197.813 300.312C197.813 300.312 221.985 301.362 235.195 323.201L241.827 325.598C241.827 325.598 281.29 313.911 303.381 318.115L314.753 386.9Z" stroke="#263238" stroke-linecap="round" stroke-linejoin="round"/>
<path d="M241.848 325.607L257.055 388.696" stroke="#263238" stroke-linecap="round" stroke-linejoin="round"/>
<path d="M250.686 391.02L235.91 327.973" stroke="#263238" stroke-linecap="round" stroke-linejoin="round"/>
<path d="M213.146 363.737C209.772 362.801 202.972 342.528 206.083 333.795C206.083 333.795 209.783 327.374 211.338 326.932C213.692 326.249 223.193 326.449 222.73 328.046C221.679 331.746 214.386 331.683 214.386 331.683L212.021 336.013L212.116 338.398C212.116 338.398 215.552 335.897 216.813 335.971C217.465 335.971 220.828 337.652 223.498 339.06C225.778 340.269 227.176 340.931 226.65 342.024C224.958 345.66 217.759 343.075 217.759 343.075L215.048 347.163C215.048 347.163 217.665 347.615 218.81 347.741C219.956 347.867 229.467 354.205 229.183 354.993C228.059 358.083 219.042 354.741 219.042 354.741L217.444 356.075C217.444 356.075 224.086 357.788 224.801 358.041C225.852 358.429 229.898 361.54 229.835 361.898C229.351 364.63 223.771 362.623 223.771 362.623L218.884 362.423C218.139 363.08 217.244 363.542 216.277 363.768" fill="white"/>
<path d="M213.146 363.737C209.772 362.801 202.972 342.528 206.083 333.795C206.083 333.795 209.783 327.374 211.338 326.932C213.692 326.249 223.193 326.449 222.73 328.046C221.679 331.746 214.386 331.683 214.386 331.683L212.021 336.013L212.116 338.398C212.116 338.398 215.552 335.897 216.813 335.971C217.465 335.971 220.828 337.652 223.498 339.06C225.778 340.269 227.176 340.931 226.65 342.024C224.958 345.66 217.759 343.075 217.759 343.075L215.048 347.163C215.048 347.163 217.665 347.615 218.81 347.741C219.956 347.867 229.467 354.205 229.183 354.993C228.059 358.083 219.042 354.741 219.042 354.741L217.444 356.075C217.444 356.075 224.086 357.788 224.801 358.041C225.852 358.429 229.898 361.54 229.835 361.898C229.351 364.63 223.771 362.623 223.771 362.623L218.884 362.423C218.139 363.08 217.244 363.542 216.277 363.768" stroke="#263238" stroke-linecap="round" stroke-linejoin="round"/>
<path d="M212.074 338.398C212.074 338.398 208.921 341.047 208.112 341.814C207.303 342.581 207.503 345.019 207.503 345.019" stroke="#263238" stroke-linecap="round" stroke-linejoin="round"/>
<path d="M209.794 350.4C209.794 353.07 211.58 354.688 212.4 355.55C213.22 356.412 211.086 358.756 213.451 360.437" stroke="#263238" stroke-linecap="round" stroke-linejoin="round"/>
<path d="M365.462 435.013C358.788 436.831 351.536 425.102 342.687 412.302C336.844 403.894 330.307 394.929 322.793 389.181C322.194 388.729 321.584 388.287 320.975 387.867L325.368 365.797C334.49 370.579 340.144 378.24 349.613 386.112C364.852 398.797 378.357 406.584 382.098 412.197C385.84 417.809 376.896 431.892 365.462 435.013Z" fill="white"/>
<path opacity="0.4" d="M342.686 412.291C336.843 403.883 330.306 394.919 322.792 389.17C323.782 389.22 324.772 389.07 325.703 388.729C325.703 388.729 337.579 398.366 342.686 412.291Z" fill="#FFDC00"/>
<path d="M365.462 435.013C358.788 436.831 351.536 425.102 342.687 412.302C336.844 403.894 330.307 394.929 322.793 389.181C322.194 388.729 321.584 388.287 320.975 387.867L325.368 365.797C334.49 370.579 340.144 378.24 349.613 386.112C364.852 398.797 378.357 406.584 382.098 412.197C385.84 417.809 376.896 431.892 365.462 435.013Z" stroke="#263238" stroke-linecap="round" stroke-linejoin="round"/>
<path d="M327.826 386.994C327.369 387.81 326.617 388.419 325.724 388.696C325.486 388.79 325.244 388.87 324.999 388.938H324.799C317.747 390.777 301.878 386.952 301.878 386.952C301.878 386.952 291.484 382.012 290.853 380.846C290.414 379.921 290.024 378.974 289.687 378.008L289.403 377.178C289.403 377.178 285.661 375.076 285.199 373.437C284.737 371.797 283.948 371.335 286.25 371.04C288.552 370.746 300.963 371.04 300.963 371.04L287.459 365.533C287.459 365.533 278.515 361.025 277.685 359.438C276.854 357.851 275.814 356.8 280.386 357.43C284.957 358.061 294.941 360.962 294.941 360.962L302.813 362.633L294.994 359.301C294.994 359.301 279.608 357.441 282.519 352.659H291.252C296.2 352.878 301.121 353.503 305.966 354.53C308.509 355.308 325.324 365.754 325.324 365.754" fill="white"/>
<path opacity="0.4" d="M324.779 388.981C317.727 390.82 301.857 386.994 301.857 386.994C301.857 386.994 291.463 382.055 290.833 380.888C290.393 379.964 290.004 379.017 289.666 378.051L302.425 379.449C301.979 380.252 301.744 381.157 301.744 382.076C301.744 382.995 301.979 383.9 302.425 384.703C303.844 387.257 320.007 389.843 324.779 388.981Z" fill="#FFDC00"/>
<path d="M327.826 386.994C327.369 387.81 326.617 388.419 325.724 388.696C325.486 388.79 325.244 388.87 324.999 388.938H324.799C317.747 390.777 301.878 386.952 301.878 386.952C301.878 386.952 291.484 382.012 290.853 380.846C290.414 379.921 290.024 378.974 289.687 378.008L289.403 377.178C289.403 377.178 285.661 375.076 285.199 373.437C284.737 371.797 283.948 371.335 286.25 371.04C288.552 370.746 300.963 371.04 300.963 371.04L287.459 365.533C287.459 365.533 278.515 361.025 277.685 359.438C276.854 357.851 275.814 356.8 280.386 357.43C284.957 358.061 294.941 360.962 294.941 360.962L302.813 362.633L294.994 359.301C294.994 359.301 279.608 357.441 282.519 352.659H291.252C296.2 352.878 301.121 353.503 305.966 354.53C308.509 355.308 325.324 365.754 325.324 365.754" stroke="#263238" stroke-linecap="round" stroke-linejoin="round"/>
<path d="M289.383 377.221L304.738 379.48" stroke="#263238" stroke-linecap="round" stroke-linejoin="round"/>
<path d="M136.322 424.24L174.808 435.8L245.222 419.731C245.222 419.731 202.217 407.519 201.817 407.824C201.418 408.129 136.322 424.24 136.322 424.24Z" fill="#FFDC00"/>
<path opacity="0.3" d="M136.322 424.24L174.808 435.8L245.222 419.731C245.222 419.731 202.217 407.519 201.817 407.824C201.418 408.129 136.322 424.24 136.322 424.24Z" fill="black" fill-opacity="0.7"/>
<path d="M136.322 424.24L174.808 435.8L245.222 419.731C245.222 419.731 202.217 407.519 201.817 407.824C201.418 408.129 136.322 424.24 136.322 424.24Z" stroke="#263238" stroke-linecap="round" stroke-linejoin="round"/>
<path d="M136.878 410.683C134.177 410.872 133.505 420.604 136.321 424.24L198.496 411.335L203.477 399.543L136.878 410.683Z" fill="#FFDC00"/>
<path opacity="0.3" d="M136.878 410.683C134.177 410.872 133.505 420.604 136.321 424.24L198.496 411.335L203.477 399.543L136.878 410.683Z" fill="black" fill-opacity="0.7"/>
<path d="M136.878 410.683C134.177 410.872 133.505 420.604 136.321 424.24L198.496 411.335L203.477 399.543L136.878 410.683Z" stroke="#263238" stroke-linecap="round" stroke-linejoin="round"/>
<path d="M242.205 410.547C242.205 410.547 241.28 415.665 241.879 418.818L174.734 434.014L139.337 423.589C139.337 423.589 135.659 417.084 138.865 412.028L203.54 401.046L242.205 410.547Z" fill="white" stroke="#263238" stroke-linecap="round" stroke-linejoin="round"/>
<path d="M136.878 410.683L203.478 399.543L244.833 410.021L175.28 423.883L136.878 410.683Z" fill="#FFDC00" stroke="#263238" stroke-linecap="round" stroke-linejoin="round"/>
<path d="M139.243 416.904L174.461 427.393L232.106 415.79" stroke="#263238" stroke-linecap="round" stroke-linejoin="round"/>
<path d="M241.691 416.862L179.705 430.083" stroke="#263238" stroke-linecap="round" stroke-linejoin="round"/>
<path d="M140.073 421.034C140.609 421.087 166.62 429.095 166.62 429.095" stroke="#263238" stroke-linecap="round" stroke-linejoin="round"/>
<path d="M236.625 414.434L241.554 413.636" stroke="#263238" stroke-linecap="round" stroke-linejoin="round"/>
<path d="M173.314 431.04L170.697 430.451" stroke="#263238" stroke-linecap="round" stroke-linejoin="round"/>
<path d="M138.864 412.027C140.243 413.615 141.04 415.624 141.126 417.725C141.212 419.825 140.581 421.893 139.337 423.588C138.186 421.898 137.531 419.919 137.448 417.875C137.364 415.832 137.855 413.806 138.864 412.027Z" fill="#263238"/>
<path opacity="0.3" d="M138.864 412.027C140.243 413.615 141.04 415.624 141.126 417.725C141.212 419.825 140.581 421.893 139.337 423.588C138.186 421.898 137.531 419.919 137.448 417.875C137.364 415.832 137.855 413.806 138.864 412.027Z" fill="white" fill-opacity="0.7"/>
<path d="M138.864 412.027C140.243 413.615 141.04 415.624 141.126 417.725C141.212 419.825 140.581 421.893 139.337 423.588C138.186 421.898 137.531 419.919 137.448 417.875C137.364 415.832 137.855 413.806 138.864 412.027Z" stroke="#263238" stroke-linecap="round" stroke-linejoin="round"/>
<path d="M282.709 427.394L349.918 430.147L343.371 453.279L260.692 450.126L282.709 427.394Z" fill="white"/>
<path opacity="0.4" d="M282.709 427.394L349.918 430.147L343.371 453.279L260.692 450.126L282.709 427.394Z" fill="#FFDC00"/>
<path d="M282.709 427.394L349.918 430.147L343.371 453.279L260.692 450.126L282.709 427.394Z" stroke="#263238" stroke-linecap="round" stroke-linejoin="round"/>
</svg>
