<svg width="102" height="102" viewBox="0 0 102 102" fill="none" xmlns="http://www.w3.org/2000/svg" role="img" focusable="false">
<title>Icon for matplotlib visualization tool</title>
<path d="M51 101C78.6142 101 101 78.6142 101 51C101 23.3858 78.6142 1 51 1C23.3858 1 1 23.3858 1 51C1 78.6142 23.3858 101 51 101Z" fill="white" stroke="#808080" stroke-width="2"/>
<path d="M51 88.5C71.7107 88.5 88.5 71.7107 88.5 51C88.5 30.2893 71.7107 13.5 51 13.5C30.2893 13.5 13.5 30.2893 13.5 51C13.5 71.7107 30.2893 88.5 51 88.5Z" fill="white" stroke="#808080" stroke-width="2"/>
<path d="M51 76C64.8071 76 76 64.8071 76 51C76 37.1929 64.8071 26 51 26C37.1929 26 26 37.1929 26 51C26 64.8071 37.1929 76 51 76Z" fill="white" stroke="#808080" stroke-width="2"/>
<path d="M51 63.5C57.9036 63.5 63.5 57.9036 63.5 51C63.5 44.0964 57.9036 38.5 51 38.5C44.0964 38.5 38.5 44.0964 38.5 51C38.5 57.9036 44.0964 63.5 51 63.5Z" fill="white" stroke="#808080" stroke-width="2"/>
<path d="M51 1V101V1ZM86.2273 86.2273L15.7727 15.7727L86.2273 86.2273ZM86.2273 15.7727L15.7727 86.2273L86.2273 15.7727ZM101 51H1Z" fill="white"/>
<path d="M101 51H1M51 1V101V1ZM86.2273 86.2273L15.7727 15.7727L86.2273 86.2273ZM86.2273 15.7727L15.7727 86.2273L86.2273 15.7727Z" stroke="#808080" stroke-width="2"/>
<path opacity="0.8" d="M51 51.0001H61.2273C61.3594 50.0577 61.3594 49.1015 61.2273 48.1592L51 51.0001Z" fill="#4444CC" stroke="#808080"/>
<path opacity="0.8" d="M51 51.0002L70.3182 26.5684C67.73 24.6207 64.8548 23.0872 61.7955 22.0229L51 51.0002Z" fill="#BBCC33" stroke="#808080"/>
<path opacity="0.8" d="M51 50.9999L41.909 10.0908C35.4493 11.507 29.4147 14.427 24.2954 18.6135L51 50.9999Z" fill="#DD9933" stroke="#808080"/>
<path opacity="0.8" d="M50.9999 50.9999L18.0454 35.0908C14.8335 42.0068 13.8411 49.7474 15.2045 57.2499L50.9999 50.9999Z" fill="#DDBB33" stroke="#808080"/>
<path opacity="0.8" d="M51 51L32.25 60.0909C32.5593 61.0642 32.9391 62.0137 33.3864 62.9318L51 51Z" fill="#33BBBB" stroke="#808080"/>
<path opacity="0.8" d="M50.9999 51L45.3181 76.5682C48.6939 77.2417 52.1696 77.2417 55.5454 76.5682L50.9999 51Z" fill="#33CC99" stroke="#808080"/>
<path opacity="0.8" d="M51 51L77.1364 83.9545C79.663 81.9508 81.9508 79.663 83.9545 77.1364L51 51Z" fill="#DD7733" stroke="#808080"/>
</svg>
