<svg width="45" height="100" viewBox="0 0 45 100" fill="none" xmlns="http://www.w3.org/2000/svg" role="img" focusable="false">
<title>Mongo database</title>
<path d="M44.0864 39.7956C38.8182 16.5548 27.8378 10.3678 25.0368 5.99429C23.8818 4.06763 22.8586 2.06495 21.9743 0C21.8263 2.06462 21.5545 3.36534 19.7995 4.93101C16.2759 8.07268 1.31084 20.2677 0.0514186 46.6742C-1.12198 71.2949 18.1513 86.4767 20.6976 88.0458C22.6556 89.0093 25.0402 88.0665 26.2033 87.1821C35.4941 80.8059 48.1881 63.8072 44.0967 39.7956" fill="#10AA50"/>
<path d="M22.7726 74.9355C22.2874 81.0296 21.9399 84.5704 20.708 88.0528C20.708 88.0528 21.5167 93.8544 22.0844 100H24.094C24.5733 95.6723 25.3052 91.3763 26.2859 87.134C23.6845 85.854 22.8724 80.2829 22.7726 74.9355Z" fill="#B8C4C2"/>
<path d="M26.2824 87.1373C23.6535 85.9226 22.893 80.2346 22.776 74.9354C23.4261 66.194 23.6157 57.4244 23.3438 48.6631C23.2061 44.0658 23.4092 6.08367 22.2117 0.522949C23.0308 2.40631 23.9746 4.23296 25.0368 5.99076C27.8378 10.3678 38.8216 16.5547 44.0863 39.7955C48.1881 63.7658 35.5629 80.7198 26.2824 87.1373Z" fill="#12924F"/>
</svg>
