<svg width="100" height="62" viewBox="0 0 100 62" fill="none" xmlns="http://www.w3.org/2000/svg" role="img" focusable="false">
<title>Link to pug (javascript html template engine)</title>
<path d="M83.9774 19.5494C83.7917 16.1995 84.7238 13.0317 83.231 10.4283C79.5061 3.91059 70.1993 0.18928 51.5784 0.18928V0V0.185707C31.0969 0.185707 22.3471 3.9106 18.6258 10.4247C17.3606 13.2918 16.7868 16.4162 16.9509 19.5458C16.2635 22.4099 15.9502 25.351 16.0188 28.2956C16.5759 32.3919 16.9509 36.4882 17.508 40.2095C18.0651 43.3737 22.5364 45.7951 23.0935 48.7807C24.2114 56.7876 31.2862 60.5089 51.7641 60.5089V61.441H51.407V60.5089C70.0243 60.5089 77.8348 56.784 78.9633 48.7807C79.3204 45.8022 83.0596 43.3808 83.606 40.2095C84.1631 36.4846 84.3524 32.3883 84.9095 28.2956C84.9055 25.3556 84.593 22.4242 83.9774 19.5494V19.5494Z" fill="#EFCCA3"/>
<path d="M50.6498 22.5278C53.6957 22.8063 56.5076 24.279 58.471 26.6241C61.0781 28.8598 65.3601 30.349 67.2208 32.3954C69.4863 34.2737 71.2201 36.713 72.2492 39.4702C72.9611 42.0807 73.3367 44.7714 73.367 47.4771C73.367 48.4092 73.9241 48.2235 75.4134 47.4771C78.3631 45.6766 81.0039 43.4132 83.2346 40.7737C82.6774 43.9379 78.7668 46.7307 78.3954 49.702C77.2776 57.7089 69.4671 61.6159 50.282 61.6159H51.3998" fill="#CCAC8D"/>
<path d="M62.5673 16.1995C63.3137 18.6209 65.7315 26.9992 60.8923 24.2064C62.6575 25.5933 63.8501 27.5817 64.2422 29.792C64.4761 30.9772 65.0337 32.0745 65.8532 32.9621C66.6727 33.8497 67.7221 34.4929 68.885 34.8204C72.1007 35.2972 75.3753 34.4946 78.0061 32.5848C79.5501 31.1052 80.6083 29.1915 81.0407 27.0972C81.4731 25.0029 81.2593 22.8266 80.4275 20.8565C79.861 19.2524 78.8356 17.8502 77.4787 16.8241C76.1218 15.798 74.4933 15.1933 72.7955 15.0853C69.2849 14.1496 61.8209 13.4068 62.5673 16.1995V16.1995Z" fill="#CCAC8D"/>
<path d="M72.0634 32.0238C75.8681 32.0238 78.9525 28.9394 78.9525 25.1347C78.9525 21.33 75.8681 18.2456 72.0634 18.2456C68.2587 18.2456 65.1743 21.33 65.1743 25.1347C65.1743 28.9394 68.2587 32.0238 72.0634 32.0238Z" fill="black"/>
<path d="M70.1993 23.8312C71.2269 23.8312 72.0599 22.9981 72.0599 21.9705C72.0599 20.9429 71.2269 20.1099 70.1993 20.1099C69.1717 20.1099 68.3386 20.9429 68.3386 21.9705C68.3386 22.9981 69.1717 23.8312 70.1993 23.8312Z" fill="white"/>
<path d="M61.4495 24.7632C64.9524 27.2207 68.1963 30.0279 71.1314 33.1415C74.4813 37.4271 74.4813 38.1699 74.4813 38.1699L72.0599 39.2877C70.2498 35.7553 67.6357 32.6972 64.428 30.3594C60.1424 27.9381 59.5889 25.8917 59.5889 25.8917L61.4495 24.7632Z" fill="#EFCCA3"/>
<path d="M50.8392 22.5278C47.6327 22.7982 44.6436 24.2596 42.4609 26.6241C39.8538 28.8598 35.2004 30.349 33.5326 32.3954C31.21 34.2612 29.413 36.6994 28.3185 39.4702C27.6066 42.0807 27.2309 44.7714 27.2006 47.4771C27.2006 48.4092 27.3863 48.5949 24.965 47.4771C21.972 45.7368 19.3216 43.4651 17.1438 40.7737C17.7009 43.9379 21.6115 46.7307 21.9829 49.702C23.1008 57.5232 30.9112 61.4302 50.0964 61.4302H51.3999" fill="#CCAC8D"/>
<path d="M68.7101 35.3739C66.574 32.54 63.8212 30.2291 60.6601 28.616C57.499 27.003 54.0125 26.1301 50.4643 26.0635C46.9203 26.1524 43.4415 27.035 40.2838 28.6463C37.1261 30.2576 34.37 32.5565 32.2184 35.3739C30.7852 36.8662 29.7063 38.6618 29.0615 40.6278C28.4167 42.5937 28.2226 44.6795 28.4935 46.7307C28.4935 63.3016 34.2647 58.2732 38.1753 60.3232C42.0699 61.6226 46.2119 62.0052 50.2785 61.441C54.345 62.0138 58.489 61.6311 62.3818 60.3232C66.2924 58.2768 72.0636 63.3016 72.0636 46.7307C72.5253 44.709 72.4594 42.6026 71.8721 40.6137C71.2849 38.6249 70.196 36.8205 68.7101 35.3739V35.3739Z" fill="#56332B"/>
<path d="M50.0929 30.7207C49.9525 33.8232 49.389 36.8919 48.418 39.8419L50.4643 39.2847L50.0929 30.7207Z" fill="#442823"/>
<path d="M50.6497 30.7207C50.7901 33.8232 51.3537 36.8919 52.3247 39.8419L50.2783 39.2847L50.6497 30.7207Z" fill="#442823"/>
<path d="M44.1357 28.8596C43.3893 26.999 46.1821 24.0205 50.6534 24.0205C55.1247 24.0205 57.9139 26.999 57.171 28.8596C56.4282 30.7203 53.4462 31.281 50.6534 31.281C47.6713 31.2774 44.8786 30.7203 44.1357 28.8596Z" fill="#56332B"/>
<path d="M50.65 30.7203C50.65 30.3632 53.2571 30.3632 54.7463 29.4168C54.7463 29.4168 51.7678 30.3489 51.2071 29.9739C50.822 29.6331 50.5597 29.1751 50.4607 28.6704C50.3617 29.1751 50.0994 29.6331 49.7143 29.9739C49.1572 30.3311 45.8037 29.4168 45.8037 29.4168C47.2639 29.7393 48.6968 30.1751 50.0893 30.7203V32.2096C49.9727 34.6356 50.0924 37.0672 50.4464 39.4701C51.0036 40.2165 50.8036 34.256 50.8036 32.2096C50.6721 31.7248 50.6203 31.2218 50.65 30.7203V30.7203Z" fill="black"/>
<path d="M50.65 41.3305C52.7545 41.6113 54.7464 42.447 56.4212 43.7519C54.9651 41.8648 52.9424 40.4942 50.65 39.8413C48.021 40.4118 45.698 41.9393 44.1323 44.1269C45.9677 42.5501 48.2425 41.5741 50.65 41.3305V41.3305Z" fill="#7F4A41"/>
<path d="M50.2785 55.0987C47.3579 54.9374 44.4737 54.3738 41.7073 53.4237C41.1502 53.238 40.5895 53.6094 40.0323 53.4237C35.533 52.1489 31.5557 49.4761 28.6755 45.7918V46.5382C28.6755 63.1092 34.4468 58.0807 38.3574 60.1307C42.2519 61.4301 46.3939 61.8127 50.4606 61.2485C54.5271 61.8213 58.671 61.4386 62.5638 60.1307C66.4744 58.0843 72.2457 63.1092 72.2457 46.5382V44.8633C69.4899 48.9106 65.4136 51.8748 60.7139 53.2487C60.1567 53.4345 59.2246 53.063 58.6675 53.063C56.0093 54.2198 53.1712 54.9085 50.2785 55.0987V55.0987Z" fill="#442823"/>
<path d="M42.6465 46.1699C42.6465 46.1699 40.6002 52.1269 42.0894 54.7411L40.2288 53.9947C40.8395 51.3301 41.6477 48.7146 42.6465 46.1699V46.1699Z" fill="#442823"/>
<path d="M58.2854 46.1699C58.2854 46.1699 60.3318 52.1269 58.8425 54.7411L60.7139 53.9947C60.1891 51.3065 59.3748 48.6829 58.2854 46.1699V46.1699Z" fill="#442823"/>
<path d="M37.8039 16.1994C37.0575 18.6208 34.6397 26.9991 39.4789 24.2063C37.7137 25.5932 36.5211 27.5816 36.129 29.7919C35.8951 30.9771 35.3375 32.0744 34.518 32.962C33.6985 33.8496 32.6491 34.4928 31.4862 34.8203C28.2677 35.305 24.9874 34.5074 22.3508 32.5989C20.8068 31.1193 19.7486 29.2057 19.3162 27.1114C18.8838 25.0171 19.0977 22.8408 19.9294 20.8707C20.4959 19.2666 21.5213 17.8643 22.8782 16.8383C24.2351 15.8122 25.8636 15.2075 27.5614 15.0995C31.1041 14.1495 38.5503 13.4067 37.8039 16.1994Z" fill="#CCAC8D"/>
<path d="M50.4641 39.8412C52.7718 40.4909 54.835 41.8105 56.3925 43.6331C57.95 45.4557 58.9319 47.6994 59.2138 50.0802V49.723C59.1551 47.2503 58.2569 44.8711 56.6667 42.9766C55.0766 41.082 52.8892 39.7849 50.4641 39.2983C48.0238 39.7533 45.8172 41.0415 44.2213 42.9429C42.6255 44.8443 41.7393 47.2408 41.7144 49.723V50.0802C42.0274 47.7105 43.0204 45.4823 44.5732 43.6652C46.1261 41.848 48.1722 40.5198 50.4641 39.8412Z" fill="black"/>
<path d="M52.2288 28.8162C52.5268 28.7394 52.6433 28.1925 52.4892 27.5947C52.335 26.9969 51.9685 26.5746 51.6706 26.6514C51.3726 26.7282 51.2561 27.2751 51.4102 27.8729C51.5644 28.4707 51.9309 28.8931 52.2288 28.8162Z" fill="#331712"/>
<path d="M49.1381 27.9319C49.321 27.3423 49.2311 26.7904 48.9372 26.6992C48.6433 26.6081 48.2568 27.0122 48.0739 27.6018C47.891 28.1914 47.9809 28.7433 48.2748 28.8345C48.5687 28.9257 48.9552 28.5216 49.1381 27.9319Z" fill="#331712"/>
<path d="M28.6828 32.0238C32.4875 32.0238 35.5719 28.9394 35.5719 25.1347C35.5719 21.33 32.4875 18.2456 28.6828 18.2456C24.878 18.2456 21.7937 21.33 21.7937 25.1347C21.7937 28.9394 24.878 32.0238 28.6828 32.0238Z" fill="black"/>
<path d="M30.5433 23.8312C31.5709 23.8312 32.4039 22.9981 32.4039 21.9705C32.4039 20.9429 31.5709 20.1099 30.5433 20.1099C29.5157 20.1099 28.6826 20.9429 28.6826 21.9705C28.6826 22.9981 29.5157 23.8312 30.5433 23.8312Z" fill="white"/>
<path d="M52.4996 25.1348C52.4996 25.1348 50.639 25.8812 50.264 26.0669C49.4798 25.8595 48.7276 25.5459 48.0283 25.1348H52.4996Z" fill="#7F4A41"/>
<path d="M38.929 24.7632C35.4261 27.2207 32.1822 30.0279 29.2471 33.1415C25.8972 37.4271 25.8972 38.1699 25.8972 38.1699L28.3186 39.2877C30.1287 35.7553 32.7428 32.6972 35.9505 30.3594C40.2361 27.9381 40.7896 25.8917 40.7896 25.8917L38.929 24.7632Z" fill="#EFCCA3"/>
<path d="M25.329 12.2886C24.0315 15.7236 21.6014 18.6135 18.4399 20.4812C20.4145 20.2472 22.2258 19.2699 23.5055 17.748C24.7852 16.2261 25.4373 14.274 25.329 12.2886V12.2886Z" fill="#CCAC8D"/>
<path d="M74.6705 12.2886C75.968 15.7236 78.3981 18.6135 81.5596 20.4812C79.585 20.2472 77.7737 19.2699 76.494 17.748C75.2143 16.2261 74.5623 14.274 74.6705 12.2886Z" fill="#CCAC8D"/>
<path d="M61.8209 23.0846C58.8282 20.2216 54.9584 18.4502 50.8356 18.0562H51.3927C49.3308 18.0313 47.2897 18.4703 45.4203 19.3407C43.551 20.2111 41.9012 21.4906 40.593 23.0846C43.6656 20.6528 47.4743 19.3392 51.3927 19.3597C55.143 19.6293 58.7486 20.9172 61.8209 23.0846V23.0846Z" fill="#CCAC8D"/>
<path d="M56.2354 12.8455C54.8727 11.0531 52.8728 9.85362 50.6498 9.49561H51.207C50.0926 9.53331 49.0076 9.86246 48.0602 10.4502C47.1127 11.038 46.3359 11.8639 45.8071 12.8455C47.2198 11.3613 49.1591 10.4917 51.207 10.4241C52.1691 10.4468 53.1154 10.6745 53.9825 11.092C54.8497 11.5096 55.6177 12.1074 56.2354 12.8455V12.8455Z" fill="#CCAC8D"/>
<path d="M28.6826 37.0484C26.7313 38.0537 24.4822 38.3188 22.3506 37.7949H21.6078C20.1336 36.276 19.0481 34.4235 18.4436 32.395C19.217 34.3444 20.7157 35.9183 22.6249 36.786C24.5342 37.6537 26.7054 37.7478 28.6826 37.0484Z" fill="#CCAC8D"/>
<path d="M71.8779 37.0484C73.8292 38.0537 76.0783 38.3188 78.2099 37.7949H77.4635C78.5588 37.356 79.5074 36.616 80.1995 35.6603C80.8916 34.7047 81.2988 33.5726 81.3741 32.395C81.0878 33.3455 80.6086 34.2266 79.9662 34.9833C79.3239 35.74 78.5323 36.3561 77.6409 36.7929C76.7496 37.2296 75.7777 37.4778 74.7861 37.5218C73.7945 37.5657 72.8044 37.4046 71.8779 37.0484V37.0484Z" fill="#CCAC8D"/>
<path d="M32.9646 11.9173C35.6238 11.3951 38.3694 11.5176 40.9715 12.2745C44.3214 13.3923 41.7179 17.86 42.275 18.0457C43.3483 17.068 44.6173 16.3298 45.9979 15.8803C47.3784 15.4308 48.8388 15.2803 50.2819 15.4387C56.6139 15.7958 57.3567 18.6028 58.2888 18.0457C59.221 17.6886 57.3567 10.2245 67.0386 11.903C67.0386 11.903 57.171 9.29598 57.5424 16.3708C55.5048 15.0395 53.1371 14.3011 50.704 14.238C48.2709 14.175 45.8681 14.7897 43.7643 16.0136C43.7643 16.0136 45.8106 9.12456 32.9646 11.9173V11.9173Z" fill="#CCAC8D"/>
<path d="M30.3576 2.24268C30.3576 2.24268 21.7865 12.8566 20.6758 16.9494C19.3722 21.0457 18.4401 38.1737 17.3259 40.5951L13.4153 23.8313L20.6758 6.33184L30.3576 2.24268Z" fill="#CCAC8D"/>
<path d="M70.1992 2.24268C70.1992 2.24268 78.7704 12.8566 79.8811 16.9494C81.1846 21.0457 82.1167 38.1737 83.231 40.5951L87.1416 23.8313L79.8811 6.33184L70.1992 2.24268Z" fill="#CCAC8D"/>
<path d="M69.6422 2.24279C74.8387 6.65774 78.8669 12.2855 81.3704 18.628C83.9775 27.3777 82.8597 38.1774 84.9096 39.481C87.8881 41.3416 91.0523 30.1705 92.1701 29.0563C93.845 27.1956 99.6163 22.3529 99.9913 21.4244C100.366 20.4958 88.4488 7.46049 83.0489 4.85342C77.0884 1.86065 69.2851 1.48924 69.6422 2.24279Z" fill="#56332B"/>
<path d="M77.4634 6.88525C84.0551 15.8718 87.757 26.6511 88.0773 37.7915L92.3629 29.0417C89.1498 20.6173 84.0535 13.0387 77.4634 6.88525V6.88525Z" fill="#442823"/>
<path d="M30.3577 2.24279C25.1612 6.65774 21.133 12.2855 18.6295 18.628C16.0225 27.3777 17.1403 38.1774 15.0903 39.481C12.1119 41.3416 8.94766 30.1705 7.82984 29.0563C6.15489 27.1956 0.383636 22.3529 0.00864736 21.4244C-0.366341 20.4958 11.5512 7.46049 16.951 4.85342C22.9115 1.86065 30.7149 1.48924 30.3577 2.24279Z" fill="#56332B"/>
<path d="M22.5365 6.88525C15.9447 15.8718 12.2428 26.6511 11.9225 37.7915L7.64404 29.0274C10.857 20.6088 15.9507 13.0354 22.5365 6.88525V6.88525Z" fill="#442823"/>
<path d="M16.5796 37.981C16.8741 39.9629 17.5705 41.8636 18.626 43.5666C19.9295 44.8701 18.9831 42.4488 18.9831 42.4488C18.9831 42.4488 17.6796 41.7024 17.8653 36.3061C18.051 30.9098 16.5796 37.981 16.5796 37.981V37.981Z" fill="#CCAC8D"/>
<path d="M83.606 37.9807C83.3115 39.9625 82.6151 41.8632 81.5596 43.5662C80.2561 44.8697 81.2025 42.4484 81.2025 42.4484C81.2025 42.4484 82.506 41.702 82.3203 36.3057C82.1167 31.0916 83.606 37.9807 83.606 37.9807V37.9807Z" fill="#CCAC8D"/>
<path d="M42.4607 35.374C42.7684 35.374 43.0178 35.1246 43.0178 34.8169C43.0178 34.5092 42.7684 34.2598 42.4607 34.2598C42.153 34.2598 41.9036 34.5092 41.9036 34.8169C41.9036 35.1246 42.153 35.374 42.4607 35.374Z" fill="#442823"/>
<path d="M38.7358 39.2847C39.0435 39.2847 39.293 39.0352 39.293 38.7275C39.293 38.4198 39.0435 38.1704 38.7358 38.1704C38.4281 38.1704 38.1787 38.4198 38.1787 38.7275C38.1787 39.0352 38.4281 39.2847 38.7358 39.2847Z" fill="#442823"/>
<path d="M37.6182 35.374C37.9259 35.374 38.1753 35.1246 38.1753 34.8169C38.1753 34.5092 37.9259 34.2598 37.6182 34.2598C37.3105 34.2598 37.061 34.5092 37.061 34.8169C37.061 35.1246 37.3105 35.374 37.6182 35.374Z" fill="#442823"/>
<path d="M57.728 35.374C58.0357 35.374 58.2852 35.1246 58.2852 34.8169C58.2852 34.5092 58.0357 34.2598 57.728 34.2598C57.4203 34.2598 57.1709 34.5092 57.1709 34.8169C57.1709 35.1246 57.4203 35.374 57.728 35.374Z" fill="#442823"/>
<path d="M61.2637 39.2847C61.5714 39.2847 61.8208 39.0352 61.8208 38.7275C61.8208 38.4198 61.5714 38.1704 61.2637 38.1704C60.956 38.1704 60.7065 38.4198 60.7065 38.7275C60.7065 39.0352 60.956 39.2847 61.2637 39.2847Z" fill="#442823"/>
<path d="M62.3818 35.374C62.6895 35.374 62.939 35.1246 62.939 34.8169C62.939 34.5092 62.6895 34.2598 62.3818 34.2598C62.0741 34.2598 61.8247 34.5092 61.8247 34.8169C61.8247 35.1246 62.0741 35.374 62.3818 35.374Z" fill="#442823"/>
</svg>
