<svg width="100" height="100" viewBox="0 0 100 100" fill="none" xmlns="http://www.w3.org/2000/svg" role="img" focusable="false">
<title>Python programming language</title>
<path d="M48.7915 1.04263C23.8423 1.04263 25.4201 11.9487 25.4201 11.9487V23.281H49.1464V26.8335H15.971C15.971 26.8335 0 24.8441 0 50.4395C0 76.035 14.1016 74.9941 14.1016 74.9941H22.2434V63.0543C22.2434 63.0543 21.7866 48.7983 35.9479 48.7983H59.7094C59.7094 48.7983 72.9641 49.0114 72.9641 35.8247V14.1867C72.9641 14.1867 74.9741 1 48.9215 1L48.7915 1.04263ZM35.6773 8.63423C36.5208 8.61271 37.3517 8.84456 38.0648 9.30044C38.778 9.75632 39.3414 10.4158 39.6838 11.1954C40.0262 11.975 40.1323 12.8397 39.9885 13.6803C39.8448 14.5208 39.4577 15.2994 38.8763 15.9175C38.2948 16.5356 37.5451 16.9655 36.7219 17.1529C35.8988 17.3403 35.0392 17.2766 34.2518 16.9701C33.4644 16.6635 32.7846 16.1278 32.2984 15.4306C31.8122 14.7335 31.5414 13.9062 31.5203 13.0535V12.9824C31.5203 11.8386 31.9698 10.7417 32.7698 9.93291C33.5698 9.12412 34.6549 8.66975 35.7863 8.66975L35.6773 8.63423Z" fill="url(#paint0_linear_433:2)"/>
<path d="M50.519 99.9929C75.7662 99.9929 74.1696 89.051 74.1696 89.051V77.7539H50.1634V74.2013H83.8382C83.8382 74.2013 100 76.006 100 50.5591C100 25.1121 85.73 26.0038 85.73 26.0038H77.3842V37.7876C77.3842 37.7876 77.8465 52.0441 63.516 52.0441H39.46C39.46 52.0441 26.0363 51.8416 26.0363 65.0286V86.8129C26.0363 86.8129 24.0023 100 50.3661 100H50.5084L50.519 99.9929ZM63.7898 92.3656C62.9362 92.3871 62.0955 92.1552 61.3738 91.6993C60.6521 91.2434 60.082 90.584 59.7355 89.8043C59.389 89.0247 59.2817 88.1599 59.4271 87.3194C59.5726 86.4788 59.9643 85.7002 60.5527 85.0821C61.1411 84.464 61.8997 84.034 62.7327 83.8466C63.5657 83.6593 64.4356 83.7229 65.2324 84.0295C66.0292 84.336 66.7171 84.8718 67.2091 85.569C67.7011 86.2661 67.9751 87.0934 67.9965 87.9462V88.0528C67.9965 89.1966 67.5417 90.2936 66.7321 91.1024C65.9225 91.9112 64.8245 92.3656 63.6796 92.3656H63.7863H63.7898Z" fill="url(#paint1_linear_433:2)"/>
<defs>
<linearGradient id="paint0_linear_433:2" x1="9.72372" y1="10.7156" x2="56.9201" y2="57.2949" gradientUnits="userSpaceOnUse">
<stop stop-color="#387EB8"/>
<stop offset="1" stop-color="#366994"/>
</linearGradient>
<linearGradient id="paint1_linear_433:2" x1="38.2243" y1="41.5483" x2="92.1597" y2="88.6798" gradientUnits="userSpaceOnUse">
<stop stop-color="#FFE052"/>
<stop offset="1" stop-color="#FFC331"/>
</linearGradient>
</defs>
</svg>
