<svg width="100" height="89" viewBox="0 0 100 89" fill="none" xmlns="http://www.w3.org/2000/svg" role="img" focusable="false">
<title>Link to react (javascript framework)</title>
<path d="M50.0001 53.3303C54.9312 53.3303 58.9287 49.3328 58.9287 44.4017C58.9287 39.4706 54.9312 35.4731 50.0001 35.4731C45.069 35.4731 41.0715 39.4706 41.0715 44.4017C41.0715 49.3328 45.069 53.3303 50.0001 53.3303Z" fill="#00D8FF"/>
<path d="M50 64.8733C39.2683 65.1329 28.5636 63.6863 18.2857 60.5876C13.5379 59.0826 9.10977 56.7117 5.225 53.5947C3.74261 52.5299 2.50811 51.157 1.60622 49.5703C0.704331 47.9835 0.156392 46.2204 0 44.4019C0 38.4983 6.48571 32.7126 17.35 28.9269C27.9026 25.5724 38.9283 23.9467 50 24.1126C60.9239 23.96 71.8019 25.5563 82.2214 28.8412C86.7939 30.2989 91.0719 32.5552 94.8571 35.5055C96.3142 36.5206 97.5302 37.8438 98.4189 39.3812C99.3077 40.9186 99.8474 42.6326 100 44.4019C100 50.5376 92.75 56.7555 81.0714 60.6197C70.9926 63.6175 60.5137 65.052 50 64.8733V64.8733ZM50 28.384C39.4076 28.2424 28.8601 29.788 18.7536 32.9626C8.75357 36.4519 4.27143 41.2233 4.27143 44.3912C4.27143 47.7055 9.08929 52.9162 19.6679 56.534C29.5003 59.4835 39.7379 60.8565 50 60.6019C60.0586 60.7818 70.0854 59.4208 79.7321 56.5662C90.7143 52.9269 95.7143 47.709 95.7143 44.4019C95.5341 43.267 95.1205 42.1818 94.4996 41.2148C93.8788 40.2479 93.0641 39.4202 92.1071 38.784C88.7205 36.1667 84.8989 34.167 80.8179 32.8769C70.8501 29.7474 60.4463 28.2307 50 28.384V28.384Z" fill="#00D8FF"/>
<path d="M29.7142 88.9338C28.0481 88.972 26.4017 88.5678 24.9428 87.7624C19.8285 84.8124 18.057 76.3052 20.2035 65.0017C22.5701 54.1842 26.6706 43.8206 32.3463 34.3124C37.6704 24.7735 44.4863 16.1478 52.5356 8.76239C56.0826 5.52919 60.1744 2.95004 64.6213 1.14453C66.2298 0.390744 67.9843 0 69.7606 0C71.5369 0 73.2915 0.390744 74.8999 1.14453C80.2178 4.20882 81.9785 13.5945 79.4963 25.641C77.0567 35.8715 73.0626 45.6675 67.6535 54.6874C62.5168 64.1137 55.9155 72.6642 48.0963 80.0195C44.4206 83.3795 40.1547 86.0301 35.5142 87.8374C33.6564 88.5269 31.6955 88.8976 29.7142 88.9338V88.9338ZM36.0463 36.4338C30.6324 45.5386 26.7023 55.4471 24.4035 65.7874C22.4285 76.1981 24.3249 82.4588 27.082 84.0517C29.9392 85.7052 36.8749 84.1374 45.2963 76.7803C52.7607 69.7336 59.0614 61.5488 63.9642 52.5302C69.1461 43.9071 72.9774 34.5415 75.3249 24.7588C77.6606 13.4195 75.6428 6.47668 72.7785 4.82668C71.7049 4.41534 70.5578 4.23121 69.4094 4.28592C68.2611 4.34063 67.1366 4.633 66.107 5.14453C62.1488 6.77791 58.5097 9.09678 55.357 11.9945C47.6666 19.0688 41.1559 27.3264 36.0713 36.4552L36.0463 36.4338Z" fill="#00D8FF"/>
<path d="M70.275 88.9805C65.4357 88.9805 59.2893 86.0519 52.8893 80.5483C44.6989 73.0957 37.7678 64.3676 32.3643 54.7019C26.7598 45.3246 22.6917 35.111 20.3143 24.4483C19.2833 19.7572 19.0922 14.9204 19.75 10.1626C19.9021 8.39764 20.4395 6.68752 21.3244 5.15284C22.2093 3.61817 23.4201 2.29631 24.8714 1.28048C30.1822 -1.79452 39.1929 1.36619 48.3893 9.53048C56.0343 16.7526 62.5264 25.1044 67.6393 34.2948C73.2404 43.4531 77.3511 53.4431 79.8179 63.8912C80.8933 68.7544 81.0592 73.7747 80.3072 78.6983C80.1282 80.5141 79.5588 82.2696 78.6378 83.8447C77.7168 85.4197 76.4661 86.7769 74.9715 87.8233C73.5363 88.6188 71.9154 89.0181 70.275 88.9805V88.9805ZM36.0607 52.5519C41.2444 61.7892 47.8653 70.1425 55.675 77.2983C63.7072 84.209 70.0786 85.6948 72.8179 84.084C75.675 82.4233 77.7822 75.6448 75.6107 64.6769C73.2317 54.7017 69.2889 45.1659 63.9286 36.4233C59.0494 27.6273 52.8527 19.63 45.5536 12.709C36.8964 5.02333 29.875 3.30548 27.0143 4.96262C26.1227 5.6872 25.391 6.58877 24.8654 7.61043C24.3398 8.63208 24.0318 9.75161 23.9607 10.8983C23.3929 15.1415 23.5779 19.4516 24.5072 23.6305C26.794 33.8274 30.6955 43.5934 36.0643 52.559L36.0607 52.5519Z" fill="#00D8FF"/>
</svg>
