<svg width="104" height="104" viewBox="0 0 104 104" fill="none" xmlns="http://www.w3.org/2000/svg" focusable="false" role="img">
<title>Link to seaborn (data visualization tool)</title>
<mask id="mask0_514_11" style="mask-type:alpha" maskUnits="userSpaceOnUse" x="0" y="0" width="104" height="104">
<path d="M51.8076 102C65.0678 102 77.7866 96.7317 87.1629 87.3553C96.5393 77.979 101.808 65.2601 101.808 52C101.808 38.7398 96.5393 26.021 87.1629 16.6447C77.7866 7.26832 65.0678 2 51.8076 2C38.5475 2 25.8286 7.26832 16.4523 16.6447C7.07593 26.021 1.80762 38.7398 1.80762 52C1.80762 65.2601 7.07593 77.979 16.4523 87.3553C25.8286 96.7317 38.5475 102 51.8076 102Z" fill="white" stroke="white" stroke-width="3"/>
</mask>
<g mask="url(#mask0_514_11)">
<path d="M51.8076 102C65.0678 102 77.7866 96.7317 87.1629 87.3553C96.5393 77.979 101.808 65.2601 101.808 52C101.808 38.7398 96.5393 26.021 87.1629 16.6447C77.7866 7.26832 65.0678 2 51.8076 2C38.5475 2 25.8286 7.26832 16.4523 16.6447C7.07593 26.021 1.80762 38.7398 1.80762 52C1.80762 65.2601 7.07593 77.979 16.4523 87.3553C25.8286 96.7317 38.5475 102 51.8076 102Z" fill="white" stroke="white"/>
<path d="M-13.0071 64.6019V119.593H-11.1552H-9.30338H-7.45152H-5.59967H-3.74782H-1.89597H-0.0441163H1.80774H3.65959H5.51144H7.36329H9.21514H11.067H12.9188H14.7707H16.6225H18.4744H20.3263H22.1781H24.03H25.8818H27.7337H29.5855H31.4374H33.2892H35.1411H36.9929H38.8448H40.6966H42.5485H44.4003H46.2522H48.104H49.9559H51.8077H53.6596H55.5114H57.3633H59.2151H61.067H62.9188H64.7707H66.6226H68.4744H70.3263H72.1781H74.03H75.8818H77.7337H79.5855H81.4374H83.2892H85.1411H86.9929H88.8448H90.6966H92.5485H94.4003H96.2522H98.104H99.9559H101.808H103.66H105.511H107.363H109.215H111.067H112.919H114.771H116.623V68.699L114.771 68.5743L112.919 68.4314L111.067 68.2685L109.215 68.0836L107.363 67.8747L105.511 67.6398L103.66 67.3768L101.808 67.0838L99.9559 66.7589L98.104 66.4003L96.2522 66.0065L94.4003 65.5762L92.5485 65.1082L90.6966 64.6019L88.8448 64.0569L86.9929 63.4733L85.1411 62.8517L83.2892 62.1933L81.4374 61.4996L79.5855 60.7731L77.7337 60.0166L75.8818 59.2337L74.03 58.4284L72.1781 57.6056L70.3263 56.7706L68.4744 55.9293L66.6226 55.088L64.7707 54.2535L62.9188 53.4329L61.067 52.6336L59.2151 51.8628L57.3633 51.1283L55.5114 50.4372L53.6596 49.7967L51.8077 49.2137L49.9559 48.6944L48.104 48.2445L46.2522 47.8693L44.4003 47.5728L42.5485 47.3585L40.6966 47.2289L38.8448 47.1855L36.9929 47.2289L35.1411 47.3585L33.2892 47.5728L31.4374 47.8693L29.5855 48.2445L27.7337 48.6944L25.8818 49.2137L24.03 49.7967L22.1781 50.4372L20.3263 51.1283L18.4744 51.8628L16.6225 52.6336L14.7707 53.4329L12.9188 54.2535L11.067 55.088L9.21514 55.9293L7.36329 56.7706L5.51144 57.6056L3.65959 58.4284L1.80774 59.2337L-0.0441163 60.0166L-1.89597 60.7731L-3.74782 61.4996L-5.59967 62.1933L-7.45152 62.8517L-9.30338 63.4733L-11.1552 64.0569L-13.0071 64.6019Z" fill="#5C7DA2"/>
<path d="M-13.0071 46.6791V63.676L-11.1552 63.131L-9.30338 62.5474L-7.45152 61.9258L-5.59967 61.2674L-3.74782 60.5738L-1.89597 59.8473L-0.0441163 59.0908L1.80774 58.3078L3.65959 57.5026L5.51144 56.6798L7.36329 55.8448L9.21514 55.0034L11.067 54.1622L12.9188 53.3277L14.7707 52.5071L16.6225 51.7077L18.4744 50.937L20.3263 50.2024L22.1781 49.5113L24.03 48.8709L25.8818 48.2878L27.7337 47.7685L29.5855 47.3187L31.4374 46.9434L33.2892 46.6469L35.1411 46.4326L36.9929 46.303L38.8448 46.2597L40.6966 46.303L42.5485 46.4326L44.4003 46.6469L46.2522 46.9434L48.104 47.3187L49.9559 47.7685L51.8077 48.2878L53.6596 48.8709L55.5114 49.5113L57.3633 50.2024L59.2151 50.937L61.067 51.7077L62.9188 52.5071L64.7707 53.3277L66.6226 54.1622L68.4744 55.0034L70.3263 55.8448L72.1781 56.6798L74.03 57.5026L75.8818 58.3078L77.7337 59.0908L79.5855 59.8473L81.4374 60.5738L83.2892 61.2674L85.1411 61.9258L86.9929 62.5474L88.8448 63.131L90.6966 63.676L92.5485 64.1823L94.4003 64.6503L96.2522 65.0807L98.104 65.4744L99.9559 65.833L101.808 66.1579L103.66 66.4509L105.511 66.7139L107.363 66.9488L109.215 67.1577L111.067 67.3426L112.919 67.5055L114.771 67.6484L116.623 67.7731V41.2511L114.771 40.6295L112.919 39.9711L111.067 39.2775L109.215 38.551L107.363 37.7945L105.511 37.0115L103.66 36.2063L101.808 35.3835L99.9559 34.5485L98.104 33.7071L96.2522 32.8659L94.4003 32.0314L92.5485 31.2108L90.6966 30.4114L88.8448 29.6407L86.9929 28.9061L85.1411 28.215L83.2892 27.5746L81.4374 26.9915L79.5855 26.4722L77.7337 26.0224L75.8818 25.6471L74.03 25.3506L72.1781 25.1363L70.3263 25.0067L68.4744 24.9634L66.6226 25.0067L64.7707 25.1363L62.9188 25.3506L61.067 25.6471L59.2151 26.0224L57.3633 26.4722L55.5114 26.9915L53.6596 27.5746L51.8077 28.215L49.9559 28.9061L48.104 29.6407L46.2522 30.4114L44.4003 31.2108L42.5485 32.0314L40.6966 32.8659L38.8448 33.7071L36.9929 34.5485L35.1411 35.3835L33.2892 36.2063L31.4374 37.0115L29.5855 37.7945L27.7337 38.551L25.8818 39.2775L24.03 39.9711L22.1781 40.6295L20.3263 41.2511L18.4744 41.8347L16.6225 42.3797L14.7707 42.886L12.9188 43.354L11.067 43.7844L9.21514 44.1781L7.36329 44.5367L5.51144 44.8616L3.65959 45.1546L1.80774 45.4176L-0.0441163 45.6525L-1.89597 45.8614L-3.74782 46.0463L-5.59967 46.2092L-7.45152 46.3521L-9.30338 46.4768L-11.1552 46.5853L-13.0071 46.6791Z" fill="#7DB0BC"/>
<path d="M-1.896 120.519H9.21512V76.8335H-1.896V120.519Z" fill="#444876" stroke="white"/>
<path d="M9.21509 120.518H20.3262V68.8032H9.21509V120.518Z" fill="#444876" stroke="white"/>
<path d="M20.3262 120.518H31.4373V61.0645H20.3262V120.518Z" fill="#444876" stroke="white"/>
<path d="M31.4373 120.519H42.5484V59.6694H31.4373V120.519Z" fill="#444876" stroke="white"/>
<path d="M42.5486 120.519H53.6597V65.8794H42.5486V120.519Z" fill="#444876" stroke="white"/>
<path d="M53.6597 120.518H64.7708V74.4551H53.6597V120.518Z" fill="#444876" stroke="white"/>
<path d="M64.7708 120.518H75.8819V80.3213H64.7708V120.518Z" fill="#444876" stroke="white"/>
<path d="M75.8818 120.519H86.9929V82.7974H75.8818V120.519Z" fill="#444876" stroke="white"/>
<path d="M102.734 52.0001C102.734 45.3126 101.416 38.6901 98.8572 32.5116C96.298 26.3332 92.5466 20.7189 87.8178 15.9901C83.089 11.2613 77.4747 7.50993 71.2963 4.95072C65.1178 2.39152 58.4953 1.07422 51.8078 1.07422C45.1202 1.07422 38.4977 2.39152 32.3193 4.95072C26.1408 7.50993 20.5265 11.2613 15.7977 15.9901C11.0689 20.7189 7.31755 26.3332 4.75834 32.5116C2.19913 38.6901 0.881836 45.3126 0.881836 52.0001C0.881836 58.6877 2.19913 65.3102 4.75834 71.4886C7.31755 77.6671 11.0689 83.2814 15.7977 88.0102C20.5265 92.739 26.1408 96.4904 32.3193 99.0496C38.4977 101.609 45.1202 102.926 51.8078 102.926C58.4953 102.926 65.1178 101.609 71.2963 99.0496C77.4747 96.4904 83.089 92.739 87.8178 88.0102C92.5466 83.2814 96.298 77.6671 98.8572 71.4886C101.416 65.3102 102.734 58.6877 102.734 52.0001ZM101.808 52.0001C101.808 58.5661 100.514 65.0682 98.0017 71.1343C95.4891 77.2005 91.8059 82.7127 87.1631 87.3555C82.5203 91.9983 77.0081 95.6814 70.9419 98.1941C64.8758 100.707 58.3737 102 51.8078 102C45.2418 102 38.7397 100.707 32.6736 98.1941C26.6075 95.6814 21.0952 91.9983 16.4524 87.3555C11.8096 82.7127 8.12646 77.2005 5.61379 71.1343C3.10111 65.0682 1.80776 58.5661 1.80776 52.0001C1.80776 45.4342 3.10111 38.9321 5.61379 32.866C8.12646 26.7998 11.8096 21.2876 16.4524 16.6448C21.0952 12.002 26.6075 8.31884 32.6736 5.80617C38.7397 3.29349 45.2418 2.00014 51.8078 2.00014C58.3737 2.00014 64.8758 3.29349 70.9419 5.80617C77.0081 8.31884 82.5203 12.002 87.1631 16.6448C91.8059 21.2876 95.4891 26.7998 98.0017 32.866C100.514 38.9321 101.808 45.4342 101.808 52.0001Z" fill="#444876" stroke="#444876"/>
<path d="M101.733 51.8482C101.733 45.2721 100.438 38.76 97.921 32.6845C95.4045 26.609 91.7157 21.0882 87.0657 16.4383C82.4157 11.7883 76.895 8.09945 70.8195 5.58289C64.744 3.06634 58.2318 1.771 51.6558 1.771C45.0797 1.771 38.5676 3.06634 32.4921 5.58289C26.4166 8.09945 20.8959 11.7883 16.2459 16.4383C11.5959 21.0882 7.90706 26.609 5.39051 32.6845C2.87396 38.76 1.57861 45.2721 1.57861 51.8482C1.57861 58.4242 2.87396 64.9364 5.39051 71.0119C7.90706 77.0874 11.5959 82.6081 16.2459 87.2581C20.8959 91.908 26.4166 95.5969 32.4921 98.1134C38.5676 100.63 45.0797 101.925 51.6558 101.925C58.2318 101.925 64.744 100.63 70.8195 98.1134C76.895 95.5969 82.4157 91.908 87.0657 87.2581C91.7157 82.6081 95.4045 77.0874 97.921 71.0119C100.438 64.9364 101.733 58.4242 101.733 51.8482ZM100.822 51.8482C100.822 58.3047 99.5506 64.6984 97.0798 70.6634C94.609 76.6285 90.9873 82.0488 86.4219 86.6142C81.8564 91.1797 76.4361 94.8014 70.471 97.2722C64.506 99.743 58.1123 101.015 51.6558 101.015C45.1993 101.015 38.8055 99.743 32.8405 97.2722C26.8755 94.8014 21.4551 91.1797 16.8897 86.6142C12.3243 82.0488 8.7025 76.6285 6.2317 70.6634C3.7609 64.6984 2.48911 58.3047 2.48911 51.8482C2.48911 45.3916 3.7609 38.9979 6.2317 33.0329C8.7025 27.0679 12.3243 21.6475 16.8897 17.0821C21.4551 12.5166 26.8755 8.89488 32.8405 6.42408C38.8055 3.95328 45.1993 2.68149 51.6558 2.68149C58.1123 2.68149 64.506 3.95328 70.471 6.42408C76.4361 8.89488 81.8564 12.5166 86.4219 17.0821C90.9873 21.6475 94.609 27.0679 97.0798 33.0329C99.5506 38.9979 100.822 45.3916 100.822 51.8482Z" fill="white"/>
<path d="M40.9357 30.3426C41.4463 30.3426 41.936 30.1398 42.297 29.7787C42.6581 29.4177 42.8609 28.928 42.8609 28.4174C42.8609 27.9068 42.6581 27.4171 42.297 27.0561C41.936 26.695 41.4463 26.4922 40.9357 26.4922C40.4251 26.4922 39.9354 26.695 39.5744 27.0561C39.2134 27.4171 39.0105 27.9068 39.0105 28.4174C39.0105 28.928 39.2134 29.4177 39.5744 29.7787C39.9354 30.1398 40.4251 30.3426 40.9357 30.3426Z" fill="#AFDAD2"/>
<path d="M36.7899 33.2453C37.2844 33.2453 37.7587 33.0488 38.1083 32.6992C38.458 32.3495 38.6545 31.8752 38.6545 31.3807C38.6545 30.8862 38.458 30.4119 38.1083 30.0622C37.7587 29.7126 37.2844 29.5161 36.7899 29.5161C36.2954 29.5161 35.8211 29.7126 35.4714 30.0622C35.1218 30.4119 34.9253 30.8862 34.9253 31.3807C34.9253 31.8752 35.1218 32.3495 35.4714 32.6992C35.8211 33.0488 36.2954 33.2453 36.7899 33.2453Z" fill="#AFDAD2"/>
<path d="M32.8019 35.0926C33.2675 35.0926 33.7141 34.9077 34.0433 34.5784C34.3725 34.2492 34.5575 33.8027 34.5575 33.3371C34.5575 32.8715 34.3725 32.4249 34.0433 32.0957C33.7141 31.7665 33.2675 31.5815 32.8019 31.5815C32.3364 31.5815 31.8898 31.7665 31.5606 32.0957C31.2314 32.4249 31.0464 32.8715 31.0464 33.3371C31.0464 33.8027 31.2314 34.2492 31.5606 34.5784C31.8898 34.9077 32.3364 35.0926 32.8019 35.0926Z" fill="#AFDAD2"/>
<path d="M44.4327 28.0489C44.9584 28.0489 45.4626 27.8401 45.8343 27.4683C46.206 27.0966 46.4149 26.5924 46.4149 26.0667C46.4149 25.541 46.206 25.0368 45.8343 24.6651C45.4626 24.2933 44.9584 24.0845 44.4327 24.0845C43.907 24.0845 43.4027 24.2933 43.031 24.6651C42.6593 25.0368 42.4504 25.541 42.4504 26.0667C42.4504 26.5924 42.6593 27.0966 43.031 27.4683C43.4027 27.8401 43.907 28.0489 44.4327 28.0489Z" fill="#AFDAD2"/>
<path d="M29.81 30.929C30.1632 30.929 30.502 30.7887 30.7518 30.5389C31.0016 30.2891 31.1419 29.9503 31.1419 29.5971C31.1419 29.2438 31.0016 28.905 30.7518 28.6553C30.502 28.4055 30.1632 28.2651 29.81 28.2651C29.4567 28.2651 29.1179 28.4055 28.8681 28.6553C28.6184 28.905 28.478 29.2438 28.478 29.5971C28.478 29.9503 28.6184 30.2891 28.8681 30.5389C29.1179 30.7887 29.4567 30.929 29.81 30.929Z" fill="#AFDAD2"/>
<path d="M26.5209 38.2259C26.9406 38.2259 27.3431 38.0592 27.6398 37.7624C27.9366 37.4657 28.1033 37.0631 28.1033 36.6435C28.1033 36.2238 27.9366 35.8213 27.6398 35.5245C27.3431 35.2278 26.9406 35.061 26.5209 35.061C26.1012 35.061 25.6987 35.2278 25.402 35.5245C25.1052 35.8213 24.9385 36.2238 24.9385 36.6435C24.9385 37.0631 25.1052 37.4657 25.402 37.7624C25.6987 38.0592 26.1012 38.2259 26.5209 38.2259Z" fill="#AFDAD2"/>
<path d="M28.5337 25.6959C29.0394 25.6959 29.5245 25.495 29.882 25.1374C30.2396 24.7798 30.4405 24.2948 30.4405 23.7891C30.4405 23.2834 30.2396 22.7984 29.882 22.4408C29.5245 22.0832 29.0394 21.8823 28.5337 21.8823C28.0281 21.8823 27.543 22.0832 27.1854 22.4408C26.8279 22.7984 26.627 23.2834 26.627 23.7891C26.627 24.2948 26.8279 24.7798 27.1854 25.1374C27.543 25.495 28.0281 25.6959 28.5337 25.6959Z" fill="#AFDAD2"/>
<path d="M33.679 29.2643C34.0701 29.2643 34.4452 29.1089 34.7217 28.8323C34.9983 28.5558 35.1537 28.1807 35.1537 27.7896C35.1537 27.3985 34.9983 27.0234 34.7217 26.7469C34.4452 26.4703 34.0701 26.3149 33.679 26.3149C33.2879 26.3149 32.9128 26.4703 32.6363 26.7469C32.3597 27.0234 32.2043 27.3985 32.2043 27.7896C32.2043 28.1807 32.3597 28.5558 32.6363 28.8323C32.9128 29.1089 33.2879 29.2643 33.679 29.2643Z" fill="#AFDAD2"/>
<path d="M59.1097 24.8629C59.567 24.8629 60.0057 24.6812 60.329 24.3578C60.6524 24.0345 60.8341 23.5958 60.8341 23.1385C60.8341 22.6812 60.6524 22.2425 60.329 21.9191C60.0057 21.5958 59.567 21.4141 59.1097 21.4141C58.6524 21.4141 58.2137 21.5958 57.8903 21.9191C57.567 22.2425 57.3853 22.6812 57.3853 23.1385C57.3853 23.5958 57.567 24.0345 57.8903 24.3578C58.2137 24.6812 58.6524 24.8629 59.1097 24.8629Z" fill="#AFDAD2"/>
<path d="M22.941 34.0042C23.2183 34.0042 23.4842 33.894 23.6802 33.698C23.8762 33.502 23.9863 33.2361 23.9863 32.9589C23.9863 32.6816 23.8762 32.4158 23.6802 32.2197C23.4842 32.0237 23.2183 31.9136 22.941 31.9136C22.6638 31.9136 22.3979 32.0237 22.2019 32.2197C22.0059 32.4158 21.8958 32.6816 21.8958 32.9589C21.8958 33.2361 22.0059 33.502 22.2019 33.698C22.3979 33.894 22.6638 34.0042 22.941 34.0042Z" fill="#AFDAD2"/>
<path d="M26.4146 33.0197C26.7436 33.0197 27.0591 32.889 27.2917 32.6564C27.5243 32.4238 27.655 32.1083 27.655 31.7794C27.655 31.4504 27.5243 31.1349 27.2917 30.9023C27.0591 30.6698 26.7436 30.5391 26.4146 30.5391C26.0857 30.5391 25.7702 30.6698 25.5376 30.9023C25.305 31.1349 25.1743 31.4504 25.1743 31.7794C25.1743 32.1083 25.305 32.4238 25.5376 32.6564C25.7702 32.889 26.0857 33.0197 26.4146 33.0197Z" fill="#AFDAD2"/>
<path d="M20.0811 29.0895C20.5172 29.0895 20.9355 28.9162 21.2438 28.6078C21.5522 28.2995 21.7254 27.8812 21.7254 27.4451C21.7254 27.009 21.5522 26.5908 21.2438 26.2824C20.9355 25.974 20.5172 25.8008 20.0811 25.8008C19.645 25.8008 19.2267 25.974 18.9184 26.2824C18.61 26.5908 18.4368 27.009 18.4368 27.4451C18.4368 27.8812 18.61 28.2995 18.9184 28.6078C19.2267 28.9162 19.645 29.0895 20.0811 29.0895Z" fill="#AFDAD2"/>
<path d="M26.551 28.3648C26.7784 28.3648 26.9964 28.2744 27.1571 28.1137C27.3179 27.9529 27.4082 27.7349 27.4082 27.5076C27.4082 27.2802 27.3179 27.0622 27.1571 26.9015C26.9964 26.7407 26.7784 26.6504 26.551 26.6504C26.3237 26.6504 26.1057 26.7407 25.9449 26.9015C25.7842 27.0622 25.6938 27.2802 25.6938 27.5076C25.6938 27.7349 25.7842 27.9529 25.9449 28.1137C26.1057 28.2744 26.3237 28.3648 26.551 28.3648Z" fill="#AFDAD2"/>
<path d="M38.0285 27.0281C38.4529 27.0281 38.8599 26.8595 39.16 26.5594C39.4601 26.2593 39.6287 25.8523 39.6287 25.4279C39.6287 25.0035 39.4601 24.5964 39.16 24.2963C38.8599 23.9962 38.4529 23.8276 38.0285 23.8276C37.6041 23.8276 37.197 23.9962 36.8969 24.2963C36.5968 24.5964 36.4282 25.0035 36.4282 25.4279C36.4282 25.8523 36.5968 26.2593 36.8969 26.5594C37.197 26.8595 37.6041 27.0281 38.0285 27.0281Z" fill="#AFDAD2"/>
<path d="M50.186 27.9544C50.5522 27.9544 50.9035 27.8089 51.1625 27.5499C51.4215 27.291 51.567 26.9397 51.567 26.5734C51.567 26.2072 51.4215 25.8559 51.1625 25.5969C50.9035 25.3379 50.5522 25.1924 50.186 25.1924C49.8197 25.1924 49.4684 25.3379 49.2094 25.5969C48.9504 25.8559 48.8049 26.2072 48.8049 26.5734C48.8049 26.9397 48.9504 27.291 49.2094 27.5499C49.4684 27.8089 49.8197 27.9544 50.186 27.9544Z" fill="#AFDAD2"/>
<path d="M52.7139 19.338C52.9536 19.338 53.1835 19.2428 53.353 19.0733C53.5225 18.9038 53.6178 18.6738 53.6178 18.4341C53.6178 18.1944 53.5225 17.9645 53.353 17.795C53.1835 17.6255 52.9536 17.5303 52.7139 17.5303C52.4742 17.5303 52.2443 17.6255 52.0748 17.795C51.9053 17.9645 51.8101 18.1944 51.8101 18.4341C51.8101 18.6738 51.9053 18.9038 52.0748 19.0733C52.2443 19.2428 52.4742 19.338 52.7139 19.338Z" fill="#AFDAD2"/>
<path d="M55.6524 24.5412C56.053 24.5412 56.4372 24.382 56.7204 24.0988C57.0036 23.8156 57.1627 23.4314 57.1627 23.0308C57.1627 22.6303 57.0036 22.2461 56.7204 21.9629C56.4372 21.6796 56.053 21.5205 55.6524 21.5205C55.2519 21.5205 54.8677 21.6796 54.5845 21.9629C54.3012 22.2461 54.1421 22.6303 54.1421 23.0308C54.1421 23.4314 54.3012 23.8156 54.5845 24.0988C54.8677 24.382 55.2519 24.5412 55.6524 24.5412Z" fill="#AFDAD2"/>
<path d="M40.5639 23.6605C40.9755 23.6605 41.3702 23.497 41.6612 23.2059C41.9523 22.9149 42.1158 22.5201 42.1158 22.1086C42.1158 21.697 41.9523 21.3022 41.6612 21.0112C41.3702 20.7202 40.9755 20.5566 40.5639 20.5566C40.1523 20.5566 39.7575 20.7202 39.4665 21.0112C39.1755 21.3022 39.012 21.697 39.012 22.1086C39.012 22.5201 39.1755 22.9149 39.4665 23.2059C39.7575 23.497 40.1523 23.6605 40.5639 23.6605Z" fill="#AFDAD2"/>
<path d="M21.1226 38.5758C21.4566 38.5758 21.777 38.4431 22.0131 38.207C22.2493 37.9708 22.382 37.6504 22.382 37.3165C22.382 36.9825 22.2493 36.6621 22.0131 36.426C21.777 36.1898 21.4566 36.0571 21.1226 36.0571C20.7886 36.0571 20.4683 36.1898 20.2321 36.426C19.996 36.6621 19.8633 36.9825 19.8633 37.3165C19.8633 37.6504 19.996 37.9708 20.2321 38.207C20.4683 38.4431 20.7886 38.5758 21.1226 38.5758Z" fill="#AFDAD2"/>
<path d="M62.6016 25.1924C63.1102 25.1924 63.5981 24.9903 63.9578 24.6306C64.3174 24.2709 64.5195 23.7831 64.5195 23.2744C64.5195 22.7658 64.3174 22.2779 63.9578 21.9182C63.5981 21.5585 63.1102 21.3564 62.6016 21.3564C62.0929 21.3564 61.605 21.5585 61.2453 21.9182C60.8857 22.2779 60.6836 22.7658 60.6836 23.2744C60.6836 23.7831 60.8857 24.2709 61.2453 24.6306C61.605 24.9903 62.0929 25.1924 62.6016 25.1924Z" fill="#AFDAD2"/>
<path d="M44.0947 23.8935C44.5616 23.8935 45.0094 23.708 45.3395 23.3779C45.6697 23.0477 45.8552 22.5999 45.8552 22.133C45.8552 21.6661 45.6697 21.2183 45.3395 20.8882C45.0094 20.5581 44.5616 20.3726 44.0947 20.3726C43.6278 20.3726 43.18 20.5581 42.8499 20.8882C42.5197 21.2183 42.3342 21.6661 42.3342 22.133C42.3342 22.5999 42.5197 23.0477 42.8499 23.3779C43.18 23.708 43.6278 23.8935 44.0947 23.8935Z" fill="#AFDAD2"/>
<path d="M23.6407 25.3122C24.0736 25.3122 24.4888 25.1402 24.7948 24.8341C25.1009 24.5281 25.2729 24.1129 25.2729 23.68C25.2729 23.2472 25.1009 22.832 24.7948 22.5259C24.4888 22.2198 24.0736 22.0479 23.6407 22.0479C23.2079 22.0479 22.7927 22.2198 22.4866 22.5259C22.1805 22.832 22.0085 23.2472 22.0085 23.68C22.0085 24.1129 22.1805 24.5281 22.4866 24.8341C22.7927 25.1402 23.2079 25.3122 23.6407 25.3122Z" fill="#AFDAD2"/>
<path d="M32.7244 21.0981C33.2248 21.0981 33.7048 20.8993 34.0586 20.5455C34.4125 20.1916 34.6113 19.7116 34.6113 19.2112C34.6113 18.7108 34.4125 18.2308 34.0586 17.8769C33.7048 17.523 33.2248 17.3242 32.7244 17.3242C32.2239 17.3242 31.7439 17.523 31.3901 17.8769C31.0362 18.2308 30.8374 18.7108 30.8374 19.2112C30.8374 19.7116 31.0362 20.1916 31.3901 20.5455C31.7439 20.8993 32.2239 21.0981 32.7244 21.0981Z" fill="#AFDAD2"/>
<path d="M68.1279 23.6397C68.437 23.6397 68.7335 23.5169 68.9521 23.2983C69.1707 23.0797 69.2935 22.7832 69.2935 22.4741C69.2935 22.165 69.1707 21.8685 68.9521 21.65C68.7335 21.4314 68.437 21.3086 68.1279 21.3086C67.8188 21.3086 67.5223 21.4314 67.3038 21.65C67.0852 21.8685 66.9624 22.165 66.9624 22.4741C66.9624 22.7832 67.0852 23.0797 67.3038 23.2983C67.5223 23.5169 67.8188 23.6397 68.1279 23.6397Z" fill="#AFDAD2"/>
<path d="M27.5279 18.8795C27.9211 18.8795 28.2982 18.7232 28.5763 18.4452C28.8543 18.1671 29.0106 17.79 29.0106 17.3968C29.0106 17.0035 28.8543 16.6264 28.5763 16.3483C28.2982 16.0703 27.9211 15.9141 27.5279 15.9141C27.1346 15.9141 26.7575 16.0703 26.4794 16.3483C26.2014 16.6264 26.0452 17.0035 26.0452 17.3968C26.0452 17.79 26.2014 18.1671 26.4794 18.4452C26.7575 18.7232 27.1346 18.8795 27.5279 18.8795Z" fill="#AFDAD2"/>
<path d="M34.2143 25.5204C34.549 25.5204 34.87 25.3875 35.1066 25.1508C35.3433 24.9142 35.4762 24.5932 35.4762 24.2585C35.4762 23.9238 35.3433 23.6028 35.1066 23.3662C34.87 23.1295 34.549 22.9966 34.2143 22.9966C33.8797 22.9966 33.5586 23.1295 33.322 23.3662C33.0854 23.6028 32.9524 23.9238 32.9524 24.2585C32.9524 24.5932 33.0854 24.9142 33.322 25.1508C33.5586 25.3875 33.8797 25.5204 34.2143 25.5204Z" fill="#AFDAD2"/>
<path d="M37.2367 22.7819C37.5767 22.7819 37.9028 22.6468 38.1432 22.4064C38.3836 22.166 38.5187 21.8398 38.5187 21.4998C38.5187 21.1598 38.3836 20.8337 38.1432 20.5933C37.9028 20.3529 37.5767 20.2178 37.2367 20.2178C36.8966 20.2178 36.5705 20.3529 36.3301 20.5933C36.0897 20.8337 35.9546 21.1598 35.9546 21.4998C35.9546 21.8398 36.0897 22.166 36.3301 22.4064C36.5705 22.6468 36.8966 22.7819 37.2367 22.7819Z" fill="#AFDAD2"/>
<path d="M17.4367 26.038C17.779 26.038 18.1074 25.902 18.3494 25.66C18.5915 25.4179 18.7275 25.0896 18.7275 24.7473C18.7275 24.405 18.5915 24.0766 18.3494 23.8346C18.1074 23.5925 17.779 23.4565 17.4367 23.4565C17.0944 23.4565 16.7661 23.5925 16.524 23.8346C16.282 24.0766 16.146 24.405 16.146 24.7473C16.146 25.0896 16.282 25.4179 16.524 25.66C16.7661 25.902 17.0944 26.038 17.4367 26.038Z" fill="#AFDAD2"/>
<path d="M20.991 21.0201C21.3051 21.0201 21.6063 20.8954 21.8283 20.6733C22.0504 20.4513 22.1752 20.15 22.1752 19.836C22.1752 19.522 22.0504 19.2207 21.8283 18.9987C21.6063 18.7766 21.3051 18.6519 20.991 18.6519C20.677 18.6519 20.3758 18.7766 20.1537 18.9987C19.9317 19.2207 19.8069 19.522 19.8069 19.836C19.8069 20.15 19.9317 20.4513 20.1537 20.6733C20.3758 20.8954 20.677 21.0201 20.991 21.0201Z" fill="#AFDAD2"/>
<path d="M48.3099 24.6954C48.5731 24.6954 48.8255 24.5908 49.0116 24.4047C49.1978 24.2186 49.3023 23.9661 49.3023 23.7029C49.3023 23.4397 49.1978 23.1873 49.0116 23.0011C48.8255 22.815 48.5731 22.7104 48.3099 22.7104C48.0467 22.7104 47.7942 22.815 47.6081 23.0011C47.422 23.1873 47.3174 23.4397 47.3174 23.7029C47.3174 23.9661 47.422 24.2186 47.6081 24.4047C47.7942 24.5908 48.0467 24.6954 48.3099 24.6954Z" fill="#AFDAD2"/>
<path d="M16.5261 32.5726C16.9611 32.5726 17.3783 32.3998 17.6859 32.0922C17.9936 31.7846 18.1664 31.3673 18.1664 30.9323C18.1664 30.4973 17.9936 30.08 17.6859 29.7724C17.3783 29.4648 16.9611 29.292 16.5261 29.292C16.091 29.292 15.6738 29.4648 15.3662 29.7724C15.0586 30.08 14.8857 30.4973 14.8857 30.9323C14.8857 31.3673 15.0586 31.7846 15.3662 32.0922C15.6738 32.3998 16.091 32.5726 16.5261 32.5726Z" fill="#AFDAD2"/>
<path d="M12.8625 29.8066C13.1896 29.8066 13.5032 29.6767 13.7345 29.4454C13.9657 29.2142 14.0957 28.9005 14.0957 28.5735C14.0957 28.2464 13.9657 27.9328 13.7345 27.7015C13.5032 27.4703 13.1896 27.3403 12.8625 27.3403C12.5355 27.3403 12.2218 27.4703 11.9906 27.7015C11.7593 27.9328 11.6294 28.2464 11.6294 28.5735C11.6294 28.9005 11.7593 29.2142 11.9906 29.4454C12.2218 29.6767 12.5355 29.8066 12.8625 29.8066Z" fill="#AFDAD2"/>
<path d="M51.6945 24.4075C52.0234 24.4075 52.3389 24.2768 52.5716 24.0442C52.8042 23.8116 52.9348 23.4961 52.9348 23.1671C52.9348 22.8382 52.8042 22.5227 52.5716 22.2901C52.3389 22.0575 52.0234 21.9268 51.6945 21.9268C51.3655 21.9268 51.05 22.0575 50.8174 22.2901C50.5848 22.5227 50.4541 22.8382 50.4541 23.1671C50.4541 23.4961 50.5848 23.8116 50.8174 24.0442C51.05 24.2768 51.3655 24.4075 51.6945 24.4075Z" fill="#AFDAD2"/>
<path d="M23.494 30.8484C24.0012 30.8484 24.4876 30.6469 24.8462 30.2883C25.2048 29.9297 25.4063 29.4433 25.4063 28.9362C25.4063 28.429 25.2048 27.9426 24.8462 27.584C24.4876 27.2254 24.0012 27.0239 23.494 27.0239C22.9869 27.0239 22.5005 27.2254 22.1419 27.584C21.7833 27.9426 21.5818 28.429 21.5818 28.9362C21.5818 29.4433 21.7833 29.9297 22.1419 30.2883C22.5005 30.6469 22.9869 30.8484 23.494 30.8484Z" fill="#AFDAD2"/>
<path d="M65.6199 22.1538C66.1283 22.1538 66.6159 21.9518 66.9754 21.5924C67.3349 21.2329 67.5369 20.7452 67.5369 20.2368C67.5369 19.7284 67.3349 19.2408 66.9754 18.8813C66.6159 18.5218 66.1283 18.3198 65.6199 18.3198C65.1115 18.3198 64.6238 18.5218 64.2644 18.8813C63.9049 19.2408 63.7029 19.7284 63.7029 20.2368C63.7029 20.7452 63.9049 21.2329 64.2644 21.5924C64.6238 21.9518 65.1115 22.1538 65.6199 22.1538Z" fill="#AFDAD2"/>
<path d="M17.543 40.2174C17.8381 40.2174 18.1211 40.1002 18.3298 39.8916C18.5384 39.6829 18.6557 39.3999 18.6557 39.1048C18.6557 38.8097 18.5384 38.5267 18.3298 38.3181C18.1211 38.1094 17.8381 37.9922 17.543 37.9922C17.248 37.9922 16.9649 38.1094 16.7563 38.3181C16.5477 38.5267 16.4304 38.8097 16.4304 39.1048C16.4304 39.3999 16.5477 39.6829 16.7563 39.8916C16.9649 40.1002 17.248 40.2174 17.543 40.2174Z" fill="#AFDAD2"/>
<path d="M45.3366 18.5141C45.7423 18.5141 46.1315 18.3529 46.4183 18.066C46.7052 17.7792 46.8664 17.39 46.8664 16.9843C46.8664 16.5786 46.7052 16.1895 46.4183 15.9026C46.1315 15.6158 45.7423 15.4546 45.3366 15.4546C44.9309 15.4546 44.5418 15.6158 44.2549 15.9026C43.9681 16.1895 43.8069 16.5786 43.8069 16.9843C43.8069 17.39 43.9681 17.7792 44.2549 18.066C44.5418 18.3529 44.9309 18.5141 45.3366 18.5141Z" fill="#AFDAD2"/>
<path d="M77.1205 20.6205C77.535 20.6205 77.9325 20.4558 78.2255 20.1628C78.5185 19.8697 78.6832 19.4722 78.6832 19.0578C78.6832 18.6434 78.5185 18.2459 78.2255 17.9528C77.9325 17.6598 77.535 17.4951 77.1205 17.4951C76.7061 17.4951 76.3086 17.6598 76.0156 17.9528C75.7225 18.2459 75.5579 18.6434 75.5579 19.0578C75.5579 19.4722 75.7225 19.8697 76.0156 20.1628C76.3086 20.4558 76.7061 20.6205 77.1205 20.6205Z" fill="#AFDAD2"/>
<path d="M56.3317 19.824C56.6617 19.824 56.9782 19.6929 57.2115 19.4596C57.4448 19.2262 57.5759 18.9097 57.5759 18.5797C57.5759 18.2497 57.4448 17.9332 57.2115 17.6999C56.9782 17.4666 56.6617 17.3354 56.3317 17.3354C56.0017 17.3354 55.6852 17.4666 55.4518 17.6999C55.2185 17.9332 55.0874 18.2497 55.0874 18.5797C55.0874 18.9097 55.2185 19.2262 55.4518 19.4596C55.6852 19.6929 56.0017 19.824 56.3317 19.824Z" fill="#AFDAD2"/>
<path d="M29.2035 36.2396C29.6338 36.2396 30.0464 36.0687 30.3506 35.7644C30.6548 35.4602 30.8258 35.0476 30.8258 34.6174C30.8258 34.1871 30.6548 33.7745 30.3506 33.4703C30.0464 33.166 29.6338 32.9951 29.2035 32.9951C28.7733 32.9951 28.3607 33.166 28.0564 33.4703C27.7522 33.7745 27.5813 34.1871 27.5813 34.6174C27.5813 35.0476 27.7522 35.4602 28.0564 35.7644C28.3607 36.0687 28.7733 36.2396 29.2035 36.2396Z" fill="#AFDAD2"/>
<path d="M60.5517 20.3602C60.9636 20.3602 61.3587 20.1965 61.6499 19.9053C61.9412 19.614 62.1048 19.219 62.1048 18.8071C62.1048 18.3952 61.9412 18.0001 61.6499 17.7088C61.3587 17.4176 60.9636 17.2539 60.5517 17.2539C60.1398 17.2539 59.7447 17.4176 59.4534 17.7088C59.1622 18.0001 58.9985 18.3952 58.9985 18.8071C58.9985 19.219 59.1622 19.614 59.4534 19.9053C59.7447 20.1965 60.1398 20.3602 60.5517 20.3602Z" fill="#AFDAD2"/>
<path d="M71.5501 21.8741C71.8914 21.8741 72.2188 21.7384 72.4602 21.4971C72.7016 21.2557 72.8372 20.9283 72.8372 20.5869C72.8372 20.2456 72.7016 19.9182 72.4602 19.6768C72.2188 19.4354 71.8914 19.2998 71.5501 19.2998C71.2087 19.2998 70.8813 19.4354 70.6399 19.6768C70.3986 19.9182 70.2629 20.2456 70.2629 20.5869C70.2629 20.9283 70.3986 21.2557 70.6399 21.4971C70.8813 21.7384 71.2087 21.8741 71.5501 21.8741Z" fill="#AFDAD2"/>
<path d="M83.7004 24.6636C84.0081 24.6636 84.3032 24.5413 84.5208 24.3238C84.7384 24.1062 84.8606 23.8111 84.8606 23.5034C84.8606 23.1957 84.7384 22.9006 84.5208 22.6831C84.3032 22.4655 84.0081 22.3433 83.7004 22.3433C83.3928 22.3433 83.0976 22.4655 82.8801 22.6831C82.6625 22.9006 82.5403 23.1957 82.5403 23.5034C82.5403 23.8111 82.6625 24.1062 82.8801 24.3238C83.0976 24.5413 83.3928 24.6636 83.7004 24.6636Z" fill="#AFDAD2"/>
<path d="M40.2841 16.1385C40.5493 16.1385 40.8036 16.0332 40.9912 15.8456C41.1787 15.6581 41.284 15.4038 41.284 15.1386C41.284 14.8734 41.1787 14.6191 40.9912 14.4315C40.8036 14.244 40.5493 14.1387 40.2841 14.1387C40.0189 14.1387 39.7646 14.244 39.5771 14.4315C39.3895 14.6191 39.2842 14.8734 39.2842 15.1386C39.2842 15.4038 39.3895 15.6581 39.5771 15.8456C39.7646 16.0332 40.0189 16.1385 40.2841 16.1385Z" fill="#AFDAD2"/>
<path d="M49.3765 13.3931C49.7647 13.3931 50.1371 13.2388 50.4116 12.9643C50.6861 12.6898 50.8403 12.3174 50.8403 11.9292C50.8403 11.541 50.6861 11.1686 50.4116 10.8941C50.1371 10.6196 49.7647 10.4653 49.3765 10.4653C48.9882 10.4653 48.6159 10.6196 48.3414 10.8941C48.0668 11.1686 47.9126 11.541 47.9126 11.9292C47.9126 12.3174 48.0668 12.6898 48.3414 12.9643C48.6159 13.2388 48.9882 13.3931 49.3765 13.3931Z" fill="#AFDAD2"/>
<path d="M83.4418 21.2406C83.9533 21.2406 84.4439 21.0374 84.8056 20.6757C85.1672 20.314 85.3705 19.8234 85.3705 19.3119C85.3705 18.8005 85.1672 18.3099 84.8056 17.9482C84.4439 17.5865 83.9533 17.3833 83.4418 17.3833C82.9303 17.3833 82.4397 17.5865 82.0781 17.9482C81.7164 18.3099 81.5132 18.8005 81.5132 19.3119C81.5132 19.8234 81.7164 20.314 82.0781 20.6757C82.4397 21.0374 82.9303 21.2406 83.4418 21.2406Z" fill="#AFDAD2"/>
<path d="M47.1673 22.0285C47.6507 22.0285 48.1143 21.8365 48.4561 21.4947C48.7979 21.1529 48.9899 20.6893 48.9899 20.2059C48.9899 19.7225 48.7979 19.2589 48.4561 18.9171C48.1143 18.5753 47.6507 18.3833 47.1673 18.3833C46.684 18.3833 46.2203 18.5753 45.8786 18.9171C45.5368 19.2589 45.3447 19.7225 45.3447 20.2059C45.3447 20.6893 45.5368 21.1529 45.8786 21.4947C46.2203 21.8365 46.684 22.0285 47.1673 22.0285Z" fill="#AFDAD2"/>
<path d="M53.9105 15.1984C54.3926 15.1984 54.8551 15.0068 55.1961 14.6658C55.5371 14.3249 55.7286 13.8624 55.7286 13.3802C55.7286 12.898 55.5371 12.4355 55.1961 12.0945C54.8551 11.7536 54.3926 11.562 53.9105 11.562C53.4283 11.562 52.9658 11.7536 52.6248 12.0945C52.2839 12.4355 52.0923 12.898 52.0923 13.3802C52.0923 13.8624 52.2839 14.3249 52.6248 14.6658C52.9658 15.0068 53.4283 15.1984 53.9105 15.1984Z" fill="#AFDAD2"/>
<path d="M69.6726 17.413C70.1721 17.413 70.6512 17.2146 71.0044 16.8614C71.3576 16.5082 71.5561 16.029 71.5561 15.5295C71.5561 15.03 71.3576 14.5509 71.0044 14.1977C70.6512 13.8445 70.1721 13.646 69.6726 13.646C69.1731 13.646 68.6939 13.8445 68.3407 14.1977C67.9875 14.5509 67.7891 15.03 67.7891 15.5295C67.7891 16.029 67.9875 16.5082 68.3407 16.8614C68.6939 17.2146 69.1731 17.413 69.6726 17.413Z" fill="#AFDAD2"/>
<path d="M89.1724 29.2545C89.6454 29.2545 90.099 29.0666 90.4334 28.7322C90.7678 28.3978 90.9557 27.9442 90.9557 27.4713C90.9557 26.9983 90.7678 26.5447 90.4334 26.2103C90.099 25.8759 89.6454 25.688 89.1724 25.688C88.6995 25.688 88.2459 25.8759 87.9115 26.2103C87.5771 26.5447 87.3892 26.9983 87.3892 27.4713C87.3892 27.9442 87.5771 28.3978 87.9115 28.7322C88.2459 29.0666 88.6995 29.2545 89.1724 29.2545Z" fill="#AFDAD2"/>
<path d="M48.9644 7.66566C49.2344 7.66566 49.4934 7.55838 49.6843 7.36745C49.8753 7.17653 49.9826 6.91754 49.9826 6.64753C49.9826 6.37751 49.8753 6.11853 49.6843 5.9276C49.4934 5.73667 49.2344 5.62939 48.9644 5.62939C48.6944 5.62939 48.4354 5.73667 48.2445 5.9276C48.0536 6.11853 47.9463 6.37751 47.9463 6.64753C47.9463 6.91754 48.0536 7.17653 48.2445 7.36745C48.4354 7.55838 48.6944 7.66566 48.9644 7.66566Z" fill="#AFDAD2"/>
<path d="M65.2238 18.4731C65.6773 18.4731 66.1122 18.2929 66.4328 17.9723C66.7534 17.6517 66.9335 17.2168 66.9335 16.7634C66.9335 16.31 66.7534 15.8751 66.4328 15.5545C66.1122 15.2339 65.6773 15.0537 65.2238 15.0537C64.7704 15.0537 64.3355 15.2339 64.0149 15.5545C63.6943 15.8751 63.5142 16.31 63.5142 16.7634C63.5142 17.2168 63.6943 17.6517 64.0149 17.9723C64.3355 18.2929 64.7704 18.4731 65.2238 18.4731Z" fill="#AFDAD2"/>
<path d="M62.9362 15.1893C63.3022 15.1893 63.6532 15.0439 63.912 14.7851C64.1708 14.5263 64.3163 14.1752 64.3163 13.8092C64.3163 13.4433 64.1708 13.0922 63.912 12.8334C63.6532 12.5746 63.3022 12.4292 62.9362 12.4292C62.5702 12.4292 62.2192 12.5746 61.9604 12.8334C61.7016 13.0922 61.5562 13.4433 61.5562 13.8092C61.5562 14.1752 61.7016 14.5263 61.9604 14.7851C62.2192 15.0439 62.5702 15.1893 62.9362 15.1893Z" fill="#AFDAD2"/>
<path d="M56.0012 12.1841C56.4708 12.1841 56.9213 11.9975 57.2533 11.6655C57.5854 11.3334 57.772 10.883 57.772 10.4133C57.772 9.94373 57.5854 9.49329 57.2533 9.16122C56.9213 8.82916 56.4708 8.64258 56.0012 8.64258C55.5316 8.64258 55.0812 8.82916 54.7491 9.16122C54.417 9.49329 54.2305 9.94373 54.2305 10.4133C54.2305 10.883 54.417 11.3334 54.7491 11.6655C55.0812 11.9975 55.5316 12.1841 56.0012 12.1841Z" fill="#AFDAD2"/>
<path d="M36.4684 19.4055C36.9948 19.4055 37.4997 19.1964 37.872 18.8241C38.2442 18.4519 38.4534 17.9469 38.4534 17.4205C38.4534 16.8941 38.2442 16.3892 37.872 16.0169C37.4997 15.6447 36.9948 15.4355 36.4684 15.4355C35.942 15.4355 35.437 15.6447 35.0648 16.0169C34.6925 16.3892 34.4834 16.8941 34.4834 17.4205C34.4834 17.9469 34.6925 18.4519 35.0648 18.8241C35.437 19.1964 35.942 19.4055 36.4684 19.4055Z" fill="#AFDAD2"/>
<path d="M24.2215 16.4826C24.5082 16.4826 24.7832 16.3687 24.9859 16.166C25.1886 15.9633 25.3025 15.6884 25.3025 15.4017C25.3025 15.1151 25.1886 14.8401 24.9859 14.6374C24.7832 14.4347 24.5082 14.3208 24.2215 14.3208C23.9349 14.3208 23.6599 14.4347 23.4572 14.6374C23.2545 14.8401 23.1406 15.1151 23.1406 15.4017C23.1406 15.6884 23.2545 15.9633 23.4572 16.166C23.6599 16.3687 23.9349 16.4826 24.2215 16.4826Z" fill="#AFDAD2"/>
<path d="M29.3606 15.7578C29.7322 15.7578 30.0887 15.6101 30.3515 15.3473C30.6143 15.0845 30.7619 14.7281 30.7619 14.3564C30.7619 13.9848 30.6143 13.6283 30.3515 13.3655C30.0887 13.1027 29.7322 12.9551 29.3606 12.9551C28.9889 12.9551 28.6325 13.1027 28.3697 13.3655C28.1069 13.6283 27.9592 13.9848 27.9592 14.3564C27.9592 14.7281 28.1069 15.0845 28.3697 15.3473C28.6325 15.6101 28.9889 15.7578 29.3606 15.7578Z" fill="#AFDAD2"/>
<path d="M76.445 24.2475C76.9031 24.2475 77.3425 24.0655 77.6664 23.7416C77.9903 23.4177 78.1723 22.9783 78.1723 22.5202C78.1723 22.0622 77.9903 21.6228 77.6664 21.2989C77.3425 20.975 76.9031 20.793 76.445 20.793C75.987 20.793 75.5476 20.975 75.2237 21.2989C74.8998 21.6228 74.7178 22.0622 74.7178 22.5202C74.7178 22.9783 74.8998 23.4177 75.2237 23.7416C75.5476 24.0655 75.987 24.2475 76.445 24.2475Z" fill="#AFDAD2"/>
<path d="M57.4943 15.1429C57.7487 15.1429 57.9927 15.0418 58.1725 14.862C58.3524 14.6821 58.4534 14.4381 58.4534 14.1838C58.4534 13.9294 58.3524 13.6854 58.1725 13.5055C57.9927 13.3257 57.7487 13.2246 57.4943 13.2246C57.2399 13.2246 56.996 13.3257 56.8161 13.5055C56.6362 13.6854 56.5352 13.9294 56.5352 14.1838C56.5352 14.4381 56.6362 14.6821 56.8161 14.862C56.996 15.0418 57.2399 15.1429 57.4943 15.1429Z" fill="#AFDAD2"/>
<path d="M37.1263 15.3357C37.6088 15.3357 38.0715 15.144 38.4127 14.8028C38.7538 14.4617 38.9455 13.9989 38.9455 13.5165C38.9455 13.034 38.7538 12.5712 38.4127 12.2301C38.0715 11.8889 37.6088 11.6973 37.1263 11.6973C36.6439 11.6973 36.1811 11.8889 35.84 12.2301C35.4988 12.5712 35.3071 13.034 35.3071 13.5165C35.3071 13.9989 35.4988 14.4617 35.84 14.8028C36.1811 15.144 36.6439 15.3357 37.1263 15.3357Z" fill="#AFDAD2"/>
<path d="M10.4318 37.6371C10.8513 37.6371 11.2537 37.4705 11.5503 37.1738C11.8469 36.8772 12.0136 36.4749 12.0136 36.0554C12.0136 35.6359 11.8469 35.2335 11.5503 34.9369C11.2537 34.6403 10.8513 34.4736 10.4318 34.4736C10.0124 34.4736 9.61 34.6403 9.31338 34.9369C9.01676 35.2335 8.8501 35.6359 8.8501 36.0554C8.8501 36.4749 9.01676 36.8772 9.31338 37.1738C9.61 37.4705 10.0124 37.6371 10.4318 37.6371Z" fill="#AFDAD2"/>
<path d="M14.6452 38.1826C15.1326 38.1826 15.6 37.9889 15.9446 37.6443C16.2892 37.2997 16.4829 36.8323 16.4829 36.3449C16.4829 35.8576 16.2892 35.3902 15.9446 35.0456C15.6 34.7009 15.1326 34.5073 14.6452 34.5073C14.1579 34.5073 13.6904 34.7009 13.3458 35.0456C13.0012 35.3902 12.8076 35.8576 12.8076 36.3449C12.8076 36.8323 13.0012 37.2997 13.3458 37.6443C13.6904 37.9889 14.1579 38.1826 14.6452 38.1826Z" fill="#AFDAD2"/>
<path d="M29.4956 21.9815C29.9647 21.9815 30.4145 21.7951 30.7462 21.4635C31.0778 21.1318 31.2642 20.6819 31.2642 20.2129C31.2642 19.7439 31.0778 19.294 30.7462 18.9623C30.4145 18.6307 29.9647 18.4443 29.4956 18.4443C29.0266 18.4443 28.5767 18.6307 28.2451 18.9623C27.9134 19.294 27.7271 19.7439 27.7271 20.2129C27.7271 20.6819 27.9134 21.1318 28.2451 21.4635C28.5767 21.7951 29.0266 21.9815 29.4956 21.9815Z" fill="#AFDAD2"/>
<path d="M10.9513 33.6995C11.3148 33.6995 11.6635 33.555 11.9206 33.298C12.1776 33.0409 12.322 32.6923 12.322 32.3287C12.322 31.9652 12.1776 31.6165 11.9206 31.3595C11.6635 31.1024 11.3148 30.958 10.9513 30.958C10.5878 30.958 10.2391 31.1024 9.98204 31.3595C9.72499 31.6165 9.58057 31.9652 9.58057 32.3287C9.58057 32.6923 9.72499 33.0409 9.98204 33.298C10.2391 33.555 10.5878 33.6995 10.9513 33.6995Z" fill="#AFDAD2"/>
<path d="M66.2227 13.8013C66.6205 13.8013 67.0021 13.6432 67.2833 13.362C67.5646 13.0807 67.7227 12.6991 67.7227 12.3013C67.7227 11.9035 67.5646 11.5219 67.2833 11.2406C67.0021 10.9593 66.6205 10.8013 66.2227 10.8013C65.8249 10.8013 65.4433 10.9593 65.162 11.2406C64.8807 11.5219 64.7227 11.9035 64.7227 12.3013C64.7227 12.6991 64.8807 13.0807 65.162 13.362C65.4433 13.6432 65.8249 13.8013 66.2227 13.8013Z" fill="#AFDAD2"/>
<path d="M24.4641 20.0995C24.8261 20.0995 25.1733 19.9557 25.4292 19.6997C25.6852 19.4438 25.829 19.0966 25.829 18.7346C25.829 18.3726 25.6852 18.0254 25.4292 17.7694C25.1733 17.5134 24.8261 17.3696 24.4641 17.3696C24.1021 17.3696 23.7549 17.5134 23.4989 17.7694C23.2429 18.0254 23.0991 18.3726 23.0991 18.7346C23.0991 19.0966 23.2429 19.4438 23.4989 19.6997C23.7549 19.9557 24.1021 20.0995 24.4641 20.0995Z" fill="#AFDAD2"/>
<path d="M17.8468 36.5408C18.3546 36.5408 18.8415 36.3391 19.2006 35.9801C19.5596 35.6211 19.7613 35.1341 19.7613 34.6264C19.7613 34.1187 19.5596 33.6317 19.2006 33.2726C18.8415 32.9136 18.3546 32.7119 17.8468 32.7119C17.3391 32.7119 16.8521 32.9136 16.4931 33.2726C16.1341 33.6317 15.9324 34.1187 15.9324 34.6264C15.9324 35.1341 16.1341 35.6211 16.4931 35.9801C16.8521 36.3391 17.3391 36.5408 17.8468 36.5408Z" fill="#AFDAD2"/>
<path d="M80.0793 23.5136C80.5767 23.5136 81.0539 23.3159 81.4056 22.9642C81.7573 22.6125 81.955 22.1353 81.955 21.6379C81.955 21.1405 81.7573 20.6633 81.4056 20.3116C81.0539 19.9598 80.5767 19.7622 80.0793 19.7622C79.5819 19.7622 79.1047 19.9598 78.753 20.3116C78.4012 20.6633 78.2036 21.1405 78.2036 21.6379C78.2036 22.1353 78.4012 22.6125 78.753 22.9642C79.1047 23.3159 79.5819 23.5136 80.0793 23.5136Z" fill="#AFDAD2"/>
<path d="M86.8421 23.2901C87.1842 23.2901 87.5123 23.1541 87.7543 22.9122C87.9962 22.6703 88.1321 22.3421 88.1321 22C88.1321 21.6579 87.9962 21.3297 87.7543 21.0878C87.5123 20.8459 87.1842 20.71 86.8421 20.71C86.4999 20.71 86.1718 20.8459 85.9299 21.0878C85.6879 21.3297 85.552 21.6579 85.552 22C85.552 22.3421 85.6879 22.6703 85.9299 22.9122C86.1718 23.1541 86.4999 23.2901 86.8421 23.2901Z" fill="#AFDAD2"/>
<path d="M42.2428 20.0969C42.6239 20.0969 42.9894 19.9455 43.2588 19.6761C43.5283 19.4066 43.6797 19.0411 43.6797 18.66C43.6797 18.279 43.5283 17.9135 43.2588 17.644C42.9894 17.3745 42.6239 17.2231 42.2428 17.2231C41.8617 17.2231 41.4962 17.3745 41.2268 17.644C40.9573 17.9135 40.8059 18.279 40.8059 18.66C40.8059 19.0411 40.9573 19.4066 41.2268 19.6761C41.4962 19.9455 41.8617 20.0969 42.2428 20.0969Z" fill="#AFDAD2"/>
<path d="M73.786 18.4816C74.1051 18.4816 74.4113 18.3548 74.637 18.1291C74.8626 17.9035 74.9895 17.5973 74.9895 17.2782C74.9895 16.959 74.8626 16.6529 74.637 16.4272C74.4113 16.2015 74.1051 16.0747 73.786 16.0747C73.4668 16.0747 73.1607 16.2015 72.935 16.4272C72.7093 16.6529 72.5825 16.959 72.5825 17.2782C72.5825 17.5973 72.7093 17.9035 72.935 18.1291C73.1607 18.3548 73.4668 18.4816 73.786 18.4816Z" fill="#AFDAD2"/>
<path d="M73.2687 15.4662C73.7893 15.4662 74.2886 15.2593 74.6566 14.8913C75.0247 14.5232 75.2315 14.0239 75.2315 13.5033C75.2315 12.9828 75.0247 12.4835 74.6566 12.1154C74.2886 11.7473 73.7893 11.5405 73.2687 11.5405C72.7482 11.5405 72.2489 11.7473 71.8808 12.1154C71.5127 12.4835 71.3059 12.9828 71.3059 13.5033C71.3059 14.0239 71.5127 14.5232 71.8808 14.8913C72.2489 15.2593 72.7482 15.4662 73.2687 15.4662Z" fill="#AFDAD2"/>
<path d="M49.0688 18.8114C49.5341 18.8114 49.9805 18.6265 50.3096 18.2974C50.6387 17.9683 50.8236 17.5219 50.8236 17.0566C50.8236 16.5912 50.6387 16.1448 50.3096 15.8157C49.9805 15.4867 49.5341 15.3018 49.0688 15.3018C48.6034 15.3018 48.157 15.4867 47.8279 15.8157C47.4989 16.1448 47.314 16.5912 47.314 17.0566C47.314 17.5219 47.4989 17.9683 47.8279 18.2974C48.157 18.6265 48.6034 18.8114 49.0688 18.8114Z" fill="#AFDAD2"/>
<path d="M86.1524 27.2941C86.5517 27.2941 86.9346 27.1355 87.2169 26.8532C87.4993 26.5709 87.6579 26.1879 87.6579 25.7887C87.6579 25.3894 87.4993 25.0065 87.2169 24.7241C86.9346 24.4418 86.5517 24.2832 86.1524 24.2832C85.7532 24.2832 85.3702 24.4418 85.0879 24.7241C84.8056 25.0065 84.647 25.3894 84.647 25.7887C84.647 26.1879 84.8056 26.5709 85.0879 26.8532C85.3702 27.1355 85.7532 27.2941 86.1524 27.2941Z" fill="#AFDAD2"/>
<path d="M14.2843 40.8874C14.5184 40.8874 14.743 40.7944 14.9086 40.6288C15.0742 40.4632 15.1672 40.2386 15.1672 40.0045C15.1672 39.7703 15.0742 39.5458 14.9086 39.3802C14.743 39.2146 14.5184 39.1216 14.2843 39.1216C14.0501 39.1216 13.8255 39.2146 13.66 39.3802C13.4944 39.5458 13.4014 39.7703 13.4014 40.0045C13.4014 40.2386 13.4944 40.4632 13.66 40.6288C13.8255 40.7944 14.0501 40.8874 14.2843 40.8874Z" fill="#AFDAD2"/>
<path d="M32.8408 16.4034C33.278 16.4034 33.6974 16.2297 34.0065 15.9206C34.3156 15.6114 34.4893 15.1921 34.4893 14.7549C34.4893 14.3177 34.3156 13.8984 34.0065 13.5893C33.6974 13.2801 33.278 13.1064 32.8408 13.1064C32.4037 13.1064 31.9843 13.2801 31.6752 13.5893C31.3661 13.8984 31.1924 14.3177 31.1924 14.7549C31.1924 15.1921 31.3661 15.6114 31.6752 15.9206C31.9843 16.2297 32.4037 16.4034 32.8408 16.4034Z" fill="#AFDAD2"/>
<path d="M44.874 13.7153C45.1863 13.7153 45.4858 13.5912 45.7066 13.3704C45.9274 13.1496 46.0514 12.8501 46.0514 12.5378C46.0514 12.2255 45.9274 11.926 45.7066 11.7052C45.4858 11.4844 45.1863 11.3604 44.874 11.3604C44.5617 11.3604 44.2622 11.4844 44.0414 11.7052C43.8206 11.926 43.6965 12.2255 43.6965 12.5378C43.6965 12.8501 43.8206 13.1496 44.0414 13.3704C44.2622 13.5912 44.5617 13.7153 44.874 13.7153Z" fill="#AFDAD2"/>
<path d="M79.0467 17.3415C79.4396 17.3415 79.8165 17.1854 80.0943 16.9075C80.3721 16.6297 80.5282 16.2529 80.5282 15.8599C80.5282 15.467 80.3721 15.0902 80.0943 14.8123C79.8165 14.5345 79.4396 14.3784 79.0467 14.3784C78.6538 14.3784 78.2769 14.5345 77.9991 14.8123C77.7213 15.0902 77.5652 15.467 77.5652 15.8599C77.5652 16.2529 77.7213 16.6297 77.9991 16.9075C78.2769 17.1854 78.6538 17.3415 79.0467 17.3415Z" fill="#AFDAD2"/>
<path d="M41.5835 11.338C42.0721 11.338 42.5408 11.1439 42.8863 10.7984C43.2317 10.4529 43.4259 9.98424 43.4259 9.49565C43.4259 9.00706 43.2317 8.53841 42.8863 8.19293C42.5408 7.84744 42.0721 7.65332 41.5835 7.65332C41.0949 7.65332 40.6263 7.84744 40.2808 8.19293C39.9353 8.53841 39.7412 9.00706 39.7412 9.49565C39.7412 9.98424 39.9353 10.4529 40.2808 10.7984C40.6263 11.1439 41.0949 11.338 41.5835 11.338Z" fill="#AFDAD2"/>
<path d="M70.4866 13.0971C70.9384 13.0971 71.3717 12.9176 71.6912 12.5982C72.0107 12.2787 72.1902 11.8453 72.1902 11.3935C72.1902 10.9417 72.0107 10.5084 71.6912 10.1889C71.3717 9.86944 70.9384 9.68994 70.4866 9.68994C70.0348 9.68994 69.6014 9.86944 69.2819 10.1889C68.9625 10.5084 68.783 10.9417 68.783 11.3935C68.783 11.8453 68.9625 12.2787 69.2819 12.5982C69.6014 12.9176 70.0348 13.0971 70.4866 13.0971Z" fill="#AFDAD2"/>
<path d="M33.2795 11.2813C33.6415 11.2813 33.9886 11.1375 34.2446 10.8815C34.5005 10.6256 34.6443 10.2784 34.6443 9.91651C34.6443 9.55457 34.5005 9.20741 34.2446 8.95148C33.9886 8.69556 33.6415 8.55176 33.2795 8.55176C32.9176 8.55176 32.5704 8.69556 32.3145 8.95148C32.0586 9.20741 31.9148 9.55457 31.9148 9.91651C31.9148 10.2784 32.0586 10.6256 32.3145 10.8815C32.5704 11.1375 32.9176 11.2813 33.2795 11.2813Z" fill="#AFDAD2"/>
<path d="M36.5572 10.2261C36.9565 10.2261 37.3395 10.0675 37.6218 9.78514C37.9042 9.50279 38.0628 9.11979 38.0628 8.72049C38.0628 8.32119 37.9042 7.93818 37.6218 7.65584C37.3395 7.37349 36.9565 7.21484 36.5572 7.21484C36.1579 7.21484 35.7749 7.37349 35.4925 7.65584C35.2102 7.93818 35.0515 8.32119 35.0515 8.72049C35.0515 9.11979 35.2102 9.50279 35.4925 9.78514C35.7749 10.0675 36.1579 10.2261 36.5572 10.2261Z" fill="#AFDAD2"/>
<path d="M59.7632 8.33898C60.2317 8.33898 60.681 8.15286 61.0123 7.82161C61.3435 7.49036 61.5297 7.04103 61.5297 6.57257C61.5297 6.10411 61.3435 5.65477 61.0123 5.32352C60.681 4.99227 60.2317 4.80615 59.7632 4.80615C59.2948 4.80615 58.8454 4.99227 58.5142 5.32352C58.1829 5.65477 57.9968 6.10411 57.9968 6.57257C57.9968 7.04103 58.1829 7.49036 58.5142 7.82161C58.8454 8.15286 59.2948 8.33898 59.7632 8.33898Z" fill="#AFDAD2"/>
<path d="M52.6658 8.714C53.0304 8.714 53.3802 8.56914 53.638 8.31132C53.8958 8.0535 54.0407 7.70378 54.0407 7.33918C54.0407 6.97457 53.8958 6.62485 53.638 6.36703C53.3802 6.10922 53.0304 5.96436 52.6658 5.96436C52.3012 5.96436 51.9515 6.10922 51.6937 6.36703C51.4359 6.62485 51.291 6.97457 51.291 7.33918C51.291 7.70378 51.4359 8.0535 51.6937 8.31132C51.9515 8.56914 52.3012 8.714 52.6658 8.714Z" fill="#AFDAD2"/>
<path d="M63.2913 10.3916C63.5701 10.3916 63.8375 10.2808 64.0346 10.0837C64.2318 9.88656 64.3425 9.61914 64.3425 9.34034C64.3425 9.06154 64.2318 8.79412 64.0346 8.59697C63.8375 8.39983 63.5701 8.28906 63.2913 8.28906C63.0125 8.28906 62.745 8.39983 62.5479 8.59697C62.3508 8.79412 62.24 9.06154 62.24 9.34034C62.24 9.61914 62.3508 9.88656 62.5479 10.0837C62.745 10.2808 63.0125 10.3916 63.2913 10.3916Z" fill="#AFDAD2"/>
<path d="M59.7808 12.0054C60.2978 12.0054 60.7937 11.8 61.1592 11.4344C61.5248 11.0688 61.7302 10.5729 61.7302 10.0559C61.7302 9.5389 61.5248 9.04301 61.1592 8.67743C60.7937 8.31185 60.2978 8.10645 59.7808 8.10645C59.2638 8.10645 58.7679 8.31185 58.4023 8.67743C58.0367 9.04301 57.8313 9.5389 57.8313 10.0559C57.8313 10.5729 58.0367 11.0688 58.4023 11.4344C58.7679 11.8 59.2638 12.0054 59.7808 12.0054Z" fill="#AFDAD2"/>
<path d="M67.5178 10.1133C67.8751 10.1133 68.2178 9.97134 68.4704 9.71871C68.7231 9.46608 68.865 9.12339 68.865 8.76612C68.865 8.40884 68.7231 8.06615 68.4704 7.81352C68.2178 7.56089 67.8751 7.41895 67.5178 7.41895C67.1606 7.41895 66.8179 7.56089 66.5652 7.81352C66.3126 8.06615 66.1707 8.40884 66.1707 8.76612C66.1707 9.12339 66.3126 9.46608 66.5652 9.71871C66.8179 9.97134 67.1606 10.1133 67.5178 10.1133Z" fill="#AFDAD2"/>
<path d="M7.06459 42.9768C7.51339 42.9768 7.94387 42.7985 8.26122 42.4812C8.57857 42.1638 8.75688 41.7334 8.75688 41.2846C8.75688 40.8358 8.57857 40.4053 8.26122 40.0879C7.94387 39.7706 7.51339 39.5923 7.06459 39.5923C6.6158 39.5923 6.18532 39.7706 5.86797 40.0879C5.55062 40.4053 5.37231 40.8358 5.37231 41.2846C5.37231 41.7334 5.55062 42.1638 5.86797 42.4812C6.18532 42.7985 6.6158 42.9768 7.06459 42.9768Z" fill="#AFDAD2"/>
<path d="M45.4629 9.9975C45.7045 9.9975 45.9362 9.9015 46.1071 9.73065C46.278 9.55979 46.374 9.32803 46.374 9.0864C46.374 8.84477 46.278 8.61301 46.1071 8.44215C45.9362 8.27129 45.7045 8.17529 45.4629 8.17529C45.2212 8.17529 44.9895 8.27129 44.8186 8.44215C44.6478 8.61301 44.5518 8.84477 44.5518 9.0864C44.5518 9.32803 44.6478 9.55979 44.8186 9.73065C44.9895 9.9015 45.2212 9.9975 45.4629 9.9975Z" fill="#AFDAD2"/>
<path d="M76.7631 14.1682C77.0547 14.1682 77.3343 14.0524 77.5405 13.8462C77.7467 13.64 77.8626 13.3603 77.8626 13.0687C77.8626 12.7771 77.7467 12.4975 77.5405 12.2913C77.3343 12.0851 77.0547 11.9692 76.7631 11.9692C76.4715 11.9692 76.1918 12.0851 75.9856 12.2913C75.7794 12.4975 75.6636 12.7771 75.6636 13.0687C75.6636 13.3603 75.7794 13.64 75.9856 13.8462C76.1918 14.0524 76.4715 14.1682 76.7631 14.1682Z" fill="#AFDAD2"/>
<path d="M56.2132 8.66816C56.635 8.66816 57.0395 8.50061 57.3377 8.20241C57.6359 7.90421 57.8034 7.4997 57.8034 7.07798C57.8034 6.65626 57.6359 6.25175 57.3377 5.95355C57.0395 5.65534 56.635 5.48779 56.2132 5.48779C55.7915 5.48779 55.387 5.65534 55.0888 5.95355C54.7906 6.25175 54.623 6.65626 54.623 7.07798C54.623 7.4997 54.7906 7.90421 55.0888 8.20241C55.387 8.50061 55.7915 8.66816 56.2132 8.66816Z" fill="#AFDAD2"/>
<path d="M19.9011 32.8139C20.3869 32.8139 20.8529 32.6208 21.1965 32.2773C21.54 31.9337 21.733 31.4677 21.733 30.9819C21.733 30.496 21.54 30.03 21.1965 29.6865C20.8529 29.3429 20.3869 29.1499 19.9011 29.1499C19.4152 29.1499 18.9492 29.3429 18.6057 29.6865C18.2621 30.03 18.0691 30.496 18.0691 30.9819C18.0691 31.4677 18.2621 31.9337 18.6057 32.2773C18.9492 32.6208 19.4152 32.8139 19.9011 32.8139Z" fill="#AFDAD2"/>
</g>
</svg>
