<svg width="101" height="100" viewBox="0 0 101 100" fill="none" xmlns="http://www.w3.org/2000/svg" role="img" focusable="false">
<title>Icon for socket io library</title>
<path d="M49.748 0.00348537C45.5643 0.0149687 41.3981 0.545053 37.3448 1.58161C17.8448 6.43161 2.36671 24.091 0.382337 44.1222C-2.07704 63.0691 7.51046 82.8129 23.898 92.5941C39.998 102.669 61.7886 102.266 77.5448 91.6691C91.7073 82.4722 100.51 65.7222 99.9917 48.8097C99.7511 32.0816 90.3573 15.8191 75.9823 7.22536C68.1542 2.39099 58.9448 -0.0340146 49.748 0.000360365V0.00348537ZM49.4698 7.06599C70.073 7.03161 90.2573 22.966 92.323 44.2566C96.2636 67.841 76.6823 91.816 52.7886 92.516C30.0667 94.7785 8.09171 75.5066 7.44171 52.6879C5.75109 34.216 17.9417 15.8722 35.3542 9.76599C39.8437 7.97776 44.6342 7.06653 49.4667 7.08161L49.4698 7.06599ZM70.6948 20.5129C59.4948 29.2004 48.7698 38.4629 37.8167 47.416C42.8292 47.4785 47.8761 47.4785 52.9042 47.4441C58.7792 38.4285 64.8198 29.5285 70.6948 20.5097V20.5129ZM47.0948 52.3972C41.2198 61.4316 35.1667 70.3472 29.2855 79.3816C40.5198 70.7066 51.1948 61.3816 62.2136 52.4785C57.1732 52.4212 52.1325 52.3952 47.0917 52.4004L47.0948 52.3972Z" fill="black"/>
</svg>
