<svg width="100" height="100" viewBox="0 0 100 100" fill="none" xmlns="http://www.w3.org/2000/svg" role="img" focusable="false">
<title>Link to structured query language wikipedia entry</title>
<path d="M50 0C22.375 0 0 9.94444 0 22.2222C0 34.5 22.375 44.4444 50 44.4444C77.625 44.4444 100 34.5 100 22.2222C100 9.94444 77.625 0 50 0ZM0 33.3333V50C0 62.2778 22.375 72.2222 50 72.2222C77.625 72.2222 100 62.2778 100 50V33.3333C100 45.6111 77.625 55.5556 50 55.5556C22.375 55.5556 0 45.6111 0 33.3333ZM0 61.1111V77.7778C0 90.0555 22.375 100 50 100C77.625 100 100 90.0555 100 77.7778V61.1111C100 73.3889 77.625 83.3333 50 83.3333C22.375 83.3333 0 73.3889 0 61.1111Z" fill="#FFCA28"/>
</svg>
