<svg id="header-background" class="svg-background" preserveAspectRatio="none" width="100%" height="100%" viewBox="0 0 900 600" fill="none" xmlns="http://www.w3.org/2000/svg" role="img" focusable="false">
<title>Abstract background: multilayered staples in different shades of red from top to bottom</title>
<g clip-path="url(#clip0)">
<path d="M0 31H82V25H164V61H245V37H327V49H409V25H491V43H573V31H655V55H736V25H818V37H900V49V0H818H736H655H573H491H409H327H245H164H82H0V31Z" fill="#FA7268"/>
<path d="M0 115H82V127H164V139H245V115H327V85H409V55H491V127H573V85H655V103H736V91H818V97H900V109V47V35H818V23H736V53H655V29H573V41H491V23H409V47H327V35H245V59H164V23H82V29H0V115Z" fill="#F16667"/>
<path d="M0 187H82V193H164V163H245H327V169H409V121H491V175H573V169H655V151H736V145H818V139H900V175V107V95H818V89H736V101H655V83H573V125H491V53H409V83H327V113H245V137H164V125H82V113H0V187Z" fill="#E75B66"/>
<path d="M0 235H82V277H164V247H245V229H327V211H409V175H491V277H573V271H655V223H736V247H818V271H900V295V173V137H818V143H736V149H655V167H573V173H491V119H409V167H327V161H245H164V191H82V185H0V235Z" fill="#DD5065"/>
<path d="M0 319H82V385H164V343H245V427H327V331H409V379H491V337H573V361H655V427H736V301H818V397H900V475V293V269H818V245H736V221H655V269H573V275H491V173H409V209H327V227H245V245H164V275H82V233H0V319Z" fill="#D34463"/>
<path d="M0 355H82V409H164V403H245V469H327V373H409V445H491V409H573V415H655V457H736V373H818V451H900V505V473V395H818V299H736V425H655V359H573V335H491V377H409V329H327V425H245V341H164V383H82V317H0V355Z" fill="#C73962"/>
<path d="M0 553H82V547H164V583H245V559H327V577H409H491V565H573V571H655V559H736V547H818V583H900V577V503V449H818V371H736V455H655V413H573V407H491V443H409V371H327V467H245V401H164V407H82V353H0V553Z" fill="#BC2E61"/>
<path d="M0 601H82H164H245H327H409H491H573H655H736H818H900V575V581H818V545H736V557H655V569H573V563H491V575H409H327V557H245V581H164V545H82V551H0V601Z" fill="#B0235F"/>
</g>
<defs>
<clipPath id="clip0">
<rect width="900" height="600" fill="white"/>
</clipPath>
</defs>
</svg>
