<svg id="stem-transition-staples-bottom-bottom" class="svg-transition-piece" viewBox="0 0 1000 52" preserveAspectRatio="none" fill="none" xmlns="http://www.w3.org/2000/svg" aria-hidden="true" focusable="false">
<path d="M0 38H52.2222V34H105.556V24H157.778V23H210V40H263.333V41H315.556V52H368.889V38H421.111V41H473.333V26H526.667H578.889V21H631.111V44H684.444V15H736.667V28H790V25H842.222V33H894.444V52H947.778V43H1000V15V0H947.778H894.444H842.222H790H736.667H684.444H631.111H578.889H526.667H473.333H421.111H368.889H315.556H263.333H210H157.778H105.556H52.2222H0V38Z" fill="#FFDC00"/>
</svg>
