<svg id="stem-transition-staples-bottom-top" class="svg-transition-piece" viewBox="0 0 1000 52" fill="none" xmlns="http://www.w3.org/2000/svg" preserveAspectRatio="none" aria-hidden="true" focusable="false">
<path d="M0 17H52.2222V24H105.556V25H157.778V5H210V30H263.333V23H315.556V32H368.889V22H421.111V38H473.333V34H526.667V38H578.889V23H631.111V38H684.444V21H736.667V19H790V23H842.222V13H894.444V18H947.778V17H1000V0V52H947.778H894.444H842.222H790H736.667H684.444H631.111H578.889H526.667H473.333H421.111H368.889H315.556H263.333H210H157.778H105.556H52.2222H0V17Z" fill="#FFDC00"/>
</svg>
