<svg width="86" height="100" viewBox="0 0 86 100" fill="none" xmlns="http://www.w3.org/2000/svg" role="img" focusable="false">
<title>Icon for svelte framework</title>
<path d="M80.3206 13.1846C75.6336 6.7534 68.7234 2.29403 60.9324 0.672798C53.1414 -0.94843 45.0259 0.384249 38.1625 4.41193L14.1503 19.2618C10.9317 21.2015 8.15925 23.7993 6.01472 26.8852C3.87019 29.9711 2.40196 33.4753 1.70623 37.1682C0.564631 43.3451 1.57397 49.7267 4.5661 55.2498C2.51558 58.265 1.11438 61.6737 0.45146 65.2593C-0.230936 69.0026 -0.138899 72.846 0.721887 76.5523C1.58267 80.2586 3.19394 83.7491 5.45624 86.8085C10.1433 93.2403 17.0531 97.7011 24.8442 99.3249C32.6353 100.949 40.7517 99.6195 47.6179 95.5955L71.6337 80.7491C74.8513 78.8083 77.6229 76.21 79.7673 73.1244C81.9117 70.0387 83.3805 66.5351 84.0778 62.8427C85.2266 56.6613 84.2169 50.2728 81.2179 44.7469C83.2706 41.7324 84.6731 38.3236 85.3361 34.7373C86.0184 30.9928 85.9253 27.1481 85.0626 23.441C84.1999 19.7339 82.586 16.2432 80.3206 13.1846" fill="#FF3E00"/>
<path d="M35.8209 88.0416C32.0663 89.0045 28.1091 88.8177 24.462 87.5053C20.8148 86.1929 17.6458 83.8155 15.3657 80.681C14.0003 78.8435 13.0267 76.7453 12.5053 74.5162C11.9838 72.2871 11.9256 69.9747 12.3342 67.7222C12.4701 66.9824 12.6601 66.2536 12.9026 65.5416L13.3566 64.201L14.5863 65.0518C17.441 67.0849 20.6167 68.6244 23.981 69.6062L24.8569 69.8671L24.7675 70.7144C24.6646 71.9467 25.0084 73.175 25.7363 74.1748C26.4205 75.1424 27.3834 75.8785 28.4967 76.2847C29.61 76.6909 30.8206 76.748 31.9672 76.4484C32.4853 76.3138 32.9804 76.1029 33.4365 75.8228L57.3879 60.9729C57.9711 60.6193 58.4738 60.1475 58.8635 59.5878C59.2533 59.0281 59.5215 58.393 59.6508 57.7234C59.7796 57.0482 59.7687 56.3538 59.6187 55.683C59.4686 55.0122 59.1827 54.3792 58.7785 53.8232C58.0908 52.8776 57.135 52.1602 56.035 51.7638C54.9349 51.3673 53.7413 51.3102 52.6084 51.5997C52.0876 51.7346 51.59 51.9467 51.132 52.2289L41.9375 57.8914C40.4262 58.8266 38.7823 59.5281 37.0614 59.972C33.3038 60.9374 29.3429 60.7515 25.6923 59.4383C22.0417 58.1252 18.8699 55.7455 16.5883 52.6078C15.232 50.7643 14.2685 48.6621 13.7575 46.4312C13.2465 44.2003 13.1989 41.8883 13.6176 39.6383C14.0395 37.4218 14.9223 35.3186 16.2087 33.465C17.4952 31.6114 19.1566 30.0487 21.0854 28.878L45.0654 14.0281C46.5769 13.094 48.2208 12.3938 49.9415 11.9511C53.6992 10.9835 57.661 11.168 61.3125 12.4806C64.964 13.7932 68.1365 16.1732 70.4182 19.3117C71.7834 21.1493 72.7568 23.2476 73.2783 25.4766C73.7997 27.7057 73.8581 30.018 73.4497 32.2705C73.3142 33.0104 73.1242 33.7393 72.8813 34.4512L72.4273 35.7917L71.1976 34.9445C68.3445 32.9086 65.1684 31.3689 61.8029 30.3901L60.927 30.1256L61.0164 29.2784C61.1193 28.0454 60.774 26.8168 60.044 25.8179C59.3582 24.8711 58.4032 24.1526 57.3033 23.7561C56.2035 23.3595 55.0097 23.3031 53.8774 23.5944C53.3587 23.7287 52.8633 23.9408 52.4082 24.2235L28.3781 39.0234C27.7947 39.3751 27.2922 39.846 26.9035 40.4054C26.5148 40.9648 26.2486 41.6 26.1224 42.2693C25.9902 42.945 25.9995 43.6407 26.1496 44.3126C26.2998 44.9844 26.5875 45.6179 26.9946 46.1731C27.6829 47.118 28.6388 47.8348 29.7388 48.2305C30.8388 48.6263 32.0323 48.6829 33.1648 48.393C33.6849 48.2578 34.1823 48.047 34.6412 47.7674L43.8 42.1013C45.3106 41.1657 46.9547 40.4653 48.676 40.0243C52.4338 39.0588 56.3949 39.2442 60.046 40.5567C63.6971 41.8691 66.8697 44.248 69.1527 47.3849C70.5144 49.2241 71.4844 51.323 72.0028 53.552C72.5211 55.7809 72.5768 58.0925 72.1663 60.3437C71.7473 62.5627 70.8657 64.6685 69.5791 66.5243C68.2924 68.38 66.6295 69.9441 64.6985 71.1148L40.722 85.9647C39.2114 86.9003 37.5672 87.6006 35.8459 88.0416" fill="white"/>
</svg>
