<svg width="102" height="102" viewBox="0 0 102 102" fill="none" xmlns="http://www.w3.org/2000/svg" role="img" focusable="false">
<title>Icon for threejs 3D library</title>
<path d="M26.1242 100.967L1 1.04967L100.371 28.9563" fill="white"/>
<path d="M19.8804 75.9917L26.1573 101L44.6734 83.0139" fill="white"/>
<path d="M7.32661 26.0083L1.04969 1L25.8427 8.02219" fill="white"/>
<path d="M81.7221 47.0583L100.238 29.0888L75.4452 22.0666" fill="white"/>
<path d="M26.1242 100.967L1 1.04967L100.371 28.9563M38.3965 58.0222L44.6734 83.0139M38.3965 58.0222L63.1895 65.0444M38.3965 58.0222L19.8804 75.9917M38.3965 58.0222L56.9291 40.0361M38.3965 58.0222L32.1196 33.0305M38.3965 58.0222L13.6035 51M44.6734 83.0139L63.1895 65.0444M44.6734 83.0139L19.8804 75.9917M44.6734 83.0139L26.1573 101L19.8804 75.9917M63.1895 65.0444L56.9291 40.0361M63.1895 65.0444L81.7221 47.0583M19.8804 75.9917L13.6035 51M56.9291 40.0361L75.4452 22.0666M56.9291 40.0361L50.6522 15.0444M56.9291 40.0361L32.1196 33.0305M56.9291 40.0361L81.7221 47.0583M75.4452 22.0666L100.238 29.0888L81.7221 47.0583M75.4452 22.0666L81.7221 47.0583M75.4452 22.0666L50.6522 15.0444M50.6522 15.0444L32.1196 33.0139L25.8427 8.02219M50.6522 15.0444L25.8427 8.02219M32.1196 33.0305L7.32661 26.0083M32.1196 33.0305L13.6035 51M13.6035 51L7.32661 26.0083M7.32661 26.0083L1.04969 1L25.8427 8.02219M7.32661 26.0083L25.8427 8.02219" stroke="black" stroke-miterlimit="10"/>
</svg>
