<svg width="89" height="100" viewBox="0 0 89 100" fill="none" xmlns="http://www.w3.org/2000/svg" role="img" focusable="false">
<title>Webpack code bundler</title>
<path d="M44.1887 0L88.3773 24.9959V75.0041L44.1887 100L0 75.0041V24.9959L44.1887 0Z" fill="white"/>
<path d="M80.4901 73.2702L45.6563 92.9963V77.6556L67.3671 65.6998L80.4901 73.2702ZM82.8746 71.1191V29.8987L70.1351 37.252V63.7652L82.8746 71.1191V71.1191ZM7.75385 73.2699L42.588 92.9801V77.639L20.8772 65.6998L7.75385 73.2702V73.2699ZM5.36938 71.1191V29.8987L18.1092 37.252V63.7652L5.36938 71.1191V71.1191ZM6.85385 27.2308L42.588 7.02036V21.8615L19.6934 34.4508L19.5098 34.5509L6.85385 27.2305V27.2308ZM81.3739 27.2308L45.6563 7.02002V21.8612L68.5343 34.4671L68.7176 34.5672L81.3739 27.2301V27.2308Z" fill="#8ED6FB"/>
<path d="M42.588 74.1537L21.1772 62.3643V39.0361L42.588 51.3924V74.1537V74.1537ZM45.6564 74.1537L67.0672 62.3812V39.0361L45.6564 51.3924V74.1537V74.1537ZM22.6113 36.3347L44.1222 24.5122L65.6159 36.3347L44.1222 48.7411L22.6113 36.3347V36.3347Z" fill="#1C78C0"/>
</svg>
