<svg viewBox="0 0 50 50" fill="none" aria-hidden="true" focusable="false"  xmlns="http://www.w3.org/2000/svg">
<path fill-rule="evenodd" clip-rule="evenodd" d="M25 1C11.1875 1 0 12.1875 0 26C0 37.0625 7.15625 46.4063 17.0937 49.7188C18.3437 49.9375 18.8125 49.1875 18.8125 48.5313C18.8125 47.9375 18.7813 45.9688 18.7813 43.875C12.5 45.0313 10.875 42.3437 10.375 40.9375C10.0937 40.2187 8.875 38 7.8125 37.4062C6.9375 36.9375 5.6875 35.7812 7.78125 35.75C9.75 35.7187 11.1563 37.5625 11.625 38.3125C13.875 42.0937 17.4688 41.0313 18.9063 40.375C19.125 38.75 19.7812 37.6562 20.5 37.0312C14.9375 36.4062 9.125 34.25 9.125 24.6875C9.125 21.9687 10.0938 19.7187 11.6875 17.9687C11.4375 17.3437 10.5625 14.7812 11.9375 11.3437C11.9375 11.3437 14.0313 10.6875 18.8125 13.9063C20.8125 13.3438 22.9375 13.0625 25.0625 13.0625C27.1875 13.0625 29.3125 13.3438 31.3125 13.9063C36.0938 10.6563 38.1875 11.3437 38.1875 11.3437C39.5625 14.7812 38.6875 17.3437 38.4375 17.9687C40.0313 19.7187 41 21.9375 41 24.6875C41 34.2812 35.1563 36.4062 29.5938 37.0312C30.5 37.8125 31.2813 39.3125 31.2813 41.6563C31.2813 45 31.25 47.6875 31.25 48.5313C31.25 49.1875 31.7188 49.9688 32.9688 49.7188C42.8438 46.4063 50 37.0312 50 26C50 12.1875 38.8125 1 25 1Z" fill="#1B1F23"/>
</svg>
