<svg viewBox="0 0 50 50" fill="none" aria-hidden="true" focusable="false"  xmlns="http://www.w3.org/2000/svg">
<path fill-rule="evenodd" clip-rule="evenodd" d="M25 1.00049C11.1875 1.00049 0 12.188 0 26.0005C0 37.063 7.15625 46.4067 17.0938 49.7192C18.3438 49.938 18.8125 49.188 18.8125 48.5317C18.8125 47.938 18.7812 45.9692 18.7812 43.8755C12.5 45.0317 10.875 42.3442 10.375 40.938C10.0938 40.2192 8.875 38.0005 7.8125 37.4067C6.9375 36.938 5.6875 35.7817 7.78125 35.7505C9.75 35.7192 11.1562 37.563 11.625 38.313C13.875 42.0942 17.4688 41.0317 18.9062 40.3755C19.125 38.7505 19.7812 37.6567 20.5 37.0317C14.9375 36.4067 9.125 34.2505 9.125 24.688C9.125 21.9692 10.0938 19.7192 11.6875 17.9692C11.4375 17.3442 10.5625 14.7817 11.9375 11.3442C11.9375 11.3442 14.0312 10.688 18.8125 13.9067C20.8125 13.3442 22.9375 13.063 25.0625 13.063C27.1875 13.063 29.3125 13.3442 31.3125 13.9067C36.0938 10.6567 38.1875 11.3442 38.1875 11.3442C39.5625 14.7817 38.6875 17.3442 38.4375 17.9692C40.0312 19.7192 41 21.938 41 24.688C41 34.2817 35.1562 36.4067 29.5938 37.0317C30.5 37.813 31.2812 39.313 31.2812 41.6567C31.2812 45.0005 31.25 47.688 31.25 48.5317C31.25 49.188 31.7188 49.9692 32.9688 49.7192C42.8438 46.4067 50 37.0317 50 26.0005C50 12.188 38.8125 1.00049 25 1.00049Z" fill="#0F0F0F"/>
</svg>
