<svg width="100%" height="100%" preserveAspectRatio="none" viewBox="0 0 50 36" fill="none" xmlns="http://www.w3.org/2000/svg">
<path d="M48.8966 5.48343C48.6098 4.42354 48.0503 3.45728 47.2739 2.68088C46.4975 1.90447 45.5312 1.34501 44.4714 1.05821C40.5913 0 24.9747 0 24.9747 0C24.9747 0 9.35815 0.0320668 5.47806 1.09027C4.41818 1.37707 3.45192 1.93654 2.67551 2.71294C1.8991 3.48935 1.33964 4.45561 1.05284 5.5155C-0.120809 12.4099 -0.576159 22.915 1.0849 29.5336C1.37171 30.5935 1.93117 31.5597 2.70757 32.3361C3.48398 33.1125 4.45024 33.672 5.51013 33.9588C9.39022 35.017 25.0068 35.017 25.0068 35.017C25.0068 35.017 40.6233 35.017 44.5034 33.9588C45.5633 33.672 46.5296 33.1125 47.306 32.3361C48.0824 31.5597 48.6418 30.5935 48.9286 29.5336C50.1664 22.6296 50.548 12.1309 48.8966 5.48343Z" fill="#1B1F23"/>
<path d="M20.0044 25.0112L32.9594 17.5075L20.0044 10.0039V25.0112Z" fill="white"/>
</svg>
