<svg viewBox="0 0 50 50" fill="none" aria-hidden="true" focusable="false" xmlns="http://www.w3.org/2000/svg">
<path d="M48.8966 12.4834C48.6098 11.4235 48.0503 10.4573 47.2739 9.68088C46.4975 8.90447 45.5312 8.34501 44.4714 8.05821C40.5913 7 24.9747 7 24.9747 7C24.9747 7 9.35815 7.03207 5.47806 8.09027C4.41818 8.37707 3.45192 8.93654 2.67551 9.71294C1.8991 10.4894 1.33964 11.4556 1.05284 12.5155C-0.120809 19.4099 -0.576159 29.915 1.0849 36.5336C1.37171 37.5935 1.93117 38.5597 2.70757 39.3361C3.48398 40.1125 4.45024 40.672 5.51013 40.9588C9.39022 42.017 25.0068 42.017 25.0068 42.017C25.0068 42.017 40.6233 42.017 44.5034 40.9588C45.5633 40.672 46.5296 40.1125 47.306 39.3361C48.0824 38.5597 48.6418 37.5935 48.9286 36.5336C50.1664 29.6296 50.548 19.1309 48.8966 12.4834Z" fill="#1B1F23"/>
<path d="M20.0044 32.0112L32.9594 24.5075L20.0044 17.0039V32.0112Z" fill="white"/>
</svg>
