<svg viewBox="0 0 50 50" fill="none" aria-hidden="true" focusable="false" xmlns="http://www.w3.org/2000/svg">
<path d="M48.8966 14.4834C48.6098 13.4235 48.0503 12.4573 47.2739 11.6809C46.4975 10.9045 45.5312 10.345 44.4714 10.0582C40.5913 9 24.9747 9 24.9747 9C24.9747 9 9.35815 9.03207 5.47806 10.0903C4.41818 10.3771 3.45192 10.9365 2.67551 11.7129C1.8991 12.4894 1.33964 13.4556 1.05284 14.5155C-0.120809 21.4099 -0.576159 31.915 1.0849 38.5336C1.37171 39.5935 1.93117 40.5597 2.70757 41.3361C3.48398 42.1125 4.45024 42.672 5.51013 42.9588C9.39022 44.017 25.0068 44.017 25.0068 44.017C25.0068 44.017 40.6233 44.017 44.5034 42.9588C45.5633 42.672 46.5296 42.1125 47.306 41.3361C48.0824 40.5597 48.6418 39.5935 48.9286 38.5336C50.1664 31.6296 50.548 21.1309 48.8966 14.4834Z" fill="#0F0F0F"/>
<path d="M20.0044 34.0073L32.9594 26.5036L20.0044 19V34.0073Z" fill="white"/>
</svg>
