<svg id="contact-phone" class="head-bob" viewBox="0 0 244 347" fill="none" xmlns="http://www.w3.org/2000/svg" role="img" focusable="false">
<title>Illustration of a phone, on the screen there is a chat bubble icon, email icon and an @ sign icon</title>
<g filter="url(#filter0_d_818_1078)">
<path d="M213.464 47.2305C213.848 45.588 213.905 43.8858 213.63 42.2214C213.356 40.5569 212.755 38.963 211.864 37.5311C210.972 36.0991 209.806 34.8572 208.434 33.8765C207.061 32.8958 205.509 32.1957 203.865 31.8162L81.9031 3.65913C80.2635 3.27924 78.565 3.22618 76.9049 3.503C75.2447 3.77981 73.6554 4.38108 72.2277 5.27241C70.8 6.16375 69.562 7.32769 68.5844 8.69772C67.6067 10.0677 66.9087 11.617 66.5301 13.2569L7.32519 269.701C6.56094 273.012 7.14301 276.49 8.94337 279.371C10.7437 282.252 13.6149 284.3 16.9252 285.065L138.897 313.224C142.208 313.989 145.687 313.407 148.57 311.607C151.453 309.808 153.503 306.937 154.27 303.626L213.464 47.2305Z" fill="#3D3D3D"/>
</g>
<path d="M201.521 37.9254L158.259 27.9376C157.012 27.6514 155.712 27.7043 154.493 28.0906C153.274 28.477 152.181 29.1827 151.327 30.1346C149.821 31.8078 147.894 33.0474 145.747 33.7245C143.6 34.4016 141.311 34.4917 139.118 33.9853C136.924 33.4788 134.906 32.3945 133.273 30.8447C131.64 29.2949 130.452 27.3363 129.832 25.1722C129.49 23.9293 128.818 22.8021 127.888 21.9098C126.957 21.0175 125.803 20.3933 124.547 20.1033L81.3335 10.1268C80.1509 9.83745 78.9229 9.78394 77.7196 9.96928C76.5163 10.1546 75.3613 10.5752 74.3206 11.2069C73.2798 11.8387 72.3737 12.6692 71.654 13.6512C70.9343 14.6332 70.415 15.7473 70.1259 16.93L13.7936 260.932C13.2741 263.334 13.729 265.845 15.0585 267.912C16.3879 269.98 18.4832 271.435 20.8847 271.959L141.083 299.709C143.472 300.291 145.994 299.902 148.097 298.627C150.2 297.352 151.711 295.296 152.3 292.909L208.621 48.9555C209.141 46.5513 208.685 44.039 207.354 41.9708C206.022 39.9025 203.924 38.4475 201.521 37.9254Z" fill="#BA91FF"/>
<path d="M116.431 232.009C115.847 234.812 114.707 237.469 113.08 239.825C111.453 242.181 109.371 244.188 106.957 245.727C104.543 247.266 101.845 248.306 99.0219 248.787C96.1993 249.267 93.3091 249.177 90.5215 248.524C84.8342 247.188 79.8942 243.682 76.7559 238.754C73.6176 233.827 72.5296 227.868 73.724 222.149C74.3093 219.347 75.4491 216.691 77.0765 214.336C78.7038 211.981 80.7858 209.976 83.1998 208.438C85.6139 206.9 88.3112 205.86 91.133 205.381C93.9548 204.901 96.8442 204.99 99.6309 205.644C105.318 206.977 110.258 210.481 113.397 215.407C116.536 220.333 117.625 226.291 116.431 232.009Z" fill="#F4F4F4"/>
<path d="M132.854 158.694C132.269 161.496 131.129 164.152 129.501 166.507C127.874 168.862 125.792 170.867 123.378 172.405C120.964 173.943 118.267 174.983 115.445 175.463C112.623 175.942 109.734 175.853 106.947 175.199C101.26 173.866 96.3194 170.363 93.1805 165.436C90.0415 160.51 88.9529 154.552 90.1471 148.834C90.73 146.031 91.8683 143.372 93.495 141.016C95.1217 138.659 97.2038 136.652 99.6185 135.112C102.033 133.573 104.732 132.533 107.555 132.053C110.378 131.574 113.269 131.664 116.056 132.319C121.744 133.655 126.684 137.161 129.822 142.089C132.96 147.016 134.048 152.975 132.854 158.694Z" fill="#F4F4F4"/>
<path d="M149.271 87.5845C148.175 92.8633 144.226 96.8984 138.905 98.9644L135.96 111.719L128.926 100.448C127.385 100.37 125.855 100.155 124.354 99.8025C112.564 97.0806 104.593 87.1943 106.564 77.7249C108.535 68.2555 119.679 62.7924 131.479 65.5166C143.279 68.2408 151.279 78.1751 149.271 87.5845Z" fill="#F4F4F4"/>
<path d="M84.3853 241.252C82.5792 240.066 81.0262 238.533 79.816 236.743C78.6069 234.891 77.824 232.794 77.5239 230.603C77.1732 228.144 77.2969 225.64 77.888 223.228C78.3522 221.161 79.1901 219.197 80.3604 217.432C81.4306 215.799 82.7978 214.381 84.391 213.253C87.5148 211.1 91.1884 209.885 94.9795 209.75C96.841 209.682 98.7034 209.861 100.518 210.282C102.027 210.623 103.488 211.149 104.867 211.849C106.199 212.521 107.421 213.393 108.491 214.433C109.552 215.457 110.441 216.645 111.123 217.953C111.824 219.354 112.256 220.875 112.397 222.437C112.559 224.218 112.427 226.014 112.008 227.753C111.209 231.116 109.245 234.088 106.464 236.14C105.275 236.991 103.952 237.635 102.549 238.047C101.337 238.414 100.052 238.468 98.8129 238.206C97.9585 238.021 97.1888 237.559 96.6226 236.893C96.3381 236.56 96.1349 236.165 96.0292 235.74C95.9234 235.315 95.9179 234.871 96.0131 234.443C95.1531 235.263 94.0975 235.851 92.9466 236.148C91.7957 236.446 90.5878 236.445 89.4377 236.144C88.5175 235.974 87.647 235.601 86.8898 235.051C86.1325 234.501 85.5079 233.789 85.0616 232.967C84.1753 231.28 83.9529 229.322 84.4381 227.478C84.7989 225.953 85.4144 224.499 86.2588 223.178C87.1037 221.845 88.1418 220.645 89.3393 219.617C90.5287 218.61 91.9193 217.869 93.4182 217.442C94.9203 216.999 96.5119 216.954 98.0365 217.312C99.0999 217.547 100.088 218.042 100.913 218.753C101.712 219.449 102.276 220.376 102.528 221.405L102.872 220.8C103.132 220.38 103.548 220.081 104.028 219.968C104.508 219.854 105.014 219.936 105.434 220.196C105.596 220.296 105.743 220.42 105.87 220.562C105.988 220.711 106.069 220.886 106.106 221.072C106.143 221.258 106.135 221.45 106.083 221.633C106.041 221.815 105.97 221.988 105.872 222.146L100.314 231.88C99.8533 232.612 99.4831 233.398 99.2119 234.221C99.1467 234.371 99.1196 234.535 99.1328 234.698C99.146 234.861 99.1992 235.018 99.2876 235.156C99.3761 235.293 99.4971 235.407 99.6399 235.487C99.7827 235.566 99.943 235.61 100.107 235.613C101.235 235.798 102.392 235.542 103.337 234.897C104.625 234.103 105.72 233.033 106.544 231.764C107.495 230.391 108.177 228.849 108.554 227.221C108.897 225.79 109.017 224.315 108.909 222.848C108.825 221.584 108.516 220.347 107.995 219.193C107.494 218.135 106.814 217.173 105.985 216.347C105.16 215.516 104.211 214.818 103.172 214.278C102.107 213.718 100.975 213.298 99.802 213.029C98.3147 212.688 96.7873 212.556 95.2636 212.636C93.6957 212.713 92.1476 213.02 90.6691 213.547C89.1811 214.067 87.7744 214.795 86.4909 215.71C85.1626 216.679 84.0249 217.885 83.1351 219.268C82.1466 220.769 81.4394 222.438 81.0479 224.192C80.5372 226.259 80.4373 228.406 80.754 230.511C81.0256 232.333 81.7168 234.067 82.7731 235.576C83.8034 236.992 85.0913 238.201 86.5693 239.14C88.1285 240.133 89.8477 240.848 91.6509 241.253C93.5755 241.698 95.5563 241.848 97.5259 241.7C97.7247 241.677 97.9261 241.689 98.1208 241.735C98.3034 241.775 98.4757 241.852 98.6263 241.962C98.7769 242.073 98.9024 242.214 98.9946 242.377C99.0887 242.534 99.1507 242.708 99.1772 242.89C99.2037 243.071 99.1941 243.256 99.149 243.434C99.1072 243.722 98.9628 243.984 98.7425 244.174C98.5223 244.363 98.2409 244.467 97.9503 244.465C95.4989 244.637 93.0355 244.454 90.6363 243.921C88.4123 243.405 86.2964 242.501 84.3853 241.252ZM94.722 233.041C95.8403 232.574 96.7777 231.758 97.3949 230.715L101.069 224.052L101 223.73C100.928 223.467 100.825 223.213 100.694 222.974C100.516 222.638 100.31 222.317 100.078 222.015C99.7815 221.641 99.4236 221.32 99.0198 221.065C97.9641 220.399 96.6967 220.154 95.4688 220.378C94.7972 220.496 94.1515 220.731 93.5611 221.072C92.9475 221.427 92.3765 221.85 91.8594 222.335C91.3363 222.843 90.865 223.401 90.4524 224.003C90.027 224.601 89.6577 225.238 89.3491 225.904C89.0488 226.536 88.817 227.199 88.6578 227.88C88.5481 228.316 88.473 228.76 88.4331 229.208C88.3888 229.604 88.3855 230.004 88.4233 230.401C88.4505 230.769 88.5286 231.131 88.6553 231.477C88.7684 231.788 88.9373 232.077 89.1538 232.328C89.3849 232.593 89.6632 232.813 89.9746 232.977C90.3357 233.18 90.7263 233.325 91.1322 233.408C92.3425 233.703 93.6167 233.587 94.7541 233.079L94.722 233.041Z" fill="#5C00F6"/>
<path d="M127.794 146.856L127.537 162.284C127.53 162.687 127.363 163.071 127.074 163.351C126.784 163.631 126.395 163.785 125.992 163.779L96.6096 163.29C96.2071 163.282 95.8239 163.116 95.5438 162.826C95.2638 162.537 95.1097 162.149 95.1151 161.746L95.3698 146.317C95.3776 145.915 95.5447 145.531 95.8345 145.251C96.1243 144.971 96.5133 144.817 96.9162 144.824L126.299 145.312C126.702 145.32 127.085 145.487 127.365 145.777C127.645 146.067 127.799 146.456 127.793 146.859L127.794 146.856Z" fill="#3F00AA"/>
<path d="M127.326 145.734L115.318 155.06C114.205 155.924 112.83 156.383 111.42 156.359C110.011 156.336 108.651 155.832 107.567 154.931L95.8748 145.213C96.1598 144.954 96.5324 144.815 96.9168 144.821L126.3 145.31C126.683 145.316 127.05 145.468 127.326 145.734Z" fill="#5C00F6"/>
<path d="M132.289 84.0541C131.793 86.2067 129.645 87.5488 127.492 87.0518C125.34 86.5549 123.998 84.407 124.495 82.2545C124.991 80.102 127.139 78.7599 129.292 79.2568C131.444 79.7538 132.786 81.9016 132.289 84.0541Z" fill="#5C00F6"/>
<path d="M143.982 86.7535C143.485 88.9061 141.337 90.2482 139.185 89.7512C137.032 89.2543 135.69 87.1064 136.187 84.9539C136.684 82.8014 138.832 81.4593 140.984 81.9563C143.137 82.4532 144.479 84.601 143.982 86.7535Z" fill="#5C00F6"/>
<path d="M120.597 81.3547C120.1 83.5072 117.952 84.8493 115.8 84.3524C113.647 83.8554 112.305 81.7076 112.802 79.5551C113.299 77.4026 115.447 76.0605 117.599 76.5574C119.752 77.0544 121.094 79.2022 120.597 81.3547Z" fill="#5C00F6"/>
<g opacity="0.2">
<path d="M174.907 25.1719L28.9249 287.856L61.1053 295.254L204.08 31.9069L174.907 25.1719Z" fill="#F4F4F4"/>
<path d="M162.825 22.3825L12.2024 284.005L16.8959 285.058L165.904 23.0933L162.825 22.3825Z" fill="#F4F4F4"/>
</g>
<path d="M213.464 47.2305C213.848 45.588 213.905 43.8858 213.63 42.2214C213.356 40.5569 212.755 38.963 211.864 37.5311C210.972 36.0991 209.806 34.8572 208.434 33.8765C207.061 32.8958 205.509 32.1957 203.865 31.8162L81.9031 3.65913C80.2635 3.27924 78.565 3.22618 76.9049 3.503C75.2447 3.77981 73.6554 4.38108 72.2277 5.27241C70.8 6.16375 69.562 7.32769 68.5844 8.69772C67.6067 10.0677 66.9087 11.617 66.5301 13.2569L7.32519 269.701C6.56094 273.012 7.14301 276.49 8.94337 279.371C10.7437 282.252 13.6149 284.3 16.9252 285.065L138.897 313.224C142.208 313.989 145.687 313.407 148.57 311.607C151.453 309.808 153.503 306.937 154.27 303.626L213.464 47.2305ZM152.3 292.909C151.711 295.296 150.2 297.352 148.097 298.627C145.995 299.902 143.472 300.291 141.083 299.709L20.8847 271.96C18.4833 271.435 16.3879 269.98 15.0585 267.912C13.7291 265.845 13.2742 263.334 13.7937 260.932L70.1147 16.9787C70.4038 15.796 70.9231 14.6819 71.6428 13.6999C72.3625 12.718 73.2686 11.8874 74.3094 11.2556C75.3501 10.6239 76.5051 10.2034 77.7084 10.018C78.9117 9.83269 80.1397 9.88619 81.3223 10.1755L124.555 20.1566C125.81 20.4459 126.963 21.0698 127.892 21.9618C128.821 22.8539 129.491 23.9809 129.831 25.2232C130.451 27.3873 131.639 29.3459 133.272 30.8957C134.905 32.4454 136.923 33.5298 139.116 34.0363C141.31 34.5427 143.599 34.4526 145.746 33.7755C147.893 33.0984 149.819 31.8588 151.325 30.1856C152.178 29.232 153.271 28.525 154.491 28.1385C155.71 27.752 157.011 27.7003 158.257 27.9886L201.519 37.9764C202.709 38.2348 203.836 38.7251 204.836 39.4191C205.837 40.1132 206.69 40.9975 207.349 42.0215C208.007 43.0456 208.458 44.1893 208.674 45.3874C208.89 46.5855 208.869 47.8145 208.61 49.0042L152.3 292.909Z" fill="#3D3D3D"/>
<defs>
<filter id="filter0_d_818_1078" x="0.996826" y="0.328552" width="242.804" height="346.224" filterUnits="userSpaceOnUse" color-interpolation-filters="sRGB">
<feFlood flood-opacity="0" result="BackgroundImageFix"/>
<feColorMatrix in="SourceAlpha" type="matrix" values="0 0 0 0 0 0 0 0 0 0 0 0 0 0 0 0 0 0 127 0" result="hardAlpha"/>
<feOffset dx="12" dy="15"/>
<feGaussianBlur stdDeviation="9"/>
<feComposite in2="hardAlpha" operator="out"/>
<feColorMatrix type="matrix" values="0 0 0 0 0 0 0 0 0 0 0 0 0 0 0 0 0 0 0.25 0"/>
<feBlend mode="normal" in2="BackgroundImageFix" result="effect1_dropShadow_818_1078"/>
<feBlend mode="normal" in="SourceGraphic" in2="effect1_dropShadow_818_1078" result="shape"/>
</filter>
</defs>
</svg>
