<svg id="contact-phone" viewBox="0 0 152 289" fill="none" xmlns="http://www.w3.org/2000/svg" role="img" focusable="false">
<title>Illustration of a phone, on the screen there is a chat bubble icon, email icon and an @ sign icon</title>
<path d="M137.935 6.47999H93.5348C92.256 6.48151 91.001 6.82547 89.9001 7.47614C88.7993 8.12681 87.8928 9.06043 87.2748 10.18C86.1837 12.1491 84.5854 13.7903 82.6458 14.933C80.7062 16.0758 78.496 16.6784 76.2448 16.6784C73.9936 16.6784 71.7835 16.0758 69.8438 14.933C67.9042 13.7903 66.3059 12.1491 65.2148 10.18C64.6018 9.04595 63.6936 8.09874 62.5863 7.43861C61.4791 6.77847 60.2139 6.42996 58.9248 6.42999H14.5748C13.3574 6.41412 12.1489 6.63824 11.0181 7.0895C9.88733 7.54077 8.85654 8.21036 7.98457 9.06004C7.11261 9.90971 6.41656 10.9228 5.93617 12.0415C5.45579 13.1602 5.20047 14.3626 5.18481 15.58V266C5.21907 268.458 6.22703 270.802 7.98746 272.517C9.74789 274.232 12.117 275.179 14.5748 275.15H137.935C140.394 275.179 142.764 274.233 144.526 272.518C146.288 270.802 147.298 268.459 147.335 266V15.63C147.301 13.1705 146.291 10.8252 144.529 9.10943C142.766 7.39371 140.394 6.44794 137.935 6.47999Z" fill="#BA91FF"/>
<path d="M98.6848 214.73C98.7462 217.593 98.2341 220.438 97.1788 223.1C96.1234 225.762 94.5462 228.185 92.5398 230.228C90.5335 232.271 88.1387 233.891 85.4964 234.994C82.8542 236.097 80.018 236.66 77.1548 236.65C71.3127 236.628 65.7107 234.323 61.5444 230.228C57.378 226.132 54.9774 220.571 54.8548 214.73C54.7948 211.868 55.3078 209.023 56.3637 206.363C57.4197 203.703 58.9972 201.28 61.0034 199.239C63.0096 197.197 65.4039 195.577 68.0455 194.475C70.6871 193.373 73.5225 192.81 76.3848 192.82C82.2259 192.84 87.8279 195.142 91.9946 199.236C96.1612 203.33 98.5621 208.89 98.6848 214.73Z" fill="#F4F4F4"/>
<path d="M98.1948 139.6C98.2548 142.462 97.7417 145.307 96.6858 147.967C95.6299 150.627 94.0524 153.05 92.0462 155.091C90.04 157.133 87.6456 158.753 85.004 159.855C82.3625 160.957 79.5271 161.52 76.6648 161.51C70.8236 161.49 65.2216 159.188 61.055 155.094C56.8884 151 54.4874 145.44 54.3648 139.6C54.302 136.737 54.8131 133.891 55.868 131.228C56.9228 128.566 58.5 126.142 60.5066 124.099C62.5133 122.056 64.9086 120.436 67.5515 119.333C70.1944 118.231 73.0312 117.669 75.8948 117.68C81.7368 117.702 87.3389 120.007 91.5052 124.102C95.6715 128.198 98.0722 133.759 98.1948 139.6Z" fill="#F4F4F4"/>
<path d="M98.1948 66.62C98.3148 72.01 95.3748 76.83 90.6548 80.04V93.13L81.2648 83.73C79.7466 84.0014 78.207 84.1353 76.6648 84.13C64.5648 84.13 54.5748 76.29 54.3648 66.62C54.1548 56.95 63.7848 49.12 75.8948 49.12C88.0048 49.12 98.0348 57 98.1948 66.62Z" fill="#F4F4F4"/>
<path d="M69.5402 230.945C67.5136 230.195 65.6556 229.051 64.0737 227.579C62.479 226.047 61.2445 224.18 60.4592 222.113C59.5644 219.795 59.1216 217.328 59.1548 214.844C59.1423 212.726 59.5169 210.624 60.2601 208.641C60.9355 206.809 61.9488 205.12 63.2473 203.662C65.8069 200.862 69.1129 198.852 72.7764 197.867C74.575 197.382 76.4299 197.138 78.2927 197.14C79.8395 197.133 81.3813 197.317 82.883 197.688C84.3322 198.043 85.7188 198.618 86.9953 199.39C88.2593 200.15 89.3924 201.108 90.351 202.228C91.3499 203.436 92.1132 204.821 92.6013 206.311C93.1596 208.01 93.4354 209.789 93.4178 211.578C93.3968 215.035 92.1515 218.372 89.9029 220.998C88.9359 222.094 87.7915 223.019 86.5174 223.736C85.4189 224.366 84.1791 224.709 82.9129 224.732C82.0386 224.743 81.1849 224.467 80.4833 223.945C80.1311 223.684 79.8444 223.345 79.6457 222.955C79.4469 222.564 79.3417 222.133 79.3382 221.695C78.6849 222.688 77.7884 223.497 76.734 224.046C75.6796 224.595 74.5023 224.865 73.3141 224.831C72.3793 224.873 71.447 224.705 70.5856 224.34C69.7241 223.974 68.9553 223.421 68.3354 222.72C67.0923 221.275 66.4351 219.418 66.4933 217.513C66.5016 215.945 66.7742 214.389 67.2999 212.912C67.8232 211.424 68.5648 210.021 69.5004 208.75C70.4328 207.501 71.621 206.466 72.9855 205.713C74.3494 204.943 75.8902 204.542 77.4563 204.548C78.5451 204.537 79.6196 204.797 80.5829 205.305C81.5181 205.804 82.2763 206.579 82.7536 207.525L82.9527 206.858C83.1114 206.391 83.4491 206.006 83.8916 205.787C84.334 205.569 84.8452 205.535 85.3126 205.693C85.4934 205.755 85.6644 205.842 85.8204 205.952C85.9688 206.071 86.0869 206.223 86.1648 206.396C86.2428 206.569 86.2783 206.758 86.2685 206.948C86.2688 207.134 86.2385 207.319 86.1789 207.496L82.9527 218.23C82.6682 219.047 82.4844 219.897 82.4051 220.759C82.3754 220.92 82.3857 221.085 82.4353 221.241C82.4848 221.397 82.572 221.538 82.6892 221.652C82.8063 221.767 82.9498 221.85 83.1069 221.896C83.264 221.941 83.4299 221.947 83.59 221.914C84.7317 221.841 85.8014 221.331 86.5772 220.49C87.6529 219.426 88.4793 218.137 88.9968 216.716C89.6147 215.164 89.9323 213.508 89.9328 211.837C89.9459 210.366 89.731 208.901 89.2955 207.496C88.9295 206.284 88.3494 205.147 87.5828 204.14C86.8568 203.223 85.9775 202.438 84.984 201.82C83.9935 201.195 82.9118 200.728 81.7777 200.436C80.6142 200.13 79.4161 199.976 78.2131 199.978C76.6872 199.98 75.1691 200.195 73.7024 200.615C72.1921 201.043 70.7528 201.69 69.4307 202.537C68.0978 203.378 66.8909 204.404 65.8461 205.584C64.7699 206.827 63.9327 208.258 63.3767 209.806C62.7513 211.491 62.4375 213.276 62.4507 215.073C62.418 217.202 62.8037 219.316 63.5858 221.296C64.2603 223.01 65.3238 224.544 66.6925 225.777C68.0149 226.925 69.5418 227.813 71.1932 228.396C72.9356 229.012 74.7717 229.322 76.6199 229.312C78.5951 229.312 80.559 229.013 82.4449 228.426C82.6333 228.358 82.8322 228.324 83.0324 228.326C83.2191 228.323 83.4044 228.36 83.576 228.434C83.7476 228.508 83.9017 228.617 84.0281 228.754C84.1551 228.887 84.2548 229.043 84.3215 229.214C84.3881 229.384 84.4204 229.567 84.4164 229.75C84.4403 230.04 84.3588 230.328 84.1868 230.562C84.0148 230.797 83.7639 230.961 83.4804 231.025C81.1304 231.743 78.6889 232.119 76.2315 232.14C73.9483 232.137 71.6834 231.732 69.5402 230.945ZM77.765 220.619C78.7494 219.912 79.4793 218.907 79.846 217.752L81.9271 210.433L81.7877 210.134C81.6583 209.894 81.5012 209.67 81.3197 209.467C81.0702 209.179 80.797 208.913 80.5032 208.671C80.1301 208.373 79.7093 208.14 79.2586 207.983C78.0801 207.572 76.7901 207.618 75.6441 208.113C75.0162 208.379 74.4399 208.753 73.9414 209.218C73.4232 209.702 72.9621 210.243 72.5673 210.831C72.1718 211.444 71.8383 212.094 71.5715 212.773C71.2917 213.452 71.075 214.155 70.9243 214.874C70.7739 215.557 70.6971 216.255 70.6953 216.955C70.6865 217.404 70.7131 217.854 70.775 218.299C70.8209 218.695 70.9077 219.086 71.0338 219.464C71.143 219.816 71.3005 220.151 71.5018 220.46C71.6821 220.738 71.9116 220.981 72.1789 221.177C72.4639 221.383 72.7846 221.535 73.1249 221.625C73.5223 221.741 73.9356 221.795 74.3496 221.784C75.5954 221.8 76.8109 221.4 77.8048 220.649L77.765 220.619Z" fill="#5C00F6"/>
<path d="M90.6014 129.204L93.8215 144.294C93.9052 144.688 93.8293 145.1 93.6103 145.438C93.3912 145.776 93.0471 146.013 92.6532 146.098L63.9135 152.231C63.5195 152.314 63.1086 152.238 62.7707 152.019C62.4327 151.8 62.1952 151.457 62.1099 151.063L58.8874 135.973C58.8044 135.578 58.881 135.167 59.1004 134.829C59.3198 134.491 59.6642 134.254 60.0581 134.169L88.7979 128.036C89.1922 127.953 89.6034 128.029 89.9414 128.249C90.2794 128.468 90.5167 128.812 90.6014 129.206V129.204Z" fill="#3F00AA"/>
<path d="M89.8932 128.216L80.2914 140.003C79.4009 141.096 78.164 141.852 76.7853 142.147C75.4067 142.441 73.9688 142.256 72.7097 141.622L59.1309 134.782C59.3505 134.467 59.6821 134.247 60.0582 134.167L88.7979 128.033C89.1729 127.953 89.5643 128.019 89.8932 128.216Z" fill="#5C00F6"/>
<circle cx="76.8547" cy="67" r="4" fill="#5C00F6"/>
<circle cx="88.8547" cy="67" r="4" fill="#5C00F6"/>
<circle cx="64.8547" cy="67" r="4" fill="#5C00F6"/>
<g opacity="0.2">
<path d="M109.135 0.039978L25.9847 288.83L59.0047 288.8L139.075 0.039978H109.135Z" fill="#F4F4F4"/>
<path d="M96.7347 0.039978L8.82471 288.84L13.6347 288.81L99.8947 0.039978H96.7347Z" fill="#F4F4F4"/>
</g>
<path d="M151.665 12.86C151.67 11.1731 151.342 9.50173 150.7 7.94172C150.058 6.3817 149.115 4.96372 147.924 3.76903C146.733 2.57434 145.318 1.62644 143.76 0.979679C142.202 0.332914 140.532 -4.30765e-06 138.845 3.90359e-06H13.6747C11.9917 -0.00130997 10.3248 0.329058 8.76949 0.972233C7.21415 1.61541 5.80081 2.55878 4.61023 3.74843C3.41965 4.93808 2.47518 6.35069 1.8308 7.90552C1.18641 9.46035 0.854736 11.1269 0.854736 12.81V276C0.854736 279.397 2.20435 282.656 4.60669 285.058C7.00903 287.46 10.2673 288.81 13.6647 288.81H138.845C142.243 288.81 145.502 287.461 147.906 285.059C150.31 282.657 151.662 279.398 151.665 276V12.86ZM147.335 266C147.298 268.459 146.288 270.802 144.526 272.518C142.764 274.233 140.394 275.179 137.935 275.15H14.5747C12.1169 275.179 9.7478 274.232 7.98737 272.517C6.22693 270.802 5.21898 268.458 5.18472 266V15.63C5.20038 14.4126 5.4557 13.2102 5.93608 12.0915C6.41647 10.9728 7.11252 9.95971 7.98448 9.11003C8.85644 8.26036 9.88724 7.59078 11.018 7.13951C12.1488 6.68825 13.3573 6.46414 14.5747 6.48H58.9447C60.2326 6.47963 61.4965 6.82808 62.6022 7.48835C63.708 8.14861 64.6142 9.09604 65.2247 10.23C66.3158 12.1991 67.9141 13.8403 69.8537 14.983C71.7933 16.1258 74.0035 16.7284 76.2547 16.7284C78.5059 16.7284 80.7161 16.1258 82.6557 14.983C84.5953 13.8403 86.1937 12.1991 87.2847 10.23C87.901 9.10905 88.8072 8.17427 89.9084 7.52338C91.0097 6.87249 92.2655 6.52941 93.5447 6.53H137.945C139.162 6.51414 140.371 6.73824 141.501 7.1895C142.632 7.64077 143.663 8.31036 144.535 9.16004C145.407 10.0097 146.103 11.0228 146.583 12.1415C147.064 13.2602 147.319 14.4626 147.335 15.68V266Z" fill="#3D3D3D"/>
</svg>
