<svg xmlns="http://www.w3.org/2000/svg" aria-hidden="true" focusable="false" viewBox="0 0 34 34">
<rect y="0.000488281" width="34" height="34" rx="3" fill="#0A66C2"/>
<path d="M9.99998 13.0011H4.99998V29.0011H9.99998V13.0011ZM10.45 7.50107C10.4526 7.12286 10.3807 6.74784 10.2384 6.39741C10.0961 6.04699 9.88618 5.72802 9.62061 5.45873C9.35503 5.18944 9.03901 4.97509 8.69059 4.82794C8.34218 4.68078 7.96819 4.60369 7.58998 4.60107H7.49998C6.73085 4.60107 5.99322 4.90661 5.44937 5.45046C4.90551 5.99432 4.59998 6.73195 4.59998 7.50107C4.59998 8.2702 4.90551 9.00783 5.44937 9.55168C5.99322 10.0955 6.73085 10.4011 7.49998 10.4011C7.87821 10.4104 8.25457 10.3451 8.60756 10.2089C8.96054 10.0727 9.28323 9.86825 9.55719 9.60729C9.83114 9.34634 10.051 9.03396 10.2042 8.68801C10.3574 8.34206 10.4409 7.96932 10.45 7.59107V7.50107ZM29 19.2811C29 14.4711 25.94 12.6011 22.9 12.6011C21.9046 12.5512 20.9136 12.7632 20.0257 13.2159C19.1379 13.6686 18.3842 14.3462 17.84 15.1811H17.7V13.0011H13V29.0011H18V20.4911C17.9277 19.6195 18.2022 18.7546 18.764 18.0843C19.3257 17.414 20.1292 16.9924 21 16.9111H21.19C22.78 16.9111 23.96 17.9111 23.96 20.4311V29.0011H28.96L29 19.2811Z" fill="white"/>
</svg>
