<svg xmlns="http://www.w3.org/2000/svg" aria-hidden="true" focusable="false" viewBox="0 0 34 34">
<g clip-path="url(#clip0_777_2)">
<rect y="0.000488281" width="34" height="34" rx="3" fill="white"/>
<path d="M34 2.50049V31.5005C34 32.1635 33.7366 32.7994 33.2678 33.2683C32.7989 33.7371 32.163 34.0005 31.5 34.0005H2.5C1.83696 34.0005 1.20107 33.7371 0.732233 33.2683C0.263392 32.7994 0 32.1635 0 31.5005L0 2.50049C0 1.83745 0.263392 1.20156 0.732233 0.732721C1.20107 0.26388 1.83696 0.000488281 2.5 0.000488281L31.5 0.000488281C32.163 0.000488281 32.7989 0.26388 33.2678 0.732721C33.7366 1.20156 34 1.83745 34 2.50049ZM10 13.0005H5V29.0005H10V13.0005ZM10.45 7.50049C10.4526 7.12228 10.3807 6.74725 10.2384 6.39683C10.0961 6.0464 9.88621 5.72743 9.62063 5.45814C9.35505 5.18885 9.03903 4.97451 8.69062 4.82735C8.3422 4.68019 7.96821 4.60311 7.59 4.60049H7.5C6.73087 4.60049 5.99325 4.90602 5.44939 5.44988C4.90553 5.99373 4.6 6.73136 4.6 7.50049C4.6 8.26962 4.90553 9.00724 5.44939 9.5511C5.99325 10.095 6.73087 10.4005 7.5 10.4005C7.87824 10.4098 8.2546 10.3445 8.60758 10.2083C8.96057 10.0721 9.28326 9.86766 9.55721 9.60671C9.83117 9.34575 10.051 9.03338 10.2042 8.68743C10.3574 8.34147 10.4409 7.96873 10.45 7.59049V7.50049ZM29 19.2805C29 14.4705 25.94 12.6005 22.9 12.6005C21.9046 12.5506 20.9136 12.7627 20.0258 13.2154C19.1379 13.6681 18.3843 14.3456 17.84 15.1805H17.7V13.0005H13V29.0005H18V20.4905C17.9277 19.6189 18.2023 18.754 18.764 18.0837C19.3257 17.4134 20.1292 16.9918 21 16.9105H21.19C22.78 16.9105 23.96 17.9105 23.96 20.4305V29.0005H28.96L29 19.2805Z" fill="#0A66C2"/>
</g>
<defs>
<clipPath id="clip0_777_2">
<rect y="0.000488281" width="34" height="34" rx="3" fill="white"/>
</clipPath>
</defs>
</svg>
