<svg id="contact-transition" preserveAspectRatio="none" class="svg-transition-piece" viewBox="0 0 1001 134" fill="none" xmlns="http://www.w3.org/2000/svg" aria-hidden="true" focusable="false">
<path d="M93.6676 18.2848L103.162 62.7798C103.409 63.9417 103.185 65.1541 102.539 66.151C101.894 67.148 100.879 67.848 99.7175 68.0977L14.9762 86.1827C13.8145 86.4277 12.603 86.2029 11.6065 85.5574C10.6101 84.912 9.90964 83.8983 9.65829 82.7379L0.156473 38.243C-0.0883485 37.0803 0.137413 35.8679 0.78436 34.8713C1.43131 33.8746 2.44675 33.1748 3.60842 32.9251L88.3498 14.8401C89.5125 14.5952 90.7249 14.821 91.7215 15.468C92.7182 16.1149 93.4179 17.1303 93.6676 18.292V18.2848Z" fill="#3F00AA"/>
<path d="M91.5791 15.3711L63.2674 50.1274C60.6418 53.3498 56.9947 55.5793 52.9296 56.4471C48.8645 57.3149 44.625 56.7691 40.9123 54.8998L0.874023 34.7336C1.5218 33.8031 2.49937 33.1539 3.60831 32.9179L88.3497 14.8328C89.4555 14.5975 90.6094 14.7898 91.5791 15.3711V15.3711Z" fill="#5C00F6"/>
<path d="M157.723 45.2014L147.799 89.6025C147.539 90.7615 146.829 91.7701 145.827 92.4069C144.824 93.0437 143.61 93.2569 142.45 92.9995L57.8866 74.1002C56.7286 73.8385 55.7212 73.129 55.0847 72.1268C54.4482 71.1246 54.2342 69.9112 54.4896 68.7517L64.4076 24.3477C64.67 23.1888 65.3807 22.181 66.3843 21.5449C67.3879 20.9088 68.6027 20.6962 69.7627 20.9537L154.326 39.8529C155.485 40.1152 156.493 40.826 157.129 41.8296C157.765 42.8332 157.978 44.048 157.72 45.2079L157.723 45.2014Z" fill="#3F00AA"/>
<path d="M157.04 41.6818L116.814 61.4662C113.084 63.3001 108.839 63.8058 104.783 62.8994C100.726 61.9931 97.1002 59.729 94.5052 56.4819L66.5234 21.4568C67.5002 20.8811 68.6594 20.6988 69.7657 20.9467L154.329 39.8459C155.432 40.0931 156.401 40.7491 157.04 41.6818V41.6818Z" fill="#5C00F6"/>
<path d="M210.8 22.7322L216.744 67.8389C216.898 69.0167 216.579 70.2076 215.856 71.1503C215.134 72.093 214.067 72.7106 212.889 72.8675L126.982 84.1903C125.805 84.3426 124.615 84.0226 123.673 83.3003C122.731 82.578 122.113 81.5121 121.954 80.3355L116.003 35.2282C115.851 34.0497 116.172 32.8591 116.895 31.9167C117.619 30.9744 118.687 30.3572 119.865 30.2002L205.771 18.8774C206.95 18.7253 208.14 19.0463 209.083 19.7701C210.025 20.4939 210.642 21.5615 210.799 22.7393L210.8 22.7322Z" fill="#3F00AA"/>
<path d="M208.949 19.6623L177.976 52.0693C175.103 55.0738 171.291 57.0078 167.17 57.5512C163.049 58.0946 158.866 57.215 155.313 55.0578L116.996 31.7866C117.715 30.9102 118.741 30.3405 119.866 30.1929L205.772 18.8702C206.893 18.7231 208.028 19.0061 208.949 19.6623V19.6623Z" fill="#5C00F6"/>
<path d="M326.906 31.7577L334.188 76.668C334.377 77.8407 334.093 79.0405 333.399 80.0043C332.704 80.968 331.656 81.617 330.484 81.8089L244.952 95.6789C243.779 95.8662 242.58 95.5817 241.617 94.8877C240.654 94.1937 240.004 93.1466 239.811 91.9753L232.522 47.0647C232.335 45.8913 232.62 44.6916 233.316 43.7281C234.011 42.7647 235.06 42.1161 236.233 41.9241L321.765 28.0541C322.939 27.8671 324.138 28.1526 325.102 28.848C326.065 29.5435 326.714 30.5923 326.906 31.7649L326.906 31.7577Z" fill="#3F00AA"/>
<path d="M324.965 28.7442L294.968 62.0571C292.186 65.1457 288.433 67.192 284.33 67.8576C280.227 68.5233 276.02 67.7683 272.404 65.7176L233.413 43.595C234.106 42.6977 235.114 42.0977 236.234 41.9169L321.766 28.0468C322.882 27.8665 324.025 28.1157 324.965 28.7442V28.7442Z" fill="#5C00F6"/>
<path d="M386.803 33.6029L385.92 79.091C385.896 80.2786 385.402 81.4082 384.546 82.232C383.69 83.0557 382.543 83.5064 381.355 83.4851L294.722 81.8052C293.535 81.7793 292.406 81.2846 291.583 80.4292C290.76 79.5739 290.308 78.4274 290.328 77.2403L291.204 31.7505C291.23 30.5626 291.726 29.4335 292.583 28.6102C293.44 27.787 294.588 27.3368 295.776 27.3581L382.409 29.038C383.597 29.0643 384.726 29.5601 385.55 30.4169C386.373 31.2738 386.823 32.4218 386.802 33.6099L386.803 33.6029Z" fill="#3F00AA"/>
<path d="M385.433 30.2902L349.953 57.6893C346.663 60.2294 342.604 61.5702 338.448 61.4898C334.292 61.4095 330.288 59.9129 327.099 57.2476L292.702 28.4966C293.545 27.738 294.644 27.3284 295.778 27.351L382.411 29.031C383.542 29.0535 384.621 29.5035 385.433 30.2902V30.2902Z" fill="#5C00F6"/>
<path d="M522.774 40.2517L513.908 84.8763C513.676 86.0412 512.991 87.0663 512.004 87.7269C511.016 88.3874 509.807 88.6293 508.642 88.3996L423.653 71.5175C422.489 71.2834 421.465 70.5981 420.805 69.6113C420.145 68.6245 419.902 67.4166 420.13 66.2514L428.988 21.6239C429.223 20.4591 429.91 19.4347 430.898 18.7749C431.886 18.1151 433.095 17.8737 434.261 18.1035L519.25 34.9855C520.415 35.2202 521.44 35.9068 522.099 36.895C522.759 37.8832 523 39.0925 522.771 40.2583L522.774 40.2517Z" fill="#3F00AA"/>
<path d="M522.007 36.7498L482.263 57.4856C478.577 59.4078 474.346 60.0142 470.269 59.2046C466.192 58.3951 462.513 56.2179 459.842 53.0334L431.034 18.6839C431.997 18.0852 433.152 17.8753 434.264 18.0969L519.253 34.9789C520.362 35.1998 521.346 35.8325 522.007 36.7498V36.7498Z" fill="#5C00F6"/>
<path d="M569.951 60.8918L561.085 105.516C560.853 106.681 560.168 107.706 559.181 108.367C558.194 109.028 556.985 109.269 555.819 109.04L470.83 92.1577C469.666 91.9236 468.642 91.2382 467.982 90.2515C467.322 89.2647 467.079 88.0567 467.307 86.8915L476.166 42.2641C476.4 41.0992 477.087 40.0748 478.075 39.4151C479.063 38.7553 480.273 38.5138 481.438 38.7436L566.428 55.6257C567.592 55.8603 568.617 56.5469 569.277 57.5351C569.936 58.5233 570.178 59.7326 569.948 60.8984L569.951 60.8918Z" fill="#3F00AA"/>
<path d="M569.184 57.3897L529.44 78.1255C525.755 80.0477 521.524 80.6541 517.446 79.8445C513.369 79.0349 509.691 76.8578 507.019 73.6733L478.212 39.3238C479.175 38.7251 480.329 38.5152 481.441 38.7367L566.431 55.6188C567.539 55.8397 568.523 56.4724 569.184 57.3897V57.3897Z" fill="#5C00F6"/>
<path d="M711.985 59.6866L702.197 104.118C701.941 105.278 701.235 106.289 700.234 106.928C699.233 107.568 698.02 107.785 696.859 107.531L612.238 88.8925C611.079 88.6343 610.07 87.928 609.43 86.9277C608.79 85.9275 608.573 84.7147 608.825 83.5545L618.606 39.1201C618.865 37.9604 619.572 36.9505 620.574 36.3113C621.576 35.6721 622.79 35.4558 623.95 35.7097L708.572 54.3486C709.731 54.6074 710.741 55.315 711.38 56.3167C712.02 57.3183 712.236 58.5324 711.982 59.6932L711.985 59.6866Z" fill="#3F00AA"/>
<path d="M711.291 56.1695L671.126 76.0775C667.401 77.923 663.158 78.4416 659.099 77.5478C655.039 76.6539 651.407 74.4011 648.802 71.1619L620.712 36.2231C621.687 35.6444 622.846 35.4585 623.953 35.703L708.574 54.3419C709.678 54.5857 710.649 55.2387 711.291 56.1695V56.1695Z" fill="#5C00F6"/>
<path d="M882.216 46.6788L886.549 91.9687C886.662 93.1512 886.3 94.3299 885.544 95.2463C884.789 96.1627 883.7 96.7419 882.518 96.8568L796.262 105.113C795.08 105.223 793.903 104.861 792.987 104.105C792.071 103.35 791.491 102.263 791.374 101.081L787.034 55.7907C786.924 54.6075 787.287 53.429 788.044 52.5131C788.8 51.5971 789.889 51.0183 791.072 50.9034L877.328 42.6474C878.511 42.5374 879.689 42.9006 880.605 43.6575C881.521 44.4144 882.1 45.5033 882.215 46.686L882.216 46.6788Z" fill="#3F00AA"/>
<path d="M880.475 43.5449L848.367 74.8282C845.39 77.7285 841.511 79.5255 837.374 79.9218C833.236 80.3181 829.087 79.29 825.613 77.0077L788.149 52.3865C788.899 51.5364 789.945 51.0035 791.073 50.8961L877.329 42.6402C878.454 42.5331 879.579 42.8563 880.475 43.5449V43.5449Z" fill="#5C00F6"/>
<path d="M990.069 49.1014L993.292 94.4838C993.375 95.6687 992.985 96.8383 992.207 97.7359C991.429 98.6335 990.327 99.1858 989.142 99.2717L902.71 105.413C901.526 105.494 900.357 105.103 899.46 104.326C898.563 103.548 898.01 102.447 897.922 101.263L894.692 55.8795C894.611 54.694 895.003 53.5248 895.782 52.6276C896.561 51.7305 897.664 51.1785 898.849 51.0925L985.281 44.9515C986.466 44.8705 987.635 45.2625 988.532 46.0416C989.43 46.8207 989.982 47.9234 990.068 49.1085L990.069 49.1014Z" fill="#3F00AA"/>
<path d="M988.405 45.9258L955.541 76.4134C952.493 79.2399 948.572 80.9413 944.426 81.2362C940.279 81.531 936.157 80.4017 932.74 78.0349L895.89 52.5036C896.661 51.6721 897.719 51.165 898.85 51.0853L985.282 44.9442C986.41 44.8647 987.526 45.2154 988.405 45.9258V45.9258Z" fill="#5C00F6"/>
<path d="M948.719 68.9595L937.129 112.955C936.826 114.104 936.079 115.085 935.053 115.684C934.027 116.282 932.806 116.449 931.656 116.149L847.865 94.0781C846.717 93.7729 845.737 93.026 845.139 92.0005C844.541 90.9751 844.373 89.7545 844.671 88.6055L856.255 44.6064C856.56 43.4582 857.309 42.4779 858.335 41.8801C859.362 41.2822 860.584 41.1155 861.734 41.4165L945.525 63.4869C946.674 63.7927 947.654 64.5409 948.252 65.5677C948.85 66.5946 949.016 67.8165 948.715 68.9659L948.719 68.9595Z" fill="#3F00AA"/>
<path d="M948.169 65.4172L907.226 83.6727C903.43 85.3649 899.169 85.7103 895.15 84.6518C891.13 83.5934 887.592 81.1944 885.121 77.8518L858.478 41.7978C859.476 41.2593 860.641 41.1208 861.737 41.4101L945.529 63.4806C946.622 63.7691 947.566 64.4611 948.169 65.4172V65.4172Z" fill="#5C00F6"/>
<path d="M769.89 48.3706L770.366 93.8648C770.377 95.0526 769.917 96.1964 769.086 97.0454C768.256 97.8943 767.122 98.3791 765.934 98.3933L679.289 99.3016C678.102 99.3112 676.959 98.8504 676.111 98.02C675.262 97.1896 674.777 96.0571 674.761 94.87L674.278 49.3743C674.269 48.1861 674.731 47.0427 675.563 46.1943C676.395 45.3458 677.529 44.8615 678.717 44.8473L765.362 43.939C766.55 43.9298 767.693 44.3917 768.542 45.2235C769.39 46.0554 769.875 47.1895 769.889 48.3776L769.89 48.3706Z" fill="#3F00AA"/>
<path d="M768.422 45.1002L733.776 73.5467C730.563 76.184 726.546 77.6454 722.39 77.6892C718.233 77.7331 714.186 76.3567 710.919 73.7878L675.679 46.077C676.498 45.2936 677.585 44.8513 678.719 44.8401L765.364 43.9318C766.494 43.9206 767.587 44.3381 768.422 45.1002V45.1002Z" fill="#5C00F6"/>
<path d="M458.139 38.6841L462.056 84.0119C462.157 85.1954 461.785 86.3707 461.021 87.2801C460.257 88.1895 459.163 88.7587 457.98 88.8627L371.652 96.325C370.469 96.4244 369.294 96.0514 368.385 95.2876C367.477 94.5238 366.907 93.4313 366.801 92.2487L362.877 46.9201C362.778 45.736 363.152 44.5609 363.917 43.6519C364.682 42.743 365.777 42.1742 366.96 42.0701L453.288 34.6079C454.472 34.5088 455.647 34.8828 456.556 35.6481C457.465 36.4134 458.034 37.5076 458.138 38.6912L458.139 38.6841Z" fill="#3F00AA"/>
<path d="M456.427 35.5344L424.033 66.5211C421.029 69.3939 417.134 71.1551 412.993 71.5133C408.852 71.8716 404.712 70.8054 401.259 68.4912L364.023 43.5265C364.781 42.6832 365.832 42.16 366.961 42.063L453.289 34.6007C454.416 34.504 455.537 34.8376 456.427 35.5344V35.5344Z" fill="#5C00F6"/>
<path d="M260.149 43.3486L254.852 88.536C254.713 89.7156 254.112 90.7919 253.18 91.5287C252.248 92.2654 251.062 92.6025 249.882 92.466L163.822 82.3815C162.643 82.2405 161.568 81.6385 160.831 80.7073C160.095 79.776 159.757 78.5911 159.892 77.4115L165.181 32.2218C165.323 31.042 165.926 29.9664 166.858 29.2303C167.791 28.4941 168.977 28.1575 170.158 28.294L256.219 38.3786C257.398 38.5201 258.474 39.1232 259.21 40.056C259.946 40.9887 260.283 42.175 260.146 43.3554L260.149 43.3486Z" fill="#3F00AA"/>
<path d="M259.107 39.9186L221.134 63.7429C217.612 65.9514 213.442 66.8918 209.314 66.4083C205.185 65.9248 201.346 64.0464 198.43 61.084L166.988 29.1288C167.9 28.4556 169.034 28.1547 170.16 28.2873L256.221 38.3718C257.344 38.504 258.375 39.0567 259.107 39.9186V39.9186Z" fill="#5C00F6"/>
<path d="M826.23 68.6189L809.356 110.871C808.914 111.973 808.054 112.856 806.962 113.325C805.871 113.794 804.638 113.811 803.534 113.372L723.064 81.2361C721.962 80.7931 721.081 79.9321 720.612 78.8413C720.144 77.7504 720.126 76.5184 720.563 75.4145L737.431 33.1588C737.875 32.0566 738.737 31.175 739.829 30.707C740.922 30.239 742.155 30.2227 743.259 30.6617L823.729 62.7973C824.831 63.241 825.713 64.1033 826.181 65.1954C826.649 66.2876 826.665 67.5207 826.226 68.6248L826.23 68.6189Z" fill="#3F00AA"/>
<path d="M826.117 65.0358L783.252 78.156C779.277 79.372 775.006 79.1946 771.146 77.6533C767.286 76.112 764.067 73.299 762.023 69.6798L739.981 30.6426C741.037 30.23 742.21 30.2347 743.263 30.6558L823.733 62.7913C824.783 63.2112 825.635 64.0132 826.117 65.0358V65.0358Z" fill="#5C00F6"/>
<path d="M626.016 32.0221L630.275 77.3191C630.385 78.5018 630.022 79.6799 629.265 80.5951C628.507 81.5102 627.418 82.0876 626.235 82.2005L539.966 90.3138C538.784 90.4221 537.607 90.058 536.692 89.3011C535.778 88.5442 535.2 87.456 535.085 86.2743L530.819 40.9765C530.711 39.7932 531.076 38.6153 531.835 37.7006C532.593 36.7859 533.683 36.2089 534.866 36.0959L621.135 27.9826C622.318 27.8746 623.496 28.2398 624.411 28.9982C625.325 29.7566 625.902 30.8464 626.015 32.0293L626.016 32.0221Z" fill="#3F00AA"/>
<path d="M624.28 28.8852L592.12 60.1154C589.138 63.0108 585.256 64.8013 581.118 65.1907C576.979 65.5802 572.832 64.5453 569.362 62.2572L531.939 37.5741C532.69 36.7252 533.737 36.194 534.866 36.0885L621.135 27.9753C622.26 27.87 623.384 28.1951 624.28 28.8852V28.8852Z" fill="#5C00F6"/>
</svg>
