<svg width="23" height="19" viewBox="0 0 23 19" fill="none" xmlns="http://www.w3.org/2000/svg">
<path d="M22.706 2.18549C21.871 2.55549 20.974 2.80549 20.031 2.91849C20.993 2.34249 21.731 1.42849 22.079 0.340488C21.179 0.874488 20.182 1.26249 19.121 1.47049C18.271 0.566488 17.061 0.000488281 15.721 0.000488281C13.149 0.000488281 11.063 2.08649 11.063 4.66049C11.063 5.02449 11.105 5.37849 11.183 5.72049C7.31 5.52549 3.879 3.67049 1.581 0.852488C1.181 1.54249 0.951 2.34249 0.951 3.19449C0.951 4.81049 1.774 6.23749 3.023 7.07249C2.259 7.04749 1.541 6.83849 0.913 6.48949V6.54949C0.913 8.80649 2.518 10.6895 4.65 11.1175C4.258 11.2235 3.847 11.2795 3.423 11.2795C3.123 11.2795 2.83 11.2515 2.546 11.1975C3.139 13.0475 4.859 14.3955 6.898 14.4315C5.303 15.6815 3.294 16.4265 1.112 16.4265C0.736 16.4265 0.365 16.4045 0 16.3615C2.062 17.6845 4.51 18.4545 7.14 18.4545C15.71 18.4545 20.395 11.3565 20.395 5.20049C20.395 5.00049 20.39 4.79849 20.381 4.59849C21.291 3.94049 22.081 3.12149 22.704 2.18849L22.706 2.18549Z" fill="#1D9BF9"/>
</svg>
