<svg id="code-bro" viewBox="0 0 576 316" fill="none" xmlns="http://www.w3.org/2000/svg" role="img" focusable="false">
<title>Two dimensional illustration of a guy programming on a laptop with a flower next to it</title>
<path d="M40.0842 308.018C40.0842 308.018 30.2107 174.021 22.453 140.874C14.6952 107.727 52.7787 100.675 107.788 96.443C162.798 92.2115 188.187 95.7378 200.176 103.496C212.165 111.253 217.483 202.837 225.565 235.377C233.647 267.918 239.67 310.134 239.67 310.134L40.0842 308.018Z" fill="#3D3D3D" stroke="#3D3D3D" stroke-linecap="round" stroke-linejoin="round"/>
<path d="M526.382 196.969C518.836 206.406 515.098 211.667 513.547 214.051C515.528 203.668 518.411 193.479 522.165 183.598C524.989 175.937 526.754 167.927 527.412 159.789L526.707 160.169L526.058 158.914C526.312 158.773 552.039 145.119 559.318 132.242L560.545 132.947C553.972 144.569 533.661 156.347 528.103 159.408C533.378 158.9 549.853 156.403 559.656 144.287C571.434 129.745 569.36 111.719 569.36 111.719C569.36 111.719 547.159 126.966 538.16 138.744C533.962 144.13 530.438 150.008 527.666 156.248C528.065 146.646 527.331 137.031 525.48 127.601C532.885 121.776 560.122 99.391 563.112 82.6061C566.582 63.2117 561.701 29.938 561.701 29.938C558.907 36.8417 555.665 43.5558 551.997 50.0376C545.763 61.1241 526.354 78.4592 522.884 97.1624C522.002 101.842 521.53 106.59 521.474 111.352C518.345 100.915 514.606 90.6714 510.274 80.6737C509.13 77.9974 508.187 75.2392 507.453 72.4222L506.847 72.0555C506.974 71.8439 519.471 50.7711 519.471 44.72H520.881C520.881 50.362 511.346 67.147 508.709 71.6606C513.067 69.0371 520.176 63.663 522.814 55.3129C526.791 42.9146 520.91 31.7434 520.91 31.7434C520.91 31.7434 510.373 47.2589 507.496 57.1324C506.135 61.6495 505.325 66.3144 505.084 71.0258C503.067 65.8916 499.978 58.9238 496.423 54.1986C490.189 45.8766 486.028 33.4078 486.028 33.4078C486.028 33.4078 478.411 46.5678 483.955 60.433C488.51 71.8157 501.473 76.1883 505.958 77.359C506.452 78.8682 507.002 80.3352 507.609 81.7457C513.676 95.4829 518.428 109.765 521.798 124.399C518.568 120.097 512.475 112.523 506.706 108.291C498.328 102.141 490.725 91.3653 490.725 91.3653C490.725 91.3653 487.255 106.176 496.579 117.84C504.195 127.361 517.736 127.827 522.475 127.714C525.677 144.499 526.044 162.017 520.613 178.943C520.261 175.657 518.286 166.714 507.397 156.714C493.659 144.019 466.168 103.679 466.168 103.679C466.168 103.679 468.354 151.368 481.528 167.039C493.602 181.412 516.396 180.565 520.148 180.326C519.894 181.073 519.64 181.821 519.358 182.568C510.684 205.884 508.85 222.231 508.638 230.878H492.418V306.424H537.469V230.92H511.657C511.826 225.992 512.335 221.081 513.18 216.223L512.715 216.35L512.334 214.939C512.616 214.869 540.84 206.913 560.573 186.616L561.588 187.59C545.664 203.98 524.309 212.414 516.114 215.207C524.267 214.206 544.169 211.201 553.408 205.221C565.199 197.604 575.595 174.726 575.595 174.726C575.595 174.726 537.469 183.104 526.382 196.969ZM504.943 74.2559C500.33 71.8045 496.317 68.3632 493.191 64.1787C490.065 59.9942 487.903 55.1699 486.86 50.0517L488.271 49.7696C489.258 54.6735 491.319 59.2977 494.307 63.3097C497.294 67.3217 501.134 70.6217 505.549 72.9723L504.943 74.2559ZM524.887 128.081L524.591 128.49L524.055 128.264C523.265 127.954 504.83 120.365 497.326 109.406L498.497 108.602C505.056 118.207 520.938 125.401 524.055 126.741C526.439 123.073 541.418 99.8283 546.623 85.2155L547.949 85.6951C542.25 101.69 525.071 127.784 524.887 128.052V128.081ZM518.328 179.804C518.117 179.733 496.141 171.453 486.352 152.468L487.608 151.833C497.143 170.325 518.639 178.407 518.822 178.492L518.328 179.804Z" fill="#3D3D3D"/>
<path d="M367.771 306.474C367.774 306.479 367.776 306.484 367.778 306.489H64.4546L64.5408 305.745C64.639 304.895 64.7831 303.647 64.9665 302.057C65.3333 298.877 65.8573 294.325 66.4861 288.84C67.7437 277.871 69.4204 263.169 71.0972 248.24C72.774 233.31 74.4509 218.152 75.7086 206.269C76.9639 194.41 77.8073 185.767 77.8073 183.909C77.8073 183.142 78.1554 182.206 78.9119 181.091C79.6638 179.984 80.7877 178.746 82.2626 177.385C85.2119 174.664 89.5065 171.504 94.8682 167.968C105.588 160.899 120.499 152.378 137.259 142.932C153.974 133.513 172.37 126.67 186.595 122.181C193.706 119.937 199.771 118.283 204.057 117.19C206.2 116.643 207.898 116.237 209.06 115.967C209.641 115.833 210.088 115.732 210.389 115.665C210.54 115.632 210.654 115.607 210.73 115.59L210.811 115.573C228.058 114.377 248.222 119.381 266.073 126.901C283.94 134.428 299.405 144.438 307.256 153.17C323.002 170.683 328.482 188.287 333.343 215.676C335.787 229.449 344.492 252.35 352.561 271.764C356.6 281.48 360.487 290.339 363.363 296.768C364.802 299.983 365.988 302.591 366.814 304.395C367.228 305.297 367.551 305.998 367.771 306.474Z" fill="#F4F4F4" stroke="#3D3D3D"/>
<path d="M92.6253 226.718C97.1389 223.502 106.166 247.988 108.733 242.233C111.3 236.478 92.6253 207.436 91.3418 197.097C90.0582 186.758 102.287 185.489 116.477 175.827C130.667 166.165 143.544 158.421 143.544 171.313C143.544 184.205 149.342 207.986 153.855 198.381C158.369 188.775 168.031 176.476 168.665 193.218C169.3 209.961 168.665 226.732 170.612 226.732C172.558 226.732 189.936 208.691 194.449 199.664C198.963 190.637 189.287 167.448 189.287 157.138C189.287 146.827 198.314 132.651 198.314 132.651L198.892 118.053C184.463 122.002 159.271 129.971 137.014 142.511C103.5 161.341 77.3073 176.617 77.3073 183.909C77.3073 191.201 63.8934 306.989 63.8934 306.989H80.5655C83.6686 278.314 89.4376 229.045 92.6253 226.718Z" fill="#FFEE80"/>
<path d="M202.419 119.505C197.736 130.68 195.255 142.653 195.112 154.768C195.112 174.035 212.838 183.205 216.83 192.5C220.822 201.795 234.83 211.5 234.83 211.5C234.83 211.5 240.565 192.554 246.546 180.593C252.526 168.632 252.33 164 252.33 164C252.33 164 231.63 160.085 220.995 143.484C210.36 126.882 202.419 119.505 202.419 119.505Z" stroke="#3D3D3D" stroke-linecap="round" stroke-linejoin="round"/>
<path d="M197.355 119.351L197.317 118.852C197.237 118.858 197.16 118.884 197.091 118.926L197.355 119.351ZM178.454 151.031L177.955 151L177.955 151.003L178.454 151.031ZM236.445 216.534L236.357 217.026C236.534 217.058 236.714 216.992 236.829 216.855L236.445 216.534ZM157.272 161.812C157.166 162.068 157.287 162.36 157.542 162.466C157.797 162.572 158.09 162.451 158.196 162.196L157.272 161.812ZM193.237 122.261C193.496 122.167 193.631 121.881 193.537 121.621C193.444 121.361 193.157 121.227 192.897 121.32L193.237 122.261ZM100.273 188.542C100.129 188.306 99.8207 188.233 99.5854 188.377C99.3501 188.522 99.2765 188.83 99.421 189.065L100.273 188.542ZM120.069 244.297C120.095 244.571 120.339 244.774 120.614 244.748C120.889 244.722 121.091 244.479 121.065 244.204L120.069 244.297ZM122.881 216.145C122.837 215.873 122.581 215.687 122.308 215.73C122.036 215.773 121.85 216.029 121.893 216.302L122.881 216.145ZM128.48 274.054L128.98 274.059V274.054H128.48ZM131.036 307.057C131.089 307.328 131.352 307.505 131.623 307.452C131.894 307.399 132.071 307.136 132.018 306.865L131.036 307.057ZM127.386 265.465C127.325 265.734 127.493 266.003 127.762 266.065C128.031 266.127 128.299 265.958 128.361 265.689L127.386 265.465ZM133.254 219.871C133.25 219.594 133.024 219.374 132.747 219.377C132.471 219.381 132.25 219.608 132.254 219.884L133.254 219.871ZM295.319 216.788C295.296 216.513 295.054 216.309 294.779 216.332C294.504 216.354 294.299 216.596 294.322 216.871L295.319 216.788ZM307.122 305.88C307.171 306.151 307.432 306.331 307.703 306.282C307.975 306.233 308.155 305.972 308.106 305.701L307.122 305.88ZM197.091 118.926C191.57 122.353 186.95 127.054 183.621 132.635L184.48 133.147C187.727 127.704 192.233 123.118 197.619 119.776L197.091 118.926ZM183.621 132.635C180.291 138.216 178.348 144.514 177.955 151L178.953 151.061C179.337 144.734 181.232 138.591 184.48 133.147L183.621 132.635ZM177.955 151.003C177.345 162.036 179.058 171.772 180.762 180.244C182.473 188.752 184.15 195.899 183.553 201.89L184.548 201.989C185.164 195.808 183.436 188.467 181.742 180.047C180.042 171.59 178.351 161.958 178.954 151.058L177.955 151.003ZM183.553 201.89C182.954 207.894 180.552 213.301 179.091 217.226C178.728 218.202 178.42 219.094 178.219 219.877C178.02 220.652 177.913 221.365 177.986 221.968C178.062 222.596 178.339 223.134 178.913 223.462C179.451 223.769 180.174 223.846 181.05 223.764L180.957 222.769C180.158 222.843 179.682 222.75 179.409 222.593C179.172 222.458 179.026 222.239 178.979 221.848C178.928 221.432 178.998 220.863 179.188 220.125C179.375 219.395 179.667 218.543 180.028 217.575C181.462 213.725 183.933 208.158 184.548 201.989L183.553 201.89ZM181.05 223.764C182.013 223.675 183.069 223.17 184.161 222.429C185.263 221.68 186.452 220.656 187.69 219.461C190.165 217.072 192.884 213.951 195.547 210.871C198.218 207.781 200.831 204.734 203.119 202.457C204.263 201.318 205.311 200.387 206.231 199.744C207.17 199.088 207.9 198.787 208.424 198.787V197.787C207.576 197.787 206.63 198.246 205.658 198.925C204.669 199.616 203.574 200.593 202.414 201.748C200.093 204.058 197.451 207.139 194.79 210.217C192.121 213.304 189.432 216.389 186.996 218.742C185.777 219.918 184.634 220.899 183.599 221.601C182.554 222.311 181.668 222.703 180.957 222.769L181.05 223.764ZM208.424 198.787C209.667 198.787 211.174 199.325 212.809 200.248C214.433 201.166 216.133 202.433 217.75 203.824C220.99 206.611 223.839 209.842 225.028 211.621L225.859 211.066C224.608 209.192 221.691 205.895 218.402 203.066C216.755 201.649 215.001 200.338 213.3 199.378C211.611 198.424 209.923 197.787 208.424 197.787V198.787ZM225.028 211.621C225.699 212.626 226.766 213.454 227.943 214.129C229.126 214.808 230.457 215.355 231.697 215.782C232.939 216.209 234.101 216.519 234.953 216.723C235.379 216.825 235.728 216.901 235.972 216.951C236.094 216.976 236.189 216.995 236.254 217.007C236.287 217.013 236.312 217.018 236.329 217.021C236.338 217.023 236.345 217.024 236.349 217.025C236.352 217.025 236.353 217.026 236.355 217.026C236.355 217.026 236.356 217.026 236.356 217.026C236.356 217.026 236.357 217.026 236.357 217.026C236.357 217.026 236.357 217.026 236.445 216.534C236.534 216.042 236.534 216.042 236.534 216.042C236.534 216.042 236.534 216.042 236.534 216.042C236.533 216.042 236.533 216.042 236.533 216.042C236.532 216.042 236.531 216.042 236.529 216.041C236.525 216.041 236.52 216.039 236.512 216.038C236.497 216.035 236.473 216.031 236.443 216.025C236.382 216.013 236.291 215.995 236.173 215.971C235.939 215.923 235.6 215.85 235.186 215.751C234.356 215.552 233.225 215.25 232.022 214.836C230.817 214.421 229.55 213.899 228.441 213.262C227.326 212.622 226.408 211.888 225.859 211.066L225.028 211.621ZM236.445 216.534C236.829 216.855 236.829 216.854 236.829 216.854C236.829 216.854 236.83 216.854 236.83 216.854C236.83 216.854 236.83 216.853 236.831 216.853C236.832 216.851 236.833 216.85 236.835 216.847C236.839 216.842 236.845 216.835 236.853 216.826C236.868 216.808 236.89 216.781 236.919 216.746C236.978 216.675 237.063 216.571 237.172 216.438C237.388 216.172 237.698 215.789 238.069 215.32C238.811 214.383 239.802 213.1 240.794 211.72C241.784 210.342 242.782 208.858 243.534 207.52C243.91 206.852 244.23 206.211 244.457 205.631C244.68 205.061 244.83 204.511 244.83 204.037H243.83C243.83 204.325 243.733 204.737 243.526 205.266C243.322 205.787 243.025 206.384 242.662 207.03C241.936 208.321 240.963 209.771 239.982 211.136C239.002 212.5 238.021 213.77 237.285 214.7C236.917 215.164 236.611 215.543 236.397 215.806C236.289 215.938 236.205 216.04 236.148 216.109C236.12 216.144 236.098 216.17 236.083 216.188C236.076 216.196 236.07 216.203 236.067 216.207C236.065 216.21 236.063 216.211 236.063 216.212C236.062 216.213 236.062 216.213 236.062 216.214C236.062 216.214 236.061 216.214 236.061 216.214C236.061 216.214 236.061 216.214 236.445 216.534ZM244.83 204.037C244.83 203.939 244.862 203.776 244.96 203.538C245.056 203.305 245.204 203.028 245.403 202.711C245.802 202.077 246.389 201.319 247.126 200.482C248.599 198.811 250.64 196.869 252.892 195.055C255.145 193.241 257.593 191.569 259.879 190.429C262.188 189.278 264.24 188.716 265.74 188.992L265.92 188.008C264.084 187.671 261.78 188.364 259.433 189.534C257.062 190.716 254.553 192.434 252.265 194.277C249.975 196.12 247.892 198.101 246.376 199.821C245.619 200.68 244.995 201.483 244.557 202.178C244.338 202.525 244.16 202.854 244.036 203.157C243.914 203.453 243.83 203.754 243.83 204.037H244.83ZM265.74 188.992C266.498 189.131 267.508 189.542 268.723 190.174C269.929 190.801 271.302 191.627 272.775 192.569C275.734 194.46 279.024 196.766 282.181 198.843C285.309 200.9 288.298 202.726 290.559 203.569C291.674 203.985 292.712 204.203 293.527 204C293.954 203.893 294.324 203.67 294.594 203.307C294.858 202.952 294.998 202.501 295.042 201.982L294.046 201.897C294.012 202.293 293.912 202.548 293.791 202.71C293.676 202.865 293.516 202.972 293.285 203.029C292.783 203.154 291.993 203.037 290.909 202.632C288.77 201.834 285.87 200.072 282.731 198.008C279.622 195.963 276.266 193.613 273.313 191.726C271.83 190.778 270.429 189.934 269.185 189.287C267.949 188.644 266.83 188.176 265.92 188.008L265.74 188.992ZM295.042 201.982C295.211 199.985 294.39 198.089 293.164 196.147C291.947 194.221 290.238 192.116 288.577 189.786C285.223 185.08 281.83 179.152 281.83 170.5H280.83C280.83 179.451 284.354 185.583 287.763 190.366C289.483 192.78 291.116 194.777 292.318 196.681C293.511 198.57 294.187 200.234 294.046 201.897L295.042 201.982ZM281.83 170.5C281.83 166.058 281.215 162.948 280.063 160.591C278.906 158.223 277.23 156.662 275.202 155.283C271.133 152.515 265.767 150.503 259.691 144.154L258.969 144.846C265.136 151.29 270.77 153.477 274.64 156.11C276.582 157.431 278.11 158.871 279.165 161.03C280.225 163.199 280.83 166.14 280.83 170.5H281.83ZM259.691 144.154C253.489 137.673 241.023 131.118 228.608 126.307C222.388 123.897 216.157 121.917 210.695 120.597C205.245 119.28 200.516 118.61 197.317 118.852L197.393 119.849C200.429 119.619 205.033 120.257 210.46 121.569C215.873 122.877 222.061 124.843 228.246 127.24C240.641 132.042 252.928 138.534 258.969 144.846L259.691 144.154ZM157.734 162.004C158.196 162.196 158.196 162.196 158.196 162.196C158.196 162.195 158.196 162.195 158.196 162.195C158.197 162.194 158.197 162.192 158.198 162.191C158.199 162.187 158.202 162.182 158.205 162.174C158.211 162.159 158.221 162.136 158.233 162.106C158.259 162.046 158.297 161.956 158.349 161.838C158.451 161.603 158.604 161.254 158.808 160.808C159.214 159.915 159.82 158.629 160.616 157.06C162.209 153.921 164.559 149.655 167.591 145.144C173.667 136.101 182.426 126.161 193.237 122.261L192.897 121.32C181.775 125.333 172.867 135.5 166.761 144.586C163.701 149.139 161.33 153.442 159.725 156.607C158.922 158.19 158.309 159.489 157.898 160.394C157.692 160.846 157.536 161.199 157.431 161.44C157.379 161.561 157.339 161.653 157.313 161.716C157.3 161.747 157.289 161.771 157.283 161.787C157.279 161.795 157.277 161.801 157.275 161.806C157.274 161.808 157.273 161.809 157.273 161.811C157.273 161.811 157.273 161.812 157.272 161.812C157.272 161.812 157.272 161.812 157.734 162.004ZM99.847 188.803C99.421 189.065 99.421 189.065 99.4211 189.065C99.4212 189.065 99.4214 189.066 99.4216 189.066C99.4221 189.067 99.4229 189.068 99.424 189.07C99.4261 189.073 99.4293 189.079 99.4336 189.086C99.4422 189.1 99.4551 189.121 99.4723 189.149C99.5066 189.206 99.5578 189.29 99.6247 189.402C99.7587 189.625 99.9558 189.957 100.208 190.389C100.712 191.252 101.435 192.514 102.311 194.109C104.063 197.3 106.424 201.822 108.859 207.14C113.733 217.787 118.885 231.588 120.069 244.297L121.065 244.204C119.865 231.326 114.657 217.403 109.768 206.724C107.321 201.379 104.948 196.836 103.188 193.628C102.307 192.024 101.579 190.754 101.071 189.884C100.817 189.449 100.618 189.114 100.482 188.888C100.414 188.775 100.362 188.688 100.327 188.63C100.31 188.601 100.296 188.579 100.287 188.565C100.283 188.557 100.279 188.552 100.277 188.548C100.276 188.546 100.275 188.544 100.274 188.543C100.274 188.543 100.274 188.542 100.273 188.542C100.273 188.542 100.273 188.542 99.847 188.803ZM122.387 216.224C121.893 216.302 121.893 216.302 121.893 216.303C121.893 216.303 121.893 216.303 121.893 216.304C121.893 216.305 121.894 216.307 121.894 216.309C121.895 216.314 121.896 216.321 121.897 216.33C121.9 216.348 121.905 216.376 121.91 216.412C121.922 216.485 121.939 216.594 121.961 216.737C122.006 217.022 122.071 217.444 122.154 217.987C122.321 219.074 122.559 220.649 122.844 222.599C123.415 226.5 124.176 231.903 124.937 237.913C126.461 249.942 127.98 264.371 127.98 274.054H128.98C128.98 264.301 127.453 249.815 125.93 237.787C125.167 231.769 124.405 226.36 123.834 222.454C123.548 220.501 123.31 218.925 123.143 217.836C123.06 217.291 122.994 216.869 122.949 216.583C122.927 216.439 122.91 216.33 122.898 216.257C122.892 216.22 122.888 216.192 122.885 216.174C122.884 216.164 122.883 216.157 122.882 216.153C122.881 216.15 122.881 216.148 122.881 216.147C122.881 216.147 122.881 216.146 122.881 216.146C122.881 216.146 122.881 216.145 122.387 216.224ZM127.98 274.05C127.883 285.127 128.907 296.186 131.036 307.057L132.018 306.865C129.902 296.06 128.884 285.069 128.98 274.059L127.98 274.05ZM128.361 265.689C131.814 250.666 133.457 235.284 133.254 219.871L132.254 219.884C132.456 235.217 130.822 250.52 127.386 265.465L128.361 265.689ZM294.821 216.83C294.322 216.871 294.322 216.872 294.322 216.872C294.322 216.872 294.322 216.872 294.323 216.872C294.323 216.873 294.323 216.874 294.323 216.876C294.323 216.878 294.323 216.882 294.324 216.888C294.325 216.899 294.326 216.915 294.328 216.936C294.331 216.978 294.337 217.042 294.344 217.126C294.359 217.294 294.381 217.543 294.41 217.87C294.468 218.523 294.557 219.486 294.676 220.726C294.915 223.204 295.277 226.788 295.773 231.209C296.765 240.051 298.289 252.246 300.42 265.655L301.408 265.498C299.279 252.108 297.757 239.929 296.767 231.098C296.272 226.682 295.91 223.104 295.671 220.63C295.552 219.393 295.464 218.432 295.406 217.781C295.377 217.455 295.355 217.207 295.34 217.04C295.333 216.956 295.328 216.893 295.324 216.851C295.322 216.83 295.321 216.814 295.32 216.804C295.32 216.799 295.319 216.795 295.319 216.792C295.319 216.791 295.319 216.79 295.319 216.789C295.319 216.789 295.319 216.789 295.319 216.788C295.319 216.788 295.319 216.788 294.821 216.83ZM300.42 265.655C302.55 279.057 304.226 289.112 305.368 295.817C305.94 299.17 306.378 301.685 306.674 303.362C306.821 304.201 306.933 304.83 307.009 305.249C307.046 305.459 307.074 305.617 307.093 305.722C307.103 305.774 307.11 305.814 307.115 305.84C307.117 305.853 307.119 305.863 307.12 305.87C307.121 305.873 307.121 305.875 307.122 305.877C307.122 305.878 307.122 305.878 307.122 305.879C307.122 305.879 307.122 305.879 307.122 305.879C307.122 305.879 307.122 305.88 307.614 305.79C308.106 305.701 308.106 305.701 308.106 305.7C308.106 305.7 308.106 305.7 308.106 305.7C308.106 305.7 308.106 305.699 308.105 305.698C308.105 305.697 308.105 305.694 308.104 305.691C308.103 305.684 308.101 305.675 308.099 305.662C308.094 305.636 308.087 305.596 308.078 305.544C308.059 305.439 308.03 305.283 307.993 305.073C307.918 304.655 307.806 304.026 307.659 303.189C307.363 301.513 306.925 299 306.354 295.649C305.212 288.948 303.537 278.896 301.408 265.498L300.42 265.655Z" fill="#3D3D3D"/>
<path d="M249.134 250.823C242.956 247.734 235.81 254 235.81 254C237.181 256.82 238.472 260.526 239.712 264.039L242.745 271.84C245.367 277.261 248.951 283.47 249.363 286.924C249.474 287.855 249.354 288.587 248.923 289.048C248.489 289.512 247.957 289.919 247.355 290.236C249.058 293.328 250.64 294.657 253.338 294.351C256.627 293.978 255.99 291.048 254.794 285.545L254.774 285.454C254.529 284.328 254.262 283.095 254.001 281.755C253.535 279.37 253.467 275.911 253.433 272.155C253.353 263.383 253.46 252.986 249.134 250.823Z" fill="#F4F4F4"/>
<path d="M261.335 284.097C263.733 284.097 271.843 286.481 277.091 286.481C282.338 286.481 289.037 281.234 284.806 278.85C280.574 276.466 277.161 277.891 271.434 275.027C265.708 272.164 263.79 271.205 258.063 272.206C256.516 272.477 255.039 272.427 253.433 272.155C253.467 275.911 253.535 279.37 254.001 281.755C254.262 283.095 254.529 284.328 254.774 285.454C257.669 284.686 260.147 284.097 261.335 284.097Z" fill="#F4F4F4"/>
<path d="M231.461 249.272C227.046 249.272 217.102 258.116 217.102 258.116C226.609 258.116 234.776 271.374 240.516 274.463C246.257 277.552 244.494 278.878 240.305 280.867C239.152 281.414 238.116 281.644 237.043 281.593C237.029 281.593 237.014 281.592 237 281.591C238.621 282.949 238.25 283.726 236.234 284.145C237.361 286.013 238.384 287.531 239.19 288.385C239.786 289.016 240.399 289.515 241.016 289.898C243.285 291.306 245.615 291.15 247.355 290.236C247.957 289.919 248.489 289.512 248.923 289.048C249.354 288.587 249.474 287.855 249.363 286.924C248.951 283.47 245.367 277.261 242.745 271.84C241.758 269.8 240.753 266.987 239.712 264.039L235.81 254C234.449 251.2 233.009 249.272 231.461 249.272Z" fill="#F4F4F4"/>
<path d="M240.516 274.463C234.776 271.374 226.609 258.116 217.102 258.116C211.523 258.116 208.989 259.18 207.848 260.058C207.045 260.677 206.932 261.204 206.932 261.204C206.932 261.204 216.665 271.374 225.057 276.014C229.346 278.386 232.139 280.12 234.405 280.984C235.337 281.339 236.179 281.547 237 281.591L237.043 281.593C238.116 281.644 239.152 281.414 240.305 280.867C244.494 278.878 246.257 277.552 240.516 274.463Z" fill="#F4F4F4"/>
<path d="M189.23 281.234C189.23 281.234 182.531 295.085 180.626 298.907C178.722 302.73 175.845 309.415 175.845 309.415H198.765C198.765 309.415 211.657 300.811 213.096 300.332C214.535 299.852 222.645 300.332 228.372 297.948C232.583 296.195 236.801 292.368 241.016 289.898C240.399 289.515 239.786 289.016 239.19 288.385C238.384 287.531 237.361 286.013 236.234 284.145C238.25 283.726 238.621 282.949 237 281.591C236.179 281.547 235.337 281.339 234.405 280.984C232.139 280.12 229.346 278.386 225.057 276.014C216.665 271.374 206.932 261.204 206.932 261.204C206.932 261.204 207.045 260.677 207.848 260.058C206.053 258.87 204.327 258.263 202.602 258.778C197.834 260.203 194.534 269.287 189.23 281.234Z" fill="#F4F4F4"/>
<path d="M235.81 254C235.81 254 242.956 247.734 249.134 250.823C253.46 252.986 253.353 263.383 253.433 272.155M235.81 254C237.181 256.82 238.472 260.526 239.712 264.039M235.81 254L239.712 264.039M235.81 254C234.449 251.2 233.009 249.272 231.461 249.272M217.102 258.116C217.102 258.116 227.046 249.272 231.461 249.272M217.102 258.116C226.609 258.116 234.776 271.374 240.516 274.463C246.257 277.552 244.494 278.878 240.305 280.867C239.152 281.414 238.116 281.644 237.043 281.593M217.102 258.116C211.523 258.116 208.989 259.18 207.848 260.058M231.461 249.272C234.567 249.272 237.241 257.038 239.712 264.039M242.745 271.84C245.367 277.261 248.951 283.47 249.363 286.924C249.474 287.855 249.354 288.587 248.923 289.048C248.489 289.512 247.957 289.919 247.355 290.236M242.745 271.84L239.712 264.039M242.745 271.84C241.758 269.8 240.753 266.987 239.712 264.039M196.382 283.138L203.081 272.15C206.195 272.764 209.131 274.07 211.671 275.972C215.014 278.793 221.22 284.576 228.865 284.576C232.182 284.576 234.69 284.466 236.234 284.145M237 281.591C238.621 282.949 238.25 283.726 236.234 284.145M237 281.591C236.179 281.547 235.337 281.339 234.405 280.984M237 281.591C237.014 281.592 237.029 281.593 237.043 281.593M237 281.591L237.043 281.593M207.848 260.058C206.053 258.87 204.327 258.263 202.602 258.778C197.834 260.203 194.534 269.287 189.23 281.234C189.23 281.234 182.531 295.085 180.626 298.907C178.722 302.73 175.845 309.415 175.845 309.415H198.765C198.765 309.415 211.657 300.811 213.096 300.332C214.535 299.852 222.645 300.332 228.372 297.948C232.583 296.195 236.801 292.368 241.016 289.898M207.848 260.058C207.045 260.677 206.932 261.204 206.932 261.204C206.932 261.204 216.665 271.374 225.057 276.014C229.346 278.386 232.139 280.12 234.405 280.984M236.234 284.145C237.361 286.013 238.384 287.531 239.19 288.385C239.786 289.016 240.399 289.515 241.016 289.898M234.405 280.984C235.353 281.345 236.209 281.554 237.043 281.593M253.433 272.155C253.467 275.911 253.535 279.37 254.001 281.755C254.262 283.095 254.529 284.328 254.774 285.454M253.433 272.155C255.039 272.427 256.516 272.477 258.063 272.206C263.79 271.205 265.708 272.164 271.434 275.027C277.161 277.891 280.574 276.466 284.806 278.85C289.037 281.234 282.338 286.481 277.091 286.481C271.843 286.481 263.733 284.097 261.335 284.097C260.147 284.097 257.669 284.686 254.774 285.454M247.355 290.236C249.058 293.328 250.64 294.657 253.338 294.351C256.627 293.978 255.99 291.048 254.794 285.545M247.355 290.236C245.615 291.15 243.285 291.306 241.016 289.898M254.774 285.454L254.794 285.545M254.774 285.454C254.781 285.484 254.787 285.515 254.794 285.545" stroke="#3D3D3D" stroke-linecap="round" stroke-linejoin="round"/>
<path d="M303.269 72.7049C303.269 72.7049 301.422 99.998 298.474 109.589C295.526 119.181 291.421 148.703 282.606 161.609C273.79 174.515 262.323 185.587 249.402 186.335C236.482 187.082 219.161 164.19 209.189 149.436C199.217 134.682 198.131 119.928 194.802 105.541C191.473 91.1542 190.754 74.5103 195.916 61.6324C201.079 48.7546 226.947 32.8582 248.669 34.706C270.391 36.5537 297.726 47.9929 303.269 56.47C304.848 58.8828 305.689 61.7038 305.689 64.5874C305.689 67.471 304.848 70.292 303.269 72.7049Z" fill="#F4F4F4"/>
<path d="M195.945 61.6327C190.782 74.5528 191.516 91.1544 194.83 105.542C198.145 119.929 199.259 134.682 209.217 149.436C219.176 164.19 236.525 187.068 249.431 186.335C254.742 185.89 259.839 184.04 264.199 180.975L257.64 181.61C244.099 182.893 237.653 173.88 229.275 156.475C220.896 139.069 226.059 128.772 222.829 125.542C219.599 122.312 219.613 99.1238 219.613 99.1238C219.613 99.1238 222.194 88.813 223.478 85.0188C224.761 81.2245 238.302 75.9916 238.302 75.9916C238.302 75.9916 238.302 85.6535 247.583 84.9482C256.864 84.243 263.437 74.0592 263.437 74.0592L262.139 36.9207C257.713 35.9011 253.222 35.1848 248.697 34.7767C226.976 32.8585 201.079 48.7266 195.945 61.6327Z" fill="#FFEE80"/>
<path d="M303.269 72.7049C303.269 72.7049 301.422 99.998 298.474 109.589C295.526 119.181 291.421 148.703 282.606 161.609C273.79 174.515 262.323 185.587 249.402 186.335C236.482 187.082 219.161 164.19 209.189 149.436C199.217 134.682 198.131 119.928 194.802 105.541C191.473 91.1542 190.754 74.5103 195.916 61.6324C201.079 48.7546 226.947 32.8582 248.669 34.706C270.391 36.5537 297.726 47.9929 303.269 56.47C304.848 58.8828 305.689 61.7038 305.689 64.5874C305.689 67.471 304.848 70.292 303.269 72.7049V72.7049Z" stroke="#3D3D3D" stroke-linecap="round" stroke-linejoin="round"/>
<path d="M266.004 109.223C266.004 109.223 266.371 128.039 275.962 132.834C276.279 132.95 276.566 133.135 276.802 133.377C277.037 133.618 277.215 133.91 277.322 134.23C277.429 134.55 277.463 134.89 277.42 135.225C277.378 135.559 277.26 135.88 277.076 136.163C275.962 138.744 267.485 140.211 261.561 135.782" stroke="#3D3D3D" stroke-linecap="round" stroke-linejoin="round"/>
<path d="M274.431 93C273.895 92.9997 273.371 92.876 272.933 92.6457C272.494 92.4155 272.162 92.09 271.982 91.7138C271.801 91.3376 271.781 90.9291 271.925 90.5441C272.068 90.1592 272.368 89.8166 272.783 89.5634C273.199 89.305 283.196 83.3103 299.093 87.4575C299.744 87.6288 300.278 87.9857 300.575 88.4497C300.873 88.9137 300.911 89.4467 300.681 89.9316C300.451 90.4164 299.972 90.8133 299.348 91.035C298.725 91.2567 298.009 91.285 297.358 91.1137C284.22 87.6771 276.167 92.509 276.098 92.5607C275.628 92.8473 275.039 93.0027 274.431 93Z" fill="#3D3D3D"/>
<path d="M256.574 90.3989C255.902 90.533 255.222 90.5674 254.601 90.4985C253.981 90.4296 253.444 90.2599 253.043 90.0065C252.559 89.7065 241.718 83.1748 223.858 88.0858C222.864 88.3584 221.814 88.4106 220.936 88.2311C220.059 88.0516 219.427 87.655 219.18 87.1283C218.94 86.5991 219.099 85.9853 219.625 85.4188C220.151 84.8523 221 84.3782 221.991 84.0983C244.998 77.7756 258.684 86.2207 259.261 86.5901C259.867 86.9736 260.121 87.5211 259.967 88.1123C259.813 88.7035 259.264 89.2902 258.44 89.7434C257.893 90.043 257.249 90.2693 256.574 90.3989Z" fill="#3D3D3D"/>
<path d="M258.218 156.052H264.185" stroke="#3D3D3D" stroke-linecap="round" stroke-linejoin="round"/>
<path d="M204.027 18.8804C204.027 18.8804 180.048 26.6382 178.2 36.2296C176.353 45.821 188.539 79.3909 188.173 83.439C187.806 87.4872 184.111 90.8301 188.173 96.726C192.235 102.622 199.598 111.48 202.56 106.684C205.522 101.888 201.446 94.8782 206.241 91.9303C211.037 88.9823 217.68 84.1866 213.985 77.9099C210.289 71.6332 212.151 62.3944 219.895 61.3083C227.639 60.2222 234.282 55.0457 230.22 60.9416C226.158 66.8375 214.366 81.2387 220.628 82.3389C226.891 83.4391 251.659 66.8234 251.659 66.8234C251.659 66.8234 243.196 83.7494 247.597 84.8919C251.998 86.0344 286.71 63.1278 286.71 63.1278C286.71 63.1278 303.312 84.8919 306.627 83.4108C309.941 81.9298 307.741 69.7713 307.741 69.7713C307.741 69.7713 310.322 86.0062 315.484 86.6973C320.647 87.3885 327.657 78.5728 325.443 73.0436C323.228 67.5145 319.504 59.785 319.504 59.785C319.504 59.785 326.881 57.9372 329.829 54.6084C332.777 51.2796 332.41 50.927 326.134 49.8127C319.857 48.6984 315.075 41.7023 309.208 35.4256C303.34 29.1489 293.692 20.6718 293.692 20.6718C293.692 20.6718 304.751 25.4675 298.855 19.9383C292.959 14.4092 261.589 1.8557 244.621 1.8557C227.653 1.8557 221.334 10.7278 221.334 10.7278C221.334 10.7278 224.282 -0.344675 220.953 1.13635C217.624 2.61738 213.9 11.4612 213.9 11.4612C213.9 11.4612 206.157 9.24672 202.108 11.842C198.06 14.4374 196.932 17.0045 200.261 17.0045C202.13 16.9795 203.992 17.2266 205.79 17.7379L204.027 18.8804Z" fill="#3D3D3D"/>
<path d="M204.027 18.8804C204.027 18.8804 180.048 26.6382 178.2 36.2296C176.353 45.821 188.539 79.3909 188.173 83.4391C187.806 87.4872 184.111 90.8301 188.173 96.726C192.235 102.622 199.598 111.48 202.56 106.684C205.522 101.888 201.446 94.8782 206.241 91.9303C211.037 88.9823 217.68 84.1866 213.985 77.9099C210.289 71.6332 212.151 62.3944 219.895 61.3083C227.639 60.2222 234.282 55.0457 230.22 60.9416C226.158 66.8375 214.366 81.2387 220.628 82.3389C226.891 83.4391 251.659 66.8234 251.659 66.8234C251.659 66.8234 243.196 83.7494 247.597 84.8919C251.998 86.0344 286.71 63.1278 286.71 63.1278C286.71 63.1278 303.312 84.8919 306.627 83.4108C309.941 81.9298 307.741 69.7713 307.741 69.7713C307.741 69.7713 310.322 86.0062 315.485 86.6973C320.647 87.3884 327.657 78.5728 325.443 73.0436C323.228 67.5145 319.504 59.785 319.504 59.785C319.504 59.785 326.881 57.9372 329.829 54.6084C332.777 51.2796 332.41 50.927 326.134 49.8127C319.857 48.6984 315.075 41.7023 309.208 35.4256C303.34 29.1489 293.692 20.6718 293.692 20.6718C293.692 20.6718 304.751 25.4675 298.855 19.9383C292.959 14.4092 261.589 1.8557 244.621 1.8557C227.653 1.8557 221.334 10.7278 221.334 10.7278C221.334 10.7278 224.282 -0.344675 220.953 1.13635C217.624 2.61738 213.9 11.4612 213.9 11.4612C213.9 11.4612 206.157 9.24672 202.108 11.842C198.06 14.4374 196.932 17.0045 200.261 17.0045C202.13 16.9795 203.992 17.2266 205.79 17.7379L204.027 18.8804Z" stroke="#3D3D3D" stroke-linecap="round" stroke-linejoin="round"/>
<path d="M258.557 94.652C258.557 94.652 253.169 88.8548 238.669 89.2638C224.169 89.6729 213.802 92.1695 210.91 93.8339C208.018 95.4983 209.669 97.5576 210.487 100.463C211.305 103.369 213.392 117.022 216.707 122.411C220.022 127.799 228.725 132.355 234.522 132.355C240.319 132.355 243.634 131.113 249.854 126.557C256.074 122.002 260.207 105.4 260.63 104.187C261.053 102.974 260.63 100.463 264.763 101.704C268.896 102.946 269.319 121.169 270.574 124.907C271.83 128.645 280.095 133.596 286.724 133.596C293.354 133.596 299.574 130.281 304.962 120.76C308.18 115.103 309.486 108.558 308.686 102.099C308.686 102.099 314.483 97.5435 309.927 95.8791C305.371 94.2147 289.701 89.8703 279.686 92.9876C267.669 96.7254 261.448 95.8932 258.557 94.652Z" fill="#3D3D3D"/>
<path d="M212.983 94.2437L185.211 97.9674V101.282L212.56 99.6318C212.56 99.6318 210.049 95.4849 212.983 94.2437Z" fill="#3D3D3D"/>
<path d="M286.71 129.562C278.586 129.562 274.439 125.246 273.536 117.756C272.45 108.785 271.491 102.537 268.67 99.5323C272.819 99.0396 276.91 98.142 280.885 96.8524C283.212 96.2067 285.621 95.9027 288.036 95.9497C294.193 96.1201 300.3 97.1212 306.189 98.9258L304.285 100.449L304.708 102.833C305.316 108.357 304.172 113.934 301.436 118.772C295.977 128.448 290.448 129.562 286.71 129.562ZM234.522 128.321C230.29 128.321 222.8 124.611 220.149 120.295C218.019 116.853 216.241 108.136 215.282 103.468C214.902 101.578 214.619 100.209 214.38 99.3489C214.14 98.4885 213.942 98.009 213.717 97.3884L213.59 97.0357C216.848 95.6252 226.073 93.6787 238.781 93.312H240.192C251.321 93.312 255.609 97.3742 255.707 97.4166L256.286 98.0513L257.075 98.3898C257.616 98.6101 258.166 98.8031 258.726 98.9681C257.763 100.014 257.138 101.327 256.934 102.734V103.002C256.934 103.073 256.807 103.411 256.666 103.919C252.548 118.461 248.979 122.326 247.625 123.313C241.602 127.587 239.092 128.321 234.522 128.321Z" fill="#FFDC00"/>
<path d="M224.761 100.054H222.631C222.494 100.05 222.363 99.9944 222.266 99.8972C222.169 99.8001 222.113 99.6694 222.109 99.5321C222.109 99.3937 222.164 99.261 222.262 99.1631C222.36 99.0652 222.493 99.0103 222.631 99.0103H224.761C224.83 99.0103 224.897 99.0238 224.961 99.05C225.024 99.0762 225.082 99.1147 225.13 99.1631C225.178 99.2116 225.217 99.2691 225.243 99.3325C225.269 99.3958 225.283 99.4636 225.283 99.5321C225.279 99.6694 225.223 99.8001 225.126 99.8972C225.029 99.9944 224.898 100.05 224.761 100.054ZM225.283 101.958C225.283 101.89 225.269 101.822 225.243 101.758C225.217 101.695 225.178 101.638 225.13 101.589C225.082 101.541 225.024 101.502 224.961 101.476C224.897 101.45 224.83 101.436 224.761 101.436H222.631C222.493 101.436 222.36 101.491 222.262 101.589C222.164 101.687 222.109 101.82 222.109 101.958C222.113 102.095 222.169 102.226 222.266 102.323C222.363 102.42 222.494 102.477 222.631 102.48H224.761C224.898 102.477 225.029 102.42 225.126 102.323C225.223 102.226 225.279 102.095 225.283 101.958ZM225.283 104.384C225.279 104.247 225.223 104.116 225.126 104.019C225.029 103.922 224.898 103.866 224.761 103.862H222.631C222.494 103.866 222.363 103.922 222.266 104.019C222.169 104.116 222.113 104.247 222.109 104.384C222.109 104.523 222.164 104.655 222.262 104.753C222.36 104.851 222.493 104.906 222.631 104.906H224.761C224.83 104.906 224.897 104.893 224.961 104.866C225.024 104.84 225.082 104.802 225.13 104.753C225.178 104.705 225.217 104.647 225.243 104.584C225.269 104.521 225.283 104.453 225.283 104.384ZM225.283 106.81C225.279 106.673 225.223 106.542 225.126 106.445C225.029 106.348 224.898 106.292 224.761 106.288H222.631C222.494 106.292 222.363 106.348 222.266 106.445C222.169 106.542 222.113 106.673 222.109 106.81C222.109 106.949 222.164 107.081 222.262 107.179C222.36 107.277 222.493 107.332 222.631 107.332H224.761C224.83 107.332 224.897 107.319 224.961 107.292C225.024 107.266 225.082 107.228 225.13 107.179C225.178 107.131 225.217 107.073 225.243 107.01C225.269 106.947 225.283 106.879 225.283 106.81ZM225.283 109.236C225.279 109.099 225.223 108.968 225.126 108.871C225.029 108.774 224.898 108.718 224.761 108.715H222.631C222.494 108.718 222.363 108.774 222.266 108.871C222.169 108.968 222.113 109.099 222.109 109.236C222.109 109.375 222.164 109.508 222.262 109.605C222.36 109.703 222.493 109.758 222.631 109.758H224.761C224.83 109.758 224.897 109.745 224.961 109.719C225.024 109.692 225.082 109.654 225.13 109.605C225.178 109.557 225.217 109.499 225.243 109.436C225.269 109.373 225.283 109.305 225.283 109.236ZM225.283 111.662C225.279 111.525 225.223 111.394 225.126 111.297C225.029 111.2 224.898 111.144 224.761 111.141H222.631C222.494 111.144 222.363 111.2 222.266 111.297C222.169 111.394 222.113 111.525 222.109 111.662C222.109 111.801 222.164 111.934 222.262 112.031C222.36 112.129 222.493 112.184 222.631 112.184H224.761C224.83 112.184 224.897 112.171 224.961 112.145C225.024 112.118 225.082 112.08 225.13 112.031C225.178 111.983 225.217 111.925 225.243 111.862C225.269 111.799 225.283 111.731 225.283 111.662ZM225.283 114.089C225.279 113.951 225.223 113.821 225.126 113.723C225.029 113.626 224.898 113.57 224.761 113.567H222.631C222.506 113.587 222.392 113.652 222.309 113.749C222.227 113.845 222.182 113.968 222.182 114.096C222.182 114.223 222.227 114.346 222.309 114.443C222.392 114.539 222.506 114.604 222.631 114.625H224.761C224.901 114.621 225.033 114.563 225.131 114.463C225.228 114.362 225.283 114.228 225.283 114.089ZM225.283 116.515C225.279 116.377 225.223 116.247 225.126 116.15C225.029 116.052 224.898 115.996 224.761 115.993H222.631C222.506 116.013 222.392 116.078 222.309 116.175C222.227 116.271 222.182 116.395 222.182 116.522C222.182 116.649 222.227 116.772 222.309 116.869C222.392 116.966 222.506 117.03 222.631 117.051H224.761C224.901 117.047 225.033 116.989 225.131 116.889C225.228 116.789 225.283 116.654 225.283 116.515ZM233.224 99.5886C233.226 99.5195 233.214 99.4508 233.188 99.3866C233.163 99.3224 233.124 99.2641 233.075 99.2152C233.027 99.1663 232.968 99.128 232.904 99.1025C232.84 99.0769 232.771 99.0647 232.702 99.0667H227.131C227.062 99.0647 226.993 99.0769 226.929 99.1025C226.864 99.128 226.806 99.1663 226.757 99.2152C226.708 99.2641 226.67 99.3224 226.645 99.3866C226.619 99.4508 226.607 99.5195 226.609 99.5886C226.609 99.727 226.664 99.8597 226.762 99.9576C226.859 100.055 226.992 100.11 227.131 100.11H232.702C232.776 100.111 232.848 100.096 232.916 100.066C232.983 100.036 233.043 99.9928 233.093 99.9382C233.142 99.8836 233.179 99.8192 233.202 99.7492C233.224 99.6792 233.232 99.6053 233.224 99.5321V99.5886ZM233.224 102.015C233.226 101.946 233.214 101.877 233.188 101.813C233.163 101.748 233.124 101.69 233.075 101.641C233.027 101.592 232.968 101.554 232.904 101.529C232.84 101.503 232.771 101.491 232.702 101.493H227.131C227.062 101.491 226.993 101.503 226.929 101.529C226.864 101.554 226.806 101.592 226.757 101.641C226.708 101.69 226.67 101.748 226.645 101.813C226.619 101.877 226.607 101.946 226.609 102.015C226.609 102.153 226.664 102.286 226.762 102.384C226.859 102.482 226.992 102.537 227.131 102.537H232.702C232.776 102.537 232.848 102.522 232.916 102.492C232.983 102.462 233.043 102.419 233.093 102.364C233.142 102.31 233.179 102.245 233.202 102.175C233.224 102.105 233.232 102.031 233.224 101.958V102.015ZM233.224 104.441C233.224 104.302 233.169 104.17 233.071 104.072C232.973 103.974 232.841 103.919 232.702 103.919H227.131C226.992 103.919 226.859 103.974 226.762 104.072C226.664 104.17 226.609 104.302 226.609 104.441C226.607 104.51 226.619 104.579 226.645 104.643C226.67 104.707 226.708 104.765 226.757 104.814C226.806 104.863 226.864 104.901 226.929 104.927C226.993 104.952 227.062 104.965 227.131 104.963H232.702C232.776 104.965 232.85 104.952 232.919 104.923C232.987 104.894 233.048 104.85 233.098 104.795C233.148 104.74 233.185 104.675 233.207 104.604C233.228 104.533 233.234 104.458 233.224 104.384V104.441ZM233.224 106.867C233.224 106.728 233.169 106.596 233.071 106.498C232.973 106.4 232.841 106.345 232.702 106.345H227.131C226.992 106.345 226.859 106.4 226.762 106.498C226.664 106.596 226.609 106.728 226.609 106.867C226.607 106.936 226.619 107.005 226.645 107.069C226.67 107.133 226.708 107.191 226.757 107.24C226.806 107.289 226.864 107.327 226.929 107.353C226.993 107.378 227.062 107.391 227.131 107.389H232.702C232.776 107.391 232.85 107.378 232.919 107.349C232.987 107.32 233.048 107.277 233.098 107.221C233.148 107.166 233.185 107.101 233.207 107.03C233.228 106.959 233.234 106.884 233.224 106.81V106.867ZM233.224 109.293C233.224 109.154 233.169 109.022 233.071 108.924C232.973 108.826 232.841 108.771 232.702 108.771H227.131C226.992 108.771 226.859 108.826 226.762 108.924C226.664 109.022 226.609 109.154 226.609 109.293C226.607 109.362 226.619 109.431 226.645 109.495C226.67 109.559 226.708 109.617 226.757 109.666C226.806 109.715 226.864 109.753 226.929 109.779C226.993 109.804 227.062 109.817 227.131 109.815H232.702C232.776 109.817 232.85 109.804 232.919 109.775C232.987 109.746 233.048 109.703 233.098 109.647C233.148 109.592 233.185 109.527 233.207 109.456C233.228 109.385 233.234 109.31 233.224 109.236V109.293ZM239.91 111.719C239.906 111.579 239.848 111.446 239.748 111.349C239.648 111.251 239.514 111.197 239.374 111.197H233.802C233.665 111.201 233.534 111.257 233.437 111.354C233.34 111.451 233.284 111.582 233.28 111.719C233.28 111.857 233.335 111.99 233.433 112.088C233.531 112.186 233.664 112.241 233.802 112.241H239.374C239.448 112.243 239.523 112.23 239.592 112.201C239.661 112.172 239.723 112.129 239.774 112.074C239.825 112.019 239.863 111.954 239.886 111.883C239.91 111.812 239.918 111.737 239.91 111.662V111.719ZM239.91 114.145C239.906 114.005 239.848 113.873 239.748 113.775C239.648 113.678 239.514 113.623 239.374 113.623H233.802C233.677 113.644 233.563 113.708 233.48 113.805C233.398 113.902 233.353 114.025 233.353 114.152C233.353 114.279 233.398 114.402 233.48 114.499C233.563 114.596 233.677 114.66 233.802 114.681H239.374C239.449 114.681 239.524 114.666 239.593 114.635C239.662 114.605 239.724 114.56 239.774 114.505C239.825 114.449 239.863 114.383 239.886 114.311C239.91 114.239 239.918 114.163 239.91 114.089V114.145ZM239.91 116.571C239.906 116.431 239.848 116.299 239.748 116.201C239.648 116.104 239.514 116.049 239.374 116.049H233.802C233.677 116.07 233.563 116.134 233.48 116.231C233.398 116.328 233.353 116.451 233.353 116.578C233.353 116.705 233.398 116.828 233.48 116.925C233.563 117.022 233.677 117.086 233.802 117.107H239.374C239.449 117.107 239.524 117.092 239.593 117.062C239.662 117.031 239.724 116.987 239.774 116.931C239.825 116.875 239.863 116.809 239.886 116.737C239.91 116.665 239.918 116.59 239.91 116.515V116.571ZM235.678 99.645C235.678 99.4841 235.614 99.3298 235.501 99.2161C235.387 99.1024 235.233 99.0385 235.072 99.0385C234.911 99.0385 234.757 99.1024 234.643 99.2161C234.529 99.3298 234.465 99.4841 234.465 99.645C234.465 99.8059 234.529 99.9601 234.643 100.074C234.757 100.188 234.911 100.252 235.072 100.252C235.162 100.253 235.251 100.235 235.333 100.197C235.415 100.16 235.488 100.105 235.546 100.036C235.604 99.9671 235.646 99.8862 235.669 99.799C235.692 99.7119 235.695 99.6207 235.678 99.5321V99.645ZM237.498 99.645C237.498 99.4841 237.434 99.3298 237.32 99.2161C237.206 99.1024 237.052 99.0385 236.891 99.0385C236.73 99.0385 236.576 99.1024 236.462 99.2161C236.349 99.3298 236.285 99.4841 236.285 99.645C236.285 99.8059 236.349 99.9601 236.462 100.074C236.576 100.188 236.73 100.252 236.891 100.252C236.981 100.253 237.071 100.235 237.153 100.197C237.235 100.16 237.308 100.105 237.366 100.036C237.424 99.9671 237.466 99.8862 237.489 99.799C237.511 99.7119 237.515 99.6207 237.498 99.5321V99.645ZM239.317 99.645C239.317 99.4841 239.253 99.3298 239.14 99.2161C239.026 99.1024 238.872 99.0385 238.711 99.0385C238.55 99.0385 238.396 99.1024 238.282 99.2161C238.168 99.3298 238.104 99.4841 238.104 99.645C238.104 99.8059 238.168 99.9601 238.282 100.074C238.396 100.188 238.55 100.252 238.711 100.252C238.801 100.253 238.89 100.235 238.972 100.197C239.054 100.16 239.127 100.105 239.185 100.036C239.243 99.9671 239.285 99.8862 239.308 99.799C239.331 99.7119 239.334 99.6207 239.317 99.5321V99.645ZM241.151 99.645C241.154 99.5217 241.12 99.4003 241.053 99.2964C240.987 99.1925 240.891 99.1108 240.778 99.0617C240.665 99.0125 240.539 98.9982 240.418 99.0205C240.297 99.0428 240.185 99.1008 240.097 99.187C240.009 99.2732 239.948 99.3837 239.923 99.5045C239.898 99.6253 239.909 99.7508 239.956 99.865C240.002 99.9792 240.082 100.077 240.184 100.146C240.287 100.215 240.407 100.251 240.53 100.252C240.621 100.253 240.711 100.234 240.793 100.197C240.876 100.16 240.949 100.105 241.008 100.036C241.067 99.9678 241.111 99.8872 241.135 99.8001C241.16 99.713 241.165 99.6215 241.151 99.5321V99.645ZM242.971 99.645C242.971 99.4841 242.907 99.3298 242.793 99.2161C242.679 99.1024 242.525 99.0385 242.364 99.0385C242.203 99.0385 242.049 99.1024 241.935 99.2161C241.821 99.3298 241.758 99.4841 241.758 99.645C241.758 99.8059 241.821 99.9601 241.935 100.074C242.049 100.188 242.203 100.252 242.364 100.252C242.454 100.253 242.543 100.235 242.625 100.197C242.708 100.16 242.78 100.105 242.838 100.036C242.896 99.9671 242.938 99.8862 242.961 99.799C242.984 99.7119 242.987 99.6207 242.971 99.5321V99.645ZM244.79 99.645C244.79 99.4841 244.726 99.3298 244.612 99.2161C244.499 99.1024 244.344 99.0385 244.184 99.0385C244.023 99.0385 243.868 99.1024 243.755 99.2161C243.641 99.3298 243.577 99.4841 243.577 99.645C243.577 99.8059 243.641 99.9601 243.755 100.074C243.868 100.188 244.023 100.252 244.184 100.252C244.274 100.253 244.363 100.235 244.445 100.197C244.527 100.16 244.6 100.105 244.658 100.036C244.716 99.9671 244.758 99.8862 244.781 99.799C244.804 99.7119 244.807 99.6207 244.79 99.5321V99.645ZM235.678 104.497C235.678 104.336 235.614 104.182 235.501 104.068C235.387 103.954 235.233 103.891 235.072 103.891C234.911 103.891 234.757 103.954 234.643 104.068C234.529 104.182 234.465 104.336 234.465 104.497C234.465 104.658 234.529 104.812 234.643 104.926C234.757 105.04 234.911 105.104 235.072 105.104C235.162 105.105 235.251 105.087 235.333 105.049C235.415 105.012 235.488 104.957 235.546 104.888C235.604 104.819 235.646 104.738 235.669 104.651C235.692 104.564 235.695 104.473 235.678 104.384V104.497ZM237.498 104.497C237.498 104.336 237.434 104.182 237.32 104.068C237.206 103.954 237.052 103.891 236.891 103.891C236.73 103.891 236.576 103.954 236.462 104.068C236.349 104.182 236.285 104.336 236.285 104.497C236.285 104.658 236.349 104.812 236.462 104.926C236.576 105.04 236.73 105.104 236.891 105.104C236.981 105.105 237.071 105.087 237.153 105.049C237.235 105.012 237.308 104.957 237.366 104.888C237.424 104.819 237.466 104.738 237.489 104.651C237.511 104.564 237.515 104.473 237.498 104.384V104.497ZM239.317 104.497C239.317 104.336 239.253 104.182 239.14 104.068C239.026 103.954 238.872 103.891 238.711 103.891C238.55 103.891 238.396 103.954 238.282 104.068C238.168 104.182 238.104 104.336 238.104 104.497C238.104 104.658 238.168 104.812 238.282 104.926C238.396 105.04 238.55 105.104 238.711 105.104C238.801 105.105 238.89 105.087 238.972 105.049C239.054 105.012 239.127 104.957 239.185 104.888C239.243 104.819 239.285 104.738 239.308 104.651C239.331 104.564 239.334 104.473 239.317 104.384V104.497ZM241.151 104.497C241.154 104.374 241.12 104.252 241.053 104.149C240.987 104.045 240.891 103.963 240.778 103.914C240.665 103.865 240.539 103.85 240.418 103.873C240.297 103.895 240.185 103.953 240.097 104.039C240.009 104.125 239.948 104.236 239.923 104.357C239.898 104.477 239.909 104.603 239.956 104.717C240.002 104.831 240.082 104.929 240.184 104.998C240.287 105.067 240.407 105.104 240.53 105.104C240.621 105.105 240.711 105.086 240.793 105.049C240.876 105.012 240.949 104.957 241.008 104.888C241.067 104.82 241.111 104.739 241.135 104.652C241.16 104.565 241.165 104.474 241.151 104.384V104.497ZM242.971 104.497C242.971 104.336 242.907 104.182 242.793 104.068C242.679 103.954 242.525 103.891 242.364 103.891C242.203 103.891 242.049 103.954 241.935 104.068C241.821 104.182 241.758 104.336 241.758 104.497C241.758 104.658 241.821 104.812 241.935 104.926C242.049 105.04 242.203 105.104 242.364 105.104C242.454 105.105 242.543 105.087 242.625 105.049C242.708 105.012 242.78 104.957 242.838 104.888C242.896 104.819 242.938 104.738 242.961 104.651C242.984 104.564 242.987 104.473 242.971 104.384V104.497ZM244.79 104.497C244.79 104.336 244.726 104.182 244.612 104.068C244.499 103.954 244.344 103.891 244.184 103.891C244.023 103.891 243.868 103.954 243.755 104.068C243.641 104.182 243.577 104.336 243.577 104.497C243.577 104.658 243.641 104.812 243.755 104.926C243.868 105.04 244.023 105.104 244.184 105.104C244.274 105.105 244.363 105.087 244.445 105.049C244.527 105.012 244.6 104.957 244.658 104.888C244.716 104.819 244.758 104.738 244.781 104.651C244.804 104.564 244.807 104.473 244.79 104.384V104.497ZM241.969 111.479C241.969 111.359 241.934 111.242 241.867 111.142C241.8 111.042 241.705 110.965 241.595 110.919C241.484 110.873 241.362 110.861 241.244 110.884C241.127 110.908 241.019 110.965 240.934 111.05C240.849 111.135 240.791 111.243 240.768 111.361C240.744 111.478 240.756 111.6 240.802 111.711C240.848 111.822 240.926 111.917 241.026 111.983C241.125 112.05 241.243 112.086 241.363 112.086C241.447 112.077 241.528 112.052 241.602 112.01C241.675 111.969 241.739 111.912 241.79 111.844C241.84 111.777 241.876 111.699 241.895 111.617C241.913 111.534 241.915 111.449 241.899 111.366L241.969 111.479ZM243.789 111.479C243.789 111.318 243.725 111.164 243.611 111.05C243.497 110.936 243.343 110.873 243.182 110.873C243.021 110.873 242.867 110.936 242.753 111.05C242.64 111.164 242.576 111.318 242.576 111.479C242.576 111.64 242.64 111.794 242.753 111.908C242.867 112.022 243.021 112.086 243.182 112.086C243.266 112.077 243.348 112.052 243.421 112.01C243.495 111.969 243.559 111.912 243.609 111.844C243.66 111.777 243.695 111.699 243.714 111.617C243.733 111.534 243.734 111.449 243.718 111.366L243.789 111.479ZM245.608 111.479C245.608 111.318 245.544 111.164 245.431 111.05C245.317 110.936 245.163 110.873 245.002 110.873C244.841 110.873 244.687 110.936 244.573 111.05C244.459 111.164 244.395 111.318 244.395 111.479C244.395 111.64 244.459 111.794 244.573 111.908C244.687 112.022 244.841 112.086 245.002 112.086C245.086 112.077 245.167 112.052 245.241 112.01C245.314 111.969 245.378 111.912 245.429 111.844C245.479 111.777 245.515 111.699 245.534 111.617C245.552 111.534 245.554 111.449 245.538 111.366L245.608 111.479ZM247.428 111.479C247.428 111.318 247.364 111.164 247.25 111.05C247.136 110.936 246.982 110.873 246.821 110.873C246.66 110.873 246.506 110.936 246.392 111.05C246.279 111.164 246.215 111.318 246.215 111.479C246.215 111.64 246.279 111.794 246.392 111.908C246.506 112.022 246.66 112.086 246.821 112.086C246.905 112.077 246.987 112.052 247.06 112.01C247.134 111.969 247.198 111.912 247.248 111.844C247.299 111.777 247.334 111.699 247.353 111.617C247.372 111.534 247.373 111.449 247.357 111.366L247.428 111.479ZM249.261 111.479C249.264 111.355 249.23 111.233 249.163 111.129C249.096 111.025 248.999 110.943 248.885 110.894C248.771 110.846 248.645 110.832 248.523 110.856C248.402 110.879 248.29 110.939 248.202 111.026C248.114 111.114 248.055 111.226 248.032 111.347C248.008 111.469 248.022 111.595 248.07 111.709C248.119 111.823 248.201 111.92 248.305 111.987C248.409 112.054 248.531 112.088 248.655 112.086C248.739 112.077 248.82 112.052 248.894 112.01C248.967 111.969 249.031 111.912 249.082 111.844C249.132 111.777 249.168 111.699 249.187 111.617C249.206 111.534 249.207 111.449 249.191 111.366L249.261 111.479ZM251.081 111.479C251.081 111.318 251.017 111.164 250.903 111.05C250.79 110.936 250.635 110.873 250.474 110.873C250.314 110.873 250.159 110.936 250.046 111.05C249.932 111.164 249.868 111.318 249.868 111.479C249.868 111.64 249.932 111.794 250.046 111.908C250.159 112.022 250.314 112.086 250.474 112.086C250.553 112.07 250.629 112.04 250.696 111.995C250.763 111.951 250.82 111.893 250.865 111.826C250.909 111.759 250.94 111.684 250.956 111.605C250.971 111.526 250.97 111.445 250.954 111.366L251.081 111.479ZM241.969 116.486C241.969 116.326 241.905 116.171 241.791 116.057C241.678 115.944 241.523 115.88 241.363 115.88C241.202 115.88 241.047 115.944 240.934 116.057C240.82 116.171 240.756 116.326 240.756 116.486C240.756 116.647 240.82 116.801 240.934 116.915C241.047 117.029 241.202 117.093 241.363 117.093C241.523 117.093 241.678 117.029 241.791 116.915C241.905 116.801 241.969 116.647 241.969 116.486ZM243.789 116.486C243.789 116.326 243.725 116.171 243.611 116.057C243.497 115.944 243.343 115.88 243.182 115.88C243.021 115.88 242.867 115.944 242.753 116.057C242.64 116.171 242.576 116.326 242.576 116.486C242.579 116.646 242.644 116.798 242.757 116.911C242.87 117.024 243.022 117.089 243.182 117.093C243.266 117.085 243.348 117.059 243.421 117.017C243.495 116.976 243.559 116.919 243.609 116.852C243.66 116.784 243.695 116.706 243.714 116.624C243.733 116.542 243.734 116.456 243.718 116.374L243.789 116.486ZM245.608 116.486C245.608 116.326 245.544 116.171 245.431 116.057C245.317 115.944 245.163 115.88 245.002 115.88C244.841 115.88 244.687 115.944 244.573 116.057C244.459 116.171 244.395 116.326 244.395 116.486C244.399 116.646 244.464 116.798 244.577 116.911C244.69 117.024 244.842 117.089 245.002 117.093C245.086 117.085 245.167 117.059 245.241 117.017C245.314 116.976 245.378 116.919 245.429 116.852C245.479 116.784 245.515 116.706 245.534 116.624C245.552 116.542 245.554 116.456 245.538 116.374L245.608 116.486ZM247.428 116.486C247.428 116.326 247.364 116.171 247.25 116.057C247.136 115.944 246.982 115.88 246.821 115.88C246.66 115.88 246.506 115.944 246.392 116.057C246.279 116.171 246.215 116.326 246.215 116.486C246.218 116.646 246.283 116.798 246.396 116.911C246.509 117.024 246.661 117.089 246.821 117.093C246.905 117.085 246.987 117.059 247.06 117.017C247.134 116.976 247.198 116.919 247.248 116.852C247.299 116.784 247.334 116.706 247.353 116.624C247.372 116.542 247.373 116.456 247.357 116.374L247.428 116.486ZM249.261 116.486C249.239 116.34 249.165 116.206 249.052 116.109C248.94 116.012 248.796 115.959 248.648 115.959C248.499 115.959 248.356 116.012 248.243 116.109C248.131 116.206 248.057 116.34 248.034 116.486C248.057 116.633 248.131 116.767 248.243 116.864C248.356 116.961 248.499 117.014 248.648 117.014C248.796 117.014 248.94 116.961 249.052 116.864C249.165 116.767 249.239 116.633 249.261 116.486ZM251.081 116.486C251.081 116.326 251.017 116.171 250.903 116.057C250.79 115.944 250.635 115.88 250.474 115.88C250.314 115.88 250.159 115.944 250.046 116.057C249.932 116.171 249.868 116.326 249.868 116.486C249.868 116.647 249.932 116.801 250.046 116.915C250.159 117.029 250.314 117.093 250.474 117.093C250.632 117.059 250.771 116.965 250.86 116.83C250.95 116.696 250.983 116.532 250.954 116.374L251.081 116.486Z" fill="#3D3D3D"/>
<path d="M276.639 100.054H274.523C274.384 100.054 274.249 99.9997 274.149 99.9023C274.049 99.8048 273.991 99.672 273.987 99.5323C273.987 99.4626 274.001 99.3936 274.028 99.3293C274.056 99.2651 274.095 99.2069 274.145 99.1582C274.195 99.1096 274.254 99.0714 274.319 99.0461C274.384 99.0207 274.454 99.0086 274.523 99.0105H276.639C276.708 99.0085 276.777 99.0207 276.841 99.0462C276.905 99.0718 276.964 99.1101 277.013 99.159C277.061 99.2079 277.1 99.2662 277.125 99.3304C277.151 99.3946 277.163 99.4633 277.161 99.5323C277.161 99.6707 277.106 99.8035 277.008 99.9014C276.91 99.9992 276.778 100.054 276.639 100.054ZM277.161 101.958C277.163 101.889 277.151 101.821 277.125 101.756C277.1 101.692 277.061 101.634 277.013 101.585C276.964 101.536 276.905 101.498 276.841 101.472C276.777 101.447 276.708 101.435 276.639 101.437H274.523C274.454 101.435 274.384 101.447 274.319 101.472C274.254 101.497 274.195 101.536 274.145 101.584C274.095 101.633 274.056 101.691 274.028 101.755C274.001 101.82 273.987 101.889 273.987 101.958C273.991 102.098 274.049 102.231 274.149 102.328C274.249 102.426 274.384 102.48 274.523 102.48H276.639C276.708 102.48 276.776 102.467 276.839 102.441C276.902 102.414 276.96 102.376 277.008 102.327C277.057 102.279 277.095 102.221 277.121 102.158C277.148 102.095 277.161 102.027 277.161 101.958ZM277.161 104.384C277.161 104.246 277.106 104.113 277.008 104.015C276.91 103.918 276.778 103.863 276.639 103.863H274.523C274.384 103.863 274.249 103.917 274.149 104.015C274.049 104.112 273.991 104.245 273.987 104.384C273.987 104.454 274.001 104.523 274.028 104.588C274.056 104.652 274.095 104.71 274.145 104.759C274.195 104.807 274.254 104.845 274.319 104.871C274.384 104.896 274.454 104.908 274.523 104.906H276.639C276.708 104.908 276.777 104.896 276.841 104.871C276.905 104.845 276.964 104.807 277.013 104.758C277.061 104.709 277.1 104.651 277.125 104.586C277.151 104.522 277.163 104.454 277.161 104.384ZM277.161 106.811C277.161 106.672 277.106 106.539 277.008 106.441C276.91 106.344 276.778 106.289 276.639 106.289H274.523C274.384 106.289 274.249 106.343 274.149 106.441C274.049 106.538 273.991 106.671 273.987 106.811C273.987 106.88 274.001 106.949 274.028 107.014C274.056 107.078 274.095 107.136 274.145 107.185C274.195 107.233 274.254 107.271 274.319 107.297C274.384 107.322 274.454 107.334 274.523 107.332H276.639C276.708 107.334 276.777 107.322 276.841 107.297C276.905 107.271 276.964 107.233 277.013 107.184C277.061 107.135 277.1 107.077 277.125 107.013C277.151 106.948 277.163 106.88 277.161 106.811ZM277.161 109.237C277.161 109.098 277.106 108.965 277.008 108.868C276.91 108.77 276.778 108.715 276.639 108.715H274.523C274.384 108.715 274.249 108.769 274.149 108.867C274.049 108.964 273.991 109.097 273.987 109.237C273.987 109.306 274.001 109.375 274.028 109.44C274.056 109.504 274.095 109.562 274.145 109.611C274.195 109.659 274.254 109.697 274.319 109.723C274.384 109.748 274.454 109.76 274.523 109.758H276.639C276.708 109.76 276.777 109.748 276.841 109.723C276.905 109.697 276.964 109.659 277.013 109.61C277.061 109.561 277.1 109.503 277.125 109.439C277.151 109.374 277.163 109.306 277.161 109.237ZM277.161 111.663C277.161 111.524 277.106 111.391 277.008 111.294C276.91 111.196 276.778 111.141 276.639 111.141H274.523C274.384 111.141 274.249 111.195 274.149 111.293C274.049 111.39 273.991 111.523 273.987 111.663C273.987 111.732 274.001 111.801 274.028 111.866C274.056 111.93 274.095 111.988 274.145 112.037C274.195 112.085 274.254 112.124 274.319 112.149C274.384 112.174 274.454 112.186 274.523 112.185H276.639C276.708 112.186 276.777 112.174 276.841 112.149C276.905 112.123 276.964 112.085 277.013 112.036C277.061 111.987 277.1 111.929 277.125 111.865C277.151 111.8 277.163 111.732 277.161 111.663ZM277.161 114.089C277.161 113.95 277.106 113.818 277.008 113.72C276.91 113.622 276.778 113.567 276.639 113.567H274.523C274.447 113.554 274.368 113.559 274.293 113.579C274.218 113.6 274.149 113.637 274.09 113.687C274.031 113.738 273.983 113.8 273.95 113.871C273.918 113.941 273.901 114.018 273.901 114.096C273.901 114.173 273.918 114.25 273.95 114.321C273.983 114.391 274.031 114.454 274.09 114.504C274.149 114.555 274.218 114.591 274.293 114.612C274.368 114.633 274.447 114.637 274.523 114.625H276.639C276.709 114.625 276.778 114.611 276.842 114.584C276.906 114.557 276.965 114.517 277.013 114.467C277.062 114.417 277.1 114.358 277.125 114.293C277.151 114.228 277.163 114.158 277.161 114.089ZM277.161 116.515C277.161 116.376 277.106 116.244 277.008 116.146C276.91 116.048 276.778 115.993 276.639 115.993H274.523C274.447 115.98 274.368 115.985 274.293 116.005C274.218 116.026 274.149 116.063 274.09 116.113C274.031 116.164 273.983 116.226 273.95 116.297C273.918 116.367 273.901 116.444 273.901 116.522C273.901 116.6 273.918 116.676 273.95 116.747C273.983 116.817 274.031 116.88 274.09 116.93C274.149 116.981 274.218 117.017 274.293 117.038C274.368 117.059 274.447 117.063 274.523 117.051H276.639C276.709 117.051 276.778 117.037 276.842 117.01C276.906 116.983 276.965 116.943 277.013 116.893C277.062 116.843 277.1 116.784 277.125 116.719C277.151 116.654 277.163 116.584 277.161 116.515ZM285.116 99.5888C285.116 99.519 285.102 99.45 285.075 99.3857C285.048 99.3215 285.008 99.2633 284.958 99.2147C284.909 99.166 284.849 99.1279 284.784 99.1025C284.719 99.0771 284.65 99.065 284.58 99.0669H278.938C278.8 99.0669 278.667 99.1219 278.569 99.2197C278.471 99.3176 278.416 99.4504 278.416 99.5888C278.42 99.7261 278.476 99.8567 278.573 99.9538C278.67 100.051 278.801 100.107 278.938 100.111H284.58C284.654 100.111 284.728 100.096 284.796 100.066C284.864 100.037 284.925 99.9934 284.975 99.939C285.025 99.8847 285.064 99.8205 285.088 99.7505C285.113 99.6805 285.122 99.6062 285.116 99.5323V99.5888ZM285.116 102.015C285.116 101.945 285.102 101.876 285.075 101.812C285.048 101.748 285.008 101.689 284.958 101.641C284.909 101.592 284.849 101.554 284.784 101.529C284.719 101.503 284.65 101.491 284.58 101.493H278.938C278.8 101.493 278.667 101.548 278.569 101.646C278.471 101.744 278.416 101.876 278.416 102.015C278.42 102.152 278.476 102.283 278.573 102.38C278.67 102.477 278.801 102.533 278.938 102.537H284.58C284.654 102.537 284.728 102.522 284.796 102.492C284.864 102.463 284.925 102.419 284.975 102.365C285.025 102.311 285.064 102.247 285.088 102.177C285.113 102.107 285.122 102.032 285.116 101.958V102.015ZM285.116 104.441C285.113 104.301 285.055 104.168 284.954 104.071C284.854 103.973 284.72 103.919 284.58 103.919H278.938C278.801 103.923 278.67 103.979 278.573 104.076C278.476 104.173 278.42 104.304 278.416 104.441C278.416 104.579 278.471 104.712 278.569 104.81C278.667 104.908 278.8 104.963 278.938 104.963H284.58C284.655 104.965 284.729 104.952 284.798 104.923C284.867 104.894 284.929 104.851 284.98 104.796C285.031 104.741 285.07 104.676 285.093 104.605C285.116 104.534 285.124 104.459 285.116 104.384V104.441ZM285.116 106.867C285.113 106.727 285.055 106.595 284.954 106.497C284.854 106.4 284.72 106.345 284.58 106.345H278.938C278.801 106.349 278.67 106.405 278.573 106.502C278.476 106.599 278.42 106.73 278.416 106.867C278.416 107.005 278.471 107.138 278.569 107.236C278.667 107.334 278.8 107.389 278.938 107.389H284.58C284.655 107.391 284.729 107.378 284.798 107.349C284.867 107.32 284.929 107.277 284.98 107.222C285.031 107.167 285.07 107.102 285.093 107.031C285.116 106.96 285.124 106.885 285.116 106.811V106.867ZM285.116 109.293C285.113 109.153 285.055 109.021 284.954 108.923C284.854 108.826 284.72 108.771 284.58 108.771H278.938C278.801 108.775 278.67 108.831 278.573 108.928C278.476 109.025 278.42 109.156 278.416 109.293C278.416 109.431 278.471 109.564 278.569 109.662C278.667 109.76 278.8 109.815 278.938 109.815H284.58C284.655 109.817 284.729 109.804 284.798 109.775C284.867 109.746 284.929 109.703 284.98 109.648C285.031 109.593 285.07 109.528 285.093 109.457C285.116 109.386 285.124 109.311 285.116 109.237V109.293ZM291.788 111.719C291.784 111.582 291.728 111.451 291.631 111.354C291.534 111.257 291.403 111.201 291.266 111.197H285.624C285.487 111.201 285.356 111.257 285.259 111.354C285.162 111.451 285.106 111.582 285.102 111.719C285.102 111.857 285.157 111.99 285.255 112.088C285.353 112.186 285.486 112.241 285.624 112.241H291.266C291.345 112.252 291.426 112.245 291.502 112.221C291.578 112.196 291.648 112.154 291.705 112.098C291.762 112.042 291.806 111.974 291.832 111.898C291.859 111.823 291.868 111.742 291.858 111.663L291.788 111.719ZM291.788 114.145C291.784 114.008 291.728 113.877 291.631 113.78C291.534 113.683 291.403 113.627 291.266 113.623H285.624C285.499 113.644 285.385 113.708 285.302 113.805C285.22 113.902 285.175 114.025 285.175 114.152C285.175 114.279 285.22 114.402 285.302 114.499C285.385 114.596 285.499 114.661 285.624 114.681H291.266C291.346 114.69 291.427 114.681 291.503 114.654C291.579 114.628 291.648 114.584 291.705 114.527C291.762 114.471 291.805 114.402 291.832 114.326C291.858 114.25 291.867 114.169 291.858 114.089L291.788 114.145ZM291.788 116.571C291.784 116.434 291.728 116.303 291.631 116.206C291.534 116.109 291.403 116.053 291.266 116.049H285.624C285.499 116.07 285.385 116.134 285.302 116.231C285.22 116.328 285.175 116.451 285.175 116.578C285.175 116.705 285.22 116.828 285.302 116.925C285.385 117.022 285.499 117.087 285.624 117.107H291.266C291.346 117.116 291.427 117.107 291.503 117.08C291.579 117.054 291.648 117.01 291.705 116.954C291.762 116.897 291.805 116.828 291.832 116.752C291.858 116.676 291.867 116.595 291.858 116.515L291.788 116.571ZM287.556 99.6452C287.556 99.4843 287.493 99.33 287.379 99.2163C287.265 99.1026 287.111 99.0386 286.95 99.0386C286.789 99.0386 286.635 99.1026 286.521 99.2163C286.407 99.33 286.343 99.4843 286.343 99.6452C286.343 99.8061 286.407 99.9603 286.521 100.074C286.635 100.188 286.789 100.252 286.95 100.252C287.046 100.265 287.143 100.255 287.234 100.223C287.325 100.19 287.408 100.137 287.474 100.066C287.54 99.9961 287.589 99.9109 287.615 99.818C287.642 99.7251 287.646 99.6271 287.627 99.5323L287.556 99.6452ZM289.39 99.6452C289.39 99.4843 289.326 99.33 289.212 99.2163C289.099 99.1026 288.944 99.0386 288.784 99.0386C288.623 99.0386 288.468 99.1026 288.355 99.2163C288.241 99.33 288.177 99.4843 288.177 99.6452C288.177 99.8061 288.241 99.9603 288.355 100.074C288.468 100.188 288.623 100.252 288.784 100.252C288.874 100.253 288.963 100.235 289.045 100.197C289.127 100.16 289.2 100.105 289.258 100.036C289.316 99.9673 289.358 99.8864 289.381 99.7992C289.404 99.7121 289.407 99.6209 289.39 99.5323V99.6452ZM291.21 99.6452C291.21 99.4843 291.146 99.33 291.032 99.2163C290.918 99.1026 290.764 99.0386 290.603 99.0386C290.442 99.0386 290.288 99.1026 290.174 99.2163C290.06 99.33 289.997 99.4843 289.997 99.6452C289.997 99.8061 290.06 99.9603 290.174 100.074C290.288 100.188 290.442 100.252 290.603 100.252C290.693 100.253 290.783 100.235 290.865 100.197C290.947 100.16 291.019 100.105 291.077 100.036C291.135 99.9673 291.178 99.8864 291.2 99.7992C291.223 99.7121 291.226 99.6209 291.21 99.5323V99.6452ZM293.029 99.6452C293.029 99.4843 292.965 99.33 292.852 99.2163C292.738 99.1026 292.584 99.0386 292.423 99.0386C292.262 99.0386 292.108 99.1026 291.994 99.2163C291.88 99.33 291.816 99.4843 291.816 99.6452C291.816 99.8061 291.88 99.9603 291.994 100.074C292.108 100.188 292.262 100.252 292.423 100.252C292.513 100.253 292.602 100.235 292.684 100.197C292.766 100.16 292.839 100.105 292.897 100.036C292.955 99.9673 292.997 99.8864 293.02 99.7992C293.043 99.7121 293.046 99.6209 293.029 99.5323V99.6452ZM294.849 99.6452C294.849 99.4843 294.785 99.33 294.671 99.2163C294.557 99.1026 294.403 99.0386 294.242 99.0386C294.081 99.0386 293.927 99.1026 293.813 99.2163C293.7 99.33 293.636 99.4843 293.636 99.6452C293.636 99.8061 293.7 99.9603 293.813 100.074C293.927 100.188 294.081 100.252 294.242 100.252C294.332 100.253 294.422 100.235 294.504 100.197C294.586 100.16 294.658 100.105 294.717 100.036C294.775 99.9673 294.817 99.8864 294.839 99.7992C294.862 99.7121 294.865 99.6209 294.849 99.5323V99.6452ZM296.668 99.6452C296.668 99.5252 296.633 99.408 296.566 99.3082C296.499 99.2085 296.405 99.1307 296.294 99.0848C296.183 99.0389 296.061 99.0269 295.943 99.0503C295.826 99.0737 295.718 99.1315 295.633 99.2163C295.548 99.3011 295.49 99.4092 295.467 99.5269C295.443 99.6445 295.456 99.7665 295.501 99.8773C295.547 99.9881 295.625 100.083 295.725 100.149C295.825 100.216 295.942 100.252 296.062 100.252C296.152 100.253 296.241 100.235 296.323 100.197C296.405 100.16 296.478 100.105 296.536 100.036C296.594 99.9673 296.636 99.8864 296.659 99.7992C296.682 99.7121 296.685 99.6209 296.668 99.5323V99.6452ZM287.627 104.384C287.627 104.224 287.563 104.069 287.449 103.956C287.336 103.842 287.181 103.778 287.02 103.778C286.86 103.778 286.705 103.842 286.592 103.956C286.478 104.069 286.414 104.224 286.414 104.384C286.414 104.545 286.478 104.7 286.592 104.813C286.705 104.927 286.86 104.991 287.02 104.991C287.181 104.991 287.336 104.927 287.449 104.813C287.563 104.7 287.627 104.545 287.627 104.384ZM289.461 104.384C289.461 104.224 289.397 104.069 289.283 103.956C289.169 103.842 289.015 103.778 288.854 103.778C288.693 103.778 288.539 103.842 288.425 103.956C288.311 104.069 288.248 104.224 288.248 104.384C288.248 104.545 288.311 104.7 288.425 104.813C288.539 104.927 288.693 104.991 288.854 104.991C289.002 104.974 289.139 104.902 289.238 104.79C289.337 104.678 289.391 104.534 289.39 104.384H289.461ZM291.28 104.384C291.28 104.224 291.216 104.069 291.103 103.956C290.989 103.842 290.835 103.778 290.674 103.778C290.513 103.778 290.359 103.842 290.245 103.956C290.131 104.069 290.067 104.224 290.067 104.384C290.067 104.545 290.131 104.7 290.245 104.813C290.359 104.927 290.513 104.991 290.674 104.991C290.822 104.974 290.959 104.902 291.058 104.79C291.157 104.678 291.211 104.534 291.21 104.384H291.28ZM293.1 104.384C293.1 104.224 293.036 104.069 292.922 103.956C292.808 103.842 292.654 103.778 292.493 103.778C292.332 103.778 292.178 103.842 292.064 103.956C291.951 104.069 291.887 104.224 291.887 104.384C291.887 104.545 291.951 104.7 292.064 104.813C292.178 104.927 292.332 104.991 292.493 104.991C292.642 104.974 292.778 104.902 292.877 104.79C292.976 104.678 293.03 104.534 293.029 104.384H293.1ZM294.919 104.384C294.919 104.224 294.855 104.069 294.742 103.956C294.628 103.842 294.474 103.778 294.313 103.778C294.152 103.778 293.998 103.842 293.884 103.956C293.77 104.069 293.706 104.224 293.706 104.384C293.706 104.545 293.77 104.7 293.884 104.813C293.998 104.927 294.152 104.991 294.313 104.991C294.461 104.974 294.598 104.902 294.697 104.79C294.796 104.678 294.85 104.534 294.849 104.384H294.919ZM296.739 104.384C296.739 104.265 296.703 104.147 296.637 104.048C296.57 103.948 296.475 103.87 296.364 103.824C296.254 103.778 296.132 103.766 296.014 103.79C295.896 103.813 295.788 103.871 295.703 103.956C295.619 104.04 295.561 104.148 295.537 104.266C295.514 104.384 295.526 104.506 295.572 104.617C295.618 104.727 295.696 104.822 295.795 104.889C295.895 104.955 296.012 104.991 296.132 104.991C296.281 104.974 296.417 104.902 296.516 104.79C296.615 104.678 296.669 104.534 296.668 104.384H296.739ZM293.847 111.366C293.847 111.206 293.783 111.051 293.67 110.938C293.556 110.824 293.402 110.76 293.241 110.76C293.08 110.76 292.926 110.824 292.812 110.938C292.698 111.051 292.634 111.206 292.634 111.366C292.634 111.527 292.698 111.682 292.812 111.795C292.926 111.909 293.08 111.973 293.241 111.973C293.389 111.956 293.526 111.884 293.625 111.772C293.724 111.66 293.778 111.516 293.777 111.366H293.847ZM295.681 111.366C295.684 111.243 295.65 111.122 295.583 111.018C295.517 110.914 295.421 110.832 295.308 110.783C295.195 110.734 295.069 110.72 294.948 110.742C294.827 110.764 294.715 110.822 294.627 110.908C294.538 110.995 294.478 111.105 294.453 111.226C294.428 111.347 294.439 111.472 294.486 111.586C294.532 111.701 294.612 111.798 294.714 111.867C294.816 111.936 294.937 111.973 295.06 111.973C295.21 111.956 295.348 111.885 295.45 111.773C295.551 111.662 295.608 111.517 295.61 111.366H295.681ZM297.5 111.366C297.5 111.206 297.437 111.051 297.323 110.938C297.209 110.824 297.055 110.76 296.894 110.76C296.733 110.76 296.579 110.824 296.465 110.938C296.351 111.051 296.287 111.206 296.287 111.366C296.287 111.527 296.351 111.682 296.465 111.795C296.579 111.909 296.733 111.973 296.894 111.973C297.055 111.973 297.209 111.909 297.323 111.795C297.437 111.682 297.5 111.527 297.5 111.366ZM299.32 111.366C299.32 111.206 299.256 111.051 299.142 110.938C299.029 110.824 298.874 110.76 298.713 110.76C298.553 110.76 298.398 110.824 298.285 110.938C298.171 111.051 298.107 111.206 298.107 111.366C298.107 111.527 298.171 111.682 298.285 111.795C298.398 111.909 298.553 111.973 298.713 111.973C298.862 111.956 298.999 111.884 299.097 111.772C299.196 111.66 299.25 111.516 299.249 111.366H299.32ZM301.14 111.366C301.14 111.206 301.076 111.051 300.962 110.938C300.848 110.824 300.694 110.76 300.533 110.76C300.372 110.76 300.218 110.824 300.104 110.938C299.99 111.051 299.927 111.206 299.927 111.366C299.927 111.527 299.99 111.682 300.104 111.795C300.218 111.909 300.372 111.973 300.533 111.973C300.681 111.956 300.818 111.884 300.917 111.772C301.016 111.66 301.07 111.516 301.069 111.366H301.14ZM302.959 111.366C302.959 111.246 302.924 111.129 302.857 111.029C302.79 110.93 302.696 110.852 302.585 110.806C302.474 110.76 302.352 110.748 302.234 110.772C302.117 110.795 302.009 110.853 301.924 110.938C301.839 111.022 301.781 111.13 301.758 111.248C301.734 111.366 301.746 111.488 301.792 111.599C301.838 111.709 301.916 111.804 302.016 111.871C302.115 111.937 302.233 111.973 302.353 111.973C302.501 111.956 302.638 111.884 302.737 111.772C302.835 111.66 302.89 111.516 302.889 111.366H302.959ZM293.847 116.374C293.847 116.213 293.783 116.059 293.67 115.945C293.556 115.831 293.402 115.767 293.241 115.767C293.08 115.767 292.926 115.831 292.812 115.945C292.698 116.059 292.634 116.213 292.634 116.374C292.638 116.533 292.703 116.686 292.816 116.799C292.929 116.912 293.081 116.977 293.241 116.98C293.389 116.963 293.526 116.891 293.625 116.779C293.724 116.668 293.778 116.523 293.777 116.374H293.847ZM295.681 116.374C295.659 116.227 295.584 116.093 295.472 115.996C295.359 115.9 295.216 115.846 295.067 115.846C294.919 115.846 294.775 115.9 294.663 115.996C294.55 116.093 294.476 116.227 294.454 116.374C294.476 116.52 294.55 116.654 294.663 116.751C294.775 116.848 294.919 116.901 295.067 116.901C295.216 116.901 295.359 116.848 295.472 116.751C295.584 116.654 295.659 116.52 295.681 116.374ZM297.5 116.374C297.5 116.294 297.485 116.215 297.454 116.142C297.424 116.068 297.379 116.001 297.323 115.945C297.266 115.889 297.2 115.844 297.126 115.813C297.052 115.783 296.974 115.767 296.894 115.767C296.733 115.767 296.579 115.831 296.465 115.945C296.351 116.059 296.287 116.213 296.287 116.374C296.287 116.453 296.303 116.532 296.334 116.606C296.364 116.679 296.409 116.746 296.465 116.803C296.521 116.859 296.588 116.904 296.662 116.934C296.735 116.965 296.814 116.98 296.894 116.98C297.054 116.977 297.206 116.912 297.319 116.799C297.432 116.686 297.497 116.533 297.5 116.374ZM299.32 116.374C299.32 116.213 299.256 116.059 299.142 115.945C299.029 115.831 298.874 115.767 298.713 115.767C298.553 115.767 298.398 115.831 298.285 115.945C298.171 116.059 298.107 116.213 298.107 116.374C298.107 116.453 298.123 116.532 298.153 116.606C298.184 116.679 298.228 116.746 298.285 116.803C298.341 116.859 298.408 116.904 298.481 116.934C298.555 116.965 298.634 116.98 298.713 116.98C298.861 116.96 298.996 116.888 299.094 116.776C299.192 116.665 299.247 116.522 299.249 116.374H299.32ZM301.14 116.374C301.14 116.213 301.076 116.059 300.962 115.945C300.848 115.831 300.694 115.767 300.533 115.767C300.372 115.767 300.218 115.831 300.104 115.945C299.99 116.059 299.927 116.213 299.927 116.374C299.927 116.453 299.942 116.532 299.973 116.606C300.003 116.679 300.048 116.746 300.104 116.803C300.16 116.859 300.227 116.904 300.301 116.934C300.375 116.965 300.453 116.98 300.533 116.98C300.68 116.96 300.815 116.888 300.914 116.776C301.012 116.665 301.067 116.522 301.069 116.374H301.14ZM302.959 116.374C302.959 116.213 302.895 116.059 302.781 115.945C302.668 115.831 302.513 115.767 302.353 115.767C302.192 115.767 302.037 115.831 301.924 115.945C301.81 116.059 301.746 116.213 301.746 116.374C301.746 116.535 301.81 116.689 301.924 116.803C302.037 116.916 302.192 116.98 302.353 116.98C302.513 116.98 302.668 116.916 302.781 116.803C302.895 116.689 302.959 116.535 302.959 116.374Z" fill="#3D3D3D"/>
<path d="M204.027 114.386C204.027 114.386 195.183 93.7358 187.425 93.7358C179.667 93.7358 180.048 111.071 184.844 120.296C189.64 129.52 199.979 133.202 202.927 127.672" fill="#F4F4F4"/>
<path d="M204.027 114.386C204.027 114.386 195.183 93.7358 187.425 93.7358C179.667 93.7358 180.048 111.071 184.844 120.296C189.64 129.52 199.979 133.202 202.927 127.672" fill="#FFEE80"/>
<path d="M204.027 114.386C204.027 114.386 195.183 93.7358 187.425 93.7358C179.667 93.7358 180.048 111.071 184.844 120.296C189.64 129.52 199.979 133.202 202.927 127.672" stroke="#3D3D3D" stroke-linecap="round" stroke-linejoin="round"/>
<path d="M184.858 106.331C184.858 106.331 183.73 97.3463 188.003 98.9261C192.277 100.506 197.214 114.653 197.214 114.653C197.214 114.653 193.617 110.831 194.069 114.427C194.125 115.384 194.517 116.289 195.174 116.986C195.832 117.682 196.714 118.125 197.665 118.236" stroke="#3D3D3D" stroke-linecap="round" stroke-linejoin="round"/>
<path d="M326 179.45H323.062L293.201 299.484H297.5L326 179.45Z" fill="#3D3D3D" stroke="#3D3D3D" stroke-linecap="round" stroke-linejoin="round"/>
<path fill-rule="evenodd" clip-rule="evenodd" d="M207.468 299.484H295.201V308.017H207.468V299.484Z" fill="#FFDC00"/>
<path d="M470.075 299.484H295.201V308.017H470.075V299.484Z" fill="#FFDC00"/>
<path d="M470.075 299.484H470.575C470.575 299.208 470.351 298.984 470.075 298.984V299.484ZM207.468 299.484V298.984C207.192 298.984 206.968 299.208 206.968 299.484H207.468ZM207.468 308.017H206.968C206.968 308.294 207.192 308.517 207.468 308.517V308.017ZM470.075 308.017V308.517C470.351 308.517 470.575 308.294 470.575 308.017H470.075ZM470.075 298.984H207.468V299.984H470.075V298.984ZM206.968 299.484V308.017H207.968V299.484H206.968ZM207.468 308.517H470.075V307.517H207.468V308.517ZM470.575 308.017V299.484H469.575V308.017H470.575ZM470.075 298.984H295.201V299.984H470.075V298.984ZM294.701 299.484V308.017H295.701V299.484H294.701ZM295.201 308.517H470.075V307.517H295.201V308.517ZM207.468 299.984H295.201V298.984H207.468V299.984ZM295.201 307.517H207.468V308.517H295.201V307.517Z" fill="#3D3D3D"/>
<path d="M499.868 179.45H324.994L295.134 299.484H470.008L499.868 179.45Z" fill="#FFDC00" stroke="#3D3D3D" stroke-linecap="round" stroke-linejoin="round"/>
<path d="M398.506 267.45C412.279 267.45 423.444 256.392 423.444 242.752C423.444 229.112 412.279 218.054 398.506 218.054C384.734 218.054 373.569 229.112 373.569 242.752C373.569 256.392 384.734 267.45 398.506 267.45Z" fill="#3D3D3D"/>
<path d="M378.237 245.56C377.976 245.443 377.741 245.274 377.547 245.063C377.353 244.852 377.204 244.604 377.109 244.333C376.877 243.754 376.877 243.107 377.109 242.528C377.235 242.209 377.425 241.919 377.668 241.676C377.911 241.434 378.2 241.244 378.519 241.117L389.084 236.886C389.437 236.731 389.803 236.886 390.198 237.351C390.549 237.743 390.762 238.238 390.805 238.762C390.814 239.014 390.751 239.263 390.624 239.48C390.496 239.697 390.31 239.874 390.086 239.989L381.228 243.431L390.114 246.999C390.301 247.125 390.451 247.298 390.547 247.502C390.644 247.705 390.684 247.931 390.664 248.156C390.647 248.668 390.469 249.161 390.156 249.566C389.818 250.018 389.479 250.173 389.126 250.032L378.237 245.56Z" fill="#F4F4F4"/>
<path d="M394.726 251.47C394.581 251.354 394.464 251.206 394.386 251.037C394.307 250.868 394.269 250.683 394.275 250.497C394.338 249.989 394.451 249.488 394.613 249.002L400.481 232.076C400.848 230.806 401.37 230.172 402.047 230.172C402.419 230.166 402.78 230.296 403.062 230.538C403.2 230.677 403.307 230.842 403.378 231.024C403.448 231.206 403.48 231.401 403.471 231.596C403.435 232.08 403.326 232.556 403.147 233.007L397.011 250.92C396.943 251.204 396.777 251.456 396.542 251.631C396.308 251.806 396.02 251.894 395.728 251.879C395.356 251.867 395 251.722 394.726 251.47Z" fill="#F4F4F4"/>
<path d="M406.25 249.637C405.937 249.231 405.759 248.738 405.742 248.226C405.722 248.002 405.762 247.776 405.859 247.572C405.955 247.369 406.105 247.195 406.292 247.069L415.178 243.501L406.32 240.059C406.096 239.944 405.91 239.768 405.782 239.55C405.655 239.333 405.592 239.084 405.601 238.832C405.644 238.308 405.857 237.813 406.208 237.422C406.603 236.956 406.969 236.801 407.322 236.956L417.887 241.188C418.396 241.389 418.829 241.744 419.128 242.203C419.397 242.593 419.539 243.056 419.537 243.529C419.52 243.971 419.394 244.402 419.17 244.784C418.963 245.162 418.635 245.46 418.239 245.631L407.28 250.187C406.927 250.243 406.588 250.088 406.25 249.637Z" fill="#F4F4F4"/>
<path d="M566.906 306.127H0.829956V314.59H566.906V306.127Z" fill="#F4F4F4" stroke="#3D3D3D" stroke-linecap="round" stroke-linejoin="round"/>
</svg>
