<svg id="code-bro" viewBox="0 0 501 274" fill="none" xmlns="http://www.w3.org/2000/svg" role="img" focusable="false">
<title>Illustration of a guy programming on a laptop with a flower next to it</title>
<path d="M34.9781 267.278C34.9781 267.278 26.3889 150.625 19.6403 121.769C12.8916 92.9125 46.0213 86.7729 93.8752 83.0891C141.729 79.4053 163.816 82.4751 174.245 89.2287C184.675 95.9823 189.301 175.712 196.332 204.04C203.363 232.368 208.602 269.12 208.602 269.12L34.9781 267.278Z" fill="#3D3D3D" stroke="#3D3D3D" stroke-linecap="round" stroke-linejoin="round"/>
<path d="M458.019 170.604C451.455 178.818 448.203 183.399 446.853 185.474C448.576 176.435 451.085 167.565 454.35 158.963C456.807 152.294 458.342 145.32 458.915 138.235L458.301 138.567L457.737 137.474C457.958 137.351 480.339 125.465 486.67 114.254L487.738 114.868C482.02 124.986 464.351 135.239 459.516 137.904C464.105 137.462 478.437 135.288 486.965 124.741C497.21 112.081 495.407 96.3876 495.407 96.3876C495.407 96.3876 476.093 109.662 468.265 119.915C464.613 124.603 461.547 129.721 459.136 135.153C459.483 126.794 458.844 118.424 457.234 110.214C463.676 105.143 487.37 85.6556 489.971 71.0432C492.989 54.1592 488.744 25.1924 488.744 25.1924C486.313 31.2025 483.493 37.0476 480.302 42.6904C474.878 52.3419 457.995 67.4331 454.976 83.7154C454.208 87.7894 453.798 91.9228 453.749 96.0684C451.028 86.9825 447.774 78.0646 444.007 69.361C443.011 67.0311 442.19 64.6299 441.552 62.1776V62.1776L441.025 61.8583C441.135 61.6741 452.007 43.3289 452.007 38.0611H453.234C453.234 42.9728 444.939 57.5851 442.644 61.5145C446.436 59.2306 452.62 54.5521 454.915 47.2828C458.375 36.4893 453.258 26.7641 453.258 26.7641C453.258 26.7641 444.092 40.2713 441.589 48.8668C440.406 52.7992 439.701 56.8604 439.491 60.9619C437.736 56.4923 435.049 50.4263 431.957 46.3127C426.534 39.068 422.914 28.2131 422.914 28.2131C422.914 28.2131 416.288 39.6696 421.11 51.7402C425.074 61.6496 436.35 65.4561 440.252 66.4753C440.681 67.7892 441.16 69.0663 441.687 70.2942C446.966 82.2533 451.099 94.6865 454.031 107.427C451.221 103.682 445.921 97.0876 440.902 93.4038C433.614 88.05 427 78.6686 427 78.6686C427 78.6686 423.981 91.5619 432.092 101.717C438.718 110.005 450.497 110.411 454.62 110.312C457.406 124.925 457.725 140.176 453.001 154.911C452.694 152.05 450.976 144.265 441.503 135.559C429.552 124.507 405.637 89.3885 405.637 89.3885C405.637 89.3885 407.539 130.905 419 144.547C429.503 157.06 449.332 156.323 452.596 156.114C452.375 156.765 452.154 157.416 451.909 158.066C444.362 178.364 442.767 192.596 442.583 200.123H428.472V265.891H467.664V200.16H445.209C445.356 195.869 445.799 191.594 446.534 187.365L446.129 187.475L445.798 186.247C446.043 186.186 470.596 179.261 487.762 161.591L488.646 162.438C474.793 176.706 456.215 184.049 449.086 186.481C456.179 185.609 473.492 182.993 481.529 177.787C491.787 171.156 500.83 151.239 500.83 151.239C500.83 151.239 467.664 158.533 458.019 170.604ZM439.368 63.7739C435.356 61.6398 431.865 58.6439 429.145 55.001C426.426 51.3581 424.545 47.1584 423.638 42.7026L424.865 42.457C425.723 46.7262 427.517 50.7519 430.116 54.2445C432.715 57.7372 436.055 60.6101 439.896 62.6565L439.368 63.7739ZM456.718 110.632L456.461 110.988L455.995 110.791C455.307 110.521 439.27 103.915 432.742 94.3739L433.761 93.6739C439.467 102.036 453.283 108.299 455.995 109.465C458.068 106.272 471.099 86.0362 475.627 73.3149L476.78 73.7324C471.823 87.6571 456.878 110.374 456.718 110.607V110.632ZM451.013 155.66C450.829 155.598 431.712 148.39 423.196 131.862L424.288 131.31C432.583 147.408 451.283 154.444 451.442 154.518L451.013 155.66Z" fill="#3D3D3D"/>
<path d="M319.945 265.883H56.2513L56.3179 265.307C56.4034 264.567 56.5288 263.481 56.6883 262.097C57.0074 259.328 57.4632 255.365 58.0102 250.591C59.1042 241.041 60.5629 228.242 62.0216 215.245C63.4802 202.248 64.939 189.051 66.0331 178.707C67.1248 168.385 67.8592 160.856 67.8592 159.234C67.8592 158.584 68.1542 157.783 68.809 156.817C69.4592 155.859 70.433 154.785 71.7142 153.602C74.2759 151.237 78.0084 148.488 82.6718 145.41C91.9953 139.258 104.964 131.84 119.545 123.618C134.08 115.42 150.078 109.465 162.451 105.558C168.635 103.605 173.91 102.165 177.638 101.213C179.502 100.738 180.978 100.384 181.989 100.15C182.494 100.032 182.882 99.9448 183.144 99.8867C183.275 99.8577 183.374 99.836 183.44 99.8216L183.506 99.8075C198.495 98.7683 216.023 103.121 231.545 109.664C247.084 116.215 260.527 124.925 267.348 132.517C281.034 147.749 285.798 163.061 290.026 186.901C292.154 198.899 299.729 218.842 306.748 235.742C310.262 244.201 313.643 251.914 316.146 257.511C317.397 260.31 318.429 262.58 319.148 264.151C319.486 264.888 319.754 265.472 319.945 265.883Z" fill="#F4F4F4" stroke="#3D3D3D"/>
<path d="M80.6847 196.501C84.6111 193.702 92.4641 215.019 94.6973 210.009C96.9305 204.999 80.6847 179.716 79.5681 170.715C78.4515 161.714 89.0898 160.609 101.434 152.198C113.778 143.786 124.98 137.045 124.98 148.268C124.98 159.492 130.023 180.195 133.95 171.832C137.876 163.47 146.281 152.763 146.834 167.338C147.386 181.914 146.834 196.514 148.527 196.514C150.22 196.514 165.337 180.809 169.264 172.95C173.19 165.091 164.773 144.904 164.773 135.928C164.773 126.952 172.626 114.611 172.626 114.611L173.129 101.902C160.576 105.34 138.662 112.278 119.299 123.194C90.145 139.587 67.3592 152.885 67.3592 159.234C67.3592 165.582 55.6902 266.383 55.6902 266.383H70.1936C72.8931 241.419 77.9116 198.528 80.6847 196.501Z" fill="#FFEE80"/>
<path d="M176.196 103.167C172.123 112.894 169.965 123.318 169.84 133.865C169.84 150.638 185.26 158.621 188.733 166.713C192.205 174.805 204.391 183.254 204.391 183.254C204.391 183.254 209.381 166.76 214.583 156.347C219.786 145.935 219.615 141.902 219.615 141.902C219.615 141.902 201.608 138.494 192.356 124.041C183.104 109.589 176.196 103.167 176.196 103.167Z" stroke="#3D3D3D" stroke-linecap="round" stroke-linejoin="round"/>
<path d="M171.791 103.032L171.753 102.533C171.673 102.539 171.596 102.564 171.527 102.607L171.791 103.032ZM155.349 130.611L154.85 130.581L154.85 130.583L155.349 130.611ZM205.797 187.636L205.708 188.128C205.885 188.16 206.066 188.094 206.181 187.956L205.797 187.636ZM136.862 139.973C136.756 140.228 136.878 140.52 137.133 140.626C137.388 140.732 137.68 140.611 137.786 140.355L136.862 139.973ZM168.231 105.626C168.491 105.532 168.625 105.246 168.531 104.986C168.438 104.726 168.151 104.592 167.891 104.685L168.231 105.626ZM87.3932 163.233C87.2488 162.998 86.9409 162.924 86.7055 163.068C86.4702 163.213 86.3965 163.521 86.5409 163.756L87.3932 163.233ZM104.494 211.811C104.52 212.086 104.763 212.288 105.038 212.262C105.313 212.237 105.515 211.993 105.49 211.718L104.494 211.811ZM107.069 187.287C107.025 187.015 106.769 186.829 106.497 186.872C106.224 186.915 106.038 187.171 106.081 187.444L107.069 187.287ZM111.876 237.711L112.376 237.715V237.711H111.876ZM114.035 266.454C114.088 266.725 114.351 266.902 114.622 266.849C114.893 266.796 115.07 266.533 115.017 266.262L114.035 266.454ZM110.861 230.219C110.799 230.488 110.967 230.756 111.236 230.818C111.505 230.88 111.773 230.712 111.835 230.443L110.861 230.219ZM116.093 190.54C116.09 190.263 115.863 190.042 115.587 190.046C115.311 190.05 115.09 190.277 115.094 190.553L116.093 190.54ZM257.077 187.852C257.054 187.576 256.812 187.372 256.537 187.395C256.262 187.418 256.057 187.66 256.08 187.935L257.077 187.852ZM267.216 265.428C267.265 265.7 267.526 265.88 267.797 265.831C268.069 265.781 268.249 265.521 268.2 265.249L267.216 265.428ZM171.527 102.607C166.715 105.596 162.689 109.696 159.788 114.563L160.647 115.075C163.466 110.345 167.379 106.361 172.055 103.456L171.527 102.607ZM159.788 114.563C156.886 119.431 155.193 124.923 154.85 130.581L155.848 130.641C156.181 125.143 157.827 119.805 160.647 115.075L159.788 114.563ZM154.85 130.583C154.319 140.197 155.811 148.68 157.293 156.056C158.783 163.468 160.238 169.677 159.72 174.881L160.715 174.98C161.252 169.587 159.745 163.183 158.273 155.859C156.794 148.498 155.324 140.119 155.848 130.638L154.85 130.583ZM159.72 174.881C159.2 180.097 157.115 184.794 155.842 188.216C155.526 189.065 155.257 189.845 155.081 190.53C154.908 191.207 154.812 191.837 154.877 192.374C154.945 192.936 155.195 193.425 155.716 193.723C156.201 194 156.846 194.066 157.613 193.995L157.521 192.999C156.83 193.063 156.433 192.981 156.212 192.855C156.027 192.749 155.909 192.58 155.87 192.254C155.828 191.904 155.886 191.418 156.05 190.778C156.212 190.146 156.466 189.407 156.779 188.564C158.024 185.218 160.179 180.361 160.715 174.98L159.72 174.881ZM157.613 193.995C158.468 193.915 159.397 193.468 160.35 192.821C161.313 192.166 162.351 191.272 163.429 190.231C165.585 188.148 167.951 185.429 170.267 182.748C172.592 180.057 174.864 177.406 176.852 175.426C177.846 174.436 178.754 173.629 179.55 173.072C180.364 172.503 180.985 172.25 181.42 172.25V171.25C180.661 171.25 179.824 171.66 178.977 172.253C178.112 172.858 177.157 173.711 176.146 174.718C174.125 176.731 171.824 179.416 169.511 182.094C167.189 184.782 164.851 187.466 162.734 189.511C161.676 190.534 160.684 191.385 159.788 191.994C158.882 192.609 158.123 192.943 157.521 192.999L157.613 193.995ZM181.42 172.25C182.485 172.25 183.784 172.713 185.203 173.514C186.611 174.31 188.086 175.411 189.491 176.62C192.306 179.043 194.78 181.852 195.81 183.395L196.642 182.839C195.549 181.202 193.007 178.327 190.143 175.862C188.708 174.627 187.179 173.482 185.695 172.644C184.221 171.811 182.741 171.25 181.42 171.25V172.25ZM195.81 183.395C196.402 184.281 197.34 185.008 198.368 185.598C199.402 186.192 200.563 186.67 201.645 187.042C202.728 187.415 203.741 187.686 204.483 187.863C204.855 187.952 205.159 188.018 205.372 188.062C205.478 188.084 205.561 188.1 205.618 188.111C205.647 188.117 205.669 188.121 205.684 188.123C205.692 188.125 205.697 188.126 205.701 188.127C205.703 188.127 205.705 188.127 205.706 188.128C205.707 188.128 205.707 188.128 205.708 188.128C205.708 188.128 205.708 188.128 205.708 188.128C205.708 188.128 205.708 188.128 205.797 187.636C205.885 187.144 205.885 187.144 205.885 187.144C205.885 187.144 205.885 187.144 205.885 187.144C205.885 187.144 205.885 187.144 205.884 187.144C205.884 187.143 205.883 187.143 205.881 187.143C205.878 187.142 205.873 187.142 205.867 187.14C205.853 187.138 205.833 187.134 205.807 187.129C205.754 187.119 205.675 187.103 205.573 187.082C205.37 187.041 205.076 186.977 204.716 186.891C203.996 186.718 203.014 186.456 201.97 186.096C200.924 185.736 199.826 185.283 198.866 184.731C197.9 184.176 197.111 183.543 196.642 182.839L195.81 183.395ZM205.797 187.636C206.181 187.956 206.181 187.956 206.181 187.956C206.181 187.956 206.181 187.956 206.181 187.956C206.181 187.955 206.182 187.955 206.182 187.954C206.183 187.953 206.184 187.952 206.186 187.95C206.19 187.945 206.195 187.939 206.201 187.931C206.214 187.915 206.234 187.892 206.259 187.861C206.31 187.799 206.385 187.709 206.479 187.593C206.668 187.361 206.937 187.028 207.261 186.619C207.907 185.803 208.769 184.685 209.632 183.482C210.494 182.282 211.364 180.988 212.02 179.82C212.348 179.237 212.628 178.676 212.827 178.168C213.022 177.669 213.156 177.181 213.156 176.756H212.156C212.156 176.995 212.075 177.345 211.895 177.803C211.719 178.253 211.463 178.77 211.148 179.33C210.518 180.451 209.673 181.711 208.82 182.899C207.969 184.085 207.116 185.19 206.476 185.999C206.156 186.403 205.89 186.733 205.704 186.961C205.611 187.076 205.538 187.164 205.488 187.225C205.463 187.255 205.444 187.278 205.432 187.293C205.425 187.301 205.42 187.306 205.417 187.31C205.416 187.312 205.414 187.313 205.414 187.314C205.413 187.315 205.413 187.315 205.413 187.315C205.413 187.316 205.413 187.316 205.413 187.316C205.413 187.316 205.413 187.316 205.797 187.636ZM213.156 176.756C213.156 176.683 213.18 176.55 213.264 176.346C213.346 176.148 213.472 175.91 213.645 175.636C213.989 175.089 214.497 174.431 215.137 173.704C216.416 172.253 218.188 170.564 220.145 168.988C222.102 167.41 224.228 165.957 226.211 164.968C228.218 163.966 229.986 163.486 231.269 163.722L231.45 162.739C229.83 162.441 227.809 163.053 225.765 164.073C223.697 165.105 221.51 166.603 219.517 168.209C217.523 169.816 215.708 171.543 214.387 173.043C213.727 173.793 213.182 174.495 212.798 175.104C212.607 175.408 212.45 175.698 212.34 175.965C212.232 176.227 212.156 176.498 212.156 176.756H213.156ZM231.269 163.722C231.918 163.842 232.79 164.195 233.846 164.745C234.893 165.29 236.084 166.008 237.365 166.827C239.94 168.474 242.797 170.479 245.548 172.289C248.268 174.079 250.874 175.672 252.848 176.41C253.82 176.773 254.739 176.968 255.469 176.786C255.853 176.691 256.189 176.489 256.433 176.159C256.673 175.838 256.797 175.433 256.836 174.973L255.84 174.888C255.811 175.225 255.727 175.434 255.631 175.563C255.541 175.684 255.415 175.769 255.227 175.816C254.811 175.92 254.14 175.824 253.198 175.473C251.345 174.781 248.829 173.251 246.097 171.453C243.396 169.675 240.473 167.627 237.904 165.984C236.613 165.159 235.393 164.423 234.307 163.858C233.231 163.298 232.251 162.886 231.45 162.739L231.269 163.722ZM256.836 174.973C256.985 173.213 256.262 171.547 255.192 169.853C254.133 168.174 252.641 166.336 251.2 164.312C248.286 160.22 245.343 155.073 245.343 147.56H244.343C244.343 155.372 247.417 160.723 250.386 164.892C251.886 166.999 253.302 168.731 254.347 170.387C255.382 172.028 255.961 173.461 255.84 174.888L256.836 174.973ZM245.343 147.56C245.343 143.688 244.808 140.969 243.8 138.905C242.786 136.831 241.319 135.464 239.549 134.259C235.996 131.841 231.345 130.101 226.066 124.58L225.343 125.271C230.714 130.888 235.633 132.803 238.986 135.086C240.67 136.232 241.99 137.478 242.901 139.344C243.817 141.22 244.343 143.77 244.343 147.56H245.343ZM226.066 124.58C220.66 118.927 209.804 113.216 199.002 109.027C193.589 106.929 188.166 105.203 183.411 104.053C178.669 102.907 174.546 102.321 171.753 102.533L171.829 103.53C174.46 103.331 178.456 103.884 183.176 105.025C187.882 106.163 193.263 107.874 198.641 109.96C209.422 114.14 220.099 119.787 225.343 125.271L226.066 124.58ZM137.324 140.164C137.786 140.355 137.786 140.355 137.786 140.355C137.786 140.355 137.786 140.355 137.786 140.355C137.787 140.354 137.787 140.353 137.788 140.351C137.789 140.348 137.791 140.343 137.794 140.337C137.799 140.324 137.807 140.304 137.819 140.278C137.841 140.226 137.874 140.148 137.918 140.045C138.007 139.84 138.141 139.538 138.317 139.149C138.671 138.373 139.198 137.254 139.89 135.889C141.274 133.158 143.317 129.446 145.953 125.522C151.237 117.653 158.846 109.014 168.231 105.626L167.891 104.685C158.196 108.186 150.436 117.052 145.122 124.964C142.459 128.931 140.395 132.68 138.998 135.437C138.299 136.815 137.766 137.947 137.407 138.735C137.228 139.129 137.092 139.437 137.001 139.648C136.955 139.753 136.921 139.833 136.898 139.888C136.886 139.915 136.877 139.936 136.872 139.95C136.869 139.957 136.866 139.963 136.865 139.967C136.864 139.968 136.863 139.97 136.863 139.971C136.863 139.971 136.863 139.972 136.862 139.972C136.862 139.972 136.862 139.973 137.324 140.164ZM86.967 163.494C86.5409 163.756 86.5409 163.756 86.541 163.756C86.5411 163.756 86.5412 163.757 86.5414 163.757C86.5419 163.758 86.5425 163.759 86.5435 163.76C86.5453 163.763 86.5481 163.768 86.5518 163.774C86.5592 163.786 86.5705 163.804 86.5854 163.829C86.6151 163.878 86.6596 163.952 86.7178 164.049C86.8342 164.243 87.0056 164.532 87.2247 164.907C87.6629 165.658 88.2919 166.756 89.0535 168.145C90.5768 170.922 92.6298 174.856 94.7472 179.484C98.9869 188.751 103.465 200.758 104.494 211.811L105.49 211.718C104.445 200.496 99.911 188.368 95.6566 179.068C93.527 174.414 91.4625 170.457 89.9302 167.664C89.164 166.267 88.5306 165.161 88.0883 164.403C87.8672 164.024 87.6939 163.732 87.5756 163.535C87.5165 163.436 87.4711 163.361 87.4404 163.31C87.425 163.285 87.4133 163.266 87.4054 163.253C87.4015 163.247 87.3985 163.242 87.3964 163.238C87.3954 163.237 87.3946 163.235 87.3941 163.234C87.3938 163.234 87.3936 163.234 87.3935 163.233C87.3933 163.233 87.3932 163.233 86.967 163.494ZM106.575 187.366C106.081 187.444 106.081 187.444 106.081 187.444C106.081 187.445 106.081 187.445 106.081 187.445C106.081 187.446 106.082 187.448 106.082 187.45C106.083 187.454 106.084 187.46 106.085 187.468C106.087 187.484 106.091 187.508 106.096 187.54C106.106 187.603 106.121 187.698 106.14 187.822C106.179 188.071 106.236 188.438 106.308 188.911C106.453 189.857 106.66 191.227 106.908 192.925C107.405 196.321 108.067 201.024 108.729 206.256C110.054 216.728 111.376 229.285 111.376 237.711H112.376C112.376 229.215 111.046 216.6 109.721 206.13C109.058 200.891 108.395 196.18 107.898 192.78C107.649 191.08 107.442 189.707 107.297 188.759C107.224 188.285 107.167 187.917 107.128 187.668C107.109 187.543 107.094 187.448 107.084 187.384C107.079 187.352 107.075 187.328 107.073 187.312C107.071 187.304 107.07 187.298 107.07 187.294C107.069 187.292 107.069 187.29 107.069 187.289C107.069 187.288 107.069 187.288 107.069 187.288C107.069 187.287 107.069 187.287 106.575 187.366ZM111.376 237.706C111.291 247.354 112.182 256.986 114.035 266.454L115.017 266.262C113.177 256.86 112.292 247.296 112.376 237.715L111.376 237.706ZM111.835 230.443C114.841 217.359 116.27 203.963 116.093 190.54L115.094 190.553C115.269 203.896 113.848 217.213 110.861 230.219L111.835 230.443ZM256.579 187.893C256.08 187.935 256.08 187.935 256.08 187.935C256.08 187.935 256.08 187.935 256.081 187.936C256.081 187.936 256.081 187.937 256.081 187.938C256.081 187.941 256.081 187.944 256.082 187.949C256.082 187.958 256.084 187.972 256.085 187.991C256.088 188.028 256.093 188.083 256.099 188.156C256.112 188.303 256.131 188.52 256.156 188.804C256.207 189.373 256.284 190.212 256.388 191.291C256.596 193.449 256.911 196.569 257.343 200.418C258.205 208.117 259.531 218.734 261.386 230.409L262.373 230.252C260.522 218.596 259.198 207.995 258.336 200.307C257.906 196.463 257.591 193.349 257.384 191.195C257.28 190.118 257.203 189.282 257.152 188.715C257.127 188.432 257.108 188.216 257.096 188.07C257.089 187.998 257.085 187.943 257.082 187.906C257.08 187.888 257.079 187.874 257.078 187.865C257.078 187.861 257.077 187.857 257.077 187.855C257.077 187.854 257.077 187.853 257.077 187.852C257.077 187.852 257.077 187.852 257.077 187.852C257.077 187.852 257.077 187.852 256.579 187.893ZM261.386 230.409C263.239 242.076 264.696 250.83 265.69 256.667C266.187 259.586 266.569 261.776 266.826 263.236C266.954 263.966 267.052 264.514 267.117 264.879C267.15 265.062 267.175 265.199 267.191 265.291C267.199 265.336 267.205 265.371 267.21 265.393C267.212 265.405 267.213 265.414 267.214 265.419C267.215 265.422 267.215 265.424 267.215 265.426C267.216 265.427 267.216 265.427 267.216 265.427C267.216 265.428 267.216 265.428 267.216 265.428C267.216 265.428 267.216 265.428 267.708 265.339C268.2 265.249 268.2 265.249 268.2 265.249C268.2 265.249 268.2 265.249 268.2 265.249C268.2 265.248 268.199 265.248 268.199 265.247C268.199 265.246 268.199 265.244 268.198 265.241C268.197 265.235 268.196 265.227 268.194 265.215C268.189 265.193 268.183 265.159 268.175 265.113C268.159 265.022 268.134 264.885 268.102 264.703C268.036 264.339 267.939 263.792 267.811 263.063C267.554 261.604 267.173 259.416 266.676 256.5C265.683 250.666 264.226 241.915 262.373 230.252L261.386 230.409Z" fill="#3D3D3D"/>
<path d="M227.449 246.453C229.535 246.453 236.59 248.529 241.155 248.529C245.719 248.529 251.548 243.961 247.867 241.886C244.186 239.81 241.216 241.051 236.235 238.558C231.253 236.065 229.584 235.23 224.602 236.102C223.257 236.337 221.972 236.294 220.575 236.057C220.604 239.327 220.664 242.338 221.068 244.415C221.296 245.581 221.528 246.654 221.741 247.635C224.259 246.966 226.415 246.453 227.449 246.453Z" fill="#F4F4F4"/>
<path d="M214.396 238.97C209.402 236.281 197.24 223.835 188.97 223.835C184.116 223.835 181.912 224.761 180.92 225.527C180.92 225.527 188.589 235.377 195.89 239.417C199.621 241.482 202.051 242.991 204.021 243.743C204.832 244.053 205.565 244.234 206.279 244.272L206.317 244.274C207.25 244.318 213.209 245.021 214.212 244.545C217.856 242.813 219.39 241.659 214.396 238.97Z" fill="#F4F4F4"/>
<path d="M164.723 243.961C164.723 243.961 158.895 256.019 157.239 259.347C155.582 262.674 153.079 268.495 153.079 268.495H173.018C173.018 268.495 184.233 261.004 185.485 260.587C186.736 260.169 193.792 260.587 198.773 258.512C202.437 256.986 206.106 253.654 209.773 251.504C209.236 251.17 208.703 250.736 208.185 250.187C207.484 249.443 206.593 248.121 205.613 246.495C207.366 246.131 207.69 245.454 206.279 244.272C205.565 244.234 204.832 244.053 204.021 243.743C202.051 242.991 199.621 241.482 195.89 239.417C188.589 235.377 180.92 225.527 180.92 225.527C179.358 224.492 177.856 223.963 176.356 224.412C172.208 225.652 169.337 233.56 164.723 243.961Z" fill="#F4F4F4"/>
<path d="M205.244 220.252C205.244 220.252 211.461 214.797 216.835 217.487C220.598 219.369 220.505 228.421 220.575 236.057M205.244 220.252C206.437 222.708 207.56 225.933 208.639 228.991M205.244 220.252L208.639 228.991M205.244 220.252C204.06 217.814 202.807 216.136 201.461 216.136M188.97 223.835C188.97 223.835 197.62 216.136 201.461 216.136M188.97 223.835C197.24 223.835 209.402 236.281 214.396 238.97C219.39 241.659 217.856 242.813 214.212 244.545M188.97 223.835C184.116 223.835 181.912 224.761 180.92 225.527M201.461 216.136C204.163 216.136 206.489 222.897 208.639 228.991M180.92 225.527C180.92 225.527 188.589 235.377 195.89 239.417C199.621 241.482 202.051 242.991 204.021 243.743M180.92 225.527C179.358 224.492 177.856 223.963 176.356 224.412C172.208 225.652 169.337 233.56 164.723 243.961C164.723 243.961 158.895 256.019 157.239 259.347C155.582 262.674 153.079 268.495 153.079 268.495H173.018C173.018 268.495 184.233 261.004 185.485 260.587C186.736 260.169 193.792 260.587 198.773 258.512C202.437 256.986 206.106 253.654 209.773 251.504M214.212 244.545C214.308 245.356 217.026 250.362 216.651 250.764C216.273 251.168 215.811 251.522 215.287 251.798M214.212 244.545C213.209 245.021 207.25 244.318 206.317 244.274M172.184 246.514L178.012 236.948C180.721 237.482 183.275 238.62 185.485 240.276C188.393 242.731 193.792 247.766 200.442 247.766C203.327 247.766 204.27 246.775 205.613 246.495M206.279 244.272C207.69 245.454 207.366 246.131 205.613 246.495M206.279 244.272C205.565 244.234 204.832 244.053 204.021 243.743M206.279 244.272C206.292 244.273 206.304 244.273 206.317 244.274M206.279 244.272L206.317 244.274M205.613 246.495C206.593 248.121 207.484 249.443 208.185 250.187C208.703 250.736 209.236 251.17 209.773 251.504M204.021 243.743C204.846 244.058 205.591 244.24 206.317 244.274M220.575 236.057C220.604 239.327 220.664 242.338 221.068 244.415C221.296 245.581 221.528 246.654 221.741 247.635M220.575 236.057C221.972 236.294 223.257 236.337 224.602 236.102C229.584 235.23 231.253 236.065 236.235 238.558C241.216 241.051 244.186 239.81 247.867 241.886C251.548 243.961 245.719 248.529 241.155 248.529C236.59 248.529 229.535 246.453 227.449 246.453C226.415 246.453 224.259 246.966 221.741 247.635M215.287 251.798C216.769 254.49 218.145 255.647 220.492 255.38C223.353 255.055 222.799 252.505 221.758 247.714M215.287 251.798C213.773 252.594 211.747 252.73 209.773 251.504M221.741 247.635L221.758 247.714M221.741 247.635C221.747 247.661 221.753 247.688 221.758 247.714M208.639 228.991L211.548 237.061C210.69 235.286 209.544 231.558 208.639 228.991Z" stroke="#3D3D3D" stroke-linecap="round" stroke-linejoin="round"/>
<path d="M263.928 62.4235C263.928 62.4235 262.321 86.1839 259.757 94.5338C257.192 102.884 253.621 128.584 245.953 139.82C238.284 151.055 228.308 160.695 217.068 161.345C205.829 161.996 190.761 142.067 182.086 129.223C173.411 116.379 172.466 103.535 169.57 91.0097C166.675 78.4848 166.049 63.9953 170.54 52.7843C175.031 41.5733 197.534 27.7346 216.43 29.3432C235.326 30.9517 259.106 40.9102 263.928 48.2901C265.302 50.3906 266.034 52.8465 266.034 55.3568C266.034 57.8671 265.302 60.323 263.928 62.4235V62.4235Z" fill="#F4F4F4"/>
<path d="M170.564 52.7844C166.073 64.0322 166.711 78.4849 169.595 91.0098C172.478 103.535 173.448 116.379 182.111 129.223C190.773 142.067 205.866 161.984 217.093 161.346C221.713 160.958 226.147 159.348 229.94 156.679L224.234 157.232C212.455 158.349 206.847 150.503 199.559 135.35C192.27 120.198 196.761 111.234 193.951 108.422C191.141 105.61 191.154 85.4228 191.154 85.4228C191.154 85.4228 193.399 76.4466 194.516 73.1435C195.632 69.8403 207.412 65.2847 207.412 65.2847C207.412 65.2847 207.412 73.696 215.486 73.0821C223.559 72.4681 229.277 63.6024 229.277 63.6024L228.148 31.2711C224.298 30.3834 220.391 29.7599 216.455 29.4047C197.559 27.7347 175.031 41.5489 170.564 52.7844Z" fill="#FFEE80"/>
<path d="M263.928 62.4235C263.928 62.4235 262.321 86.1839 259.757 94.5338C257.192 102.884 253.621 128.584 245.953 139.82C238.284 151.055 228.308 160.695 217.068 161.345C205.829 161.996 190.761 142.067 182.086 129.223C173.411 116.379 172.466 103.535 169.57 91.0097C166.675 78.4848 166.049 63.9953 170.54 52.7843C175.031 41.5733 197.534 27.7346 216.43 29.3432C235.326 30.9517 259.106 40.9102 263.928 48.2901C265.302 50.3906 266.034 52.8465 266.034 55.3568C266.034 57.8671 265.302 60.323 263.928 62.4235V62.4235Z" stroke="#3D3D3D" stroke-linecap="round" stroke-linejoin="round"/>
<path d="M231.51 94.2144C231.51 94.2144 231.829 110.595 240.173 114.77C240.449 114.87 240.699 115.032 240.903 115.242C241.108 115.452 241.263 115.706 241.356 115.985C241.449 116.263 241.479 116.559 241.442 116.851C241.405 117.142 241.302 117.421 241.143 117.668C240.173 119.915 232.799 121.192 227.645 117.336" stroke="#3D3D3D" stroke-linecap="round" stroke-linejoin="round"/>
<path d="M238.842 80.0917C238.375 80.0915 237.919 79.9838 237.538 79.7834C237.156 79.5829 236.867 79.2996 236.71 78.9721C236.553 78.6445 236.536 78.2889 236.661 77.9538C236.786 77.6186 237.046 77.3204 237.407 77.0999C237.77 76.875 246.466 71.6562 260.295 75.2666C260.862 75.4158 261.326 75.7265 261.585 76.1304C261.844 76.5343 261.877 76.9984 261.677 77.4205C261.477 77.8426 261.059 78.1881 260.517 78.3811C259.975 78.5741 259.352 78.5988 258.786 78.4496C247.357 75.4578 240.351 79.6643 240.291 79.7093C239.883 79.9588 239.37 80.0941 238.842 80.0917Z" fill="#3D3D3D"/>
<path d="M223.307 77.8275C222.723 77.9443 222.131 77.9742 221.591 77.9142C221.052 77.8542 220.584 77.7065 220.235 77.4859C219.814 77.2247 210.384 71.5385 194.847 75.8138C193.982 76.0511 193.068 76.0966 192.305 75.9403C191.542 75.784 190.992 75.4388 190.777 74.9803C190.568 74.5196 190.707 73.9852 191.164 73.492C191.622 72.9989 192.361 72.5861 193.223 72.3424C213.237 66.8382 225.142 74.1901 225.644 74.5118C226.172 74.8456 226.393 75.3222 226.259 75.8369C226.125 76.3516 225.647 76.8623 224.93 77.2568C224.454 77.5176 223.894 77.7146 223.307 77.8275Z" fill="#3D3D3D"/>
<path d="M224.737 134.982H229.928" stroke="#3D3D3D" stroke-linecap="round" stroke-linejoin="round"/>
<path d="M177.595 15.566C177.595 15.566 156.736 22.3196 155.128 30.6696C153.521 39.0195 164.122 68.2442 163.803 71.7683C163.484 75.2925 160.27 78.2027 163.803 83.3354C167.337 88.4681 173.742 96.1795 176.319 92.0046C178.896 87.8296 175.35 81.7268 179.522 79.1604C183.693 76.5941 189.473 72.4191 186.258 66.9548C183.043 61.4906 184.663 53.4476 191.399 52.5021C198.135 51.5566 203.915 47.0501 200.381 52.1829C196.847 57.3156 186.589 69.8528 192.037 70.8105C197.485 71.7683 219.032 57.3033 219.032 57.3033C219.032 57.3033 211.67 72.0385 215.498 73.0331C219.326 74.0277 249.523 54.0861 249.523 54.0861C249.523 54.0861 263.965 73.0331 266.849 71.7438C269.732 70.4544 267.818 59.8697 267.818 59.8697C267.818 59.8697 270.064 74.0031 274.555 74.6048C279.045 75.2065 285.144 67.532 283.217 62.7185C281.291 57.905 278.052 51.176 278.052 51.176C278.052 51.176 284.469 49.5674 287.033 46.6695C289.598 43.7716 289.279 43.4646 283.819 42.4945C278.358 41.5244 274.199 35.4339 269.094 29.9696C263.99 24.5054 255.597 17.1255 255.597 17.1255C255.597 17.1255 265.217 21.3005 260.088 16.487C254.959 11.6735 227.67 0.744938 212.909 0.744938C198.148 0.744938 192.651 8.46862 192.651 8.46862C192.651 8.46862 195.215 -1.17062 192.319 0.118702C189.424 1.40803 186.184 9.10714 186.184 9.10714C186.184 9.10714 179.448 7.17928 175.926 9.43867C172.405 11.6981 171.423 13.9329 174.319 13.9329C175.945 13.9111 177.565 14.1262 179.129 14.5714L177.595 15.566Z" fill="#3D3D3D"/>
<path fill-rule="evenodd" clip-rule="evenodd" d="M225.032 81.53C225.032 81.53 220.345 76.4832 207.731 76.8393C195.117 77.1954 186.098 79.3688 183.583 80.8178L183.215 86.589C183.387 87.1996 183.623 88.3552 183.923 89.8232C184.865 94.4372 186.439 102.137 188.626 105.696C191.51 110.386 199.08 114.353 204.123 114.353C209.166 114.353 212.05 113.272 217.461 109.306C222.273 105.779 225.648 93.9615 226.596 90.643C226.714 90.2294 226.795 89.9478 226.836 89.8308C226.899 89.6492 226.94 89.434 226.984 89.2079C227.194 88.1195 227.454 86.7749 230.431 87.6696C232.912 88.4155 233.856 96.205 234.562 102.029C234.879 104.643 235.148 106.861 235.486 107.869C236.578 111.123 243.769 115.433 249.536 115.433C255.303 115.433 260.714 112.547 265.401 104.259C268.2 99.334 269.336 93.6364 268.64 88.0134C268.64 88.0134 273.683 84.0472 269.72 82.5983C265.757 81.1493 252.125 77.3673 243.413 80.081C232.958 83.335 227.547 82.6106 225.032 81.53Z" fill="#3D3D3D"/>
<path d="M183.583 80.8178L161.227 84.4163V87.3019L183.215 86.589L183.583 80.8178Z" fill="#3D3D3D"/>
<path d="M249.523 111.921C242.455 111.921 238.848 108.164 238.063 101.643C237.118 93.8337 236.283 88.3939 233.829 85.7784C237.439 85.3495 240.998 84.5681 244.455 83.4454C246.48 82.8833 248.576 82.6186 250.676 82.6595C256.033 82.8079 261.345 83.6794 266.468 85.2504L264.812 86.5766L265.18 88.6518C265.709 93.4613 264.713 98.3156 262.333 102.527C257.585 110.951 252.775 111.921 249.523 111.921ZM204.123 110.84C200.442 110.84 193.927 107.611 191.62 103.854C189.767 100.857 188.221 93.2688 187.387 89.2044C187.055 87.5589 186.81 86.3678 186.601 85.6188C186.393 84.8698 186.221 84.4523 186.025 83.912L185.914 83.605C188.748 82.3771 196.773 80.6825 207.829 80.3633H209.056C218.737 80.3633 222.467 83.8997 222.553 83.9365L223.056 84.4891L223.743 84.7838C224.213 84.9756 224.692 85.1436 225.179 85.2873C224.341 86.1979 223.798 87.3408 223.621 88.5659V88.7992C223.621 88.8606 223.51 89.1553 223.387 89.5973C219.804 102.257 216.7 105.622 215.522 106.481C210.283 110.202 208.099 110.84 204.123 110.84V110.84Z" fill="#FFDC00"/>
<path d="M195.632 86.2329H193.779C193.66 86.2298 193.546 86.1809 193.462 86.0964C193.377 86.0119 193.329 85.8981 193.325 85.7786C193.325 85.6581 193.373 85.5425 193.458 85.4573C193.544 85.3721 193.659 85.3242 193.779 85.3242H195.632C195.692 85.3242 195.751 85.336 195.806 85.3588C195.861 85.3816 195.911 85.4151 195.953 85.4573C195.995 85.4995 196.029 85.5496 196.052 85.6047C196.074 85.6598 196.086 85.7189 196.086 85.7786C196.083 85.8981 196.034 86.0119 195.95 86.0964C195.865 86.1809 195.752 86.2298 195.632 86.2329V86.2329ZM196.086 87.8906C196.086 87.8309 196.074 87.7718 196.052 87.7167C196.029 87.6616 195.995 87.6115 195.953 87.5693C195.911 87.5271 195.861 87.4937 195.806 87.4709C195.751 87.448 195.692 87.4363 195.632 87.4363H193.779C193.659 87.4363 193.544 87.4841 193.458 87.5693C193.373 87.6545 193.325 87.7701 193.325 87.8906C193.329 88.0101 193.377 88.1239 193.462 88.2084C193.546 88.293 193.66 88.3418 193.779 88.3449H195.632C195.752 88.3418 195.865 88.293 195.95 88.2084C196.034 88.1239 196.083 88.0101 196.086 87.8906V87.8906ZM196.086 90.0026C196.083 89.8831 196.034 89.7694 195.95 89.6848C195.865 89.6003 195.752 89.5514 195.632 89.5483H193.779C193.66 89.5514 193.546 89.6003 193.462 89.6848C193.377 89.7694 193.329 89.8831 193.325 90.0026C193.325 90.1231 193.373 90.2387 193.458 90.3239C193.544 90.4091 193.659 90.457 193.779 90.457H195.632C195.692 90.457 195.751 90.4452 195.806 90.4224C195.861 90.3995 195.911 90.3661 195.953 90.3239C195.995 90.2817 196.029 90.2316 196.052 90.1765C196.074 90.1214 196.086 90.0623 196.086 90.0026V90.0026ZM196.086 92.1147C196.083 91.9951 196.034 91.8814 195.95 91.7969C195.865 91.7123 195.752 91.6634 195.632 91.6603H193.779C193.66 91.6634 193.546 91.7123 193.462 91.7969C193.377 91.8814 193.329 91.9951 193.325 92.1147C193.325 92.2352 193.373 92.3507 193.458 92.4359C193.544 92.5211 193.659 92.569 193.779 92.569H195.632C195.692 92.569 195.751 92.5572 195.806 92.5344C195.861 92.5116 195.911 92.4781 195.953 92.4359C195.995 92.3937 196.029 92.3437 196.052 92.2885C196.074 92.2334 196.086 92.1743 196.086 92.1147V92.1147ZM196.086 94.2267C196.083 94.1072 196.034 93.9934 195.95 93.9089C195.865 93.8244 195.752 93.7755 195.632 93.7724H193.779C193.66 93.7755 193.546 93.8244 193.462 93.9089C193.377 93.9934 193.329 94.1072 193.325 94.2267C193.325 94.3472 193.373 94.4628 193.458 94.548C193.544 94.6332 193.659 94.681 193.779 94.681H195.632C195.692 94.681 195.751 94.6693 195.806 94.6464C195.861 94.6236 195.911 94.5902 195.953 94.548C195.995 94.5058 196.029 94.4557 196.052 94.4006C196.074 94.3455 196.086 94.2864 196.086 94.2267V94.2267ZM196.086 96.3387C196.083 96.2192 196.034 96.1055 195.95 96.0209C195.865 95.9364 195.752 95.8875 195.632 95.8844H193.779C193.66 95.8875 193.546 95.9364 193.462 96.0209C193.377 96.1055 193.329 96.2192 193.325 96.3387C193.325 96.4592 193.373 96.5748 193.458 96.66C193.544 96.7452 193.659 96.7931 193.779 96.7931H195.632C195.692 96.7931 195.751 96.7813 195.806 96.7585C195.861 96.7357 195.911 96.7022 195.953 96.66C195.995 96.6178 196.029 96.5677 196.052 96.5126C196.074 96.4575 196.086 96.3984 196.086 96.3387V96.3387ZM196.086 98.4508C196.083 98.3313 196.034 98.2175 195.95 98.133C195.865 98.0484 195.752 97.9996 195.632 97.9965H193.779C193.67 98.0143 193.571 98.0705 193.499 98.1548C193.428 98.2392 193.389 98.3463 193.389 98.4569C193.389 98.5676 193.428 98.6747 193.499 98.759C193.571 98.8433 193.67 98.8995 193.779 98.9174H195.632C195.754 98.9142 195.869 98.8636 195.954 98.7765C196.039 98.6893 196.086 98.5724 196.086 98.4508V98.4508ZM196.086 100.563C196.083 100.443 196.034 100.33 195.95 100.245C195.865 100.16 195.752 100.112 195.632 100.108H193.779C193.67 100.126 193.571 100.183 193.499 100.267C193.428 100.351 193.389 100.458 193.389 100.569C193.389 100.68 193.428 100.787 193.499 100.871C193.571 100.955 193.67 101.012 193.779 101.029H195.632C195.754 101.026 195.869 100.976 195.954 100.889C196.039 100.801 196.086 100.684 196.086 100.563V100.563ZM202.994 85.8277C202.996 85.7676 202.985 85.7077 202.963 85.6518C202.941 85.5959 202.908 85.5452 202.865 85.5026C202.823 85.4601 202.772 85.4267 202.716 85.4045C202.66 85.3823 202.6 85.3717 202.54 85.3734H197.694C197.634 85.3717 197.574 85.3823 197.518 85.4045C197.462 85.4267 197.411 85.4601 197.369 85.5026C197.326 85.5452 197.293 85.5959 197.271 85.6518C197.249 85.7077 197.238 85.7676 197.24 85.8277C197.24 85.9482 197.287 86.0637 197.373 86.1489C197.458 86.2341 197.573 86.282 197.694 86.282H202.54C202.604 86.2824 202.668 86.2692 202.726 86.2434C202.785 86.2175 202.837 86.1796 202.88 86.1321C202.923 86.0845 202.955 86.0285 202.975 85.9675C202.995 85.9066 203.001 85.8422 202.994 85.7786V85.8277ZM202.994 87.9397C202.996 87.8796 202.985 87.8197 202.963 87.7639C202.941 87.708 202.908 87.6572 202.865 87.6147C202.823 87.5721 202.772 87.5388 202.716 87.5165C202.66 87.4943 202.6 87.4837 202.54 87.4854H197.694C197.634 87.4837 197.574 87.4943 197.518 87.5165C197.462 87.5388 197.411 87.5721 197.369 87.6147C197.326 87.6572 197.293 87.708 197.271 87.7639C197.249 87.8197 197.238 87.8796 197.24 87.9397C197.24 88.0602 197.287 88.1758 197.373 88.261C197.458 88.3462 197.573 88.394 197.694 88.394H202.54C202.604 88.3944 202.668 88.3813 202.726 88.3554C202.785 88.3296 202.837 88.2917 202.88 88.2441C202.923 88.1966 202.955 88.1405 202.975 88.0796C202.995 88.0186 203.001 87.9542 202.994 87.8906V87.9397ZM202.994 90.0518C202.994 89.9313 202.947 89.8157 202.861 89.7305C202.776 89.6453 202.661 89.5974 202.54 89.5974H197.694C197.573 89.5974 197.458 89.6453 197.373 89.7305C197.287 89.8157 197.24 89.9313 197.24 90.0518C197.238 90.1119 197.249 90.1717 197.271 90.2276C197.293 90.2835 197.326 90.3343 197.369 90.3768C197.411 90.4193 197.462 90.4527 197.518 90.4749C197.574 90.4972 197.634 90.5078 197.694 90.5061H202.54C202.605 90.5085 202.669 90.4967 202.729 90.4716C202.788 90.4464 202.842 90.4085 202.885 90.3605C202.928 90.3125 202.96 90.2556 202.979 90.1937C202.998 90.1319 203.003 90.0667 202.994 90.0026V90.0518ZM202.994 92.1638C202.994 92.0433 202.947 91.9277 202.861 91.8425C202.776 91.7573 202.661 91.7095 202.54 91.7095H197.694C197.573 91.7095 197.458 91.7573 197.373 91.8425C197.287 91.9277 197.24 92.0433 197.24 92.1638C197.238 92.2239 197.249 92.2838 197.271 92.3397C197.293 92.3955 197.326 92.4463 197.369 92.4888C197.411 92.5314 197.462 92.5647 197.518 92.587C197.574 92.6092 197.634 92.6198 197.694 92.6181H202.54C202.605 92.6206 202.669 92.6088 202.729 92.5836C202.788 92.5585 202.842 92.5205 202.885 92.4725C202.928 92.4245 202.96 92.3676 202.979 92.3058C202.998 92.2439 203.003 92.1787 202.994 92.1147V92.1638ZM202.994 94.2758C202.994 94.1553 202.947 94.0398 202.861 93.9546C202.776 93.8694 202.661 93.8215 202.54 93.8215H197.694C197.573 93.8215 197.458 93.8694 197.373 93.9546C197.287 94.0398 197.24 94.1553 197.24 94.2758C197.238 94.336 197.249 94.3958 197.271 94.4517C197.293 94.5075 197.326 94.5583 197.369 94.6009C197.411 94.6434 197.462 94.6768 197.518 94.699C197.574 94.7213 197.634 94.7319 197.694 94.7302H202.54C202.605 94.7326 202.669 94.7208 202.729 94.6956C202.788 94.6705 202.842 94.6326 202.885 94.5846C202.928 94.5366 202.96 94.4797 202.979 94.4178C202.998 94.356 203.003 94.2907 202.994 94.2267V94.2758ZM208.81 96.3879C208.807 96.2663 208.757 96.1507 208.67 96.0658C208.583 95.981 208.466 95.9335 208.344 95.9335H203.497C203.378 95.9367 203.264 95.9855 203.18 96.07C203.095 96.1546 203.047 96.2684 203.043 96.3879C203.043 96.5084 203.091 96.6239 203.176 96.7091C203.262 96.7943 203.377 96.8422 203.497 96.8422H208.344C208.409 96.8443 208.474 96.8325 208.534 96.8074C208.594 96.7824 208.648 96.7447 208.692 96.697C208.736 96.6492 208.77 96.5925 208.79 96.5307C208.811 96.4689 208.818 96.4034 208.81 96.3387V96.3879ZM208.81 98.4999C208.807 98.3783 208.757 98.2627 208.67 98.1779C208.583 98.093 208.466 98.0455 208.344 98.0456H203.497C203.388 98.0635 203.289 98.1196 203.217 98.2039C203.146 98.2883 203.107 98.3954 203.107 98.5061C203.107 98.6167 203.146 98.7238 203.217 98.8081C203.289 98.8925 203.388 98.9486 203.497 98.9665H208.344C208.41 98.9669 208.475 98.9534 208.535 98.9269C208.595 98.9005 208.649 98.8616 208.693 98.813C208.737 98.7643 208.77 98.7069 208.79 98.6444C208.81 98.582 208.817 98.5161 208.81 98.4508V98.4999ZM208.81 100.612C208.807 100.49 208.757 100.375 208.67 100.29C208.583 100.205 208.466 100.158 208.344 100.158H203.497C203.388 100.176 203.289 100.232 203.217 100.316C203.146 100.4 203.107 100.507 203.107 100.618C203.107 100.729 203.146 100.836 203.217 100.92C203.289 101.005 203.388 101.061 203.497 101.079H208.344C208.41 101.079 208.475 101.065 208.535 101.039C208.595 101.012 208.649 100.974 208.693 100.925C208.737 100.876 208.77 100.819 208.79 100.756C208.81 100.694 208.817 100.628 208.81 100.563V100.612ZM205.129 85.8768C205.129 85.7368 205.074 85.6024 204.975 85.5034C204.876 85.4044 204.742 85.3488 204.602 85.3488C204.462 85.3488 204.328 85.4044 204.229 85.5034C204.13 85.6024 204.074 85.7368 204.074 85.8768C204.074 86.0168 204.13 86.1511 204.229 86.2502C204.328 86.3492 204.462 86.4048 204.602 86.4048C204.68 86.4062 204.758 86.39 204.829 86.3576C204.901 86.3251 204.964 86.2772 205.014 86.2172C205.065 86.1572 205.101 86.0868 205.121 86.0109C205.141 85.935 205.144 85.8556 205.129 85.7786V85.8768ZM206.712 85.8768C206.712 85.7368 206.657 85.6024 206.558 85.5034C206.459 85.4044 206.325 85.3488 206.185 85.3488C206.045 85.3488 205.911 85.4044 205.812 85.5034C205.713 85.6024 205.657 85.7368 205.657 85.8768C205.657 86.0168 205.713 86.1511 205.812 86.2502C205.911 86.3492 206.045 86.4048 206.185 86.4048C206.263 86.4062 206.341 86.39 206.412 86.3576C206.483 86.3251 206.547 86.2772 206.597 86.2172C206.648 86.1572 206.684 86.0868 206.704 86.0109C206.724 85.935 206.727 85.8556 206.712 85.7786V85.8768ZM208.295 85.8768C208.295 85.7368 208.24 85.6024 208.141 85.5034C208.042 85.4044 207.907 85.3488 207.768 85.3488C207.628 85.3488 207.493 85.4044 207.394 85.5034C207.295 85.6024 207.24 85.7368 207.24 85.8768C207.24 86.0168 207.295 86.1511 207.394 86.2502C207.493 86.3492 207.628 86.4048 207.768 86.4048C207.846 86.4062 207.924 86.39 207.995 86.3576C208.066 86.3251 208.13 86.2772 208.18 86.2172C208.231 86.1572 208.267 86.0868 208.287 86.0109C208.307 85.935 208.31 85.8556 208.295 85.7786V85.8768ZM209.89 85.8768C209.893 85.7695 209.863 85.6638 209.805 85.5733C209.747 85.4829 209.664 85.4118 209.566 85.369C209.467 85.3262 209.358 85.3137 209.253 85.3331C209.147 85.3526 209.05 85.403 208.973 85.4781C208.896 85.5531 208.844 85.6494 208.822 85.7545C208.8 85.8596 208.81 85.9689 208.851 86.0683C208.891 86.1678 208.96 86.2529 209.049 86.3128C209.138 86.3727 209.243 86.4048 209.35 86.4048C209.429 86.4058 209.507 86.3896 209.579 86.3572C209.651 86.3249 209.715 86.2771 209.766 86.2175C209.817 86.1578 209.855 86.0876 209.877 86.0118C209.898 85.936 209.903 85.8564 209.89 85.7786V85.8768ZM211.473 85.8768C211.473 85.7368 211.418 85.6024 211.319 85.5034C211.22 85.4044 211.085 85.3488 210.946 85.3488C210.806 85.3488 210.671 85.4044 210.572 85.5034C210.473 85.6024 210.418 85.7368 210.418 85.8768C210.418 86.0168 210.473 86.1511 210.572 86.2502C210.671 86.3492 210.806 86.4048 210.946 86.4048C211.024 86.4062 211.102 86.39 211.173 86.3576C211.244 86.3251 211.308 86.2772 211.358 86.2172C211.409 86.1572 211.445 86.0868 211.465 86.0109C211.485 85.935 211.488 85.8556 211.473 85.7786V85.8768ZM213.056 85.8768C213.056 85.7368 213 85.6024 212.901 85.5034C212.803 85.4044 212.668 85.3488 212.528 85.3488C212.388 85.3488 212.254 85.4044 212.155 85.5034C212.056 85.6024 212.001 85.7368 212.001 85.8768C212.001 86.0168 212.056 86.1511 212.155 86.2502C212.254 86.3492 212.388 86.4048 212.528 86.4048C212.607 86.4062 212.684 86.39 212.756 86.3576C212.827 86.3251 212.89 86.2772 212.941 86.2172C212.992 86.1572 213.028 86.0868 213.048 86.0109C213.068 85.935 213.071 85.8556 213.056 85.7786V85.8768ZM205.129 90.1009C205.129 89.9608 205.074 89.8265 204.975 89.7275C204.876 89.6285 204.742 89.5728 204.602 89.5728C204.462 89.5728 204.328 89.6285 204.229 89.7275C204.13 89.8265 204.074 89.9608 204.074 90.1009C204.074 90.2409 204.13 90.3752 204.229 90.4742C204.328 90.5733 204.462 90.6289 204.602 90.6289C204.68 90.6303 204.758 90.6141 204.829 90.5817C204.901 90.5492 204.964 90.5013 205.014 90.4413C205.065 90.3813 205.101 90.3108 205.121 90.235C205.141 90.1591 205.144 90.0797 205.129 90.0026V90.1009ZM206.712 90.1009C206.712 89.9608 206.657 89.8265 206.558 89.7275C206.459 89.6285 206.325 89.5728 206.185 89.5728C206.045 89.5728 205.911 89.6285 205.812 89.7275C205.713 89.8265 205.657 89.9608 205.657 90.1009C205.657 90.2409 205.713 90.3752 205.812 90.4742C205.911 90.5733 206.045 90.6289 206.185 90.6289C206.263 90.6303 206.341 90.6141 206.412 90.5817C206.483 90.5492 206.547 90.5013 206.597 90.4413C206.648 90.3813 206.684 90.3108 206.704 90.235C206.724 90.1591 206.727 90.0797 206.712 90.0026V90.1009ZM208.295 90.1009C208.295 89.9608 208.24 89.8265 208.141 89.7275C208.042 89.6285 207.907 89.5728 207.768 89.5728C207.628 89.5728 207.493 89.6285 207.394 89.7275C207.295 89.8265 207.24 89.9608 207.24 90.1009C207.24 90.2409 207.295 90.3752 207.394 90.4742C207.493 90.5733 207.628 90.6289 207.768 90.6289C207.846 90.6303 207.924 90.6141 207.995 90.5817C208.066 90.5492 208.13 90.5013 208.18 90.4413C208.231 90.3813 208.267 90.3108 208.287 90.235C208.307 90.1591 208.31 90.0797 208.295 90.0026V90.1009ZM209.89 90.1009C209.893 89.9935 209.863 89.8879 209.805 89.7974C209.747 89.707 209.664 89.6358 209.566 89.593C209.467 89.5503 209.358 89.5378 209.253 89.5572C209.147 89.5767 209.05 89.6271 208.973 89.7022C208.896 89.7772 208.844 89.8734 208.822 89.9786C208.8 90.0837 208.81 90.193 208.851 90.2924C208.891 90.3919 208.96 90.477 209.049 90.5369C209.138 90.5968 209.243 90.6289 209.35 90.6289C209.429 90.6299 209.507 90.6137 209.579 90.5813C209.651 90.5489 209.715 90.5012 209.766 90.4416C209.817 90.3819 209.855 90.3117 209.877 90.2359C209.898 90.16 209.903 90.0804 209.89 90.0026V90.1009ZM211.473 90.1009C211.473 89.9608 211.418 89.8265 211.319 89.7275C211.22 89.6285 211.085 89.5728 210.946 89.5728C210.806 89.5728 210.671 89.6285 210.572 89.7275C210.473 89.8265 210.418 89.9608 210.418 90.1009C210.418 90.2409 210.473 90.3752 210.572 90.4742C210.671 90.5733 210.806 90.6289 210.946 90.6289C211.024 90.6303 211.102 90.6141 211.173 90.5817C211.244 90.5492 211.308 90.5013 211.358 90.4413C211.409 90.3813 211.445 90.3108 211.465 90.235C211.485 90.1591 211.488 90.0797 211.473 90.0026V90.1009ZM213.056 90.1009C213.056 89.9608 213 89.8265 212.901 89.7275C212.803 89.6285 212.668 89.5728 212.528 89.5728C212.388 89.5728 212.254 89.6285 212.155 89.7275C212.056 89.8265 212.001 89.9608 212.001 90.1009C212.001 90.2409 212.056 90.3752 212.155 90.4742C212.254 90.5733 212.388 90.6289 212.528 90.6289C212.607 90.6303 212.684 90.6141 212.756 90.5817C212.827 90.5492 212.89 90.5013 212.941 90.4413C212.992 90.3813 213.028 90.3108 213.048 90.235C213.068 90.1591 213.071 90.0797 213.056 90.0026V90.1009ZM210.602 96.1791C210.602 96.0747 210.571 95.9726 210.513 95.8858C210.455 95.7989 210.373 95.7313 210.276 95.6913C210.18 95.6514 210.074 95.6409 209.971 95.6613C209.869 95.6816 209.775 95.7319 209.701 95.8058C209.627 95.8796 209.577 95.9737 209.557 96.0761C209.536 96.1785 209.547 96.2847 209.587 96.3812C209.627 96.4776 209.694 96.5601 209.781 96.6181C209.868 96.6762 209.97 96.7071 210.074 96.7071C210.147 96.6999 210.218 96.6775 210.282 96.6414C210.346 96.6052 210.402 96.5561 210.446 96.4971C210.49 96.4382 210.521 96.3707 210.537 96.299C210.553 96.2273 210.555 96.1531 210.541 96.0809L210.602 96.1791ZM212.185 96.1791C212.185 96.0391 212.129 95.9048 212.03 95.8058C211.931 95.7067 211.797 95.6511 211.657 95.6511C211.517 95.6511 211.383 95.7067 211.284 95.8058C211.185 95.9048 211.13 96.0391 211.13 96.1791C211.13 96.3191 211.185 96.4535 211.284 96.5525C211.383 96.6515 211.517 96.7071 211.657 96.7071C211.73 96.6999 211.801 96.6775 211.865 96.6414C211.929 96.6052 211.985 96.5561 212.029 96.4971C212.072 96.4382 212.104 96.3707 212.12 96.299C212.136 96.2273 212.137 96.1531 212.123 96.0809L212.185 96.1791ZM213.768 96.1791C213.768 96.0391 213.712 95.9048 213.613 95.8058C213.514 95.7067 213.38 95.6511 213.24 95.6511C213.1 95.6511 212.966 95.7067 212.867 95.8058C212.768 95.9048 212.712 96.0391 212.712 96.1791C212.712 96.3191 212.768 96.4535 212.867 96.5525C212.966 96.6515 213.1 96.7071 213.24 96.7071C213.313 96.6999 213.384 96.6775 213.448 96.6414C213.512 96.6052 213.568 96.5561 213.611 96.4971C213.655 96.4382 213.686 96.3707 213.703 96.299C213.719 96.2273 213.72 96.1531 213.706 96.0809L213.768 96.1791ZM215.351 96.1791C215.351 96.0391 215.295 95.9048 215.196 95.8058C215.097 95.7067 214.963 95.6511 214.823 95.6511C214.683 95.6511 214.549 95.7067 214.45 95.8058C214.351 95.9048 214.295 96.0391 214.295 96.1791C214.295 96.3191 214.351 96.4535 214.45 96.5525C214.549 96.6515 214.683 96.7071 214.823 96.7071C214.896 96.6999 214.967 96.6775 215.031 96.6414C215.095 96.6052 215.15 96.5561 215.194 96.4971C215.238 96.4382 215.269 96.3707 215.286 96.299C215.302 96.2273 215.303 96.1531 215.289 96.0809L215.351 96.1791ZM216.946 96.1791C216.948 96.0712 216.918 95.9651 216.86 95.8744C216.801 95.7837 216.717 95.7126 216.618 95.6702C216.519 95.6278 216.409 95.616 216.304 95.6365C216.198 95.6569 216.1 95.7086 216.024 95.7849C215.948 95.8612 215.896 95.9586 215.876 96.0646C215.855 96.1705 215.867 96.2801 215.909 96.3793C215.952 96.4785 216.023 96.5628 216.114 96.6212C216.204 96.6796 216.31 96.7095 216.418 96.7071C216.491 96.6999 216.562 96.6775 216.626 96.6414C216.69 96.6052 216.746 96.5561 216.789 96.4971C216.833 96.4382 216.864 96.3707 216.881 96.299C216.897 96.2273 216.898 96.1531 216.884 96.0809L216.946 96.1791ZM218.529 96.1791C218.529 96.0391 218.473 95.9048 218.374 95.8058C218.275 95.7067 218.141 95.6511 218.001 95.6511C217.861 95.6511 217.727 95.7067 217.628 95.8058C217.529 95.9048 217.473 96.0391 217.473 96.1791C217.473 96.3191 217.529 96.4535 217.628 96.5525C217.727 96.6515 217.861 96.7071 218.001 96.7071C218.07 96.6939 218.135 96.6672 218.193 96.6285C218.252 96.5897 218.302 96.5397 218.341 96.4814C218.379 96.4232 218.406 96.3577 218.42 96.2889C218.433 96.2202 218.432 96.1495 218.418 96.0809L218.529 96.1791ZM210.602 100.538C210.602 100.398 210.546 100.264 210.447 100.165C210.348 100.066 210.214 100.01 210.074 100.01C209.934 100.01 209.8 100.066 209.701 100.165C209.602 100.264 209.547 100.398 209.547 100.538C209.547 100.678 209.602 100.813 209.701 100.912C209.8 101.011 209.934 101.066 210.074 101.066C210.214 101.066 210.348 101.011 210.447 100.912C210.546 100.813 210.602 100.678 210.602 100.538V100.538ZM212.185 100.538C212.185 100.398 212.129 100.264 212.03 100.165C211.931 100.066 211.797 100.01 211.657 100.01C211.517 100.01 211.383 100.066 211.284 100.165C211.185 100.264 211.13 100.398 211.13 100.538C211.133 100.677 211.189 100.81 211.288 100.908C211.386 101.007 211.518 101.063 211.657 101.066C211.73 101.059 211.801 101.037 211.865 101.001C211.929 100.964 211.985 100.915 212.029 100.856C212.072 100.797 212.104 100.73 212.12 100.658C212.136 100.586 212.137 100.512 212.123 100.44L212.185 100.538ZM213.768 100.538C213.768 100.398 213.712 100.264 213.613 100.165C213.514 100.066 213.38 100.01 213.24 100.01C213.1 100.01 212.966 100.066 212.867 100.165C212.768 100.264 212.712 100.398 212.712 100.538C212.716 100.677 212.772 100.81 212.87 100.908C212.969 101.007 213.101 101.063 213.24 101.066C213.313 101.059 213.384 101.037 213.448 101.001C213.512 100.964 213.568 100.915 213.611 100.856C213.655 100.797 213.686 100.73 213.703 100.658C213.719 100.586 213.72 100.512 213.706 100.44L213.768 100.538ZM215.351 100.538C215.351 100.398 215.295 100.264 215.196 100.165C215.097 100.066 214.963 100.01 214.823 100.01C214.683 100.01 214.549 100.066 214.45 100.165C214.351 100.264 214.295 100.398 214.295 100.538C214.298 100.677 214.355 100.81 214.453 100.908C214.552 101.007 214.684 101.063 214.823 101.066C214.896 101.059 214.967 101.037 215.031 101.001C215.095 100.964 215.15 100.915 215.194 100.856C215.238 100.797 215.269 100.73 215.286 100.658C215.302 100.586 215.303 100.512 215.289 100.44L215.351 100.538ZM216.946 100.538C216.926 100.411 216.862 100.294 216.764 100.21C216.666 100.126 216.541 100.079 216.412 100.079C216.283 100.079 216.158 100.126 216.06 100.21C215.962 100.294 215.898 100.411 215.878 100.538C215.898 100.666 215.962 100.783 216.06 100.867C216.158 100.951 216.283 100.997 216.412 100.997C216.541 100.997 216.666 100.951 216.764 100.867C216.862 100.783 216.926 100.666 216.946 100.538ZM218.529 100.538C218.529 100.398 218.473 100.264 218.374 100.165C218.275 100.066 218.141 100.01 218.001 100.01C217.861 100.01 217.727 100.066 217.628 100.165C217.529 100.264 217.473 100.398 217.473 100.538C217.473 100.678 217.529 100.813 217.628 100.912C217.727 101.011 217.861 101.066 218.001 101.066C218.138 101.037 218.258 100.955 218.336 100.838C218.414 100.721 218.444 100.578 218.418 100.44L218.529 100.538Z" fill="#3D3D3D"/>
<path d="M240.762 86.233H238.922C238.8 86.2331 238.683 86.1856 238.596 86.1008C238.509 86.0159 238.459 85.9003 238.455 85.7787C238.455 85.718 238.468 85.6579 238.491 85.602C238.515 85.5461 238.549 85.4954 238.593 85.453C238.636 85.4107 238.688 85.3775 238.744 85.3554C238.801 85.3333 238.861 85.3228 238.922 85.3244H240.762C240.822 85.3227 240.882 85.3333 240.938 85.3555C240.994 85.3778 241.044 85.4112 241.087 85.4537C241.129 85.4962 241.163 85.547 241.185 85.6029C241.207 85.6588 241.218 85.7186 241.216 85.7787C241.216 85.8992 241.168 86.0148 241.083 86.1C240.998 86.1852 240.883 86.233 240.762 86.233ZM241.216 87.8908C241.218 87.8306 241.207 87.7708 241.185 87.7149C241.163 87.659 241.129 87.6082 241.087 87.5657C241.044 87.5232 240.994 87.4898 240.938 87.4676C240.882 87.4453 240.822 87.4347 240.762 87.4364H238.922C238.861 87.4348 238.801 87.4453 238.744 87.4674C238.688 87.4895 238.636 87.5227 238.593 87.5651C238.549 87.6074 238.515 87.6581 238.491 87.714C238.468 87.77 238.455 87.83 238.455 87.8908C238.459 88.0124 238.509 88.1279 238.596 88.2128C238.683 88.2977 238.8 88.3451 238.922 88.3451H240.762C240.822 88.3451 240.881 88.3333 240.936 88.3105C240.991 88.2877 241.041 88.2542 241.083 88.212C241.125 88.1698 241.159 88.1198 241.182 88.0646C241.204 88.0095 241.216 87.9504 241.216 87.8908V87.8908ZM241.216 90.0028C241.216 89.8823 241.168 89.7667 241.083 89.6815C240.998 89.5963 240.883 89.5485 240.762 89.5485H238.922C238.8 89.5484 238.683 89.5959 238.596 89.6808C238.509 89.7656 238.459 89.8812 238.455 90.0028C238.455 90.0635 238.468 90.1236 238.491 90.1796C238.515 90.2355 238.549 90.2861 238.593 90.3285C238.636 90.3708 238.688 90.404 238.744 90.4261C238.801 90.4482 238.861 90.4588 238.922 90.4571H240.762C240.822 90.4588 240.882 90.4483 240.938 90.426C240.994 90.4038 241.044 90.3704 241.087 90.3278C241.129 90.2853 241.163 90.2345 241.185 90.1787C241.207 90.1228 241.218 90.0629 241.216 90.0028V90.0028ZM241.216 92.1148C241.216 91.9943 241.168 91.8788 241.083 91.7936C240.998 91.7084 240.883 91.6605 240.762 91.6605H238.922C238.8 91.6605 238.683 91.7079 238.596 91.7928C238.509 91.8777 238.459 91.9932 238.455 92.1148C238.455 92.1755 238.468 92.2357 238.491 92.2916C238.515 92.3475 238.549 92.3982 238.593 92.4405C238.636 92.4829 238.688 92.5161 238.744 92.5382C238.801 92.5603 238.861 92.5708 238.922 92.5692H240.762C240.822 92.5709 240.882 92.5603 240.938 92.5381C240.994 92.5158 241.044 92.4824 241.087 92.4399C241.129 92.3973 241.163 92.3466 241.185 92.2907C241.207 92.2348 241.218 92.175 241.216 92.1148V92.1148ZM241.216 94.2269C241.216 94.1064 241.168 93.9908 241.083 93.9056C240.998 93.8204 240.883 93.7725 240.762 93.7725H238.922C238.8 93.7725 238.683 93.82 238.596 93.9048C238.509 93.9897 238.459 94.1053 238.455 94.2269C238.455 94.2876 238.468 94.3477 238.491 94.4036C238.515 94.4596 238.549 94.5102 238.593 94.5526C238.636 94.5949 238.688 94.6281 238.744 94.6502C238.801 94.6723 238.861 94.6828 238.922 94.6812H240.762C240.822 94.6829 240.882 94.6723 240.938 94.6501C240.994 94.6278 241.044 94.5944 241.087 94.5519C241.129 94.5094 241.163 94.4586 241.185 94.4027C241.207 94.3468 241.218 94.287 241.216 94.2269V94.2269ZM241.216 96.3389C241.216 96.2184 241.168 96.1029 241.083 96.0177C240.998 95.9324 240.883 95.8846 240.762 95.8846H238.922C238.8 95.8845 238.683 95.932 238.596 96.0169C238.509 96.1017 238.459 96.2173 238.455 96.3389C238.455 96.3996 238.468 96.4597 238.491 96.5157C238.515 96.5716 238.549 96.6222 238.593 96.6646C238.636 96.7069 238.688 96.7402 238.744 96.7622C238.801 96.7843 238.861 96.7949 238.922 96.7932H240.762C240.822 96.7949 240.882 96.7843 240.938 96.7621C240.994 96.7399 241.044 96.7065 241.087 96.664C241.129 96.6214 241.163 96.5707 241.185 96.5148C241.207 96.4589 241.218 96.399 241.216 96.3389V96.3389ZM241.216 98.4509C241.216 98.3305 241.168 98.2149 241.083 98.1297C240.998 98.0445 240.883 97.9966 240.762 97.9966H238.922C238.855 97.9857 238.787 97.9894 238.722 98.0075C238.656 98.0256 238.596 98.0577 238.544 98.1015C238.493 98.1453 238.451 98.1998 238.423 98.2612C238.395 98.3226 238.38 98.3894 238.38 98.4571C238.38 98.5248 238.395 98.5916 238.423 98.653C238.451 98.7144 238.493 98.7689 238.544 98.8127C238.596 98.8565 238.656 98.8886 238.722 98.9067C238.787 98.9248 238.855 98.9285 238.922 98.9176H240.762C240.823 98.9176 240.883 98.9055 240.939 98.8819C240.995 98.8583 241.045 98.8237 241.088 98.7802C241.13 98.7367 241.163 98.6851 241.185 98.6286C241.207 98.572 241.218 98.5116 241.216 98.4509V98.4509ZM241.216 100.563C241.216 100.442 241.168 100.327 241.083 100.242C240.998 100.157 240.883 100.109 240.762 100.109H238.922C238.855 100.098 238.787 100.101 238.722 100.12C238.656 100.138 238.596 100.17 238.544 100.214C238.493 100.257 238.451 100.312 238.423 100.373C238.395 100.435 238.38 100.501 238.38 100.569C238.38 100.637 238.395 100.704 238.423 100.765C238.451 100.826 238.493 100.881 238.544 100.925C238.596 100.969 238.656 101.001 238.722 101.019C238.787 101.037 238.855 101.041 238.922 101.03H240.762C240.823 101.03 240.883 101.017 240.939 100.994C240.995 100.97 241.045 100.936 241.088 100.892C241.13 100.849 241.163 100.797 241.185 100.741C241.207 100.684 241.218 100.624 241.216 100.563V100.563ZM248.137 85.8278C248.137 85.7671 248.124 85.707 248.101 85.6511C248.077 85.5951 248.043 85.5445 247.999 85.5022C247.956 85.4598 247.904 85.4266 247.848 85.4045C247.791 85.3824 247.731 85.3719 247.67 85.3735H242.762C242.642 85.3735 242.526 85.4214 242.441 85.5066C242.356 85.5918 242.308 85.7074 242.308 85.8278C242.311 85.9474 242.36 86.0611 242.445 86.1457C242.529 86.2302 242.643 86.2791 242.762 86.2822H247.67C247.735 86.2824 247.799 86.2692 247.858 86.2435C247.917 86.2178 247.97 86.1801 248.014 86.1328C248.058 86.0855 248.091 86.0296 248.112 85.9686C248.133 85.9077 248.142 85.843 248.137 85.7787V85.8278ZM248.137 87.9399C248.137 87.8792 248.124 87.8191 248.101 87.7631C248.077 87.7072 248.043 87.6566 247.999 87.6142C247.956 87.5719 247.904 87.5386 247.848 87.5166C247.791 87.4945 247.731 87.4839 247.67 87.4856H242.762C242.642 87.4856 242.526 87.5334 242.441 87.6186C242.356 87.7038 242.308 87.8194 242.308 87.9399C242.311 88.0594 242.36 88.1732 242.445 88.2577C242.529 88.3422 242.643 88.3911 242.762 88.3942H247.67C247.735 88.3944 247.799 88.3813 247.858 88.3555C247.917 88.3298 247.97 88.2921 248.014 88.2448C248.058 88.1975 248.091 88.1416 248.112 88.0807C248.133 88.0197 248.142 87.9551 248.137 87.8908V87.9399ZM248.137 90.0519C248.133 89.9303 248.083 89.8147 247.996 89.7299C247.909 89.645 247.792 89.5976 247.67 89.5976H242.762C242.643 89.6007 242.529 89.6496 242.445 89.7341C242.36 89.8187 242.311 89.9324 242.308 90.0519C242.308 90.1724 242.356 90.288 242.441 90.3732C242.526 90.4584 242.642 90.5063 242.762 90.5063H247.67C247.735 90.5084 247.8 90.4965 247.86 90.4715C247.92 90.4464 247.974 90.4087 248.018 90.361C248.063 90.3133 248.096 90.2566 248.116 90.1948C248.137 90.133 248.144 90.0675 248.137 90.0028V90.0519ZM248.137 92.164C248.133 92.0424 248.083 91.9268 247.996 91.8419C247.909 91.757 247.792 91.7096 247.67 91.7096H242.762C242.643 91.7127 242.529 91.7616 242.445 91.8462C242.36 91.9307 242.311 92.0444 242.308 92.164C242.308 92.2845 242.356 92.4 242.441 92.4852C242.526 92.5704 242.642 92.6183 242.762 92.6183H247.67C247.735 92.6204 247.8 92.6086 247.86 92.5835C247.92 92.5585 247.974 92.5208 248.018 92.473C248.063 92.4253 248.096 92.3686 248.116 92.3068C248.137 92.245 248.144 92.1795 248.137 92.1148V92.164ZM248.137 94.276C248.133 94.1544 248.083 94.0388 247.996 93.954C247.909 93.8691 247.792 93.8216 247.67 93.8217H242.762C242.643 93.8248 242.529 93.8736 242.445 93.9582C242.36 94.0427 242.311 94.1565 242.308 94.276C242.308 94.3965 242.356 94.5121 242.441 94.5973C242.526 94.6825 242.642 94.7303 242.762 94.7303H247.67C247.735 94.7325 247.8 94.7206 247.86 94.6956C247.92 94.6705 247.974 94.6328 248.018 94.5851C248.063 94.5373 248.096 94.4807 248.116 94.4188C248.137 94.357 248.144 94.2916 248.137 94.2269V94.276ZM253.94 96.388C253.937 96.2685 253.889 96.1547 253.804 96.0702C253.72 95.9856 253.606 95.9368 253.486 95.9337H248.578C248.459 95.9368 248.345 95.9856 248.261 96.0702C248.176 96.1547 248.127 96.2685 248.124 96.388C248.124 96.5085 248.172 96.6241 248.257 96.7093C248.342 96.7945 248.458 96.8424 248.578 96.8424H253.486C253.555 96.8523 253.626 96.8462 253.692 96.8246C253.758 96.803 253.818 96.7664 253.868 96.7178C253.918 96.6691 253.956 96.6096 253.979 96.5439C254.002 96.4782 254.01 96.4081 254.002 96.3389L253.94 96.388ZM253.94 98.5001C253.937 98.3806 253.889 98.2668 253.804 98.1822C253.72 98.0977 253.606 98.0489 253.486 98.0457H248.578C248.469 98.0636 248.37 98.1198 248.298 98.2041C248.227 98.2885 248.187 98.3955 248.187 98.5062C248.187 98.6169 248.227 98.7239 248.298 98.8083C248.37 98.8926 248.469 98.9488 248.578 98.9667H253.486C253.556 98.9745 253.626 98.9665 253.693 98.9433C253.759 98.9202 253.819 98.8825 253.868 98.8329C253.918 98.7834 253.955 98.7233 253.979 98.6572C254.002 98.5911 254.01 98.5206 254.002 98.4509L253.94 98.5001ZM253.94 100.612C253.937 100.493 253.889 100.379 253.804 100.294C253.72 100.21 253.606 100.161 253.486 100.158H248.578C248.469 100.176 248.37 100.232 248.298 100.316C248.227 100.4 248.187 100.508 248.187 100.618C248.187 100.729 248.227 100.836 248.298 100.92C248.37 101.005 248.469 101.061 248.578 101.079H253.486C253.556 101.087 253.626 101.079 253.693 101.055C253.759 101.032 253.819 100.994 253.868 100.945C253.918 100.895 253.955 100.835 253.979 100.769C254.002 100.703 254.01 100.633 254.002 100.563L253.94 100.612ZM250.259 85.877C250.259 85.7369 250.204 85.6026 250.105 85.5036C250.006 85.4046 249.872 85.3489 249.732 85.3489C249.592 85.3489 249.458 85.4046 249.359 85.5036C249.26 85.6026 249.204 85.7369 249.204 85.877C249.204 86.017 249.26 86.1513 249.359 86.2503C249.458 86.3493 249.592 86.405 249.732 86.405C249.815 86.4164 249.9 86.4077 249.979 86.3796C250.058 86.3516 250.13 86.305 250.187 86.2437C250.245 86.1825 250.287 86.1083 250.31 86.0274C250.334 85.9465 250.337 85.8612 250.321 85.7787L250.259 85.877ZM251.855 85.877C251.855 85.7369 251.799 85.6026 251.7 85.5036C251.601 85.4046 251.467 85.3489 251.327 85.3489C251.187 85.3489 251.053 85.4046 250.954 85.5036C250.855 85.6026 250.799 85.7369 250.799 85.877C250.799 86.017 250.855 86.1513 250.954 86.2503C251.053 86.3493 251.187 86.405 251.327 86.405C251.405 86.4063 251.483 86.3902 251.554 86.3578C251.626 86.3253 251.689 86.2774 251.739 86.2174C251.79 86.1574 251.827 86.0869 251.846 86.0111C251.866 85.9352 251.869 85.8558 251.855 85.7787V85.877ZM253.437 85.877C253.437 85.7369 253.382 85.6026 253.283 85.5036C253.184 85.4046 253.05 85.3489 252.91 85.3489C252.77 85.3489 252.636 85.4046 252.537 85.5036C252.438 85.6026 252.382 85.7369 252.382 85.877C252.382 86.017 252.438 86.1513 252.537 86.2503C252.636 86.3493 252.77 86.405 252.91 86.405C252.988 86.4063 253.066 86.3902 253.137 86.3578C253.209 86.3253 253.272 86.2774 253.322 86.2174C253.373 86.1574 253.409 86.0869 253.429 86.0111C253.449 85.9352 253.452 85.8558 253.437 85.7787V85.877ZM255.02 85.877C255.02 85.7369 254.965 85.6026 254.866 85.5036C254.767 85.4046 254.633 85.3489 254.493 85.3489C254.353 85.3489 254.218 85.4046 254.12 85.5036C254.021 85.6026 253.965 85.7369 253.965 85.877C253.965 86.017 254.021 86.1513 254.12 86.2503C254.218 86.3493 254.353 86.405 254.493 86.405C254.571 86.4063 254.649 86.3902 254.72 86.3578C254.791 86.3253 254.855 86.2774 254.905 86.2174C254.956 86.1574 254.992 86.0869 255.012 86.0111C255.032 85.9352 255.035 85.8558 255.02 85.7787V85.877ZM256.603 85.877C256.603 85.7369 256.547 85.6026 256.449 85.5036C256.35 85.4046 256.215 85.3489 256.075 85.3489C255.936 85.3489 255.801 85.4046 255.702 85.5036C255.603 85.6026 255.548 85.7369 255.548 85.877C255.548 86.017 255.603 86.1513 255.702 86.2503C255.801 86.3493 255.936 86.405 256.075 86.405C256.154 86.4063 256.232 86.3902 256.303 86.3578C256.374 86.3253 256.438 86.2774 256.488 86.2174C256.539 86.1574 256.575 86.0869 256.595 86.0111C256.615 85.9352 256.618 85.8558 256.603 85.7787V85.877ZM258.186 85.877C258.186 85.7725 258.155 85.6705 258.097 85.5836C258.039 85.4968 257.957 85.4291 257.86 85.3891C257.764 85.3492 257.658 85.3387 257.555 85.3591C257.453 85.3795 257.359 85.4297 257.285 85.5036C257.211 85.5774 257.161 85.6715 257.141 85.774C257.12 85.8764 257.131 85.9826 257.171 86.079C257.211 86.1755 257.278 86.258 257.365 86.316C257.452 86.374 257.554 86.405 257.658 86.405C257.737 86.4063 257.814 86.3902 257.886 86.3578C257.957 86.3253 258.02 86.2774 258.071 86.2174C258.121 86.1574 258.158 86.0869 258.178 86.0111C258.198 85.9352 258.201 85.8558 258.186 85.7787V85.877ZM250.321 90.0028C250.321 89.8628 250.265 89.7285 250.166 89.6294C250.067 89.5304 249.933 89.4748 249.793 89.4748C249.653 89.4748 249.519 89.5304 249.42 89.6294C249.321 89.7285 249.265 89.8628 249.265 90.0028C249.265 90.1428 249.321 90.2771 249.42 90.3761C249.519 90.4752 249.653 90.5308 249.793 90.5308C249.933 90.5308 250.067 90.4752 250.166 90.3761C250.265 90.2771 250.321 90.1428 250.321 90.0028ZM251.916 90.0028C251.916 89.8628 251.86 89.7285 251.761 89.6294C251.662 89.5304 251.528 89.4748 251.388 89.4748C251.248 89.4748 251.114 89.5304 251.015 89.6294C250.916 89.7285 250.861 89.8628 250.861 90.0028C250.861 90.1428 250.916 90.2771 251.015 90.3761C251.114 90.4752 251.248 90.5308 251.388 90.5308C251.517 90.5157 251.636 90.4535 251.722 90.356C251.808 90.2586 251.855 90.1328 251.855 90.0028H251.916ZM253.499 90.0028C253.499 89.8628 253.443 89.7285 253.344 89.6294C253.245 89.5304 253.111 89.4748 252.971 89.4748C252.831 89.4748 252.697 89.5304 252.598 89.6294C252.499 89.7285 252.443 89.8628 252.443 90.0028C252.443 90.1428 252.499 90.2771 252.598 90.3761C252.697 90.4752 252.831 90.5308 252.971 90.5308C253.1 90.5157 253.219 90.4535 253.305 90.356C253.391 90.2586 253.438 90.1328 253.437 90.0028H253.499ZM255.082 90.0028C255.082 89.8628 255.026 89.7285 254.927 89.6294C254.828 89.5304 254.694 89.4748 254.554 89.4748C254.414 89.4748 254.28 89.5304 254.181 89.6294C254.082 89.7285 254.026 89.8628 254.026 90.0028C254.026 90.1428 254.082 90.2771 254.181 90.3761C254.28 90.4752 254.414 90.5308 254.554 90.5308C254.683 90.5157 254.802 90.4535 254.888 90.356C254.974 90.2586 255.021 90.1328 255.02 90.0028H255.082ZM256.664 90.0028C256.664 89.8628 256.609 89.7285 256.51 89.6294C256.411 89.5304 256.277 89.4748 256.137 89.4748C255.997 89.4748 255.863 89.5304 255.764 89.6294C255.665 89.7285 255.609 89.8628 255.609 90.0028C255.609 90.1428 255.665 90.2771 255.764 90.3761C255.863 90.4752 255.997 90.5308 256.137 90.5308C256.266 90.5157 256.385 90.4535 256.471 90.356C256.557 90.2586 256.604 90.1328 256.603 90.0028H256.664ZM258.247 90.0028C258.247 89.8984 258.216 89.7963 258.158 89.7095C258.1 89.6226 258.018 89.5549 257.922 89.515C257.825 89.475 257.719 89.4646 257.617 89.485C257.514 89.5053 257.42 89.5556 257.347 89.6294C257.273 89.7033 257.223 89.7974 257.202 89.8998C257.182 90.0022 257.192 90.1084 257.232 90.2049C257.272 90.3013 257.34 90.3838 257.427 90.4418C257.513 90.4999 257.615 90.5308 257.72 90.5308C257.849 90.5157 257.968 90.4535 258.054 90.356C258.14 90.2586 258.187 90.1328 258.186 90.0028H258.247ZM255.732 96.0811C255.732 95.941 255.676 95.8067 255.577 95.7077C255.478 95.6087 255.344 95.5531 255.204 95.5531C255.064 95.5531 254.93 95.6087 254.831 95.7077C254.732 95.8067 254.677 95.941 254.677 96.0811C254.677 96.2211 254.732 96.3554 254.831 96.4544C254.93 96.5534 255.064 96.6091 255.204 96.6091C255.333 96.5939 255.452 96.5317 255.538 96.4343C255.624 96.3369 255.671 96.2111 255.671 96.0811H255.732ZM257.327 96.0811C257.329 95.9737 257.3 95.868 257.242 95.7776C257.184 95.6871 257.101 95.616 257.002 95.5732C256.904 95.5304 256.795 95.518 256.69 95.5374C256.584 95.5568 256.487 95.6073 256.41 95.6824C256.333 95.7574 256.281 95.8537 256.259 95.9588C256.237 96.0639 256.247 96.1731 256.287 96.2726C256.328 96.372 256.397 96.4572 256.486 96.5171C256.575 96.577 256.68 96.609 256.787 96.6091C256.917 96.5942 257.038 96.5324 257.126 96.4352C257.214 96.3381 257.264 96.2122 257.266 96.0811H257.327ZM258.91 96.0811C258.91 95.941 258.854 95.8067 258.755 95.7077C258.656 95.6087 258.522 95.5531 258.382 95.5531C258.242 95.5531 258.108 95.6087 258.009 95.7077C257.91 95.8067 257.855 95.941 257.855 96.0811C257.855 96.2211 257.91 96.3554 258.009 96.4544C258.108 96.5534 258.242 96.6091 258.382 96.6091C258.522 96.6091 258.656 96.5534 258.755 96.4544C258.854 96.3554 258.91 96.2211 258.91 96.0811V96.0811ZM260.493 96.0811C260.493 95.941 260.437 95.8067 260.338 95.7077C260.239 95.6087 260.105 95.5531 259.965 95.5531C259.825 95.5531 259.691 95.6087 259.592 95.7077C259.493 95.8067 259.437 95.941 259.437 96.0811C259.437 96.2211 259.493 96.3554 259.592 96.4544C259.691 96.5534 259.825 96.6091 259.965 96.6091C260.094 96.5939 260.213 96.5317 260.299 96.4343C260.385 96.3369 260.432 96.2111 260.431 96.0811H260.493ZM262.076 96.0811C262.076 95.941 262.02 95.8067 261.921 95.7077C261.822 95.6087 261.688 95.5531 261.548 95.5531C261.408 95.5531 261.274 95.6087 261.175 95.7077C261.076 95.8067 261.02 95.941 261.02 96.0811C261.02 96.2211 261.076 96.3554 261.175 96.4544C261.274 96.5534 261.408 96.6091 261.548 96.6091C261.677 96.5939 261.796 96.5317 261.882 96.4343C261.968 96.3369 262.015 96.2111 262.014 96.0811H262.076ZM263.658 96.0811C263.658 95.9766 263.628 95.8745 263.57 95.7877C263.512 95.7009 263.429 95.6332 263.333 95.5932C263.236 95.5533 263.13 95.5428 263.028 95.5632C262.926 95.5835 262.832 95.6338 262.758 95.7077C262.684 95.7815 262.634 95.8756 262.613 95.978C262.593 96.0805 262.603 96.1866 262.643 96.2831C262.683 96.3796 262.751 96.462 262.838 96.5201C262.924 96.5781 263.026 96.6091 263.131 96.6091C263.26 96.5939 263.379 96.5317 263.465 96.4343C263.551 96.3369 263.598 96.2111 263.597 96.0811H263.658ZM255.732 100.44C255.732 100.3 255.676 100.166 255.577 100.067C255.478 99.9678 255.344 99.9122 255.204 99.9122C255.064 99.9122 254.93 99.9678 254.831 100.067C254.732 100.166 254.677 100.3 254.677 100.44C254.68 100.579 254.736 100.712 254.835 100.81C254.933 100.908 255.065 100.965 255.204 100.968C255.333 100.953 255.452 100.891 255.538 100.793C255.624 100.696 255.671 100.57 255.671 100.44H255.732ZM257.327 100.44C257.308 100.312 257.243 100.196 257.145 100.112C257.047 100.027 256.922 99.9811 256.793 99.9811C256.664 99.9811 256.539 100.027 256.441 100.112C256.343 100.196 256.279 100.312 256.26 100.44C256.279 100.568 256.343 100.684 256.441 100.769C256.539 100.853 256.664 100.899 256.793 100.899C256.922 100.899 257.047 100.853 257.145 100.769C257.243 100.684 257.308 100.568 257.327 100.44ZM258.91 100.44C258.91 100.371 258.896 100.302 258.87 100.238C258.843 100.174 258.804 100.116 258.755 100.067C258.706 100.018 258.648 99.9789 258.584 99.9524C258.52 99.9258 258.452 99.9122 258.382 99.9122C258.242 99.9122 258.108 99.9678 258.009 100.067C257.91 100.166 257.855 100.3 257.855 100.44C257.855 100.51 257.868 100.578 257.895 100.642C257.921 100.706 257.96 100.765 258.009 100.814C258.058 100.863 258.116 100.901 258.18 100.928C258.244 100.955 258.313 100.968 258.382 100.968C258.521 100.965 258.654 100.908 258.752 100.81C258.85 100.712 258.907 100.579 258.91 100.44V100.44ZM260.493 100.44C260.493 100.3 260.437 100.166 260.338 100.067C260.239 99.9678 260.105 99.9122 259.965 99.9122C259.825 99.9122 259.691 99.9678 259.592 100.067C259.493 100.166 259.437 100.3 259.437 100.44C259.437 100.51 259.451 100.578 259.478 100.642C259.504 100.706 259.543 100.765 259.592 100.814C259.641 100.863 259.699 100.901 259.763 100.928C259.827 100.955 259.896 100.968 259.965 100.968C260.093 100.951 260.211 100.888 260.296 100.791C260.382 100.694 260.43 100.569 260.431 100.44H260.493ZM262.076 100.44C262.076 100.3 262.02 100.166 261.921 100.067C261.822 99.9678 261.688 99.9122 261.548 99.9122C261.408 99.9122 261.274 99.9678 261.175 100.067C261.076 100.166 261.02 100.3 261.02 100.44C261.02 100.51 261.034 100.578 261.061 100.642C261.087 100.706 261.126 100.765 261.175 100.814C261.224 100.863 261.282 100.901 261.346 100.928C261.41 100.955 261.479 100.968 261.548 100.968C261.676 100.951 261.793 100.888 261.879 100.791C261.965 100.694 262.013 100.569 262.014 100.44H262.076ZM263.658 100.44C263.658 100.3 263.603 100.166 263.504 100.067C263.405 99.9678 263.271 99.9122 263.131 99.9122C262.991 99.9122 262.857 99.9678 262.758 100.067C262.659 100.166 262.603 100.3 262.603 100.44C262.603 100.58 262.659 100.715 262.758 100.814C262.857 100.913 262.991 100.968 263.131 100.968C263.271 100.968 263.405 100.913 263.504 100.814C263.603 100.715 263.658 100.58 263.658 100.44Z" fill="#3D3D3D"/>
<mask id="path-20-inside-1_413_171" fill="white">
<path d="M177.595 98.7093C177.595 98.7093 169.902 80.7324 163.153 80.7324C156.404 80.7324 156.736 95.8236 160.908 103.854C165.079 111.885 174.073 115.09 176.638 110.276"/>
</mask>
<path d="M177.595 98.7093C177.595 98.7093 169.902 80.7324 163.153 80.7324C156.404 80.7324 156.736 95.8236 160.908 103.854C165.079 111.885 174.073 115.09 176.638 110.276" fill="#FFEE80"/>
<path d="M177.595 98.7093C178.514 98.3158 178.514 98.3156 178.514 98.3153C178.514 98.3151 178.514 98.3148 178.514 98.3144C178.513 98.3137 178.513 98.3127 178.512 98.3114C178.511 98.3088 178.51 98.3052 178.508 98.3005C178.504 98.2911 178.498 98.2774 178.49 98.2596C178.475 98.2239 178.452 98.1718 178.422 98.1043C178.363 97.9692 178.275 97.7725 178.162 97.5228C177.935 97.0237 177.604 96.3126 177.185 95.46C176.35 93.7569 175.162 91.4796 173.756 89.1966C172.356 86.9214 170.715 84.601 168.967 82.8374C167.256 81.1113 165.261 79.7324 163.153 79.7324V81.7324C164.419 81.7324 165.916 82.6007 167.546 84.2452C169.139 85.8523 170.687 88.0261 172.053 90.2451C173.415 92.4563 174.572 94.6732 175.39 96.3408C175.798 97.1735 176.121 97.8668 176.341 98.3508C176.451 98.5927 176.535 98.7822 176.592 98.9105C176.62 98.9746 176.641 99.0234 176.655 99.0558C176.662 99.072 176.668 99.0841 176.671 99.092C176.673 99.0959 176.674 99.0988 176.675 99.1006C176.675 99.1015 176.675 99.1021 176.676 99.1025C176.676 99.1026 176.676 99.1027 176.676 99.1028C176.676 99.1028 176.676 99.1027 177.595 98.7093ZM163.153 79.7324C161.006 79.7324 159.471 80.9667 158.494 82.7315C157.537 84.4595 157.06 86.7684 156.936 89.2318C156.689 94.1632 157.843 100.124 160.02 104.315L161.795 103.393C159.801 99.5543 158.702 93.9538 158.934 89.3319C159.05 87.0187 159.494 85.0529 160.243 83.7003C160.972 82.3846 161.925 81.7324 163.153 81.7324V79.7324ZM160.02 104.315C162.209 108.529 165.679 111.516 169.013 112.814C170.679 113.462 172.372 113.712 173.879 113.414C175.417 113.11 176.726 112.237 177.521 110.747L175.755 109.806C175.267 110.722 174.491 111.254 173.491 111.452C172.46 111.656 171.163 111.505 169.738 110.95C166.891 109.841 163.778 107.21 161.795 103.393L160.02 104.315Z" fill="#3D3D3D" mask="url(#path-20-inside-1_413_171)"/>
<path d="M160.92 91.6972C160.92 91.6972 159.938 83.8753 163.656 85.2506C167.374 86.6259 171.669 98.942 171.669 98.942C171.669 98.942 168.54 95.6143 168.932 98.7455C168.981 99.578 169.322 100.367 169.894 100.973C170.466 101.579 171.234 101.964 172.061 102.061" stroke="#3D3D3D" stroke-linecap="round" stroke-linejoin="round"/>
<path d="M283.702 155.352H281.146L255.17 259.849H258.909L283.702 155.352Z" fill="#3D3D3D" stroke="#3D3D3D" stroke-linecap="round" stroke-linejoin="round"/>
<path fill-rule="evenodd" clip-rule="evenodd" d="M180.589 259.849H256.91V267.278H180.589V259.849Z" fill="#FFDC00"/>
<path d="M409.036 259.849H256.91V267.278H409.036V259.849Z" fill="#FFDC00"/>
<path d="M409.036 259.849H409.536C409.536 259.572 409.312 259.349 409.036 259.349V259.849ZM180.589 259.849V259.349C180.313 259.349 180.089 259.572 180.089 259.849H180.589ZM180.589 267.278H180.089C180.089 267.554 180.313 267.778 180.589 267.778V267.278ZM409.036 267.278V267.778C409.312 267.778 409.536 267.554 409.536 267.278H409.036ZM409.036 259.349H180.589V260.349H409.036V259.349ZM180.089 259.849V267.278H181.089V259.849H180.089ZM180.589 267.778H409.036V266.778H180.589V267.778ZM409.536 267.278V259.849H408.536V267.278H409.536ZM409.036 259.349H256.91V260.349H409.036V259.349ZM256.41 259.849V267.278H257.41V259.849H256.41ZM256.91 267.778H409.036V266.778H256.91V267.778ZM180.589 260.349H256.91V259.349H180.589V260.349ZM256.91 266.778H180.589V267.778H256.91V266.778Z" fill="#3D3D3D"/>
<path d="M434.953 155.352H282.827L256.851 259.849H408.977L434.953 155.352Z" fill="#FFDC00" stroke="#3D3D3D" stroke-linecap="round" stroke-linejoin="round"/>
<path d="M346.777 231.961C358.758 231.961 368.471 222.335 368.471 210.46C368.471 198.585 358.758 188.959 346.777 188.959C334.796 188.959 325.083 198.585 325.083 210.46C325.083 222.335 334.796 231.961 346.777 231.961Z" fill="#3D3D3D"/>
<path d="M329.145 212.905C328.917 212.803 328.713 212.655 328.544 212.472C328.376 212.288 328.246 212.072 328.163 211.837C327.961 211.332 327.961 210.769 328.163 210.265C328.273 209.987 328.438 209.735 328.649 209.524C328.86 209.313 329.113 209.147 329.39 209.037L338.58 205.353C338.887 205.218 339.206 205.353 339.55 205.758C339.855 206.099 340.04 206.53 340.077 206.986C340.085 207.205 340.031 207.422 339.92 207.612C339.809 207.801 339.647 207.954 339.452 208.055L331.746 211.051L339.476 214.157C339.639 214.267 339.769 214.418 339.853 214.595C339.938 214.772 339.973 214.969 339.955 215.164C339.94 215.61 339.785 216.039 339.513 216.392C339.219 216.785 338.924 216.92 338.617 216.797L329.145 212.905Z" fill="#F4F4F4"/>
<path d="M343.489 218.05C343.362 217.949 343.261 217.82 343.192 217.672C343.124 217.525 343.091 217.364 343.096 217.202C343.151 216.76 343.25 216.324 343.391 215.901L348.495 201.166C348.814 200.061 349.268 199.508 349.857 199.508C350.18 199.503 350.495 199.616 350.74 199.827C350.86 199.948 350.954 200.092 351.015 200.25C351.076 200.409 351.104 200.578 351.096 200.748C351.065 201.169 350.97 201.583 350.814 201.976L345.476 217.571C345.417 217.818 345.272 218.037 345.069 218.19C344.865 218.342 344.614 218.419 344.36 218.406C344.036 218.396 343.727 218.269 343.489 218.05Z" fill="#F4F4F4"/>
<path d="M353.513 216.453C353.241 216.101 353.086 215.671 353.072 215.226C353.054 215.03 353.089 214.834 353.173 214.656C353.257 214.479 353.387 214.328 353.55 214.219L361.28 211.112L353.575 208.116C353.38 208.016 353.217 207.862 353.107 207.673C352.996 207.484 352.941 207.267 352.949 207.048C352.986 206.592 353.172 206.16 353.477 205.82C353.82 205.414 354.139 205.279 354.446 205.414L363.636 209.098C364.079 209.274 364.457 209.583 364.716 209.982C364.95 210.321 365.074 210.724 365.072 211.137C365.057 211.521 364.947 211.897 364.753 212.229C364.573 212.558 364.288 212.818 363.943 212.966L354.409 216.932C354.102 216.981 353.808 216.846 353.513 216.453Z" fill="#F4F4F4"/>
<path d="M493.272 265.633H0.829956V273H493.272V265.633Z" fill="#F4F4F4" stroke="#3D3D3D" stroke-linecap="round" stroke-linejoin="round"/>
</svg>
