<svg id="learning-bro" viewBox="0 0 579 470" fill="none" xmlns="http://www.w3.org/2000/svg" role="img" focusable="false">
<title>Two dimensional illustration of a guy reading a book sourounded by illustrations of stem symbols</title>
<path d="M40.5854 151.506C41.8256 156.424 41.216 147.375 43.6437 136.319C46.0714 125.263 50.2437 129.74 50.2437 129.74" stroke="#263238" stroke-linecap="round" stroke-linejoin="round"/>
<path d="M39.8281 140.209L47.4476 137.088" stroke="#263238" stroke-linecap="round" stroke-linejoin="round"/>
<path d="M53.7432 133.335C53.7432 133.335 49.1926 142.794 56.0553 146.766" stroke="#263238" stroke-linecap="round" stroke-linejoin="round"/>
<path d="M60.2065 130.687C60.2065 130.687 67.7314 134.89 63.0231 143.908" stroke="#263238" stroke-linecap="round" stroke-linejoin="round"/>
<path d="M55.0559 136.53L60.4473 140.461" stroke="#263238" stroke-linecap="round" stroke-linejoin="round"/>
<path d="M59.2807 134.796L55.0664 141.512" stroke="#263238" stroke-linecap="round" stroke-linejoin="round"/>
<path d="M83.4919 235.45C84.5174 229.201 80.2831 223.304 74.0342 222.279C67.7853 221.253 61.8883 225.487 60.8627 231.736C59.8372 237.985 64.0716 243.882 70.3204 244.908C76.5693 245.933 82.4664 241.699 83.4919 235.45Z" stroke="#263238" stroke-linecap="round" stroke-linejoin="round"/>
<path d="M90.2935 250.536C97.1735 249.125 101.607 242.403 100.196 235.523C98.785 228.643 92.0638 224.21 85.1838 225.621C78.3039 227.032 73.8704 233.753 75.2814 240.633C76.6924 247.513 83.4136 251.947 90.2935 250.536Z" stroke="#263238" stroke-linecap="round" stroke-linejoin="round"/>
<path d="M82.6227 228.856L77.3469 230.738" stroke="#263238" stroke-linecap="round" stroke-linejoin="round"/>
<path d="M83.3591 231.033L75.7712 233.776" stroke="#263238" stroke-linecap="round" stroke-linejoin="round"/>
<path d="M83.6428 233.66L75.1721 236.918" stroke="#263238" stroke-linecap="round" stroke-linejoin="round"/>
<path d="M83.0436 237.243L75.3191 240.774" stroke="#263238" stroke-linecap="round" stroke-linejoin="round"/>
<path d="M81.6776 239.997L75.8132 242.435" stroke="#263238" stroke-linecap="round" stroke-linejoin="round"/>
<path d="M77.7151 216.119C77.3893 215.068 73.6689 214.416 73.5113 217.17C73.3536 219.924 77.4314 217.632 78.5874 216.119C78.5874 216.119 76.4855 218.946 77.3683 219.503" stroke="#263238" stroke-linecap="round" stroke-linejoin="round"/>
<path d="M98.3137 219.545L95.0137 226.408C95.0137 226.408 96.6637 222.971 98.4293 223.255C100.605 223.644 99.1544 227.206 96.5271 225.893" stroke="#263238" stroke-linecap="round" stroke-linejoin="round"/>
<path d="M457.437 331.599L462.618 336.496" stroke="#263238" stroke-linecap="round" stroke-linejoin="round"/>
<path d="M462.617 330.316L458.277 336.801" stroke="#263238" stroke-linecap="round" stroke-linejoin="round"/>
<path d="M467.715 332.176L472.907 330.242" stroke="#263238" stroke-linecap="round" stroke-linejoin="round"/>
<path d="M475.397 324.841L478.55 327.626" stroke="#263238" stroke-linecap="round" stroke-linejoin="round"/>
<path d="M480.967 321.488L476.974 335.193" stroke="#263238" stroke-linecap="round" stroke-linejoin="round"/>
<path d="M239.111 254.616L253.057 245.021L271.523 246.313L272.679 269.729L259.121 279.418L242.39 278.199L239.111 254.616Z" stroke="#263238" stroke-linecap="round" stroke-linejoin="round"/>
<path d="M242.389 278.199L255.894 268.478L272.678 269.728" stroke="#263238" stroke-linecap="round" stroke-linejoin="round"/>
<path d="M255.894 268.478L253.056 245.021" stroke="#263238" stroke-linecap="round" stroke-linejoin="round"/>
<path d="M239.111 254.616L257.534 256.749L271.523 246.313" stroke="#263238" stroke-linecap="round" stroke-linejoin="round"/>
<path d="M257.534 256.749L259.121 279.418" stroke="#263238" stroke-linecap="round" stroke-linejoin="round"/>
<path d="M401.883 175.952L395.704 195.153L414.936 192.557L401.883 175.952Z" stroke="#263238" stroke-linecap="round" stroke-linejoin="round"/>
<path d="M401.883 175.952L405.319 193.745" stroke="#263238" stroke-linecap="round" stroke-linejoin="round"/>
<path d="M404.773 190.896L407.022 190.539L407.547 193.555" stroke="#263238" stroke-linecap="round" stroke-linejoin="round"/>
<path d="M159.678 351.661L169.284 356.38" stroke="#263238" stroke-linecap="round" stroke-linejoin="round"/>
<path d="M166.185 348.056L163.432 358.092" stroke="#263238" stroke-linecap="round" stroke-linejoin="round"/>
<path d="M167.519 343.159C167.676 342.996 167.87 342.872 168.084 342.797C168.298 342.722 168.527 342.699 168.752 342.728C168.977 342.758 169.191 342.84 169.379 342.968C169.566 343.095 169.721 343.265 169.831 343.464C170.798 344.977 168.906 348.151 168.906 348.151L172.763 346.679" stroke="#263238" stroke-linecap="round" stroke-linejoin="round"/>
<path d="M235.096 21.0723C244.271 26.2325 233.761 38.8439 233.761 46.2006C233.761 53.5573 244.271 52.5064 249.526 54.6083C251.627 54.6083 255.831 54.6083 255.716 59.9471" stroke="#263238" stroke-linecap="round" stroke-linejoin="round"/>
<path d="M224.871 27.7671C226.468 36.4585 236.431 33.3792 242.548 35.3655C253.057 38.7811 247.224 49.627 244.093 56.185C242.211 60.0945 240.341 65.5805 243.704 69.2904" stroke="#263238" stroke-linecap="round" stroke-linejoin="round"/>
<path d="M226.215 31.1401L237.156 22.0493" stroke="#263238" stroke-linecap="round" stroke-linejoin="round"/>
<path d="M230.503 33.8517L238.742 27.0205" stroke="#263238" stroke-linecap="round" stroke-linejoin="round"/>
<path d="M235.348 40.7672L242.305 35.3022" stroke="#263238" stroke-linecap="round" stroke-linejoin="round"/>
<path d="M233.908 48.9438L247.507 39.1699" stroke="#263238" stroke-linecap="round" stroke-linejoin="round"/>
<path d="M239.122 52.7586L248.601 45.8013" stroke="#263238" stroke-linecap="round" stroke-linejoin="round"/>
<path d="M243.156 67.5452L255.001 57.8975" stroke="#263238" stroke-linecap="round" stroke-linejoin="round"/>
<path d="M243.45 59.9579L251.175 54.5244" stroke="#263238" stroke-linecap="round" stroke-linejoin="round"/>
<path d="M88.8033 356.897C100.088 352.383 105.577 339.576 101.064 328.291C96.5501 317.006 83.7428 311.517 72.4579 316.03C61.1729 320.544 55.6837 333.351 60.1974 344.636C64.711 355.921 77.5183 361.411 88.8033 356.897Z" stroke="#263238" stroke-linecap="round" stroke-linejoin="round"/>
<path d="M86.1653 315.172C93.8373 306.165 100.364 301.068 102.876 302.729C106.701 305.24 99.8383 322.392 87.5526 341.025C75.2669 359.659 62.2035 372.733 58.378 370.21C55.8557 368.56 57.9787 360.552 63.2335 349.948" stroke="#263238" stroke-linecap="round" stroke-linejoin="round"/>
<path d="M59.0917 340.983C48.393 337.904 41.5618 334.31 41.9927 331.44C42.6127 326.9 61.099 325.849 83.1796 329.16C105.26 332.47 122.622 338.745 121.96 343.264C121.487 346.417 112.501 347.856 99.7322 347.373" stroke="#263238" stroke-linecap="round" stroke-linejoin="round"/>
<path d="M61.8978 325.041C53.8264 310.475 49.7907 299.114 52.5232 297.338C56.1175 295.015 70.0111 310.086 83.558 330.968C97.1048 351.851 105.166 370.726 101.582 373.059C99.2067 374.594 92.323 368.519 84.0099 358.178" stroke="#263238" stroke-linecap="round" stroke-linejoin="round"/>
<path d="M105.975 312.25C105.583 312.847 105.023 313.315 104.365 313.594C103.707 313.874 102.982 313.952 102.28 313.819C101.578 313.686 100.931 313.348 100.421 312.848C99.9105 312.348 99.5599 311.708 99.4133 311.008C99.2667 310.309 99.3306 309.582 99.5969 308.919C99.8632 308.256 100.32 307.687 100.91 307.283C101.499 306.88 102.195 306.66 102.91 306.652C103.624 306.643 104.325 306.847 104.924 307.237C105.323 307.496 105.666 307.832 105.935 308.225C106.204 308.617 106.392 309.059 106.49 309.525C106.588 309.991 106.592 310.471 106.504 310.939C106.416 311.406 106.236 311.852 105.975 312.25Z" fill="#263238"/>
<path d="M94.0052 367.625C93.6133 368.222 93.0532 368.69 92.3956 368.969C91.7379 369.249 91.0123 369.327 90.3103 369.194C89.6082 369.061 88.9613 368.723 88.4511 368.223C87.941 367.723 87.5905 367.083 87.4439 366.383C87.2973 365.684 87.3612 364.957 87.6275 364.294C87.8938 363.631 88.3505 363.062 88.9401 362.658C89.5297 362.255 90.2257 362.035 90.9401 362.027C91.6545 362.018 92.3554 362.222 92.9542 362.612C93.3531 362.871 93.6967 363.207 93.9655 363.6C94.2343 363.992 94.423 364.434 94.5206 364.9C94.6182 365.366 94.623 365.846 94.5345 366.314C94.4461 366.781 94.2662 367.227 94.0052 367.625Z" fill="#263238"/>
<path d="M74.6883 330.053C74.2964 330.651 73.7363 331.119 73.0787 331.398C72.421 331.677 71.6954 331.755 70.9934 331.623C70.2914 331.49 69.6444 331.152 69.1342 330.652C68.6241 330.152 68.2736 329.511 68.127 328.812C67.9804 328.113 68.0443 327.386 68.3106 326.723C68.5769 326.06 69.0336 325.491 69.6232 325.087C70.2128 324.683 70.9088 324.464 71.6232 324.455C72.3376 324.447 73.0385 324.651 73.6373 325.04C74.4406 325.566 75.0024 326.39 75.1994 327.329C75.3965 328.269 75.2126 329.249 74.6883 330.053Z" fill="#263238"/>
<path d="M305.174 172.746H317.554L323.744 162.026L317.554 151.307H305.174L298.984 162.026L305.174 172.746Z" stroke="#263238" stroke-linecap="round" stroke-linejoin="round"/>
<path d="M303.377 196.276L297.186 185.557H284.806" stroke="#263238" stroke-linecap="round" stroke-linejoin="round"/>
<path d="M286.466 162.026H298.847L305.037 151.306L298.847 140.576H286.466L280.276 151.306L286.466 162.026Z" stroke="#263238" stroke-linecap="round" stroke-linejoin="round"/>
<path d="M305.174 151.306H317.554L323.744 140.576L317.554 129.856H305.174L298.984 140.576L305.174 151.306Z" stroke="#263238" stroke-linecap="round" stroke-linejoin="round"/>
<path d="M305.037 152.968C305.954 152.968 306.697 152.224 306.697 151.307C306.697 150.39 305.954 149.646 305.037 149.646C304.12 149.646 303.376 150.39 303.376 151.307C303.376 152.224 304.12 152.968 305.037 152.968Z" fill="#263238"/>
<path d="M279.184 130.455C280.101 130.455 280.845 129.711 280.845 128.794C280.845 127.877 280.101 127.134 279.184 127.134C278.267 127.134 277.524 127.877 277.524 128.794C277.524 129.711 278.267 130.455 279.184 130.455Z" fill="#263238"/>
<path d="M301.717 196.277C301.717 195.948 301.814 195.627 301.996 195.354C302.179 195.081 302.438 194.868 302.742 194.743C303.045 194.617 303.379 194.584 303.701 194.648C304.023 194.712 304.319 194.87 304.551 195.103C304.783 195.335 304.942 195.631 305.006 195.953C305.07 196.275 305.037 196.609 304.911 196.912C304.786 197.216 304.573 197.475 304.3 197.657C304.027 197.84 303.705 197.937 303.377 197.937C303.159 197.937 302.943 197.894 302.742 197.811C302.54 197.727 302.357 197.605 302.203 197.451C302.049 197.297 301.926 197.114 301.843 196.912C301.76 196.711 301.717 196.495 301.717 196.277Z" fill="#263238"/>
<path d="M284.806 187.218C285.723 187.218 286.467 186.475 286.467 185.558C286.467 184.641 285.723 183.897 284.806 183.897C283.889 183.897 283.146 184.641 283.146 185.558C283.146 186.475 283.889 187.218 284.806 187.218Z" fill="#263238"/>
<path d="M335.724 140.881C335.724 140.55 335.822 140.227 336.007 139.951C336.191 139.676 336.452 139.462 336.758 139.336C337.064 139.21 337.401 139.178 337.725 139.243C338.05 139.308 338.347 139.468 338.58 139.703C338.814 139.938 338.972 140.237 339.035 140.561C339.099 140.886 339.064 141.223 338.936 141.528C338.808 141.833 338.592 142.093 338.316 142.275C338.04 142.458 337.716 142.554 337.385 142.552C337.166 142.552 336.949 142.509 336.747 142.425C336.545 142.34 336.361 142.217 336.207 142.062C336.052 141.907 335.93 141.722 335.848 141.52C335.765 141.317 335.723 141.1 335.724 140.881Z" fill="#263238"/>
<path d="M297.06 187.218C297.977 187.218 298.72 186.475 298.72 185.558C298.72 184.641 297.977 183.897 297.06 183.897C296.143 183.897 295.399 184.641 295.399 185.558C295.399 186.475 296.143 187.218 297.06 187.218Z" fill="#263238"/>
<path d="M322.083 140.881C322.083 140.55 322.181 140.227 322.365 139.953C322.549 139.678 322.81 139.464 323.115 139.337C323.42 139.211 323.756 139.178 324.08 139.242C324.405 139.307 324.702 139.466 324.936 139.699C325.17 139.933 325.329 140.231 325.393 140.555C325.458 140.879 325.425 141.215 325.298 141.52C325.172 141.826 324.958 142.087 324.683 142.27C324.408 142.454 324.085 142.552 323.755 142.552C323.311 142.552 322.886 142.376 322.573 142.063C322.26 141.749 322.083 141.324 322.083 140.881Z" fill="#263238"/>
<path d="M303.376 172.757C303.374 172.425 303.471 172.101 303.653 171.824C303.836 171.548 304.097 171.332 304.403 171.204C304.709 171.077 305.046 171.043 305.371 171.107C305.696 171.171 305.994 171.33 306.229 171.565C306.463 171.799 306.623 172.098 306.687 172.423C306.751 172.748 306.717 173.085 306.589 173.391C306.461 173.696 306.245 173.957 305.969 174.14C305.693 174.323 305.368 174.419 305.037 174.417C304.597 174.414 304.176 174.239 303.866 173.928C303.555 173.617 303.379 173.196 303.376 172.757Z" fill="#263238"/>
<path d="M323.754 140.86H337.385" stroke="#263238" stroke-linecap="round" stroke-linejoin="round"/>
<path d="M305.037 172.757L297.06 185.557" stroke="#263238" stroke-linecap="round" stroke-linejoin="round"/>
<path d="M286.466 140.576L279.183 128.795" stroke="#263238" stroke-linecap="round" stroke-linejoin="round"/>
<path d="M48.0938 17.4263C49.5217 12.5997 52.4979 8.37703 56.5634 5.4095C60.6289 2.44197 65.5578 0.894436 70.5899 1.0056C75.622 1.11676 80.4778 2.88043 84.4083 6.0246C88.3388 9.16877 91.1256 13.5188 92.339 18.4037" stroke="#263238" stroke-linecap="round" stroke-linejoin="round"/>
<path d="M67.4522 46.6849C61.8606 46.0449 56.6999 43.3701 52.9535 39.1702C49.2071 34.9702 47.1368 29.5387 47.1372 23.9106" stroke="#263238" stroke-linecap="round" stroke-linejoin="round"/>
<path d="M93.0009 23.9106C93.0009 29.9879 90.5875 35.8165 86.2911 40.1148C81.9948 44.4131 76.1674 46.8292 70.0901 46.832" stroke="#263238" stroke-linecap="round" stroke-linejoin="round"/>
<path d="M94.3042 9.37625C101.472 8.46191 106.275 8.95587 107.021 11.0998C108.503 15.3667 93.1692 24.5626 72.7701 31.646C52.3711 38.7295 34.6414 40.9995 33.1491 36.7221C32.3608 34.4416 36.3755 30.7527 43.3959 26.7275" stroke="#263238" stroke-linecap="round" stroke-linejoin="round"/>
<path d="M297.06 74.5654L299.257 79.011L304.165 79.7256L300.612 83.1938L301.453 88.0807L297.06 85.7686L292.667 88.0807L293.508 83.1938L289.956 79.7256L294.864 79.011L297.06 74.5654Z" stroke="#263238" stroke-linecap="round" stroke-linejoin="round"/>
<path d="M141.897 62.722C141.894 66.6745 140.324 70.4645 137.53 73.2603C134.736 76.0562 130.947 77.6295 126.995 77.6351C126.511 77.6351 126.038 77.6141 125.576 77.572C122.699 77.2992 119.964 76.1966 117.703 74.3984C115.441 72.6001 113.751 70.1836 112.837 67.4426C111.923 64.7016 111.825 61.7542 112.555 58.9585C113.285 56.1629 114.811 53.6395 116.948 51.695C119.085 49.7505 121.741 48.4687 124.593 48.0055C127.445 47.5422 130.37 47.9174 133.013 49.0854C135.656 50.2534 137.902 52.164 139.479 54.5849C141.056 57.0057 141.896 59.8327 141.897 62.722V62.722Z" stroke="#263238" stroke-linecap="round" stroke-linejoin="round"/>
<path d="M139.511 65.4119C139.513 65.8697 139.379 66.3177 139.126 66.6993C138.873 67.0809 138.513 67.3789 138.091 67.5555C137.668 67.7321 137.203 67.7794 136.754 67.6914C136.305 67.6034 135.892 67.384 135.567 67.0611C135.243 66.7382 135.022 66.3262 134.932 65.8774C134.842 65.4286 134.887 64.9632 135.061 64.5401C135.236 64.117 135.532 63.7553 135.913 63.5008C136.293 63.2462 136.741 63.1104 137.199 63.1104C137.81 63.1103 138.396 63.3525 138.83 63.7838C139.263 64.2152 139.508 64.8006 139.511 65.4119V65.4119Z" stroke="#263238" stroke-linecap="round" stroke-linejoin="round"/>
<path d="M118.755 71.2757C118.756 71.8235 118.636 72.3647 118.403 72.8607C118.171 73.3566 117.832 73.7951 117.41 74.1448C115.45 72.5271 113.941 70.4312 113.028 68.0598C113.606 67.7047 114.272 67.519 114.951 67.5238C115.448 67.5168 115.941 67.6087 116.403 67.7942C116.864 67.9796 117.284 68.2549 117.638 68.604C117.992 68.9531 118.273 69.369 118.465 69.8277C118.657 70.2864 118.755 70.7786 118.755 71.2757Z" stroke="#263238" stroke-linecap="round" stroke-linejoin="round"/>
<path d="M137.199 73.6202C134.443 76.2304 130.79 77.6826 126.994 77.6769C126.511 77.6769 126.038 77.6559 125.575 77.6139C125.491 77.2095 125.448 76.7974 125.449 76.3842C125.45 74.9871 125.922 73.6311 126.79 72.5361C127.658 71.4411 128.87 70.6712 130.23 70.3513C131.59 70.0314 133.018 70.1801 134.283 70.7734C135.548 71.3668 136.575 72.3699 137.199 73.6202V73.6202Z" stroke="#263238" stroke-linecap="round" stroke-linejoin="round"/>
<path d="M123.379 56.8044C125.272 56.8044 126.806 55.2705 126.806 53.3783C126.806 51.4861 125.272 49.9521 123.379 49.9521C121.487 49.9521 119.953 51.4861 119.953 53.3783C119.953 55.2705 121.487 56.8044 123.379 56.8044Z" stroke="#263238" stroke-linecap="round" stroke-linejoin="round"/>
<path d="M126.553 63.1104C126.553 63.4243 126.46 63.7311 126.286 63.992C126.111 64.253 125.864 64.4564 125.574 64.5765C125.284 64.6966 124.965 64.7281 124.657 64.6668C124.349 64.6056 124.066 64.4545 123.844 64.2325C123.622 64.0106 123.471 63.7278 123.41 63.42C123.349 63.1121 123.38 62.7931 123.5 62.5031C123.62 62.2131 123.824 61.9653 124.085 61.7909C124.346 61.6165 124.652 61.5234 124.966 61.5234C125.175 61.5234 125.381 61.5645 125.574 61.6442C125.766 61.724 125.941 61.8409 126.088 61.9882C126.236 62.1356 126.353 62.3106 126.432 62.5031C126.512 62.6956 126.553 62.902 126.553 63.1104Z" stroke="#263238" stroke-linecap="round" stroke-linejoin="round"/>
<path d="M139.091 54.0196C138.674 54.1564 138.238 54.2238 137.799 54.2193C137.225 54.2193 136.657 54.1061 136.127 53.8863C135.597 53.6664 135.116 53.3442 134.711 52.9381C134.306 52.532 133.985 52.0499 133.766 51.5196C133.548 50.9892 133.436 50.4209 133.437 49.8473C133.427 49.6653 133.427 49.4828 133.437 49.3008C135.688 50.374 137.633 51.9968 139.091 54.0196V54.0196Z" stroke="#263238" stroke-linecap="round" stroke-linejoin="round"/>
<path d="M481.756 235.773L483.364 232.158L480.758 230.728C480.854 230.092 480.871 229.446 480.81 228.805L483.48 227.502L482.061 223.813L479.202 224.633C478.819 224.118 478.374 223.652 477.878 223.245L478.855 220.429L475.24 218.821L473.8 221.427C473.162 221.349 472.516 221.349 471.877 221.427L470.584 218.758L466.885 220.177L467.715 223.025C467.2 223.414 466.73 223.862 466.317 224.359L463.511 223.382L461.945 226.945L464.552 228.385C464.456 229.021 464.438 229.667 464.499 230.308L461.819 231.601L463.238 235.3L466.097 234.47C466.483 234.985 466.927 235.454 467.421 235.867L466.454 238.673L470.069 240.281L471.499 237.675C472.135 237.771 472.781 237.789 473.422 237.728L474.725 240.408L478.414 238.989L477.594 236.13C478.106 235.744 478.572 235.3 478.981 234.806L481.756 235.773ZM470.763 233.755C469.933 233.386 469.231 232.779 468.746 232.011C468.261 231.243 468.015 230.349 468.038 229.441C468.061 228.533 468.353 227.653 468.877 226.91C469.401 226.168 470.132 225.598 470.98 225.272C471.828 224.946 472.753 224.879 473.639 225.078C474.525 225.278 475.332 225.736 475.958 226.394C476.583 227.052 477 227.881 477.155 228.776C477.31 229.671 477.195 230.592 476.827 231.422C476.33 232.534 475.413 233.404 474.277 233.841C473.14 234.278 471.877 234.247 470.763 233.755V233.755Z" stroke="#263238" stroke-linecap="round" stroke-linejoin="round"/>
<path d="M462.543 254.322L464.729 249.414L461.198 247.459C461.324 246.596 461.345 245.721 461.261 244.853L464.898 243.087L462.995 238.074L459.117 239.199C458.599 238.496 457.995 237.86 457.32 237.307L458.644 233.481L453.694 231.264L451.75 234.795C450.887 234.671 450.012 234.646 449.144 234.721L447.378 231.096L442.355 233.029L443.479 236.897C442.781 237.425 442.146 238.031 441.587 238.705L437.772 237.422L435.586 242.33L439.118 244.285C438.992 245.148 438.971 246.023 439.055 246.892L435.418 248.657L437.352 253.67L441.23 252.556C441.751 253.256 442.355 253.892 443.027 254.448L441.703 258.263L446.621 260.449L448.566 256.907C449.428 257.036 450.303 257.061 451.172 256.981L452.938 260.607L457.961 258.683L456.837 254.805C457.534 254.281 458.169 253.678 458.728 253.008L462.543 254.322ZM447.62 251.579C446.492 251.076 445.538 250.25 444.88 249.205C444.221 248.16 443.887 246.944 443.92 245.709C443.954 244.474 444.352 243.277 445.066 242.269C445.78 241.261 446.776 240.488 447.93 240.046C449.083 239.605 450.342 239.516 451.546 239.79C452.75 240.064 453.846 240.689 454.695 241.586C455.544 242.483 456.108 243.612 456.315 244.829C456.522 246.047 456.364 247.299 455.859 248.426C455.526 249.175 455.048 249.85 454.454 250.414C453.859 250.977 453.159 251.418 452.393 251.711C451.628 252.004 450.813 252.143 449.993 252.12C449.174 252.098 448.368 251.914 447.62 251.579Z" stroke="#263238" stroke-linecap="round" stroke-linejoin="round"/>
<path d="M244.682 207.734C243.241 210.462 241.616 213.089 239.816 215.595C230.478 228.577 216.758 237.741 201.189 241.394C185.621 245.047 169.256 242.942 155.119 235.468C153.658 234.701 152.229 233.881 150.863 233.02C149.496 232.158 148.162 231.275 146.88 230.329C145.324 229.205 143.832 228.007 142.402 226.756C142.311 226.687 142.227 226.61 142.15 226.525C132.837 218.283 126.03 207.587 122.507 195.66C118.983 183.733 118.886 171.056 122.226 159.076C125.566 147.096 132.208 136.298 141.394 127.914C150.58 119.53 161.938 113.899 174.173 111.664C186.407 109.429 199.023 110.681 210.579 115.276C222.136 119.871 232.167 127.624 239.526 137.649C246.885 147.675 251.276 159.568 252.197 171.97C253.118 184.373 250.532 196.784 244.734 207.786L244.682 207.734Z" fill="#FFDC00"/>
<path opacity="0.6" d="M241.023 147.077C242.593 147.564 243.802 147.542 244.685 147.07C249.407 156.356 251.854 166.634 251.822 177.057C251.789 187.668 249.187 198.114 244.239 207.5C242.892 210.051 241.382 212.513 239.718 214.869L238.85 214.157L238.811 214.125L238.766 214.102L236.559 212.935L236.558 212.934L234.546 211.879L234.887 209.421L234.894 209.374L234.891 209.327L234.765 206.794L234.765 206.792C234.733 206.194 234.831 206.041 234.846 206.023C234.85 206.021 234.861 206.018 234.88 206.015C234.935 206.009 235.021 206.012 235.16 206.035C235.272 206.054 235.389 206.081 235.529 206.112C235.563 206.12 235.598 206.128 235.634 206.136C235.813 206.176 236.016 206.219 236.229 206.245C236.654 206.298 237.159 206.291 237.651 206.032L237.681 206.016L237.709 205.996C238.916 205.134 239.89 203.988 240.547 202.658L240.564 202.623L240.576 202.585L240.099 202.437C240.576 202.585 240.576 202.585 240.576 202.585L240.576 202.585L240.576 202.584L240.577 202.582L240.579 202.574L240.589 202.544C240.597 202.518 240.608 202.48 240.622 202.431C240.651 202.333 240.692 202.193 240.739 202.021C240.834 201.678 240.957 201.204 241.069 200.686C241.181 200.17 241.284 199.6 241.337 199.067C241.388 198.546 241.396 198.01 241.287 197.584L241.281 197.56L241.273 197.537C240.7 195.955 240.024 194.411 239.25 192.916L238.875 192.191L238.399 192.855L234.801 197.881L232.032 197.669L229.378 196.267L229.015 192.385L228.989 192.114L228.748 191.988L227.408 191.291L226.824 189.117L226.751 188.843L226.476 188.766L218.382 186.499L217.538 185.017L217.104 185.264L217.538 185.017C217.244 184.5 216.751 184.082 216.23 183.75C215.702 183.413 215.104 183.137 214.551 182.92C213.996 182.702 213.473 182.539 213.09 182.43C213.071 182.425 213.052 182.419 213.033 182.414L213.723 180.818L215.176 178.431C215.176 178.431 215.176 178.431 215.176 178.431C215.503 177.899 215.722 177.89 215.794 177.897C215.937 177.912 216.156 178.046 216.425 178.377C216.675 178.686 216.894 179.075 217.054 179.399C217.133 179.559 217.195 179.698 217.237 179.796C217.258 179.845 217.274 179.884 217.284 179.91L217.296 179.939L217.298 179.945L217.299 179.946L217.299 179.946L217.299 179.946L217.299 179.946L217.366 180.123L217.535 180.211L219.29 181.125L219.586 181.28L219.842 181.065L223.1 178.333L223.231 178.223L223.267 178.057L224.037 174.553L228.919 174.833L229.562 174.87L229.439 174.238C229.357 173.82 229.42 173.386 229.619 173.009C229.817 172.634 230.137 172.338 230.526 172.169C231.14 171.924 231.502 171.414 231.697 170.847C231.89 170.284 231.937 169.625 231.907 168.981C231.846 167.695 231.468 166.316 231.102 165.544C230.862 165.038 230.452 164.76 230.01 164.636C229.585 164.516 229.132 164.536 228.745 164.596C228.353 164.656 227.991 164.765 227.73 164.856C227.718 164.861 227.706 164.865 227.695 164.869C227.637 164.778 227.569 164.671 227.493 164.551C227.236 164.143 226.89 163.583 226.533 162.973C226.175 162.362 225.809 161.706 225.512 161.104C225.209 160.493 224.995 159.974 224.917 159.627C224.905 159.573 224.913 159.562 224.933 159.538C224.975 159.487 225.08 159.407 225.301 159.319C225.742 159.142 226.414 159.018 227.241 158.883C227.357 158.865 227.474 158.846 227.594 158.827C228.309 158.713 229.094 158.587 229.836 158.409C230.7 158.202 231.561 157.912 232.229 157.445C233.577 156.505 234.021 155.094 233.962 153.918C233.934 153.334 233.78 152.785 233.532 152.361C233.332 152.021 233.029 151.697 232.627 151.579C232.643 151.457 232.687 151.279 232.777 151.048C233.011 150.443 233.498 149.631 234.221 148.873C235.659 147.367 237.967 146.134 241.023 147.077Z" fill="white" stroke="black"/>
<path opacity="0.6" d="M198.332 178.993L198.331 178.994L196.545 181.24C196.444 181.093 196.322 180.938 196.181 180.795C195.938 180.548 195.596 180.295 195.162 180.232C194.703 180.165 194.244 180.326 193.818 180.708C193.818 180.709 193.817 180.709 193.817 180.71L191.717 182.579L191.621 182.663L191.578 182.784L190.111 186.891L187.766 188.407L186.357 187.671L186.353 187.669L184.781 186.83L184.779 186.829L183.066 185.925L182.621 185.691L182.389 186.137L180.751 189.287L180.749 189.29L179.416 191.809L179.293 192.042L179.415 192.275C180.077 193.535 180.898 194.704 181.858 195.754L184.73 200.823L184.805 200.955L184.94 201.023L188.471 202.809L188.569 202.859L188.678 202.863C190.1 202.916 191.515 203.083 192.91 203.365L194.955 204.436L194.168 209.233C194.161 209.243 194.154 209.255 194.146 209.267C194.097 209.342 194.024 209.449 193.934 209.576C193.751 209.831 193.499 210.157 193.216 210.455C192.927 210.759 192.634 211.003 192.372 211.127C192.121 211.247 191.981 211.225 191.876 211.155L191.872 211.152L190.642 210.343L190.076 209.97L189.887 210.622L187.89 217.537L187.872 217.599L187.871 217.665L187.794 221.141C187.677 221.187 187.53 221.246 187.362 221.311C186.92 221.483 186.331 221.703 185.743 221.899C185.335 222.035 185.151 222.101 184.993 222.158C184.679 222.27 184.469 222.346 182.8 222.863C181.979 223.117 181.448 223.284 181.035 223.415C180.179 223.685 179.83 223.795 178.461 224.183L178.446 224.188L178.432 224.193C176.662 224.812 174.959 225.608 173.349 226.568L173.091 226.722L173.105 227.022L173.262 230.226L169.07 230.841L166.882 229.678L167.433 227.755L167.446 227.709L167.45 227.661L167.766 224.046L167.771 223.99L167.763 223.935L167.395 221.234L167.384 221.155L167.35 221.083L166.357 219.035L169.316 216.354L169.571 216.123L169.447 215.803L168.732 213.963L168.723 213.941L168.713 213.92L166.874 210.262L166.642 209.802L166.189 210.047L162.305 212.147L162.301 212.149L160.524 213.084L156.468 211.263L156.021 208.78L156.015 208.751L156.006 208.722L154.493 203.793L154.483 203.761L154.469 203.731L153.061 200.662L153.04 200.615L153.009 200.574L150.571 197.276L150.002 194.648L151.325 192.14L151.325 192.139L152.071 190.732L152.219 190.453L152.031 190.2L149.784 187.173L149.178 185.053L149.139 184.916L149.033 184.82L145.701 181.795C146.096 181.44 146.329 180.846 146.185 179.951C146.144 179.696 146.21 179.341 146.393 178.906C146.571 178.482 146.835 178.037 147.118 177.624C147.399 177.213 147.69 176.848 147.91 176.584C147.948 176.539 147.983 176.497 148.016 176.459C148.749 176.885 149.901 177.641 150.95 178.346C151.559 178.756 152.126 179.143 152.54 179.428C152.747 179.57 152.915 179.687 153.032 179.768L153.167 179.861L153.202 179.886L153.211 179.892L153.214 179.894L153.214 179.894L153.214 179.894L153.5 179.484L153.214 179.894L153.313 179.963L153.432 179.979L157.1 180.484L157.134 180.488H157.168L157.168 179.988C157.168 180.488 157.168 180.488 157.169 180.488H157.17L157.172 180.488L157.176 180.488L157.185 180.488C157.191 180.488 157.199 180.488 157.207 180.487C157.223 180.486 157.242 180.484 157.263 180.482C157.307 180.476 157.361 180.466 157.425 180.449C157.552 180.415 157.713 180.351 157.893 180.237C158.251 180.01 158.664 179.595 159.05 178.854C159.861 177.618 160.812 176.481 161.884 175.464L162.04 175.316V175.101H161.54L162.02 174.963L162.02 174.963L162.02 174.962L162.019 174.96L162.016 174.948L162.003 174.9C161.991 174.858 161.974 174.796 161.952 174.717C161.909 174.557 161.849 174.328 161.78 174.051C161.642 173.494 161.471 172.748 161.338 171.98C161.203 171.207 161.112 170.435 161.122 169.821C161.127 169.512 161.158 169.268 161.21 169.092C161.264 168.909 161.321 168.863 161.33 168.857C161.732 168.595 162.083 168.123 162.375 167.64C162.677 167.142 162.954 166.564 163.188 166.024C163.422 165.481 163.618 164.966 163.754 164.586C163.822 164.396 163.876 164.24 163.913 164.13C163.932 164.075 163.946 164.032 163.956 164.003L163.957 163.999L164.904 162.197L165.154 161.722L164.662 161.507L164.662 161.506L164.662 161.506L164.662 161.506L164.662 161.506L164.658 161.505L164.642 161.497C164.627 161.491 164.605 161.48 164.575 161.467C164.516 161.439 164.43 161.398 164.326 161.344C164.115 161.237 163.832 161.082 163.538 160.893C163.242 160.703 162.945 160.485 162.702 160.252C162.454 160.014 162.292 159.788 162.221 159.59C162.097 159.242 161.805 159.056 161.539 158.958C161.272 158.86 160.956 158.821 160.639 158.81C159.999 158.789 159.216 158.884 158.477 159.011C157.731 159.139 157.002 159.306 156.462 159.439C156.191 159.506 155.966 159.565 155.809 159.607C155.765 159.619 155.726 159.63 155.692 159.639C155.667 159.646 155.644 159.652 155.626 159.657L155.577 159.671L155.564 159.675L155.561 159.676L155.56 159.676L155.559 159.676C155.559 159.676 155.559 159.676 155.697 160.157L155.559 159.676L155.48 159.699L155.412 159.746L151.534 162.436L151.523 162.444L151.513 162.452L148.454 164.816L148.369 164.883L148.318 164.979L147.331 166.851C147.078 166.578 146.747 166.239 146.411 165.949C146.232 165.794 146.043 165.645 145.856 165.526C145.678 165.412 145.466 165.302 145.247 165.26C145.011 165.214 144.699 165.242 144.468 165.504C144.28 165.719 144.23 166.005 144.225 166.264C144.022 168.083 143.622 169.875 143.032 171.609L143.505 171.77L143.152 172.123L143.197 172.168C143.198 172.173 143.199 172.179 143.201 172.186C143.218 172.278 143.227 172.584 142.884 173.241C142.559 173.862 142.26 174.094 141.908 174.224C141.712 174.296 141.479 174.344 141.178 174.386C141.003 174.41 140.827 174.429 140.631 174.451C140.482 174.467 140.322 174.485 140.141 174.507C138.066 174.527 135.994 174.384 133.941 174.081L133.368 173.997V174.511C133.361 174.539 133.351 174.576 133.34 174.621C133.312 174.732 133.273 174.89 133.228 175.081C133.14 175.462 133.028 175.981 132.94 176.524C132.852 177.062 132.784 177.644 132.787 178.144C132.789 178.394 132.809 178.643 132.862 178.864C132.912 179.076 133.007 179.322 133.202 179.504L133.206 179.507L133.655 179.916C133.642 179.944 133.628 179.974 133.613 180.005C133.496 180.249 133.332 180.562 133.139 180.852C132.941 181.151 132.737 181.387 132.553 181.515C132.382 181.634 132.307 181.614 132.252 181.585L132.252 181.585L129.54 180.156L129.335 180.047L129.12 180.134L125.326 181.669L125.219 181.712L125.142 181.797L121.129 186.231L120.818 186.168C118.37 169.129 122.698 151.803 132.881 137.912C143.041 124.052 158.218 114.723 175.158 111.908C175.245 112.27 175.328 112.607 175.397 112.876C175.445 113.067 175.486 113.224 175.514 113.334L175.53 113.393L174.516 118.401L173.204 120.902L173.204 120.902L172.049 123.098L172.048 123.098L170.42 126.188L170.24 126.528L170.523 126.789L174.49 130.446L173.692 134.51L171.615 135.814L171.431 135.929L171.39 136.143L170.739 139.559L170.706 139.728L170.785 139.88L174.647 147.428L175.621 150.183C174.997 151.624 174.69 153.183 174.723 154.755L174.734 155.244H174.823C174.83 155.274 174.838 155.304 174.847 155.336C174.929 155.638 175.06 156.053 175.262 156.506C175.659 157.403 176.354 158.508 177.528 159.146C178.57 159.712 179.774 160.327 180.715 160.799C181.186 161.036 181.592 161.237 181.88 161.379C181.939 161.408 181.994 161.435 182.042 161.459L181.848 165.158L181.029 166.078L180.835 166.296L180.93 166.572L182.485 171.102L182.561 171.321L182.776 171.405C185.076 172.308 186.106 173.128 186.618 173.536L186.625 173.542L186.644 173.557C186.761 173.65 186.883 173.748 186.99 173.813C187.079 173.866 187.344 174.019 187.643 173.881C187.779 173.818 187.864 173.719 187.914 173.644C187.964 173.57 187.999 173.491 188.025 173.425C188.073 173.301 188.121 173.136 188.172 172.96L188.177 172.943L188.178 172.939L188.567 171.639L191.228 170.677L195.113 175.317L195.265 175.499L195.503 175.496C195.897 175.491 196.286 175.585 196.635 175.77C196.983 175.955 197.279 176.224 197.496 176.553L197.508 176.572L197.521 176.589C197.887 177.051 198.306 177.296 198.664 177.451C198.808 177.513 198.947 177.563 199.058 177.603C199.08 177.611 199.101 177.619 199.121 177.626C199.175 177.645 199.217 177.661 199.25 177.675C199.153 177.9 198.891 178.294 198.332 178.993ZM143.189 172.148C143.189 172.148 143.189 172.148 143.19 172.149L143.189 172.148Z" fill="white" stroke="black"/>
<path opacity="0.6" d="M142.521 215.917L142.522 215.933L142.523 215.948C142.543 216.213 142.476 216.527 142.331 216.872C142.189 217.213 141.984 217.555 141.767 217.864C141.552 218.172 141.331 218.437 141.164 218.626C141.081 218.72 141.012 218.795 140.964 218.845C140.94 218.87 140.922 218.889 140.91 218.901L140.897 218.914L140.894 218.917L140.894 218.917L140.894 218.917L140.893 218.918L140.893 218.918L140.407 219.398L141.013 219.716L142.323 220.402L142.749 224.19L141.951 225.714C134.015 218.565 127.946 209.582 124.274 199.546L125.023 195.577L128.378 195.102L128.49 195.086L128.585 195.023L128.585 195.023L128.585 195.023L128.585 195.023L128.586 195.022L128.592 195.018L128.618 195.002C128.641 194.987 128.676 194.964 128.721 194.936C128.811 194.879 128.942 194.798 129.104 194.702C129.43 194.509 129.877 194.26 130.366 194.029C130.857 193.797 131.376 193.592 131.847 193.479C132.335 193.363 132.693 193.364 132.915 193.453C133.159 193.551 133.452 193.803 133.769 194.203C134.076 194.593 134.366 195.071 134.619 195.546C134.871 196.019 135.079 196.476 135.224 196.815C135.297 196.984 135.353 197.124 135.391 197.22C135.411 197.268 135.425 197.306 135.435 197.331L135.436 197.334L135.44 197.352L135.473 197.506C135.501 197.639 135.542 197.829 135.59 198.056C135.686 198.511 135.813 199.116 135.935 199.718C136.058 200.321 136.176 200.917 136.254 201.355C136.293 201.575 136.321 201.748 136.335 201.858C136.343 201.918 136.343 201.941 136.343 201.939C136.343 201.937 136.343 201.927 136.345 201.913C136.346 201.902 136.349 201.866 136.363 201.819L136.364 201.818C136.372 201.792 136.419 201.64 136.585 201.543C136.648 201.506 136.71 201.487 136.768 201.479V201.974V202.065L136.547 202.385C136.578 202.407 136.627 202.434 136.688 202.453L137.928 203.107L138.268 204.626L136.393 208.19H133.395C133.354 208.179 133.306 208.169 133.252 208.164C133.088 208.148 132.873 208.178 132.669 208.328C132.292 208.607 132.107 209.177 132.075 210.07L132.074 210.101L132.077 210.132C132.138 210.813 132.345 211.472 132.683 212.066C133.021 212.659 133.483 213.173 134.038 213.572L134.227 213.709L134.454 213.651L138.111 212.716L138.397 212.643L138.471 212.357L139.37 208.878L141.952 208.372C141.931 208.546 141.914 208.741 141.907 208.942C141.894 209.28 141.908 209.666 141.994 210.011C142.078 210.345 142.256 210.742 142.651 210.95C142.652 210.95 142.652 210.95 142.652 210.951L143.287 211.288L143.69 213.504C143.37 213.75 143.102 214.059 142.903 214.414C142.646 214.873 142.514 215.391 142.521 215.917Z" fill="white" stroke="black"/>
<path opacity="0.6" d="M159.863 221.826C159.882 221.88 159.901 221.936 159.922 221.995C159.922 222.001 159.921 222.009 159.92 222.02C159.912 222.075 159.894 222.158 159.857 222.271C159.785 222.499 159.66 222.796 159.492 223.149C159.156 223.85 158.675 224.715 158.178 225.562C157.681 226.407 157.174 227.226 156.791 227.835C156.599 228.139 156.439 228.389 156.326 228.564C156.27 228.652 156.226 228.72 156.196 228.766L156.162 228.819L156.153 228.832L156.151 228.836L156.15 228.836L156.15 228.837L156.569 229.11L156.15 228.837L155.85 229.296L156.335 229.552L157.43 230.131C157.371 230.34 157.31 230.615 157.293 230.911C157.284 231.064 157.285 231.233 157.309 231.405L151.885 229.818L151.42 229.682L151.269 230.143L150.585 232.246C149.581 231.612 148.602 230.95 147.649 230.261L151.381 226.576L151.547 226.412L151.529 226.18L151.171 221.693L151.164 221.604L151.127 221.524L151.127 221.524L151.127 221.524L151.127 221.524C151.127 221.523 151.127 221.523 151.127 221.523L151.123 221.514C151.119 221.506 151.114 221.492 151.106 221.474C151.092 221.438 151.072 221.386 151.051 221.324C151.009 221.192 150.976 221.048 150.973 220.932C150.972 220.899 150.974 220.875 150.977 220.859C151.017 220.853 151.103 220.85 151.264 220.885C151.969 221.057 152.709 221.019 153.393 220.776C154.072 220.534 154.667 220.101 155.104 219.529C155.216 219.405 155.312 219.29 155.394 219.191L155.401 219.182C155.486 219.08 155.55 219.002 155.61 218.937C155.733 218.805 155.783 218.786 155.813 218.78C155.855 218.77 155.969 218.762 156.252 218.862C156.531 218.96 156.914 219.139 157.471 219.432C158.558 220.004 159.083 220.455 159.376 220.833C159.628 221.157 159.729 221.446 159.863 221.826ZM150.983 220.832C150.983 220.832 150.983 220.833 150.982 220.834C150.983 220.832 150.983 220.832 150.983 220.832Z" fill="white" stroke="black"/>
<path opacity="0.6" d="M203.474 198.879L203.592 198.997L203.756 199.021L203.756 199.021L203.757 199.021L203.757 199.021L203.758 199.022L203.766 199.023L203.799 199.028C203.828 199.033 203.873 199.04 203.929 199.051C204.042 199.071 204.202 199.103 204.39 199.147C204.769 199.236 205.24 199.37 205.65 199.554C206.085 199.749 206.345 199.955 206.438 200.13C206.474 200.199 206.485 200.262 206.467 200.342C206.447 200.433 206.383 200.577 206.202 200.776C205.431 201.627 204.28 202.076 203.269 202.307C202.77 202.421 202.323 202.479 202 202.507C201.839 202.521 201.71 202.528 201.623 202.532C201.58 202.534 201.546 202.534 201.525 202.535L201.501 202.535L201.497 202.535L201.496 202.535H201.496H201.496L201.496 202.535L201.194 202.535L201.053 202.804L200.205 204.426L198.618 202.498L197.707 200.675L198.377 199.388L198.377 199.388L198.381 199.381L199.337 197.469L201.429 196.814L203.474 198.879Z" fill="white" stroke="black"/>
<path opacity="0.6" d="M201.078 189.324L201.071 189.348L201.067 189.373L201.014 189.682L197.864 188.028L199.595 184.749L202.036 187.333C201.601 187.933 201.276 188.607 201.078 189.324Z" fill="white" stroke="black"/>
<path opacity="0.6" d="M195.345 237.442L195.374 237.484L195.411 237.52L198.017 240.032L198.066 240.079L198.125 240.111C198.719 240.434 199.301 240.778 199.87 241.143C192.848 242.656 185.625 243.013 178.485 242.197L179.131 239.835L179.187 239.63L179.083 239.457C179.083 239.456 179.082 239.454 179.081 239.452C179.077 239.442 179.072 239.427 179.069 239.412C179.066 239.398 179.066 239.389 179.066 239.386C179.066 239.386 179.066 239.386 179.066 239.386L179.066 239.386C179.067 239.385 179.126 239.299 179.418 239.234C179.71 239.169 180.183 239.137 180.927 239.203C182.461 239.339 183.812 239.486 184.779 239.599C185.263 239.655 185.651 239.703 185.917 239.736C186.05 239.753 186.153 239.766 186.222 239.775L186.301 239.786L186.321 239.788L186.326 239.789L186.327 239.789L186.327 239.789L186.327 239.789L186.673 239.836L186.836 239.527L189.144 235.148H193.018L194.207 235.769L195.345 237.442Z" fill="white" stroke="black"/>
<path d="M244.682 207.734C243.241 210.462 241.616 213.089 239.816 215.595C230.478 228.577 216.758 237.741 201.189 241.394C185.621 245.047 169.256 242.942 155.119 235.468C153.658 234.701 152.229 233.881 150.863 233.02C149.496 232.158 148.162 231.275 146.88 230.329C145.324 229.205 143.832 228.007 142.402 226.756C142.311 226.687 142.227 226.61 142.15 226.525V226.525C132.837 218.283 126.03 207.587 122.507 195.66C118.983 183.733 118.886 171.056 122.226 159.076C125.566 147.096 132.208 136.298 141.394 127.914C150.58 119.53 161.938 113.899 174.173 111.664C186.407 109.429 199.023 110.681 210.579 115.276C222.136 119.871 232.167 127.624 239.526 137.649C246.885 147.675 251.276 159.568 252.197 171.97C253.118 184.373 250.532 196.784 244.734 207.786L244.682 207.734Z" stroke="#263238" stroke-linecap="round" stroke-linejoin="round"/>
<path d="M429.595 438C423.962 442.687 381.734 469.673 319.812 464.87C316.48 436.683 303.774 320.889 318.225 302.728C318.225 302.728 353.285 286.008 385.581 293.028C417.877 300.048 430.446 306.775 432.748 312.597C434.492 317 432.095 401.5 429.595 438Z" fill="#263238"/>
<path d="M384.51 305.398C365.908 321.509 341.946 318.104 342.471 305.734C342.555 303.8 344.626 301.404 344.626 301.404L343.901 300.29L340.748 295.529C338.446 291.967 335.567 287.49 333.559 284.232C331.878 281.457 373.8 255.667 373.8 270.496C373.8 291.389 384.058 295.319 384.058 295.319C387.925 296.875 391.53 299.334 384.51 305.398Z" fill="white" stroke="#263238" stroke-linecap="round" stroke-linejoin="round"/>
<path d="M396.27 337.305C396.27 337.305 392.518 350.168 394.294 353.857" stroke="white" stroke-linecap="round" stroke-linejoin="round"/>
<path d="M391.886 299.954C391.886 312.366 354.861 324.525 344.015 312.072" stroke="white" stroke-linecap="round" stroke-linejoin="round"/>
<path d="M366.622 274.132C366.622 274.132 366.496 283.359 364.52 285.24C349.859 299.302 335.524 300.416 333.159 296.706C317.237 271.735 321 265.178 319.381 260.9C316.512 253.396 312.991 241.142 314.547 233.722C318.015 217.149 349.228 204.296 365.665 220.964C373.548 228.941 376.038 246.25 374.378 260.669" fill="white"/>
<path d="M366.622 274.132C366.622 274.132 366.496 283.359 364.52 285.24C349.859 299.302 335.524 300.416 333.159 296.706C317.237 271.735 321 265.178 319.381 260.9C316.512 253.396 312.991 241.142 314.547 233.722C318.015 217.149 349.228 204.296 365.665 220.964C373.548 228.941 376.038 246.25 374.378 260.669" stroke="#263238" stroke-linecap="round" stroke-linejoin="round"/>
<path d="M321.389 253.186C321.389 253.186 317.006 251.221 316.061 253.565" stroke="#263238" stroke-linecap="round" stroke-linejoin="round"/>
<path d="M332.014 253.333C332.014 253.333 341.126 249.518 345.225 254.153" stroke="#263238" stroke-linecap="round" stroke-linejoin="round"/>
<path d="M342.135 259.797C342.282 261.163 341.62 262.35 340.643 262.466C339.665 262.582 338.761 261.541 338.614 260.175C338.467 258.809 339.129 257.611 340.107 257.505C341.084 257.4 341.946 258.43 342.135 259.797Z" fill="#263238"/>
<path d="M324.268 260.207C324.426 261.573 323.753 262.771 322.776 262.876C321.798 262.981 320.894 261.962 320.747 260.596C320.6 259.23 321.262 258.031 322.24 257.926C323.217 257.821 324.1 258.841 324.268 260.207Z" fill="#263238"/>
<path d="M324.71 256.612C325.981 258.662 325.288 262.161 323.606 266.964C321.925 271.767 323.406 273.501 329.859 273.985" fill="white"/>
<path d="M324.71 256.612C325.981 258.662 325.288 262.161 323.606 266.964C321.925 271.767 323.406 273.501 329.859 273.985" stroke="#263238" stroke-linecap="round" stroke-linejoin="round"/>
<path d="M329.859 282.299C329.859 282.299 338.267 281.531 342.113 279.419" stroke="#263238" stroke-linecap="round" stroke-linejoin="round"/>
<path d="M383.123 234.647C383.123 228.405 376.964 215.594 366.16 214.154C359.949 207.659 351.1 205.273 340.359 207.743C315.536 213.439 307.979 237.947 306.897 242.004C306.792 242.382 306.739 242.593 306.739 242.593L313.381 240.911L310.522 246.492L314.001 248.793L313.202 249.676L317.238 253.565L315.977 246.46C316.755 241.878 322.03 235.467 322.03 235.467C320.105 237.963 318.905 240.941 318.562 244.075C320.664 238.62 333.276 233.565 333.276 233.565C329.187 236.886 326.97 243.381 326.97 243.381C330.858 238.589 339.97 235.488 345.803 233.838C347.768 238.578 350.89 243.528 355.346 246.271C359.55 248.856 359.402 254.195 359.402 254.195C363.925 257.339 367.258 261.915 368.861 267.185L373.948 274.142C373.948 274.142 383.123 262.887 383.123 234.647Z" fill="#263238"/>
<path d="M361.714 255.982C360.012 252.336 366.191 242.457 370.574 243.676C373.033 244.369 376.249 248.857 376.88 253.565C377.51 258.274 374.179 267.228 370.626 269.172C368.367 270.433 366.507 266.997 366.507 266.997" fill="white"/>
<path d="M361.714 255.982C360.012 252.336 366.191 242.457 370.574 243.676C373.033 244.369 376.249 248.857 376.88 253.565C377.51 258.274 374.179 267.228 370.626 269.172C368.367 270.433 366.507 266.997 366.507 266.997" stroke="#263238" stroke-linecap="round" stroke-linejoin="round"/>
<path d="M0.594727 472.802L187.577 376.771L577.595 475.71" fill="white"/>
<path d="M0.594727 472.802L187.577 376.771L577.595 475.71" stroke="#263238" stroke-linecap="round" stroke-linejoin="round"/>
<path d="M196.356 439.931L244.427 418.681L305.204 421.823L278.173 444.934L196.356 439.931Z" fill="white" stroke="#263238" stroke-linecap="round" stroke-linejoin="round"/>
<path d="M320.569 301.678C305.152 307.983 301.831 322.161 275.631 378.187C275.631 378.187 263.996 380.573 257.764 394.708C251.532 408.844 261.968 420.005 273.981 419.627C273.981 419.627 278.804 423.83 288.694 423.4C298.583 422.969 342.293 356.086 342.293 356.086L320.569 301.678Z" fill="#263238"/>
<path d="M280.223 381.477C287.117 387.614 291.079 396.621 288.977 406.605" stroke="white" stroke-linecap="round" stroke-linejoin="round"/>
<path d="M286.875 384.43C286.875 384.43 295.346 386.279 296.66 397.125" stroke="white" stroke-linecap="round" stroke-linejoin="round"/>
<path d="M311.657 352.692C307.654 342.817 306.271 332.076 307.642 321.51" stroke="white" stroke-linecap="round" stroke-linejoin="round"/>
<path d="M425.707 306.322C444.992 316.012 447.283 345.828 429.091 381.476C416.238 406.636 398.498 443.787 387.273 446.278C376.049 448.769 365.098 441.78 365.098 441.78C365.098 441.78 355.64 441.339 352.781 434.613C344.962 416.231 364.836 393.005 372.613 398.565C372.613 398.565 397.583 344.262 402.134 340.836" fill="#263238"/>
<path d="M350.994 423.441C348.44 410.756 368.409 395.791 372.612 398.565C372.612 398.565 387.441 399.395 389.659 409.653" stroke="white" stroke-linecap="round" stroke-linejoin="round"/>
<path d="M405.319 426.142C414 410.83 429.091 381.477 429.091 381.477" stroke="white" stroke-linecap="round" stroke-linejoin="round"/>
<path d="M372.612 398.566C372.612 398.566 383.006 392.344 390.773 398.23" stroke="white" stroke-linecap="round" stroke-linejoin="round"/>
<path d="M376.165 391.009C376.165 391.009 381.903 378.398 387.726 366.837C393.548 355.276 406.874 338.156 412.413 337.326" stroke="white" stroke-linecap="round" stroke-linejoin="round"/>
<path d="M218.419 346.826C218.504 346.99 218.599 347.167 218.705 347.358C219.348 348.526 220.373 350.185 221.908 352.166C224.978 356.129 230.084 361.378 238.242 366.576C244.661 370.665 251.562 373.678 257.913 376.451C259.624 377.198 261.294 377.928 262.905 378.656C270.545 382.111 276.769 385.518 279.794 390.582L279.796 390.585C282.419 394.907 281.453 400.646 278.591 405.319C275.724 410.001 271.091 413.392 266.658 413.179C265.483 413.121 264.335 412.807 263.294 412.259L263.292 412.258C245.521 402.985 231.681 387.646 223.334 376.614L223.334 376.614L223.332 376.611C220.132 372.454 217.184 368.11 214.503 363.602L218.419 346.826Z" fill="white" stroke="black"/>
<path d="M226.172 362.571C226.172 362.571 223.955 372.365 218.111 370.169C214.958 368.981 208.884 359.565 207.738 354.814L226.172 362.571Z" fill="white" stroke="#263238" stroke-linecap="round" stroke-linejoin="round"/>
<path d="M200.413 302.256L205.184 299.797C205.184 299.797 218.668 299.912 227.034 306.712C234.632 312.892 238.489 322.571 238.489 322.571C238.489 322.571 268.011 306.271 298.163 315.624L310.459 384.157L253.928 387.857L218.647 354.342L200.413 302.256Z" fill="white" stroke="#263238" stroke-linecap="round" stroke-linejoin="round"/>
<path d="M234.454 323.611L234.362 323.46C227.829 312.66 218.585 306.997 210.964 304.033C207.152 302.551 203.75 301.744 201.303 301.309C200.08 301.092 199.096 300.967 198.42 300.897C198.319 300.886 198.225 300.877 198.138 300.869L221.093 365.009C229.325 368.426 236.306 374.247 241.407 379.471C246.555 384.743 249.813 389.432 250.537 390.497L250.601 390.591L258.199 393.247L258.202 393.249L258.384 393.311C262.719 390.859 269.457 389.272 276.718 388.24C284.111 387.189 292.116 386.705 298.83 386.495M234.454 323.611L298.846 386.994M234.454 323.611L234.62 323.672M234.454 323.611L234.62 323.672M298.83 386.495L298.846 386.994M298.83 386.495C298.83 386.495 298.83 386.495 298.829 386.495L298.846 386.994M298.83 386.495C303.272 386.347 307.154 386.324 309.925 386.337C311.311 386.343 312.42 386.359 313.182 386.373C313.403 386.377 313.594 386.381 313.755 386.385M298.846 386.994C306.271 386.748 312.127 386.848 313.838 386.887L313.755 386.385M313.755 386.385C313.873 386.388 313.973 386.39 314.057 386.392C314.145 386.394 314.214 386.396 314.264 386.397L314.347 386.9L302.976 318.115M313.755 386.385L302.54 318.542M302.54 318.542C302.655 318.563 302.769 318.584 302.883 318.606L302.976 318.115M302.54 318.542L302.483 318.196L302.976 318.115M302.54 318.542C291.621 316.562 276.501 318.4 264.008 320.771C257.707 321.967 252.094 323.294 248.056 324.322C246.038 324.836 244.413 325.275 243.294 325.585C242.734 325.741 242.301 325.864 242.008 325.948C241.862 325.99 241.75 326.022 241.675 326.044L241.591 326.069L241.57 326.075L241.565 326.076L241.564 326.077C241.564 326.077 241.564 326.077 241.422 325.598M302.976 318.115C280.885 313.911 241.422 325.598 241.422 325.598M241.422 325.598L241.564 326.077M241.422 325.598L241.564 326.077M197.407 300.312L197.591 300.823L197.407 300.312ZM197.407 300.312C197.407 300.312 197.597 300.32 197.952 300.35L197.407 300.312ZM250.436 390.565L250.281 391.009L250.467 390.544L250.436 390.565ZM250.436 390.565L250.437 390.564L250.126 390.776L250.436 390.565ZM234.62 323.672L241.252 326.068L241.406 326.124M234.62 323.672L241.406 326.124M241.406 326.124L241.564 326.077M241.406 326.124L241.564 326.077" fill="#FFDC00" stroke="black"/>
<path d="M241.443 325.607L256.65 388.696" stroke="#263238" stroke-linecap="round" stroke-linejoin="round"/>
<path d="M250.281 391.02L235.504 327.973" stroke="#263238" stroke-linecap="round" stroke-linejoin="round"/>
<path d="M212.74 363.737C209.367 362.801 202.567 342.528 205.678 333.795C205.678 333.795 209.377 327.374 210.933 326.932C213.287 326.249 222.788 326.449 222.325 328.046C221.274 331.746 213.98 331.683 213.98 331.683L211.616 336.013L211.71 338.398C211.71 338.398 215.147 335.897 216.408 335.971C217.06 335.971 220.423 337.652 223.092 339.06C225.373 340.269 226.771 340.931 226.245 342.024C224.553 345.66 217.354 343.075 217.354 343.075L214.643 347.163C214.643 347.163 217.259 347.615 218.405 347.741C219.551 347.867 229.062 354.205 228.778 354.993C227.653 358.083 218.636 354.741 218.636 354.741L217.039 356.075C217.039 356.075 223.681 357.788 224.395 358.041C225.446 358.429 229.493 361.54 229.43 361.898C228.946 364.63 223.366 362.623 223.366 362.623L218.479 362.423C217.734 363.08 216.839 363.542 215.872 363.768" fill="white"/>
<path d="M212.74 363.737C209.367 362.801 202.567 342.528 205.678 333.795C205.678 333.795 209.377 327.374 210.933 326.932C213.287 326.249 222.788 326.449 222.325 328.046C221.274 331.746 213.98 331.683 213.98 331.683L211.616 336.013L211.71 338.398C211.71 338.398 215.147 335.897 216.408 335.971C217.06 335.971 220.423 337.652 223.092 339.06C225.373 340.269 226.771 340.931 226.245 342.024C224.553 345.66 217.354 343.075 217.354 343.075L214.643 347.163C214.643 347.163 217.259 347.615 218.405 347.741C219.551 347.867 229.062 354.205 228.778 354.993C227.653 358.083 218.636 354.741 218.636 354.741L217.039 356.075C217.039 356.075 223.681 357.788 224.395 358.041C225.446 358.429 229.493 361.54 229.43 361.898C228.946 364.63 223.366 362.623 223.366 362.623L218.479 362.423C217.734 363.08 216.839 363.542 215.872 363.768" stroke="#263238" stroke-linecap="round" stroke-linejoin="round"/>
<path d="M211.669 338.398C211.669 338.398 208.516 341.047 207.707 341.814C206.898 342.581 207.097 345.019 207.097 345.019" stroke="#263238" stroke-linecap="round" stroke-linejoin="round"/>
<path d="M209.388 350.4C209.388 353.07 211.175 354.688 211.995 355.55C212.815 356.412 210.681 358.756 213.046 360.437" stroke="#263238" stroke-linecap="round" stroke-linejoin="round"/>
<path d="M342.693 412.017L342.693 412.016C336.855 403.616 330.277 394.587 322.691 388.784L322.689 388.781C322.173 388.392 321.649 388.011 321.124 387.643L325.321 366.556C329.554 368.871 333.051 371.827 336.613 375.161C337.669 376.148 338.732 377.171 339.821 378.219C342.569 380.862 345.488 383.669 348.888 386.496C355.331 391.859 361.466 396.35 366.675 400.163C367.638 400.867 368.57 401.549 369.465 402.209C372.34 404.326 374.843 406.213 376.859 407.919C378.881 409.629 380.382 411.131 381.277 412.474C382.106 413.717 382.268 415.49 381.792 417.579C381.319 419.66 380.227 421.986 378.655 424.254C375.506 428.796 370.501 433.008 364.925 434.53C363.428 434.938 361.865 434.601 360.182 433.602C358.493 432.597 356.725 430.948 354.862 428.811C351.807 425.307 348.569 420.582 345.058 415.458C344.283 414.327 343.496 413.178 342.693 412.017Z" fill="white" stroke="black"/>
<mask id="path-125-inside-1_413_416" fill="white">
<path d="M327.42 386.994C326.964 387.81 326.212 388.419 325.319 388.696C325.081 388.79 324.839 388.87 324.593 388.938H324.394C317.342 390.777 301.472 386.952 301.472 386.952C301.472 386.952 291.078 382.012 290.448 380.846C290.009 379.921 289.619 378.974 289.281 378.008L288.998 377.178C288.998 377.178 285.256 375.076 284.794 373.437C284.331 371.797 283.543 371.335 285.845 371.04C288.146 370.746 300.558 371.04 300.558 371.04L287.053 365.533C287.053 365.533 278.11 361.025 277.279 359.438C276.449 357.851 275.409 356.8 279.98 357.43C284.552 358.061 294.536 360.962 294.536 360.962L302.408 362.633L294.589 359.301C294.589 359.301 279.203 357.441 282.114 352.659H290.847C295.795 352.878 300.716 353.503 305.561 354.53C308.104 355.308 324.919 365.754 324.919 365.754"/>
</mask>
<path d="M327.42 386.994C326.964 387.81 326.212 388.419 325.319 388.696C325.081 388.79 324.839 388.87 324.593 388.938H324.394C317.342 390.777 301.472 386.952 301.472 386.952C301.472 386.952 291.078 382.012 290.448 380.846C290.009 379.921 289.619 378.974 289.281 378.008L288.998 377.178C288.998 377.178 285.256 375.076 284.794 373.437C284.331 371.797 283.543 371.335 285.845 371.04C288.146 370.746 300.558 371.04 300.558 371.04L287.053 365.533C287.053 365.533 278.11 361.025 277.279 359.438C276.449 357.851 275.409 356.8 279.98 357.43C284.552 358.061 294.536 360.962 294.536 360.962L302.408 362.633L294.589 359.301C294.589 359.301 279.203 357.441 282.114 352.659H290.847C295.795 352.878 300.716 353.503 305.561 354.53C308.104 355.308 324.919 365.754 324.919 365.754" fill="white"/>
<path d="M325.319 388.696L325.022 387.741L324.987 387.752L324.953 387.765L325.319 388.696ZM324.593 388.938V389.938H324.729L324.86 389.902L324.593 388.938ZM324.394 388.938V387.938H324.265L324.141 387.971L324.394 388.938ZM301.472 386.952L301.043 387.855L301.137 387.9L301.238 387.924L301.472 386.952ZM290.448 380.846L289.545 381.275L289.556 381.299L289.568 381.321L290.448 380.846ZM289.281 378.008L288.335 378.332L288.337 378.338L289.281 378.008ZM288.998 377.178L289.944 376.855L289.82 376.493L289.487 376.306L288.998 377.178ZM300.558 371.04L300.534 372.04L300.936 370.114L300.558 371.04ZM287.053 365.533L286.603 366.426L286.639 366.444L286.676 366.459L287.053 365.533ZM294.536 360.962L294.257 361.922L294.292 361.932L294.328 361.94L294.536 360.962ZM302.408 362.633L302.2 363.611L302.8 361.713L302.408 362.633ZM294.589 359.301L294.981 358.381L294.85 358.325L294.709 358.308L294.589 359.301ZM282.114 352.659V351.659H281.552L281.26 352.139L282.114 352.659ZM290.847 352.659L290.891 351.66L290.869 351.659H290.847V352.659ZM305.561 354.53L305.853 353.574L305.811 353.561L305.768 353.552L305.561 354.53ZM326.548 386.506C326.216 387.098 325.67 387.54 325.022 387.741L325.615 389.652C326.753 389.298 327.712 388.522 328.293 387.482L326.548 386.506ZM324.953 387.765C324.748 387.846 324.539 387.916 324.327 387.974L324.86 389.902C325.139 389.825 325.414 389.733 325.684 389.627L324.953 387.765ZM324.593 387.938H324.394V389.938H324.593V387.938ZM324.141 387.971C322.522 388.393 320.325 388.503 317.878 388.405C315.447 388.307 312.841 388.006 310.437 387.646C308.035 387.286 305.85 386.869 304.264 386.542C303.472 386.378 302.831 386.237 302.388 386.137C302.167 386.087 301.996 386.048 301.88 386.021C301.822 386.007 301.778 385.997 301.749 385.99C301.735 385.986 301.724 385.984 301.717 385.982C301.713 385.981 301.71 385.981 301.709 385.98C301.708 385.98 301.707 385.98 301.707 385.98C301.707 385.98 301.707 385.98 301.707 385.98C301.707 385.98 301.707 385.98 301.472 386.952C301.238 387.924 301.238 387.924 301.238 387.924C301.239 387.924 301.239 387.924 301.239 387.924C301.24 387.924 301.241 387.925 301.242 387.925C301.244 387.925 301.247 387.926 301.251 387.927C301.259 387.929 301.271 387.932 301.287 387.936C301.318 387.943 301.365 387.954 301.425 387.968C301.545 387.996 301.721 388.037 301.948 388.088C302.401 388.19 303.054 388.334 303.86 388.5C305.47 388.833 307.693 389.257 310.14 389.624C312.585 389.99 315.269 390.301 317.797 390.403C320.309 390.504 322.74 390.403 324.646 389.906L324.141 387.971ZM301.472 386.952C301.902 386.049 301.902 386.049 301.902 386.049C301.901 386.049 301.901 386.049 301.901 386.049C301.901 386.048 301.901 386.048 301.9 386.048C301.899 386.047 301.897 386.046 301.895 386.045C301.89 386.043 301.882 386.04 301.873 386.035C301.853 386.026 301.825 386.012 301.787 385.994C301.711 385.958 301.6 385.905 301.458 385.836C301.174 385.7 300.768 385.503 300.278 385.264C299.297 384.784 297.985 384.134 296.655 383.448C295.322 382.76 293.983 382.043 292.945 381.431C292.423 381.123 291.995 380.852 291.685 380.63C291.529 380.519 291.419 380.43 291.347 380.365C291.257 380.284 291.284 380.289 291.328 380.37L289.568 381.321C289.691 381.548 289.872 381.728 290.005 381.848C290.154 381.983 290.331 382.121 290.52 382.256C290.9 382.528 291.386 382.834 291.928 383.153C293.016 383.795 294.394 384.532 295.738 385.225C297.085 385.92 298.411 386.577 299.399 387.06C299.893 387.302 300.304 387.5 300.591 387.638C300.734 387.708 300.847 387.762 300.924 387.798C300.963 387.817 300.992 387.831 301.012 387.84C301.022 387.845 301.03 387.849 301.035 387.851C301.038 387.853 301.04 387.853 301.041 387.854C301.042 387.854 301.042 387.855 301.043 387.855C301.043 387.855 301.043 387.855 301.043 387.855C301.043 387.855 301.043 387.855 301.472 386.952ZM291.351 380.417C290.927 379.525 290.551 378.61 290.225 377.678L288.337 378.338C288.687 379.338 289.09 380.318 289.545 381.275L291.351 380.417ZM290.228 377.685L289.944 376.855L288.051 377.501L288.335 378.332L290.228 377.685ZM288.998 377.178C289.487 376.306 289.487 376.306 289.488 376.306C289.488 376.306 289.488 376.306 289.488 376.306C289.488 376.306 289.488 376.306 289.488 376.306C289.487 376.306 289.487 376.306 289.487 376.306C289.485 376.305 289.483 376.304 289.48 376.302C289.475 376.299 289.466 376.294 289.453 376.287C289.429 376.273 289.391 376.251 289.343 376.222C289.246 376.165 289.105 376.081 288.934 375.975C288.591 375.761 288.131 375.462 287.661 375.116C287.188 374.768 286.725 374.388 286.363 374.016C285.978 373.621 285.802 373.329 285.756 373.165L283.831 373.708C284.016 374.364 284.481 374.95 284.929 375.41C285.398 375.892 285.957 376.346 286.477 376.728C287 377.113 287.505 377.441 287.878 377.673C288.064 377.789 288.22 377.882 288.329 377.947C288.384 377.979 288.427 378.004 288.458 378.021C288.473 378.03 288.485 378.037 288.493 378.042C288.497 378.044 288.501 378.046 288.503 378.047C288.504 378.048 288.505 378.048 288.506 378.049C288.506 378.049 288.507 378.049 288.507 378.049C288.507 378.05 288.507 378.05 288.507 378.05C288.508 378.05 288.508 378.05 288.998 377.178ZM285.756 373.165C285.627 372.705 285.469 372.314 285.377 372.065C285.327 371.93 285.3 371.848 285.286 371.791C285.271 371.732 285.285 371.756 285.278 371.826C285.27 371.918 285.231 372.034 285.15 372.133C285.081 372.216 285.024 372.234 285.059 372.219C285.152 372.176 285.403 372.105 285.971 372.032L285.718 370.048C285.136 370.123 284.622 370.22 284.23 370.398C284.022 370.493 283.793 370.635 283.608 370.859C283.41 371.098 283.312 371.372 283.287 371.643C283.246 372.087 283.415 372.526 283.501 372.759C283.615 373.067 283.73 373.348 283.831 373.708L285.756 373.165ZM285.971 372.032C287.035 371.896 290.621 371.893 294.054 371.93C295.745 371.948 297.366 371.976 298.564 371.999C299.162 372.01 299.655 372.021 299.999 372.028C300.17 372.032 300.304 372.035 300.395 372.037C300.441 372.038 300.476 372.039 300.499 372.039C300.511 372.04 300.52 372.04 300.526 372.04C300.529 372.04 300.531 372.04 300.532 372.04C300.533 372.04 300.533 372.04 300.534 372.04C300.534 372.04 300.534 372.04 300.534 372.04C300.534 372.04 300.534 372.04 300.558 371.04C300.582 370.041 300.582 370.041 300.582 370.041C300.581 370.041 300.581 370.041 300.581 370.041C300.581 370.041 300.58 370.041 300.579 370.041C300.578 370.041 300.576 370.041 300.573 370.04C300.566 370.04 300.557 370.04 300.546 370.04C300.522 370.039 300.487 370.038 300.441 370.037C300.349 370.035 300.214 370.032 300.042 370.029C299.697 370.021 299.203 370.011 298.602 369.999C297.401 369.976 295.774 369.949 294.075 369.93C290.727 369.894 286.956 369.89 285.718 370.048L285.971 372.032ZM300.936 370.114L287.431 364.607L286.676 366.459L300.18 371.966L300.936 370.114ZM287.053 365.533C287.503 364.64 287.503 364.64 287.503 364.64C287.503 364.64 287.503 364.64 287.503 364.64C287.503 364.64 287.503 364.64 287.502 364.64C287.501 364.639 287.5 364.639 287.498 364.638C287.494 364.635 287.487 364.632 287.479 364.628C287.463 364.62 287.438 364.607 287.406 364.591C287.341 364.558 287.246 364.51 287.124 364.447C286.88 364.322 286.531 364.141 286.108 363.919C285.262 363.474 284.128 362.867 282.971 362.211C281.809 361.553 280.64 360.855 279.717 360.231C279.254 359.919 278.87 359.635 278.585 359.393C278.443 359.272 278.336 359.171 278.26 359.089C278.18 359.002 278.16 358.964 278.165 358.974L276.393 359.901C276.594 360.284 276.956 360.634 277.29 360.918C277.653 361.226 278.104 361.555 278.597 361.888C279.584 362.556 280.806 363.283 281.985 363.951C283.167 364.62 284.32 365.239 285.178 365.689C285.607 365.915 285.962 366.099 286.211 366.226C286.335 366.29 286.433 366.34 286.499 366.374C286.533 366.391 286.558 366.404 286.576 366.413C286.585 366.417 286.591 366.42 286.596 366.423C286.598 366.424 286.6 366.425 286.601 366.425C286.602 366.426 286.602 366.426 286.603 366.426C286.603 366.426 286.603 366.426 286.603 366.426C286.603 366.426 286.603 366.426 287.053 365.533ZM278.165 358.974C277.908 358.483 277.751 358.241 277.617 357.95C277.56 357.825 277.55 357.776 277.55 357.776C277.552 357.784 277.572 357.916 277.483 358.08C277.44 358.158 277.387 358.215 277.34 358.253C277.318 358.271 277.299 358.282 277.287 358.29C277.28 358.293 277.275 358.296 277.272 358.297C277.269 358.299 277.267 358.299 277.267 358.299C277.267 358.299 277.269 358.299 277.272 358.298C277.275 358.297 277.28 358.295 277.287 358.293C277.3 358.289 277.32 358.285 277.347 358.28C277.4 358.269 277.476 358.259 277.578 358.253C278.005 358.225 278.715 358.265 279.844 358.421L280.117 356.44C278.96 356.28 278.085 356.216 277.448 356.257C277.129 356.278 276.812 356.328 276.528 356.441C276.234 356.558 275.92 356.766 275.725 357.125C275.533 357.48 275.534 357.838 275.577 358.102C275.619 358.358 275.713 358.595 275.799 358.783C275.951 359.115 276.235 359.599 276.393 359.901L278.165 358.974ZM279.844 358.421C282.062 358.727 285.646 359.594 288.719 360.4C290.246 360.8 291.632 361.181 292.635 361.462C293.137 361.602 293.543 361.717 293.823 361.797C293.964 361.837 294.072 361.869 294.146 361.89C294.183 361.9 294.211 361.909 294.229 361.914C294.239 361.917 294.246 361.919 294.25 361.92C294.253 361.921 294.254 361.921 294.255 361.922C294.256 361.922 294.256 361.922 294.257 361.922C294.257 361.922 294.257 361.922 294.257 361.922C294.257 361.922 294.257 361.922 294.536 360.962C294.815 360.001 294.815 360.001 294.815 360.001C294.815 360.001 294.815 360.001 294.814 360.001C294.814 360.001 294.814 360.001 294.813 360.001C294.812 360 294.81 360 294.807 359.999C294.802 359.998 294.795 359.996 294.785 359.993C294.766 359.987 294.737 359.979 294.7 359.968C294.625 359.947 294.515 359.915 294.373 359.874C294.089 359.793 293.68 359.677 293.174 359.536C292.163 359.253 290.766 358.869 289.226 358.465C286.164 357.663 282.47 356.764 280.117 356.44L279.844 358.421ZM294.328 361.94L302.2 363.611L302.615 361.655L294.744 359.984L294.328 361.94ZM302.8 361.713L294.981 358.381L294.197 360.221L302.016 363.553L302.8 361.713ZM294.589 359.301C294.709 358.308 294.709 358.308 294.709 358.308C294.709 358.308 294.709 358.308 294.709 358.308C294.708 358.308 294.708 358.308 294.707 358.308C294.706 358.308 294.703 358.308 294.7 358.307C294.694 358.307 294.683 358.305 294.67 358.304C294.643 358.3 294.602 358.295 294.547 358.288C294.439 358.273 294.28 358.252 294.077 358.222C293.671 358.163 293.092 358.074 292.406 357.951C291.029 357.706 289.24 357.332 287.551 356.817C285.832 356.292 284.342 355.657 283.469 354.941C283.039 354.589 282.843 354.285 282.777 354.048C282.722 353.85 282.723 353.582 282.968 353.179L281.26 352.139C280.777 352.932 280.622 353.768 280.851 354.587C281.069 355.367 281.597 355.993 282.201 356.488C283.394 357.466 285.205 358.192 286.968 358.73C288.762 359.277 290.637 359.668 292.054 359.92C292.765 360.047 293.366 360.14 293.79 360.202C294.002 360.232 294.17 360.255 294.286 360.271C294.344 360.278 294.388 360.284 294.419 360.288C294.435 360.29 294.447 360.291 294.455 360.292C294.459 360.293 294.462 360.293 294.465 360.293C294.466 360.294 294.467 360.294 294.467 360.294C294.468 360.294 294.468 360.294 294.468 360.294C294.468 360.294 294.469 360.294 294.589 359.301ZM282.114 353.659H290.847V351.659H282.114V353.659ZM290.803 353.658C295.696 353.874 300.562 354.493 305.353 355.508L305.768 353.552C300.869 352.514 295.894 351.881 290.891 351.66L290.803 353.658ZM305.268 355.486C305.49 355.554 305.956 355.762 306.667 356.126C307.353 356.477 308.206 356.942 309.168 357.483C311.09 358.565 313.422 359.939 315.68 361.291C317.937 362.643 320.115 363.972 321.729 364.962C322.536 365.457 323.202 365.868 323.666 366.154C323.898 366.298 324.08 366.41 324.203 366.487C324.265 366.525 324.312 366.554 324.344 366.574C324.36 366.584 324.372 366.591 324.38 366.596C324.384 366.599 324.387 366.6 324.389 366.602C324.39 366.602 324.39 366.603 324.391 366.603C324.391 366.603 324.391 366.603 324.391 366.603C324.391 366.603 324.392 366.604 324.919 365.754C325.447 364.905 325.447 364.905 325.447 364.905C325.447 364.904 325.446 364.904 325.446 364.904C325.446 364.904 325.445 364.903 325.444 364.903C325.442 364.901 325.439 364.899 325.434 364.897C325.426 364.892 325.414 364.884 325.398 364.874C325.366 364.854 325.319 364.825 325.256 364.787C325.132 364.71 324.95 364.597 324.717 364.453C324.252 364.165 323.584 363.754 322.775 363.257C321.157 362.265 318.972 360.933 316.708 359.576C314.444 358.22 312.095 356.836 310.149 355.74C309.177 355.193 308.298 354.714 307.578 354.345C306.883 353.989 306.267 353.7 305.853 353.574L305.268 355.486Z" fill="black" mask="url(#path-125-inside-1_413_416)"/>
<path d="M288.978 377.221L304.332 379.48" stroke="#263238" stroke-linecap="round" stroke-linejoin="round"/>
<path d="M135.916 424.24L174.402 435.8L244.816 419.731C244.816 419.731 201.811 407.519 201.412 407.824C201.013 408.129 135.916 424.24 135.916 424.24Z" fill="#FFDC00"/>
<path d="M135.916 424.24L174.402 435.8L244.816 419.731C244.816 419.731 201.811 407.519 201.412 407.824C201.013 408.129 135.916 424.24 135.916 424.24Z" stroke="#263238" stroke-linecap="round" stroke-linejoin="round"/>
<path d="M136.473 410.683C133.772 410.872 133.1 420.604 135.916 424.24L198.091 411.335L203.072 399.543L136.473 410.683Z" fill="#FFDC00"/>
<path d="M136.473 410.683C133.772 410.872 133.1 420.604 135.916 424.24L198.091 411.335L203.072 399.543L136.473 410.683Z" stroke="#263238" stroke-linecap="round" stroke-linejoin="round"/>
<path d="M241.8 410.547C241.8 410.547 240.875 415.665 241.474 418.818L174.328 434.014L138.932 423.589C138.932 423.589 135.254 417.084 138.459 412.028L203.135 401.046L241.8 410.547Z" fill="white" stroke="#263238" stroke-linecap="round" stroke-linejoin="round"/>
<path d="M136.473 410.683L203.072 399.543L244.427 410.021L174.875 423.883L136.473 410.683Z" fill="#FFDC00" stroke="#263238" stroke-linecap="round" stroke-linejoin="round"/>
<path d="M138.838 416.904L174.055 427.393L231.7 415.79" stroke="#263238" stroke-linecap="round" stroke-linejoin="round"/>
<path d="M241.285 416.862L179.3 430.083" stroke="#263238" stroke-linecap="round" stroke-linejoin="round"/>
<path d="M139.667 421.034C140.203 421.087 166.215 429.095 166.215 429.095" stroke="#263238" stroke-linecap="round" stroke-linejoin="round"/>
<path d="M236.22 414.434L241.149 413.636" stroke="#263238" stroke-linecap="round" stroke-linejoin="round"/>
<path d="M172.909 431.04L170.292 430.451" stroke="#263238" stroke-linecap="round" stroke-linejoin="round"/>
<path d="M138.459 412.027C139.837 413.615 140.635 415.624 140.721 417.725C140.807 419.825 140.176 421.893 138.932 423.588C137.781 421.898 137.126 419.919 137.042 417.875C136.959 415.832 137.45 413.806 138.459 412.027Z" fill="#263238"/>
<path d="M261.425 449.669L282.507 427.902L348.859 430.621L342.591 452.764L261.425 449.669Z" fill="#FFDC00" stroke="black"/>
</svg>
