<svg id="learning-bro" viewBox="0 0 579 470" fill="none" xmlns="http://www.w3.org/2000/svg" role="img" focusable="false">
<title>Two dimensional illustration of a guy reading a book sourounded by illustrations of stem symbols</title>
<path d="M40.7555 151.506C41.9956 156.424 41.3861 147.375 43.8138 136.319C46.2415 125.263 50.4138 129.74 50.4138 129.74" stroke="#263238" stroke-linecap="round" stroke-linejoin="round"/>
<path d="M39.9982 140.209L47.6176 137.088" stroke="#263238" stroke-linecap="round" stroke-linejoin="round"/>
<path d="M53.9133 133.335C53.9133 133.335 49.3626 142.794 56.2254 146.766" stroke="#263238" stroke-linecap="round" stroke-linejoin="round"/>
<path d="M60.3766 130.687C60.3766 130.687 67.9014 134.89 63.1932 143.908" stroke="#263238" stroke-linecap="round" stroke-linejoin="round"/>
<path d="M55.226 136.53L60.6174 140.461" stroke="#263238" stroke-linecap="round" stroke-linejoin="round"/>
<path d="M59.4508 134.796L55.2365 141.512" stroke="#263238" stroke-linecap="round" stroke-linejoin="round"/>
<path d="M83.662 235.45C84.6875 229.201 80.4531 223.304 74.2043 222.279C67.9554 221.253 62.0583 225.487 61.0328 231.736C60.0073 237.985 64.2416 243.882 70.4905 244.908C76.7394 245.933 82.6364 241.699 83.662 235.45Z" stroke="#263238" stroke-linecap="round" stroke-linejoin="round"/>
<path d="M90.4636 250.536C97.3436 249.125 101.777 242.403 100.366 235.523C98.955 228.643 92.2339 224.21 85.3539 225.621C78.4739 227.032 74.0405 233.753 75.4515 240.633C76.8625 247.513 83.5836 251.947 90.4636 250.536Z" stroke="#263238" stroke-linecap="round" stroke-linejoin="round"/>
<path d="M82.7928 228.856L77.517 230.738" stroke="#263238" stroke-linecap="round" stroke-linejoin="round"/>
<path d="M83.5292 231.033L75.9413 233.776" stroke="#263238" stroke-linecap="round" stroke-linejoin="round"/>
<path d="M83.8129 233.66L75.3422 236.918" stroke="#263238" stroke-linecap="round" stroke-linejoin="round"/>
<path d="M83.2137 237.243L75.4891 240.774" stroke="#263238" stroke-linecap="round" stroke-linejoin="round"/>
<path d="M81.8476 239.997L75.9833 242.435" stroke="#263238" stroke-linecap="round" stroke-linejoin="round"/>
<path d="M77.8852 216.119C77.5594 215.068 73.839 214.416 73.6813 217.17C73.5237 219.924 77.6014 217.632 78.7575 216.119C78.7575 216.119 76.6555 218.946 77.5383 219.503" stroke="#263238" stroke-linecap="round" stroke-linejoin="round"/>
<path d="M98.4837 219.545L95.1837 226.408C95.1837 226.408 96.8337 222.971 98.5993 223.255C100.775 223.644 99.3245 227.206 96.6971 225.893" stroke="#263238" stroke-linecap="round" stroke-linejoin="round"/>
<path d="M457.607 331.599L462.788 336.496" stroke="#263238" stroke-linecap="round" stroke-linejoin="round"/>
<path d="M462.787 330.316L458.447 336.801" stroke="#263238" stroke-linecap="round" stroke-linejoin="round"/>
<path d="M467.885 332.176L473.077 330.242" stroke="#263238" stroke-linecap="round" stroke-linejoin="round"/>
<path d="M475.567 324.841L478.72 327.626" stroke="#263238" stroke-linecap="round" stroke-linejoin="round"/>
<path d="M481.137 321.488L477.144 335.193" stroke="#263238" stroke-linecap="round" stroke-linejoin="round"/>
<path d="M239.281 254.616L253.227 245.021L271.693 246.313L272.849 269.729L259.291 279.418L242.56 278.199L239.281 254.616Z" stroke="#263238" stroke-linecap="round" stroke-linejoin="round"/>
<path d="M242.559 278.199L256.064 268.478L272.848 269.728" stroke="#263238" stroke-linecap="round" stroke-linejoin="round"/>
<path d="M256.064 268.478L253.226 245.021" stroke="#263238" stroke-linecap="round" stroke-linejoin="round"/>
<path d="M239.281 254.616L257.704 256.749L271.693 246.313" stroke="#263238" stroke-linecap="round" stroke-linejoin="round"/>
<path d="M257.704 256.749L259.291 279.418" stroke="#263238" stroke-linecap="round" stroke-linejoin="round"/>
<path d="M402.053 175.952L395.874 195.153L415.106 192.557L402.053 175.952Z" stroke="#263238" stroke-linecap="round" stroke-linejoin="round"/>
<path d="M402.053 175.952L405.489 193.745" stroke="#263238" stroke-linecap="round" stroke-linejoin="round"/>
<path d="M404.943 190.896L407.192 190.539L407.717 193.555" stroke="#263238" stroke-linecap="round" stroke-linejoin="round"/>
<path d="M159.849 351.661L169.454 356.38" stroke="#263238" stroke-linecap="round" stroke-linejoin="round"/>
<path d="M166.355 348.056L163.602 358.092" stroke="#263238" stroke-linecap="round" stroke-linejoin="round"/>
<path d="M167.689 343.159C167.846 342.996 168.04 342.872 168.254 342.797C168.468 342.722 168.697 342.699 168.922 342.728C169.147 342.758 169.361 342.84 169.549 342.968C169.736 343.095 169.891 343.265 170.001 343.464C170.968 344.977 169.076 348.151 169.076 348.151L172.933 346.679" stroke="#263238" stroke-linecap="round" stroke-linejoin="round"/>
<path d="M235.266 21.0723C244.441 26.2325 233.931 38.8439 233.931 46.2006C233.931 53.5573 244.441 52.5064 249.696 54.6083C251.798 54.6083 256.001 54.6083 255.886 59.9471" stroke="#263238" stroke-linecap="round" stroke-linejoin="round"/>
<path d="M225.041 27.7671C226.638 36.4585 236.601 33.3792 242.718 35.3655C253.227 38.7811 247.395 49.627 244.263 56.185C242.381 60.0945 240.511 65.5805 243.874 69.2904" stroke="#263238" stroke-linecap="round" stroke-linejoin="round"/>
<path d="M226.385 31.1401L237.326 22.0493" stroke="#263238" stroke-linecap="round" stroke-linejoin="round"/>
<path d="M230.673 33.8517L238.912 27.0205" stroke="#263238" stroke-linecap="round" stroke-linejoin="round"/>
<path d="M235.518 40.7672L242.476 35.3022" stroke="#263238" stroke-linecap="round" stroke-linejoin="round"/>
<path d="M234.078 48.9438L247.677 39.1699" stroke="#263238" stroke-linecap="round" stroke-linejoin="round"/>
<path d="M239.292 52.7586L248.771 45.8013" stroke="#263238" stroke-linecap="round" stroke-linejoin="round"/>
<path d="M243.326 67.5452L255.171 57.8975" stroke="#263238" stroke-linecap="round" stroke-linejoin="round"/>
<path d="M243.62 59.9579L251.345 54.5244" stroke="#263238" stroke-linecap="round" stroke-linejoin="round"/>
<path d="M88.9733 356.897C100.258 352.383 105.747 339.576 101.234 328.291C96.7202 317.006 83.9129 311.517 72.6279 316.03C61.343 320.544 55.8537 333.351 60.3674 344.636C64.8811 355.921 77.6884 361.411 88.9733 356.897Z" stroke="#263238" stroke-linecap="round" stroke-linejoin="round"/>
<path d="M86.3354 315.172C94.0073 306.165 100.534 301.068 103.046 302.729C106.871 305.24 100.008 322.392 87.7226 341.025C75.4369 359.659 62.3736 372.733 58.5481 370.21C56.0258 368.56 58.1487 360.552 63.4035 349.948" stroke="#263238" stroke-linecap="round" stroke-linejoin="round"/>
<path d="M59.2618 340.983C48.563 337.904 41.7318 334.31 42.1627 331.44C42.7828 326.9 61.2691 325.849 83.3497 329.16C105.43 332.47 122.792 338.745 122.13 343.264C121.657 346.417 112.671 347.856 99.9022 347.373" stroke="#263238" stroke-linecap="round" stroke-linejoin="round"/>
<path d="M62.0678 325.041C53.9965 310.475 49.9608 299.114 52.6933 297.338C56.2875 295.015 70.1812 310.086 83.728 330.968C97.2749 351.851 105.336 370.726 101.752 373.059C99.3768 374.594 92.493 368.519 84.1799 358.178" stroke="#263238" stroke-linecap="round" stroke-linejoin="round"/>
<path d="M106.145 312.25C105.753 312.847 105.193 313.315 104.535 313.594C103.877 313.874 103.152 313.952 102.45 313.819C101.748 313.686 101.101 313.348 100.591 312.848C100.081 312.348 99.73 311.708 99.5834 311.008C99.4368 310.309 99.5007 309.582 99.767 308.919C100.033 308.256 100.49 307.687 101.08 307.283C101.669 306.88 102.365 306.66 103.08 306.652C103.794 306.643 104.495 306.847 105.094 307.237C105.493 307.496 105.836 307.832 106.105 308.225C106.374 308.617 106.562 309.059 106.66 309.525C106.758 309.991 106.763 310.471 106.674 310.939C106.586 311.406 106.406 311.852 106.145 312.25Z" fill="#263238"/>
<path d="M94.1752 367.625C93.7833 368.222 93.2232 368.69 92.5656 368.969C91.908 369.249 91.1823 369.327 90.4803 369.194C89.7783 369.061 89.1313 368.723 88.6212 368.223C88.111 367.723 87.7605 367.083 87.6139 366.383C87.4673 365.684 87.5312 364.957 87.7975 364.294C88.0638 363.631 88.5206 363.062 89.1102 362.658C89.6998 362.255 90.3957 362.035 91.1101 362.027C91.8246 362.018 92.5254 362.222 93.1243 362.612C93.5231 362.871 93.8668 363.207 94.1356 363.6C94.4044 363.992 94.593 364.434 94.6906 364.9C94.7883 365.366 94.793 365.846 94.7046 366.314C94.6161 366.781 94.4362 367.227 94.1752 367.625Z" fill="#263238"/>
<path d="M74.8583 330.053C74.4664 330.651 73.9063 331.119 73.2487 331.398C72.5911 331.677 71.8655 331.755 71.1634 331.623C70.4614 331.49 69.8145 331.152 69.3043 330.652C68.7941 330.152 68.4436 329.511 68.297 328.812C68.1504 328.113 68.2143 327.386 68.4806 326.723C68.7469 326.06 69.2037 325.491 69.7933 325.087C70.3829 324.683 71.0788 324.464 71.7932 324.455C72.5077 324.447 73.2085 324.651 73.8074 325.04C74.6107 325.566 75.1725 326.39 75.3695 327.329C75.5665 328.269 75.3827 329.249 74.8583 330.053Z" fill="#263238"/>
<path d="M305.344 172.746H317.724L323.914 162.026L317.724 151.307H305.344L299.154 162.026L305.344 172.746Z" stroke="#263238" stroke-linecap="round" stroke-linejoin="round"/>
<path d="M303.547 196.276L297.356 185.557H284.976" stroke="#263238" stroke-linecap="round" stroke-linejoin="round"/>
<path d="M286.637 162.026H299.017L305.207 151.306L299.017 140.576H286.637L280.446 151.306L286.637 162.026Z" stroke="#263238" stroke-linecap="round" stroke-linejoin="round"/>
<path d="M305.344 151.306H317.724L323.914 140.576L317.724 129.856H305.344L299.154 140.576L305.344 151.306Z" stroke="#263238" stroke-linecap="round" stroke-linejoin="round"/>
<path d="M305.207 152.968C306.124 152.968 306.867 152.224 306.867 151.307C306.867 150.39 306.124 149.646 305.207 149.646C304.29 149.646 303.546 150.39 303.546 151.307C303.546 152.224 304.29 152.968 305.207 152.968Z" fill="#263238"/>
<path d="M279.354 130.455C280.271 130.455 281.015 129.711 281.015 128.794C281.015 127.877 280.271 127.134 279.354 127.134C278.437 127.134 277.694 127.877 277.694 128.794C277.694 129.711 278.437 130.455 279.354 130.455Z" fill="#263238"/>
<path d="M301.887 196.277C301.887 195.948 301.984 195.627 302.166 195.354C302.349 195.081 302.608 194.868 302.912 194.743C303.215 194.617 303.549 194.584 303.871 194.648C304.193 194.712 304.489 194.87 304.721 195.103C304.954 195.335 305.112 195.631 305.176 195.953C305.24 196.275 305.207 196.609 305.081 196.912C304.956 197.216 304.743 197.475 304.47 197.657C304.197 197.84 303.876 197.937 303.547 197.937C303.329 197.937 303.113 197.894 302.912 197.811C302.71 197.727 302.527 197.605 302.373 197.451C302.219 197.297 302.096 197.114 302.013 196.912C301.93 196.711 301.887 196.495 301.887 196.277Z" fill="#263238"/>
<path d="M284.976 187.218C285.893 187.218 286.637 186.475 286.637 185.558C286.637 184.641 285.893 183.897 284.976 183.897C284.059 183.897 283.316 184.641 283.316 185.558C283.316 186.475 284.059 187.218 284.976 187.218Z" fill="#263238"/>
<path d="M335.894 140.881C335.894 140.55 335.992 140.227 336.177 139.951C336.361 139.676 336.622 139.462 336.928 139.336C337.234 139.21 337.571 139.178 337.895 139.243C338.22 139.308 338.517 139.468 338.751 139.703C338.984 139.938 339.142 140.237 339.205 140.561C339.269 140.886 339.234 141.223 339.106 141.528C338.978 141.833 338.762 142.093 338.486 142.275C338.21 142.458 337.886 142.554 337.555 142.552C337.336 142.552 337.119 142.509 336.917 142.425C336.715 142.34 336.531 142.217 336.377 142.062C336.222 141.907 336.1 141.722 336.018 141.52C335.935 141.317 335.893 141.1 335.894 140.881Z" fill="#263238"/>
<path d="M297.23 187.218C298.147 187.218 298.89 186.475 298.89 185.558C298.89 184.641 298.147 183.897 297.23 183.897C296.313 183.897 295.569 184.641 295.569 185.558C295.569 186.475 296.313 187.218 297.23 187.218Z" fill="#263238"/>
<path d="M322.254 140.881C322.254 140.55 322.352 140.227 322.535 139.953C322.719 139.678 322.98 139.464 323.285 139.337C323.59 139.211 323.926 139.178 324.251 139.242C324.575 139.307 324.872 139.466 325.106 139.699C325.34 139.933 325.499 140.231 325.563 140.555C325.628 140.879 325.595 141.215 325.468 141.52C325.342 141.826 325.128 142.087 324.853 142.27C324.578 142.454 324.255 142.552 323.925 142.552C323.481 142.552 323.056 142.376 322.743 142.063C322.43 141.749 322.254 141.324 322.254 140.881Z" fill="#263238"/>
<path d="M303.546 172.757C303.544 172.425 303.641 172.101 303.824 171.824C304.006 171.548 304.267 171.332 304.573 171.204C304.879 171.077 305.216 171.043 305.541 171.107C305.866 171.171 306.165 171.33 306.399 171.565C306.633 171.799 306.793 172.098 306.857 172.423C306.921 172.748 306.887 173.085 306.759 173.391C306.631 173.696 306.416 173.957 306.139 174.14C305.863 174.323 305.538 174.419 305.207 174.417C304.767 174.414 304.347 174.239 304.036 173.928C303.725 173.617 303.549 173.196 303.546 172.757Z" fill="#263238"/>
<path d="M323.924 140.86H337.555" stroke="#263238" stroke-linecap="round" stroke-linejoin="round"/>
<path d="M305.207 172.757L297.23 185.557" stroke="#263238" stroke-linecap="round" stroke-linejoin="round"/>
<path d="M286.637 140.576L279.353 128.795" stroke="#263238" stroke-linecap="round" stroke-linejoin="round"/>
<path d="M48.2638 17.4263C49.6917 12.5997 52.6679 8.37703 56.7334 5.4095C60.7989 2.44197 65.7279 0.894436 70.76 1.0056C75.7921 1.11676 80.6479 2.88043 84.5783 6.0246C88.5088 9.16877 91.2957 13.5188 92.5091 18.4037" stroke="#263238" stroke-linecap="round" stroke-linejoin="round"/>
<path d="M67.6222 46.6849C62.0307 46.0449 56.87 43.3701 53.1236 39.1702C49.3771 34.9702 47.3069 29.5387 47.3073 23.9106" stroke="#263238" stroke-linecap="round" stroke-linejoin="round"/>
<path d="M93.171 23.9106C93.171 29.9879 90.7575 35.8165 86.4612 40.1148C82.1649 44.4131 76.3374 46.8292 70.2601 46.832" stroke="#263238" stroke-linecap="round" stroke-linejoin="round"/>
<path d="M94.4743 9.37625C101.642 8.46191 106.445 8.95587 107.191 11.0998C108.673 15.3667 93.3392 24.5626 72.9402 31.646C52.5411 38.7295 34.8115 40.9995 33.3191 36.7221C32.5309 34.4416 36.5455 30.7527 43.5659 26.7275" stroke="#263238" stroke-linecap="round" stroke-linejoin="round"/>
<path d="M297.23 74.5654L299.427 79.011L304.335 79.7256L300.783 83.1938L301.623 88.0807L297.23 85.7686L292.837 88.0807L293.678 83.1938L290.126 79.7256L295.034 79.011L297.23 74.5654Z" stroke="#263238" stroke-linecap="round" stroke-linejoin="round"/>
<path d="M142.067 62.722C142.064 66.6745 140.494 70.4645 137.7 73.2603C134.906 76.0562 131.117 77.6295 127.165 77.6351C126.681 77.6351 126.208 77.6141 125.746 77.572C122.869 77.2992 120.134 76.1966 117.873 74.3984C115.611 72.6001 113.921 70.1836 113.007 67.4426C112.093 64.7016 111.995 61.7542 112.725 58.9585C113.455 56.1629 114.981 53.6395 117.118 51.695C119.255 49.7505 121.911 48.4687 124.763 48.0055C127.615 47.5422 130.54 47.9174 133.183 49.0854C135.826 50.2534 138.072 52.164 139.649 54.5849C141.227 57.0057 142.067 59.8327 142.067 62.722V62.722Z" stroke="#263238" stroke-linecap="round" stroke-linejoin="round"/>
<path d="M139.681 65.4119C139.683 65.8697 139.549 66.3177 139.296 66.6993C139.043 67.0809 138.683 67.3789 138.261 67.5555C137.838 67.7321 137.373 67.7794 136.924 67.6914C136.475 67.6034 136.062 67.384 135.737 67.0611C135.413 66.7382 135.192 66.3262 135.102 65.8774C135.012 65.4286 135.057 64.9632 135.232 64.5401C135.406 64.117 135.703 63.7553 136.083 63.5008C136.463 63.2462 136.911 63.1104 137.369 63.1104C137.98 63.1103 138.566 63.3525 139 63.7838C139.433 64.2152 139.678 64.8006 139.681 65.4119V65.4119Z" stroke="#263238" stroke-linecap="round" stroke-linejoin="round"/>
<path d="M118.925 71.2757C118.926 71.8235 118.806 72.3647 118.573 72.8607C118.341 73.3566 118.002 73.7951 117.58 74.1448C115.62 72.5271 114.111 70.4312 113.198 68.0598C113.776 67.7047 114.442 67.519 115.121 67.5238C115.618 67.5168 116.112 67.6087 116.573 67.7942C117.034 67.9796 117.454 68.2549 117.808 68.604C118.162 68.9531 118.443 69.369 118.635 69.8277C118.827 70.2864 118.925 70.7786 118.925 71.2757Z" stroke="#263238" stroke-linecap="round" stroke-linejoin="round"/>
<path d="M137.369 73.6202C134.613 76.2304 130.96 77.6826 127.164 77.6769C126.681 77.6769 126.208 77.6559 125.745 77.6139C125.661 77.2095 125.618 76.7974 125.619 76.3842C125.62 74.9871 126.092 73.6311 126.96 72.5361C127.828 71.4411 129.04 70.6712 130.4 70.3513C131.76 70.0314 133.188 70.1801 134.453 70.7734C135.718 71.3668 136.746 72.3699 137.369 73.6202V73.6202Z" stroke="#263238" stroke-linecap="round" stroke-linejoin="round"/>
<path d="M123.55 56.8044C125.442 56.8044 126.976 55.2705 126.976 53.3783C126.976 51.4861 125.442 49.9521 123.55 49.9521C121.657 49.9521 120.123 51.4861 120.123 53.3783C120.123 55.2705 121.657 56.8044 123.55 56.8044Z" stroke="#263238" stroke-linecap="round" stroke-linejoin="round"/>
<path d="M126.723 63.1104C126.723 63.4243 126.63 63.7311 126.456 63.992C126.282 64.253 126.034 64.4564 125.744 64.5765C125.454 64.6966 125.135 64.7281 124.827 64.6668C124.519 64.6056 124.236 64.4545 124.014 64.2325C123.792 64.0106 123.641 63.7278 123.58 63.42C123.519 63.1121 123.55 62.7931 123.67 62.5031C123.79 62.2131 123.994 61.9653 124.255 61.7909C124.516 61.6165 124.823 61.5234 125.136 61.5234C125.345 61.5234 125.551 61.5645 125.744 61.6442C125.936 61.724 126.111 61.8409 126.259 61.9882C126.406 62.1356 126.523 62.3106 126.603 62.5031C126.682 62.6956 126.723 62.902 126.723 63.1104Z" stroke="#263238" stroke-linecap="round" stroke-linejoin="round"/>
<path d="M139.261 54.0196C138.844 54.1564 138.408 54.2238 137.969 54.2193C137.395 54.2193 136.827 54.1061 136.297 53.8863C135.767 53.6664 135.286 53.3442 134.881 52.9381C134.476 52.532 134.155 52.0499 133.936 51.5196C133.718 50.9892 133.606 50.4209 133.607 49.8473C133.597 49.6653 133.597 49.4828 133.607 49.3008C135.858 50.374 137.803 51.9968 139.261 54.0196V54.0196Z" stroke="#263238" stroke-linecap="round" stroke-linejoin="round"/>
<path d="M481.926 235.773L483.534 232.158L480.928 230.728C481.024 230.092 481.041 229.446 480.98 228.805L483.65 227.502L482.231 223.813L479.372 224.633C478.989 224.118 478.544 223.652 478.048 223.245L479.025 220.429L475.41 218.821L473.97 221.427C473.332 221.349 472.686 221.349 472.047 221.427L470.754 218.758L467.055 220.177L467.885 223.025C467.37 223.414 466.901 223.862 466.487 224.359L463.681 223.382L462.115 226.945L464.722 228.385C464.626 229.021 464.608 229.667 464.669 230.308L461.989 231.601L463.408 235.3L466.267 234.47C466.653 234.985 467.097 235.454 467.591 235.867L466.624 238.673L470.239 240.281L471.669 237.675C472.305 237.771 472.951 237.789 473.592 237.728L474.895 240.408L478.584 238.989L477.764 236.13C478.277 235.744 478.742 235.3 479.151 234.806L481.926 235.773ZM470.933 233.755C470.103 233.386 469.401 232.779 468.916 232.011C468.431 231.243 468.185 230.349 468.208 229.441C468.231 228.533 468.523 227.653 469.047 226.91C469.571 226.168 470.302 225.598 471.15 225.272C471.998 224.946 472.923 224.879 473.809 225.078C474.695 225.278 475.502 225.736 476.128 226.394C476.754 227.052 477.17 227.881 477.325 228.776C477.48 229.671 477.366 230.592 476.997 231.422C476.5 232.534 475.583 233.404 474.447 233.841C473.31 234.278 472.047 234.247 470.933 233.755V233.755Z" stroke="#263238" stroke-linecap="round" stroke-linejoin="round"/>
<path d="M462.713 254.322L464.899 249.414L461.368 247.459C461.494 246.596 461.515 245.721 461.431 244.853L465.068 243.087L463.165 238.074L459.287 239.199C458.769 238.496 458.165 237.86 457.49 237.307L458.814 233.481L453.864 231.264L451.92 234.795C451.057 234.671 450.182 234.646 449.314 234.721L447.548 231.096L442.525 233.029L443.649 236.897C442.951 237.425 442.316 238.031 441.757 238.705L437.942 237.422L435.756 242.33L439.288 244.285C439.162 245.148 439.141 246.023 439.225 246.892L435.588 248.657L437.522 253.67L441.4 252.556C441.921 253.256 442.525 253.892 443.197 254.448L441.873 258.263L446.791 260.449L448.736 256.907C449.598 257.036 450.473 257.061 451.342 256.981L453.108 260.607L458.131 258.683L457.007 254.805C457.705 254.281 458.339 253.678 458.898 253.008L462.713 254.322ZM447.79 251.579C446.662 251.076 445.708 250.25 445.05 249.205C444.391 248.16 444.057 246.944 444.09 245.709C444.124 244.474 444.522 243.277 445.236 242.269C445.95 241.261 446.946 240.488 448.1 240.046C449.253 239.605 450.512 239.516 451.716 239.79C452.92 240.064 454.016 240.689 454.865 241.586C455.714 242.483 456.278 243.612 456.485 244.829C456.692 246.047 456.534 247.299 456.029 248.426C455.696 249.175 455.218 249.85 454.624 250.414C454.029 250.977 453.329 251.418 452.563 251.711C451.798 252.004 450.983 252.143 450.163 252.12C449.344 252.098 448.538 251.914 447.79 251.579Z" stroke="#263238" stroke-linecap="round" stroke-linejoin="round"/>
<path d="M244.852 207.734C243.411 210.462 241.786 213.089 239.986 215.595C230.648 228.577 216.928 237.741 201.359 241.394C185.791 245.047 169.426 242.942 155.289 235.468C153.828 234.701 152.399 233.881 151.033 233.02C149.666 232.158 148.332 231.275 147.05 230.329C145.494 229.205 144.002 228.007 142.573 226.756C142.481 226.687 142.397 226.61 142.32 226.525C133.007 218.283 126.2 207.587 122.677 195.66C119.154 183.733 119.056 171.056 122.396 159.076C125.736 147.096 132.378 136.298 141.564 127.914C150.75 119.53 162.108 113.899 174.343 111.664C186.577 109.429 199.193 110.681 210.749 115.276C222.306 119.871 232.337 127.624 239.696 137.649C247.056 147.675 251.447 159.568 252.367 171.97C253.288 184.373 250.702 196.784 244.904 207.786L244.852 207.734Z" fill="#FFDC00"/>
<path opacity="0.6" d="M244.851 207.734C243.411 210.462 241.785 213.089 239.985 215.595L238.703 214.544L236.496 213.377L234.173 212.158L234.562 209.352L234.436 206.819C234.299 204.286 236.128 206.357 237.589 205.59C238.728 204.775 239.649 203.692 240.269 202.437C240.269 202.437 241.32 199.063 240.973 197.707C240.407 196.145 239.74 194.622 238.976 193.146L235.213 198.401L232.061 198.159L229.076 196.583L228.687 192.432L227.153 191.633L226.512 189.247L218.22 186.925L217.274 185.264C216.328 183.604 212.513 182.752 212.513 182.752L213.448 180.587L214.92 178.17C216.401 175.753 217.936 179.768 217.936 179.768L219.691 180.682L222.949 177.949L223.811 174.029L229.118 174.334C229.014 173.804 229.095 173.253 229.347 172.775C229.6 172.297 230.008 171.92 230.505 171.707C232.271 171.013 231.493 167.177 230.82 165.758C230.148 164.34 227.668 165.485 227.668 165.485C227.668 165.485 224.967 161.376 224.599 159.736C224.231 158.097 229.748 158.685 232.113 157.035C234.478 155.385 233.669 152.106 232.513 152.033C231.356 151.959 234.772 144.571 241.341 146.599C243.169 147.167 244.325 146.967 245.04 146.337C249.968 155.825 252.525 166.366 252.492 177.058C252.459 187.75 249.837 198.275 244.851 207.734Z" fill="white"/>
<path opacity="0.6" d="M198.893 179.305L196.644 182.132C196.644 182.132 195.687 179.852 194.321 181.081L192.219 182.952L190.695 187.219L187.963 188.985L186.292 188.112L184.715 187.271L183.002 186.368L181.363 189.521L180.028 192.043C180.679 193.281 181.488 194.429 182.435 195.458L185.335 200.577L188.867 202.363C190.339 202.418 191.805 202.594 193.249 202.889L195.677 204.16L194.815 209.415C194.815 209.415 192.986 212.389 191.767 211.57L190.538 210.76L188.541 217.676L188.457 221.48C188.457 221.48 187.269 221.974 186.071 222.373C184.873 222.773 185.63 222.563 183.118 223.34C180.606 224.118 180.806 224.086 178.767 224.664C177.029 225.273 175.356 226.055 173.775 226.998L173.954 230.655L169.151 231.359L166.46 229.93L167.122 227.618L167.438 224.002L167.07 221.301L165.914 218.916L169.151 215.984L168.436 214.144L166.597 210.487L162.708 212.589L160.712 213.64L156.192 211.612L155.698 208.869L154.185 203.94L152.777 200.871L150.276 197.487L149.645 194.576L151.053 191.906L151.799 190.498L149.498 187.398L148.867 185.191L144.989 181.67C144.989 181.67 146.114 181.596 145.862 180.03C145.609 178.464 148.079 175.827 148.079 175.827C149.477 176.562 153.67 179.484 153.67 179.484L157.338 179.988C157.338 179.988 158.074 179.988 158.788 178.601C159.623 177.325 160.604 176.151 161.71 175.101C161.71 175.101 160.018 169.227 161.226 168.438C162.435 167.65 163.665 163.804 163.665 163.804L164.632 161.964C164.632 161.964 162.351 160.966 161.92 159.757C161.489 158.549 155.867 160.157 155.867 160.157L151.989 162.847L148.93 165.212L147.606 167.724C147.606 167.724 144.905 164.476 144.895 166.294C144.689 168.158 144.28 169.994 143.676 171.77C143.676 171.77 144.233 172.064 143.497 173.472C142.761 174.881 141.962 174.807 140.344 175.007C138.234 175.028 136.126 174.884 134.038 174.576C134.038 174.576 132.987 178.464 133.712 179.137L134.427 179.789C134.427 179.789 133.303 182.616 132.189 182.027L129.477 180.598L125.683 182.132L121.479 186.778L120.544 186.588C117.968 169.307 122.317 151.708 132.648 137.617C142.978 123.525 158.453 114.082 175.709 111.34C175.95 112.391 176.213 113.379 176.213 113.379L175.162 118.57L173.817 121.135L172.661 123.331L171.032 126.421L175.204 130.268L174.311 134.818L172.051 136.237L171.4 139.653L175.278 147.23L176.329 150.204C175.68 151.628 175.36 153.18 175.393 154.744C175.393 154.744 175.866 157.582 177.937 158.706C180.007 159.831 182.729 161.155 182.729 161.155L182.508 165.359L181.573 166.41L183.128 170.94C187.868 172.8 187.416 174.355 187.868 172.8L188.331 171.255L191.557 170.088L195.666 174.996C196.144 174.99 196.617 175.104 197.039 175.328C197.461 175.552 197.821 175.879 198.084 176.278C199.282 177.792 201.152 176.478 198.893 179.305Z" fill="white"/>
<path opacity="0.6" d="M143.191 215.91C143.307 217.402 141.415 219.273 141.415 219.273L142.96 220.082L143.433 224.286L142.267 226.514C134 219.212 127.695 209.955 123.927 199.588L124.768 195.132L128.478 194.607C128.478 194.607 131.799 192.4 133.27 192.988C134.742 193.577 136.087 197.192 136.087 197.192C136.087 197.192 137.138 202.069 137.001 201.974H136.938H137.022L138.536 202.773L138.967 204.696L136.865 208.69H133.481C133.481 208.69 132.808 208.332 132.745 210.088C132.8 210.697 132.985 211.287 133.288 211.818C133.59 212.349 134.004 212.809 134.5 213.167L138.157 212.231L139.135 208.448L142.729 207.744C142.729 207.744 142.214 210.067 143.055 210.508L143.906 210.96L144.411 213.734C144.034 213.958 143.723 214.277 143.509 214.659C143.295 215.04 143.185 215.472 143.191 215.91Z" fill="white"/>
<path opacity="0.6" d="M160.575 221.859C160.249 220.955 160.112 220.167 157.874 218.989C155.635 217.812 155.772 218.233 154.889 219.21C154.509 219.713 153.99 220.093 153.396 220.304C152.802 220.515 152.159 220.548 151.547 220.398C150.076 220.072 150.843 221.732 150.843 221.732L151.2 226.22L147.049 230.319C148.331 231.265 149.659 232.161 151.032 233.009L151.915 230.298L158.809 232.316C157.348 231.885 158.21 229.888 158.21 229.888L156.739 229.11C156.739 229.11 160.901 222.741 160.575 221.859Z" fill="white"/>
<path opacity="0.6" d="M204 198.527L201.74 196.246L199.155 197.055L198.104 199.157L197.316 200.671L198.367 202.773L200.468 205.326L201.667 203.035C201.667 203.035 204.998 203.035 206.743 201.112C208.487 199.189 204 198.527 204 198.527Z" fill="white"/>
<path opacity="0.6" d="M197.358 188.238L201.561 190.445L201.73 189.457C201.948 188.666 202.336 187.931 202.865 187.303L199.649 183.897L197.358 188.238Z" fill="white"/>
<path opacity="0.6" d="M195.928 237.16L194.719 235.384L193.311 234.648H189.013L186.564 239.294C186.564 239.294 184.22 238.978 181.141 238.705C178.062 238.432 178.818 239.704 178.818 239.704L178.02 242.625C185.789 243.582 193.666 243.158 201.288 241.375C200.402 240.757 199.483 240.189 198.534 239.672L195.928 237.16Z" fill="white"/>
<path d="M244.852 207.734C243.411 210.462 241.786 213.089 239.986 215.595C230.648 228.577 216.928 237.741 201.359 241.394C185.791 245.047 169.426 242.942 155.289 235.468C153.828 234.701 152.399 233.881 151.033 233.02C149.666 232.158 148.332 231.275 147.05 230.329C145.494 229.205 144.002 228.007 142.573 226.756C142.481 226.687 142.397 226.61 142.32 226.525V226.525C133.007 218.283 126.2 207.587 122.677 195.66C119.154 183.733 119.056 171.056 122.396 159.076C125.736 147.096 132.378 136.298 141.564 127.914C150.75 119.53 162.108 113.899 174.343 111.664C186.577 109.429 199.193 110.681 210.749 115.276C222.306 119.871 232.337 127.624 239.696 137.649C247.056 147.675 251.447 159.568 252.367 171.97C253.288 184.373 250.702 196.784 244.904 207.786L244.852 207.734Z" stroke="#263238" stroke-linecap="round" stroke-linejoin="round"/>
<path d="M201.29 241.375C193.668 243.158 185.791 243.582 178.022 242.625L178.82 239.704C178.82 239.704 178.064 238.432 181.143 238.705C184.222 238.978 186.566 239.294 186.566 239.294L189.015 234.648H193.313L194.721 235.384L195.93 237.16L198.536 239.672C199.485 240.189 200.404 240.757 201.29 241.375Z" stroke="#263238" stroke-linecap="round" stroke-linejoin="round"/>
<path d="M245.082 146.347C244.367 146.977 243.211 147.177 241.383 146.61C234.814 144.581 231.409 151.959 232.555 152.043C233.7 152.127 234.509 155.448 232.155 157.046C229.801 158.643 224.273 158.097 224.641 159.747C225.009 161.397 227.71 165.495 227.71 165.495C227.71 165.495 230.127 164.36 230.81 165.769C231.493 167.177 232.271 171.023 230.505 171.717C230.008 171.93 229.6 172.307 229.347 172.786C229.095 173.264 229.014 173.814 229.118 174.344L223.811 174.04L222.949 177.96L219.691 180.692L217.936 179.778C217.936 179.778 216.401 175.763 214.92 178.18L213.448 180.598L212.513 182.762C212.513 182.762 216.328 183.614 217.274 185.274L218.22 186.935L226.512 189.257L227.153 191.643L228.687 192.442L229.076 196.593L232.166 198.212L235.319 198.453L239.081 193.198C239.845 194.674 240.512 196.198 241.078 197.76C241.446 199.115 240.374 202.489 240.374 202.489C239.754 203.745 238.833 204.828 237.694 205.642C236.191 206.409 234.352 204.339 234.541 206.871L234.667 209.404L234.278 212.21L236.601 213.429L238.808 214.596L240.09 215.647" stroke="#263238" stroke-linecap="round" stroke-linejoin="round"/>
<path d="M120.629 186.588L121.564 186.777L125.768 182.132L129.562 180.597L132.273 182.027C133.387 182.615 134.512 179.788 134.512 179.788L133.797 179.136C133.072 178.464 134.123 174.575 134.123 174.575C136.211 174.883 138.319 175.027 140.429 175.006C142.089 174.807 142.878 174.87 143.582 173.472C144.286 172.074 143.76 171.769 143.76 171.769C144.365 169.994 144.773 168.158 144.979 166.294C144.979 164.476 147.691 167.723 147.691 167.723L149.015 165.211L151.979 162.857L155.857 160.167C155.857 160.167 161.479 158.548 161.91 159.767C162.341 160.986 164.622 161.974 164.622 161.974L163.655 163.814C163.655 163.814 162.415 167.639 161.217 168.448C160.019 169.257 161.7 175.111 161.7 175.111C160.594 176.161 159.613 177.335 158.778 178.611C158.043 180.019 157.328 179.998 157.328 179.998L153.66 179.494C153.66 179.494 149.457 176.572 148.069 175.836C148.069 175.836 145.6 178.474 145.852 180.04C146.104 181.606 144.979 181.68 144.979 181.68L148.857 185.2L149.488 187.407L151.79 190.508L151.043 191.916L149.635 194.586L150.266 197.497L152.767 200.881L154.186 203.939L155.72 208.889L156.214 211.632L160.733 213.66L162.73 212.609L166.619 210.508L168.458 214.165L169.172 216.004L165.936 218.936L167.092 221.322L167.459 224.023L167.144 227.638L166.482 229.95L169.172 231.38L173.975 230.686L173.797 227.018C175.378 226.075 177.051 225.293 178.789 224.685C180.828 224.107 180.628 224.138 183.14 223.361C185.651 222.583 184.884 222.793 186.093 222.394C187.301 221.994 188.479 221.501 188.479 221.501L188.563 217.696L190.559 210.781L191.789 211.59C193.008 212.41 194.837 209.436 194.837 209.436L195.699 204.181L193.218 202.888C191.774 202.593 190.309 202.417 188.836 202.363L185.378 200.544L182.478 195.426C181.53 194.397 180.721 193.249 180.071 192.011L181.406 189.488L183.045 186.336L184.758 187.239L186.335 188.08L188.006 188.952L190.738 187.187L192.262 182.92L194.364 181.049C195.73 179.809 196.687 182.1 196.687 182.1L198.936 179.273C201.195 176.446 199.324 177.76 198.168 176.309C197.905 175.91 197.546 175.583 197.124 175.359C196.701 175.135 196.229 175.021 195.751 175.027L191.642 170.119L188.373 171.359L187.911 172.904C187.459 174.46 187.911 172.904 183.171 171.044L181.616 166.514L182.551 165.464L182.772 161.26C182.772 161.26 180.05 159.925 177.979 158.811C175.909 157.697 175.436 154.849 175.436 154.849C175.403 153.284 175.723 151.733 176.372 150.309L175.321 147.335L171.443 139.757L172.094 136.341L174.354 134.923L175.247 130.372L171.19 126.526L172.819 123.436L173.975 121.239L175.321 118.675L176.372 113.483C176.372 113.483 176.109 112.516 175.867 111.444" stroke="#263238" stroke-linecap="round" stroke-linejoin="round"/>
<path d="M142.625 226.746C142.544 226.652 142.452 226.567 142.352 226.494V226.494L143.518 224.265L143.046 220.062L141.501 219.252C141.501 219.252 143.392 217.382 143.277 215.889C143.256 215.444 143.356 215.002 143.565 214.608C143.773 214.214 144.084 213.884 144.464 213.651L143.96 210.876L143.109 210.424C142.268 209.983 142.783 207.66 142.783 207.66L139.189 208.365L138.211 212.148L134.554 213.083C134.058 212.726 133.644 212.266 133.341 211.735C133.039 211.203 132.854 210.613 132.799 210.004C132.862 208.249 133.534 208.606 133.534 208.606H136.918L139.02 204.613L138.589 202.689L137.076 201.891" stroke="#263238" stroke-linecap="round" stroke-linejoin="round"/>
<path d="M136.981 201.89C137.149 201.985 136.067 197.108 136.067 197.108C136.067 197.108 134.721 193.546 133.25 192.905C131.779 192.263 128.458 194.523 128.458 194.523L124.748 195.049L123.907 199.505" stroke="#263238" stroke-linecap="round" stroke-linejoin="round"/>
<path d="M151.915 230.298L151.032 233.009C149.631 232.154 148.303 231.258 147.049 230.319L151.2 226.22L150.843 221.732C150.843 221.732 150.076 220.072 151.547 220.398C152.159 220.548 152.802 220.515 153.396 220.304C153.99 220.093 154.509 219.713 154.889 219.21C155.751 218.233 155.646 217.812 157.874 218.989C160.102 220.167 160.249 220.955 160.575 221.859C160.901 222.762 156.739 229.142 156.739 229.142L158.21 229.919C158.21 229.919 157.348 231.916 158.809 232.347L151.915 230.298Z" stroke="#263238" stroke-linecap="round" stroke-linejoin="round"/>
<path d="M199.156 197.055L201.741 196.246L204.001 198.527C204.001 198.527 208.467 199.105 206.723 201.049C204.978 202.993 201.647 202.972 201.647 202.972L200.427 205.263L198.325 202.709L197.275 200.608L198.063 199.094L199.156 197.055Z" stroke="#263238" stroke-linecap="round" stroke-linejoin="round"/>
<path d="M202.866 187.303C202.337 187.931 201.949 188.666 201.731 189.457L201.562 190.445L197.359 188.238L199.65 183.897L202.866 187.303Z" stroke="#263238" stroke-linecap="round" stroke-linejoin="round"/>
<path d="M429.765 438C424.132 442.687 381.904 469.673 319.982 464.87C316.651 436.683 303.944 320.889 318.395 302.728C318.395 302.728 353.455 286.008 385.751 293.028C418.047 300.048 430.616 306.775 432.918 312.597C434.662 317 432.265 401.5 429.765 438Z" fill="#263238"/>
<path d="M384.68 305.398C366.078 321.509 342.116 318.104 342.641 305.734C342.726 303.8 344.796 301.404 344.796 301.404L344.071 300.29L340.918 295.529C338.616 291.967 335.737 287.49 333.729 284.232C332.048 281.457 373.97 255.667 373.97 270.496C373.97 291.389 384.228 295.319 384.228 295.319C388.095 296.875 391.7 299.334 384.68 305.398Z" fill="white" stroke="#263238" stroke-linecap="round" stroke-linejoin="round"/>
<path d="M396.44 337.305C396.44 337.305 392.688 350.168 394.464 353.857" stroke="white" stroke-linecap="round" stroke-linejoin="round"/>
<path d="M392.056 299.954C392.056 312.366 355.031 324.525 344.185 312.072" stroke="white" stroke-linecap="round" stroke-linejoin="round"/>
<path d="M366.792 274.132C366.792 274.132 366.666 283.359 364.69 285.24C350.029 299.302 335.694 300.416 333.329 296.706C317.407 271.735 321.17 265.178 319.551 260.9C316.682 253.396 313.161 241.142 314.717 233.722C318.185 217.149 349.398 204.296 365.835 220.964C373.718 228.941 376.208 246.25 374.548 260.669" fill="white"/>
<path d="M366.792 274.132C366.792 274.132 366.666 283.359 364.69 285.24C350.029 299.302 335.694 300.416 333.329 296.706C317.407 271.735 321.17 265.178 319.551 260.9C316.682 253.396 313.161 241.142 314.717 233.722C318.185 217.149 349.398 204.296 365.835 220.964C373.718 228.941 376.208 246.25 374.548 260.669" stroke="#263238" stroke-linecap="round" stroke-linejoin="round"/>
<path d="M321.559 253.186C321.559 253.186 317.176 251.221 316.231 253.565" stroke="#263238" stroke-linecap="round" stroke-linejoin="round"/>
<path d="M332.184 253.333C332.184 253.333 341.296 249.518 345.395 254.153" stroke="#263238" stroke-linecap="round" stroke-linejoin="round"/>
<path d="M342.305 259.797C342.452 261.163 341.79 262.35 340.813 262.466C339.835 262.582 338.931 261.541 338.784 260.175C338.637 258.809 339.299 257.611 340.277 257.505C341.254 257.4 342.116 258.43 342.305 259.797Z" fill="#263238"/>
<path d="M324.438 260.207C324.596 261.573 323.923 262.771 322.946 262.876C321.968 262.981 321.064 261.962 320.917 260.596C320.77 259.23 321.432 258.031 322.41 257.926C323.387 257.821 324.27 258.841 324.438 260.207Z" fill="#263238"/>
<path d="M324.88 256.612C326.151 258.662 325.458 262.161 323.776 266.964C322.095 271.767 323.576 273.501 330.029 273.985" fill="white"/>
<path d="M324.88 256.612C326.151 258.662 325.458 262.161 323.776 266.964C322.095 271.767 323.576 273.501 330.029 273.985" stroke="#263238" stroke-linecap="round" stroke-linejoin="round"/>
<path d="M330.029 282.299C330.029 282.299 338.437 281.531 342.283 279.419" stroke="#263238" stroke-linecap="round" stroke-linejoin="round"/>
<path d="M383.293 234.647C383.293 228.405 377.134 215.594 366.33 214.154C360.119 207.659 351.27 205.273 340.529 207.743C315.706 213.439 308.149 237.947 307.067 242.004C306.962 242.382 306.909 242.593 306.909 242.593L313.551 240.911L310.693 246.492L314.171 248.793L313.372 249.676L317.408 253.565L316.147 246.46C316.925 241.878 322.2 235.467 322.2 235.467C320.275 237.963 319.075 240.941 318.732 244.075C320.834 238.62 333.446 233.565 333.446 233.565C329.357 236.886 327.14 243.381 327.14 243.381C331.029 238.589 340.14 235.488 345.973 233.838C347.938 238.578 351.06 243.528 355.516 246.271C359.72 248.856 359.572 254.195 359.572 254.195C364.096 257.339 367.428 261.915 369.031 267.185L374.118 274.142C374.118 274.142 383.293 262.887 383.293 234.647Z" fill="#263238"/>
<path d="M361.884 255.982C360.182 252.336 366.361 242.457 370.744 243.676C373.203 244.369 376.419 248.857 377.05 253.565C377.68 258.274 374.349 267.228 370.796 269.172C368.537 270.433 366.677 266.997 366.677 266.997" fill="white"/>
<path d="M361.884 255.982C360.182 252.336 366.361 242.457 370.744 243.676C373.203 244.369 376.419 248.857 377.05 253.565C377.68 258.274 374.349 267.228 370.796 269.172C368.537 270.433 366.677 266.997 366.677 266.997" stroke="#263238" stroke-linecap="round" stroke-linejoin="round"/>
<path d="M0.764771 472.802L187.747 376.771L577.765 475.71" fill="white"/>
<path d="M0.764771 472.802L187.747 376.771L577.765 475.71" stroke="#263238" stroke-linecap="round" stroke-linejoin="round"/>
<path d="M196.526 439.931L244.597 418.681L305.374 421.823L278.343 444.934L196.526 439.931Z" fill="white" stroke="#263238" stroke-linecap="round" stroke-linejoin="round"/>
<path d="M320.739 301.678C305.322 307.983 302.001 322.161 275.801 378.187C275.801 378.187 264.166 380.573 257.934 394.708C251.702 408.844 262.138 420.005 274.151 419.627C274.151 419.627 278.974 423.83 288.864 423.4C298.753 422.969 342.463 356.086 342.463 356.086L320.739 301.678Z" fill="#263238"/>
<path d="M280.393 381.477C287.287 387.614 291.249 396.621 289.147 406.605" stroke="white" stroke-linecap="round" stroke-linejoin="round"/>
<path d="M287.046 384.43C287.046 384.43 295.516 386.279 296.83 397.125" stroke="white" stroke-linecap="round" stroke-linejoin="round"/>
<path d="M311.827 352.692C307.824 342.817 306.441 332.076 307.812 321.51" stroke="white" stroke-linecap="round" stroke-linejoin="round"/>
<path d="M310.629 338.398C309.988 342.812 314.549 366.312 314.517 391.02" stroke="white" stroke-linecap="round" stroke-linejoin="round"/>
<path d="M425.877 306.322C445.162 316.012 447.453 345.828 429.261 381.476C416.408 406.636 398.668 443.787 387.444 446.278C376.219 448.769 365.268 441.78 365.268 441.78C365.268 441.78 355.81 441.339 352.951 434.613C345.132 416.231 365.006 393.005 372.783 398.565C372.783 398.565 397.753 344.262 402.304 340.836" fill="#263238"/>
<path d="M351.164 423.441C348.61 410.756 368.579 395.791 372.782 398.565C372.782 398.565 387.611 399.395 389.829 409.653" stroke="white" stroke-linecap="round" stroke-linejoin="round"/>
<path d="M405.489 426.142C414.17 410.83 429.262 381.477 429.262 381.477" stroke="white" stroke-linecap="round" stroke-linejoin="round"/>
<path d="M372.782 398.566C372.782 398.566 383.176 392.344 390.943 398.23" stroke="white" stroke-linecap="round" stroke-linejoin="round"/>
<path d="M376.335 391.009C376.335 391.009 382.073 378.398 387.896 366.837C393.718 355.276 407.044 338.156 412.583 337.326" stroke="white" stroke-linecap="round" stroke-linejoin="round"/>
<path d="M266.804 413.678C265.556 413.617 264.336 413.284 263.231 412.701C245.365 403.379 231.471 387.972 223.105 376.916C219.853 372.69 216.859 368.272 214.141 363.684L218.429 345.313C218.429 345.313 222.464 355.823 238.681 366.154C254.897 376.485 274.161 379.89 280.393 390.326C285.911 399.417 276.189 414.13 266.804 413.678Z" fill="white"/>
<path opacity="0.4" d="M266.804 413.678C266.605 412.349 266.252 411.048 265.753 409.8C262.001 400.405 239.301 381.729 239.301 381.729C233.899 381.561 227.961 379.312 223.126 376.916C219.867 372.691 216.866 368.272 214.141 363.684L218.429 345.313C218.429 345.313 222.464 355.823 238.681 366.154C254.897 376.485 274.161 379.89 280.393 390.326C285.911 399.417 276.189 414.13 266.804 413.678Z" fill="#FFDC00"/>
<path d="M266.804 413.678C265.556 413.617 264.336 413.284 263.231 412.701C245.365 403.379 231.471 387.972 223.105 376.916C219.853 372.69 216.859 368.272 214.141 363.684L218.429 345.313C218.429 345.313 222.464 355.823 238.681 366.154C254.897 376.485 274.161 379.89 280.393 390.326C285.911 399.417 276.189 414.13 266.804 413.678Z" stroke="#263238" stroke-linecap="round" stroke-linejoin="round"/>
<path d="M226.342 362.571C226.342 362.571 224.125 372.365 218.281 370.169C215.128 368.981 209.054 359.565 207.908 354.814L226.342 362.571Z" fill="white" stroke="#263238" stroke-linecap="round" stroke-linejoin="round"/>
<path d="M200.583 302.256L205.354 299.797C205.354 299.797 218.838 299.912 227.204 306.712C234.802 312.892 238.659 322.571 238.659 322.571C238.659 322.571 268.181 306.271 298.333 315.624L310.629 384.157L254.098 387.857L218.817 354.342L200.583 302.256Z" fill="white" stroke="#263238" stroke-linecap="round" stroke-linejoin="round"/>
<path d="M314.517 386.9C314.517 386.9 307.886 386.7 299.016 386.994C285.606 387.415 267.077 388.928 258.607 393.857L258.207 393.721L250.451 391.009L250.293 390.778C248.864 388.676 237.335 372.123 220.867 365.387L197.578 300.312C197.578 300.312 221.75 301.362 234.96 323.201L241.592 325.598C241.592 325.598 281.055 313.911 303.146 318.115L314.517 386.9Z" fill="#FFDC00"/>
<path opacity="0.3" d="M250.294 390.788C248.864 388.686 237.335 372.133 220.867 365.397L197.578 300.321C197.578 300.321 221.75 301.372 234.96 323.211L250.294 390.788Z" fill="black" fill-opacity="0.7"/>
<path opacity="0.3" d="M299.015 386.994C285.605 387.415 267.077 388.928 258.606 393.857L258.207 393.72L242.715 327.951C242.715 327.951 255.39 325.103 259.289 326.543C259.279 326.564 285.048 345.576 299.015 386.994Z" fill="black" fill-opacity="0.7"/>
<path d="M314.517 386.9C314.517 386.9 307.886 386.7 299.016 386.994C285.606 387.415 267.077 388.928 258.607 393.857L258.207 393.721L250.451 391.009L250.293 390.778C248.864 388.676 237.335 372.123 220.867 365.387L197.578 300.312C197.578 300.312 221.75 301.362 234.96 323.201L241.592 325.598C241.592 325.598 281.055 313.911 303.146 318.115L314.517 386.9Z" stroke="#263238" stroke-linecap="round" stroke-linejoin="round"/>
<path d="M241.613 325.607L256.82 388.696" stroke="#263238" stroke-linecap="round" stroke-linejoin="round"/>
<path d="M250.451 391.02L235.674 327.973" stroke="#263238" stroke-linecap="round" stroke-linejoin="round"/>
<path d="M212.91 363.737C209.537 362.801 202.737 342.528 205.848 333.795C205.848 333.795 209.547 327.374 211.103 326.932C213.457 326.249 222.958 326.449 222.495 328.046C221.444 331.746 214.151 331.683 214.151 331.683L211.786 336.013L211.88 338.398C211.88 338.398 215.317 335.897 216.578 335.971C217.23 335.971 220.593 337.652 223.262 339.06C225.543 340.269 226.941 340.931 226.415 342.024C224.723 345.66 217.524 343.075 217.524 343.075L214.813 347.163C214.813 347.163 217.43 347.615 218.575 347.741C219.721 347.867 229.232 354.205 228.948 354.993C227.823 358.083 218.806 354.741 218.806 354.741L217.209 356.075C217.209 356.075 223.851 357.788 224.566 358.041C225.616 358.429 229.663 361.54 229.6 361.898C229.116 364.63 223.536 362.623 223.536 362.623L218.649 362.423C217.904 363.08 217.009 363.542 216.042 363.768" fill="white"/>
<path d="M212.91 363.737C209.537 362.801 202.737 342.528 205.848 333.795C205.848 333.795 209.547 327.374 211.103 326.932C213.457 326.249 222.958 326.449 222.495 328.046C221.444 331.746 214.151 331.683 214.151 331.683L211.786 336.013L211.88 338.398C211.88 338.398 215.317 335.897 216.578 335.971C217.23 335.971 220.593 337.652 223.262 339.06C225.543 340.269 226.941 340.931 226.415 342.024C224.723 345.66 217.524 343.075 217.524 343.075L214.813 347.163C214.813 347.163 217.43 347.615 218.575 347.741C219.721 347.867 229.232 354.205 228.948 354.993C227.823 358.083 218.806 354.741 218.806 354.741L217.209 356.075C217.209 356.075 223.851 357.788 224.566 358.041C225.616 358.429 229.663 361.54 229.6 361.898C229.116 364.63 223.536 362.623 223.536 362.623L218.649 362.423C217.904 363.08 217.009 363.542 216.042 363.768" stroke="#263238" stroke-linecap="round" stroke-linejoin="round"/>
<path d="M211.839 338.398C211.839 338.398 208.686 341.047 207.877 341.814C207.068 342.581 207.267 345.019 207.267 345.019" stroke="#263238" stroke-linecap="round" stroke-linejoin="round"/>
<path d="M209.558 350.4C209.558 353.07 211.345 354.688 212.165 355.55C212.985 356.412 210.851 358.756 213.216 360.437" stroke="#263238" stroke-linecap="round" stroke-linejoin="round"/>
<path d="M365.226 435.013C358.553 436.831 351.301 425.102 342.452 412.302C336.609 403.894 330.072 394.929 322.558 389.181C321.958 388.729 321.349 388.287 320.739 387.867L325.132 365.797C334.255 370.579 339.909 378.24 349.378 386.112C364.617 398.797 378.122 406.584 381.863 412.197C385.604 417.809 376.661 431.892 365.226 435.013Z" fill="white"/>
<path opacity="0.4" d="M342.451 412.291C336.608 403.883 330.071 394.919 322.557 389.17C323.547 389.22 324.537 389.07 325.468 388.729C325.468 388.729 337.344 398.366 342.451 412.291Z" fill="#FFDC00"/>
<path d="M365.226 435.013C358.553 436.831 351.301 425.102 342.452 412.302C336.609 403.894 330.072 394.929 322.558 389.181C321.958 388.729 321.349 388.287 320.739 387.867L325.132 365.797C334.255 370.579 339.909 378.24 349.378 386.112C364.617 398.797 378.122 406.584 381.863 412.197C385.604 417.809 376.661 431.892 365.226 435.013Z" stroke="#263238" stroke-linecap="round" stroke-linejoin="round"/>
<path d="M327.591 386.994C327.134 387.81 326.382 388.419 325.489 388.696C325.251 388.79 325.009 388.87 324.763 388.938H324.564C317.512 390.777 301.642 386.952 301.642 386.952C301.642 386.952 291.248 382.012 290.618 380.846C290.179 379.921 289.789 378.974 289.451 378.008L289.168 377.178C289.168 377.178 285.426 375.076 284.964 373.437C284.501 371.797 283.713 371.335 286.015 371.04C288.316 370.746 300.728 371.04 300.728 371.04L287.223 365.533C287.223 365.533 278.28 361.025 277.449 359.438C276.619 357.851 275.579 356.8 280.15 357.43C284.722 358.061 294.706 360.962 294.706 360.962L302.578 362.633L294.759 359.301C294.759 359.301 279.373 357.441 282.284 352.659H291.017C295.965 352.878 300.886 353.503 305.731 354.53C308.274 355.308 325.089 365.754 325.089 365.754" fill="white"/>
<path opacity="0.4" d="M324.543 388.981C317.492 390.82 301.622 386.994 301.622 386.994C301.622 386.994 291.228 382.055 290.598 380.888C290.158 379.964 289.769 379.017 289.431 378.051L302.19 379.449C301.743 380.252 301.509 381.157 301.509 382.076C301.509 382.995 301.743 383.9 302.19 384.703C303.608 387.257 319.772 389.843 324.543 388.981Z" fill="#FFDC00"/>
<path d="M327.591 386.994C327.134 387.81 326.382 388.419 325.489 388.696C325.251 388.79 325.009 388.87 324.763 388.938H324.564C317.512 390.777 301.642 386.952 301.642 386.952C301.642 386.952 291.248 382.012 290.618 380.846C290.179 379.921 289.789 378.974 289.451 378.008L289.168 377.178C289.168 377.178 285.426 375.076 284.964 373.437C284.501 371.797 283.713 371.335 286.015 371.04C288.316 370.746 300.728 371.04 300.728 371.04L287.223 365.533C287.223 365.533 278.28 361.025 277.449 359.438C276.619 357.851 275.579 356.8 280.15 357.43C284.722 358.061 294.706 360.962 294.706 360.962L302.578 362.633L294.759 359.301C294.759 359.301 279.373 357.441 282.284 352.659H291.017C295.965 352.878 300.886 353.503 305.731 354.53C308.274 355.308 325.089 365.754 325.089 365.754" stroke="#263238" stroke-linecap="round" stroke-linejoin="round"/>
<path d="M289.148 377.221L304.502 379.48" stroke="#263238" stroke-linecap="round" stroke-linejoin="round"/>
<path d="M136.086 424.24L174.572 435.8L244.986 419.731C244.986 419.731 201.981 407.519 201.582 407.824C201.183 408.129 136.086 424.24 136.086 424.24Z" fill="#FFDC00"/>
<path opacity="0.3" d="M136.086 424.24L174.572 435.8L244.986 419.731C244.986 419.731 201.981 407.519 201.582 407.824C201.183 408.129 136.086 424.24 136.086 424.24Z" fill="black" fill-opacity="0.7"/>
<path d="M136.086 424.24L174.572 435.8L244.986 419.731C244.986 419.731 201.981 407.519 201.582 407.824C201.183 408.129 136.086 424.24 136.086 424.24Z" stroke="#263238" stroke-linecap="round" stroke-linejoin="round"/>
<path d="M136.643 410.683C133.942 410.872 133.27 420.604 136.086 424.24L198.261 411.335L203.242 399.543L136.643 410.683Z" fill="#FFDC00"/>
<path opacity="0.3" d="M136.643 410.683C133.942 410.872 133.27 420.604 136.086 424.24L198.261 411.335L203.242 399.543L136.643 410.683Z" fill="black" fill-opacity="0.7"/>
<path d="M136.643 410.683C133.942 410.872 133.27 420.604 136.086 424.24L198.261 411.335L203.242 399.543L136.643 410.683Z" stroke="#263238" stroke-linecap="round" stroke-linejoin="round"/>
<path d="M241.97 410.547C241.97 410.547 241.045 415.665 241.644 418.818L174.498 434.014L139.102 423.589C139.102 423.589 135.424 417.084 138.629 412.028L203.305 401.046L241.97 410.547Z" fill="white" stroke="#263238" stroke-linecap="round" stroke-linejoin="round"/>
<path d="M136.643 410.683L203.242 399.543L244.597 410.021L175.045 423.883L136.643 410.683Z" fill="#FFDC00" stroke="#263238" stroke-linecap="round" stroke-linejoin="round"/>
<path d="M139.008 416.904L174.226 427.393L231.87 415.79" stroke="#263238" stroke-linecap="round" stroke-linejoin="round"/>
<path d="M241.456 416.862L179.47 430.083" stroke="#263238" stroke-linecap="round" stroke-linejoin="round"/>
<path d="M139.838 421.034C140.374 421.087 166.385 429.095 166.385 429.095" stroke="#263238" stroke-linecap="round" stroke-linejoin="round"/>
<path d="M236.39 414.434L241.319 413.636" stroke="#263238" stroke-linecap="round" stroke-linejoin="round"/>
<path d="M173.079 431.04L170.462 430.451" stroke="#263238" stroke-linecap="round" stroke-linejoin="round"/>
<path d="M138.629 412.027C140.007 413.615 140.805 415.624 140.891 417.725C140.977 419.825 140.346 421.893 139.102 423.588C137.951 421.898 137.296 419.919 137.212 417.875C137.129 415.832 137.62 413.806 138.629 412.027Z" fill="#263238"/>
<path opacity="0.3" d="M138.629 412.027C140.007 413.615 140.805 415.624 140.891 417.725C140.977 419.825 140.346 421.893 139.102 423.588C137.951 421.898 137.296 419.919 137.212 417.875C137.129 415.832 137.62 413.806 138.629 412.027Z" fill="white" fill-opacity="0.7"/>
<path d="M138.629 412.027C140.007 413.615 140.805 415.624 140.891 417.725C140.977 419.825 140.346 421.893 139.102 423.588C137.951 421.898 137.296 419.919 137.212 417.875C137.129 415.832 137.62 413.806 138.629 412.027Z" stroke="#263238" stroke-linecap="round" stroke-linejoin="round"/>
<path d="M282.474 427.394L349.683 430.147L343.135 453.279L260.457 450.126L282.474 427.394Z" fill="white"/>
<path opacity="0.4" d="M282.474 427.394L349.683 430.147L343.135 453.279L260.457 450.126L282.474 427.394Z" fill="#FFDC00"/>
<path d="M282.474 427.394L349.683 430.147L343.135 453.279L260.457 450.126L282.474 427.394Z" stroke="#263238" stroke-linecap="round" stroke-linejoin="round"/>
</svg>
