<svg id="typing-bro" viewBox="0 0 458 500" fill="none" xmlns="http://www.w3.org/2000/svg" role="img" focusable="false">
<title>Illustration of a first person view typing on a keyboard and looking at code</title>
<path d="M267.963 498.596C424.854 487.292 444.271 291.1 456.364 191.165C470.171 77.0632 312.305 -55.5813 213.861 24.4044C115.417 104.39 0 77.8756 0 270.732C0 463.589 122.532 509.074 267.963 498.596Z" fill="#C4C4C4"/>
<path d="M381.754 281.937H88.1157V405.607H381.754V281.937Z" fill="#FF2957" stroke="#263238" stroke-linecap="round" stroke-linejoin="round"/>
<path d="M121.875 289.422H94.2515V304.711H121.875V289.422Z" fill="white"/>
<path d="M374.957 363.968H331.446V379.256H374.957V363.968Z" fill="white"/>
<path d="M374.957 308.517H348.097V323.806H374.957V308.517Z" fill="white"/>
<path d="M121.875 345.115H94.2515V360.404H121.875V345.115Z" fill="white"/>
<path d="M116.618 326.695H94.2515V341.984H116.618V326.695Z" fill="white"/>
<path d="M109.54 308.059H94.2515V323.347H109.54V308.059Z" fill="white"/>
<path d="M129.067 308.059H113.779V323.347H129.067V308.059Z" fill="white"/>
<path d="M148.582 308.059H133.294V323.347H148.582V308.059Z" fill="white"/>
<path d="M168.097 308.059H152.809V323.347H168.097V308.059Z" fill="white"/>
<path d="M187.624 308.059H172.336V323.347H187.624V308.059Z" fill="white"/>
<path d="M207.139 308.059H191.851V323.347H207.139V308.059Z" fill="white"/>
<path d="M226.654 308.059H211.366V323.347H226.654V308.059Z" fill="white"/>
<path d="M246.182 308.059H230.893V323.347H246.182V308.059Z" fill="white"/>
<path d="M265.696 308.059H250.408V323.347H265.696V308.059Z" fill="white"/>
<path d="M285.211 308.059H269.923V323.347H285.211V308.059Z" fill="white"/>
<path d="M304.739 308.059H289.45V323.347H304.739V308.059Z" fill="white"/>
<path d="M324.254 308.059H308.965V323.347H324.254V308.059Z" fill="white"/>
<path d="M343.781 308.059H328.493V323.347H343.781V308.059Z" fill="white"/>
<path d="M109.54 382.834H94.2515V398.122H109.54V382.834Z" fill="white"/>
<path d="M129.067 382.834H113.779V398.122H129.067V382.834Z" fill="white"/>
<path d="M148.582 382.834H133.294V398.122H148.582V382.834Z" fill="white"/>
<path d="M171.471 382.834H152.809V398.122H171.471V382.834Z" fill="white"/>
<path d="M269.07 382.834H175.697V398.122H269.07V382.834Z" fill="white"/>
<path d="M315.75 382.834H300.462V398.122H315.75V382.834Z" fill="white"/>
<path d="M335.265 382.834H319.977V398.122H335.265V382.834Z" fill="white"/>
<path d="M354.818 382.834H339.529V398.122H354.818V382.834Z" fill="white"/>
<path d="M296.63 382.834H272.889V398.122H296.63V382.834Z" fill="white"/>
<path d="M374.957 382.834H359.668V398.122H374.957V382.834Z" fill="white"/>
<path d="M136.247 326.695H120.959V341.984H136.247V326.695Z" fill="white"/>
<path d="M155.762 326.695H140.473V341.984H155.762V326.695Z" fill="white"/>
<path d="M175.289 326.695H160.001V341.984H175.289V326.695Z" fill="white"/>
<path d="M194.804 326.695H179.516V341.984H194.804V326.695Z" fill="white"/>
<path d="M214.332 326.695H199.043V341.984H214.332V326.695Z" fill="white"/>
<path d="M233.847 326.695H218.558V341.984H233.847V326.695Z" fill="white"/>
<path d="M253.361 326.695H238.073V341.984H253.361V326.695Z" fill="white"/>
<path d="M272.889 326.695H257.601V341.984H272.889V326.695Z" fill="white"/>
<path d="M292.404 326.695H277.115V341.984H292.404V326.695Z" fill="white"/>
<path d="M311.919 326.695H296.63V341.984H311.919V326.695Z" fill="white"/>
<path d="M331.446 326.695H316.158V341.984H331.446V326.695Z" fill="white"/>
<path d="M350.961 326.695H335.672V341.984H350.961V326.695Z" fill="white"/>
<path d="M374.957 326.695V360.633H359.668V341.997H355.187V326.695H374.957Z" fill="white"/>
<path d="M140.728 345.332H125.44V360.62H140.728V345.332Z" fill="white"/>
<path d="M160.243 345.332H144.954V360.62H160.243V345.332Z" fill="white"/>
<path d="M179.758 345.332H164.469V360.62H179.758V345.332Z" fill="white"/>
<path d="M199.285 345.332H183.997V360.62H199.285V345.332Z" fill="white"/>
<path d="M218.8 345.332H203.512V360.62H218.8V345.332Z" fill="white"/>
<path d="M238.327 345.332H223.039V360.62H238.327V345.332Z" fill="white"/>
<path d="M257.842 345.332H242.554V360.62H257.842V345.332Z" fill="white"/>
<path d="M277.357 345.332H262.069V360.62H277.357V345.332Z" fill="white"/>
<path d="M296.885 345.332H281.596V360.62H296.885V345.332Z" fill="white"/>
<path d="M316.399 345.332H301.111V360.62H316.399V345.332Z" fill="white"/>
<path d="M335.914 345.332H320.626V360.62H335.914V345.332Z" fill="white"/>
<path d="M355.442 345.332H340.153V360.62H355.442V345.332Z" fill="white"/>
<path d="M132.428 363.968H117.14V379.256H132.428V363.968Z" fill="white"/>
<path d="M151.943 363.968H136.655V379.256H151.943V363.968Z" fill="white"/>
<path d="M171.47 363.968H156.182V379.256H171.47V363.968Z" fill="white"/>
<path d="M190.985 363.968H175.697V379.256H190.985V363.968Z" fill="white"/>
<path d="M210.5 363.968H195.212V379.256H210.5V363.968Z" fill="white"/>
<path d="M230.028 363.968H214.739V379.256H230.028V363.968Z" fill="white"/>
<path d="M249.542 363.968H234.254V379.256H249.542V363.968Z" fill="white"/>
<path d="M269.07 363.968H253.782V379.256H269.07V363.968Z" fill="white"/>
<path d="M288.585 363.968H273.296V379.256H288.585V363.968Z" fill="white"/>
<path d="M308.1 363.968H292.811V379.256H308.1V363.968Z" fill="white"/>
<path d="M327.627 363.968H312.339V379.256H327.627V363.968Z" fill="white"/>
<path d="M140.728 290.339H125.44V305.627H140.728V290.339Z" fill="white"/>
<path d="M160.243 290.339H144.954V305.627H160.243V290.339Z" fill="white"/>
<path d="M179.758 290.339H164.469V305.627H179.758V290.339Z" fill="white"/>
<path d="M199.285 290.339H183.997V305.627H199.285V290.339Z" fill="white"/>
<path d="M218.8 290.339H203.512V305.627H218.8V290.339Z" fill="white"/>
<path d="M238.327 290.339H223.039V305.627H238.327V290.339Z" fill="white"/>
<path d="M257.842 290.339H242.554V305.627H257.842V290.339Z" fill="white"/>
<path d="M277.357 290.339H262.069V305.627H277.357V290.339Z" fill="white"/>
<path d="M296.885 290.339H281.596V305.627H296.885V290.339Z" fill="white"/>
<path d="M316.399 290.339H301.111V305.627H316.399V290.339Z" fill="white"/>
<path d="M335.914 290.339H320.626V305.627H335.914V290.339Z" fill="white"/>
<path d="M355.442 290.339H340.153V305.627H355.442V290.339Z" fill="white"/>
<path d="M374.957 290.339H359.668V305.627H374.957V290.339Z" fill="white"/>
<path d="M112.773 363.968H94.2515V379.256H112.773V363.968Z" fill="white"/>
<path d="M121.875 289.422H94.2515V304.711H121.875V289.422Z" stroke="#263238" stroke-miterlimit="10"/>
<path d="M374.957 363.968H331.446V379.256H374.957V363.968Z" stroke="#263238" stroke-miterlimit="10"/>
<path d="M374.957 308.517H348.097V323.806H374.957V308.517Z" stroke="#263238" stroke-miterlimit="10"/>
<path d="M121.875 345.115H94.2515V360.404H121.875V345.115Z" stroke="#263238" stroke-miterlimit="10"/>
<path d="M116.618 326.695H94.2515V341.984H116.618V326.695Z" stroke="#263238" stroke-miterlimit="10"/>
<path d="M109.54 308.059H94.2515V323.347H109.54V308.059Z" stroke="#263238" stroke-miterlimit="10"/>
<path d="M129.067 308.059H113.779V323.347H129.067V308.059Z" stroke="#263238" stroke-miterlimit="10"/>
<path d="M148.582 308.059H133.294V323.347H148.582V308.059Z" stroke="#263238" stroke-miterlimit="10"/>
<path d="M168.097 308.059H152.809V323.347H168.097V308.059Z" stroke="#263238" stroke-miterlimit="10"/>
<path d="M187.624 308.059H172.336V323.347H187.624V308.059Z" stroke="#263238" stroke-miterlimit="10"/>
<path d="M207.139 308.059H191.851V323.347H207.139V308.059Z" stroke="#263238" stroke-miterlimit="10"/>
<path d="M226.654 308.059H211.366V323.347H226.654V308.059Z" stroke="#263238" stroke-miterlimit="10"/>
<path d="M246.182 308.059H230.893V323.347H246.182V308.059Z" stroke="#263238" stroke-miterlimit="10"/>
<path d="M265.696 308.059H250.408V323.347H265.696V308.059Z" stroke="#263238" stroke-miterlimit="10"/>
<path d="M285.211 308.059H269.923V323.347H285.211V308.059Z" stroke="#263238" stroke-miterlimit="10"/>
<path d="M304.739 308.059H289.45V323.347H304.739V308.059Z" stroke="#263238" stroke-miterlimit="10"/>
<path d="M324.254 308.059H308.965V323.347H324.254V308.059Z" stroke="#263238" stroke-miterlimit="10"/>
<path d="M343.781 308.059H328.493V323.347H343.781V308.059Z" stroke="#263238" stroke-miterlimit="10"/>
<path d="M109.54 382.834H94.2515V398.122H109.54V382.834Z" stroke="#263238" stroke-miterlimit="10"/>
<path d="M129.067 382.834H113.779V398.122H129.067V382.834Z" stroke="#263238" stroke-miterlimit="10"/>
<path d="M148.582 382.834H133.294V398.122H148.582V382.834Z" stroke="#263238" stroke-miterlimit="10"/>
<path d="M171.471 382.834H152.809V398.122H171.471V382.834Z" stroke="#263238" stroke-miterlimit="10"/>
<path d="M269.07 382.834H175.697V398.122H269.07V382.834Z" stroke="#263238" stroke-miterlimit="10"/>
<path d="M315.75 382.834H300.462V398.122H315.75V382.834Z" stroke="#263238" stroke-miterlimit="10"/>
<path d="M335.265 382.834H319.977V398.122H335.265V382.834Z" stroke="#263238" stroke-miterlimit="10"/>
<path d="M354.818 382.834H339.529V398.122H354.818V382.834Z" stroke="#263238" stroke-miterlimit="10"/>
<path d="M296.63 382.834H272.889V398.122H296.63V382.834Z" stroke="#263238" stroke-miterlimit="10"/>
<path d="M374.957 382.834H359.668V398.122H374.957V382.834Z" stroke="#263238" stroke-miterlimit="10"/>
<path d="M136.247 326.695H120.959V341.984H136.247V326.695Z" stroke="#263238" stroke-miterlimit="10"/>
<path d="M155.762 326.695H140.473V341.984H155.762V326.695Z" stroke="#263238" stroke-miterlimit="10"/>
<path d="M175.289 326.695H160.001V341.984H175.289V326.695Z" stroke="#263238" stroke-miterlimit="10"/>
<path d="M194.804 326.695H179.516V341.984H194.804V326.695Z" stroke="#263238" stroke-miterlimit="10"/>
<path d="M214.332 326.695H199.043V341.984H214.332V326.695Z" stroke="#263238" stroke-miterlimit="10"/>
<path d="M233.847 326.695H218.558V341.984H233.847V326.695Z" stroke="#263238" stroke-miterlimit="10"/>
<path d="M253.361 326.695H238.073V341.984H253.361V326.695Z" stroke="#263238" stroke-miterlimit="10"/>
<path d="M272.889 326.695H257.601V341.984H272.889V326.695Z" stroke="#263238" stroke-miterlimit="10"/>
<path d="M292.404 326.695H277.115V341.984H292.404V326.695Z" stroke="#263238" stroke-miterlimit="10"/>
<path d="M311.919 326.695H296.63V341.984H311.919V326.695Z" stroke="#263238" stroke-miterlimit="10"/>
<path d="M331.446 326.695H316.158V341.984H331.446V326.695Z" stroke="#263238" stroke-miterlimit="10"/>
<path d="M350.961 326.695H335.672V341.984H350.961V326.695Z" stroke="#263238" stroke-miterlimit="10"/>
<path d="M374.957 326.695V360.633H359.668V341.997H355.187V326.695H374.957Z" stroke="#263238" stroke-miterlimit="10"/>
<path d="M140.728 345.332H125.44V360.62H140.728V345.332Z" stroke="#263238" stroke-miterlimit="10"/>
<path d="M160.243 345.332H144.954V360.62H160.243V345.332Z" stroke="#263238" stroke-miterlimit="10"/>
<path d="M179.758 345.332H164.469V360.62H179.758V345.332Z" stroke="#263238" stroke-miterlimit="10"/>
<path d="M199.285 345.332H183.997V360.62H199.285V345.332Z" stroke="#263238" stroke-miterlimit="10"/>
<path d="M218.8 345.332H203.512V360.62H218.8V345.332Z" stroke="#263238" stroke-miterlimit="10"/>
<path d="M238.327 345.332H223.039V360.62H238.327V345.332Z" stroke="#263238" stroke-miterlimit="10"/>
<path d="M257.842 345.332H242.554V360.62H257.842V345.332Z" stroke="#263238" stroke-miterlimit="10"/>
<path d="M277.357 345.332H262.069V360.62H277.357V345.332Z" stroke="#263238" stroke-miterlimit="10"/>
<path d="M296.885 345.332H281.596V360.62H296.885V345.332Z" stroke="#263238" stroke-miterlimit="10"/>
<path d="M316.399 345.332H301.111V360.62H316.399V345.332Z" stroke="#263238" stroke-miterlimit="10"/>
<path d="M335.914 345.332H320.626V360.62H335.914V345.332Z" stroke="#263238" stroke-miterlimit="10"/>
<path d="M355.442 345.332H340.153V360.62H355.442V345.332Z" stroke="#263238" stroke-miterlimit="10"/>
<path d="M132.428 363.968H117.14V379.256H132.428V363.968Z" stroke="#263238" stroke-miterlimit="10"/>
<path d="M151.943 363.968H136.655V379.256H151.943V363.968Z" stroke="#263238" stroke-miterlimit="10"/>
<path d="M171.47 363.968H156.182V379.256H171.47V363.968Z" stroke="#263238" stroke-miterlimit="10"/>
<path d="M190.985 363.968H175.697V379.256H190.985V363.968Z" stroke="#263238" stroke-miterlimit="10"/>
<path d="M210.5 363.968H195.212V379.256H210.5V363.968Z" stroke="#263238" stroke-miterlimit="10"/>
<path d="M230.028 363.968H214.739V379.256H230.028V363.968Z" stroke="#263238" stroke-miterlimit="10"/>
<path d="M249.542 363.968H234.254V379.256H249.542V363.968Z" stroke="#263238" stroke-miterlimit="10"/>
<path d="M269.07 363.968H253.782V379.256H269.07V363.968Z" stroke="#263238" stroke-miterlimit="10"/>
<path d="M288.585 363.968H273.296V379.256H288.585V363.968Z" stroke="#263238" stroke-miterlimit="10"/>
<path d="M308.1 363.968H292.811V379.256H308.1V363.968Z" stroke="#263238" stroke-miterlimit="10"/>
<path d="M327.627 363.968H312.339V379.256H327.627V363.968Z" stroke="#263238" stroke-miterlimit="10"/>
<path d="M140.728 290.339H125.44V305.627H140.728V290.339Z" stroke="#263238" stroke-miterlimit="10"/>
<path d="M160.243 290.339H144.954V305.627H160.243V290.339Z" stroke="#263238" stroke-miterlimit="10"/>
<path d="M179.758 290.339H164.469V305.627H179.758V290.339Z" stroke="#263238" stroke-miterlimit="10"/>
<path d="M199.285 290.339H183.997V305.627H199.285V290.339Z" stroke="#263238" stroke-miterlimit="10"/>
<path d="M218.8 290.339H203.512V305.627H218.8V290.339Z" stroke="#263238" stroke-miterlimit="10"/>
<path d="M238.327 290.339H223.039V305.627H238.327V290.339Z" stroke="#263238" stroke-miterlimit="10"/>
<path d="M257.842 290.339H242.554V305.627H257.842V290.339Z" stroke="#263238" stroke-miterlimit="10"/>
<path d="M277.357 290.339H262.069V305.627H277.357V290.339Z" stroke="#263238" stroke-miterlimit="10"/>
<path d="M296.885 290.339H281.596V305.627H296.885V290.339Z" stroke="#263238" stroke-miterlimit="10"/>
<path d="M316.399 290.339H301.111V305.627H316.399V290.339Z" stroke="#263238" stroke-miterlimit="10"/>
<path d="M335.914 290.339H320.626V305.627H335.914V290.339Z" stroke="#263238" stroke-miterlimit="10"/>
<path d="M355.442 290.339H340.153V305.627H355.442V290.339Z" stroke="#263238" stroke-miterlimit="10"/>
<path d="M374.957 290.339H359.668V305.627H374.957V290.339Z" stroke="#263238" stroke-miterlimit="10"/>
<path d="M112.773 363.968H94.2515V379.256H112.773V363.968Z" stroke="#263238" stroke-miterlimit="10"/>
<path d="M88.1157 282.726L94.2515 280.69H377.77L381.805 282.701L88.1157 282.726Z" fill="#263238"/>
<path opacity="0.2" d="M297.241 494.14L291.742 458.869C290.424 453.509 287.622 448.63 283.658 444.79C271.782 433.333 256.086 421.57 255.411 406.6C254.38 383.686 250.803 384.336 251.185 378.671C252.735 375.966 254.101 373.159 255.271 370.269C256.01 368.048 256.588 365.776 257.002 363.472C257.245 362.34 257.902 361.341 258.844 360.669C259.786 359.998 260.946 359.703 262.094 359.844C263.707 360.057 265.214 360.764 266.41 361.868C268.51 364.108 269.668 367.071 269.643 370.142C269.606 373.18 269.178 376.201 268.37 379.129C270.369 384.193 271.654 389.51 272.189 394.927C273.551 390.726 274.582 386.487 275.944 382.299C276.224 382.146 276.122 381.815 276.39 381.662C274.467 377.538 276.097 377.767 272.291 368.691C265.926 353.415 258.746 338.687 253.642 319.49C253.227 317.71 253.266 315.854 253.756 314.093C255.602 308.606 261.254 309.866 263.724 313.061C264.37 313.904 264.885 314.84 265.251 315.837C268.604 324.013 272.681 331.873 277.434 339.323L291.296 360.455C291.296 360.455 296.121 356.496 296.859 354.726C297.585 352.944 297.941 338.597 297.941 338.597C297.941 338.597 296.846 341.283 294.415 341.143C292.658 341.016 289.094 342.035 286.561 339.183C285.577 338.03 285.018 336.576 284.977 335.061C284.935 333.546 285.413 332.063 286.332 330.858L292.607 322.38C293.982 321.296 295.629 320.612 297.367 320.403C299.106 320.194 300.868 320.468 302.46 321.196C306.513 323.234 310.247 325.85 313.548 328.961C316.862 328.868 320.155 329.502 323.197 330.82C327.64 332.958 332.299 339.094 332.299 339.094C332.299 339.094 337.48 339.412 339.81 341.105C340.395 341.525 348.3 353.835 345.449 363.421C343.756 369.136 342.712 377.423 341.948 379.664L338.066 435.79L345.894 472.706L327.157 481.411C321.042 484.821 320.155 487.139 311.244 489.685C310.608 490.322 301.06 492.867 297.241 494.14Z" fill="black"/>
<path d="M345.245 429.246L345.398 372.968C346.009 370.702 346.506 362.351 347.804 356.534C350.019 346.783 341.312 335.02 340.701 334.638C338.257 333.124 333.063 333.149 333.063 333.149C333.063 333.149 327.971 327.332 323.427 325.511C320.308 324.381 316.98 323.947 313.675 324.238C310.176 321.349 306.274 318.986 302.091 317.224C300.454 316.605 298.679 316.449 296.959 316.772C295.239 317.096 293.641 317.886 292.34 319.057L286.65 327.968C285.811 329.232 285.43 330.745 285.571 332.255C285.713 333.766 286.367 335.182 287.427 336.268C290.151 338.954 293.639 337.694 295.395 337.694C297.827 337.694 298.743 334.944 298.743 334.944C298.743 334.944 299.342 349.278 298.743 351.098C298.12 352.918 293.562 357.183 293.562 357.183L278.287 337.032C273.04 329.918 268.451 322.343 264.577 314.398C264.137 313.432 263.558 312.535 262.858 311.738C260.185 308.708 254.469 307.829 252.98 313.418C252.614 315.209 252.697 317.064 253.222 318.815C259.587 337.63 267.708 351.849 275.104 366.667C279.496 375.463 277.867 375.361 280.056 379.333C279.801 379.511 279.929 379.842 279.649 380.008C278.579 384.285 277.828 388.575 276.746 392.852C275.85 387.482 274.209 382.264 271.871 377.347C272.489 374.368 272.715 371.321 272.545 368.283C272.354 365.214 270.986 362.337 268.727 360.251C267.461 359.227 265.908 358.622 264.284 358.52C263.118 358.444 261.967 358.811 261.061 359.547C260.155 360.284 259.56 361.335 259.396 362.491C259.14 364.815 258.715 367.117 258.123 369.378C257.147 372.339 255.974 375.231 254.609 378.034C254.609 383.712 258.123 382.783 260.681 405.62C262.667 423.442 285.581 435.166 298.056 448.01L311.346 489.84C329.066 483.32 342.432 476.319 355.162 465.499L345.245 429.246Z" fill="white"/>
<path d="M315.114 326.275C317.356 334.578 318.519 343.135 318.576 351.735C318.504 353.175 318.659 354.619 319.035 356.012C319.233 356.705 319.605 357.336 320.115 357.846C320.625 358.356 321.257 358.728 321.95 358.927M333.076 334.638C336.894 342.607 332.986 360.416 333.266 361.664C333.385 362.298 333.638 362.898 334.01 363.426C334.381 363.953 334.861 364.394 335.418 364.719M300.258 325.193C299.813 327.739 299.444 330.654 298.985 333.187C297.502 331.914 296.287 330.358 295.413 328.609C294.538 326.86 294.022 324.954 293.893 323.004M275.868 393.106L273.106 394.265M276.568 395.309C276.129 397.434 276.129 399.626 276.568 401.75M292.658 371.529C293.677 373.35 294.682 375.183 295.701 377.016M298.565 351.442L301.595 347.165M341.121 371.529L340.204 374.877M333.712 362.351C334.561 359.5 335.456 356.648 336.398 353.797M342.674 347.165C343.48 346.746 344.419 346.662 345.286 346.932C346.154 347.201 346.88 347.802 347.308 348.603M324.381 332.564C325.438 332.268 326.551 332.242 327.621 332.486C328.69 332.731 329.681 333.239 330.504 333.964M267.683 341.054C268.671 339.971 269.9 339.137 271.272 338.619C272.644 338.102 274.118 337.915 275.575 338.076M256.188 317.046C257.098 316.389 258.128 315.918 259.22 315.661C260.313 315.403 261.445 315.363 262.552 315.544M259.777 368.232C261.789 366.794 264.997 370.002 266.843 368.36C267.17 367.991 267.398 367.546 267.507 367.065C267.616 366.584 267.602 366.084 267.466 365.61C267.194 364.663 267.069 363.68 267.097 362.695M316.539 359.398C318.988 364.483 319.486 370.29 317.94 375.718M331.332 367.252C331.726 369.663 331.277 372.136 330.059 374.254M311.244 489.685L298.145 448.491C285.67 435.647 262.756 423.897 260.77 406.101C258.224 383.264 254.698 384.193 254.698 378.515C256.063 375.712 257.236 372.82 258.212 369.859C258.804 367.598 259.229 365.296 259.485 362.972C259.649 361.816 260.244 360.765 261.15 360.028C262.057 359.292 263.208 358.925 264.373 359.001C265.997 359.103 267.55 359.708 268.816 360.732C271.075 362.818 272.443 365.695 272.635 368.764C272.804 371.802 272.578 374.849 271.96 377.828C274.298 382.745 275.939 387.963 276.835 393.333C277.917 389.056 278.668 384.766 279.738 380.488C280.018 380.323 279.891 379.992 280.145 379.814C277.956 375.842 279.585 375.995 275.193 367.148C267.797 352.33 259.688 338.111 253.311 319.296C252.786 317.545 252.703 315.69 253.069 313.899C254.558 308.31 260.274 309.189 262.947 312.218C263.647 313.016 264.226 313.913 264.666 314.879C268.54 322.824 273.129 330.399 278.376 337.513L293.651 357.664C293.651 357.664 298.209 353.399 298.832 351.579C299.431 349.759 298.832 335.425 298.832 335.425C298.832 335.425 297.916 338.175 295.485 338.175C293.728 338.175 290.24 339.448 287.516 336.749C286.457 335.663 285.802 334.247 285.66 332.736C285.519 331.226 285.9 329.713 286.739 328.449L292.429 319.538C293.73 318.367 295.328 317.577 297.048 317.253C298.768 316.93 300.543 317.086 302.18 317.705C306.363 319.467 310.265 321.83 313.765 324.719C317.069 324.427 320.397 324.862 323.516 325.992C328.098 327.838 333.152 333.63 333.152 333.63C333.152 333.63 338.333 333.63 340.79 335.119C341.401 335.501 350.108 347.264 347.893 357.015C346.62 362.832 346.098 371.183 345.487 373.449L345.335 429.727L355.162 465.33M258.555 374.012C257.079 375.181 255.816 376.598 254.825 378.2L258.555 374.012Z" stroke="#263238" stroke-miterlimit="10"/>
<path opacity="0.2" d="M208.247 386.36C208.362 387.242 208.323 388.138 208.132 389.008C207.305 392.827 204.912 404.003 204.033 410.114C202.99 417.573 190.934 440.665 190.934 440.665C190.934 440.665 179.834 454.464 174.182 461.644C171.407 465.17 163.489 479.934 159.759 493.504C152.121 492.231 147.365 490.782 145.718 490.194C141.899 488.832 141.301 489.265 137.482 487.776C130.669 484.945 125.341 480.569 118.909 476.955C121.022 469.317 121.468 460.88 121.442 460.536C121.379 459.734 125.974 450.887 125.974 450.887L121.964 398.084L119.597 390.051C118.366 385.904 117.585 381.636 117.267 377.322C116.769 370.771 117.324 364.182 118.909 357.807L125.821 347.547L129.055 347.305L139.06 333.302C139.06 333.302 144.471 331.672 145.858 335.746C147.246 339.82 141.352 347.432 141.352 347.432L139.328 359.996L144.14 371.759L146.686 372.675C146.686 372.675 147.526 351.964 146.953 347.827L152.172 328.999C153.737 325.916 155.123 322.746 156.322 319.503C157.29 316.333 162.98 313.138 166.251 318.752C166.807 319.77 167.139 320.895 167.227 322.051C167.315 323.208 167.156 324.37 166.761 325.46C165.424 329.343 164.316 332.398 164.316 332.398C164.316 332.398 163.043 348.412 162.725 348.858C162.407 349.303 165.08 372.701 165.08 372.701L167.168 373.63L167.906 351.289L172.247 330.298C172.247 330.298 171.891 320.203 179.007 321.387C180.104 321.345 181.19 321.633 182.122 322.214C183.055 322.795 183.792 323.642 184.239 324.646C186.135 328.274 184.328 352.435 184.328 352.435L186.084 377.411L188.898 396.671L192.207 383.47C192.207 383.47 192.398 364.554 204.339 362.937C204.339 362.937 207.891 362.3 208.616 364.77C209.342 367.24 206.847 372.281 207.203 377.118C207.521 380.555 208.005 384.387 208.247 386.36Z" fill="black"/>
<path d="M204.619 362.975C204.072 360.429 200.495 360.824 200.495 360.824C188.465 361.537 186.848 380.39 186.848 380.39L182.533 393.298L181.26 373.872L181.387 348.832C181.387 348.832 185.028 324.875 183.411 321.12C183.042 320.084 182.37 319.183 181.482 318.534C180.595 317.885 179.533 317.517 178.434 317.479C171.432 315.722 171.025 325.817 171.025 325.817L165.118 346.414L162.687 368.627L160.676 367.558C160.676 367.558 159.721 343.982 160.128 343.588C160.536 343.193 162.954 327.306 162.954 327.306C162.954 327.306 164.291 324.34 165.92 320.572C166.398 319.514 166.645 318.366 166.645 317.205C166.645 316.044 166.398 314.896 165.92 313.838C163.082 308.059 157.175 310.758 155.953 313.838C154.518 316.98 152.903 320.036 151.116 322.991L144.369 341.436C144.623 345.612 142.23 366.209 142.23 366.209L139.799 365.101L135.891 353.008L138.87 340.622C138.87 340.622 145.324 333.493 144.242 329.318C143.16 325.142 137.647 326.364 137.647 326.364L126.56 339.527H123.314L115.676 349.214C112.235 359.598 111.629 370.712 113.919 381.408L115.676 389.593V442.498C115.676 442.498 110.431 450.976 110.431 451.778C110.431 452.148 105.492 466.071 102.475 474.409C105.658 476.955 120.297 482.684 132.39 486.503C137.576 488.14 142.574 489.685 148.302 490.958C153.14 477.375 159.823 460.295 162.942 456.896C169.128 450.175 181.247 437.241 181.247 437.241C181.247 437.241 195.008 415.129 196.625 407.784C197.898 401.75 201.182 390.79 202.302 387.035C202.563 386.182 202.667 385.289 202.608 384.4C202.519 382.414 202.328 378.557 202.328 375.158C202.277 370.333 205.154 365.483 204.619 362.975Z" fill="white"/>
<path d="M102.475 474.409C105.492 466.071 110.393 452.173 110.393 451.804C110.393 451.002 115.638 442.524 115.638 442.524V389.619L113.881 381.434C111.59 370.737 112.197 359.623 115.638 349.24L123.275 339.552H126.522L137.546 326.364C137.546 326.364 143.07 325.091 144.14 329.318C145.209 333.544 138.768 340.622 138.768 340.622L135.789 353.008L139.697 365.101L142.128 366.209C142.128 366.209 144.522 345.612 144.267 341.436L151.014 322.991C152.801 320.036 154.416 316.98 155.851 313.838C157.124 310.758 162.98 308.059 165.819 313.838C166.296 314.896 166.543 316.044 166.543 317.205C166.543 318.366 166.296 319.514 165.819 320.572C164.189 324.391 162.852 327.306 162.852 327.306C162.852 327.306 160.434 343.18 160.026 343.588C159.619 343.995 160.574 367.558 160.574 367.558L162.585 368.627L165.017 346.414L170.923 325.817C170.923 325.817 171.331 315.722 178.332 317.479C179.431 317.517 180.493 317.885 181.381 318.534C182.268 319.183 182.94 320.084 183.309 321.12C184.926 324.875 181.285 348.832 181.285 348.832L181.196 373.897L182.469 393.323L186.785 380.415C186.785 380.415 188.401 361.562 200.431 360.849C200.431 360.849 204.008 360.48 204.555 363.001C205.103 365.521 202.213 370.359 202.213 375.209C202.213 378.607 202.404 382.465 202.493 384.45C202.552 385.34 202.449 386.233 202.188 387.086C201.067 390.904 197.834 401.801 196.51 407.835C194.893 415.18 181.133 437.292 181.133 437.292C181.133 437.292 169.014 450.225 162.827 456.947C159.708 460.346 153.14 477.375 148.302 490.958M141.988 368.195C142.334 369.458 142.35 370.788 142.033 372.059C141.717 373.33 141.079 374.498 140.181 375.451M121.417 385.991C123.161 383.292 124.867 379.562 124.396 376.38C123.479 370.13 120.577 362.937 121.85 356.751C122.665 352.804 123.479 348.845 124.307 344.899M172.171 326.95C174.257 326.4 176.45 326.4 178.536 326.95C178.536 326.352 178.536 325.766 178.599 325.168M155.457 319.007C156.071 319.425 156.788 319.667 157.53 319.706C158.272 319.746 159.011 319.582 159.667 319.232C160.322 318.882 160.87 318.359 161.25 317.72C161.629 317.082 161.827 316.351 161.821 315.608M201.462 363.192C199.702 363.644 198.156 364.697 197.089 366.168C196.022 367.639 195.503 369.436 195.619 371.25L198.738 372.192M160.498 364.745C160.638 366.883 160.37 371.988 160.498 374.127M162.84 367.711C162.585 371.199 162.326 374.695 162.063 378.2C162.063 377.755 162.063 377.309 162.063 376.864M182.265 397.206C183.189 401.074 182.767 405.142 181.069 408.739M149.995 378.862C147.22 381.905 147.627 389.212 149.588 393.221M170.503 383.89C170.522 387.307 169.316 390.617 167.104 393.221M129.781 380.263C129.318 383.364 129.992 386.529 131.677 389.173M117.967 389.823C117.843 392.244 118.534 394.637 119.928 396.62M134.16 331.138C134.889 330.8 135.702 330.687 136.496 330.814C137.29 330.941 138.028 331.302 138.615 331.851L140.181 329.776M147.22 340.482C148.296 339.846 149.562 339.61 150.794 339.818C152.027 340.025 153.146 340.662 153.954 341.615M167.613 346.847C168.758 346.339 170 346.089 171.252 346.116C172.504 346.142 173.734 346.444 174.857 347M122.232 357.527C122.909 356.394 123.898 355.48 125.081 354.893C126.264 354.306 127.59 354.072 128.902 354.217M113.69 369.697C113.731 368.873 114.053 368.088 114.601 367.472C115.15 366.856 115.893 366.446 116.707 366.311" stroke="#263238" stroke-miterlimit="10"/>
<path d="M448.242 65.0592L21.1951 67.0069L27.6491 57.3195C29.18 55.0297 31.2516 53.1524 33.6805 51.8535C36.1095 50.5547 38.8211 49.8743 41.5755 49.8726H428.002C430.504 49.8732 432.974 50.4351 435.23 51.5168C437.485 52.5985 439.47 54.1725 441.037 56.1229L448.242 65.0592Z" fill="white" stroke="#263238" stroke-linecap="round" stroke-linejoin="round"/>
<path d="M242.159 129.065H218.762C194.753 129.065 175.29 148.528 175.29 172.537V195.935C175.29 219.944 194.753 239.407 218.762 239.407H242.159C266.168 239.407 285.632 219.944 285.632 195.935V172.537C285.632 148.528 266.168 129.065 242.159 129.065Z" fill="#757575" stroke="#263238" stroke-linecap="round" stroke-linejoin="round"/>
<path d="M195.339 193.567V209.25C195.339 211.613 196.278 213.88 197.949 215.551C199.62 217.222 201.886 218.161 204.25 218.161H258.059C260.411 218.161 262.668 217.231 264.337 215.574C266.006 213.916 266.953 211.666 266.97 209.314C267.033 202.249 267.415 193.567 267.415 193.567H195.339Z" fill="#999999" stroke="#263238" stroke-linecap="round" stroke-linejoin="round"/>
<path d="M392.282 198.799H77.5882C75.9697 198.802 74.3876 198.319 73.048 197.41C71.7084 196.502 70.6733 195.212 70.0776 193.707L21.5388 69.0945C21.2451 68.3432 21.1388 67.5316 21.2293 66.73C21.3198 65.9284 21.6043 65.1609 22.0581 64.494C22.5119 63.827 23.1214 63.2807 23.8339 62.9023C24.5463 62.5239 25.3403 62.3248 26.147 62.3223H443.685C444.494 62.3207 445.291 62.5167 446.007 62.8934C446.722 63.27 447.335 63.8159 447.792 64.4835C448.249 65.151 448.536 65.92 448.627 66.7237C448.719 67.5273 448.613 68.3412 448.319 69.0945L399.78 193.669C399.191 195.178 398.16 196.476 396.823 197.391C395.485 198.306 393.903 198.797 392.282 198.799V198.799Z" fill="#BFBFBF" stroke="#263238" stroke-linecap="round" stroke-linejoin="round"/>
<path d="M394.612 187.953H74.4949L30.4497 70.2148H438.453L394.612 187.953Z" fill="#263238"/>
<path d="M267.046 198.633H195.683V203.522H267.046V198.633Z" fill="#263238"/>
<path d="M347.855 182.95H121.799C120.526 182.95 119.38 182.39 119.151 181.677L86.9954 79.4695C86.6389 78.3238 87.6446 77.3945 89.2485 77.3945H380.405C382.009 77.3945 382.951 78.3238 382.645 79.4695L350.503 181.677C350.273 182.326 349.09 182.95 347.855 182.95Z" fill="#FF2957"/>
<path d="M347.015 180.57H122.639L95.3081 90.8118H374.346L347.015 180.57Z" fill="#263238"/>
<path d="M154.845 113.102H112.366C111.309 113.102 110.622 113.662 110.826 114.375C111.03 114.786 111.352 115.127 111.751 115.354C112.15 115.581 112.608 115.683 113.066 115.648H155.304C156.347 115.648 157.086 115.088 156.971 114.375C156.857 113.662 155.889 113.102 154.845 113.102Z" fill="white"/>
<path d="M156.258 120.854H120.131C119.1 120.854 118.412 121.401 118.603 122.127C118.807 122.52 119.122 122.845 119.51 123.06C119.897 123.275 120.339 123.371 120.78 123.336H156.704C157.735 123.336 158.46 122.789 158.346 122.127C158.231 121.465 157.264 120.854 156.258 120.854Z" fill="white"/>
<path opacity="0.5" d="M157.633 128.339H116.643C115.624 128.339 114.963 128.874 115.141 129.51C115.348 129.896 115.663 130.212 116.048 130.42C116.432 130.628 116.869 130.719 117.305 130.682H158.04C159.046 130.682 159.772 130.16 159.657 129.51C159.542 128.861 158.651 128.339 157.633 128.339Z" fill="white"/>
<path d="M158.957 135.57H134.885C133.892 135.57 133.205 136.079 133.357 136.703C133.51 137.327 134.439 137.836 135.432 137.836H159.377C160.37 137.836 161.083 137.327 160.968 136.703C160.854 136.079 159.95 135.57 158.957 135.57Z" fill="white"/>
<path d="M160.243 142.546H120.628C119.66 142.546 118.998 143.042 119.176 143.653C119.355 144.264 120.271 144.735 121.251 144.735H160.637C161.618 144.735 162.318 144.251 162.216 143.653C162.114 143.055 161.223 142.546 160.243 142.546Z" fill="white"/>
<path d="M161.478 149.305H129.5C128.533 149.305 127.884 149.776 128.036 150.362C128.189 150.947 129.093 151.418 130.048 151.418H161.872C162.827 151.418 163.514 150.947 163.413 150.362C163.311 149.776 162.445 149.305 161.478 149.305Z" fill="white"/>
<path d="M162.674 155.835H131.219C130.264 155.835 129.628 156.294 129.78 156.854C129.933 157.414 130.812 157.885 131.754 157.885H163.056C163.998 157.885 164.673 157.427 164.571 156.854C164.469 156.281 163.629 155.835 162.674 155.835Z" fill="white"/>
<path d="M163.833 162.15H129.462C128.533 162.15 127.896 162.595 128.049 163.143C128.202 163.69 129.067 164.136 129.997 164.136H164.151C165.08 164.136 165.755 163.69 165.653 163.143C165.551 162.595 164.775 162.15 163.833 162.15Z" fill="white"/>
<path opacity="0.5" d="M164.965 168.272H142.79C141.874 168.272 141.237 168.705 141.364 169.24C141.492 169.775 142.345 170.195 143.248 170.195H165.309C166.226 170.195 166.888 169.762 166.799 169.24C166.709 168.718 165.882 168.272 164.965 168.272Z" fill="white"/>
<path opacity="0.5" d="M153.369 105.056H121.71C120.64 105.056 119.927 105.642 120.118 106.329C120.322 106.744 120.646 107.087 121.048 107.314C121.45 107.542 121.911 107.642 122.371 107.602H153.84C154.909 107.602 155.66 107.03 155.533 106.329C155.355 105.914 155.05 105.566 154.66 105.337C154.271 105.108 153.818 105.009 153.369 105.056V105.056Z" fill="white"/>
<path d="M151.828 96.7182H107.758C106.676 96.7182 105.963 97.3293 106.179 98.0803C106.394 98.5107 106.73 98.8683 107.147 99.1083C107.563 99.3483 108.042 99.4601 108.521 99.4297H152.325C153.407 99.4297 154.183 98.8187 154.043 98.0803C153.873 97.6427 153.565 97.2727 153.165 97.0268C152.765 96.7809 152.295 96.6725 151.828 96.7182Z" fill="white"/>
<path d="M166.048 174.205H129.526C128.622 174.205 128.011 174.625 128.151 175.134C128.291 175.643 129.144 176.063 130.048 176.063H166.391C167.283 176.063 167.944 175.656 167.855 175.134C167.766 174.612 166.952 174.205 166.048 174.205Z" fill="white"/>
<path opacity="0.5" d="M169.765 115.928H178.001L177.594 112.783H169.294L169.765 115.928Z" fill="white"/>
<path opacity="0.5" d="M170.91 123.591H179.007L178.612 120.548H170.452L170.91 123.591Z" fill="white"/>
<path opacity="0.5" d="M172.018 130.974H179.974L179.592 128.046H171.585L172.018 130.974Z" fill="white"/>
<path opacity="0.5" d="M173.087 138.116H180.916L180.534 135.29H172.667L173.087 138.116Z" fill="white"/>
<path opacity="0.5" d="M174.131 145.015H181.82L181.451 142.278H173.724L174.131 145.015Z" fill="white"/>
<path opacity="0.5" d="M175.124 151.686H182.686L182.342 149.038H174.729L175.124 151.686Z" fill="white"/>
<path opacity="0.5" d="M176.104 158.14H183.538L183.207 155.581H175.722L176.104 158.14Z" fill="white"/>
<path opacity="0.5" d="M177.033 164.377H184.353L184.035 161.908H176.664L177.033 164.377Z" fill="white"/>
<path opacity="0.5" d="M177.95 170.437H185.155L184.837 168.031H177.581L177.95 170.437Z" fill="white"/>
<path opacity="0.5" d="M168.568 107.997H176.957L176.537 104.738H168.084L168.568 107.997Z" fill="white"/>
<path opacity="0.5" d="M167.333 99.7606H175.875L175.442 96.3745H166.824L167.333 99.7606Z" fill="white"/>
<path opacity="0.5" d="M178.828 176.305H185.919L185.613 173.976H178.472L178.828 176.305Z" fill="white"/>
<path d="M222.25 163.143C222.25 162.595 222.962 162.15 223.892 162.15H345.869C346.798 162.15 347.422 162.595 347.269 163.143C347.069 163.476 346.779 163.746 346.432 163.922C346.085 164.098 345.696 164.172 345.309 164.136H223.955C223.026 164.136 222.262 163.69 222.25 163.143Z" fill="white"/>
<path d="M347.104 157.885H279.56C278.618 157.885 277.905 157.427 277.968 156.854C278.032 156.281 278.847 155.835 279.801 155.835H347.689C348.631 155.835 349.268 156.294 349.103 156.854C348.904 157.2 348.609 157.481 348.255 157.664C347.901 157.847 347.501 157.923 347.104 157.885V157.885Z" fill="white"/>
<path opacity="0.5" d="M263.532 157.885H242.554C241.612 157.885 240.848 157.427 240.861 156.854C240.873 156.281 241.637 155.835 242.592 155.835H263.685C264.627 155.835 265.365 156.294 265.314 156.854C265.264 157.414 264.474 157.885 263.532 157.885Z" fill="white"/>
<path d="M307.374 151.418H212.104C211.149 151.418 210.347 150.947 210.309 150.362C210.271 149.776 211.022 149.305 211.989 149.305H307.768C308.723 149.305 309.423 149.776 309.309 150.362C309.194 150.947 308.341 151.418 307.374 151.418Z" fill="white"/>
<path opacity="0.5" d="M192.182 149.305H198.98C199.934 149.305 200.762 149.776 200.813 150.362C200.864 150.947 200.125 151.418 199.171 151.418H192.411C191.456 151.418 190.629 150.947 190.565 150.362C190.502 149.776 191.227 149.305 192.182 149.305Z" fill="white"/>
<path d="M321.16 143.653C321.033 144.251 320.142 144.735 319.162 144.735H229.391C228.411 144.735 227.622 144.251 227.609 143.653C227.596 143.055 228.386 142.546 229.353 142.546H319.62C320.6 142.546 321.288 143.042 321.16 143.653Z" fill="white"/>
<path d="M191.469 142.546H216.929C217.909 142.546 218.724 143.042 218.749 143.653C218.775 144.264 217.998 144.735 217.031 144.735H191.698C190.731 144.735 189.891 144.251 189.814 143.653C189.738 143.055 190.489 142.546 191.469 142.546Z" fill="white"/>
<path d="M190.718 135.57H288.661C289.654 135.57 290.392 136.079 290.303 136.703C290.214 137.327 289.348 137.836 288.356 137.836H190.96C189.979 137.836 189.114 137.327 189.05 136.703C188.987 136.079 189.725 135.57 190.718 135.57Z" fill="white"/>
<path d="M254.303 130.682C253.298 130.682 252.508 130.16 252.534 129.51C252.559 128.861 253.399 128.339 254.418 128.339H306.088C307.107 128.339 307.832 128.874 307.718 129.51C307.603 130.147 306.699 130.682 305.694 130.682H254.303Z" fill="white"/>
<path d="M189.954 128.339H234.674C235.692 128.339 236.507 128.874 236.507 129.51C236.507 130.147 235.68 130.682 234.674 130.682H190.209C189.19 130.682 188.325 130.16 188.248 129.51C188.172 128.861 188.936 128.339 189.954 128.339Z" fill="white"/>
<path d="M357.033 123.286H233.923C232.905 123.286 232.064 122.738 232.064 122.076C232.064 121.414 232.892 120.803 233.923 120.803H357.72C358.752 120.803 359.426 121.351 359.235 122.076C359.025 122.469 358.704 122.793 358.314 123.007C357.923 123.222 357.478 123.319 357.033 123.286Z" fill="white"/>
<path d="M359.223 115.622H250.905C249.861 115.622 249.033 115.062 249.059 114.349C249.084 113.636 249.95 113.076 250.994 113.076H359.948C360.992 113.076 361.679 113.636 361.476 114.349C361.268 114.76 360.943 115.101 360.542 115.327C360.141 115.554 359.682 115.656 359.223 115.622Z" fill="white"/>
<path opacity="0.5" d="M361.514 107.666H338.83C337.76 107.666 337.035 107.093 337.2 106.393C337.399 105.977 337.72 105.632 338.121 105.404C338.521 105.177 338.982 105.078 339.441 105.12H362.214C363.284 105.12 363.984 105.705 363.767 106.393C363.556 106.801 363.23 107.138 362.83 107.364C362.43 107.59 361.973 107.695 361.514 107.666Z" fill="white"/>
<path d="M322.955 107.666H239.664C238.607 107.666 237.742 107.093 237.755 106.393C237.767 105.693 238.62 105.12 239.689 105.12H323.477C324.546 105.12 325.285 105.706 325.145 106.393C324.958 106.807 324.647 107.153 324.254 107.381C323.862 107.609 323.407 107.709 322.955 107.666V107.666Z" fill="white"/>
<path d="M194.181 168.272H271.107C272.023 168.272 272.723 168.705 272.66 169.24C272.596 169.775 271.832 170.195 270.916 170.195H194.422C193.506 170.195 192.717 169.762 192.653 169.24C192.589 168.718 193.289 168.272 194.181 168.272Z" fill="white"/>
<path d="M194.842 174.205H313.026C313.917 174.205 314.566 174.625 314.452 175.134C314.337 175.643 313.535 176.063 312.631 176.063H195.046C194.142 176.063 193.366 175.656 193.315 175.134C193.264 174.612 193.938 174.205 194.842 174.205Z" fill="white"/>
<path d="M318.818 99.4297H258.657C257.575 99.4297 256.735 98.8187 256.773 98.0804C256.811 97.342 257.715 96.7183 258.81 96.7183H319.328C320.422 96.7183 321.186 97.3293 321.046 98.0804C320.865 98.5117 320.552 98.8746 320.151 99.1171C319.751 99.3595 319.285 99.4689 318.818 99.4297V99.4297Z" fill="white"/>
<path opacity="0.5" d="M241.599 99.4297H186.861C185.779 99.4297 184.824 98.8187 184.748 98.0804C184.671 97.342 185.473 96.7183 186.568 96.7183H241.625C242.707 96.7183 243.585 97.3293 243.572 98.0804C243.559 98.8314 242.681 99.4297 241.599 99.4297Z" fill="white"/>
<path opacity="0.5" d="M288.19 168.272C289.107 168.272 289.794 168.705 289.718 169.24C289.641 169.775 288.839 170.195 287.923 170.195H282.016C281.112 170.195 280.425 169.762 280.488 169.24C280.552 168.718 281.341 168.272 282.258 168.272H288.19Z" fill="white"/>
<path opacity="0.5" d="M215.236 163.143C215.236 163.69 214.536 164.136 213.606 164.136H205.51C204.581 164.136 203.792 163.69 203.753 163.143C203.715 162.595 204.428 162.15 205.357 162.15H213.492C214.421 162.15 215.21 162.583 215.236 163.143Z" fill="white"/>
<path opacity="0.5" d="M312.937 136.703C312.822 137.327 311.919 137.836 310.938 137.836H301.467C300.475 137.836 299.762 137.327 299.851 136.703C299.94 136.079 300.844 135.57 301.837 135.57H311.359C312.351 135.57 313.064 136.079 312.937 136.703Z" fill="white"/>
<path opacity="0.5" d="M342.483 142.546C343.463 142.546 344.125 143.042 343.96 143.653C343.761 144.014 343.461 144.308 343.096 144.5C342.732 144.693 342.32 144.774 341.91 144.735H334.361C333.381 144.735 332.719 144.252 332.859 143.653C333.049 143.286 333.344 142.984 333.707 142.786C334.07 142.589 334.485 142.505 334.896 142.546H342.483Z" fill="white"/>
<path opacity="0.5" d="M219.016 123.286C217.998 123.286 217.145 122.738 217.107 122.076C217.069 121.414 217.896 120.803 218.927 120.803H226.96C227.991 120.803 228.831 121.351 228.844 122.076C228.856 122.802 228.029 123.286 227.011 123.286H219.016Z" fill="white"/>
<path d="M109.616 84.0905C109.81 84.519 109.888 84.9905 109.844 85.4586C109.8 85.9266 109.636 86.3753 109.366 86.7604C109.096 87.1456 108.731 87.454 108.307 87.6554C107.882 87.8569 107.412 87.9444 106.943 87.9094C105.822 87.843 104.747 87.4443 103.853 86.7642C102.96 86.084 102.29 85.1532 101.928 84.0905C101.735 83.664 101.657 83.1951 101.7 82.7293C101.743 82.2636 101.905 81.8168 102.172 81.4324C102.438 81.048 102.8 80.7391 103.221 80.5357C103.642 80.3323 104.109 80.2413 104.575 80.2715C105.702 80.3296 106.784 80.7248 107.683 81.4058C108.582 82.0867 109.256 83.0221 109.616 84.0905V84.0905Z" fill="white"/>
<path d="M119.978 84.154C120.151 84.5939 120.21 85.0705 120.149 85.5394C120.089 86.0082 119.91 86.454 119.63 86.8353C119.351 87.2165 118.979 87.5207 118.55 87.7197C118.122 87.9186 117.649 88.0057 117.178 87.9729C116.071 87.9109 115.009 87.5118 114.135 86.8292C113.262 86.1466 112.617 85.2131 112.289 84.154C112.121 83.716 112.065 83.243 112.126 82.7778C112.187 82.3126 112.364 81.8701 112.639 81.4905C112.915 81.111 113.282 80.8065 113.705 80.6046C114.129 80.4028 114.596 80.3101 115.065 80.335C116.178 80.3865 117.247 80.7813 118.127 81.465C119.007 82.1488 119.654 83.0881 119.978 84.154V84.154Z" fill="white"/>
<path d="M130.455 84.0904C130.609 84.5399 130.649 85.0204 130.573 85.4893C130.497 85.9582 130.306 86.4011 130.018 86.7787C129.73 87.1563 129.353 87.457 128.92 87.6542C128.488 87.8515 128.014 87.9391 127.54 87.9093C126.443 87.8574 125.391 87.4601 124.534 86.7743C123.676 86.0884 123.058 85.149 122.766 84.0904C122.616 83.642 122.578 83.1638 122.655 82.6973C122.732 82.2308 122.922 81.7902 123.208 81.4138C123.494 81.0374 123.868 80.7365 124.297 80.5375C124.726 80.3384 125.196 80.247 125.669 80.2714C126.769 80.3149 127.827 80.7088 128.688 81.3958C129.549 82.0828 130.168 83.0269 130.455 84.0904V84.0904Z" fill="white"/>
<path opacity="0.1" d="M30.4497 70.2148L64.7566 161.908L106.141 70.2148H30.4497Z" fill="white"/>
<path opacity="0.1" d="M88.332 187.953L156.984 70.2148H228.844L127.807 187.953H88.332Z" fill="white"/>
<path opacity="0.1" d="M259.815 69.6294L152.809 187.953H169.294L280.132 70.215L259.815 69.6294Z" fill="white"/>
<path opacity="0.1" d="M280.947 187.953L398.545 70.2148H415.145L293.893 187.953H280.947Z" fill="white"/>
<path d="M282.5 240.107H255.64C253.963 240.107 252.353 240.769 251.162 241.949C249.97 243.129 249.292 244.731 249.275 246.408V259.482C249.275 261.17 249.946 262.789 251.139 263.982C252.333 265.176 253.952 265.847 255.64 265.847H262.667L267.975 277.902L275.473 265.847H282.5C284.188 265.847 285.807 265.176 287.001 263.982C288.194 262.789 288.865 261.17 288.865 259.482V246.408C288.848 244.731 288.17 243.129 286.978 241.949C285.786 240.769 284.177 240.107 282.5 240.107Z" fill="white"/>
<path d="M362.61 239.05H335.75C334.062 239.05 332.443 239.721 331.249 240.915C330.056 242.108 329.385 243.727 329.385 245.415V258.476C329.385 260.164 330.056 261.783 331.249 262.977C332.443 264.17 334.062 264.841 335.75 264.841H342.777L348.085 276.896L355.583 264.841H362.61C364.298 264.841 365.917 264.17 367.111 262.977C368.304 261.783 368.975 260.164 368.975 258.476V245.326C368.952 243.653 368.271 242.057 367.079 240.883C365.888 239.708 364.283 239.05 362.61 239.05Z" fill="white"/>
<path d="M202.244 240.871H175.359C173.67 240.871 172.052 241.541 170.858 242.735C169.664 243.928 168.994 245.547 168.994 247.236V260.309C168.994 261.997 169.664 263.616 170.858 264.81C172.052 266.003 173.67 266.674 175.359 266.674H182.385L187.694 278.729L195.192 266.674H202.218C203.907 266.674 205.525 266.003 206.719 264.81C207.913 263.616 208.583 261.997 208.583 260.309V247.185C208.57 245.51 207.897 243.908 206.71 242.726C205.524 241.544 203.919 240.877 202.244 240.871Z" fill="white"/>
<path d="M120.493 239.05H93.6459C91.9578 239.05 90.3389 239.721 89.1452 240.915C87.9516 242.108 87.281 243.727 87.281 245.415V258.476C87.281 260.164 87.9516 261.783 89.1452 262.977C90.3389 264.17 91.9578 264.841 93.6459 264.841H100.66L105.981 276.896L113.479 264.841H120.493C122.181 264.841 123.8 264.17 124.994 262.977C126.187 261.783 126.858 260.164 126.858 258.476V245.326C126.835 243.653 126.154 242.057 124.963 240.883C123.771 239.708 122.166 239.05 120.493 239.05Z" fill="white"/>
<path d="M322.275 219.943H295.415C293.727 219.943 292.108 220.613 290.914 221.807C289.721 223.001 289.05 224.62 289.05 226.308V239.369C289.05 241.057 289.721 242.676 290.914 243.869C292.108 245.063 293.727 245.733 295.415 245.733H302.429L307.75 257.789L315.248 245.733H322.275C323.963 245.733 325.582 245.063 326.776 243.869C327.969 242.676 328.64 241.057 328.64 239.369V226.231C328.62 224.557 327.94 222.957 326.749 221.78C325.557 220.603 323.95 219.943 322.275 219.943Z" fill="white"/>
<path d="M242.225 220H215.365C213.677 220 212.058 220.671 210.864 221.864C209.671 223.058 209 224.677 209 226.365V239.426C209 241.114 209.671 242.733 210.864 243.926C212.058 245.12 213.677 245.791 215.365 245.791H222.392L227.713 257.846L235.211 245.791H242.225C243.913 245.791 245.532 245.12 246.725 243.926C247.919 242.733 248.59 241.114 248.59 239.426V226.314C248.576 224.635 247.9 223.029 246.708 221.846C245.515 220.664 243.904 220 242.225 220Z" fill="white"/>
<path d="M161.174 220H134.365C132.677 220 131.058 220.671 129.864 221.864C128.671 223.058 128 224.677 128 226.365V239.426C128 241.114 128.671 242.733 129.864 243.927C131.058 245.12 132.677 245.791 134.365 245.791H141.392L146.7 257.846L154.198 245.791H161.225C162.913 245.791 164.532 245.12 165.725 243.927C166.919 242.733 167.59 241.114 167.59 239.426V226.314C167.583 225.478 167.412 224.652 167.086 223.882C166.76 223.113 166.285 222.415 165.69 221.828C165.094 221.242 164.388 220.779 163.614 220.465C162.839 220.151 162.01 219.993 161.174 220Z" fill="white"/>
<path d="M282.5 240.107H255.64C253.963 240.107 252.353 240.769 251.162 241.949C249.97 243.129 249.292 244.731 249.275 246.408V259.482C249.275 261.17 249.946 262.789 251.139 263.982C252.333 265.176 253.952 265.847 255.64 265.847H262.667L267.975 277.902L275.473 265.847H282.5C284.188 265.847 285.807 265.176 287.001 263.982C288.194 262.789 288.865 261.17 288.865 259.482V246.408C288.848 244.731 288.17 243.129 286.978 241.949C285.786 240.769 284.177 240.107 282.5 240.107Z" stroke="#263238" stroke-linecap="round" stroke-linejoin="round"/>
<path d="M362.61 239.05H335.75C334.062 239.05 332.443 239.721 331.249 240.915C330.056 242.108 329.385 243.727 329.385 245.415V258.476C329.385 260.164 330.056 261.783 331.249 262.977C332.443 264.17 334.062 264.841 335.75 264.841H342.777L348.085 276.896L355.583 264.841H362.61C364.298 264.841 365.917 264.17 367.111 262.977C368.304 261.783 368.975 260.164 368.975 258.476V245.326C368.952 243.653 368.271 242.057 367.079 240.883C365.888 239.708 364.283 239.05 362.61 239.05Z" stroke="#263238" stroke-linecap="round" stroke-linejoin="round"/>
<path d="M202.244 240.871H175.359C173.67 240.871 172.052 241.541 170.858 242.735C169.664 243.928 168.994 245.547 168.994 247.236V260.309C168.994 261.997 169.664 263.616 170.858 264.81C172.052 266.003 173.67 266.674 175.359 266.674H182.385L187.694 278.729L195.192 266.674H202.218C203.907 266.674 205.525 266.003 206.719 264.81C207.913 263.616 208.583 261.997 208.583 260.309V247.185C208.57 245.51 207.897 243.908 206.71 242.726C205.524 241.544 203.919 240.877 202.244 240.871Z" stroke="#263238" stroke-linecap="round" stroke-linejoin="round"/>
<path d="M120.493 239.05H93.6459C91.9578 239.05 90.3389 239.721 89.1452 240.915C87.9516 242.108 87.281 243.727 87.281 245.415V258.476C87.281 260.164 87.9516 261.783 89.1452 262.977C90.3389 264.17 91.9578 264.841 93.6459 264.841H100.66L105.981 276.896L113.479 264.841H120.493C122.181 264.841 123.8 264.17 124.994 262.977C126.187 261.783 126.858 260.164 126.858 258.476V245.326C126.835 243.653 126.154 242.057 124.963 240.883C123.771 239.708 122.166 239.05 120.493 239.05Z" stroke="#263238" stroke-linecap="round" stroke-linejoin="round"/>
<path d="M322.275 219.943H295.415C293.727 219.943 292.108 220.613 290.914 221.807C289.721 223.001 289.05 224.62 289.05 226.308V239.369C289.05 241.057 289.721 242.676 290.914 243.869C292.108 245.063 293.727 245.733 295.415 245.733H302.429L307.75 257.789L315.248 245.733H322.275C323.963 245.733 325.582 245.063 326.776 243.869C327.969 242.676 328.64 241.057 328.64 239.369V226.231C328.62 224.557 327.94 222.957 326.749 221.78C325.557 220.603 323.95 219.943 322.275 219.943Z" stroke="#263238" stroke-linecap="round" stroke-linejoin="round"/>
<path d="M242.225 220H215.365C213.677 220 212.058 220.671 210.864 221.864C209.671 223.058 209 224.677 209 226.365V239.426C209 241.114 209.671 242.733 210.864 243.926C212.058 245.12 213.677 245.791 215.365 245.791H222.392L227.713 257.846L235.211 245.791H242.225C243.913 245.791 245.532 245.12 246.725 243.926C247.919 242.733 248.59 241.114 248.59 239.426V226.314C248.576 224.635 247.9 223.029 246.708 221.846C245.515 220.664 243.904 220 242.225 220Z" stroke="#263238" stroke-linecap="round" stroke-linejoin="round"/>
<path d="M161.174 220H134.365C132.677 220 131.058 220.671 129.864 221.864C128.671 223.058 128 224.677 128 226.365V239.426C128 241.114 128.671 242.733 129.864 243.927C131.058 245.12 132.677 245.791 134.365 245.791H141.392L146.7 257.846L154.198 245.791H161.225C162.913 245.791 164.532 245.12 165.725 243.927C166.919 242.733 167.59 241.114 167.59 239.426V226.314C167.583 225.478 167.412 224.652 167.086 223.882C166.76 223.113 166.285 222.415 165.69 221.828C165.094 221.242 164.388 220.779 163.614 220.465C162.839 220.151 162.01 219.993 161.174 220Z" stroke="#263238" stroke-linecap="round" stroke-linejoin="round"/>
<path d="M261.145 257V253.15H259.539V251.665H261.145V250.84C261.145 250.275 261.336 249.824 261.717 249.487C262.106 249.142 262.612 248.97 263.235 248.97H265.006V250.4H263.29C263.143 250.4 263.022 250.448 262.927 250.543C262.839 250.631 262.795 250.748 262.795 250.895V251.665H265.006V253.15H262.795V257H261.145Z" fill="#263238"/>
<path d="M268.896 257.11C268.36 257.11 267.895 257.011 267.499 256.813C267.103 256.608 266.795 256.325 266.575 255.966C266.362 255.599 266.256 255.174 266.256 254.69V253.26C266.256 252.776 266.362 252.354 266.575 251.995C266.795 251.628 267.103 251.346 267.499 251.148C267.895 250.943 268.36 250.84 268.896 250.84C269.438 250.84 269.904 250.943 270.293 251.148C270.689 251.346 270.993 251.628 271.206 251.995C271.426 252.354 271.536 252.776 271.536 253.26V254.69C271.536 255.174 271.426 255.599 271.206 255.966C270.993 256.325 270.689 256.608 270.293 256.813C269.904 257.011 269.438 257.11 268.896 257.11ZM268.896 255.68C269.218 255.68 269.464 255.596 269.633 255.427C269.801 255.251 269.886 255.005 269.886 254.69V253.26C269.886 252.937 269.801 252.692 269.633 252.523C269.464 252.354 269.218 252.27 268.896 252.27C268.58 252.27 268.335 252.354 268.159 252.523C267.99 252.692 267.906 252.937 267.906 253.26V254.69C267.906 255.005 267.99 255.251 268.159 255.427C268.335 255.596 268.58 255.68 268.896 255.68Z" fill="#263238"/>
<path d="M273.093 257V250.95H274.633V252.105H275.051L274.578 252.809C274.578 252.156 274.729 251.665 275.029 251.335C275.33 251.005 275.77 250.84 276.349 250.84C277.017 250.84 277.534 251.042 277.9 251.445C278.274 251.848 278.461 252.417 278.461 253.15V253.645H276.701V253.26C276.701 252.93 276.61 252.673 276.426 252.49C276.25 252.307 276.012 252.215 275.711 252.215C275.396 252.215 275.154 252.307 274.985 252.49C274.824 252.673 274.743 252.93 274.743 253.26V257H273.093Z" fill="#263238"/>
<path d="M333.99 257L333.11 250.95H334.43L334.87 254.25C334.907 254.492 334.936 254.767 334.958 255.075C334.987 255.383 335.009 255.636 335.024 255.834C335.046 255.636 335.075 255.387 335.112 255.086C335.156 254.778 335.196 254.499 335.233 254.25L335.739 250.95H336.883L337.367 254.25C337.404 254.499 337.44 254.778 337.477 255.086C337.521 255.394 337.554 255.647 337.576 255.845C337.591 255.64 337.613 255.383 337.642 255.075C337.679 254.76 337.712 254.485 337.741 254.25L338.203 250.95H339.49L338.599 257H336.949L336.498 253.59C336.469 253.385 336.436 253.139 336.399 252.853C336.362 252.567 336.333 252.329 336.311 252.138C336.282 252.329 336.249 252.567 336.212 252.853C336.175 253.139 336.142 253.385 336.113 253.59L335.651 257H333.99Z" fill="#263238"/>
<path d="M340.322 257V248.97H341.972V250.95L341.917 252.105H342.401L341.917 252.49C341.917 251.977 342.063 251.573 342.357 251.28C342.65 250.987 343.046 250.84 343.545 250.84C344.131 250.84 344.601 251.045 344.953 251.456C345.312 251.867 345.492 252.413 345.492 253.095V257H343.842V253.26C343.842 252.945 343.757 252.703 343.589 252.534C343.427 252.358 343.196 252.27 342.896 252.27C342.602 252.27 342.375 252.358 342.214 252.534C342.052 252.703 341.972 252.945 341.972 253.26V257H340.322Z" fill="#263238"/>
<path d="M346.961 257V255.504H349.051V252.435H347.236V250.95H350.591V255.504H352.351V257H346.961ZM349.711 249.993C349.411 249.993 349.169 249.916 348.985 249.762C348.809 249.608 348.721 249.399 348.721 249.135C348.721 248.871 348.809 248.662 348.985 248.508C349.169 248.354 349.411 248.277 349.711 248.277C350.012 248.277 350.25 248.354 350.426 248.508C350.61 248.662 350.701 248.871 350.701 249.135C350.701 249.399 350.61 249.608 350.426 249.762C350.25 249.916 350.012 249.993 349.711 249.993Z" fill="#263238"/>
<path d="M357.132 257C356.707 257 356.333 256.912 356.01 256.736C355.687 256.553 355.434 256.3 355.251 255.977C355.075 255.654 354.987 255.28 354.987 254.855V250.455H353.062V248.97H356.637V254.855C356.637 255.053 356.696 255.214 356.813 255.339C356.938 255.456 357.099 255.515 357.297 255.515H359.002V257H357.132Z" fill="#263238"/>
<path d="M362.694 257.11C362.158 257.11 361.689 257.011 361.286 256.813C360.89 256.608 360.582 256.325 360.362 255.966C360.149 255.599 360.043 255.174 360.043 254.69V253.26C360.043 252.776 360.149 252.354 360.362 251.995C360.582 251.628 360.89 251.346 361.286 251.148C361.689 250.943 362.158 250.84 362.694 250.84C363.229 250.84 363.691 250.943 364.08 251.148C364.476 251.346 364.78 251.628 364.993 251.995C365.213 252.354 365.323 252.776 365.323 253.26V254.36H361.616V254.69C361.616 255.071 361.708 255.361 361.891 255.559C362.074 255.75 362.349 255.845 362.716 255.845C362.972 255.845 363.178 255.801 363.332 255.713C363.493 255.625 363.599 255.504 363.651 255.35H365.268C365.136 255.878 364.835 256.303 364.366 256.626C363.904 256.949 363.346 257.11 362.694 257.11ZM363.75 253.513V253.238C363.75 252.864 363.662 252.578 363.486 252.38C363.317 252.182 363.053 252.083 362.694 252.083C362.334 252.083 362.063 252.186 361.88 252.391C361.704 252.596 361.616 252.886 361.616 253.26V253.425L363.86 253.403L363.75 253.513Z" fill="#263238"/>
<path d="M178.311 257.11C177.776 257.11 177.306 257.011 176.903 256.813C176.507 256.608 176.199 256.325 175.979 255.966C175.766 255.599 175.66 255.174 175.66 254.69V253.26C175.66 252.776 175.766 252.354 175.979 251.995C176.199 251.628 176.507 251.346 176.903 251.148C177.306 250.943 177.776 250.84 178.311 250.84C178.846 250.84 179.308 250.943 179.697 251.148C180.093 251.346 180.397 251.628 180.61 251.995C180.83 252.354 180.94 252.776 180.94 253.26V254.36H177.233V254.69C177.233 255.071 177.325 255.361 177.508 255.559C177.691 255.75 177.966 255.845 178.333 255.845C178.59 255.845 178.795 255.801 178.949 255.713C179.11 255.625 179.217 255.504 179.268 255.35H180.885C180.753 255.878 180.452 256.303 179.983 256.626C179.521 256.949 178.964 257.11 178.311 257.11ZM179.367 253.513V253.238C179.367 252.864 179.279 252.578 179.103 252.38C178.934 252.182 178.67 252.083 178.311 252.083C177.952 252.083 177.68 252.186 177.497 252.391C177.321 252.596 177.233 252.886 177.233 253.26V253.425L179.477 253.403L179.367 253.513Z" fill="#263238"/>
<path d="M185.941 257C185.515 257 185.141 256.912 184.819 256.736C184.496 256.553 184.243 256.3 184.06 255.977C183.884 255.654 183.796 255.28 183.796 254.855V250.455H181.871V248.97H185.446V254.855C185.446 255.053 185.504 255.214 185.622 255.339C185.746 255.456 185.908 255.515 186.106 255.515H187.811V257H185.941Z" fill="#263238"/>
<path d="M191.238 257.11C190.74 257.11 190.303 257.033 189.929 256.879C189.555 256.718 189.262 256.498 189.049 256.219C188.844 255.94 188.741 255.614 188.741 255.24H190.391C190.391 255.416 190.468 255.559 190.622 255.669C190.784 255.772 190.989 255.823 191.238 255.823H191.722C192.023 255.823 192.25 255.768 192.404 255.658C192.566 255.548 192.646 255.394 192.646 255.196C192.646 255.013 192.577 254.873 192.437 254.778C192.298 254.675 192.082 254.606 191.788 254.569L191.084 254.481C190.329 254.386 189.779 254.202 189.434 253.931C189.09 253.66 188.917 253.245 188.917 252.688C188.917 252.101 189.119 251.647 189.522 251.324C189.926 251.001 190.516 250.84 191.293 250.84H191.711C192.452 250.84 193.042 251.001 193.482 251.324C193.922 251.647 194.142 252.079 194.142 252.622H192.492C192.492 252.475 192.419 252.358 192.272 252.27C192.133 252.175 191.946 252.127 191.711 252.127H191.293C191.022 252.127 190.824 252.175 190.699 252.27C190.575 252.358 190.512 252.494 190.512 252.677C190.512 252.846 190.567 252.974 190.677 253.062C190.795 253.15 190.978 253.212 191.227 253.249L191.986 253.348C192.749 253.443 193.314 253.634 193.68 253.92C194.054 254.206 194.241 254.631 194.241 255.196C194.241 255.812 194.029 256.285 193.603 256.615C193.178 256.945 192.551 257.11 191.722 257.11H191.238Z" fill="#263238"/>
<path d="M198.098 257.11C197.563 257.11 197.093 257.011 196.69 256.813C196.294 256.608 195.986 256.325 195.766 255.966C195.553 255.599 195.447 255.174 195.447 254.69V253.26C195.447 252.776 195.553 252.354 195.766 251.995C195.986 251.628 196.294 251.346 196.69 251.148C197.093 250.943 197.563 250.84 198.098 250.84C198.633 250.84 199.095 250.943 199.484 251.148C199.88 251.346 200.184 251.628 200.397 251.995C200.617 252.354 200.727 252.776 200.727 253.26V254.36H197.02V254.69C197.02 255.071 197.112 255.361 197.295 255.559C197.478 255.75 197.753 255.845 198.12 255.845C198.377 255.845 198.582 255.801 198.736 255.713C198.897 255.625 199.004 255.504 199.055 255.35H200.672C200.54 255.878 200.239 256.303 199.77 256.626C199.308 256.949 198.751 257.11 198.098 257.11ZM199.154 253.513V253.238C199.154 252.864 199.066 252.578 198.89 252.38C198.721 252.182 198.457 252.083 198.098 252.083C197.739 252.083 197.467 252.186 197.284 252.391C197.108 252.596 197.02 252.886 197.02 253.26V253.425L199.264 253.403L199.154 253.513Z" fill="#263238"/>
<path d="M100.77 257V255.504H102.86V252.435H101.045V250.95H104.4V255.504H106.16V257H100.77ZM103.52 249.993C103.219 249.993 102.977 249.916 102.794 249.762C102.618 249.608 102.53 249.399 102.53 249.135C102.53 248.871 102.618 248.662 102.794 248.508C102.977 248.354 103.219 248.277 103.52 248.277C103.821 248.277 104.059 248.354 104.235 248.508C104.418 248.662 104.51 248.871 104.51 249.135C104.51 249.399 104.418 249.608 104.235 249.762C104.059 249.916 103.821 249.993 103.52 249.993Z" fill="#263238"/>
<path d="M108.741 257V253.15H107.135V251.665H108.741V250.84C108.741 250.275 108.931 249.824 109.313 249.487C109.701 249.142 110.207 248.97 110.831 248.97H112.602V250.4H110.886C110.739 250.4 110.618 250.448 110.523 250.543C110.435 250.631 110.391 250.748 110.391 250.895V251.665H112.602V253.15H110.391V257H108.741Z" fill="#263238"/>
<path d="M306.76 239.92C305.064 239.461 303.757 238.699 302.84 237.632C301.933 236.555 301.48 235.243 301.48 233.696V230.8C301.48 229.787 301.688 228.864 302.104 228.032C302.531 227.2 303.139 226.491 303.928 225.904C304.717 225.307 305.661 224.859 306.76 224.56V226.96C306.163 227.109 305.645 227.36 305.208 227.712C304.781 228.064 304.451 228.501 304.216 229.024C303.992 229.547 303.88 230.139 303.88 230.8V233.696C303.88 234.336 303.992 234.917 304.216 235.44C304.451 235.952 304.781 236.384 305.208 236.736C305.645 237.088 306.163 237.339 306.76 237.488V239.92Z" fill="#263238"/>
<path d="M310.434 239.92V237.488C311.031 237.339 311.543 237.088 311.97 236.736C312.407 236.384 312.738 235.952 312.962 235.44C313.196 234.917 313.314 234.336 313.314 233.696V230.8C313.314 230.139 313.196 229.547 312.962 229.024C312.738 228.501 312.412 228.064 311.986 227.712C311.559 227.36 311.042 227.109 310.434 226.96V224.56C311.543 224.859 312.487 225.307 313.266 225.904C314.055 226.491 314.658 227.2 315.074 228.032C315.5 228.864 315.714 229.787 315.714 230.8V233.696C315.714 235.243 315.255 236.555 314.338 237.632C313.431 238.699 312.13 239.461 310.434 239.92Z" fill="#263238"/>
<path d="M226.04 239.776C225.464 239.776 224.947 239.653 224.488 239.408C224.04 239.163 223.693 238.816 223.448 238.368C223.213 237.931 223.117 237.413 223.16 236.816L223.32 234.496C223.341 234.155 223.245 233.883 223.032 233.68C222.819 233.477 222.541 233.376 222.2 233.376H220.2V231.136H222.2C222.541 231.136 222.819 231.035 223.032 230.832C223.245 230.619 223.341 230.347 223.32 230.016L223.16 227.6C223.128 227.013 223.229 226.507 223.464 226.08C223.699 225.643 224.04 225.307 224.488 225.072C224.936 224.837 225.453 224.72 226.04 224.72H227.4V226.96H226.52C226.221 226.96 225.981 227.035 225.8 227.184C225.619 227.333 225.539 227.579 225.56 227.92L225.72 230.336C225.763 230.923 225.555 231.397 225.096 231.76C224.648 232.112 224.029 232.288 223.24 232.288V232.176C224.029 232.176 224.648 232.363 225.096 232.736C225.555 233.099 225.763 233.579 225.72 234.176L225.56 236.576C225.549 236.864 225.635 237.099 225.816 237.28C225.997 237.451 226.232 237.536 226.52 237.536H227.4V239.776H226.04Z" fill="#263238"/>
<path d="M229.794 239.776V237.536H230.674C230.962 237.536 231.196 237.451 231.378 237.28C231.57 237.099 231.655 236.864 231.634 236.576L231.474 234.176C231.431 233.579 231.639 233.099 232.098 232.736C232.556 232.363 233.175 232.176 233.954 232.176V232.288C233.175 232.288 232.556 232.112 232.098 231.76C231.639 231.397 231.431 230.923 231.474 230.336L231.634 227.92C231.655 227.579 231.575 227.333 231.394 227.184C231.223 227.035 230.983 226.96 230.674 226.96H229.794V224.72H231.154C231.74 224.72 232.258 224.837 232.706 225.072C233.154 225.307 233.495 225.643 233.73 226.08C233.975 226.507 234.076 227.013 234.034 227.6L233.874 230.016C233.852 230.347 233.948 230.619 234.162 230.832C234.386 231.035 234.663 231.136 234.994 231.136H236.994V233.376H234.994C234.663 233.376 234.386 233.477 234.162 233.68C233.948 233.883 233.852 234.155 233.874 234.496L234.034 236.816C234.076 237.413 233.975 237.931 233.73 238.368C233.495 238.816 233.154 239.163 232.706 239.408C232.258 239.653 231.74 239.776 231.154 239.776H229.794Z" fill="#263238"/>
<path d="M140.72 239.76V224.72H145.6V226.96H143.12V237.52H145.6V239.76H140.72Z" fill="#263238"/>
<path d="M149.594 239.76V237.52H152.074V226.96H149.594V224.72H154.474V239.76H149.594Z" fill="#263238"/>
</svg>
