<svg id="typing-bro" viewBox="0 0 458 500" fill="none" xmlns="http://www.w3.org/2000/svg" role="img" focusable="false">
<title>Illustration of a first person view typing on a keyboard and looking at code</title>
<path d="M267.963 498.596C424.854 487.292 444.271 291.1 456.364 191.165C470.171 77.0632 312.305 -55.5813 213.861 24.4044C115.417 104.39 0 77.8756 0 270.732C0 463.589 122.532 509.074 267.963 498.596Z" fill="#C4C4C4"/>
<path d="M381.754 281.937H88.1156V405.607H381.754V281.937Z" fill="#FF2957" stroke="#263238" stroke-linecap="round" stroke-linejoin="round"/>
<path d="M121.875 289.422H94.2515V304.711H121.875V289.422Z" fill="white"/>
<path d="M374.957 363.968H331.446V379.256H374.957V363.968Z" fill="white"/>
<path d="M374.957 308.517H348.097V323.806H374.957V308.517Z" fill="white"/>
<path d="M121.875 345.115H94.2515V360.404H121.875V345.115Z" fill="white"/>
<path d="M116.618 326.695H94.2515V341.984H116.618V326.695Z" fill="white"/>
<path d="M109.54 308.059H94.2515V323.347H109.54V308.059Z" fill="white"/>
<path d="M129.067 308.059H113.779V323.347H129.067V308.059Z" fill="white"/>
<path d="M148.582 308.059H133.294V323.347H148.582V308.059Z" fill="white"/>
<path d="M168.097 308.059H152.809V323.347H168.097V308.059Z" fill="white"/>
<path d="M187.624 308.059H172.336V323.347H187.624V308.059Z" fill="white"/>
<path d="M207.139 308.059H191.851V323.347H207.139V308.059Z" fill="white"/>
<path d="M226.654 308.059H211.366V323.347H226.654V308.059Z" fill="white"/>
<path d="M246.182 308.059H230.893V323.347H246.182V308.059Z" fill="white"/>
<path d="M265.696 308.059H250.408V323.347H265.696V308.059Z" fill="white"/>
<path d="M285.211 308.059H269.923V323.347H285.211V308.059Z" fill="white"/>
<path d="M304.739 308.059H289.45V323.347H304.739V308.059Z" fill="white"/>
<path d="M324.254 308.059H308.965V323.347H324.254V308.059Z" fill="white"/>
<path d="M343.781 308.059H328.493V323.347H343.781V308.059Z" fill="white"/>
<path d="M109.54 382.834H94.2515V398.122H109.54V382.834Z" fill="white"/>
<path d="M129.067 382.834H113.779V398.122H129.067V382.834Z" fill="white"/>
<path d="M148.582 382.834H133.294V398.122H148.582V382.834Z" fill="white"/>
<path d="M171.471 382.834H152.809V398.122H171.471V382.834Z" fill="white"/>
<path d="M269.07 382.834H175.697V398.122H269.07V382.834Z" fill="white"/>
<path d="M315.75 382.834H300.462V398.122H315.75V382.834Z" fill="white"/>
<path d="M335.265 382.834H319.977V398.122H335.265V382.834Z" fill="white"/>
<path d="M354.818 382.834H339.529V398.122H354.818V382.834Z" fill="white"/>
<path d="M296.63 382.834H272.889V398.122H296.63V382.834Z" fill="white"/>
<path d="M374.957 382.834H359.668V398.122H374.957V382.834Z" fill="white"/>
<path d="M136.247 326.695H120.959V341.984H136.247V326.695Z" fill="white"/>
<path d="M155.762 326.695H140.473V341.984H155.762V326.695Z" fill="white"/>
<path d="M175.289 326.695H160.001V341.984H175.289V326.695Z" fill="white"/>
<path d="M194.804 326.695H179.516V341.984H194.804V326.695Z" fill="white"/>
<path d="M214.332 326.695H199.043V341.984H214.332V326.695Z" fill="white"/>
<path d="M233.847 326.695H218.558V341.984H233.847V326.695Z" fill="white"/>
<path d="M253.361 326.695H238.073V341.984H253.361V326.695Z" fill="white"/>
<path d="M272.889 326.695H257.601V341.984H272.889V326.695Z" fill="white"/>
<path d="M292.404 326.695H277.115V341.984H292.404V326.695Z" fill="white"/>
<path d="M311.919 326.695H296.63V341.984H311.919V326.695Z" fill="white"/>
<path d="M331.446 326.695H316.158V341.984H331.446V326.695Z" fill="white"/>
<path d="M350.961 326.695H335.672V341.984H350.961V326.695Z" fill="white"/>
<path d="M374.957 326.695V360.633H359.668V341.997H355.187V326.695H374.957Z" fill="white"/>
<path d="M140.728 345.332H125.44V360.62H140.728V345.332Z" fill="white"/>
<path d="M160.243 345.332H144.954V360.62H160.243V345.332Z" fill="white"/>
<path d="M179.758 345.332H164.469V360.62H179.758V345.332Z" fill="white"/>
<path d="M199.285 345.332H183.997V360.62H199.285V345.332Z" fill="white"/>
<path d="M218.8 345.332H203.512V360.62H218.8V345.332Z" fill="white"/>
<path d="M238.327 345.332H223.039V360.62H238.327V345.332Z" fill="white"/>
<path d="M257.842 345.332H242.554V360.62H257.842V345.332Z" fill="white"/>
<path d="M277.357 345.332H262.069V360.62H277.357V345.332Z" fill="white"/>
<path d="M296.885 345.332H281.596V360.62H296.885V345.332Z" fill="white"/>
<path d="M316.399 345.332H301.111V360.62H316.399V345.332Z" fill="white"/>
<path d="M335.914 345.332H320.626V360.62H335.914V345.332Z" fill="white"/>
<path d="M355.442 345.332H340.153V360.62H355.442V345.332Z" fill="white"/>
<path d="M132.428 363.968H117.14V379.256H132.428V363.968Z" fill="white"/>
<path d="M151.943 363.968H136.655V379.256H151.943V363.968Z" fill="white"/>
<path d="M171.47 363.968H156.182V379.256H171.47V363.968Z" fill="white"/>
<path d="M190.985 363.968H175.697V379.256H190.985V363.968Z" fill="white"/>
<path d="M210.5 363.968H195.212V379.256H210.5V363.968Z" fill="white"/>
<path d="M230.028 363.968H214.739V379.256H230.028V363.968Z" fill="white"/>
<path d="M249.542 363.968H234.254V379.256H249.542V363.968Z" fill="white"/>
<path d="M269.07 363.968H253.782V379.256H269.07V363.968Z" fill="white"/>
<path d="M288.585 363.968H273.296V379.256H288.585V363.968Z" fill="white"/>
<path d="M308.1 363.968H292.811V379.256H308.1V363.968Z" fill="white"/>
<path d="M327.627 363.968H312.339V379.256H327.627V363.968Z" fill="white"/>
<path d="M140.728 290.339H125.44V305.627H140.728V290.339Z" fill="white"/>
<path d="M160.243 290.339H144.954V305.627H160.243V290.339Z" fill="white"/>
<path d="M179.758 290.339H164.469V305.627H179.758V290.339Z" fill="white"/>
<path d="M199.285 290.339H183.997V305.627H199.285V290.339Z" fill="white"/>
<path d="M218.8 290.339H203.512V305.627H218.8V290.339Z" fill="white"/>
<path d="M238.327 290.339H223.039V305.627H238.327V290.339Z" fill="white"/>
<path d="M257.842 290.339H242.554V305.627H257.842V290.339Z" fill="white"/>
<path d="M277.357 290.339H262.069V305.627H277.357V290.339Z" fill="white"/>
<path d="M296.885 290.339H281.596V305.627H296.885V290.339Z" fill="white"/>
<path d="M316.399 290.339H301.111V305.627H316.399V290.339Z" fill="white"/>
<path d="M335.914 290.339H320.626V305.627H335.914V290.339Z" fill="white"/>
<path d="M355.442 290.339H340.153V305.627H355.442V290.339Z" fill="white"/>
<path d="M374.957 290.339H359.668V305.627H374.957V290.339Z" fill="white"/>
<path d="M112.773 363.968H94.2515V379.256H112.773V363.968Z" fill="white"/>
<path d="M121.875 289.422H94.2515V304.711H121.875V289.422Z" stroke="#263238" stroke-miterlimit="10"/>
<path d="M374.957 363.968H331.446V379.256H374.957V363.968Z" stroke="#263238" stroke-miterlimit="10"/>
<path d="M374.957 308.517H348.097V323.806H374.957V308.517Z" stroke="#263238" stroke-miterlimit="10"/>
<path d="M121.875 345.115H94.2515V360.404H121.875V345.115Z" stroke="#263238" stroke-miterlimit="10"/>
<path d="M116.618 326.695H94.2515V341.984H116.618V326.695Z" stroke="#263238" stroke-miterlimit="10"/>
<path d="M109.54 308.059H94.2515V323.347H109.54V308.059Z" stroke="#263238" stroke-miterlimit="10"/>
<path d="M129.067 308.059H113.779V323.347H129.067V308.059Z" stroke="#263238" stroke-miterlimit="10"/>
<path d="M148.582 308.059H133.294V323.347H148.582V308.059Z" stroke="#263238" stroke-miterlimit="10"/>
<path d="M168.097 308.059H152.809V323.347H168.097V308.059Z" stroke="#263238" stroke-miterlimit="10"/>
<path d="M187.624 308.059H172.336V323.347H187.624V308.059Z" stroke="#263238" stroke-miterlimit="10"/>
<path d="M207.139 308.059H191.851V323.347H207.139V308.059Z" stroke="#263238" stroke-miterlimit="10"/>
<path d="M226.654 308.059H211.366V323.347H226.654V308.059Z" stroke="#263238" stroke-miterlimit="10"/>
<path d="M246.182 308.059H230.893V323.347H246.182V308.059Z" stroke="#263238" stroke-miterlimit="10"/>
<path d="M265.696 308.059H250.408V323.347H265.696V308.059Z" stroke="#263238" stroke-miterlimit="10"/>
<path d="M285.211 308.059H269.923V323.347H285.211V308.059Z" stroke="#263238" stroke-miterlimit="10"/>
<path d="M304.739 308.059H289.45V323.347H304.739V308.059Z" stroke="#263238" stroke-miterlimit="10"/>
<path d="M324.254 308.059H308.965V323.347H324.254V308.059Z" stroke="#263238" stroke-miterlimit="10"/>
<path d="M343.781 308.059H328.493V323.347H343.781V308.059Z" stroke="#263238" stroke-miterlimit="10"/>
<path d="M109.54 382.834H94.2515V398.122H109.54V382.834Z" stroke="#263238" stroke-miterlimit="10"/>
<path d="M129.067 382.834H113.779V398.122H129.067V382.834Z" stroke="#263238" stroke-miterlimit="10"/>
<path d="M148.582 382.834H133.294V398.122H148.582V382.834Z" stroke="#263238" stroke-miterlimit="10"/>
<path d="M171.471 382.834H152.809V398.122H171.471V382.834Z" stroke="#263238" stroke-miterlimit="10"/>
<path d="M269.07 382.834H175.697V398.122H269.07V382.834Z" stroke="#263238" stroke-miterlimit="10"/>
<path d="M315.75 382.834H300.462V398.122H315.75V382.834Z" stroke="#263238" stroke-miterlimit="10"/>
<path d="M335.265 382.834H319.977V398.122H335.265V382.834Z" stroke="#263238" stroke-miterlimit="10"/>
<path d="M354.818 382.834H339.529V398.122H354.818V382.834Z" stroke="#263238" stroke-miterlimit="10"/>
<path d="M296.63 382.834H272.889V398.122H296.63V382.834Z" stroke="#263238" stroke-miterlimit="10"/>
<path d="M374.957 382.834H359.668V398.122H374.957V382.834Z" stroke="#263238" stroke-miterlimit="10"/>
<path d="M136.247 326.695H120.959V341.984H136.247V326.695Z" stroke="#263238" stroke-miterlimit="10"/>
<path d="M155.762 326.695H140.473V341.984H155.762V326.695Z" stroke="#263238" stroke-miterlimit="10"/>
<path d="M175.289 326.695H160.001V341.984H175.289V326.695Z" stroke="#263238" stroke-miterlimit="10"/>
<path d="M194.804 326.695H179.516V341.984H194.804V326.695Z" stroke="#263238" stroke-miterlimit="10"/>
<path d="M214.332 326.695H199.043V341.984H214.332V326.695Z" stroke="#263238" stroke-miterlimit="10"/>
<path d="M233.847 326.695H218.558V341.984H233.847V326.695Z" stroke="#263238" stroke-miterlimit="10"/>
<path d="M253.361 326.695H238.073V341.984H253.361V326.695Z" stroke="#263238" stroke-miterlimit="10"/>
<path d="M272.889 326.695H257.601V341.984H272.889V326.695Z" stroke="#263238" stroke-miterlimit="10"/>
<path d="M292.404 326.695H277.115V341.984H292.404V326.695Z" stroke="#263238" stroke-miterlimit="10"/>
<path d="M311.919 326.695H296.63V341.984H311.919V326.695Z" stroke="#263238" stroke-miterlimit="10"/>
<path d="M331.446 326.695H316.158V341.984H331.446V326.695Z" stroke="#263238" stroke-miterlimit="10"/>
<path d="M350.961 326.695H335.672V341.984H350.961V326.695Z" stroke="#263238" stroke-miterlimit="10"/>
<path d="M374.957 326.695V360.633H359.668V341.997H355.187V326.695H374.957Z" stroke="#263238" stroke-miterlimit="10"/>
<path d="M140.728 345.332H125.44V360.62H140.728V345.332Z" stroke="#263238" stroke-miterlimit="10"/>
<path d="M160.243 345.332H144.954V360.62H160.243V345.332Z" stroke="#263238" stroke-miterlimit="10"/>
<path d="M179.758 345.332H164.469V360.62H179.758V345.332Z" stroke="#263238" stroke-miterlimit="10"/>
<path d="M199.285 345.332H183.997V360.62H199.285V345.332Z" stroke="#263238" stroke-miterlimit="10"/>
<path d="M218.8 345.332H203.512V360.62H218.8V345.332Z" stroke="#263238" stroke-miterlimit="10"/>
<path d="M238.327 345.332H223.039V360.62H238.327V345.332Z" stroke="#263238" stroke-miterlimit="10"/>
<path d="M257.842 345.332H242.554V360.62H257.842V345.332Z" stroke="#263238" stroke-miterlimit="10"/>
<path d="M277.357 345.332H262.069V360.62H277.357V345.332Z" stroke="#263238" stroke-miterlimit="10"/>
<path d="M296.885 345.332H281.596V360.62H296.885V345.332Z" stroke="#263238" stroke-miterlimit="10"/>
<path d="M316.399 345.332H301.111V360.62H316.399V345.332Z" stroke="#263238" stroke-miterlimit="10"/>
<path d="M335.914 345.332H320.626V360.62H335.914V345.332Z" stroke="#263238" stroke-miterlimit="10"/>
<path d="M355.442 345.332H340.153V360.62H355.442V345.332Z" stroke="#263238" stroke-miterlimit="10"/>
<path d="M132.428 363.968H117.14V379.256H132.428V363.968Z" stroke="#263238" stroke-miterlimit="10"/>
<path d="M151.943 363.968H136.655V379.256H151.943V363.968Z" stroke="#263238" stroke-miterlimit="10"/>
<path d="M171.47 363.968H156.182V379.256H171.47V363.968Z" stroke="#263238" stroke-miterlimit="10"/>
<path d="M190.985 363.968H175.697V379.256H190.985V363.968Z" stroke="#263238" stroke-miterlimit="10"/>
<path d="M210.5 363.968H195.212V379.256H210.5V363.968Z" stroke="#263238" stroke-miterlimit="10"/>
<path d="M230.028 363.968H214.739V379.256H230.028V363.968Z" stroke="#263238" stroke-miterlimit="10"/>
<path d="M249.542 363.968H234.254V379.256H249.542V363.968Z" stroke="#263238" stroke-miterlimit="10"/>
<path d="M269.07 363.968H253.782V379.256H269.07V363.968Z" stroke="#263238" stroke-miterlimit="10"/>
<path d="M288.585 363.968H273.296V379.256H288.585V363.968Z" stroke="#263238" stroke-miterlimit="10"/>
<path d="M308.1 363.968H292.811V379.256H308.1V363.968Z" stroke="#263238" stroke-miterlimit="10"/>
<path d="M327.627 363.968H312.339V379.256H327.627V363.968Z" stroke="#263238" stroke-miterlimit="10"/>
<path d="M140.728 290.339H125.44V305.627H140.728V290.339Z" stroke="#263238" stroke-miterlimit="10"/>
<path d="M160.243 290.339H144.954V305.627H160.243V290.339Z" stroke="#263238" stroke-miterlimit="10"/>
<path d="M179.758 290.339H164.469V305.627H179.758V290.339Z" stroke="#263238" stroke-miterlimit="10"/>
<path d="M199.285 290.339H183.997V305.627H199.285V290.339Z" stroke="#263238" stroke-miterlimit="10"/>
<path d="M218.8 290.339H203.512V305.627H218.8V290.339Z" stroke="#263238" stroke-miterlimit="10"/>
<path d="M238.327 290.339H223.039V305.627H238.327V290.339Z" stroke="#263238" stroke-miterlimit="10"/>
<path d="M257.842 290.339H242.554V305.627H257.842V290.339Z" stroke="#263238" stroke-miterlimit="10"/>
<path d="M277.357 290.339H262.069V305.627H277.357V290.339Z" stroke="#263238" stroke-miterlimit="10"/>
<path d="M296.885 290.339H281.596V305.627H296.885V290.339Z" stroke="#263238" stroke-miterlimit="10"/>
<path d="M316.399 290.339H301.111V305.627H316.399V290.339Z" stroke="#263238" stroke-miterlimit="10"/>
<path d="M335.914 290.339H320.626V305.627H335.914V290.339Z" stroke="#263238" stroke-miterlimit="10"/>
<path d="M355.442 290.339H340.153V305.627H355.442V290.339Z" stroke="#263238" stroke-miterlimit="10"/>
<path d="M374.957 290.339H359.668V305.627H374.957V290.339Z" stroke="#263238" stroke-miterlimit="10"/>
<path d="M112.773 363.968H94.2515V379.256H112.773V363.968Z" stroke="#263238" stroke-miterlimit="10"/>
<path d="M88.1156 282.726L94.2514 280.69H377.77L381.805 282.701L88.1156 282.726Z" fill="#263238"/>
<path opacity="0.2" d="M297.241 494.14L291.742 458.869C290.424 453.509 287.622 448.63 283.658 444.79C271.782 433.333 256.086 421.57 255.411 406.6C254.38 383.686 250.803 384.336 251.185 378.671C252.735 375.966 254.101 373.159 255.271 370.269C256.01 368.048 256.588 365.776 257.002 363.472C257.245 362.34 257.902 361.341 258.844 360.669C259.786 359.998 260.946 359.703 262.094 359.844C263.707 360.057 265.214 360.764 266.41 361.868C268.51 364.108 269.668 367.071 269.643 370.142C269.606 373.18 269.178 376.201 268.37 379.129C270.369 384.193 271.654 389.51 272.189 394.927C273.551 390.726 274.582 386.487 275.944 382.299C276.224 382.146 276.122 381.815 276.39 381.662C274.467 377.538 276.097 377.767 272.291 368.691C265.926 353.415 258.746 338.687 253.642 319.49C253.227 317.71 253.266 315.854 253.756 314.093C255.602 308.606 261.254 309.866 263.724 313.061C264.37 313.904 264.885 314.84 265.251 315.837C268.604 324.013 272.681 331.873 277.434 339.323L291.296 360.455C291.296 360.455 296.121 356.496 296.859 354.726C297.585 352.944 297.941 338.597 297.941 338.597C297.941 338.597 296.846 341.283 294.415 341.143C292.658 341.016 289.094 342.035 286.561 339.183C285.577 338.03 285.018 336.576 284.977 335.061C284.935 333.546 285.413 332.063 286.332 330.858L292.607 322.38C293.982 321.296 295.629 320.612 297.367 320.403C299.106 320.194 300.868 320.468 302.46 321.196C306.513 323.234 310.247 325.85 313.548 328.961C316.862 328.868 320.155 329.502 323.197 330.82C327.64 332.958 332.299 339.094 332.299 339.094C332.299 339.094 337.48 339.412 339.81 341.105C340.395 341.525 348.3 353.835 345.449 363.421C343.756 369.136 342.712 377.423 341.948 379.664L338.066 435.79L345.894 472.706L327.157 481.411C321.042 484.821 320.155 487.139 311.244 489.685C310.608 490.322 301.06 492.867 297.241 494.14Z" fill="black"/>
<path d="M345.245 429.246L345.398 372.968C346.009 370.702 346.506 362.351 347.804 356.534C350.019 346.783 341.312 335.02 340.701 334.638C338.257 333.124 333.063 333.149 333.063 333.149C333.063 333.149 327.971 327.332 323.426 325.511C320.308 324.381 316.98 323.947 313.675 324.238C310.176 321.349 306.274 318.986 302.091 317.224C300.454 316.605 298.678 316.449 296.959 316.772C295.239 317.096 293.641 317.886 292.34 319.057L286.65 327.968C285.811 329.232 285.43 330.745 285.571 332.255C285.713 333.766 286.367 335.182 287.426 336.268C290.151 338.954 293.639 337.694 295.395 337.694C297.827 337.694 298.743 334.944 298.743 334.944C298.743 334.944 299.342 349.278 298.743 351.098C298.12 352.918 293.562 357.183 293.562 357.183L278.286 337.032C273.04 329.918 268.451 322.343 264.576 314.398C264.137 313.432 263.558 312.535 262.858 311.738C260.185 308.708 254.469 307.829 252.98 313.418C252.613 315.209 252.697 317.064 253.221 318.815C259.586 337.63 267.708 351.849 275.104 366.667C279.496 375.463 277.866 375.361 280.056 379.333C279.801 379.511 279.929 379.842 279.649 380.008C278.579 384.285 277.828 388.575 276.746 392.852C275.85 387.482 274.209 382.264 271.871 377.347C272.488 374.368 272.715 371.321 272.545 368.283C272.354 365.214 270.986 362.337 268.726 360.251C267.461 359.227 265.908 358.622 264.284 358.52C263.118 358.444 261.967 358.811 261.061 359.547C260.155 360.284 259.56 361.335 259.395 362.491C259.14 364.815 258.715 367.117 258.122 369.378C257.147 372.339 255.973 375.231 254.609 378.034C254.609 383.712 258.122 382.783 260.681 405.62C262.667 423.442 285.581 435.166 298.056 448.01L311.346 489.84C329.066 483.32 342.432 476.319 355.162 465.499L345.245 429.246Z" fill="white"/>
<path d="M315.114 326.275C317.356 334.578 318.519 343.135 318.576 351.735C318.504 353.175 318.659 354.619 319.035 356.012C319.233 356.705 319.605 357.336 320.115 357.846C320.625 358.356 321.257 358.728 321.95 358.927M333.076 334.638C336.894 342.607 332.986 360.416 333.266 361.664C333.385 362.298 333.638 362.898 334.01 363.426C334.381 363.953 334.861 364.394 335.418 364.719M300.258 325.193C299.813 327.739 299.444 330.654 298.985 333.187C297.502 331.914 296.287 330.358 295.413 328.609C294.538 326.86 294.022 324.954 293.893 323.004M275.868 393.106L273.106 394.265M276.568 395.309C276.129 397.434 276.129 399.626 276.568 401.75M292.658 371.529C293.677 373.35 294.682 375.183 295.701 377.016M298.565 351.442L301.595 347.165M341.121 371.529L340.204 374.877M333.712 362.351C334.561 359.5 335.456 356.648 336.398 353.797M342.674 347.165C343.48 346.746 344.419 346.662 345.286 346.932C346.154 347.201 346.88 347.802 347.308 348.603M324.381 332.564C325.438 332.268 326.551 332.242 327.621 332.486C328.69 332.731 329.681 333.239 330.504 333.964M267.683 341.054C268.671 339.971 269.9 339.137 271.272 338.619C272.644 338.102 274.118 337.915 275.575 338.076M256.188 317.046C257.098 316.389 258.128 315.918 259.22 315.661C260.313 315.403 261.445 315.363 262.552 315.544M259.777 368.232C261.789 366.794 264.997 370.002 266.843 368.36C267.17 367.991 267.398 367.546 267.507 367.065C267.616 366.584 267.602 366.084 267.466 365.61C267.194 364.663 267.069 363.68 267.097 362.695M316.539 359.398C318.988 364.483 319.486 370.29 317.94 375.718M331.332 367.252C331.726 369.663 331.277 372.136 330.059 374.254M311.244 489.685L298.145 448.491C285.67 435.647 262.756 423.897 260.77 406.101C258.224 383.264 254.698 384.193 254.698 378.515C256.063 375.712 257.236 372.82 258.212 369.859C258.804 367.598 259.229 365.296 259.485 362.972C259.649 361.816 260.244 360.765 261.15 360.028C262.057 359.292 263.208 358.925 264.373 359.001C265.997 359.103 267.55 359.708 268.816 360.732C271.075 362.818 272.443 365.695 272.635 368.764C272.804 371.802 272.578 374.849 271.96 377.828C274.298 382.745 275.939 387.963 276.835 393.333C277.917 389.056 278.668 384.766 279.738 380.488C280.018 380.323 279.891 379.992 280.145 379.814C277.956 375.842 279.585 375.995 275.193 367.148C267.797 352.33 259.688 338.111 253.311 319.296C252.786 317.545 252.703 315.69 253.069 313.899C254.558 308.31 260.274 309.189 262.947 312.218C263.647 313.016 264.226 313.913 264.666 314.879C268.54 322.824 273.129 330.399 278.376 337.513L293.651 357.664C293.651 357.664 298.209 353.399 298.832 351.579C299.431 349.759 298.832 335.425 298.832 335.425C298.832 335.425 297.916 338.175 295.485 338.175C293.728 338.175 290.24 339.448 287.516 336.749C286.457 335.663 285.802 334.247 285.66 332.736C285.519 331.226 285.9 329.713 286.739 328.449L292.429 319.538C293.73 318.367 295.328 317.577 297.048 317.253C298.768 316.93 300.543 317.086 302.18 317.705C306.363 319.467 310.265 321.83 313.765 324.719C317.069 324.427 320.397 324.862 323.516 325.992C328.098 327.838 333.152 333.63 333.152 333.63C333.152 333.63 338.333 333.63 340.79 335.119C341.401 335.501 350.108 347.264 347.893 357.015C346.62 362.832 346.098 371.183 345.487 373.449L345.335 429.727L355.162 465.33M258.555 374.012C257.079 375.181 255.816 376.598 254.825 378.2L258.555 374.012Z" stroke="#263238" stroke-miterlimit="10"/>
<path opacity="0.2" d="M208.247 386.36C208.362 387.242 208.323 388.138 208.132 389.008C207.305 392.827 204.912 404.003 204.033 410.114C202.99 417.573 190.934 440.665 190.934 440.665C190.934 440.665 179.834 454.464 174.182 461.644C171.407 465.17 163.489 479.934 159.759 493.504C152.121 492.231 147.365 490.782 145.718 490.194C141.899 488.832 141.301 489.265 137.482 487.776C130.669 484.945 125.341 480.569 118.909 476.955C121.022 469.317 121.468 460.88 121.442 460.536C121.379 459.734 125.974 450.887 125.974 450.887L121.964 398.084L119.597 390.051C118.366 385.904 117.585 381.636 117.267 377.322C116.769 370.771 117.324 364.182 118.909 357.807L125.821 347.547L129.055 347.305L139.06 333.302C139.06 333.302 144.471 331.672 145.858 335.746C147.246 339.82 141.352 347.432 141.352 347.432L139.328 359.996L144.14 371.759L146.686 372.675C146.686 372.675 147.526 351.964 146.953 347.827L152.172 328.999C153.737 325.916 155.123 322.746 156.322 319.503C157.29 316.333 162.98 313.138 166.251 318.752C166.807 319.77 167.139 320.895 167.227 322.051C167.315 323.208 167.156 324.37 166.761 325.46C165.424 329.343 164.316 332.398 164.316 332.398C164.316 332.398 163.043 348.412 162.725 348.858C162.407 349.303 165.08 372.701 165.08 372.701L167.168 373.63L167.906 351.289L172.247 330.298C172.247 330.298 171.891 320.203 179.007 321.387C180.104 321.345 181.19 321.633 182.122 322.214C183.055 322.795 183.792 323.642 184.239 324.646C186.135 328.274 184.328 352.435 184.328 352.435L186.084 377.411L188.898 396.671L192.207 383.47C192.207 383.47 192.398 364.554 204.339 362.937C204.339 362.937 207.891 362.3 208.616 364.77C209.342 367.24 206.847 372.281 207.203 377.118C207.521 380.555 208.005 384.387 208.247 386.36Z" fill="black"/>
<path d="M204.619 362.975C204.072 360.429 200.495 360.824 200.495 360.824C188.465 361.537 186.848 380.39 186.848 380.39L182.533 393.298L181.26 373.872L181.387 348.832C181.387 348.832 185.028 324.875 183.411 321.12C183.042 320.084 182.37 319.183 181.482 318.534C180.595 317.885 179.533 317.517 178.434 317.479C171.432 315.722 171.025 325.817 171.025 325.817L165.118 346.414L162.687 368.627L160.676 367.558C160.676 367.558 159.721 343.982 160.128 343.588C160.536 343.193 162.954 327.306 162.954 327.306C162.954 327.306 164.291 324.34 165.92 320.572C166.398 319.514 166.645 318.366 166.645 317.205C166.645 316.044 166.398 314.896 165.92 313.838C163.082 308.059 157.175 310.758 155.953 313.838C154.518 316.98 152.903 320.036 151.116 322.991L144.369 341.436C144.623 345.612 142.23 366.209 142.23 366.209L139.799 365.101L135.891 353.008L138.87 340.622C138.87 340.622 145.324 333.493 144.242 329.318C143.16 325.142 137.647 326.364 137.647 326.364L126.56 339.527H123.314L115.676 349.214C112.235 359.598 111.629 370.712 113.919 381.408L115.676 389.593V442.498C115.676 442.498 110.431 450.976 110.431 451.778C110.431 452.148 105.492 466.071 102.475 474.409C105.658 476.955 120.297 482.684 132.39 486.503C137.576 488.14 142.574 489.685 148.302 490.958C153.14 477.375 159.823 460.295 162.942 456.896C169.128 450.175 181.247 437.241 181.247 437.241C181.247 437.241 195.008 415.129 196.625 407.784C197.898 401.75 201.182 390.79 202.302 387.035C202.563 386.182 202.667 385.289 202.608 384.4C202.519 382.414 202.328 378.557 202.328 375.158C202.277 370.333 205.154 365.483 204.619 362.975Z" fill="white"/>
<path d="M102.475 474.409C105.492 466.071 110.393 452.173 110.393 451.804C110.393 451.002 115.638 442.524 115.638 442.524V389.619L113.881 381.434C111.59 370.737 112.197 359.623 115.638 349.24L123.275 339.552H126.522L137.546 326.364C137.546 326.364 143.07 325.091 144.14 329.318C145.209 333.544 138.768 340.622 138.768 340.622L135.789 353.008L139.697 365.101L142.128 366.209C142.128 366.209 144.522 345.612 144.267 341.436L151.014 322.991C152.801 320.036 154.416 316.98 155.851 313.838C157.124 310.758 162.98 308.059 165.819 313.838C166.296 314.896 166.543 316.044 166.543 317.205C166.543 318.366 166.296 319.514 165.819 320.572C164.189 324.391 162.852 327.306 162.852 327.306C162.852 327.306 160.434 343.18 160.026 343.588C159.619 343.995 160.574 367.558 160.574 367.558L162.585 368.627L165.017 346.414L170.923 325.817C170.923 325.817 171.331 315.722 178.332 317.479C179.431 317.517 180.493 317.885 181.381 318.534C182.268 319.183 182.94 320.084 183.309 321.12C184.926 324.875 181.285 348.832 181.285 348.832L181.196 373.897L182.469 393.323L186.785 380.415C186.785 380.415 188.401 361.562 200.431 360.849C200.431 360.849 204.008 360.48 204.555 363.001C205.103 365.521 202.213 370.359 202.213 375.209C202.213 378.607 202.404 382.465 202.493 384.45C202.552 385.34 202.449 386.233 202.188 387.086C201.067 390.904 197.834 401.801 196.51 407.835C194.893 415.18 181.133 437.292 181.133 437.292C181.133 437.292 169.014 450.225 162.827 456.947C159.708 460.346 153.14 477.375 148.302 490.958M141.988 368.195C142.334 369.458 142.35 370.788 142.033 372.059C141.717 373.33 141.079 374.498 140.181 375.451M121.417 385.991C123.161 383.292 124.867 379.562 124.396 376.38C123.479 370.13 120.577 362.937 121.85 356.751C122.665 352.804 123.479 348.845 124.307 344.899M172.171 326.95C174.257 326.4 176.45 326.4 178.536 326.95C178.536 326.352 178.536 325.766 178.599 325.168M155.457 319.007C156.071 319.425 156.788 319.667 157.53 319.706C158.272 319.746 159.011 319.582 159.667 319.232C160.322 318.882 160.87 318.359 161.25 317.72C161.629 317.082 161.827 316.351 161.821 315.608M201.462 363.192C199.702 363.644 198.156 364.697 197.089 366.168C196.022 367.639 195.503 369.436 195.619 371.25L198.738 372.192M160.498 364.745C160.638 366.883 160.37 371.988 160.498 374.127M162.84 367.711C162.585 371.199 162.326 374.695 162.063 378.2C162.063 377.755 162.063 377.309 162.063 376.864M182.265 397.206C183.189 401.074 182.767 405.142 181.069 408.739M149.995 378.862C147.22 381.905 147.627 389.212 149.588 393.221M170.503 383.89C170.522 387.307 169.316 390.617 167.104 393.221M129.781 380.263C129.318 383.364 129.992 386.529 131.677 389.173M117.967 389.823C117.843 392.244 118.534 394.637 119.928 396.62M134.16 331.138C134.889 330.8 135.702 330.687 136.496 330.814C137.29 330.941 138.028 331.302 138.615 331.851L140.181 329.776M147.22 340.482C148.296 339.846 149.562 339.61 150.794 339.818C152.027 340.025 153.146 340.662 153.954 341.615M167.613 346.847C168.758 346.339 170 346.089 171.252 346.116C172.504 346.142 173.734 346.444 174.857 347M122.232 357.527C122.909 356.394 123.898 355.48 125.081 354.893C126.264 354.306 127.59 354.072 128.902 354.217M113.69 369.697C113.731 368.873 114.053 368.088 114.601 367.472C115.15 366.856 115.893 366.446 116.707 366.311" stroke="#263238" stroke-miterlimit="10"/>
<path d="M448.242 65.0592L21.1951 67.0069L27.6491 57.3195C29.18 55.0297 31.2516 53.1524 33.6805 51.8535C36.1095 50.5547 38.8211 49.8743 41.5755 49.8726H428.002C430.504 49.8732 432.974 50.4351 435.23 51.5168C437.485 52.5985 439.47 54.1725 441.037 56.1229L448.242 65.0592Z" fill="white" stroke="#263238" stroke-linecap="round" stroke-linejoin="round"/>
<path d="M242.159 129.065H218.762C194.753 129.065 175.29 148.528 175.29 172.537V195.935C175.29 219.944 194.753 239.407 218.762 239.407H242.159C266.168 239.407 285.632 219.944 285.632 195.935V172.537C285.632 148.528 266.168 129.065 242.159 129.065Z" fill="#757575" stroke="#263238" stroke-linecap="round" stroke-linejoin="round"/>
<path d="M195.339 193.567V209.25C195.339 211.613 196.278 213.88 197.949 215.551C199.62 217.222 201.887 218.161 204.25 218.161H258.059C260.411 218.161 262.668 217.231 264.337 215.574C266.007 213.916 266.953 211.666 266.97 209.314C267.033 202.249 267.415 193.567 267.415 193.567H195.339Z" fill="#999999" stroke="#263238" stroke-linecap="round" stroke-linejoin="round"/>
<path d="M392.282 198.799H77.5882C75.9697 198.802 74.3876 198.319 73.048 197.41C71.7084 196.502 70.6733 195.212 70.0776 193.707L21.5388 69.0945C21.2451 68.3432 21.1388 67.5316 21.2293 66.73C21.3198 65.9284 21.6043 65.1609 22.0581 64.494C22.5119 63.827 23.1214 63.2807 23.8339 62.9023C24.5463 62.5239 25.3403 62.3248 26.147 62.3223H443.685C444.494 62.3207 445.291 62.5167 446.007 62.8934C446.722 63.27 447.335 63.8159 447.792 64.4835C448.249 65.151 448.536 65.92 448.627 66.7237C448.719 67.5273 448.613 68.3412 448.319 69.0945L399.78 193.669C399.191 195.178 398.16 196.476 396.823 197.391C395.485 198.306 393.903 198.797 392.282 198.799V198.799Z" fill="#BFBFBF" stroke="#263238" stroke-linecap="round" stroke-linejoin="round"/>
<path d="M394.612 187.953H74.4949L30.4497 70.2148H438.453L394.612 187.953Z" fill="#263238"/>
<path d="M267.046 198.633H195.683V203.522H267.046V198.633Z" fill="#263238"/>
<path d="M347.855 182.95H121.799C120.526 182.95 119.38 182.39 119.151 181.677L86.9954 79.4695C86.6389 78.3238 87.6446 77.3945 89.2485 77.3945H380.405C382.009 77.3945 382.951 78.3238 382.645 79.4695L350.503 181.677C350.273 182.326 349.09 182.95 347.855 182.95Z" fill="#FF2957"/>
<path d="M347.015 180.57H122.639L95.308 90.8118H374.346L347.015 180.57Z" fill="#263238"/>
<path d="M154.845 113.102H112.366C111.309 113.102 110.622 113.662 110.826 114.375C111.03 114.786 111.352 115.127 111.751 115.354C112.15 115.581 112.608 115.683 113.066 115.648H155.304C156.347 115.648 157.086 115.088 156.971 114.375C156.857 113.662 155.889 113.102 154.845 113.102Z" fill="white"/>
<path d="M156.258 120.854H120.131C119.1 120.854 118.412 121.401 118.603 122.127C118.807 122.52 119.122 122.845 119.51 123.06C119.897 123.275 120.339 123.371 120.78 123.336H156.704C157.735 123.336 158.46 122.789 158.346 122.127C158.231 121.465 157.264 120.854 156.258 120.854Z" fill="white"/>
<path opacity="0.5" d="M157.633 128.339H116.643C115.625 128.339 114.963 128.874 115.141 129.51C115.348 129.896 115.663 130.212 116.048 130.42C116.432 130.628 116.869 130.719 117.305 130.682H158.04C159.046 130.682 159.772 130.16 159.657 129.51C159.542 128.861 158.651 128.339 157.633 128.339Z" fill="white"/>
<path d="M158.957 135.57H134.885C133.892 135.57 133.205 136.079 133.357 136.703C133.51 137.327 134.439 137.836 135.432 137.836H159.377C160.37 137.836 161.083 137.327 160.968 136.703C160.854 136.079 159.95 135.57 158.957 135.57Z" fill="white"/>
<path d="M160.243 142.546H120.628C119.66 142.546 118.998 143.042 119.176 143.653C119.355 144.264 120.271 144.735 121.251 144.735H160.637C161.618 144.735 162.318 144.251 162.216 143.653C162.114 143.055 161.223 142.546 160.243 142.546Z" fill="white"/>
<path d="M161.478 149.305H129.5C128.533 149.305 127.884 149.776 128.036 150.362C128.189 150.947 129.093 151.418 130.048 151.418H161.872C162.827 151.418 163.514 150.947 163.413 150.362C163.311 149.776 162.445 149.305 161.478 149.305Z" fill="white"/>
<path d="M162.674 155.835H131.219C130.264 155.835 129.628 156.294 129.78 156.854C129.933 157.414 130.811 157.885 131.753 157.885H163.056C163.998 157.885 164.673 157.427 164.571 156.854C164.469 156.281 163.629 155.835 162.674 155.835Z" fill="white"/>
<path d="M163.833 162.15H129.462C128.533 162.15 127.896 162.595 128.049 163.143C128.202 163.69 129.067 164.136 129.997 164.136H164.151C165.08 164.136 165.755 163.69 165.653 163.143C165.551 162.595 164.775 162.15 163.833 162.15Z" fill="white"/>
<path opacity="0.5" d="M164.965 168.272H142.79C141.874 168.272 141.237 168.705 141.364 169.24C141.492 169.775 142.345 170.195 143.248 170.195H165.309C166.226 170.195 166.888 169.762 166.799 169.24C166.709 168.718 165.882 168.272 164.965 168.272Z" fill="white"/>
<path opacity="0.5" d="M153.368 105.056H121.709C120.64 105.056 119.927 105.642 120.118 106.329C120.322 106.744 120.646 107.087 121.048 107.314C121.45 107.542 121.911 107.642 122.371 107.602H153.839C154.909 107.602 155.66 107.03 155.533 106.329C155.355 105.914 155.05 105.566 154.66 105.337C154.271 105.108 153.818 105.009 153.368 105.056V105.056Z" fill="white"/>
<path d="M151.828 96.7182H107.758C106.676 96.7182 105.963 97.3293 106.179 98.0803C106.394 98.5107 106.73 98.8683 107.147 99.1083C107.563 99.3483 108.042 99.4601 108.521 99.4297H152.325C153.407 99.4297 154.183 98.8187 154.043 98.0803C153.873 97.6427 153.565 97.2727 153.165 97.0268C152.765 96.7809 152.295 96.6725 151.828 96.7182Z" fill="white"/>
<path d="M166.048 174.205H129.526C128.622 174.205 128.011 174.625 128.151 175.134C128.291 175.643 129.144 176.063 130.048 176.063H166.391C167.283 176.063 167.944 175.656 167.855 175.134C167.766 174.612 166.952 174.205 166.048 174.205Z" fill="white"/>
<path opacity="0.5" d="M169.765 115.928H178.001L177.594 112.783H169.294L169.765 115.928Z" fill="white"/>
<path opacity="0.5" d="M170.91 123.591H179.007L178.612 120.548H170.452L170.91 123.591Z" fill="white"/>
<path opacity="0.5" d="M172.018 130.974H179.974L179.592 128.046H171.585L172.018 130.974Z" fill="white"/>
<path opacity="0.5" d="M173.087 138.116H180.916L180.534 135.29H172.667L173.087 138.116Z" fill="white"/>
<path opacity="0.5" d="M174.131 145.015H181.82L181.451 142.278H173.724L174.131 145.015Z" fill="white"/>
<path opacity="0.5" d="M175.124 151.686H182.686L182.342 149.038H174.729L175.124 151.686Z" fill="white"/>
<path opacity="0.5" d="M176.104 158.14H183.538L183.207 155.581H175.722L176.104 158.14Z" fill="white"/>
<path opacity="0.5" d="M177.033 164.377H184.353L184.035 161.908H176.664L177.033 164.377Z" fill="white"/>
<path opacity="0.5" d="M177.95 170.437H185.155L184.837 168.031H177.581L177.95 170.437Z" fill="white"/>
<path opacity="0.5" d="M168.568 107.997H176.957L176.537 104.738H168.084L168.568 107.997Z" fill="white"/>
<path opacity="0.5" d="M167.333 99.7606H175.875L175.442 96.3745H166.824L167.333 99.7606Z" fill="white"/>
<path opacity="0.5" d="M178.828 176.305H185.919L185.613 173.976H178.472L178.828 176.305Z" fill="white"/>
<path d="M222.25 163.143C222.25 162.595 222.962 162.15 223.892 162.15H345.869C346.798 162.15 347.422 162.595 347.269 163.143C347.069 163.476 346.779 163.746 346.432 163.922C346.085 164.098 345.696 164.172 345.309 164.136H223.955C223.026 164.136 222.262 163.69 222.25 163.143Z" fill="white"/>
<path d="M347.104 157.885H279.56C278.618 157.885 277.905 157.427 277.968 156.854C278.032 156.281 278.847 155.835 279.801 155.835H347.689C348.631 155.835 349.268 156.294 349.103 156.854C348.904 157.2 348.609 157.481 348.255 157.664C347.901 157.847 347.501 157.923 347.104 157.885V157.885Z" fill="white"/>
<path opacity="0.5" d="M263.532 157.885H242.554C241.612 157.885 240.848 157.427 240.861 156.854C240.873 156.281 241.637 155.835 242.592 155.835H263.685C264.627 155.835 265.366 156.294 265.315 156.854C265.264 157.414 264.474 157.885 263.532 157.885Z" fill="white"/>
<path d="M307.374 151.418H212.104C211.149 151.418 210.347 150.947 210.309 150.362C210.271 149.776 211.022 149.305 211.989 149.305H307.768C308.723 149.305 309.423 149.776 309.309 150.362C309.194 150.947 308.341 151.418 307.374 151.418Z" fill="white"/>
<path opacity="0.5" d="M192.182 149.305H198.98C199.934 149.305 200.762 149.776 200.813 150.362C200.864 150.947 200.125 151.418 199.171 151.418H192.411C191.456 151.418 190.629 150.947 190.565 150.362C190.502 149.776 191.227 149.305 192.182 149.305Z" fill="white"/>
<path d="M321.16 143.653C321.033 144.251 320.142 144.735 319.162 144.735H229.391C228.411 144.735 227.622 144.251 227.609 143.653C227.596 143.055 228.386 142.546 229.353 142.546H319.62C320.6 142.546 321.288 143.042 321.16 143.653Z" fill="white"/>
<path d="M191.469 142.546H216.929C217.909 142.546 218.724 143.042 218.749 143.653C218.775 144.264 217.998 144.735 217.031 144.735H191.698C190.731 144.735 189.891 144.251 189.814 143.653C189.738 143.055 190.489 142.546 191.469 142.546Z" fill="white"/>
<path d="M190.718 135.57H288.661C289.654 135.57 290.392 136.079 290.303 136.703C290.214 137.327 289.348 137.836 288.356 137.836H190.96C189.979 137.836 189.114 137.327 189.05 136.703C188.987 136.079 189.725 135.57 190.718 135.57Z" fill="white"/>
<path d="M254.303 130.682C253.298 130.682 252.508 130.16 252.534 129.51C252.559 128.861 253.4 128.339 254.418 128.339H306.088C307.107 128.339 307.832 128.874 307.718 129.51C307.603 130.147 306.699 130.682 305.694 130.682H254.303Z" fill="white"/>
<path d="M189.954 128.339H234.674C235.692 128.339 236.507 128.874 236.507 129.51C236.507 130.147 235.68 130.682 234.674 130.682H190.209C189.19 130.682 188.325 130.16 188.248 129.51C188.172 128.861 188.936 128.339 189.954 128.339Z" fill="white"/>
<path d="M357.033 123.286H233.923C232.904 123.286 232.064 122.738 232.064 122.076C232.064 121.414 232.892 120.803 233.923 120.803H357.72C358.751 120.803 359.426 121.351 359.235 122.076C359.025 122.469 358.704 122.793 358.313 123.007C357.922 123.222 357.478 123.319 357.033 123.286Z" fill="white"/>
<path d="M359.223 115.622H250.905C249.861 115.622 249.033 115.062 249.059 114.349C249.084 113.636 249.95 113.076 250.994 113.076H359.948C360.992 113.076 361.679 113.636 361.476 114.349C361.268 114.76 360.943 115.101 360.542 115.327C360.141 115.554 359.682 115.656 359.223 115.622Z" fill="white"/>
<path opacity="0.5" d="M361.514 107.666H338.83C337.76 107.666 337.035 107.093 337.2 106.393C337.399 105.977 337.72 105.632 338.12 105.404C338.521 105.177 338.982 105.078 339.441 105.12H362.214C363.284 105.12 363.984 105.705 363.767 106.393C363.556 106.801 363.23 107.138 362.83 107.364C362.43 107.59 361.973 107.695 361.514 107.666Z" fill="white"/>
<path d="M322.955 107.666H239.664C238.608 107.666 237.742 107.093 237.755 106.393C237.767 105.693 238.62 105.12 239.69 105.12H323.477C324.547 105.12 325.285 105.706 325.145 106.393C324.958 106.807 324.647 107.153 324.254 107.381C323.862 107.609 323.407 107.709 322.955 107.666V107.666Z" fill="white"/>
<path d="M194.18 168.272H271.107C272.023 168.272 272.723 168.705 272.66 169.24C272.596 169.775 271.832 170.195 270.916 170.195H194.422C193.506 170.195 192.716 169.762 192.653 169.24C192.589 168.718 193.289 168.272 194.18 168.272Z" fill="white"/>
<path d="M194.842 174.205H313.026C313.917 174.205 314.566 174.625 314.452 175.134C314.337 175.643 313.535 176.063 312.631 176.063H195.046C194.142 176.063 193.366 175.656 193.315 175.134C193.264 174.612 193.938 174.205 194.842 174.205Z" fill="white"/>
<path d="M318.818 99.4297H258.657C257.575 99.4297 256.735 98.8187 256.773 98.0804C256.811 97.342 257.715 96.7183 258.81 96.7183H319.327C320.422 96.7183 321.186 97.3293 321.046 98.0804C320.865 98.5117 320.552 98.8746 320.151 99.1171C319.751 99.3595 319.284 99.4689 318.818 99.4297V99.4297Z" fill="white"/>
<path opacity="0.5" d="M241.599 99.4297H186.861C185.779 99.4297 184.824 98.8187 184.748 98.0804C184.671 97.342 185.473 96.7183 186.568 96.7183H241.625C242.707 96.7183 243.585 97.3293 243.572 98.0804C243.559 98.8314 242.681 99.4297 241.599 99.4297Z" fill="white"/>
<path opacity="0.5" d="M288.19 168.272C289.107 168.272 289.794 168.705 289.718 169.24C289.641 169.775 288.839 170.195 287.923 170.195H282.016C281.112 170.195 280.425 169.762 280.489 169.24C280.552 168.718 281.342 168.272 282.258 168.272H288.19Z" fill="white"/>
<path opacity="0.5" d="M215.236 163.143C215.236 163.69 214.536 164.136 213.606 164.136H205.51C204.581 164.136 203.792 163.69 203.753 163.143C203.715 162.595 204.428 162.15 205.357 162.15H213.492C214.421 162.15 215.21 162.583 215.236 163.143Z" fill="white"/>
<path opacity="0.5" d="M312.937 136.703C312.822 137.327 311.919 137.836 310.938 137.836H301.467C300.474 137.836 299.762 137.327 299.851 136.703C299.94 136.079 300.844 135.57 301.837 135.57H311.358C312.351 135.57 313.064 136.079 312.937 136.703Z" fill="white"/>
<path opacity="0.5" d="M342.483 142.546C343.463 142.546 344.125 143.042 343.96 143.653C343.761 144.014 343.461 144.308 343.096 144.5C342.732 144.693 342.32 144.774 341.91 144.735H334.361C333.381 144.735 332.719 144.252 332.859 143.653C333.049 143.286 333.344 142.984 333.707 142.786C334.07 142.589 334.485 142.505 334.896 142.546H342.483Z" fill="white"/>
<path opacity="0.5" d="M219.016 123.286C217.998 123.286 217.145 122.738 217.107 122.076C217.069 121.414 217.896 120.803 218.927 120.803H226.96C227.991 120.803 228.831 121.351 228.844 122.076C228.856 122.802 228.029 123.286 227.011 123.286H219.016Z" fill="white"/>
<path d="M109.616 84.0905C109.81 84.519 109.888 84.9905 109.844 85.4586C109.8 85.9266 109.636 86.3753 109.366 86.7604C109.096 87.1456 108.731 87.454 108.307 87.6554C107.882 87.8569 107.412 87.9444 106.943 87.9094C105.822 87.843 104.747 87.4443 103.853 86.7642C102.96 86.084 102.29 85.1532 101.928 84.0905C101.735 83.664 101.657 83.1951 101.7 82.7293C101.743 82.2636 101.905 81.8168 102.172 81.4324C102.438 81.048 102.8 80.7391 103.221 80.5357C103.642 80.3323 104.109 80.2413 104.575 80.2715C105.702 80.3296 106.784 80.7248 107.683 81.4058C108.582 82.0867 109.256 83.0221 109.616 84.0905V84.0905Z" fill="white"/>
<path d="M119.978 84.154C120.151 84.5939 120.21 85.0705 120.149 85.5394C120.089 86.0082 119.91 86.454 119.63 86.8353C119.351 87.2165 118.979 87.5207 118.55 87.7197C118.122 87.9186 117.649 88.0057 117.178 87.9729C116.071 87.9109 115.009 87.5118 114.135 86.8292C113.262 86.1466 112.617 85.2131 112.289 84.154C112.121 83.716 112.065 83.243 112.126 82.7778C112.187 82.3126 112.364 81.8701 112.639 81.4905C112.915 81.111 113.282 80.8065 113.705 80.6046C114.129 80.4028 114.596 80.3101 115.065 80.335C116.178 80.3865 117.247 80.7813 118.127 81.465C119.007 82.1488 119.654 83.0881 119.978 84.154V84.154Z" fill="white"/>
<path d="M130.455 84.0904C130.609 84.5399 130.649 85.0204 130.573 85.4893C130.497 85.9582 130.306 86.4011 130.018 86.7787C129.73 87.1563 129.353 87.457 128.92 87.6542C128.488 87.8515 128.014 87.9391 127.54 87.9093C126.443 87.8574 125.391 87.4601 124.534 86.7743C123.676 86.0884 123.058 85.149 122.766 84.0904C122.616 83.642 122.578 83.1638 122.655 82.6973C122.732 82.2308 122.922 81.7902 123.208 81.4138C123.494 81.0374 123.868 80.7365 124.297 80.5375C124.726 80.3384 125.196 80.247 125.669 80.2714C126.769 80.3149 127.827 80.7088 128.688 81.3958C129.549 82.0828 130.168 83.0269 130.455 84.0904V84.0904Z" fill="white"/>
<path opacity="0.1" d="M30.4497 70.2148L64.7566 161.908L106.141 70.2148H30.4497Z" fill="white"/>
<path opacity="0.1" d="M88.332 187.953L156.984 70.2148H228.844L127.807 187.953H88.332Z" fill="white"/>
<path opacity="0.1" d="M259.815 69.6294L152.808 187.953H169.294L280.132 70.215L259.815 69.6294Z" fill="white"/>
<path opacity="0.1" d="M280.947 187.953L398.545 70.2148H415.145L293.893 187.953H280.947Z" fill="white"/>
<path d="M121.493 239.05H94.6459C92.9578 239.05 91.3389 239.721 90.1452 240.915C88.9516 242.108 88.281 243.727 88.281 245.415V258.476C88.281 260.164 88.9516 261.783 90.1452 262.977C91.3389 264.17 92.9578 264.841 94.6459 264.841H101.66L106.981 276.896L114.479 264.841H121.493C123.181 264.841 124.8 264.17 125.994 262.977C127.187 261.783 127.858 260.164 127.858 258.476V245.326C127.835 243.653 127.154 242.057 125.963 240.883C124.771 239.708 123.166 239.05 121.493 239.05V239.05Z" fill="white" stroke="#263238" stroke-linecap="round" stroke-linejoin="round"/>
<path d="M104.333 246.523C104.333 246.185 104.467 245.861 104.706 245.623C104.945 245.384 105.269 245.25 105.606 245.25C105.929 245.249 106.24 245.371 106.476 245.591C106.713 245.81 106.857 246.112 106.879 246.434C106.879 246.771 106.745 247.095 106.506 247.334C106.268 247.572 105.944 247.707 105.606 247.707C105.284 247.707 104.973 247.586 104.736 247.366C104.5 247.146 104.356 246.845 104.333 246.523ZM104.613 249.183H106.663V257.916H104.613V249.183Z" fill="#263238"/>
<path d="M111.589 248.725V249.247H113.983V250.889H111.653V257.916H109.604V250.889H108.165V249.247H109.604V248.7C109.571 248.286 109.631 247.87 109.777 247.482C109.924 247.093 110.154 246.742 110.452 246.453C110.75 246.164 111.107 245.943 111.5 245.808C111.892 245.673 112.31 245.626 112.722 245.67C113.374 245.643 114.02 245.807 114.581 246.141L114.008 247.681C113.675 247.452 113.28 247.328 112.875 247.325C112.035 247.325 111.589 247.796 111.589 248.725Z" fill="#263238"/>
<path d="M203.244 240.871H176.359C174.67 240.871 173.052 241.541 171.858 242.735C170.664 243.928 169.994 245.547 169.994 247.236V260.309C169.994 261.997 170.664 263.616 171.858 264.81C173.052 266.003 174.67 266.674 176.359 266.674H183.385L188.694 278.729L196.192 266.674H203.218C204.907 266.674 206.525 266.003 207.719 264.81C208.913 263.616 209.583 261.997 209.583 260.309V247.185C209.57 245.51 208.897 243.908 207.71 242.726C206.524 241.544 204.919 240.877 203.244 240.871Z" fill="white" stroke="#263238" stroke-linecap="round" stroke-linejoin="round"/>
<path d="M182.036 256.032H175.175C175.307 256.67 175.669 257.237 176.193 257.625C176.717 258.012 177.365 258.193 178.013 258.132C178.453 258.149 178.891 258.072 179.299 257.907C179.707 257.743 180.076 257.494 180.381 257.178L181.476 258.451C180.815 259.108 179.98 259.563 179.069 259.762C178.159 259.962 177.21 259.897 176.335 259.577C175.459 259.256 174.694 258.692 174.127 257.952C173.561 257.211 173.218 256.324 173.138 255.396C173.12 254.801 173.225 254.209 173.445 253.656C173.666 253.103 173.998 252.602 174.42 252.183C174.843 251.764 175.347 251.436 175.902 251.22C176.457 251.004 177.05 250.904 177.644 250.927C178.24 250.903 178.833 251.004 179.387 251.224C179.941 251.444 180.442 251.778 180.859 252.204C181.275 252.63 181.598 253.139 181.805 253.697C182.012 254.256 182.1 254.852 182.062 255.446C182.062 255.599 182.049 255.841 182.036 256.032ZM175.162 254.683H180.178C180.116 254.08 179.826 253.523 179.367 253.127C178.907 252.732 178.313 252.528 177.708 252.557C177.092 252.517 176.484 252.715 176.01 253.111C175.536 253.507 175.233 254.069 175.162 254.683V254.683Z" fill="#263238"/>
<path d="M183.997 247.618H186.033V259.749H183.997V247.618Z" fill="#263238"/>
<path d="M187.815 258.884L188.592 257.331C189.508 257.892 190.56 258.191 191.634 258.196C192.907 258.196 193.467 257.84 193.467 257.229C193.467 255.561 188.07 257.127 188.07 253.652C188.07 251.997 189.559 250.915 191.889 250.915C193.024 250.897 194.147 251.154 195.161 251.666L194.371 253.219C193.599 252.77 192.718 252.546 191.825 252.57C190.552 252.57 189.992 252.977 189.992 253.55C189.992 255.319 195.39 253.741 195.39 257.165C195.39 258.794 193.888 259.864 191.431 259.864C190.158 259.878 188.907 259.539 187.815 258.884Z" fill="#263238"/>
<path d="M205.345 256.032H198.483C198.615 256.67 198.978 257.237 199.501 257.625C200.025 258.012 200.673 258.193 201.322 258.132C201.762 258.149 202.2 258.072 202.608 257.907C203.015 257.743 203.384 257.494 203.69 257.178L204.784 258.451C204.123 259.108 203.288 259.563 202.378 259.762C201.467 259.962 200.518 259.897 199.643 259.577C198.768 259.256 198.002 258.692 197.436 257.952C196.87 257.211 196.526 256.324 196.446 255.396C196.429 254.801 196.533 254.209 196.754 253.656C196.974 253.103 197.306 252.602 197.729 252.183C198.152 251.764 198.656 251.436 199.21 251.22C199.765 251.004 200.358 250.904 200.953 250.927C201.548 250.903 202.142 251.004 202.696 251.224C203.25 251.444 203.751 251.778 204.167 252.204C204.584 252.63 204.906 253.139 205.113 253.697C205.321 254.256 205.408 254.852 205.37 255.446C205.37 255.599 205.357 255.841 205.345 256.032ZM198.47 254.683H203.422C203.361 254.08 203.071 253.523 202.611 253.127C202.152 252.732 201.558 252.528 200.953 252.557C200.347 252.534 199.755 252.739 199.295 253.134C198.835 253.528 198.541 254.081 198.47 254.683V254.683Z" fill="#263238"/>
<path d="M282.5 240.107H255.64C253.963 240.107 252.353 240.769 251.162 241.949C249.97 243.129 249.292 244.731 249.275 246.408V259.482C249.275 261.17 249.946 262.789 251.139 263.982C252.333 265.176 253.952 265.847 255.64 265.847H262.667L267.975 277.902L275.473 265.847H282.5C284.188 265.847 285.807 265.176 287.001 263.982C288.194 262.789 288.865 261.17 288.865 259.482V246.408C288.848 244.731 288.17 243.129 286.978 241.949C285.786 240.769 284.177 240.107 282.5 240.107V240.107Z" fill="white" stroke="#263238" stroke-linecap="round" stroke-linejoin="round"/>
<path d="M261.801 249.782V250.304H264.195V251.946H261.852V258.973H259.816V251.946H258.377V250.304H259.816V249.756C259.784 249.343 259.843 248.929 259.989 248.542C260.134 248.154 260.364 247.804 260.66 247.515C260.956 247.226 261.312 247.005 261.703 246.869C262.094 246.733 262.51 246.684 262.922 246.726C263.57 246.695 264.213 246.859 264.767 247.197L264.195 248.738C263.866 248.507 263.475 248.383 263.074 248.381C262.247 248.381 261.801 248.852 261.801 249.782Z" fill="#263238"/>
<path d="M264.729 254.606C264.694 253.678 264.937 252.759 265.427 251.97C265.918 251.18 266.633 250.555 267.481 250.176C268.33 249.796 269.272 249.679 270.188 249.839C271.103 249.999 271.95 250.429 272.619 251.074C273.288 251.72 273.749 252.55 273.942 253.459C274.135 254.369 274.052 255.315 273.704 256.176C273.355 257.038 272.756 257.775 271.985 258.294C271.214 258.813 270.305 259.089 269.376 259.087C268.771 259.121 268.165 259.029 267.598 258.818C267.03 258.606 266.512 258.28 266.075 257.86C265.639 257.439 265.295 256.933 265.063 256.373C264.831 255.814 264.718 255.212 264.729 254.606V254.606ZM271.972 254.606C271.935 254.113 271.755 253.64 271.454 253.248C271.152 252.855 270.743 252.558 270.276 252.395C269.809 252.231 269.304 252.207 268.823 252.326C268.342 252.444 267.907 252.701 267.57 253.063C267.232 253.426 267.008 253.879 266.924 254.367C266.841 254.855 266.901 255.356 267.098 255.811C267.295 256.265 267.62 256.652 268.034 256.924C268.447 257.196 268.931 257.342 269.427 257.343C269.778 257.344 270.125 257.273 270.447 257.133C270.769 256.993 271.059 256.788 271.298 256.531C271.537 256.274 271.72 255.971 271.836 255.639C271.952 255.308 271.999 254.956 271.972 254.606V254.606Z" fill="#263238"/>
<path d="M281.036 250.138V252.086C280.879 252.075 280.722 252.075 280.565 252.086C280.21 252.058 279.854 252.11 279.521 252.238C279.189 252.366 278.89 252.566 278.646 252.825C278.402 253.084 278.218 253.395 278.11 253.734C278.002 254.073 277.971 254.432 278.019 254.785V259.024H275.97V250.291H277.917V251.564C278.268 251.075 278.74 250.686 279.287 250.436C279.834 250.186 280.437 250.083 281.036 250.138V250.138Z" fill="#263238"/>
<path d="M360.61 239.05H333.75C332.062 239.05 330.443 239.721 329.249 240.915C328.056 242.108 327.385 243.727 327.385 245.415V258.476C327.385 260.164 328.056 261.783 329.249 262.977C330.443 264.17 332.062 264.841 333.75 264.841H340.777L346.085 276.896L353.583 264.841H360.61C362.298 264.841 363.917 264.17 365.111 262.977C366.304 261.783 366.975 260.164 366.975 258.476V245.326C366.952 243.653 366.271 242.057 365.08 240.883C363.888 239.708 362.283 239.05 360.61 239.05V239.05Z" fill="white" stroke="#263238" stroke-linecap="round" stroke-linejoin="round"/>
<path d="M343.692 248.75H351.228V250.418H343.692V248.75ZM343.692 252.709H351.228V254.352H343.692V252.709Z" fill="#263238"/>
<path d="M162.432 223.927H135.623C133.935 223.927 132.316 224.598 131.123 225.792C129.929 226.985 129.258 228.604 129.258 230.292V243.353C129.258 245.041 129.929 246.66 131.123 247.854C132.316 249.047 133.935 249.718 135.623 249.718H142.65L147.958 261.773L155.456 249.718H162.483C164.171 249.718 165.79 249.047 166.984 247.854C168.177 246.66 168.848 245.041 168.848 243.353V230.241C168.841 229.406 168.67 228.579 168.344 227.81C168.018 227.04 167.544 226.342 166.948 225.756C166.352 225.169 165.647 224.706 164.872 224.392C164.097 224.079 163.268 223.921 162.432 223.927V223.927Z" fill="white" stroke="#263238" stroke-linecap="round" stroke-linejoin="round"/>
<path d="M142.688 229.35H146.596V230.992H144.725V243.022H146.596V244.664H142.688V229.35Z" fill="#263238"/>
<path d="M151.663 244.664V243.022H153.509V230.992H151.663V229.35H155.545V244.626L151.663 244.664Z" fill="#263238"/>
<path d="M242.274 222.591H215.414C213.726 222.591 212.107 223.261 210.913 224.455C209.72 225.649 209.049 227.268 209.049 228.956V242.017C209.049 243.705 209.72 245.324 210.913 246.517C212.107 247.711 213.726 248.381 215.414 248.381H222.441L227.762 260.437L235.26 248.381H242.274C243.962 248.381 245.581 247.711 246.775 246.517C247.968 245.324 248.639 243.705 248.639 242.017V228.905C248.625 227.226 247.949 225.62 246.757 224.437C245.564 223.254 243.953 222.591 242.274 222.591V222.591Z" fill="white" stroke="#263238" stroke-linecap="round" stroke-linejoin="round"/>
<path d="M223.383 235.626C224.032 235.83 224.35 236.275 224.35 237.294V240.4C224.318 240.574 224.329 240.753 224.382 240.922C224.435 241.091 224.528 241.245 224.653 241.37C224.778 241.495 224.932 241.588 225.101 241.641C225.27 241.693 225.449 241.704 225.623 241.673H225.967V243.315H225.139C224.771 243.37 224.395 243.339 224.041 243.226C223.686 243.113 223.362 242.919 223.094 242.661C222.826 242.403 222.621 242.086 222.494 241.736C222.368 241.386 222.323 241.012 222.364 240.642V237.281C222.364 236.734 222.084 236.492 221.626 236.492H221.091V234.824H221.626C222.084 234.824 222.364 234.582 222.364 234.035V230.674C222.323 230.304 222.368 229.93 222.494 229.58C222.621 229.229 222.826 228.913 223.094 228.655C223.362 228.396 223.686 228.203 224.041 228.09C224.395 227.976 224.771 227.946 225.139 228.001H225.967V229.643H225.623C225.449 229.611 225.27 229.622 225.101 229.675C224.932 229.728 224.778 229.821 224.653 229.946C224.528 230.071 224.435 230.225 224.382 230.394C224.329 230.563 224.318 230.742 224.35 230.916V234.022C224.35 234.964 224.032 235.41 223.383 235.626Z" fill="#263238"/>
<path d="M235.858 234.786V236.415H235.298C234.852 236.415 234.572 236.657 234.572 237.205V240.565C234.614 240.937 234.569 241.312 234.442 241.664C234.315 242.015 234.108 242.332 233.839 242.591C233.569 242.849 233.244 243.042 232.887 243.155C232.531 243.267 232.154 243.296 231.784 243.239H230.957V241.635H231.301C231.474 241.663 231.652 241.65 231.82 241.596C231.987 241.542 232.14 241.449 232.264 241.325C232.389 241.201 232.482 241.048 232.535 240.881C232.589 240.713 232.602 240.535 232.574 240.362V237.256C232.574 236.237 232.866 235.792 233.516 235.588C232.866 235.372 232.574 234.926 232.574 233.908V230.802C232.602 230.628 232.589 230.45 232.535 230.282C232.482 230.115 232.389 229.963 232.264 229.838C232.14 229.714 231.987 229.621 231.82 229.567C231.652 229.513 231.474 229.5 231.301 229.529H230.957V227.886H231.784C232.154 227.829 232.531 227.858 232.887 227.97C233.244 228.083 233.569 228.276 233.839 228.534C234.108 228.793 234.315 229.11 234.442 229.461C234.569 229.813 234.614 230.188 234.572 230.56V233.92C234.572 234.468 234.852 234.71 235.298 234.71L235.858 234.786Z" fill="#263238"/>
<path d="M321.275 219.943H294.415C292.727 219.943 291.108 220.613 289.914 221.807C288.721 223.001 288.05 224.62 288.05 226.308V239.369C288.05 241.057 288.721 242.676 289.914 243.869C291.108 245.063 292.727 245.733 294.415 245.733H301.429L306.75 257.789L314.248 245.733H321.275C322.963 245.733 324.582 245.063 325.776 243.869C326.969 242.676 327.64 241.057 327.64 239.369V226.231C327.62 224.557 326.94 222.957 325.749 221.78C324.557 220.603 322.95 219.943 321.275 219.943V219.943Z" fill="white" stroke="#263238" stroke-linecap="round" stroke-linejoin="round"/>
<path d="M306.776 229.617C306.757 229.43 306.779 229.241 306.838 229.062C306.897 228.884 306.993 228.719 307.119 228.58C307.246 228.44 307.4 228.329 307.572 228.253C307.744 228.177 307.93 228.137 308.119 228.137C308.307 228.137 308.493 228.177 308.665 228.253C308.837 228.329 308.991 228.44 309.118 228.58C309.244 228.719 309.34 228.884 309.4 229.062C309.459 229.241 309.48 229.43 309.462 229.617C309.48 229.805 309.459 229.994 309.4 230.173C309.34 230.351 309.244 230.516 309.118 230.655C308.991 230.794 308.837 230.906 308.665 230.982C308.493 231.058 308.307 231.098 308.119 231.098C307.93 231.098 307.744 231.058 307.572 230.982C307.4 230.906 307.246 230.794 307.119 230.655C306.993 230.516 306.897 230.351 306.838 230.173C306.779 229.994 306.757 229.805 306.776 229.617V229.617ZM309.462 235.842C309.427 236.334 309.297 236.813 309.08 237.255L308.24 239.559H306.967L307.629 237.014C307.392 236.914 307.192 236.745 307.053 236.529C306.915 236.313 306.845 236.061 306.852 235.804C306.852 235.451 306.992 235.113 307.242 234.864C307.491 234.614 307.829 234.474 308.182 234.474C308.535 234.474 308.873 234.614 309.123 234.864C309.372 235.113 309.513 235.451 309.513 235.804L309.462 235.842Z" fill="#263238"/>
<path d="M216.279 448.367H243.127C244.815 448.367 246.434 447.696 247.627 446.503C248.821 445.309 249.492 443.69 249.492 442.002V428.992C249.492 427.304 248.821 425.685 247.627 424.491C246.434 423.298 244.815 422.627 243.127 422.627H236.113L234.063 410.572L223.294 422.627H216.279C214.591 422.627 212.972 423.298 211.779 424.491C210.585 425.685 209.915 427.304 209.915 428.992V442.053C209.928 443.732 210.604 445.338 211.797 446.521C212.989 447.703 214.6 448.367 216.279 448.367V448.367Z" fill="white" stroke="#263238" stroke-linecap="round" stroke-linejoin="round"/>
<path d="M225.712 432.836L220.073 435.001L225.712 437.101V438.819L218.176 435.892V434.122L225.712 431.194V432.836Z" fill="#263238"/>
<path d="M231.67 426.892H233.49L228.093 442.307H226.272L231.67 426.892Z" fill="#263238"/>
<path d="M241.421 434.059V435.828L233.885 438.756V437.05L239.524 434.95L233.885 432.837V431.182L241.421 434.059Z" fill="#263238"/>
<path d="M45.5472 353.211H72.3943C74.0715 353.211 75.6808 352.55 76.8727 351.37C78.0645 350.19 78.7425 348.587 78.7593 346.91V333.837C78.7593 332.148 78.0887 330.53 76.895 329.336C75.7014 328.142 74.0824 327.472 72.3943 327.472H65.3802L66.9078 315.417L52.5613 327.472H45.5472C43.8591 327.472 42.2401 328.142 41.0465 329.336C39.8528 330.53 39.1823 332.148 39.1823 333.837V346.91C39.199 348.587 39.877 350.19 41.0689 351.37C42.2607 352.55 43.8701 353.211 45.5472 353.211V353.211Z" fill="white" stroke="#263238" stroke-linecap="round" stroke-linejoin="round"/>
<path d="M53.5033 344.937C53.5033 344.599 53.6374 344.276 53.8761 344.037C54.1149 343.798 54.4387 343.664 54.7763 343.664C55.1139 343.664 55.4377 343.798 55.6764 344.037C55.9151 344.276 56.0493 344.599 56.0493 344.937C56.0493 345.275 55.9151 345.598 55.6764 345.837C55.4377 346.076 55.1139 346.21 54.7763 346.21C54.4387 346.21 54.1149 346.076 53.8761 345.837C53.6374 345.598 53.5033 345.275 53.5033 344.937ZM53.6179 334.639H56.0365L55.6292 342.277H54.0125L53.6179 334.639Z" fill="#263238"/>
<path d="M58.1495 337.566H65.6856V339.209H58.1495V337.566ZM58.1495 341.525H65.6856V343.168H58.1495V341.525Z" fill="#263238"/>
</svg>
